<?xml version="1.0" encoding="utf-8" standalone="no"?>
<!DOCTYPE svg PUBLIC "-//W3C//DTD SVG 1.1//EN"
  "http://www.w3.org/Graphics/SVG/1.1/DTD/svg11.dtd">
<!-- Created with matplotlib (https://matplotlib.org/) -->
<svg height="345.6pt" version="1.1" viewBox="0 0 460.8 345.6" width="460.8pt" xmlns="http://www.w3.org/2000/svg" xmlns:xlink="http://www.w3.org/1999/xlink">
 <defs>
  <style type="text/css">
*{stroke-linecap:butt;stroke-linejoin:round;}
  </style>
 </defs>
 <g id="figure_1">
  <g id="patch_1">
   <path d="M 0 345.6 
L 460.8 345.6 
L 460.8 0 
L 0 0 
z
" style="fill:#ffffff;"/>
  </g>
  <g id="axes_1">
   <g id="patch_2">
    <path d="M 57.6 307.584 
L 414.72 307.584 
L 414.72 41.472 
L 57.6 41.472 
z
" style="fill:#ffffff;"/>
   </g>
   <g id="matplotlib.axis_1">
    <g id="xtick_1">
     <g id="line2d_1">
      <defs>
       <path d="M 0 0 
L 0 3.5 
" id="mbc80e0c6ea" style="stroke:#000000;stroke-width:0.8;"/>
      </defs>
      <g>
       <use style="stroke:#000000;stroke-width:0.8;" x="73.832727" xlink:href="#mbc80e0c6ea" y="307.584"/>
      </g>
     </g>
     <g id="text_1">
      <!-- 0 -->
      <defs>
       <path d="M 31.78125 66.40625 
Q 24.171875 66.40625 20.328125 58.90625 
Q 16.5 51.421875 16.5 36.375 
Q 16.5 21.390625 20.328125 13.890625 
Q 24.171875 6.390625 31.78125 6.390625 
Q 39.453125 6.390625 43.28125 13.890625 
Q 47.125 21.390625 47.125 36.375 
Q 47.125 51.421875 43.28125 58.90625 
Q 39.453125 66.40625 31.78125 66.40625 
z
M 31.78125 74.21875 
Q 44.046875 74.21875 50.515625 64.515625 
Q 56.984375 54.828125 56.984375 36.375 
Q 56.984375 17.96875 50.515625 8.265625 
Q 44.046875 -1.421875 31.78125 -1.421875 
Q 19.53125 -1.421875 13.0625 8.265625 
Q 6.59375 17.96875 6.59375 36.375 
Q 6.59375 54.828125 13.0625 64.515625 
Q 19.53125 74.21875 31.78125 74.21875 
z
" id="DejaVuSans-48"/>
      </defs>
      <g transform="translate(70.651477 322.182437)scale(0.1 -0.1)">
       <use xlink:href="#DejaVuSans-48"/>
      </g>
     </g>
    </g>
    <g id="xtick_2">
     <g id="line2d_2">
      <g>
       <use style="stroke:#000000;stroke-width:0.8;" x="138.828632" xlink:href="#mbc80e0c6ea" y="307.584"/>
      </g>
     </g>
     <g id="text_2">
      <!-- 200 -->
      <defs>
       <path d="M 19.1875 8.296875 
L 53.609375 8.296875 
L 53.609375 0 
L 7.328125 0 
L 7.328125 8.296875 
Q 12.9375 14.109375 22.625 23.890625 
Q 32.328125 33.6875 34.8125 36.53125 
Q 39.546875 41.84375 41.421875 45.53125 
Q 43.3125 49.21875 43.3125 52.78125 
Q 43.3125 58.59375 39.234375 62.25 
Q 35.15625 65.921875 28.609375 65.921875 
Q 23.96875 65.921875 18.8125 64.3125 
Q 13.671875 62.703125 7.8125 59.421875 
L 7.8125 69.390625 
Q 13.765625 71.78125 18.9375 73 
Q 24.125 74.21875 28.421875 74.21875 
Q 39.75 74.21875 46.484375 68.546875 
Q 53.21875 62.890625 53.21875 53.421875 
Q 53.21875 48.921875 51.53125 44.890625 
Q 49.859375 40.875 45.40625 35.40625 
Q 44.1875 33.984375 37.640625 27.21875 
Q 31.109375 20.453125 19.1875 8.296875 
z
" id="DejaVuSans-50"/>
      </defs>
      <g transform="translate(129.284882 322.182437)scale(0.1 -0.1)">
       <use xlink:href="#DejaVuSans-50"/>
       <use x="63.623047" xlink:href="#DejaVuSans-48"/>
       <use x="127.246094" xlink:href="#DejaVuSans-48"/>
      </g>
     </g>
    </g>
    <g id="xtick_3">
     <g id="line2d_3">
      <g>
       <use style="stroke:#000000;stroke-width:0.8;" x="203.824537" xlink:href="#mbc80e0c6ea" y="307.584"/>
      </g>
     </g>
     <g id="text_3">
      <!-- 400 -->
      <defs>
       <path d="M 37.796875 64.3125 
L 12.890625 25.390625 
L 37.796875 25.390625 
z
M 35.203125 72.90625 
L 47.609375 72.90625 
L 47.609375 25.390625 
L 58.015625 25.390625 
L 58.015625 17.1875 
L 47.609375 17.1875 
L 47.609375 0 
L 37.796875 0 
L 37.796875 17.1875 
L 4.890625 17.1875 
L 4.890625 26.703125 
z
" id="DejaVuSans-52"/>
      </defs>
      <g transform="translate(194.280787 322.182437)scale(0.1 -0.1)">
       <use xlink:href="#DejaVuSans-52"/>
       <use x="63.623047" xlink:href="#DejaVuSans-48"/>
       <use x="127.246094" xlink:href="#DejaVuSans-48"/>
      </g>
     </g>
    </g>
    <g id="xtick_4">
     <g id="line2d_4">
      <g>
       <use style="stroke:#000000;stroke-width:0.8;" x="268.820442" xlink:href="#mbc80e0c6ea" y="307.584"/>
      </g>
     </g>
     <g id="text_4">
      <!-- 600 -->
      <defs>
       <path d="M 33.015625 40.375 
Q 26.375 40.375 22.484375 35.828125 
Q 18.609375 31.296875 18.609375 23.390625 
Q 18.609375 15.53125 22.484375 10.953125 
Q 26.375 6.390625 33.015625 6.390625 
Q 39.65625 6.390625 43.53125 10.953125 
Q 47.40625 15.53125 47.40625 23.390625 
Q 47.40625 31.296875 43.53125 35.828125 
Q 39.65625 40.375 33.015625 40.375 
z
M 52.59375 71.296875 
L 52.59375 62.3125 
Q 48.875 64.0625 45.09375 64.984375 
Q 41.3125 65.921875 37.59375 65.921875 
Q 27.828125 65.921875 22.671875 59.328125 
Q 17.53125 52.734375 16.796875 39.40625 
Q 19.671875 43.65625 24.015625 45.921875 
Q 28.375 48.1875 33.59375 48.1875 
Q 44.578125 48.1875 50.953125 41.515625 
Q 57.328125 34.859375 57.328125 23.390625 
Q 57.328125 12.15625 50.6875 5.359375 
Q 44.046875 -1.421875 33.015625 -1.421875 
Q 20.359375 -1.421875 13.671875 8.265625 
Q 6.984375 17.96875 6.984375 36.375 
Q 6.984375 53.65625 15.1875 63.9375 
Q 23.390625 74.21875 37.203125 74.21875 
Q 40.921875 74.21875 44.703125 73.484375 
Q 48.484375 72.75 52.59375 71.296875 
z
" id="DejaVuSans-54"/>
      </defs>
      <g transform="translate(259.276692 322.182437)scale(0.1 -0.1)">
       <use xlink:href="#DejaVuSans-54"/>
       <use x="63.623047" xlink:href="#DejaVuSans-48"/>
       <use x="127.246094" xlink:href="#DejaVuSans-48"/>
      </g>
     </g>
    </g>
    <g id="xtick_5">
     <g id="line2d_5">
      <g>
       <use style="stroke:#000000;stroke-width:0.8;" x="333.816347" xlink:href="#mbc80e0c6ea" y="307.584"/>
      </g>
     </g>
     <g id="text_5">
      <!-- 800 -->
      <defs>
       <path d="M 31.78125 34.625 
Q 24.75 34.625 20.71875 30.859375 
Q 16.703125 27.09375 16.703125 20.515625 
Q 16.703125 13.921875 20.71875 10.15625 
Q 24.75 6.390625 31.78125 6.390625 
Q 38.8125 6.390625 42.859375 10.171875 
Q 46.921875 13.96875 46.921875 20.515625 
Q 46.921875 27.09375 42.890625 30.859375 
Q 38.875 34.625 31.78125 34.625 
z
M 21.921875 38.8125 
Q 15.578125 40.375 12.03125 44.71875 
Q 8.5 49.078125 8.5 55.328125 
Q 8.5 64.0625 14.71875 69.140625 
Q 20.953125 74.21875 31.78125 74.21875 
Q 42.671875 74.21875 48.875 69.140625 
Q 55.078125 64.0625 55.078125 55.328125 
Q 55.078125 49.078125 51.53125 44.71875 
Q 48 40.375 41.703125 38.8125 
Q 48.828125 37.15625 52.796875 32.3125 
Q 56.78125 27.484375 56.78125 20.515625 
Q 56.78125 9.90625 50.3125 4.234375 
Q 43.84375 -1.421875 31.78125 -1.421875 
Q 19.734375 -1.421875 13.25 4.234375 
Q 6.78125 9.90625 6.78125 20.515625 
Q 6.78125 27.484375 10.78125 32.3125 
Q 14.796875 37.15625 21.921875 38.8125 
z
M 18.3125 54.390625 
Q 18.3125 48.734375 21.84375 45.5625 
Q 25.390625 42.390625 31.78125 42.390625 
Q 38.140625 42.390625 41.71875 45.5625 
Q 45.3125 48.734375 45.3125 54.390625 
Q 45.3125 60.0625 41.71875 63.234375 
Q 38.140625 66.40625 31.78125 66.40625 
Q 25.390625 66.40625 21.84375 63.234375 
Q 18.3125 60.0625 18.3125 54.390625 
z
" id="DejaVuSans-56"/>
      </defs>
      <g transform="translate(324.272597 322.182437)scale(0.1 -0.1)">
       <use xlink:href="#DejaVuSans-56"/>
       <use x="63.623047" xlink:href="#DejaVuSans-48"/>
       <use x="127.246094" xlink:href="#DejaVuSans-48"/>
      </g>
     </g>
    </g>
    <g id="xtick_6">
     <g id="line2d_6">
      <g>
       <use style="stroke:#000000;stroke-width:0.8;" x="398.812252" xlink:href="#mbc80e0c6ea" y="307.584"/>
      </g>
     </g>
     <g id="text_6">
      <!-- 1000 -->
      <defs>
       <path d="M 12.40625 8.296875 
L 28.515625 8.296875 
L 28.515625 63.921875 
L 10.984375 60.40625 
L 10.984375 69.390625 
L 28.421875 72.90625 
L 38.28125 72.90625 
L 38.28125 8.296875 
L 54.390625 8.296875 
L 54.390625 0 
L 12.40625 0 
z
" id="DejaVuSans-49"/>
      </defs>
      <g transform="translate(386.087252 322.182437)scale(0.1 -0.1)">
       <use xlink:href="#DejaVuSans-49"/>
       <use x="63.623047" xlink:href="#DejaVuSans-48"/>
       <use x="127.246094" xlink:href="#DejaVuSans-48"/>
       <use x="190.869141" xlink:href="#DejaVuSans-48"/>
      </g>
     </g>
    </g>
    <g id="text_7">
     <!-- Epoch -->
     <defs>
      <path d="M 9.8125 72.90625 
L 55.90625 72.90625 
L 55.90625 64.59375 
L 19.671875 64.59375 
L 19.671875 43.015625 
L 54.390625 43.015625 
L 54.390625 34.71875 
L 19.671875 34.71875 
L 19.671875 8.296875 
L 56.78125 8.296875 
L 56.78125 0 
L 9.8125 0 
z
" id="DejaVuSans-69"/>
      <path d="M 18.109375 8.203125 
L 18.109375 -20.796875 
L 9.078125 -20.796875 
L 9.078125 54.6875 
L 18.109375 54.6875 
L 18.109375 46.390625 
Q 20.953125 51.265625 25.265625 53.625 
Q 29.59375 56 35.59375 56 
Q 45.5625 56 51.78125 48.09375 
Q 58.015625 40.1875 58.015625 27.296875 
Q 58.015625 14.40625 51.78125 6.484375 
Q 45.5625 -1.421875 35.59375 -1.421875 
Q 29.59375 -1.421875 25.265625 0.953125 
Q 20.953125 3.328125 18.109375 8.203125 
z
M 48.6875 27.296875 
Q 48.6875 37.203125 44.609375 42.84375 
Q 40.53125 48.484375 33.40625 48.484375 
Q 26.265625 48.484375 22.1875 42.84375 
Q 18.109375 37.203125 18.109375 27.296875 
Q 18.109375 17.390625 22.1875 11.75 
Q 26.265625 6.109375 33.40625 6.109375 
Q 40.53125 6.109375 44.609375 11.75 
Q 48.6875 17.390625 48.6875 27.296875 
z
" id="DejaVuSans-112"/>
      <path d="M 30.609375 48.390625 
Q 23.390625 48.390625 19.1875 42.75 
Q 14.984375 37.109375 14.984375 27.296875 
Q 14.984375 17.484375 19.15625 11.84375 
Q 23.34375 6.203125 30.609375 6.203125 
Q 37.796875 6.203125 41.984375 11.859375 
Q 46.1875 17.53125 46.1875 27.296875 
Q 46.1875 37.015625 41.984375 42.703125 
Q 37.796875 48.390625 30.609375 48.390625 
z
M 30.609375 56 
Q 42.328125 56 49.015625 48.375 
Q 55.71875 40.765625 55.71875 27.296875 
Q 55.71875 13.875 49.015625 6.21875 
Q 42.328125 -1.421875 30.609375 -1.421875 
Q 18.84375 -1.421875 12.171875 6.21875 
Q 5.515625 13.875 5.515625 27.296875 
Q 5.515625 40.765625 12.171875 48.375 
Q 18.84375 56 30.609375 56 
z
" id="DejaVuSans-111"/>
      <path d="M 48.78125 52.59375 
L 48.78125 44.1875 
Q 44.96875 46.296875 41.140625 47.34375 
Q 37.3125 48.390625 33.40625 48.390625 
Q 24.65625 48.390625 19.8125 42.84375 
Q 14.984375 37.3125 14.984375 27.296875 
Q 14.984375 17.28125 19.8125 11.734375 
Q 24.65625 6.203125 33.40625 6.203125 
Q 37.3125 6.203125 41.140625 7.25 
Q 44.96875 8.296875 48.78125 10.40625 
L 48.78125 2.09375 
Q 45.015625 0.34375 40.984375 -0.53125 
Q 36.96875 -1.421875 32.421875 -1.421875 
Q 20.0625 -1.421875 12.78125 6.34375 
Q 5.515625 14.109375 5.515625 27.296875 
Q 5.515625 40.671875 12.859375 48.328125 
Q 20.21875 56 33.015625 56 
Q 37.15625 56 41.109375 55.140625 
Q 45.0625 54.296875 48.78125 52.59375 
z
" id="DejaVuSans-99"/>
      <path d="M 54.890625 33.015625 
L 54.890625 0 
L 45.90625 0 
L 45.90625 32.71875 
Q 45.90625 40.484375 42.875 44.328125 
Q 39.84375 48.1875 33.796875 48.1875 
Q 26.515625 48.1875 22.3125 43.546875 
Q 18.109375 38.921875 18.109375 30.90625 
L 18.109375 0 
L 9.078125 0 
L 9.078125 75.984375 
L 18.109375 75.984375 
L 18.109375 46.1875 
Q 21.34375 51.125 25.703125 53.5625 
Q 30.078125 56 35.796875 56 
Q 45.21875 56 50.046875 50.171875 
Q 54.890625 44.34375 54.890625 33.015625 
z
" id="DejaVuSans-104"/>
     </defs>
     <g transform="translate(220.849063 335.860562)scale(0.1 -0.1)">
      <use xlink:href="#DejaVuSans-69"/>
      <use x="63.183594" xlink:href="#DejaVuSans-112"/>
      <use x="126.660156" xlink:href="#DejaVuSans-111"/>
      <use x="187.841797" xlink:href="#DejaVuSans-99"/>
      <use x="242.822266" xlink:href="#DejaVuSans-104"/>
     </g>
    </g>
   </g>
   <g id="matplotlib.axis_2">
    <g id="ytick_1">
     <g id="line2d_7">
      <defs>
       <path d="M 0 0 
L -3.5 0 
" id="maf997551c8" style="stroke:#000000;stroke-width:0.8;"/>
      </defs>
      <g>
       <use style="stroke:#000000;stroke-width:0.8;" x="57.6" xlink:href="#maf997551c8" y="295.622083"/>
      </g>
     </g>
     <g id="text_8">
      <!-- 0 -->
      <g transform="translate(44.2375 299.421302)scale(0.1 -0.1)">
       <use xlink:href="#DejaVuSans-48"/>
      </g>
     </g>
    </g>
    <g id="ytick_2">
     <g id="line2d_8">
      <g>
       <use style="stroke:#000000;stroke-width:0.8;" x="57.6" xlink:href="#maf997551c8" y="249.29275"/>
      </g>
     </g>
     <g id="text_9">
      <!-- 5 -->
      <defs>
       <path d="M 10.796875 72.90625 
L 49.515625 72.90625 
L 49.515625 64.59375 
L 19.828125 64.59375 
L 19.828125 46.734375 
Q 21.96875 47.46875 24.109375 47.828125 
Q 26.265625 48.1875 28.421875 48.1875 
Q 40.625 48.1875 47.75 41.5 
Q 54.890625 34.8125 54.890625 23.390625 
Q 54.890625 11.625 47.5625 5.09375 
Q 40.234375 -1.421875 26.90625 -1.421875 
Q 22.3125 -1.421875 17.546875 -0.640625 
Q 12.796875 0.140625 7.71875 1.703125 
L 7.71875 11.625 
Q 12.109375 9.234375 16.796875 8.0625 
Q 21.484375 6.890625 26.703125 6.890625 
Q 35.15625 6.890625 40.078125 11.328125 
Q 45.015625 15.765625 45.015625 23.390625 
Q 45.015625 31 40.078125 35.4375 
Q 35.15625 39.890625 26.703125 39.890625 
Q 22.75 39.890625 18.8125 39.015625 
Q 14.890625 38.140625 10.796875 36.28125 
z
" id="DejaVuSans-53"/>
      </defs>
      <g transform="translate(44.2375 253.091969)scale(0.1 -0.1)">
       <use xlink:href="#DejaVuSans-53"/>
      </g>
     </g>
    </g>
    <g id="ytick_3">
     <g id="line2d_9">
      <g>
       <use style="stroke:#000000;stroke-width:0.8;" x="57.6" xlink:href="#maf997551c8" y="202.963417"/>
      </g>
     </g>
     <g id="text_10">
      <!-- 10 -->
      <g transform="translate(37.875 206.762635)scale(0.1 -0.1)">
       <use xlink:href="#DejaVuSans-49"/>
       <use x="63.623047" xlink:href="#DejaVuSans-48"/>
      </g>
     </g>
    </g>
    <g id="ytick_4">
     <g id="line2d_10">
      <g>
       <use style="stroke:#000000;stroke-width:0.8;" x="57.6" xlink:href="#maf997551c8" y="156.634083"/>
      </g>
     </g>
     <g id="text_11">
      <!-- 15 -->
      <g transform="translate(37.875 160.433302)scale(0.1 -0.1)">
       <use xlink:href="#DejaVuSans-49"/>
       <use x="63.623047" xlink:href="#DejaVuSans-53"/>
      </g>
     </g>
    </g>
    <g id="ytick_5">
     <g id="line2d_11">
      <g>
       <use style="stroke:#000000;stroke-width:0.8;" x="57.6" xlink:href="#maf997551c8" y="110.30475"/>
      </g>
     </g>
     <g id="text_12">
      <!-- 20 -->
      <g transform="translate(37.875 114.103969)scale(0.1 -0.1)">
       <use xlink:href="#DejaVuSans-50"/>
       <use x="63.623047" xlink:href="#DejaVuSans-48"/>
      </g>
     </g>
    </g>
    <g id="ytick_6">
     <g id="line2d_12">
      <g>
       <use style="stroke:#000000;stroke-width:0.8;" x="57.6" xlink:href="#maf997551c8" y="63.975416"/>
      </g>
     </g>
     <g id="text_13">
      <!-- 25 -->
      <g transform="translate(37.875 67.774635)scale(0.1 -0.1)">
       <use xlink:href="#DejaVuSans-50"/>
       <use x="63.623047" xlink:href="#DejaVuSans-53"/>
      </g>
     </g>
    </g>
    <g id="text_14">
     <!-- Loss -->
     <defs>
      <path d="M 9.8125 72.90625 
L 19.671875 72.90625 
L 19.671875 8.296875 
L 55.171875 8.296875 
L 55.171875 0 
L 9.8125 0 
z
" id="DejaVuSans-76"/>
      <path d="M 44.28125 53.078125 
L 44.28125 44.578125 
Q 40.484375 46.53125 36.375 47.5 
Q 32.28125 48.484375 27.875 48.484375 
Q 21.1875 48.484375 17.84375 46.4375 
Q 14.5 44.390625 14.5 40.28125 
Q 14.5 37.15625 16.890625 35.375 
Q 19.28125 33.59375 26.515625 31.984375 
L 29.59375 31.296875 
Q 39.15625 29.25 43.1875 25.515625 
Q 47.21875 21.78125 47.21875 15.09375 
Q 47.21875 7.46875 41.1875 3.015625 
Q 35.15625 -1.421875 24.609375 -1.421875 
Q 20.21875 -1.421875 15.453125 -0.5625 
Q 10.6875 0.296875 5.421875 2 
L 5.421875 11.28125 
Q 10.40625 8.6875 15.234375 7.390625 
Q 20.0625 6.109375 24.8125 6.109375 
Q 31.15625 6.109375 34.5625 8.28125 
Q 37.984375 10.453125 37.984375 14.40625 
Q 37.984375 18.0625 35.515625 20.015625 
Q 33.0625 21.96875 24.703125 23.78125 
L 21.578125 24.515625 
Q 13.234375 26.265625 9.515625 29.90625 
Q 5.8125 33.546875 5.8125 39.890625 
Q 5.8125 47.609375 11.28125 51.796875 
Q 16.75 56 26.8125 56 
Q 31.78125 56 36.171875 55.265625 
Q 40.578125 54.546875 44.28125 53.078125 
z
" id="DejaVuSans-115"/>
     </defs>
     <g transform="translate(31.795313 185.581906)rotate(-90)scale(0.1 -0.1)">
      <use xlink:href="#DejaVuSans-76"/>
      <use x="55.697266" xlink:href="#DejaVuSans-111"/>
      <use x="116.878906" xlink:href="#DejaVuSans-115"/>
      <use x="168.978516" xlink:href="#DejaVuSans-115"/>
     </g>
    </g>
   </g>
   <g id="line2d_13">
    <path clip-path="url(#p87b490cf8f)" d="M 73.832727 53.568 
L 74.157707 105.551621 
L 74.482686 69.347886 
L 74.807666 108.223161 
L 75.132645 182.017793 
L 75.457625 227.280533 
L 75.782604 227.743903 
L 76.107584 235.724104 
L 76.432563 249.712255 
L 76.757543 270.115691 
L 77.082523 271.420276 
L 77.407502 260.906321 
L 77.732482 281.477388 
L 78.057461 289.429491 
L 78.382441 288.083307 
L 78.70742 289.92096 
L 79.0324 289.64364 
L 79.357379 289.880914 
L 80.007338 291.452274 
L 80.332318 288.837392 
L 80.657297 291.731465 
L 80.982277 290.470862 
L 81.307256 292.719139 
L 81.632236 290.431012 
L 81.957215 292.849433 
L 82.282195 292.370122 
L 82.607174 293.511784 
L 82.932154 292.812038 
L 83.257133 293.94216 
L 83.907093 293.668556 
L 84.232072 293.65439 
L 84.557052 294.124126 
L 84.882031 294.046711 
L 85.207011 294.269663 
L 85.85697 294.268994 
L 86.506929 294.437984 
L 86.831908 294.172022 
L 87.156888 294.299177 
L 87.481867 293.87886 
L 88.131826 294.550398 
L 88.456806 294.39316 
L 88.781785 294.67995 
L 89.106765 294.482177 
L 90.081704 294.620393 
L 91.381622 294.564622 
L 91.706601 294.681137 
L 92.35656 294.492223 
L 92.68154 294.741081 
L 93.006519 294.507133 
L 93.331499 294.709816 
L 95.931335 294.754902 
L 96.256314 294.862237 
L 97.231253 294.635604 
L 97.556233 294.788499 
L 97.881212 294.434696 
L 98.206192 294.290245 
L 98.531171 294.82558 
L 98.856151 294.165841 
L 99.50611 294.49561 
L 99.831089 293.299453 
L 100.156069 294.711406 
L 100.481048 294.020963 
L 100.806028 294.151386 
L 101.131007 294.821744 
L 101.455987 294.141748 
L 101.780966 294.778431 
L 102.430925 294.425422 
L 102.755905 294.84587 
L 104.380803 294.807322 
L 104.705782 294.743127 
L 105.030762 294.860439 
L 105.355741 294.53952 
L 105.680721 294.657754 
L 106.0057 294.969859 
L 106.33068 294.723081 
L 106.655659 294.865097 
L 107.305618 294.819467 
L 107.630598 294.833605 
L 107.955577 294.719652 
L 108.280557 295.032596 
L 108.605536 294.879051 
L 108.930516 295.03971 
L 109.255495 294.85329 
L 110.555414 295.030441 
L 110.880393 294.950406 
L 111.205373 295.055376 
L 112.180311 294.861572 
L 112.83027 294.871315 
L 113.15525 294.643651 
L 113.480229 294.898671 
L 113.805209 294.949184 
L 114.130188 294.841825 
L 114.455168 295.077271 
L 114.780147 294.921934 
L 115.105127 295.085128 
L 115.430106 294.840826 
L 115.755086 295.00888 
L 116.405045 294.929207 
L 116.730025 295.104382 
L 117.055004 294.967656 
L 117.704963 294.973207 
L 118.029943 294.960785 
L 118.354922 295.164245 
L 118.679902 294.956221 
L 119.004881 295.079878 
L 119.329861 294.929201 
L 119.97982 295.089811 
L 121.279738 295.084188 
L 121.929697 294.955273 
L 122.254676 294.800122 
L 122.904636 295.092978 
L 123.229615 294.959787 
L 123.554595 295.16776 
L 124.204554 294.978557 
L 124.529533 295.11708 
L 124.854513 295.011944 
L 125.179492 295.127592 
L 127.779328 295.134388 
L 128.104308 295.20697 
L 129.404226 295.07665 
L 129.729206 295.076519 
L 130.054185 294.805267 
L 130.379165 294.705463 
L 130.704144 295.110815 
L 131.354103 294.952455 
L 131.679083 295.192233 
L 132.329042 295.047302 
L 132.654021 295.077666 
L 132.979001 295.243419 
L 133.62896 294.890936 
L 133.953939 294.925464 
L 134.278919 295.135054 
L 135.578837 295.10794 
L 135.903817 295.082826 
L 136.228796 295.191855 
L 136.553776 295.116225 
L 136.878755 294.756879 
L 137.203735 294.778823 
L 137.528714 295.110539 
L 137.853694 295.086847 
L 138.178673 294.871486 
L 138.503653 294.952041 
L 138.828632 295.1778 
L 139.478591 294.92572 
L 139.803571 295.173191 
L 140.12855 295.210421 
L 140.45353 295.024302 
L 140.778509 295.210643 
L 142.403407 295.225134 
L 142.728387 295.02619 
L 143.378346 294.998586 
L 143.703325 295.188997 
L 144.353284 294.896423 
L 145.003243 295.154807 
L 145.328223 295.000395 
L 145.653202 295.20099 
L 146.95312 295.161454 
L 147.2781 295.0457 
L 147.603079 295.256134 
L 148.253038 295.099892 
L 148.578018 295.248164 
L 149.552957 295.139874 
L 149.877936 294.70749 
L 150.202916 294.672819 
L 150.527895 295.205356 
L 151.177854 294.177584 
L 151.502834 295.137286 
L 152.152793 294.612063 
L 152.477772 295.190988 
L 152.802752 294.944123 
L 153.452711 294.995238 
L 153.77769 294.21322 
L 154.10267 295.045389 
L 154.752629 294.928194 
L 155.077609 295.128816 
L 155.402588 295.053067 
L 155.727568 295.245952 
L 156.052547 295.071682 
L 156.702506 295.185744 
L 157.027486 295.106794 
L 157.352465 295.274779 
L 158.002424 295.186399 
L 158.327404 295.233127 
L 158.652383 295.039937 
L 158.977363 295.260624 
L 159.302342 295.147909 
L 159.627322 295.272121 
L 160.277281 294.937394 
L 160.60226 295.313407 
L 160.92724 295.145245 
L 161.577199 295.158743 
L 161.902179 295.097337 
L 162.877117 295.300955 
L 164.826994 295.285743 
L 165.151974 295.343255 
L 165.801933 295.16158 
L 166.126912 295.295879 
L 166.451892 295.098032 
L 166.776871 295.24814 
L 169.701687 295.251884 
L 170.026667 295.354269 
L 170.676626 295.238701 
L 173.276462 295.326607 
L 176.526257 295.331318 
L 178.151155 295.285894 
L 180.101032 295.324897 
L 181.075971 295.303333 
L 181.40095 295.417405 
L 182.375889 295.276489 
L 185.300704 295.379217 
L 185.950663 295.360667 
L 188.5505 295.329702 
L 189.850418 295.325698 
L 190.500377 295.186616 
L 190.825356 295.065752 
L 192.125274 295.389691 
L 192.450254 295.303132 
L 194.075152 295.373448 
L 195.37507 295.185294 
L 195.700049 295.344959 
L 196.025029 295.292876 
L 196.674988 295.01381 
L 197.324947 295.333724 
L 197.649926 294.850448 
L 197.974906 294.809735 
L 198.299885 295.358768 
L 198.624865 294.536124 
L 198.949844 294.305539 
L 199.599803 295.306911 
L 199.924783 294.934461 
L 200.249762 294.851467 
L 200.574742 295.311393 
L 200.899722 295.090171 
L 201.224701 295.020483 
L 201.549681 295.310225 
L 202.19964 295.110237 
L 202.524619 295.30678 
L 203.824537 295.114805 
L 204.149517 295.050866 
L 204.799476 295.345875 
L 205.124455 295.210153 
L 205.774414 295.334111 
L 206.099394 295.221359 
L 207.724292 295.280917 
L 208.049271 295.133492 
L 209.349189 295.307558 
L 211.949025 295.381851 
L 212.598984 295.157882 
L 213.248943 295.386398 
L 213.573923 295.2517 
L 214.223882 295.344131 
L 214.548862 295.258317 
L 214.873841 295.380244 
L 215.5238 295.254813 
L 216.173759 295.362696 
L 216.823718 295.350022 
L 222.67335 295.402462 
L 223.323309 295.392285 
L 230.147879 295.256824 
L 230.472858 295.150366 
L 231.122817 295.35774 
L 231.772776 294.755571 
L 232.097756 295.204582 
L 232.422735 295.260992 
L 232.747715 294.571646 
L 233.072695 295.064066 
L 233.397674 295.323503 
L 233.722654 294.748621 
L 234.047633 295.17903 
L 234.372613 295.247853 
L 234.697592 294.888192 
L 235.022572 295.353687 
L 235.347551 294.857263 
L 235.672531 294.950201 
L 235.99751 295.36774 
L 236.32249 294.868378 
L 236.647469 294.756416 
L 236.972449 295.322218 
L 237.297428 295.142973 
L 237.622408 295.161702 
L 237.947387 295.35152 
L 238.272367 295.171167 
L 238.597346 295.351621 
L 239.247305 295.242922 
L 239.572285 295.367294 
L 239.897265 295.006507 
L 240.222244 294.92808 
L 240.547224 295.302277 
L 241.522162 295.241156 
L 241.847142 295.334627 
L 242.172121 295.230231 
L 242.82208 295.28471 
L 243.14706 295.138431 
L 243.472039 295.358366 
L 244.121998 295.154205 
L 244.446978 295.372992 
L 245.421916 295.36027 
L 245.746896 295.169141 
L 246.396855 295.321122 
L 246.721835 294.873959 
L 247.371794 295.257262 
L 247.696773 294.22524 
L 248.021753 295.003906 
L 248.346732 295.004542 
L 248.671712 294.262137 
L 248.996691 295.291034 
L 249.321671 294.993306 
L 249.64665 295.046054 
L 249.97163 295.309674 
L 250.296609 294.983006 
L 250.621589 295.373223 
L 250.946568 295.090424 
L 251.271548 295.37299 
L 251.596527 295.008012 
L 251.921507 295.071385 
L 252.246486 295.290136 
L 252.571466 294.873024 
L 252.896446 295.026632 
L 253.221425 295.372904 
L 253.546405 295.11984 
L 253.871384 295.424615 
L 254.196364 295.05202 
L 254.846323 295.293856 
L 255.496282 295.390114 
L 255.821261 295.160597 
L 256.146241 295.320506 
L 256.47122 295.320776 
L 256.7962 295.136754 
L 257.121179 295.408952 
L 257.446159 295.168213 
L 258.096118 295.298441 
L 258.421097 294.91459 
L 258.746077 295.233725 
L 259.071057 295.205447 
L 259.396036 294.912222 
L 259.721016 295.394656 
L 260.045995 294.854544 
L 260.370975 295.194575 
L 260.695954 295.209649 
L 261.020934 294.795357 
L 261.345913 295.174793 
L 261.670893 295.308939 
L 261.995872 295.157605 
L 262.320852 295.414045 
L 262.645831 295.262911 
L 262.970811 295.391412 
L 263.29579 295.148339 
L 263.62077 295.144591 
L 263.945749 295.421214 
L 264.270729 295.30486 
L 268.820442 295.389738 
L 269.470401 295.202273 
L 269.795381 295.403444 
L 270.44534 295.328051 
L 270.770319 295.437513 
L 271.095299 295.316201 
L 271.745258 295.39926 
L 272.070238 295.285399 
L 272.395217 295.417508 
L 273.045176 295.220084 
L 273.370156 295.432909 
L 273.695135 295.282038 
L 274.020115 295.387282 
L 275.645012 295.376968 
L 276.294971 295.37335 
L 277.594889 295.362295 
L 277.919869 295.422286 
L 278.244848 295.298869 
L 278.569828 295.419337 
L 278.894808 295.312401 
L 280.844685 295.403722 
L 281.494644 295.336085 
L 282.144603 295.402935 
L 304.89317 295.443261 
L 305.868108 295.417451 
L 308.142965 295.46624 
L 310.742801 295.398088 
L 311.39276 295.406585 
L 313.342637 295.458398 
L 316.592432 295.455271 
L 317.242391 295.464531 
L 325.691859 295.448998 
L 328.291695 295.466088 
L 329.916593 295.418292 
L 330.891532 295.45521 
L 331.86647 295.373424 
L 332.841409 295.467814 
L 334.466306 295.43449 
L 336.416183 295.469089 
L 337.066143 295.407565 
L 337.716102 295.409392 
L 338.366061 295.068838 
L 339.01602 294.721016 
L 339.340999 295.199914 
L 339.665979 295.419144 
L 339.990958 295.112025 
L 340.315938 295.109776 
L 340.640917 295.367926 
L 340.965897 294.714349 
L 341.615856 295.411256 
L 341.940835 295.04566 
L 342.265815 295.014677 
L 342.590794 295.456387 
L 343.240753 294.495958 
L 343.565733 295.384755 
L 343.890713 294.881116 
L 344.215692 295.011713 
L 344.540672 295.357 
L 344.865651 294.958845 
L 345.190631 295.342667 
L 345.51561 294.177811 
L 345.84059 294.098904 
L 346.165569 295.435283 
L 346.490549 294.65123 
L 346.815528 295.300984 
L 347.140508 294.957879 
L 347.465487 294.843474 
L 347.790467 295.398989 
L 348.115446 294.915889 
L 348.440426 295.00167 
L 348.765405 295.219184 
L 349.090385 294.440767 
L 349.415364 295.363486 
L 349.740344 293.783064 
L 350.065324 294.055347 
L 350.390303 295.43707 
L 350.715283 294.856849 
L 351.040262 295.413319 
L 351.365242 294.541375 
L 351.690221 295.228423 
L 352.34018 295.142303 
L 352.66516 295.415426 
L 352.990139 295.262934 
L 353.315119 295.393829 
L 353.640098 295.275707 
L 354.290057 295.414599 
L 354.615037 295.056891 
L 354.940016 295.15914 
L 355.264996 295.413248 
L 355.589975 295.033831 
L 355.914955 295.315958 
L 356.564914 294.91099 
L 356.889894 295.376369 
L 357.214873 294.55361 
L 357.864832 295.384947 
L 358.189812 295.134673 
L 358.514791 295.434368 
L 358.839771 295.180944 
L 359.16475 295.082339 
L 359.48973 295.443396 
L 359.814709 295.13677 
L 360.139689 295.358221 
L 360.789648 294.727178 
L 361.114627 295.093591 
L 361.439607 294.465957 
L 361.764586 295.35657 
L 362.089566 293.987403 
L 362.414545 294.934475 
L 362.739525 295.187361 
L 364.689402 295.375812 
L 365.014382 295.129115 
L 365.339361 295.136512 
L 365.664341 295.4206 
L 365.98932 295.262988 
L 366.3143 295.441394 
L 366.639279 295.250491 
L 366.964259 295.449117 
L 367.289238 295.211652 
L 367.939197 295.312166 
L 368.264177 295.150778 
L 368.589156 295.426837 
L 368.914136 295.273898 
L 370.214054 295.428704 
L 370.539034 295.366801 
L 371.188993 295.394515 
L 371.513972 295.342628 
L 371.838952 295.441432 
L 372.81389 295.403754 
L 374.438788 295.457865 
L 375.088747 295.427353 
L 376.713645 295.475351 
L 377.688583 295.409576 
L 378.338542 295.446789 
L 380.288419 295.447923 
L 383.538215 295.483144 
L 384.188174 295.452788 
L 385.163112 295.479156 
L 385.813071 295.445769 
L 386.78801 295.480947 
L 389.387846 295.438504 
L 390.362785 295.447918 
L 396.212416 295.469316 
L 396.862375 295.444691 
L 397.837314 295.488 
L 398.487273 295.388388 
L 398.487273 295.388388 
" style="fill:none;stroke:#1f77b4;stroke-linecap:square;stroke-width:1.5;"/>
   </g>
   <g id="patch_3">
    <path d="M 57.6 307.584 
L 57.6 41.472 
" style="fill:none;stroke:#000000;stroke-linecap:square;stroke-linejoin:miter;stroke-width:0.8;"/>
   </g>
   <g id="patch_4">
    <path d="M 414.72 307.584 
L 414.72 41.472 
" style="fill:none;stroke:#000000;stroke-linecap:square;stroke-linejoin:miter;stroke-width:0.8;"/>
   </g>
   <g id="patch_5">
    <path d="M 57.6 307.584 
L 414.72 307.584 
" style="fill:none;stroke:#000000;stroke-linecap:square;stroke-linejoin:miter;stroke-width:0.8;"/>
   </g>
   <g id="patch_6">
    <path d="M 57.6 41.472 
L 414.72 41.472 
" style="fill:none;stroke:#000000;stroke-linecap:square;stroke-linejoin:miter;stroke-width:0.8;"/>
   </g>
   <g id="text_15">
    <!-- Training Loss -->
    <defs>
     <path d="M -0.296875 72.90625 
L 61.375 72.90625 
L 61.375 64.59375 
L 35.5 64.59375 
L 35.5 0 
L 25.59375 0 
L 25.59375 64.59375 
L -0.296875 64.59375 
z
" id="DejaVuSans-84"/>
     <path d="M 41.109375 46.296875 
Q 39.59375 47.171875 37.8125 47.578125 
Q 36.03125 48 33.890625 48 
Q 26.265625 48 22.1875 43.046875 
Q 18.109375 38.09375 18.109375 28.8125 
L 18.109375 0 
L 9.078125 0 
L 9.078125 54.6875 
L 18.109375 54.6875 
L 18.109375 46.1875 
Q 20.953125 51.171875 25.484375 53.578125 
Q 30.03125 56 36.53125 56 
Q 37.453125 56 38.578125 55.875 
Q 39.703125 55.765625 41.0625 55.515625 
z
" id="DejaVuSans-114"/>
     <path d="M 34.28125 27.484375 
Q 23.390625 27.484375 19.1875 25 
Q 14.984375 22.515625 14.984375 16.5 
Q 14.984375 11.71875 18.140625 8.90625 
Q 21.296875 6.109375 26.703125 6.109375 
Q 34.1875 6.109375 38.703125 11.40625 
Q 43.21875 16.703125 43.21875 25.484375 
L 43.21875 27.484375 
z
M 52.203125 31.203125 
L 52.203125 0 
L 43.21875 0 
L 43.21875 8.296875 
Q 40.140625 3.328125 35.546875 0.953125 
Q 30.953125 -1.421875 24.3125 -1.421875 
Q 15.921875 -1.421875 10.953125 3.296875 
Q 6 8.015625 6 15.921875 
Q 6 25.140625 12.171875 29.828125 
Q 18.359375 34.515625 30.609375 34.515625 
L 43.21875 34.515625 
L 43.21875 35.40625 
Q 43.21875 41.609375 39.140625 45 
Q 35.0625 48.390625 27.6875 48.390625 
Q 23 48.390625 18.546875 47.265625 
Q 14.109375 46.140625 10.015625 43.890625 
L 10.015625 52.203125 
Q 14.9375 54.109375 19.578125 55.046875 
Q 24.21875 56 28.609375 56 
Q 40.484375 56 46.34375 49.84375 
Q 52.203125 43.703125 52.203125 31.203125 
z
" id="DejaVuSans-97"/>
     <path d="M 9.421875 54.6875 
L 18.40625 54.6875 
L 18.40625 0 
L 9.421875 0 
z
M 9.421875 75.984375 
L 18.40625 75.984375 
L 18.40625 64.59375 
L 9.421875 64.59375 
z
" id="DejaVuSans-105"/>
     <path d="M 54.890625 33.015625 
L 54.890625 0 
L 45.90625 0 
L 45.90625 32.71875 
Q 45.90625 40.484375 42.875 44.328125 
Q 39.84375 48.1875 33.796875 48.1875 
Q 26.515625 48.1875 22.3125 43.546875 
Q 18.109375 38.921875 18.109375 30.90625 
L 18.109375 0 
L 9.078125 0 
L 9.078125 54.6875 
L 18.109375 54.6875 
L 18.109375 46.1875 
Q 21.34375 51.125 25.703125 53.5625 
Q 30.078125 56 35.796875 56 
Q 45.21875 56 50.046875 50.171875 
Q 54.890625 44.34375 54.890625 33.015625 
z
" id="DejaVuSans-110"/>
     <path d="M 45.40625 27.984375 
Q 45.40625 37.75 41.375 43.109375 
Q 37.359375 48.484375 30.078125 48.484375 
Q 22.859375 48.484375 18.828125 43.109375 
Q 14.796875 37.75 14.796875 27.984375 
Q 14.796875 18.265625 18.828125 12.890625 
Q 22.859375 7.515625 30.078125 7.515625 
Q 37.359375 7.515625 41.375 12.890625 
Q 45.40625 18.265625 45.40625 27.984375 
z
M 54.390625 6.78125 
Q 54.390625 -7.171875 48.1875 -13.984375 
Q 42 -20.796875 29.203125 -20.796875 
Q 24.46875 -20.796875 20.265625 -20.09375 
Q 16.0625 -19.390625 12.109375 -17.921875 
L 12.109375 -9.1875 
Q 16.0625 -11.328125 19.921875 -12.34375 
Q 23.78125 -13.375 27.78125 -13.375 
Q 36.625 -13.375 41.015625 -8.765625 
Q 45.40625 -4.15625 45.40625 5.171875 
L 45.40625 9.625 
Q 42.625 4.78125 38.28125 2.390625 
Q 33.9375 0 27.875 0 
Q 17.828125 0 11.671875 7.65625 
Q 5.515625 15.328125 5.515625 27.984375 
Q 5.515625 40.671875 11.671875 48.328125 
Q 17.828125 56 27.875 56 
Q 33.9375 56 38.28125 53.609375 
Q 42.625 51.21875 45.40625 46.390625 
L 45.40625 54.6875 
L 54.390625 54.6875 
z
" id="DejaVuSans-103"/>
     <path id="DejaVuSans-32"/>
    </defs>
    <g transform="translate(196.445625 35.472)scale(0.12 -0.12)">
     <use xlink:href="#DejaVuSans-84"/>
     <use x="60.865234" xlink:href="#DejaVuSans-114"/>
     <use x="101.978516" xlink:href="#DejaVuSans-97"/>
     <use x="163.257812" xlink:href="#DejaVuSans-105"/>
     <use x="191.041016" xlink:href="#DejaVuSans-110"/>
     <use x="254.419922" xlink:href="#DejaVuSans-105"/>
     <use x="282.203125" xlink:href="#DejaVuSans-110"/>
     <use x="345.582031" xlink:href="#DejaVuSans-103"/>
     <use x="409.058594" xlink:href="#DejaVuSans-32"/>
     <use x="440.845703" xlink:href="#DejaVuSans-76"/>
     <use x="496.542969" xlink:href="#DejaVuSans-111"/>
     <use x="557.724609" xlink:href="#DejaVuSans-115"/>
     <use x="609.824219" xlink:href="#DejaVuSans-115"/>
    </g>
   </g>
  </g>
 </g>
 <defs>
  <clipPath id="p87b490cf8f">
   <rect height="266.112" width="357.12" x="57.6" y="41.472"/>
  </clipPath>
 </defs>
</svg>
