<?xml version="1.0" encoding="utf-8" standalone="no"?>
<!DOCTYPE svg PUBLIC "-//W3C//DTD SVG 1.1//EN"
  "http://www.w3.org/Graphics/SVG/1.1/DTD/svg11.dtd">
<!-- Created with matplotlib (https://matplotlib.org/) -->
<svg height="345.6pt" version="1.1" viewBox="0 0 460.8 345.6" width="460.8pt" xmlns="http://www.w3.org/2000/svg" xmlns:xlink="http://www.w3.org/1999/xlink">
 <defs>
  <style type="text/css">
*{stroke-linecap:butt;stroke-linejoin:round;}
  </style>
 </defs>
 <g id="figure_1">
  <g id="patch_1">
   <path d="M 0 345.6 
L 460.8 345.6 
L 460.8 0 
L 0 0 
z
" style="fill:#ffffff;"/>
  </g>
  <g id="axes_1">
   <g id="patch_2">
    <path d="M 57.6 307.584 
L 414.72 307.584 
L 414.72 41.472 
L 57.6 41.472 
z
" style="fill:#ffffff;"/>
   </g>
   <g id="matplotlib.axis_1">
    <g id="xtick_1">
     <g id="line2d_1">
      <defs>
       <path d="M 0 0 
L 0 3.5 
" id="me7845ad55b" style="stroke:#000000;stroke-width:0.8;"/>
      </defs>
      <g>
       <use style="stroke:#000000;stroke-width:0.8;" x="73.832727" xlink:href="#me7845ad55b" y="307.584"/>
      </g>
     </g>
     <g id="text_1">
      <!-- 0 -->
      <defs>
       <path d="M 31.78125 66.40625 
Q 24.171875 66.40625 20.328125 58.90625 
Q 16.5 51.421875 16.5 36.375 
Q 16.5 21.390625 20.328125 13.890625 
Q 24.171875 6.390625 31.78125 6.390625 
Q 39.453125 6.390625 43.28125 13.890625 
Q 47.125 21.390625 47.125 36.375 
Q 47.125 51.421875 43.28125 58.90625 
Q 39.453125 66.40625 31.78125 66.40625 
z
M 31.78125 74.21875 
Q 44.046875 74.21875 50.515625 64.515625 
Q 56.984375 54.828125 56.984375 36.375 
Q 56.984375 17.96875 50.515625 8.265625 
Q 44.046875 -1.421875 31.78125 -1.421875 
Q 19.53125 -1.421875 13.0625 8.265625 
Q 6.59375 17.96875 6.59375 36.375 
Q 6.59375 54.828125 13.0625 64.515625 
Q 19.53125 74.21875 31.78125 74.21875 
z
" id="DejaVuSans-48"/>
      </defs>
      <g transform="translate(70.651477 322.182437)scale(0.1 -0.1)">
       <use xlink:href="#DejaVuSans-48"/>
      </g>
     </g>
    </g>
    <g id="xtick_2">
     <g id="line2d_2">
      <g>
       <use style="stroke:#000000;stroke-width:0.8;" x="138.828632" xlink:href="#me7845ad55b" y="307.584"/>
      </g>
     </g>
     <g id="text_2">
      <!-- 200 -->
      <defs>
       <path d="M 19.1875 8.296875 
L 53.609375 8.296875 
L 53.609375 0 
L 7.328125 0 
L 7.328125 8.296875 
Q 12.9375 14.109375 22.625 23.890625 
Q 32.328125 33.6875 34.8125 36.53125 
Q 39.546875 41.84375 41.421875 45.53125 
Q 43.3125 49.21875 43.3125 52.78125 
Q 43.3125 58.59375 39.234375 62.25 
Q 35.15625 65.921875 28.609375 65.921875 
Q 23.96875 65.921875 18.8125 64.3125 
Q 13.671875 62.703125 7.8125 59.421875 
L 7.8125 69.390625 
Q 13.765625 71.78125 18.9375 73 
Q 24.125 74.21875 28.421875 74.21875 
Q 39.75 74.21875 46.484375 68.546875 
Q 53.21875 62.890625 53.21875 53.421875 
Q 53.21875 48.921875 51.53125 44.890625 
Q 49.859375 40.875 45.40625 35.40625 
Q 44.1875 33.984375 37.640625 27.21875 
Q 31.109375 20.453125 19.1875 8.296875 
z
" id="DejaVuSans-50"/>
      </defs>
      <g transform="translate(129.284882 322.182437)scale(0.1 -0.1)">
       <use xlink:href="#DejaVuSans-50"/>
       <use x="63.623047" xlink:href="#DejaVuSans-48"/>
       <use x="127.246094" xlink:href="#DejaVuSans-48"/>
      </g>
     </g>
    </g>
    <g id="xtick_3">
     <g id="line2d_3">
      <g>
       <use style="stroke:#000000;stroke-width:0.8;" x="203.824537" xlink:href="#me7845ad55b" y="307.584"/>
      </g>
     </g>
     <g id="text_3">
      <!-- 400 -->
      <defs>
       <path d="M 37.796875 64.3125 
L 12.890625 25.390625 
L 37.796875 25.390625 
z
M 35.203125 72.90625 
L 47.609375 72.90625 
L 47.609375 25.390625 
L 58.015625 25.390625 
L 58.015625 17.1875 
L 47.609375 17.1875 
L 47.609375 0 
L 37.796875 0 
L 37.796875 17.1875 
L 4.890625 17.1875 
L 4.890625 26.703125 
z
" id="DejaVuSans-52"/>
      </defs>
      <g transform="translate(194.280787 322.182437)scale(0.1 -0.1)">
       <use xlink:href="#DejaVuSans-52"/>
       <use x="63.623047" xlink:href="#DejaVuSans-48"/>
       <use x="127.246094" xlink:href="#DejaVuSans-48"/>
      </g>
     </g>
    </g>
    <g id="xtick_4">
     <g id="line2d_4">
      <g>
       <use style="stroke:#000000;stroke-width:0.8;" x="268.820442" xlink:href="#me7845ad55b" y="307.584"/>
      </g>
     </g>
     <g id="text_4">
      <!-- 600 -->
      <defs>
       <path d="M 33.015625 40.375 
Q 26.375 40.375 22.484375 35.828125 
Q 18.609375 31.296875 18.609375 23.390625 
Q 18.609375 15.53125 22.484375 10.953125 
Q 26.375 6.390625 33.015625 6.390625 
Q 39.65625 6.390625 43.53125 10.953125 
Q 47.40625 15.53125 47.40625 23.390625 
Q 47.40625 31.296875 43.53125 35.828125 
Q 39.65625 40.375 33.015625 40.375 
z
M 52.59375 71.296875 
L 52.59375 62.3125 
Q 48.875 64.0625 45.09375 64.984375 
Q 41.3125 65.921875 37.59375 65.921875 
Q 27.828125 65.921875 22.671875 59.328125 
Q 17.53125 52.734375 16.796875 39.40625 
Q 19.671875 43.65625 24.015625 45.921875 
Q 28.375 48.1875 33.59375 48.1875 
Q 44.578125 48.1875 50.953125 41.515625 
Q 57.328125 34.859375 57.328125 23.390625 
Q 57.328125 12.15625 50.6875 5.359375 
Q 44.046875 -1.421875 33.015625 -1.421875 
Q 20.359375 -1.421875 13.671875 8.265625 
Q 6.984375 17.96875 6.984375 36.375 
Q 6.984375 53.65625 15.1875 63.9375 
Q 23.390625 74.21875 37.203125 74.21875 
Q 40.921875 74.21875 44.703125 73.484375 
Q 48.484375 72.75 52.59375 71.296875 
z
" id="DejaVuSans-54"/>
      </defs>
      <g transform="translate(259.276692 322.182437)scale(0.1 -0.1)">
       <use xlink:href="#DejaVuSans-54"/>
       <use x="63.623047" xlink:href="#DejaVuSans-48"/>
       <use x="127.246094" xlink:href="#DejaVuSans-48"/>
      </g>
     </g>
    </g>
    <g id="xtick_5">
     <g id="line2d_5">
      <g>
       <use style="stroke:#000000;stroke-width:0.8;" x="333.816347" xlink:href="#me7845ad55b" y="307.584"/>
      </g>
     </g>
     <g id="text_5">
      <!-- 800 -->
      <defs>
       <path d="M 31.78125 34.625 
Q 24.75 34.625 20.71875 30.859375 
Q 16.703125 27.09375 16.703125 20.515625 
Q 16.703125 13.921875 20.71875 10.15625 
Q 24.75 6.390625 31.78125 6.390625 
Q 38.8125 6.390625 42.859375 10.171875 
Q 46.921875 13.96875 46.921875 20.515625 
Q 46.921875 27.09375 42.890625 30.859375 
Q 38.875 34.625 31.78125 34.625 
z
M 21.921875 38.8125 
Q 15.578125 40.375 12.03125 44.71875 
Q 8.5 49.078125 8.5 55.328125 
Q 8.5 64.0625 14.71875 69.140625 
Q 20.953125 74.21875 31.78125 74.21875 
Q 42.671875 74.21875 48.875 69.140625 
Q 55.078125 64.0625 55.078125 55.328125 
Q 55.078125 49.078125 51.53125 44.71875 
Q 48 40.375 41.703125 38.8125 
Q 48.828125 37.15625 52.796875 32.3125 
Q 56.78125 27.484375 56.78125 20.515625 
Q 56.78125 9.90625 50.3125 4.234375 
Q 43.84375 -1.421875 31.78125 -1.421875 
Q 19.734375 -1.421875 13.25 4.234375 
Q 6.78125 9.90625 6.78125 20.515625 
Q 6.78125 27.484375 10.78125 32.3125 
Q 14.796875 37.15625 21.921875 38.8125 
z
M 18.3125 54.390625 
Q 18.3125 48.734375 21.84375 45.5625 
Q 25.390625 42.390625 31.78125 42.390625 
Q 38.140625 42.390625 41.71875 45.5625 
Q 45.3125 48.734375 45.3125 54.390625 
Q 45.3125 60.0625 41.71875 63.234375 
Q 38.140625 66.40625 31.78125 66.40625 
Q 25.390625 66.40625 21.84375 63.234375 
Q 18.3125 60.0625 18.3125 54.390625 
z
" id="DejaVuSans-56"/>
      </defs>
      <g transform="translate(324.272597 322.182437)scale(0.1 -0.1)">
       <use xlink:href="#DejaVuSans-56"/>
       <use x="63.623047" xlink:href="#DejaVuSans-48"/>
       <use x="127.246094" xlink:href="#DejaVuSans-48"/>
      </g>
     </g>
    </g>
    <g id="xtick_6">
     <g id="line2d_6">
      <g>
       <use style="stroke:#000000;stroke-width:0.8;" x="398.812252" xlink:href="#me7845ad55b" y="307.584"/>
      </g>
     </g>
     <g id="text_6">
      <!-- 1000 -->
      <defs>
       <path d="M 12.40625 8.296875 
L 28.515625 8.296875 
L 28.515625 63.921875 
L 10.984375 60.40625 
L 10.984375 69.390625 
L 28.421875 72.90625 
L 38.28125 72.90625 
L 38.28125 8.296875 
L 54.390625 8.296875 
L 54.390625 0 
L 12.40625 0 
z
" id="DejaVuSans-49"/>
      </defs>
      <g transform="translate(386.087252 322.182437)scale(0.1 -0.1)">
       <use xlink:href="#DejaVuSans-49"/>
       <use x="63.623047" xlink:href="#DejaVuSans-48"/>
       <use x="127.246094" xlink:href="#DejaVuSans-48"/>
       <use x="190.869141" xlink:href="#DejaVuSans-48"/>
      </g>
     </g>
    </g>
    <g id="text_7">
     <!-- Epoch -->
     <defs>
      <path d="M 9.8125 72.90625 
L 55.90625 72.90625 
L 55.90625 64.59375 
L 19.671875 64.59375 
L 19.671875 43.015625 
L 54.390625 43.015625 
L 54.390625 34.71875 
L 19.671875 34.71875 
L 19.671875 8.296875 
L 56.78125 8.296875 
L 56.78125 0 
L 9.8125 0 
z
" id="DejaVuSans-69"/>
      <path d="M 18.109375 8.203125 
L 18.109375 -20.796875 
L 9.078125 -20.796875 
L 9.078125 54.6875 
L 18.109375 54.6875 
L 18.109375 46.390625 
Q 20.953125 51.265625 25.265625 53.625 
Q 29.59375 56 35.59375 56 
Q 45.5625 56 51.78125 48.09375 
Q 58.015625 40.1875 58.015625 27.296875 
Q 58.015625 14.40625 51.78125 6.484375 
Q 45.5625 -1.421875 35.59375 -1.421875 
Q 29.59375 -1.421875 25.265625 0.953125 
Q 20.953125 3.328125 18.109375 8.203125 
z
M 48.6875 27.296875 
Q 48.6875 37.203125 44.609375 42.84375 
Q 40.53125 48.484375 33.40625 48.484375 
Q 26.265625 48.484375 22.1875 42.84375 
Q 18.109375 37.203125 18.109375 27.296875 
Q 18.109375 17.390625 22.1875 11.75 
Q 26.265625 6.109375 33.40625 6.109375 
Q 40.53125 6.109375 44.609375 11.75 
Q 48.6875 17.390625 48.6875 27.296875 
z
" id="DejaVuSans-112"/>
      <path d="M 30.609375 48.390625 
Q 23.390625 48.390625 19.1875 42.75 
Q 14.984375 37.109375 14.984375 27.296875 
Q 14.984375 17.484375 19.15625 11.84375 
Q 23.34375 6.203125 30.609375 6.203125 
Q 37.796875 6.203125 41.984375 11.859375 
Q 46.1875 17.53125 46.1875 27.296875 
Q 46.1875 37.015625 41.984375 42.703125 
Q 37.796875 48.390625 30.609375 48.390625 
z
M 30.609375 56 
Q 42.328125 56 49.015625 48.375 
Q 55.71875 40.765625 55.71875 27.296875 
Q 55.71875 13.875 49.015625 6.21875 
Q 42.328125 -1.421875 30.609375 -1.421875 
Q 18.84375 -1.421875 12.171875 6.21875 
Q 5.515625 13.875 5.515625 27.296875 
Q 5.515625 40.765625 12.171875 48.375 
Q 18.84375 56 30.609375 56 
z
" id="DejaVuSans-111"/>
      <path d="M 48.78125 52.59375 
L 48.78125 44.1875 
Q 44.96875 46.296875 41.140625 47.34375 
Q 37.3125 48.390625 33.40625 48.390625 
Q 24.65625 48.390625 19.8125 42.84375 
Q 14.984375 37.3125 14.984375 27.296875 
Q 14.984375 17.28125 19.8125 11.734375 
Q 24.65625 6.203125 33.40625 6.203125 
Q 37.3125 6.203125 41.140625 7.25 
Q 44.96875 8.296875 48.78125 10.40625 
L 48.78125 2.09375 
Q 45.015625 0.34375 40.984375 -0.53125 
Q 36.96875 -1.421875 32.421875 -1.421875 
Q 20.0625 -1.421875 12.78125 6.34375 
Q 5.515625 14.109375 5.515625 27.296875 
Q 5.515625 40.671875 12.859375 48.328125 
Q 20.21875 56 33.015625 56 
Q 37.15625 56 41.109375 55.140625 
Q 45.0625 54.296875 48.78125 52.59375 
z
" id="DejaVuSans-99"/>
      <path d="M 54.890625 33.015625 
L 54.890625 0 
L 45.90625 0 
L 45.90625 32.71875 
Q 45.90625 40.484375 42.875 44.328125 
Q 39.84375 48.1875 33.796875 48.1875 
Q 26.515625 48.1875 22.3125 43.546875 
Q 18.109375 38.921875 18.109375 30.90625 
L 18.109375 0 
L 9.078125 0 
L 9.078125 75.984375 
L 18.109375 75.984375 
L 18.109375 46.1875 
Q 21.34375 51.125 25.703125 53.5625 
Q 30.078125 56 35.796875 56 
Q 45.21875 56 50.046875 50.171875 
Q 54.890625 44.34375 54.890625 33.015625 
z
" id="DejaVuSans-104"/>
     </defs>
     <g transform="translate(220.849063 335.860562)scale(0.1 -0.1)">
      <use xlink:href="#DejaVuSans-69"/>
      <use x="63.183594" xlink:href="#DejaVuSans-112"/>
      <use x="126.660156" xlink:href="#DejaVuSans-111"/>
      <use x="187.841797" xlink:href="#DejaVuSans-99"/>
      <use x="242.822266" xlink:href="#DejaVuSans-104"/>
     </g>
    </g>
   </g>
   <g id="matplotlib.axis_2">
    <g id="ytick_1">
     <g id="line2d_7">
      <defs>
       <path d="M 0 0 
L -3.5 0 
" id="m0c5dded543" style="stroke:#000000;stroke-width:0.8;"/>
      </defs>
      <g>
       <use style="stroke:#000000;stroke-width:0.8;" x="57.6" xlink:href="#m0c5dded543" y="301.555981"/>
      </g>
     </g>
     <g id="text_8">
      <!-- 0 -->
      <g transform="translate(44.2375 305.355199)scale(0.1 -0.1)">
       <use xlink:href="#DejaVuSans-48"/>
      </g>
     </g>
    </g>
    <g id="ytick_2">
     <g id="line2d_8">
      <g>
       <use style="stroke:#000000;stroke-width:0.8;" x="57.6" xlink:href="#m0c5dded543" y="262.812876"/>
      </g>
     </g>
     <g id="text_9">
      <!-- 2 -->
      <g transform="translate(44.2375 266.612095)scale(0.1 -0.1)">
       <use xlink:href="#DejaVuSans-50"/>
      </g>
     </g>
    </g>
    <g id="ytick_3">
     <g id="line2d_9">
      <g>
       <use style="stroke:#000000;stroke-width:0.8;" x="57.6" xlink:href="#m0c5dded543" y="224.069772"/>
      </g>
     </g>
     <g id="text_10">
      <!-- 4 -->
      <g transform="translate(44.2375 227.86899)scale(0.1 -0.1)">
       <use xlink:href="#DejaVuSans-52"/>
      </g>
     </g>
    </g>
    <g id="ytick_4">
     <g id="line2d_10">
      <g>
       <use style="stroke:#000000;stroke-width:0.8;" x="57.6" xlink:href="#m0c5dded543" y="185.326667"/>
      </g>
     </g>
     <g id="text_11">
      <!-- 6 -->
      <g transform="translate(44.2375 189.125886)scale(0.1 -0.1)">
       <use xlink:href="#DejaVuSans-54"/>
      </g>
     </g>
    </g>
    <g id="ytick_5">
     <g id="line2d_11">
      <g>
       <use style="stroke:#000000;stroke-width:0.8;" x="57.6" xlink:href="#m0c5dded543" y="146.583563"/>
      </g>
     </g>
     <g id="text_12">
      <!-- 8 -->
      <g transform="translate(44.2375 150.382781)scale(0.1 -0.1)">
       <use xlink:href="#DejaVuSans-56"/>
      </g>
     </g>
    </g>
    <g id="ytick_6">
     <g id="line2d_12">
      <g>
       <use style="stroke:#000000;stroke-width:0.8;" x="57.6" xlink:href="#m0c5dded543" y="107.840458"/>
      </g>
     </g>
     <g id="text_13">
      <!-- 10 -->
      <g transform="translate(37.875 111.639677)scale(0.1 -0.1)">
       <use xlink:href="#DejaVuSans-49"/>
       <use x="63.623047" xlink:href="#DejaVuSans-48"/>
      </g>
     </g>
    </g>
    <g id="ytick_7">
     <g id="line2d_13">
      <g>
       <use style="stroke:#000000;stroke-width:0.8;" x="57.6" xlink:href="#m0c5dded543" y="69.097354"/>
      </g>
     </g>
     <g id="text_14">
      <!-- 12 -->
      <g transform="translate(37.875 72.896572)scale(0.1 -0.1)">
       <use xlink:href="#DejaVuSans-49"/>
       <use x="63.623047" xlink:href="#DejaVuSans-50"/>
      </g>
     </g>
    </g>
    <g id="text_15">
     <!-- Loss -->
     <defs>
      <path d="M 9.8125 72.90625 
L 19.671875 72.90625 
L 19.671875 8.296875 
L 55.171875 8.296875 
L 55.171875 0 
L 9.8125 0 
z
" id="DejaVuSans-76"/>
      <path d="M 44.28125 53.078125 
L 44.28125 44.578125 
Q 40.484375 46.53125 36.375 47.5 
Q 32.28125 48.484375 27.875 48.484375 
Q 21.1875 48.484375 17.84375 46.4375 
Q 14.5 44.390625 14.5 40.28125 
Q 14.5 37.15625 16.890625 35.375 
Q 19.28125 33.59375 26.515625 31.984375 
L 29.59375 31.296875 
Q 39.15625 29.25 43.1875 25.515625 
Q 47.21875 21.78125 47.21875 15.09375 
Q 47.21875 7.46875 41.1875 3.015625 
Q 35.15625 -1.421875 24.609375 -1.421875 
Q 20.21875 -1.421875 15.453125 -0.5625 
Q 10.6875 0.296875 5.421875 2 
L 5.421875 11.28125 
Q 10.40625 8.6875 15.234375 7.390625 
Q 20.0625 6.109375 24.8125 6.109375 
Q 31.15625 6.109375 34.5625 8.28125 
Q 37.984375 10.453125 37.984375 14.40625 
Q 37.984375 18.0625 35.515625 20.015625 
Q 33.0625 21.96875 24.703125 23.78125 
L 21.578125 24.515625 
Q 13.234375 26.265625 9.515625 29.90625 
Q 5.8125 33.546875 5.8125 39.890625 
Q 5.8125 47.609375 11.28125 51.796875 
Q 16.75 56 26.8125 56 
Q 31.78125 56 36.171875 55.265625 
Q 40.578125 54.546875 44.28125 53.078125 
z
" id="DejaVuSans-115"/>
     </defs>
     <g transform="translate(31.795313 185.581906)rotate(-90)scale(0.1 -0.1)">
      <use xlink:href="#DejaVuSans-76"/>
      <use x="55.697266" xlink:href="#DejaVuSans-111"/>
      <use x="116.878906" xlink:href="#DejaVuSans-115"/>
      <use x="168.978516" xlink:href="#DejaVuSans-115"/>
     </g>
    </g>
   </g>
   <g id="line2d_14">
    <path clip-path="url(#p97dbea636c)" d="M 73.832727 53.568 
L 74.482686 86.56762 
L 74.807666 134.095701 
L 76.107584 212.918857 
L 76.432563 206.815874 
L 76.757543 192.14253 
L 77.407502 216.138615 
L 77.732482 209.995368 
L 78.057461 219.35974 
L 78.382441 201.751703 
L 78.70742 207.490985 
L 79.0324 232.612538 
L 79.357379 238.863896 
L 79.682359 229.330273 
L 80.007338 235.706229 
L 80.332318 228.082136 
L 80.657297 233.847369 
L 80.982277 235.283138 
L 81.307256 220.519529 
L 81.957215 246.664052 
L 82.282195 242.26991 
L 82.607174 246.838647 
L 82.932154 234.183663 
L 83.257133 235.252785 
L 83.582113 227.760196 
L 83.907093 248.785988 
L 84.232072 232.284636 
L 84.557052 243.411368 
L 84.882031 240.838962 
L 85.207011 246.370682 
L 85.53199 263.858005 
L 85.85697 242.556458 
L 86.181949 231.0156 
L 86.506929 255.870105 
L 87.156888 230.697521 
L 87.481867 256.762074 
L 87.806847 243.229365 
L 88.131826 249.776702 
L 88.456806 246.73866 
L 88.781785 255.522029 
L 89.431744 229.674317 
L 89.756724 243.413543 
L 90.081704 248.327007 
L 90.406683 248.369502 
L 90.731663 249.570927 
L 91.056642 238.760052 
L 91.381622 260.107743 
L 91.706601 244.022904 
L 92.031581 250.683482 
L 92.35656 247.867297 
L 92.68154 241.522386 
L 93.006519 228.307562 
L 93.331499 234.941025 
L 93.656478 233.190035 
L 93.981458 252.96389 
L 94.306437 250.31375 
L 94.631417 219.748132 
L 94.956396 238.377051 
L 95.281376 247.719356 
L 95.606355 252.674793 
L 95.931335 245.900483 
L 96.581294 250.775793 
L 96.906274 235.981632 
L 97.231253 251.93851 
L 97.556233 257.676184 
L 97.881212 241.405782 
L 98.206192 246.23335 
L 98.531171 237.972915 
L 98.856151 247.915925 
L 99.18113 250.973023 
L 99.50611 251.227458 
L 99.831089 241.324449 
L 100.156069 244.479317 
L 100.481048 249.769765 
L 101.131007 245.813188 
L 101.455987 260.510577 
L 101.780966 247.331269 
L 102.105946 249.452633 
L 102.430925 244.802347 
L 102.755905 256.541774 
L 103.080885 251.583548 
L 103.730844 247.61953 
L 104.055823 259.231985 
L 104.380803 246.293945 
L 104.705782 252.526903 
L 105.030762 242.407016 
L 105.355741 261.042794 
L 105.680721 251.136884 
L 106.0057 254.449263 
L 106.33068 261.62878 
L 106.655659 251.512265 
L 106.980639 255.445989 
L 107.305618 252.217969 
L 107.630598 241.631079 
L 108.280557 249.787768 
L 108.605536 246.411963 
L 108.930516 265.31529 
L 109.255495 239.025531 
L 109.580475 244.711731 
L 109.905455 246.544533 
L 110.230434 238.973891 
L 110.880393 252.530473 
L 111.530352 260.64941 
L 111.855332 239.461456 
L 112.180311 237.693891 
L 112.505291 250.604662 
L 112.83027 245.97099 
L 113.480229 260.866287 
L 113.805209 242.655041 
L 114.130188 249.208201 
L 114.455168 259.101655 
L 114.780147 230.634478 
L 115.105127 247.724441 
L 115.430106 241.699835 
L 115.755086 252.753553 
L 116.080066 248.603464 
L 116.405045 248.364436 
L 116.730025 237.788196 
L 117.055004 264.10097 
L 117.379984 255.730999 
L 117.704963 250.351437 
L 118.029943 256.693544 
L 118.354922 240.92707 
L 118.679902 246.20054 
L 119.004881 242.956202 
L 119.329861 243.878796 
L 119.65484 258.025863 
L 119.97982 255.913168 
L 120.304799 237.465739 
L 120.629779 258.98112 
L 120.954758 258.968788 
L 121.279738 253.519025 
L 121.604717 263.428493 
L 121.929697 246.880952 
L 122.254676 245.969082 
L 122.579656 259.865935 
L 122.904636 242.674346 
L 123.229615 252.23484 
L 123.554595 247.09413 
L 123.879574 247.981314 
L 124.204554 254.954946 
L 124.529533 246.488815 
L 124.854513 251.439311 
L 125.179492 253.048543 
L 125.504472 242.376922 
L 125.829451 254.116081 
L 126.154431 244.589506 
L 126.47941 257.382538 
L 126.80439 246.954313 
L 127.454349 257.409949 
L 128.104308 252.927926 
L 128.429287 251.700826 
L 128.754267 244.419447 
L 129.079247 259.377557 
L 129.404226 245.716277 
L 129.729206 248.524514 
L 130.054185 244.081421 
L 130.379165 253.40139 
L 130.704144 253.265023 
L 131.029124 245.052746 
L 131.354103 246.011568 
L 131.679083 254.648493 
L 132.004062 248.232129 
L 132.329042 245.581139 
L 132.654021 252.610692 
L 132.979001 232.143766 
L 133.30398 246.702543 
L 133.62896 253.782203 
L 133.953939 249.061175 
L 134.603898 264.691887 
L 134.928878 254.449845 
L 135.253857 267.87066 
L 135.578837 250.39663 
L 135.903817 253.63585 
L 136.228796 253.817969 
L 136.553776 252.400096 
L 136.878755 255.088242 
L 137.203735 250.506574 
L 137.528714 250.396907 
L 137.853694 250.627432 
L 138.178673 256.066047 
L 138.503653 228.527584 
L 138.828632 246.104673 
L 139.153612 250.954785 
L 139.478591 253.206627 
L 139.803571 250.175134 
L 140.12855 251.488923 
L 140.45353 249.567357 
L 140.778509 249.126134 
L 141.103489 250.83552 
L 141.428468 257.197357 
L 141.753448 260.192248 
L 142.078428 249.193621 
L 142.403407 253.607636 
L 142.728387 252.543174 
L 143.053366 264.269478 
L 143.378346 260.091315 
L 143.703325 247.500926 
L 144.028305 258.324572 
L 144.353284 247.885161 
L 144.678264 259.919048 
L 145.328223 248.158167 
L 145.653202 255.772409 
L 145.978182 254.507276 
L 146.303161 250.760704 
L 146.628141 250.148882 
L 146.95312 255.200232 
L 147.2781 255.469142 
L 147.603079 257.184911 
L 147.928059 260.19962 
L 148.253038 258.260157 
L 148.578018 260.409851 
L 148.902998 255.003035 
L 149.227977 253.079797 
L 149.552957 255.954426 
L 149.877936 261.372571 
L 150.202916 263.042256 
L 150.527895 246.71856 
L 151.177854 260.33449 
L 151.502834 268.443204 
L 151.827813 261.907846 
L 152.152793 252.354229 
L 152.477772 260.47815 
L 152.802752 251.292654 
L 153.127731 252.334134 
L 153.452711 262.647491 
L 153.77769 264.094922 
L 154.10267 254.423089 
L 154.427649 248.984341 
L 154.752629 265.340932 
L 155.077609 253.429785 
L 155.402588 253.843897 
L 155.727568 252.119372 
L 156.377527 261.720389 
L 157.027486 245.805221 
L 157.352465 259.602022 
L 157.677445 246.940513 
L 158.002424 239.417118 
L 158.327404 253.102525 
L 158.652383 258.45251 
L 158.977363 260.302599 
L 159.302342 254.698946 
L 159.627322 264.117135 
L 159.952301 251.824137 
L 160.277281 262.274054 
L 160.60226 260.575365 
L 160.92724 260.609302 
L 161.252219 259.79329 
L 161.577199 261.085612 
L 161.902179 251.198181 
L 162.227158 263.214361 
L 162.552138 251.151677 
L 162.877117 255.568298 
L 163.202097 264.103069 
L 163.527076 257.362784 
L 163.852056 261.606075 
L 164.177035 261.565802 
L 164.502015 255.956966 
L 164.826994 254.536322 
L 165.151974 260.46997 
L 165.476953 253.428797 
L 165.801933 256.631069 
L 166.126912 264.285051 
L 166.451892 245.780678 
L 167.101851 268.794393 
L 167.42683 263.906327 
L 167.75181 248.880364 
L 168.07679 255.087891 
L 168.401769 268.261118 
L 168.726749 253.804778 
L 169.051728 262.654234 
L 169.376708 254.745242 
L 169.701687 259.817565 
L 170.026667 257.180204 
L 170.351646 260.157489 
L 170.676626 250.239983 
L 171.326585 261.835062 
L 171.651564 249.473795 
L 172.626503 259.800001 
L 172.951482 259.601768 
L 173.276462 255.663324 
L 173.601441 255.730861 
L 173.926421 263.314519 
L 174.2514 260.223336 
L 174.57638 259.885282 
L 174.90136 263.224905 
L 175.226339 263.803333 
L 175.551319 258.229287 
L 175.876298 261.983156 
L 176.201278 261.436695 
L 176.526257 262.444672 
L 176.851237 265.889705 
L 177.176216 263.006718 
L 177.501196 269.672534 
L 177.826175 260.259148 
L 178.151155 256.660434 
L 178.801114 266.045294 
L 179.126093 267.995407 
L 179.451073 251.404838 
L 179.776052 254.958221 
L 180.101032 265.213114 
L 180.426011 264.924014 
L 180.750991 270.926865 
L 181.075971 266.969893 
L 181.40095 245.556383 
L 181.72593 263.085508 
L 182.050909 261.579819 
L 182.375889 264.636169 
L 182.700868 258.72838 
L 183.025848 255.57583 
L 183.350827 255.342243 
L 183.675807 260.887888 
L 184.000786 263.836931 
L 184.325766 256.919155 
L 184.650745 262.666505 
L 184.975725 264.028473 
L 185.300704 253.693536 
L 185.950663 271.525529 
L 186.275643 254.450011 
L 186.925602 263.026975 
L 187.250581 262.504778 
L 187.575561 247.584074 
L 187.900541 259.977879 
L 188.22552 263.218278 
L 188.5505 263.296705 
L 188.875479 274.721545 
L 189.200459 262.351189 
L 189.525438 259.075509 
L 189.850418 259.709764 
L 190.500377 252.79874 
L 190.825356 277.671632 
L 191.150336 265.229101 
L 191.475315 274.769724 
L 191.800295 272.872195 
L 192.125274 274.177013 
L 192.450254 268.679502 
L 192.775233 276.652244 
L 193.100213 280.110335 
L 193.425192 271.948086 
L 193.750172 272.485711 
L 194.075152 283.10615 
L 194.400131 289.370655 
L 194.725111 278.830428 
L 195.05009 276.791454 
L 195.37507 271.182967 
L 195.700049 283.058152 
L 196.025029 287.092231 
L 196.350008 271.140495 
L 196.674988 274.321742 
L 196.999967 281.969595 
L 197.324947 281.870139 
L 197.649926 284.926842 
L 197.974906 276.85833 
L 198.299885 277.541846 
L 198.624865 276.934539 
L 198.949844 274.17135 
L 199.274824 269.220562 
L 199.599803 280.524009 
L 199.924783 279.684989 
L 200.574742 273.095386 
L 200.899722 284.316239 
L 201.224701 279.894349 
L 201.549681 280.222589 
L 201.87466 272.58525 
L 202.19964 285.800878 
L 202.524619 274.220794 
L 202.849599 279.292281 
L 203.174578 276.308958 
L 203.499558 276.684787 
L 203.824537 269.592733 
L 204.149517 271.59804 
L 204.474496 283.639007 
L 204.799476 283.539746 
L 205.124455 281.515311 
L 205.449435 268.312001 
L 205.774414 278.289588 
L 206.099394 265.59961 
L 206.424373 276.174166 
L 206.749353 273.609272 
L 207.074333 272.603119 
L 207.399312 277.058733 
L 207.724292 273.188355 
L 208.374251 286.965212 
L 208.69923 275.795053 
L 209.02421 275.116814 
L 209.349189 266.215621 
L 209.674169 285.656455 
L 210.649107 281.365372 
L 210.974087 275.443829 
L 211.299066 277.144645 
L 211.624046 281.215612 
L 211.949025 264.460096 
L 212.274005 289.822097 
L 212.598984 279.221308 
L 212.923964 273.978859 
L 213.248943 276.225129 
L 213.573923 273.037973 
L 213.898903 284.970041 
L 214.223882 290.20446 
L 214.548862 287.285417 
L 214.873841 281.320626 
L 215.198821 288.263907 
L 215.5238 281.35463 
L 215.84878 277.219853 
L 216.173759 285.318552 
L 216.498739 284.29041 
L 216.823718 283.648521 
L 217.148698 286.100949 
L 217.473677 280.720303 
L 217.798657 277.645944 
L 218.123636 283.231987 
L 218.448616 294.285818 
L 219.098575 275.166726 
L 219.423554 282.448752 
L 219.748534 277.22831 
L 220.073514 276.264871 
L 220.398493 277.439599 
L 220.723473 280.8255 
L 221.048452 277.330444 
L 221.373432 283.597438 
L 222.023391 290.902863 
L 222.34837 288.421108 
L 222.67335 283.533256 
L 222.998329 275.538034 
L 223.323309 281.730976 
L 223.648288 271.226393 
L 223.973268 285.931066 
L 224.298247 284.837207 
L 224.623227 289.318842 
L 225.273186 277.851958 
L 225.598165 282.95107 
L 225.923145 278.063127 
L 226.248124 284.197812 
L 226.573104 281.807632 
L 226.898084 282.266592 
L 227.223063 282.002735 
L 227.548043 273.009333 
L 227.873022 279.29039 
L 228.198002 277.341561 
L 228.522981 284.007011 
L 228.847961 279.843913 
L 229.17294 287.163995 
L 229.49792 282.071175 
L 229.822899 283.56533 
L 230.147879 279.941087 
L 230.472858 287.251182 
L 230.797838 280.180244 
L 231.122817 281.56645 
L 231.447797 280.575127 
L 231.772776 281.146454 
L 232.097756 283.065889 
L 232.422735 286.704497 
L 232.747715 273.797575 
L 233.072695 288.41603 
L 233.397674 278.325143 
L 233.722654 287.958855 
L 234.372613 288.46045 
L 234.697592 289.626597 
L 235.022572 283.428951 
L 235.347551 288.71348 
L 235.672531 284.283084 
L 235.99751 283.495912 
L 236.32249 291.462574 
L 236.972449 277.284488 
L 237.297428 278.222679 
L 237.622408 290.891713 
L 237.947387 279.788197 
L 238.272367 283.246487 
L 238.597346 279.884417 
L 238.922326 285.638061 
L 239.247305 288.234668 
L 239.572285 288.661437 
L 239.897265 270.78347 
L 240.222244 275.606081 
L 240.547224 291.948725 
L 240.872203 286.080285 
L 241.197183 283.347831 
L 241.522162 284.62707 
L 241.847142 278.685117 
L 242.172121 280.68127 
L 242.497101 288.096433 
L 242.82208 286.304804 
L 243.14706 285.870342 
L 243.472039 282.196375 
L 243.797019 283.356572 
L 244.121998 283.352982 
L 244.771957 287.579346 
L 245.096937 286.424306 
L 245.421916 284.086713 
L 245.746896 283.379991 
L 246.071876 286.971988 
L 246.396855 281.159616 
L 246.721835 280.05882 
L 247.046814 281.106088 
L 247.371794 277.965401 
L 247.696773 287.876711 
L 248.021753 294.199416 
L 248.671712 287.144066 
L 249.321671 288.681417 
L 249.97163 285.805198 
L 250.296609 286.186385 
L 250.621589 277.238053 
L 250.946568 285.643768 
L 251.271548 289.300677 
L 251.596527 286.955021 
L 251.921507 285.859065 
L 252.246486 280.108698 
L 252.571466 281.478653 
L 252.896446 279.381061 
L 253.221425 289.245448 
L 253.871384 284.042124 
L 254.196364 288.593718 
L 254.521343 279.585293 
L 254.846323 279.525467 
L 255.171302 277.05977 
L 255.496282 281.928665 
L 255.821261 280.892633 
L 256.146241 280.812316 
L 256.47122 287.607546 
L 256.7962 284.819114 
L 257.121179 283.616926 
L 257.446159 284.632663 
L 257.771138 268.069474 
L 258.421097 286.954232 
L 259.071057 278.696077 
L 259.396036 284.886943 
L 259.721016 287.789588 
L 260.045995 275.46089 
L 260.370975 279.002551 
L 260.695954 289.337266 
L 261.345913 276.961709 
L 261.670893 282.889996 
L 261.995872 280.045318 
L 262.320852 286.875984 
L 262.970811 274.85888 
L 263.29579 284.965308 
L 263.62077 276.133158 
L 263.945749 285.205003 
L 264.270729 276.051396 
L 264.595708 277.961071 
L 264.920688 282.478333 
L 265.245667 283.81549 
L 265.570647 281.684495 
L 265.895627 281.486644 
L 266.220606 288.043844 
L 266.545586 284.793168 
L 266.870565 279.027692 
L 267.195545 286.683694 
L 267.520524 282.932486 
L 267.845504 284.430054 
L 268.170483 292.497222 
L 268.820442 286.40502 
L 269.470401 281.264416 
L 269.795381 273.441483 
L 270.12036 284.279888 
L 270.44534 288.813365 
L 270.770319 282.50845 
L 271.095299 289.606442 
L 271.420278 283.683507 
L 271.745258 290.652524 
L 272.070238 282.994443 
L 272.395217 289.322581 
L 272.720197 278.011799 
L 273.045176 284.226963 
L 273.370156 285.728876 
L 273.695135 286.549685 
L 274.020115 291.792076 
L 274.345094 287.618264 
L 274.670074 292.129757 
L 274.995053 281.941392 
L 275.320033 283.62487 
L 275.645012 293.037074 
L 275.969992 285.946183 
L 276.294971 287.502237 
L 276.619951 290.260409 
L 276.94493 283.973955 
L 277.594889 291.787873 
L 277.919869 292.848155 
L 278.244848 283.500929 
L 278.569828 290.557759 
L 278.894808 280.487559 
L 279.219787 286.068179 
L 279.544767 278.1548 
L 279.869746 280.147138 
L 280.194726 287.010851 
L 280.519705 279.403429 
L 280.844685 278.826105 
L 281.169664 281.424314 
L 281.494644 271.491074 
L 281.819623 278.413284 
L 282.144603 288.145077 
L 282.469582 281.057219 
L 282.794562 286.962568 
L 283.119541 287.849266 
L 283.7695 281.636808 
L 284.09448 286.188396 
L 284.419459 277.324468 
L 284.744439 283.673579 
L 285.069419 284.898806 
L 285.394398 280.338752 
L 285.719378 284.718859 
L 286.044357 279.26327 
L 286.369337 293.263102 
L 287.019296 286.601297 
L 287.344275 293.065583 
L 287.669255 282.736475 
L 287.994234 288.276894 
L 288.319214 287.043151 
L 288.644193 289.006004 
L 288.969173 284.162507 
L 289.294152 281.647983 
L 289.619132 284.967309 
L 289.944111 283.81211 
L 290.269091 287.089582 
L 290.59407 289.150218 
L 290.91905 281.901566 
L 291.244029 281.798434 
L 291.569009 283.794235 
L 291.893989 284.282242 
L 292.218968 288.465389 
L 292.543948 290.062983 
L 292.868927 290.115926 
L 293.518886 286.17556 
L 293.843866 286.278716 
L 294.168845 289.050969 
L 294.493825 283.845264 
L 295.468763 293.124509 
L 295.793743 283.549552 
L 296.118722 285.894293 
L 296.443702 285.724455 
L 296.768681 285.128116 
L 297.093661 274.455023 
L 297.41864 285.834279 
L 297.74362 286.728726 
L 298.0686 288.019904 
L 298.393579 288.465344 
L 298.718559 279.829699 
L 299.043538 285.814236 
L 299.368518 287.850424 
L 299.693497 284.068009 
L 300.018477 284.733809 
L 300.343456 285.137946 
L 300.668436 288.59766 
L 300.993415 285.844641 
L 301.318395 284.434048 
L 301.643374 286.274323 
L 301.968354 284.332754 
L 302.293333 289.465612 
L 302.618313 272.870805 
L 302.943292 288.547911 
L 303.268272 288.328333 
L 303.593251 292.435485 
L 303.918231 275.803355 
L 304.24321 288.618068 
L 304.56819 285.098524 
L 304.89317 289.674337 
L 305.218149 281.149026 
L 305.543129 280.750215 
L 306.518067 281.330542 
L 306.843047 288.234087 
L 307.168026 284.98036 
L 307.493006 283.255096 
L 307.817985 280.506897 
L 308.142965 283.801201 
L 308.467944 292.201321 
L 308.792924 283.720644 
L 309.117903 283.780758 
L 309.442883 281.984044 
L 309.767862 291.018603 
L 310.092842 287.812886 
L 310.417821 289.374638 
L 310.742801 293.468655 
L 311.067781 286.642554 
L 311.39276 290.699769 
L 311.71774 291.471933 
L 312.042719 289.257163 
L 312.367699 289.796167 
L 312.692678 291.745313 
L 313.017658 287.309257 
L 313.342637 277.593394 
L 313.667617 287.731519 
L 313.992596 280.899327 
L 314.317576 291.871337 
L 314.642555 295.048417 
L 314.967535 287.845452 
L 315.292514 292.167503 
L 315.617494 289.269992 
L 315.942473 288.305662 
L 316.267453 290.213967 
L 316.917412 283.725614 
L 317.242391 289.007897 
L 317.567371 289.892521 
L 317.892351 295.488 
L 318.21733 288.871947 
L 318.54231 288.157151 
L 319.192269 282.787532 
L 319.517248 287.581991 
L 319.842228 290.662542 
L 320.167207 281.517294 
L 320.492187 281.915299 
L 321.142146 271.896861 
L 321.467125 279.251534 
L 321.792105 281.144225 
L 322.117084 268.888729 
L 322.442064 281.780505 
L 322.767043 277.516352 
L 323.092023 287.523763 
L 323.417002 278.1877 
L 323.741982 292.694721 
L 324.066962 276.506183 
L 324.391941 279.119952 
L 324.716921 285.712709 
L 325.0419 285.42164 
L 325.36688 285.515955 
L 325.691859 277.108131 
L 326.016839 288.577785 
L 326.341818 284.349796 
L 326.666798 282.020976 
L 327.316757 289.192316 
L 327.641736 281.726172 
L 327.966716 283.370542 
L 328.291695 289.416985 
L 328.616675 287.6567 
L 329.266634 277.823695 
L 329.916593 287.310252 
L 330.241572 277.950084 
L 330.566552 288.790839 
L 330.891532 286.885665 
L 331.216511 270.06353 
L 331.541491 284.457261 
L 331.86647 282.597954 
L 332.19145 269.779264 
L 332.516429 284.287412 
L 332.841409 280.756557 
L 333.166388 286.195914 
L 333.491368 281.888119 
L 333.816347 279.286252 
L 334.141327 269.243447 
L 334.466306 285.360125 
L 334.791286 287.247221 
L 335.116265 285.144244 
L 335.441245 285.406444 
L 336.091204 290.243485 
L 336.416183 280.800225 
L 336.741163 290.427305 
L 337.066143 279.452395 
L 337.391122 289.666915 
L 337.716102 286.435017 
L 338.366061 282.169781 
L 338.69104 287.293853 
L 339.01602 274.272337 
L 339.340999 278.791671 
L 339.665979 289.739079 
L 339.990958 289.379194 
L 340.315938 284.44892 
L 340.640917 293.53406 
L 340.965897 281.327784 
L 341.290876 291.562255 
L 341.615856 290.655392 
L 341.940835 285.850252 
L 342.590794 290.95591 
L 342.915774 289.448353 
L 343.240753 282.620616 
L 343.565733 284.591142 
L 343.890713 283.493928 
L 344.540672 292.556572 
L 344.865651 288.162896 
L 345.190631 291.353971 
L 345.51561 285.11551 
L 345.84059 285.634845 
L 346.165569 286.789618 
L 346.490549 292.32386 
L 346.815528 282.671824 
L 347.140508 285.530064 
L 347.465487 284.702021 
L 348.115446 281.773552 
L 348.440426 270.660931 
L 348.765405 293.542793 
L 349.090385 286.781899 
L 349.415364 287.604955 
L 349.740344 281.84531 
L 350.065324 292.490224 
L 350.390303 286.508193 
L 350.715283 294.20116 
L 351.040262 288.17207 
L 351.365242 286.98179 
L 351.690221 288.899388 
L 352.015201 288.353077 
L 352.34018 290.430172 
L 352.66516 281.319847 
L 352.990139 291.140539 
L 353.315119 290.352683 
L 353.640098 282.757952 
L 353.965078 294.422166 
L 354.290057 283.23863 
L 354.615037 291.620563 
L 354.940016 285.462691 
L 355.264996 292.549213 
L 355.914955 283.740326 
L 356.239934 291.998106 
L 356.564914 292.574472 
L 356.889894 284.041824 
L 357.539853 288.371276 
L 357.864832 287.533987 
L 358.189812 290.73208 
L 358.514791 292.152593 
L 359.16475 289.13983 
L 359.48973 284.499999 
L 359.814709 285.076127 
L 360.139689 290.569688 
L 360.464668 289.530675 
L 360.789648 285.275595 
L 361.114627 287.796565 
L 361.439607 287.550595 
L 361.764586 290.465819 
L 362.089566 285.379804 
L 362.414545 289.696146 
L 362.739525 288.215177 
L 363.064505 283.286651 
L 363.389484 290.471514 
L 363.714464 287.700682 
L 364.039443 288.710887 
L 364.364423 287.054656 
L 364.689402 289.640371 
L 365.014382 287.300181 
L 365.339361 285.938301 
L 365.664341 288.330244 
L 365.98932 289.637991 
L 366.3143 283.57199 
L 366.639279 284.475694 
L 366.964259 286.829991 
L 367.289238 282.160336 
L 367.614218 280.538809 
L 367.939197 290.984706 
L 368.264177 282.776505 
L 368.589156 288.584348 
L 368.914136 289.640762 
L 369.239115 292.674329 
L 369.564095 283.588053 
L 369.889075 291.198424 
L 370.214054 288.824117 
L 370.539034 287.607314 
L 370.864013 288.451355 
L 371.188993 293.150325 
L 371.513972 292.677287 
L 371.838952 294.579047 
L 372.163931 290.363046 
L 372.81389 288.660408 
L 373.13887 290.54935 
L 373.463849 280.72491 
L 373.788829 289.648093 
L 374.113808 289.839164 
L 374.438788 285.368826 
L 374.763767 288.555705 
L 375.088747 287.706945 
L 375.738706 279.074423 
L 376.063686 283.434858 
L 376.388665 290.234197 
L 376.713645 282.281447 
L 377.038624 293.399416 
L 377.363604 283.512607 
L 377.688583 288.697611 
L 378.013563 289.156986 
L 378.338542 284.695261 
L 378.663522 291.303013 
L 378.988501 289.84206 
L 379.96344 280.574194 
L 380.288419 286.149327 
L 380.613399 284.530518 
L 380.938378 288.18852 
L 381.263358 271.977316 
L 381.588337 291.255514 
L 381.913317 275.062881 
L 382.238296 287.309212 
L 382.563276 285.607476 
L 382.888256 273.418083 
L 383.213235 288.592414 
L 383.538215 281.829217 
L 383.863194 287.104937 
L 384.188174 285.785246 
L 384.513153 289.668806 
L 384.838133 291.246496 
L 385.163112 276.056649 
L 385.488092 291.232866 
L 385.813071 285.813822 
L 386.138051 287.050475 
L 386.46303 287.609039 
L 386.78801 286.223553 
L 387.112989 288.097345 
L 387.437969 293.532836 
L 387.762948 285.887883 
L 388.087928 285.039348 
L 388.412907 287.828038 
L 388.737887 285.290942 
L 389.062867 289.149497 
L 389.387846 287.478543 
L 389.712826 287.852595 
L 390.037805 288.707176 
L 390.362785 287.511006 
L 390.687764 284.984796 
L 391.012744 289.847848 
L 391.337723 288.777002 
L 391.662703 290.638056 
L 391.987682 288.880161 
L 392.312662 288.48402 
L 392.637641 287.558186 
L 392.962621 284.202297 
L 393.2876 289.700422 
L 393.937559 290.834884 
L 394.262539 289.456136 
L 394.587518 281.915036 
L 394.912498 283.324638 
L 395.237477 285.599733 
L 395.562457 280.274896 
L 395.887437 284.936174 
L 396.212416 277.279777 
L 396.537396 286.902044 
L 396.862375 282.742433 
L 397.187355 293.343165 
L 397.512334 289.195135 
L 397.837314 281.991937 
L 398.162293 288.824447 
L 398.487273 291.36128 
L 398.487273 291.36128 
" style="fill:none;stroke:#1f77b4;stroke-linecap:square;stroke-width:1.5;"/>
   </g>
   <g id="patch_3">
    <path d="M 57.6 307.584 
L 57.6 41.472 
" style="fill:none;stroke:#000000;stroke-linecap:square;stroke-linejoin:miter;stroke-width:0.8;"/>
   </g>
   <g id="patch_4">
    <path d="M 414.72 307.584 
L 414.72 41.472 
" style="fill:none;stroke:#000000;stroke-linecap:square;stroke-linejoin:miter;stroke-width:0.8;"/>
   </g>
   <g id="patch_5">
    <path d="M 57.6 307.584 
L 414.72 307.584 
" style="fill:none;stroke:#000000;stroke-linecap:square;stroke-linejoin:miter;stroke-width:0.8;"/>
   </g>
   <g id="patch_6">
    <path d="M 57.6 41.472 
L 414.72 41.472 
" style="fill:none;stroke:#000000;stroke-linecap:square;stroke-linejoin:miter;stroke-width:0.8;"/>
   </g>
   <g id="text_16">
    <!-- Training Loss -->
    <defs>
     <path d="M -0.296875 72.90625 
L 61.375 72.90625 
L 61.375 64.59375 
L 35.5 64.59375 
L 35.5 0 
L 25.59375 0 
L 25.59375 64.59375 
L -0.296875 64.59375 
z
" id="DejaVuSans-84"/>
     <path d="M 41.109375 46.296875 
Q 39.59375 47.171875 37.8125 47.578125 
Q 36.03125 48 33.890625 48 
Q 26.265625 48 22.1875 43.046875 
Q 18.109375 38.09375 18.109375 28.8125 
L 18.109375 0 
L 9.078125 0 
L 9.078125 54.6875 
L 18.109375 54.6875 
L 18.109375 46.1875 
Q 20.953125 51.171875 25.484375 53.578125 
Q 30.03125 56 36.53125 56 
Q 37.453125 56 38.578125 55.875 
Q 39.703125 55.765625 41.0625 55.515625 
z
" id="DejaVuSans-114"/>
     <path d="M 34.28125 27.484375 
Q 23.390625 27.484375 19.1875 25 
Q 14.984375 22.515625 14.984375 16.5 
Q 14.984375 11.71875 18.140625 8.90625 
Q 21.296875 6.109375 26.703125 6.109375 
Q 34.1875 6.109375 38.703125 11.40625 
Q 43.21875 16.703125 43.21875 25.484375 
L 43.21875 27.484375 
z
M 52.203125 31.203125 
L 52.203125 0 
L 43.21875 0 
L 43.21875 8.296875 
Q 40.140625 3.328125 35.546875 0.953125 
Q 30.953125 -1.421875 24.3125 -1.421875 
Q 15.921875 -1.421875 10.953125 3.296875 
Q 6 8.015625 6 15.921875 
Q 6 25.140625 12.171875 29.828125 
Q 18.359375 34.515625 30.609375 34.515625 
L 43.21875 34.515625 
L 43.21875 35.40625 
Q 43.21875 41.609375 39.140625 45 
Q 35.0625 48.390625 27.6875 48.390625 
Q 23 48.390625 18.546875 47.265625 
Q 14.109375 46.140625 10.015625 43.890625 
L 10.015625 52.203125 
Q 14.9375 54.109375 19.578125 55.046875 
Q 24.21875 56 28.609375 56 
Q 40.484375 56 46.34375 49.84375 
Q 52.203125 43.703125 52.203125 31.203125 
z
" id="DejaVuSans-97"/>
     <path d="M 9.421875 54.6875 
L 18.40625 54.6875 
L 18.40625 0 
L 9.421875 0 
z
M 9.421875 75.984375 
L 18.40625 75.984375 
L 18.40625 64.59375 
L 9.421875 64.59375 
z
" id="DejaVuSans-105"/>
     <path d="M 54.890625 33.015625 
L 54.890625 0 
L 45.90625 0 
L 45.90625 32.71875 
Q 45.90625 40.484375 42.875 44.328125 
Q 39.84375 48.1875 33.796875 48.1875 
Q 26.515625 48.1875 22.3125 43.546875 
Q 18.109375 38.921875 18.109375 30.90625 
L 18.109375 0 
L 9.078125 0 
L 9.078125 54.6875 
L 18.109375 54.6875 
L 18.109375 46.1875 
Q 21.34375 51.125 25.703125 53.5625 
Q 30.078125 56 35.796875 56 
Q 45.21875 56 50.046875 50.171875 
Q 54.890625 44.34375 54.890625 33.015625 
z
" id="DejaVuSans-110"/>
     <path d="M 45.40625 27.984375 
Q 45.40625 37.75 41.375 43.109375 
Q 37.359375 48.484375 30.078125 48.484375 
Q 22.859375 48.484375 18.828125 43.109375 
Q 14.796875 37.75 14.796875 27.984375 
Q 14.796875 18.265625 18.828125 12.890625 
Q 22.859375 7.515625 30.078125 7.515625 
Q 37.359375 7.515625 41.375 12.890625 
Q 45.40625 18.265625 45.40625 27.984375 
z
M 54.390625 6.78125 
Q 54.390625 -7.171875 48.1875 -13.984375 
Q 42 -20.796875 29.203125 -20.796875 
Q 24.46875 -20.796875 20.265625 -20.09375 
Q 16.0625 -19.390625 12.109375 -17.921875 
L 12.109375 -9.1875 
Q 16.0625 -11.328125 19.921875 -12.34375 
Q 23.78125 -13.375 27.78125 -13.375 
Q 36.625 -13.375 41.015625 -8.765625 
Q 45.40625 -4.15625 45.40625 5.171875 
L 45.40625 9.625 
Q 42.625 4.78125 38.28125 2.390625 
Q 33.9375 0 27.875 0 
Q 17.828125 0 11.671875 7.65625 
Q 5.515625 15.328125 5.515625 27.984375 
Q 5.515625 40.671875 11.671875 48.328125 
Q 17.828125 56 27.875 56 
Q 33.9375 56 38.28125 53.609375 
Q 42.625 51.21875 45.40625 46.390625 
L 45.40625 54.6875 
L 54.390625 54.6875 
z
" id="DejaVuSans-103"/>
     <path id="DejaVuSans-32"/>
    </defs>
    <g transform="translate(196.445625 35.472)scale(0.12 -0.12)">
     <use xlink:href="#DejaVuSans-84"/>
     <use x="60.865234" xlink:href="#DejaVuSans-114"/>
     <use x="101.978516" xlink:href="#DejaVuSans-97"/>
     <use x="163.257812" xlink:href="#DejaVuSans-105"/>
     <use x="191.041016" xlink:href="#DejaVuSans-110"/>
     <use x="254.419922" xlink:href="#DejaVuSans-105"/>
     <use x="282.203125" xlink:href="#DejaVuSans-110"/>
     <use x="345.582031" xlink:href="#DejaVuSans-103"/>
     <use x="409.058594" xlink:href="#DejaVuSans-32"/>
     <use x="440.845703" xlink:href="#DejaVuSans-76"/>
     <use x="496.542969" xlink:href="#DejaVuSans-111"/>
     <use x="557.724609" xlink:href="#DejaVuSans-115"/>
     <use x="609.824219" xlink:href="#DejaVuSans-115"/>
    </g>
   </g>
  </g>
 </g>
 <defs>
  <clipPath id="p97dbea636c">
   <rect height="266.112" width="357.12" x="57.6" y="41.472"/>
  </clipPath>
 </defs>
</svg>
