<?xml version="1.0" encoding="utf-8" standalone="no"?>
<!DOCTYPE svg PUBLIC "-//W3C//DTD SVG 1.1//EN"
  "http://www.w3.org/Graphics/SVG/1.1/DTD/svg11.dtd">
<!-- Created with matplotlib (https://matplotlib.org/) -->
<svg height="345.6pt" version="1.1" viewBox="0 0 460.8 345.6" width="460.8pt" xmlns="http://www.w3.org/2000/svg" xmlns:xlink="http://www.w3.org/1999/xlink">
 <defs>
  <style type="text/css">
*{stroke-linecap:butt;stroke-linejoin:round;}
  </style>
 </defs>
 <g id="figure_1">
  <g id="patch_1">
   <path d="M 0 345.6 
L 460.8 345.6 
L 460.8 0 
L 0 0 
z
" style="fill:#ffffff;"/>
  </g>
  <g id="axes_1">
   <g id="patch_2">
    <path d="M 57.6 307.584 
L 414.72 307.584 
L 414.72 41.472 
L 57.6 41.472 
z
" style="fill:#ffffff;"/>
   </g>
   <g id="matplotlib.axis_1">
    <g id="xtick_1">
     <g id="line2d_1">
      <defs>
       <path d="M 0 0 
L 0 3.5 
" id="m5b1244b1b5" style="stroke:#000000;stroke-width:0.8;"/>
      </defs>
      <g>
       <use style="stroke:#000000;stroke-width:0.8;" x="73.832727" xlink:href="#m5b1244b1b5" y="307.584"/>
      </g>
     </g>
     <g id="text_1">
      <!-- 0 -->
      <defs>
       <path d="M 31.78125 66.40625 
Q 24.171875 66.40625 20.328125 58.90625 
Q 16.5 51.421875 16.5 36.375 
Q 16.5 21.390625 20.328125 13.890625 
Q 24.171875 6.390625 31.78125 6.390625 
Q 39.453125 6.390625 43.28125 13.890625 
Q 47.125 21.390625 47.125 36.375 
Q 47.125 51.421875 43.28125 58.90625 
Q 39.453125 66.40625 31.78125 66.40625 
z
M 31.78125 74.21875 
Q 44.046875 74.21875 50.515625 64.515625 
Q 56.984375 54.828125 56.984375 36.375 
Q 56.984375 17.96875 50.515625 8.265625 
Q 44.046875 -1.421875 31.78125 -1.421875 
Q 19.53125 -1.421875 13.0625 8.265625 
Q 6.59375 17.96875 6.59375 36.375 
Q 6.59375 54.828125 13.0625 64.515625 
Q 19.53125 74.21875 31.78125 74.21875 
z
" id="DejaVuSans-48"/>
      </defs>
      <g transform="translate(70.651477 322.182437)scale(0.1 -0.1)">
       <use xlink:href="#DejaVuSans-48"/>
      </g>
     </g>
    </g>
    <g id="xtick_2">
     <g id="line2d_2">
      <g>
       <use style="stroke:#000000;stroke-width:0.8;" x="138.828632" xlink:href="#m5b1244b1b5" y="307.584"/>
      </g>
     </g>
     <g id="text_2">
      <!-- 200 -->
      <defs>
       <path d="M 19.1875 8.296875 
L 53.609375 8.296875 
L 53.609375 0 
L 7.328125 0 
L 7.328125 8.296875 
Q 12.9375 14.109375 22.625 23.890625 
Q 32.328125 33.6875 34.8125 36.53125 
Q 39.546875 41.84375 41.421875 45.53125 
Q 43.3125 49.21875 43.3125 52.78125 
Q 43.3125 58.59375 39.234375 62.25 
Q 35.15625 65.921875 28.609375 65.921875 
Q 23.96875 65.921875 18.8125 64.3125 
Q 13.671875 62.703125 7.8125 59.421875 
L 7.8125 69.390625 
Q 13.765625 71.78125 18.9375 73 
Q 24.125 74.21875 28.421875 74.21875 
Q 39.75 74.21875 46.484375 68.546875 
Q 53.21875 62.890625 53.21875 53.421875 
Q 53.21875 48.921875 51.53125 44.890625 
Q 49.859375 40.875 45.40625 35.40625 
Q 44.1875 33.984375 37.640625 27.21875 
Q 31.109375 20.453125 19.1875 8.296875 
z
" id="DejaVuSans-50"/>
      </defs>
      <g transform="translate(129.284882 322.182437)scale(0.1 -0.1)">
       <use xlink:href="#DejaVuSans-50"/>
       <use x="63.623047" xlink:href="#DejaVuSans-48"/>
       <use x="127.246094" xlink:href="#DejaVuSans-48"/>
      </g>
     </g>
    </g>
    <g id="xtick_3">
     <g id="line2d_3">
      <g>
       <use style="stroke:#000000;stroke-width:0.8;" x="203.824537" xlink:href="#m5b1244b1b5" y="307.584"/>
      </g>
     </g>
     <g id="text_3">
      <!-- 400 -->
      <defs>
       <path d="M 37.796875 64.3125 
L 12.890625 25.390625 
L 37.796875 25.390625 
z
M 35.203125 72.90625 
L 47.609375 72.90625 
L 47.609375 25.390625 
L 58.015625 25.390625 
L 58.015625 17.1875 
L 47.609375 17.1875 
L 47.609375 0 
L 37.796875 0 
L 37.796875 17.1875 
L 4.890625 17.1875 
L 4.890625 26.703125 
z
" id="DejaVuSans-52"/>
      </defs>
      <g transform="translate(194.280787 322.182437)scale(0.1 -0.1)">
       <use xlink:href="#DejaVuSans-52"/>
       <use x="63.623047" xlink:href="#DejaVuSans-48"/>
       <use x="127.246094" xlink:href="#DejaVuSans-48"/>
      </g>
     </g>
    </g>
    <g id="xtick_4">
     <g id="line2d_4">
      <g>
       <use style="stroke:#000000;stroke-width:0.8;" x="268.820442" xlink:href="#m5b1244b1b5" y="307.584"/>
      </g>
     </g>
     <g id="text_4">
      <!-- 600 -->
      <defs>
       <path d="M 33.015625 40.375 
Q 26.375 40.375 22.484375 35.828125 
Q 18.609375 31.296875 18.609375 23.390625 
Q 18.609375 15.53125 22.484375 10.953125 
Q 26.375 6.390625 33.015625 6.390625 
Q 39.65625 6.390625 43.53125 10.953125 
Q 47.40625 15.53125 47.40625 23.390625 
Q 47.40625 31.296875 43.53125 35.828125 
Q 39.65625 40.375 33.015625 40.375 
z
M 52.59375 71.296875 
L 52.59375 62.3125 
Q 48.875 64.0625 45.09375 64.984375 
Q 41.3125 65.921875 37.59375 65.921875 
Q 27.828125 65.921875 22.671875 59.328125 
Q 17.53125 52.734375 16.796875 39.40625 
Q 19.671875 43.65625 24.015625 45.921875 
Q 28.375 48.1875 33.59375 48.1875 
Q 44.578125 48.1875 50.953125 41.515625 
Q 57.328125 34.859375 57.328125 23.390625 
Q 57.328125 12.15625 50.6875 5.359375 
Q 44.046875 -1.421875 33.015625 -1.421875 
Q 20.359375 -1.421875 13.671875 8.265625 
Q 6.984375 17.96875 6.984375 36.375 
Q 6.984375 53.65625 15.1875 63.9375 
Q 23.390625 74.21875 37.203125 74.21875 
Q 40.921875 74.21875 44.703125 73.484375 
Q 48.484375 72.75 52.59375 71.296875 
z
" id="DejaVuSans-54"/>
      </defs>
      <g transform="translate(259.276692 322.182437)scale(0.1 -0.1)">
       <use xlink:href="#DejaVuSans-54"/>
       <use x="63.623047" xlink:href="#DejaVuSans-48"/>
       <use x="127.246094" xlink:href="#DejaVuSans-48"/>
      </g>
     </g>
    </g>
    <g id="xtick_5">
     <g id="line2d_5">
      <g>
       <use style="stroke:#000000;stroke-width:0.8;" x="333.816347" xlink:href="#m5b1244b1b5" y="307.584"/>
      </g>
     </g>
     <g id="text_5">
      <!-- 800 -->
      <defs>
       <path d="M 31.78125 34.625 
Q 24.75 34.625 20.71875 30.859375 
Q 16.703125 27.09375 16.703125 20.515625 
Q 16.703125 13.921875 20.71875 10.15625 
Q 24.75 6.390625 31.78125 6.390625 
Q 38.8125 6.390625 42.859375 10.171875 
Q 46.921875 13.96875 46.921875 20.515625 
Q 46.921875 27.09375 42.890625 30.859375 
Q 38.875 34.625 31.78125 34.625 
z
M 21.921875 38.8125 
Q 15.578125 40.375 12.03125 44.71875 
Q 8.5 49.078125 8.5 55.328125 
Q 8.5 64.0625 14.71875 69.140625 
Q 20.953125 74.21875 31.78125 74.21875 
Q 42.671875 74.21875 48.875 69.140625 
Q 55.078125 64.0625 55.078125 55.328125 
Q 55.078125 49.078125 51.53125 44.71875 
Q 48 40.375 41.703125 38.8125 
Q 48.828125 37.15625 52.796875 32.3125 
Q 56.78125 27.484375 56.78125 20.515625 
Q 56.78125 9.90625 50.3125 4.234375 
Q 43.84375 -1.421875 31.78125 -1.421875 
Q 19.734375 -1.421875 13.25 4.234375 
Q 6.78125 9.90625 6.78125 20.515625 
Q 6.78125 27.484375 10.78125 32.3125 
Q 14.796875 37.15625 21.921875 38.8125 
z
M 18.3125 54.390625 
Q 18.3125 48.734375 21.84375 45.5625 
Q 25.390625 42.390625 31.78125 42.390625 
Q 38.140625 42.390625 41.71875 45.5625 
Q 45.3125 48.734375 45.3125 54.390625 
Q 45.3125 60.0625 41.71875 63.234375 
Q 38.140625 66.40625 31.78125 66.40625 
Q 25.390625 66.40625 21.84375 63.234375 
Q 18.3125 60.0625 18.3125 54.390625 
z
" id="DejaVuSans-56"/>
      </defs>
      <g transform="translate(324.272597 322.182437)scale(0.1 -0.1)">
       <use xlink:href="#DejaVuSans-56"/>
       <use x="63.623047" xlink:href="#DejaVuSans-48"/>
       <use x="127.246094" xlink:href="#DejaVuSans-48"/>
      </g>
     </g>
    </g>
    <g id="xtick_6">
     <g id="line2d_6">
      <g>
       <use style="stroke:#000000;stroke-width:0.8;" x="398.812252" xlink:href="#m5b1244b1b5" y="307.584"/>
      </g>
     </g>
     <g id="text_6">
      <!-- 1000 -->
      <defs>
       <path d="M 12.40625 8.296875 
L 28.515625 8.296875 
L 28.515625 63.921875 
L 10.984375 60.40625 
L 10.984375 69.390625 
L 28.421875 72.90625 
L 38.28125 72.90625 
L 38.28125 8.296875 
L 54.390625 8.296875 
L 54.390625 0 
L 12.40625 0 
z
" id="DejaVuSans-49"/>
      </defs>
      <g transform="translate(386.087252 322.182437)scale(0.1 -0.1)">
       <use xlink:href="#DejaVuSans-49"/>
       <use x="63.623047" xlink:href="#DejaVuSans-48"/>
       <use x="127.246094" xlink:href="#DejaVuSans-48"/>
       <use x="190.869141" xlink:href="#DejaVuSans-48"/>
      </g>
     </g>
    </g>
    <g id="text_7">
     <!-- Epoch -->
     <defs>
      <path d="M 9.8125 72.90625 
L 55.90625 72.90625 
L 55.90625 64.59375 
L 19.671875 64.59375 
L 19.671875 43.015625 
L 54.390625 43.015625 
L 54.390625 34.71875 
L 19.671875 34.71875 
L 19.671875 8.296875 
L 56.78125 8.296875 
L 56.78125 0 
L 9.8125 0 
z
" id="DejaVuSans-69"/>
      <path d="M 18.109375 8.203125 
L 18.109375 -20.796875 
L 9.078125 -20.796875 
L 9.078125 54.6875 
L 18.109375 54.6875 
L 18.109375 46.390625 
Q 20.953125 51.265625 25.265625 53.625 
Q 29.59375 56 35.59375 56 
Q 45.5625 56 51.78125 48.09375 
Q 58.015625 40.1875 58.015625 27.296875 
Q 58.015625 14.40625 51.78125 6.484375 
Q 45.5625 -1.421875 35.59375 -1.421875 
Q 29.59375 -1.421875 25.265625 0.953125 
Q 20.953125 3.328125 18.109375 8.203125 
z
M 48.6875 27.296875 
Q 48.6875 37.203125 44.609375 42.84375 
Q 40.53125 48.484375 33.40625 48.484375 
Q 26.265625 48.484375 22.1875 42.84375 
Q 18.109375 37.203125 18.109375 27.296875 
Q 18.109375 17.390625 22.1875 11.75 
Q 26.265625 6.109375 33.40625 6.109375 
Q 40.53125 6.109375 44.609375 11.75 
Q 48.6875 17.390625 48.6875 27.296875 
z
" id="DejaVuSans-112"/>
      <path d="M 30.609375 48.390625 
Q 23.390625 48.390625 19.1875 42.75 
Q 14.984375 37.109375 14.984375 27.296875 
Q 14.984375 17.484375 19.15625 11.84375 
Q 23.34375 6.203125 30.609375 6.203125 
Q 37.796875 6.203125 41.984375 11.859375 
Q 46.1875 17.53125 46.1875 27.296875 
Q 46.1875 37.015625 41.984375 42.703125 
Q 37.796875 48.390625 30.609375 48.390625 
z
M 30.609375 56 
Q 42.328125 56 49.015625 48.375 
Q 55.71875 40.765625 55.71875 27.296875 
Q 55.71875 13.875 49.015625 6.21875 
Q 42.328125 -1.421875 30.609375 -1.421875 
Q 18.84375 -1.421875 12.171875 6.21875 
Q 5.515625 13.875 5.515625 27.296875 
Q 5.515625 40.765625 12.171875 48.375 
Q 18.84375 56 30.609375 56 
z
" id="DejaVuSans-111"/>
      <path d="M 48.78125 52.59375 
L 48.78125 44.1875 
Q 44.96875 46.296875 41.140625 47.34375 
Q 37.3125 48.390625 33.40625 48.390625 
Q 24.65625 48.390625 19.8125 42.84375 
Q 14.984375 37.3125 14.984375 27.296875 
Q 14.984375 17.28125 19.8125 11.734375 
Q 24.65625 6.203125 33.40625 6.203125 
Q 37.3125 6.203125 41.140625 7.25 
Q 44.96875 8.296875 48.78125 10.40625 
L 48.78125 2.09375 
Q 45.015625 0.34375 40.984375 -0.53125 
Q 36.96875 -1.421875 32.421875 -1.421875 
Q 20.0625 -1.421875 12.78125 6.34375 
Q 5.515625 14.109375 5.515625 27.296875 
Q 5.515625 40.671875 12.859375 48.328125 
Q 20.21875 56 33.015625 56 
Q 37.15625 56 41.109375 55.140625 
Q 45.0625 54.296875 48.78125 52.59375 
z
" id="DejaVuSans-99"/>
      <path d="M 54.890625 33.015625 
L 54.890625 0 
L 45.90625 0 
L 45.90625 32.71875 
Q 45.90625 40.484375 42.875 44.328125 
Q 39.84375 48.1875 33.796875 48.1875 
Q 26.515625 48.1875 22.3125 43.546875 
Q 18.109375 38.921875 18.109375 30.90625 
L 18.109375 0 
L 9.078125 0 
L 9.078125 75.984375 
L 18.109375 75.984375 
L 18.109375 46.1875 
Q 21.34375 51.125 25.703125 53.5625 
Q 30.078125 56 35.796875 56 
Q 45.21875 56 50.046875 50.171875 
Q 54.890625 44.34375 54.890625 33.015625 
z
" id="DejaVuSans-104"/>
     </defs>
     <g transform="translate(220.849063 335.860562)scale(0.1 -0.1)">
      <use xlink:href="#DejaVuSans-69"/>
      <use x="63.183594" xlink:href="#DejaVuSans-112"/>
      <use x="126.660156" xlink:href="#DejaVuSans-111"/>
      <use x="187.841797" xlink:href="#DejaVuSans-99"/>
      <use x="242.822266" xlink:href="#DejaVuSans-104"/>
     </g>
    </g>
   </g>
   <g id="matplotlib.axis_2">
    <g id="ytick_1">
     <g id="line2d_7">
      <defs>
       <path d="M 0 0 
L -3.5 0 
" id="mdd0e25ca01" style="stroke:#000000;stroke-width:0.8;"/>
      </defs>
      <g>
       <use style="stroke:#000000;stroke-width:0.8;" x="57.6" xlink:href="#mdd0e25ca01" y="295.818998"/>
      </g>
     </g>
     <g id="text_8">
      <!-- 0 -->
      <g transform="translate(44.2375 299.618217)scale(0.1 -0.1)">
       <use xlink:href="#DejaVuSans-48"/>
      </g>
     </g>
    </g>
    <g id="ytick_2">
     <g id="line2d_8">
      <g>
       <use style="stroke:#000000;stroke-width:0.8;" x="57.6" xlink:href="#mdd0e25ca01" y="256.440357"/>
      </g>
     </g>
     <g id="text_9">
      <!-- 2 -->
      <g transform="translate(44.2375 260.239575)scale(0.1 -0.1)">
       <use xlink:href="#DejaVuSans-50"/>
      </g>
     </g>
    </g>
    <g id="ytick_3">
     <g id="line2d_9">
      <g>
       <use style="stroke:#000000;stroke-width:0.8;" x="57.6" xlink:href="#mdd0e25ca01" y="217.061715"/>
      </g>
     </g>
     <g id="text_10">
      <!-- 4 -->
      <g transform="translate(44.2375 220.860934)scale(0.1 -0.1)">
       <use xlink:href="#DejaVuSans-52"/>
      </g>
     </g>
    </g>
    <g id="ytick_4">
     <g id="line2d_10">
      <g>
       <use style="stroke:#000000;stroke-width:0.8;" x="57.6" xlink:href="#mdd0e25ca01" y="177.683073"/>
      </g>
     </g>
     <g id="text_11">
      <!-- 6 -->
      <g transform="translate(44.2375 181.482292)scale(0.1 -0.1)">
       <use xlink:href="#DejaVuSans-54"/>
      </g>
     </g>
    </g>
    <g id="ytick_5">
     <g id="line2d_11">
      <g>
       <use style="stroke:#000000;stroke-width:0.8;" x="57.6" xlink:href="#mdd0e25ca01" y="138.304432"/>
      </g>
     </g>
     <g id="text_12">
      <!-- 8 -->
      <g transform="translate(44.2375 142.103651)scale(0.1 -0.1)">
       <use xlink:href="#DejaVuSans-56"/>
      </g>
     </g>
    </g>
    <g id="ytick_6">
     <g id="line2d_12">
      <g>
       <use style="stroke:#000000;stroke-width:0.8;" x="57.6" xlink:href="#mdd0e25ca01" y="98.92579"/>
      </g>
     </g>
     <g id="text_13">
      <!-- 10 -->
      <g transform="translate(37.875 102.725009)scale(0.1 -0.1)">
       <use xlink:href="#DejaVuSans-49"/>
       <use x="63.623047" xlink:href="#DejaVuSans-48"/>
      </g>
     </g>
    </g>
    <g id="ytick_7">
     <g id="line2d_13">
      <g>
       <use style="stroke:#000000;stroke-width:0.8;" x="57.6" xlink:href="#mdd0e25ca01" y="59.547149"/>
      </g>
     </g>
     <g id="text_14">
      <!-- 12 -->
      <g transform="translate(37.875 63.346367)scale(0.1 -0.1)">
       <use xlink:href="#DejaVuSans-49"/>
       <use x="63.623047" xlink:href="#DejaVuSans-50"/>
      </g>
     </g>
    </g>
    <g id="text_15">
     <!-- Loss -->
     <defs>
      <path d="M 9.8125 72.90625 
L 19.671875 72.90625 
L 19.671875 8.296875 
L 55.171875 8.296875 
L 55.171875 0 
L 9.8125 0 
z
" id="DejaVuSans-76"/>
      <path d="M 44.28125 53.078125 
L 44.28125 44.578125 
Q 40.484375 46.53125 36.375 47.5 
Q 32.28125 48.484375 27.875 48.484375 
Q 21.1875 48.484375 17.84375 46.4375 
Q 14.5 44.390625 14.5 40.28125 
Q 14.5 37.15625 16.890625 35.375 
Q 19.28125 33.59375 26.515625 31.984375 
L 29.59375 31.296875 
Q 39.15625 29.25 43.1875 25.515625 
Q 47.21875 21.78125 47.21875 15.09375 
Q 47.21875 7.46875 41.1875 3.015625 
Q 35.15625 -1.421875 24.609375 -1.421875 
Q 20.21875 -1.421875 15.453125 -0.5625 
Q 10.6875 0.296875 5.421875 2 
L 5.421875 11.28125 
Q 10.40625 8.6875 15.234375 7.390625 
Q 20.0625 6.109375 24.8125 6.109375 
Q 31.15625 6.109375 34.5625 8.28125 
Q 37.984375 10.453125 37.984375 14.40625 
Q 37.984375 18.0625 35.515625 20.015625 
Q 33.0625 21.96875 24.703125 23.78125 
L 21.578125 24.515625 
Q 13.234375 26.265625 9.515625 29.90625 
Q 5.8125 33.546875 5.8125 39.890625 
Q 5.8125 47.609375 11.28125 51.796875 
Q 16.75 56 26.8125 56 
Q 31.78125 56 36.171875 55.265625 
Q 40.578125 54.546875 44.28125 53.078125 
z
" id="DejaVuSans-115"/>
     </defs>
     <g transform="translate(31.795313 185.581906)rotate(-90)scale(0.1 -0.1)">
      <use xlink:href="#DejaVuSans-76"/>
      <use x="55.697266" xlink:href="#DejaVuSans-111"/>
      <use x="116.878906" xlink:href="#DejaVuSans-115"/>
      <use x="168.978516" xlink:href="#DejaVuSans-115"/>
     </g>
    </g>
   </g>
   <g id="line2d_14">
    <path clip-path="url(#p3f7f04b40a)" d="M 73.832727 53.568 
L 74.157707 84.251127 
L 74.482686 139.078315 
L 75.132645 198.39531 
L 75.457625 206.128972 
L 75.782604 224.081702 
L 76.107584 258.973476 
L 76.432563 265.403568 
L 76.757543 256.596644 
L 77.082523 276.459937 
L 77.407502 273.728156 
L 77.732482 276.199368 
L 78.057461 271.116118 
L 78.382441 276.828923 
L 78.70742 278.511276 
L 79.0324 275.327184 
L 79.357379 277.567645 
L 79.682359 283.556705 
L 80.007338 280.568145 
L 80.332318 286.354033 
L 80.657297 283.750919 
L 80.982277 282.502174 
L 81.307256 285.352728 
L 81.632236 284.65813 
L 81.957215 286.049024 
L 82.932154 287.908999 
L 83.257133 288.374244 
L 83.582113 288.042302 
L 83.907093 288.101859 
L 84.232072 289.390231 
L 84.557052 288.558144 
L 84.882031 289.533813 
L 85.207011 288.650746 
L 85.53199 290.295718 
L 85.85697 288.44755 
L 86.506929 290.149395 
L 86.831908 288.64937 
L 87.156888 291.068636 
L 87.481867 290.119889 
L 87.806847 291.204843 
L 88.131826 289.959757 
L 88.456806 290.949907 
L 88.781785 290.745797 
L 89.106765 291.231964 
L 89.431744 290.811161 
L 89.756724 291.31698 
L 90.406683 291.755164 
L 90.731663 291.024844 
L 91.056642 289.440947 
L 91.381622 292.133611 
L 91.706601 290.813966 
L 92.031581 292.368819 
L 92.35656 290.259146 
L 92.68154 290.985607 
L 93.006519 291.123498 
L 93.331499 290.874346 
L 93.656478 291.181447 
L 93.981458 290.457941 
L 94.306437 291.685331 
L 94.631417 290.094341 
L 94.956396 292.634013 
L 95.281376 291.561463 
L 95.606355 291.932993 
L 95.931335 291.356004 
L 96.581294 292.7293 
L 96.906274 291.64642 
L 97.231253 292.064886 
L 97.556233 290.307725 
L 97.881212 290.44748 
L 98.206192 292.455778 
L 98.531171 291.34803 
L 98.856151 292.047505 
L 99.18113 293.269124 
L 99.50611 291.712457 
L 99.831089 292.730167 
L 100.156069 291.219606 
L 100.481048 292.031097 
L 100.806028 291.999373 
L 101.131007 292.322121 
L 101.455987 291.684212 
L 102.430925 292.70911 
L 102.755905 292.365538 
L 103.080885 292.239072 
L 103.405864 292.867853 
L 104.055823 293.207214 
L 104.380803 292.411009 
L 104.705782 293.300382 
L 105.030762 292.670416 
L 105.355741 293.271533 
L 105.680721 292.683285 
L 106.0057 293.590558 
L 106.33068 293.284578 
L 106.655659 293.487668 
L 106.980639 293.381417 
L 107.630598 292.707248 
L 107.955577 292.830958 
L 108.280557 293.387597 
L 108.605536 292.772479 
L 108.930516 292.852411 
L 109.255495 293.398778 
L 109.580475 293.672214 
L 109.905455 293.016363 
L 110.230434 292.889982 
L 110.555414 293.413994 
L 110.880393 293.112806 
L 111.205373 293.192293 
L 111.530352 293.397823 
L 111.855332 293.256204 
L 112.180311 293.722191 
L 112.505291 293.637747 
L 112.83027 293.743359 
L 113.15525 293.248024 
L 113.480229 292.9953 
L 113.805209 293.333196 
L 114.455168 293.567193 
L 115.430106 293.634362 
L 116.730025 291.601946 
L 117.055004 290.496709 
L 117.704963 293.831059 
L 118.029943 292.939072 
L 118.354922 293.579872 
L 118.679902 292.980076 
L 119.004881 293.046447 
L 119.329861 293.352687 
L 119.65484 293.992528 
L 119.97982 293.901953 
L 120.304799 293.388034 
L 120.629779 293.225586 
L 120.954758 294.00769 
L 121.279738 293.990884 
L 121.929697 293.317872 
L 122.904636 293.577801 
L 123.229615 293.196708 
L 123.554595 293.397194 
L 123.879574 293.794706 
L 124.204554 293.705781 
L 124.529533 293.853939 
L 124.854513 293.612239 
L 125.179492 294.010147 
L 125.504472 293.85668 
L 125.829451 293.323751 
L 126.154431 293.087563 
L 126.47941 293.205822 
L 126.80439 293.480427 
L 127.129369 294.275625 
L 127.779328 293.679176 
L 128.104308 294.019486 
L 128.429287 293.823659 
L 129.079247 294.083127 
L 129.404226 293.958021 
L 129.729206 294.110917 
L 130.054185 294.087234 
L 130.379165 293.894452 
L 131.354103 293.959043 
L 131.679083 293.778047 
L 132.004062 293.951327 
L 132.329042 293.890938 
L 132.654021 294.357308 
L 132.979001 293.941328 
L 133.30398 294.480162 
L 133.953939 293.832348 
L 134.278919 293.847239 
L 134.603898 293.514051 
L 134.928878 293.365695 
L 135.578837 294.303495 
L 135.903817 293.551087 
L 136.228796 293.139282 
L 136.553776 293.853712 
L 136.878755 294.091009 
L 137.528714 292.711789 
L 138.178673 294.284028 
L 138.828632 292.551504 
L 139.153612 292.323139 
L 139.478591 292.950138 
L 139.803571 294.04253 
L 140.12855 294.344169 
L 140.45353 293.836056 
L 140.778509 294.526138 
L 141.103489 294.452016 
L 141.428468 294.131424 
L 141.753448 294.65789 
L 142.078428 293.616053 
L 142.403407 293.548936 
L 142.728387 294.311055 
L 143.053366 293.840213 
L 143.378346 293.6593 
L 143.703325 294.521087 
L 144.028305 293.464018 
L 144.678264 294.270817 
L 145.003243 293.798581 
L 145.328223 293.854857 
L 145.653202 294.315441 
L 145.978182 293.647439 
L 146.628141 294.373228 
L 146.95312 293.973742 
L 147.2781 294.505077 
L 147.928059 294.233598 
L 148.253038 294.546354 
L 148.578018 294.299076 
L 148.902998 294.322487 
L 149.227977 294.178875 
L 149.552957 294.453187 
L 150.202916 294.246198 
L 150.527895 294.560167 
L 150.852875 293.91678 
L 151.502834 294.423446 
L 151.827813 294.009156 
L 152.152793 294.457387 
L 152.477772 294.446989 
L 152.802752 293.991299 
L 153.127731 294.383264 
L 153.452711 294.392613 
L 153.77769 294.110085 
L 154.10267 294.437265 
L 154.427649 294.507859 
L 154.752629 294.425073 
L 155.402588 294.623016 
L 155.727568 294.478307 
L 156.377527 294.79661 
L 156.702506 294.339076 
L 157.027486 294.756088 
L 157.677445 294.575929 
L 158.002424 294.410116 
L 158.327404 293.919183 
L 158.977363 294.742943 
L 159.302342 294.068695 
L 159.952301 294.493419 
L 160.277281 293.65054 
L 160.60226 294.212271 
L 160.92724 294.284449 
L 161.252219 292.528275 
L 161.577199 293.095903 
L 161.902179 294.591188 
L 162.227158 292.796664 
L 162.552138 291.821614 
L 162.877117 293.927699 
L 163.202097 293.631516 
L 163.527076 291.843644 
L 163.852056 293.893275 
L 164.177035 293.582259 
L 164.502015 292.152371 
L 164.826994 294.672127 
L 165.151974 293.172946 
L 165.476953 294.468105 
L 165.801933 293.636491 
L 166.126912 293.453397 
L 166.451892 294.405052 
L 166.776871 294.247072 
L 167.101851 294.792414 
L 167.42683 293.943875 
L 167.75181 294.178057 
L 168.07679 294.598207 
L 168.401769 294.367523 
L 168.726749 294.777046 
L 169.051728 294.659717 
L 170.026667 294.726676 
L 170.351646 294.845451 
L 171.001605 294.681968 
L 172.301523 294.738104 
L 172.626503 294.964383 
L 172.951482 294.931156 
L 173.276462 294.660509 
L 173.601441 294.722835 
L 173.926421 294.641326 
L 174.2514 294.804656 
L 174.57638 294.650544 
L 175.226339 294.894556 
L 175.551319 294.592241 
L 175.876298 294.827445 
L 176.201278 294.627895 
L 176.851237 294.812885 
L 177.176216 294.860157 
L 177.501196 294.683554 
L 178.476134 294.918657 
L 178.801114 294.665626 
L 179.126093 294.600361 
L 179.776052 294.860648 
L 180.101032 294.665455 
L 180.426011 294.626565 
L 181.40095 294.813139 
L 182.700868 294.734082 
L 183.350827 294.916168 
L 184.000786 294.489917 
L 184.325766 294.536019 
L 184.650745 294.756455 
L 184.975725 294.817997 
L 185.625684 294.616506 
L 185.950663 294.662821 
L 186.275643 294.906125 
L 186.600622 294.94505 
L 186.925602 294.785838 
L 187.900541 294.868642 
L 188.5505 294.64052 
L 188.875479 294.891191 
L 189.525438 294.879253 
L 189.850418 294.990238 
L 190.175397 294.849948 
L 191.150336 294.87507 
L 191.475315 294.711499 
L 192.125274 294.969258 
L 192.450254 294.727395 
L 192.775233 294.726702 
L 193.100213 295.033812 
L 193.425192 294.778759 
L 194.075152 294.644529 
L 194.400131 295.035415 
L 195.37507 295.059496 
L 195.700049 294.879037 
L 196.674988 294.950242 
L 196.999967 294.778179 
L 198.299885 294.900068 
L 198.624865 294.62373 
L 198.949844 294.805803 
L 199.274824 294.683168 
L 200.249762 294.82733 
L 200.899722 294.939597 
L 201.549681 294.143239 
L 201.87466 293.570367 
L 202.19964 294.423444 
L 202.524619 294.937037 
L 202.849599 294.656868 
L 203.174578 294.978894 
L 203.499558 294.848629 
L 204.149517 294.830404 
L 204.474496 294.214837 
L 204.799476 293.94292 
L 205.124455 294.787292 
L 205.449435 294.718785 
L 205.774414 293.767323 
L 206.099394 294.551035 
L 206.424373 294.973712 
L 206.749353 293.322963 
L 207.074333 293.229029 
L 207.399312 294.772069 
L 207.724292 293.082993 
L 208.049271 289.683899 
L 208.374251 284.8409 
L 208.69923 292.842968 
L 209.02421 291.837443 
L 209.349189 288.862476 
L 209.674169 293.687637 
L 209.999148 286.514601 
L 210.324128 292.755664 
L 210.649107 287.70171 
L 211.299066 292.188717 
L 211.624046 291.657791 
L 211.949025 290.742897 
L 212.274005 291.55457 
L 212.598984 291.950057 
L 212.923964 291.695269 
L 213.248943 292.04551 
L 213.573923 293.430317 
L 213.898903 292.274147 
L 214.223882 294.121676 
L 214.548862 291.785704 
L 214.873841 294.489939 
L 215.198821 293.073642 
L 215.5238 294.023655 
L 215.84878 293.210581 
L 216.173759 294.101736 
L 216.498739 293.679788 
L 216.823718 294.065711 
L 217.148698 293.218051 
L 217.473677 294.363243 
L 217.798657 293.958165 
L 218.123636 294.810727 
L 218.448616 294.225037 
L 218.773595 294.376831 
L 219.098575 293.759721 
L 219.423554 294.627755 
L 219.748534 294.078991 
L 220.073514 294.519263 
L 220.398493 293.592043 
L 220.723473 294.694624 
L 221.698411 294.490643 
L 222.023391 294.519708 
L 222.34837 294.25479 
L 222.67335 294.751751 
L 222.998329 294.456322 
L 223.323309 294.792162 
L 223.648288 294.470648 
L 223.973268 294.919541 
L 224.298247 294.514403 
L 224.623227 294.724483 
L 224.948206 294.633726 
L 225.273186 294.988173 
L 225.598165 294.702354 
L 225.923145 294.68557 
L 226.248124 294.885167 
L 226.573104 294.810671 
L 226.898084 294.943144 
L 227.873022 294.81385 
L 228.198002 294.978164 
L 228.522981 294.538868 
L 228.847961 294.916709 
L 229.17294 294.675936 
L 229.49792 295.005688 
L 229.822899 294.760359 
L 230.472858 294.976176 
L 231.122817 294.915725 
L 231.447797 295.076726 
L 231.772776 294.983318 
L 233.722654 295.134931 
L 234.047633 295.007004 
L 234.697592 295.128275 
L 235.022572 294.710858 
L 235.347551 294.617796 
L 235.672531 295.041946 
L 235.99751 294.961057 
L 236.32249 295.063735 
L 236.647469 294.965596 
L 236.972449 294.699637 
L 237.297428 294.95444 
L 237.947387 295.00163 
L 238.597346 295.073869 
L 238.922326 295.066051 
L 239.247305 295.224167 
L 239.572285 294.922418 
L 239.897265 294.883895 
L 240.222244 295.008804 
L 240.547224 294.796918 
L 240.872203 295.176504 
L 241.197183 294.87872 
L 242.497101 294.936982 
L 242.82208 294.468295 
L 243.14706 295.006498 
L 243.472039 294.578223 
L 244.121998 294.975581 
L 244.446978 294.706376 
L 244.771957 295.079999 
L 245.096937 294.745075 
L 245.421916 295.07513 
L 245.746896 294.563086 
L 246.071876 295.007886 
L 246.721835 294.116849 
L 247.046814 295.080052 
L 247.371794 294.172184 
L 247.696773 295.02851 
L 248.021753 294.813918 
L 248.346732 294.990373 
L 248.996691 294.724594 
L 249.321671 295.013087 
L 249.64665 294.594314 
L 249.97163 295.038129 
L 250.296609 294.862433 
L 250.946568 294.927373 
L 251.271548 294.474603 
L 251.596527 295.212234 
L 251.921507 294.78372 
L 252.246486 295.190293 
L 252.571466 294.730106 
L 252.896446 295.134848 
L 253.221425 294.702986 
L 253.871384 294.946807 
L 254.196364 294.529259 
L 254.521343 295.055005 
L 254.846323 294.62104 
L 255.171302 295.107606 
L 255.496282 294.71087 
L 255.821261 294.890381 
L 256.146241 294.883187 
L 256.47122 294.452209 
L 256.7962 295.203188 
L 257.121179 294.609431 
L 257.446159 295.11797 
L 257.771138 294.789473 
L 258.096118 295.093738 
L 258.421097 294.925035 
L 258.746077 295.130667 
L 259.071057 294.976405 
L 259.396036 295.17299 
L 259.721016 294.89964 
L 260.370975 295.055375 
L 260.695954 294.889953 
L 261.345913 295.255407 
L 263.62077 295.139067 
L 264.595708 295.183111 
L 264.920688 295.093185 
L 265.245667 295.132014 
L 265.570647 294.987493 
L 265.895627 295.131031 
L 266.545586 294.866607 
L 266.870565 295.081869 
L 267.195545 295.05194 
L 267.520524 294.875669 
L 267.845504 295.072805 
L 268.820442 295.178142 
L 269.145422 294.910865 
L 269.470401 295.08594 
L 270.12036 295.026503 
L 270.44534 295.266938 
L 270.770319 295.052177 
L 271.095299 295.180715 
L 271.745258 295.080161 
L 272.070238 295.185725 
L 272.395217 295.044065 
L 273.370156 295.154647 
L 274.345094 295.17489 
L 275.320033 295.24092 
L 275.969992 295.235832 
L 277.919869 295.265427 
L 278.244848 295.338262 
L 278.569828 295.202712 
L 278.894808 295.29604 
L 279.869746 295.141174 
L 280.844685 295.251766 
L 281.169664 295.146084 
L 281.494644 295.312495 
L 282.469582 295.139056 
L 282.794562 295.357557 
L 283.7695 295.222008 
L 284.09448 295.179651 
L 284.744439 295.299665 
L 285.069419 295.179462 
L 285.719378 295.274394 
L 286.369337 295.177843 
L 286.694316 295.256889 
L 287.019296 295.196295 
L 287.344275 295.252045 
L 287.994234 295.175557 
L 288.644193 295.235476 
L 289.294152 295.29358 
L 289.619132 295.159792 
L 291.244029 295.207174 
L 296.118722 295.252114 
L 296.443702 295.174034 
L 297.093661 295.316427 
L 298.0686 295.355091 
L 298.393579 295.189884 
L 298.718559 295.306216 
L 299.043538 295.233318 
L 299.368518 295.360895 
L 302.618313 295.194454 
L 303.268272 295.286695 
L 305.543129 295.228188 
L 306.193088 295.36067 
L 306.518067 295.278881 
L 306.843047 295.314548 
L 307.493006 295.224663 
L 309.442883 295.291237 
L 310.092842 295.337582 
L 313.992596 295.234236 
L 314.317576 295.412897 
L 314.642555 295.277339 
L 318.21733 295.31492 
L 319.517248 295.344965 
L 320.167207 295.343377 
L 320.492187 295.392434 
L 321.792105 295.022872 
L 322.117084 294.766959 
L 322.442064 293.701714 
L 322.767043 291.094445 
L 323.092023 292.422519 
L 323.417002 294.674197 
L 324.066962 291.97938 
L 324.391941 295.017214 
L 324.716921 293.694799 
L 325.0419 293.224633 
L 325.36688 295.136619 
L 325.691859 294.007239 
L 326.016839 293.991484 
L 326.341818 295.025558 
L 326.991777 294.166396 
L 327.316757 294.9394 
L 327.966716 294.733422 
L 328.291695 295.165283 
L 328.616675 294.837089 
L 328.941654 295.014272 
L 329.266634 295.021737 
L 329.591613 295.205492 
L 329.916593 295.02563 
L 330.566552 295.227659 
L 330.891532 295.00071 
L 332.841409 295.26574 
L 333.491368 295.076919 
L 333.816347 295.20598 
L 334.141327 295.150173 
L 334.466306 294.972587 
L 334.791286 295.382319 
L 335.116265 295.055909 
L 335.441245 295.183912 
L 335.766224 295.015043 
L 336.091204 295.223101 
L 336.741163 294.934355 
L 337.066143 295.180162 
L 337.391122 294.914992 
L 337.716102 295.187169 
L 338.366061 295.012011 
L 338.69104 295.335798 
L 339.340999 295.086983 
L 339.665979 295.274501 
L 340.315938 294.999388 
L 340.640917 295.283881 
L 340.965897 295.311856 
L 341.290876 295.134542 
L 341.615856 295.366462 
L 343.240753 295.283357 
L 343.565733 295.333336 
L 343.890713 295.25927 
L 344.540672 295.323214 
L 345.190631 295.339376 
L 346.490549 295.323836 
L 348.440426 295.458932 
L 349.090385 295.240269 
L 350.715283 295.35478 
L 351.690221 295.394124 
L 352.66516 295.37154 
L 353.315119 295.266896 
L 354.290057 295.3558 
L 354.940016 295.356649 
L 355.264996 295.394308 
L 355.589975 295.269064 
L 360.139689 295.41142 
L 360.789648 295.379843 
L 361.439607 295.375472 
L 363.064505 295.326243 
L 363.714464 295.337135 
L 364.364423 295.373882 
L 365.014382 295.216851 
L 365.98932 295.337757 
L 367.614218 295.368086 
L 367.939197 295.269682 
L 368.914136 295.431179 
L 372.163931 295.165002 
L 372.488911 295.118419 
L 372.81389 295.359727 
L 374.113808 295.399994 
L 375.413726 295.236981 
L 375.738706 295.198682 
L 376.388665 295.381392 
L 377.363604 295.273466 
L 377.688583 295.394661 
L 378.013563 295.295954 
L 378.663522 294.828395 
L 378.988501 295.294354 
L 379.313481 294.827358 
L 379.63846 291.775626 
L 379.96344 286.67474 
L 380.288419 294.582907 
L 380.613399 292.015103 
L 380.938378 292.911144 
L 381.588337 288.409813 
L 381.913317 294.723619 
L 382.238296 291.643013 
L 382.563276 294.873204 
L 382.888256 293.401884 
L 383.213235 294.73204 
L 383.538215 294.179219 
L 383.863194 294.888627 
L 384.188174 293.58254 
L 384.513153 294.944633 
L 384.838133 294.329876 
L 385.163112 295.091711 
L 385.488092 294.250586 
L 385.813071 294.918259 
L 386.138051 293.270827 
L 386.46303 295.189074 
L 386.78801 294.39086 
L 387.112989 295.064527 
L 387.437969 294.969768 
L 387.762948 295.355221 
L 388.087928 295.020378 
L 388.412907 295.324383 
L 388.737887 294.772799 
L 389.062867 295.202677 
L 389.387846 294.699726 
L 389.712826 294.596725 
L 390.037805 294.780891 
L 390.362785 294.40483 
L 390.687764 295.075739 
L 391.012744 294.291357 
L 391.337723 295.328659 
L 391.662703 294.683731 
L 391.987682 295.249733 
L 392.312662 294.788897 
L 392.962621 295.237647 
L 393.2876 295.109931 
L 393.61258 295.350161 
L 393.937559 295.277704 
L 394.912498 295.423946 
L 395.237477 295.273775 
L 395.562457 295.488 
L 395.887437 295.253368 
L 396.212416 295.240165 
L 396.862375 295.347305 
L 397.837314 295.353721 
L 398.162293 295.270223 
L 398.487273 295.425297 
L 398.487273 295.425297 
" style="fill:none;stroke:#1f77b4;stroke-linecap:square;stroke-width:1.5;"/>
   </g>
   <g id="patch_3">
    <path d="M 57.6 307.584 
L 57.6 41.472 
" style="fill:none;stroke:#000000;stroke-linecap:square;stroke-linejoin:miter;stroke-width:0.8;"/>
   </g>
   <g id="patch_4">
    <path d="M 414.72 307.584 
L 414.72 41.472 
" style="fill:none;stroke:#000000;stroke-linecap:square;stroke-linejoin:miter;stroke-width:0.8;"/>
   </g>
   <g id="patch_5">
    <path d="M 57.6 307.584 
L 414.72 307.584 
" style="fill:none;stroke:#000000;stroke-linecap:square;stroke-linejoin:miter;stroke-width:0.8;"/>
   </g>
   <g id="patch_6">
    <path d="M 57.6 41.472 
L 414.72 41.472 
" style="fill:none;stroke:#000000;stroke-linecap:square;stroke-linejoin:miter;stroke-width:0.8;"/>
   </g>
   <g id="text_16">
    <!-- Training Loss -->
    <defs>
     <path d="M -0.296875 72.90625 
L 61.375 72.90625 
L 61.375 64.59375 
L 35.5 64.59375 
L 35.5 0 
L 25.59375 0 
L 25.59375 64.59375 
L -0.296875 64.59375 
z
" id="DejaVuSans-84"/>
     <path d="M 41.109375 46.296875 
Q 39.59375 47.171875 37.8125 47.578125 
Q 36.03125 48 33.890625 48 
Q 26.265625 48 22.1875 43.046875 
Q 18.109375 38.09375 18.109375 28.8125 
L 18.109375 0 
L 9.078125 0 
L 9.078125 54.6875 
L 18.109375 54.6875 
L 18.109375 46.1875 
Q 20.953125 51.171875 25.484375 53.578125 
Q 30.03125 56 36.53125 56 
Q 37.453125 56 38.578125 55.875 
Q 39.703125 55.765625 41.0625 55.515625 
z
" id="DejaVuSans-114"/>
     <path d="M 34.28125 27.484375 
Q 23.390625 27.484375 19.1875 25 
Q 14.984375 22.515625 14.984375 16.5 
Q 14.984375 11.71875 18.140625 8.90625 
Q 21.296875 6.109375 26.703125 6.109375 
Q 34.1875 6.109375 38.703125 11.40625 
Q 43.21875 16.703125 43.21875 25.484375 
L 43.21875 27.484375 
z
M 52.203125 31.203125 
L 52.203125 0 
L 43.21875 0 
L 43.21875 8.296875 
Q 40.140625 3.328125 35.546875 0.953125 
Q 30.953125 -1.421875 24.3125 -1.421875 
Q 15.921875 -1.421875 10.953125 3.296875 
Q 6 8.015625 6 15.921875 
Q 6 25.140625 12.171875 29.828125 
Q 18.359375 34.515625 30.609375 34.515625 
L 43.21875 34.515625 
L 43.21875 35.40625 
Q 43.21875 41.609375 39.140625 45 
Q 35.0625 48.390625 27.6875 48.390625 
Q 23 48.390625 18.546875 47.265625 
Q 14.109375 46.140625 10.015625 43.890625 
L 10.015625 52.203125 
Q 14.9375 54.109375 19.578125 55.046875 
Q 24.21875 56 28.609375 56 
Q 40.484375 56 46.34375 49.84375 
Q 52.203125 43.703125 52.203125 31.203125 
z
" id="DejaVuSans-97"/>
     <path d="M 9.421875 54.6875 
L 18.40625 54.6875 
L 18.40625 0 
L 9.421875 0 
z
M 9.421875 75.984375 
L 18.40625 75.984375 
L 18.40625 64.59375 
L 9.421875 64.59375 
z
" id="DejaVuSans-105"/>
     <path d="M 54.890625 33.015625 
L 54.890625 0 
L 45.90625 0 
L 45.90625 32.71875 
Q 45.90625 40.484375 42.875 44.328125 
Q 39.84375 48.1875 33.796875 48.1875 
Q 26.515625 48.1875 22.3125 43.546875 
Q 18.109375 38.921875 18.109375 30.90625 
L 18.109375 0 
L 9.078125 0 
L 9.078125 54.6875 
L 18.109375 54.6875 
L 18.109375 46.1875 
Q 21.34375 51.125 25.703125 53.5625 
Q 30.078125 56 35.796875 56 
Q 45.21875 56 50.046875 50.171875 
Q 54.890625 44.34375 54.890625 33.015625 
z
" id="DejaVuSans-110"/>
     <path d="M 45.40625 27.984375 
Q 45.40625 37.75 41.375 43.109375 
Q 37.359375 48.484375 30.078125 48.484375 
Q 22.859375 48.484375 18.828125 43.109375 
Q 14.796875 37.75 14.796875 27.984375 
Q 14.796875 18.265625 18.828125 12.890625 
Q 22.859375 7.515625 30.078125 7.515625 
Q 37.359375 7.515625 41.375 12.890625 
Q 45.40625 18.265625 45.40625 27.984375 
z
M 54.390625 6.78125 
Q 54.390625 -7.171875 48.1875 -13.984375 
Q 42 -20.796875 29.203125 -20.796875 
Q 24.46875 -20.796875 20.265625 -20.09375 
Q 16.0625 -19.390625 12.109375 -17.921875 
L 12.109375 -9.1875 
Q 16.0625 -11.328125 19.921875 -12.34375 
Q 23.78125 -13.375 27.78125 -13.375 
Q 36.625 -13.375 41.015625 -8.765625 
Q 45.40625 -4.15625 45.40625 5.171875 
L 45.40625 9.625 
Q 42.625 4.78125 38.28125 2.390625 
Q 33.9375 0 27.875 0 
Q 17.828125 0 11.671875 7.65625 
Q 5.515625 15.328125 5.515625 27.984375 
Q 5.515625 40.671875 11.671875 48.328125 
Q 17.828125 56 27.875 56 
Q 33.9375 56 38.28125 53.609375 
Q 42.625 51.21875 45.40625 46.390625 
L 45.40625 54.6875 
L 54.390625 54.6875 
z
" id="DejaVuSans-103"/>
     <path id="DejaVuSans-32"/>
    </defs>
    <g transform="translate(196.445625 35.472)scale(0.12 -0.12)">
     <use xlink:href="#DejaVuSans-84"/>
     <use x="60.865234" xlink:href="#DejaVuSans-114"/>
     <use x="101.978516" xlink:href="#DejaVuSans-97"/>
     <use x="163.257812" xlink:href="#DejaVuSans-105"/>
     <use x="191.041016" xlink:href="#DejaVuSans-110"/>
     <use x="254.419922" xlink:href="#DejaVuSans-105"/>
     <use x="282.203125" xlink:href="#DejaVuSans-110"/>
     <use x="345.582031" xlink:href="#DejaVuSans-103"/>
     <use x="409.058594" xlink:href="#DejaVuSans-32"/>
     <use x="440.845703" xlink:href="#DejaVuSans-76"/>
     <use x="496.542969" xlink:href="#DejaVuSans-111"/>
     <use x="557.724609" xlink:href="#DejaVuSans-115"/>
     <use x="609.824219" xlink:href="#DejaVuSans-115"/>
    </g>
   </g>
  </g>
 </g>
 <defs>
  <clipPath id="p3f7f04b40a">
   <rect height="266.112" width="357.12" x="57.6" y="41.472"/>
  </clipPath>
 </defs>
</svg>
