<?xml version="1.0" encoding="utf-8" standalone="no"?>
<!DOCTYPE svg PUBLIC "-//W3C//DTD SVG 1.1//EN"
  "http://www.w3.org/Graphics/SVG/1.1/DTD/svg11.dtd">
<!-- Created with matplotlib (https://matplotlib.org/) -->
<svg height="345.6pt" version="1.1" viewBox="0 0 460.8 345.6" width="460.8pt" xmlns="http://www.w3.org/2000/svg" xmlns:xlink="http://www.w3.org/1999/xlink">
 <defs>
  <style type="text/css">
*{stroke-linecap:butt;stroke-linejoin:round;}
  </style>
 </defs>
 <g id="figure_1">
  <g id="patch_1">
   <path d="M 0 345.6 
L 460.8 345.6 
L 460.8 0 
L 0 0 
z
" style="fill:#ffffff;"/>
  </g>
  <g id="axes_1">
   <g id="patch_2">
    <path d="M 57.6 307.584 
L 414.72 307.584 
L 414.72 41.472 
L 57.6 41.472 
z
" style="fill:#ffffff;"/>
   </g>
   <g id="matplotlib.axis_1">
    <g id="xtick_1">
     <g id="line2d_1">
      <defs>
       <path d="M 0 0 
L 0 3.5 
" id="mc6e97273b6" style="stroke:#000000;stroke-width:0.8;"/>
      </defs>
      <g>
       <use style="stroke:#000000;stroke-width:0.8;" x="73.832727" xlink:href="#mc6e97273b6" y="307.584"/>
      </g>
     </g>
     <g id="text_1">
      <!-- 0 -->
      <defs>
       <path d="M 31.78125 66.40625 
Q 24.171875 66.40625 20.328125 58.90625 
Q 16.5 51.421875 16.5 36.375 
Q 16.5 21.390625 20.328125 13.890625 
Q 24.171875 6.390625 31.78125 6.390625 
Q 39.453125 6.390625 43.28125 13.890625 
Q 47.125 21.390625 47.125 36.375 
Q 47.125 51.421875 43.28125 58.90625 
Q 39.453125 66.40625 31.78125 66.40625 
z
M 31.78125 74.21875 
Q 44.046875 74.21875 50.515625 64.515625 
Q 56.984375 54.828125 56.984375 36.375 
Q 56.984375 17.96875 50.515625 8.265625 
Q 44.046875 -1.421875 31.78125 -1.421875 
Q 19.53125 -1.421875 13.0625 8.265625 
Q 6.59375 17.96875 6.59375 36.375 
Q 6.59375 54.828125 13.0625 64.515625 
Q 19.53125 74.21875 31.78125 74.21875 
z
" id="DejaVuSans-48"/>
      </defs>
      <g transform="translate(70.651477 322.182437)scale(0.1 -0.1)">
       <use xlink:href="#DejaVuSans-48"/>
      </g>
     </g>
    </g>
    <g id="xtick_2">
     <g id="line2d_2">
      <g>
       <use style="stroke:#000000;stroke-width:0.8;" x="138.828632" xlink:href="#mc6e97273b6" y="307.584"/>
      </g>
     </g>
     <g id="text_2">
      <!-- 200 -->
      <defs>
       <path d="M 19.1875 8.296875 
L 53.609375 8.296875 
L 53.609375 0 
L 7.328125 0 
L 7.328125 8.296875 
Q 12.9375 14.109375 22.625 23.890625 
Q 32.328125 33.6875 34.8125 36.53125 
Q 39.546875 41.84375 41.421875 45.53125 
Q 43.3125 49.21875 43.3125 52.78125 
Q 43.3125 58.59375 39.234375 62.25 
Q 35.15625 65.921875 28.609375 65.921875 
Q 23.96875 65.921875 18.8125 64.3125 
Q 13.671875 62.703125 7.8125 59.421875 
L 7.8125 69.390625 
Q 13.765625 71.78125 18.9375 73 
Q 24.125 74.21875 28.421875 74.21875 
Q 39.75 74.21875 46.484375 68.546875 
Q 53.21875 62.890625 53.21875 53.421875 
Q 53.21875 48.921875 51.53125 44.890625 
Q 49.859375 40.875 45.40625 35.40625 
Q 44.1875 33.984375 37.640625 27.21875 
Q 31.109375 20.453125 19.1875 8.296875 
z
" id="DejaVuSans-50"/>
      </defs>
      <g transform="translate(129.284882 322.182437)scale(0.1 -0.1)">
       <use xlink:href="#DejaVuSans-50"/>
       <use x="63.623047" xlink:href="#DejaVuSans-48"/>
       <use x="127.246094" xlink:href="#DejaVuSans-48"/>
      </g>
     </g>
    </g>
    <g id="xtick_3">
     <g id="line2d_3">
      <g>
       <use style="stroke:#000000;stroke-width:0.8;" x="203.824537" xlink:href="#mc6e97273b6" y="307.584"/>
      </g>
     </g>
     <g id="text_3">
      <!-- 400 -->
      <defs>
       <path d="M 37.796875 64.3125 
L 12.890625 25.390625 
L 37.796875 25.390625 
z
M 35.203125 72.90625 
L 47.609375 72.90625 
L 47.609375 25.390625 
L 58.015625 25.390625 
L 58.015625 17.1875 
L 47.609375 17.1875 
L 47.609375 0 
L 37.796875 0 
L 37.796875 17.1875 
L 4.890625 17.1875 
L 4.890625 26.703125 
z
" id="DejaVuSans-52"/>
      </defs>
      <g transform="translate(194.280787 322.182437)scale(0.1 -0.1)">
       <use xlink:href="#DejaVuSans-52"/>
       <use x="63.623047" xlink:href="#DejaVuSans-48"/>
       <use x="127.246094" xlink:href="#DejaVuSans-48"/>
      </g>
     </g>
    </g>
    <g id="xtick_4">
     <g id="line2d_4">
      <g>
       <use style="stroke:#000000;stroke-width:0.8;" x="268.820442" xlink:href="#mc6e97273b6" y="307.584"/>
      </g>
     </g>
     <g id="text_4">
      <!-- 600 -->
      <defs>
       <path d="M 33.015625 40.375 
Q 26.375 40.375 22.484375 35.828125 
Q 18.609375 31.296875 18.609375 23.390625 
Q 18.609375 15.53125 22.484375 10.953125 
Q 26.375 6.390625 33.015625 6.390625 
Q 39.65625 6.390625 43.53125 10.953125 
Q 47.40625 15.53125 47.40625 23.390625 
Q 47.40625 31.296875 43.53125 35.828125 
Q 39.65625 40.375 33.015625 40.375 
z
M 52.59375 71.296875 
L 52.59375 62.3125 
Q 48.875 64.0625 45.09375 64.984375 
Q 41.3125 65.921875 37.59375 65.921875 
Q 27.828125 65.921875 22.671875 59.328125 
Q 17.53125 52.734375 16.796875 39.40625 
Q 19.671875 43.65625 24.015625 45.921875 
Q 28.375 48.1875 33.59375 48.1875 
Q 44.578125 48.1875 50.953125 41.515625 
Q 57.328125 34.859375 57.328125 23.390625 
Q 57.328125 12.15625 50.6875 5.359375 
Q 44.046875 -1.421875 33.015625 -1.421875 
Q 20.359375 -1.421875 13.671875 8.265625 
Q 6.984375 17.96875 6.984375 36.375 
Q 6.984375 53.65625 15.1875 63.9375 
Q 23.390625 74.21875 37.203125 74.21875 
Q 40.921875 74.21875 44.703125 73.484375 
Q 48.484375 72.75 52.59375 71.296875 
z
" id="DejaVuSans-54"/>
      </defs>
      <g transform="translate(259.276692 322.182437)scale(0.1 -0.1)">
       <use xlink:href="#DejaVuSans-54"/>
       <use x="63.623047" xlink:href="#DejaVuSans-48"/>
       <use x="127.246094" xlink:href="#DejaVuSans-48"/>
      </g>
     </g>
    </g>
    <g id="xtick_5">
     <g id="line2d_5">
      <g>
       <use style="stroke:#000000;stroke-width:0.8;" x="333.816347" xlink:href="#mc6e97273b6" y="307.584"/>
      </g>
     </g>
     <g id="text_5">
      <!-- 800 -->
      <defs>
       <path d="M 31.78125 34.625 
Q 24.75 34.625 20.71875 30.859375 
Q 16.703125 27.09375 16.703125 20.515625 
Q 16.703125 13.921875 20.71875 10.15625 
Q 24.75 6.390625 31.78125 6.390625 
Q 38.8125 6.390625 42.859375 10.171875 
Q 46.921875 13.96875 46.921875 20.515625 
Q 46.921875 27.09375 42.890625 30.859375 
Q 38.875 34.625 31.78125 34.625 
z
M 21.921875 38.8125 
Q 15.578125 40.375 12.03125 44.71875 
Q 8.5 49.078125 8.5 55.328125 
Q 8.5 64.0625 14.71875 69.140625 
Q 20.953125 74.21875 31.78125 74.21875 
Q 42.671875 74.21875 48.875 69.140625 
Q 55.078125 64.0625 55.078125 55.328125 
Q 55.078125 49.078125 51.53125 44.71875 
Q 48 40.375 41.703125 38.8125 
Q 48.828125 37.15625 52.796875 32.3125 
Q 56.78125 27.484375 56.78125 20.515625 
Q 56.78125 9.90625 50.3125 4.234375 
Q 43.84375 -1.421875 31.78125 -1.421875 
Q 19.734375 -1.421875 13.25 4.234375 
Q 6.78125 9.90625 6.78125 20.515625 
Q 6.78125 27.484375 10.78125 32.3125 
Q 14.796875 37.15625 21.921875 38.8125 
z
M 18.3125 54.390625 
Q 18.3125 48.734375 21.84375 45.5625 
Q 25.390625 42.390625 31.78125 42.390625 
Q 38.140625 42.390625 41.71875 45.5625 
Q 45.3125 48.734375 45.3125 54.390625 
Q 45.3125 60.0625 41.71875 63.234375 
Q 38.140625 66.40625 31.78125 66.40625 
Q 25.390625 66.40625 21.84375 63.234375 
Q 18.3125 60.0625 18.3125 54.390625 
z
" id="DejaVuSans-56"/>
      </defs>
      <g transform="translate(324.272597 322.182437)scale(0.1 -0.1)">
       <use xlink:href="#DejaVuSans-56"/>
       <use x="63.623047" xlink:href="#DejaVuSans-48"/>
       <use x="127.246094" xlink:href="#DejaVuSans-48"/>
      </g>
     </g>
    </g>
    <g id="xtick_6">
     <g id="line2d_6">
      <g>
       <use style="stroke:#000000;stroke-width:0.8;" x="398.812252" xlink:href="#mc6e97273b6" y="307.584"/>
      </g>
     </g>
     <g id="text_6">
      <!-- 1000 -->
      <defs>
       <path d="M 12.40625 8.296875 
L 28.515625 8.296875 
L 28.515625 63.921875 
L 10.984375 60.40625 
L 10.984375 69.390625 
L 28.421875 72.90625 
L 38.28125 72.90625 
L 38.28125 8.296875 
L 54.390625 8.296875 
L 54.390625 0 
L 12.40625 0 
z
" id="DejaVuSans-49"/>
      </defs>
      <g transform="translate(386.087252 322.182437)scale(0.1 -0.1)">
       <use xlink:href="#DejaVuSans-49"/>
       <use x="63.623047" xlink:href="#DejaVuSans-48"/>
       <use x="127.246094" xlink:href="#DejaVuSans-48"/>
       <use x="190.869141" xlink:href="#DejaVuSans-48"/>
      </g>
     </g>
    </g>
    <g id="text_7">
     <!-- Epoch -->
     <defs>
      <path d="M 9.8125 72.90625 
L 55.90625 72.90625 
L 55.90625 64.59375 
L 19.671875 64.59375 
L 19.671875 43.015625 
L 54.390625 43.015625 
L 54.390625 34.71875 
L 19.671875 34.71875 
L 19.671875 8.296875 
L 56.78125 8.296875 
L 56.78125 0 
L 9.8125 0 
z
" id="DejaVuSans-69"/>
      <path d="M 18.109375 8.203125 
L 18.109375 -20.796875 
L 9.078125 -20.796875 
L 9.078125 54.6875 
L 18.109375 54.6875 
L 18.109375 46.390625 
Q 20.953125 51.265625 25.265625 53.625 
Q 29.59375 56 35.59375 56 
Q 45.5625 56 51.78125 48.09375 
Q 58.015625 40.1875 58.015625 27.296875 
Q 58.015625 14.40625 51.78125 6.484375 
Q 45.5625 -1.421875 35.59375 -1.421875 
Q 29.59375 -1.421875 25.265625 0.953125 
Q 20.953125 3.328125 18.109375 8.203125 
z
M 48.6875 27.296875 
Q 48.6875 37.203125 44.609375 42.84375 
Q 40.53125 48.484375 33.40625 48.484375 
Q 26.265625 48.484375 22.1875 42.84375 
Q 18.109375 37.203125 18.109375 27.296875 
Q 18.109375 17.390625 22.1875 11.75 
Q 26.265625 6.109375 33.40625 6.109375 
Q 40.53125 6.109375 44.609375 11.75 
Q 48.6875 17.390625 48.6875 27.296875 
z
" id="DejaVuSans-112"/>
      <path d="M 30.609375 48.390625 
Q 23.390625 48.390625 19.1875 42.75 
Q 14.984375 37.109375 14.984375 27.296875 
Q 14.984375 17.484375 19.15625 11.84375 
Q 23.34375 6.203125 30.609375 6.203125 
Q 37.796875 6.203125 41.984375 11.859375 
Q 46.1875 17.53125 46.1875 27.296875 
Q 46.1875 37.015625 41.984375 42.703125 
Q 37.796875 48.390625 30.609375 48.390625 
z
M 30.609375 56 
Q 42.328125 56 49.015625 48.375 
Q 55.71875 40.765625 55.71875 27.296875 
Q 55.71875 13.875 49.015625 6.21875 
Q 42.328125 -1.421875 30.609375 -1.421875 
Q 18.84375 -1.421875 12.171875 6.21875 
Q 5.515625 13.875 5.515625 27.296875 
Q 5.515625 40.765625 12.171875 48.375 
Q 18.84375 56 30.609375 56 
z
" id="DejaVuSans-111"/>
      <path d="M 48.78125 52.59375 
L 48.78125 44.1875 
Q 44.96875 46.296875 41.140625 47.34375 
Q 37.3125 48.390625 33.40625 48.390625 
Q 24.65625 48.390625 19.8125 42.84375 
Q 14.984375 37.3125 14.984375 27.296875 
Q 14.984375 17.28125 19.8125 11.734375 
Q 24.65625 6.203125 33.40625 6.203125 
Q 37.3125 6.203125 41.140625 7.25 
Q 44.96875 8.296875 48.78125 10.40625 
L 48.78125 2.09375 
Q 45.015625 0.34375 40.984375 -0.53125 
Q 36.96875 -1.421875 32.421875 -1.421875 
Q 20.0625 -1.421875 12.78125 6.34375 
Q 5.515625 14.109375 5.515625 27.296875 
Q 5.515625 40.671875 12.859375 48.328125 
Q 20.21875 56 33.015625 56 
Q 37.15625 56 41.109375 55.140625 
Q 45.0625 54.296875 48.78125 52.59375 
z
" id="DejaVuSans-99"/>
      <path d="M 54.890625 33.015625 
L 54.890625 0 
L 45.90625 0 
L 45.90625 32.71875 
Q 45.90625 40.484375 42.875 44.328125 
Q 39.84375 48.1875 33.796875 48.1875 
Q 26.515625 48.1875 22.3125 43.546875 
Q 18.109375 38.921875 18.109375 30.90625 
L 18.109375 0 
L 9.078125 0 
L 9.078125 75.984375 
L 18.109375 75.984375 
L 18.109375 46.1875 
Q 21.34375 51.125 25.703125 53.5625 
Q 30.078125 56 35.796875 56 
Q 45.21875 56 50.046875 50.171875 
Q 54.890625 44.34375 54.890625 33.015625 
z
" id="DejaVuSans-104"/>
     </defs>
     <g transform="translate(220.849063 335.860562)scale(0.1 -0.1)">
      <use xlink:href="#DejaVuSans-69"/>
      <use x="63.183594" xlink:href="#DejaVuSans-112"/>
      <use x="126.660156" xlink:href="#DejaVuSans-111"/>
      <use x="187.841797" xlink:href="#DejaVuSans-99"/>
      <use x="242.822266" xlink:href="#DejaVuSans-104"/>
     </g>
    </g>
   </g>
   <g id="matplotlib.axis_2">
    <g id="ytick_1">
     <g id="line2d_7">
      <defs>
       <path d="M 0 0 
L -3.5 0 
" id="m834eb8ed35" style="stroke:#000000;stroke-width:0.8;"/>
      </defs>
      <g>
       <use style="stroke:#000000;stroke-width:0.8;" x="57.6" xlink:href="#m834eb8ed35" y="298.870736"/>
      </g>
     </g>
     <g id="text_8">
      <!-- 0.0 -->
      <defs>
       <path d="M 10.6875 12.40625 
L 21 12.40625 
L 21 0 
L 10.6875 0 
z
" id="DejaVuSans-46"/>
      </defs>
      <g transform="translate(34.696875 302.669955)scale(0.1 -0.1)">
       <use xlink:href="#DejaVuSans-48"/>
       <use x="63.623047" xlink:href="#DejaVuSans-46"/>
       <use x="95.410156" xlink:href="#DejaVuSans-48"/>
      </g>
     </g>
    </g>
    <g id="ytick_2">
     <g id="line2d_8">
      <g>
       <use style="stroke:#000000;stroke-width:0.8;" x="57.6" xlink:href="#m834eb8ed35" y="260.430619"/>
      </g>
     </g>
     <g id="text_9">
      <!-- 0.2 -->
      <g transform="translate(34.696875 264.229837)scale(0.1 -0.1)">
       <use xlink:href="#DejaVuSans-48"/>
       <use x="63.623047" xlink:href="#DejaVuSans-46"/>
       <use x="95.410156" xlink:href="#DejaVuSans-50"/>
      </g>
     </g>
    </g>
    <g id="ytick_3">
     <g id="line2d_9">
      <g>
       <use style="stroke:#000000;stroke-width:0.8;" x="57.6" xlink:href="#m834eb8ed35" y="221.990501"/>
      </g>
     </g>
     <g id="text_10">
      <!-- 0.4 -->
      <g transform="translate(34.696875 225.78972)scale(0.1 -0.1)">
       <use xlink:href="#DejaVuSans-48"/>
       <use x="63.623047" xlink:href="#DejaVuSans-46"/>
       <use x="95.410156" xlink:href="#DejaVuSans-52"/>
      </g>
     </g>
    </g>
    <g id="ytick_4">
     <g id="line2d_10">
      <g>
       <use style="stroke:#000000;stroke-width:0.8;" x="57.6" xlink:href="#m834eb8ed35" y="183.550384"/>
      </g>
     </g>
     <g id="text_11">
      <!-- 0.6 -->
      <g transform="translate(34.696875 187.349603)scale(0.1 -0.1)">
       <use xlink:href="#DejaVuSans-48"/>
       <use x="63.623047" xlink:href="#DejaVuSans-46"/>
       <use x="95.410156" xlink:href="#DejaVuSans-54"/>
      </g>
     </g>
    </g>
    <g id="ytick_5">
     <g id="line2d_11">
      <g>
       <use style="stroke:#000000;stroke-width:0.8;" x="57.6" xlink:href="#m834eb8ed35" y="145.110267"/>
      </g>
     </g>
     <g id="text_12">
      <!-- 0.8 -->
      <g transform="translate(34.696875 148.909485)scale(0.1 -0.1)">
       <use xlink:href="#DejaVuSans-48"/>
       <use x="63.623047" xlink:href="#DejaVuSans-46"/>
       <use x="95.410156" xlink:href="#DejaVuSans-56"/>
      </g>
     </g>
    </g>
    <g id="ytick_6">
     <g id="line2d_12">
      <g>
       <use style="stroke:#000000;stroke-width:0.8;" x="57.6" xlink:href="#m834eb8ed35" y="106.670149"/>
      </g>
     </g>
     <g id="text_13">
      <!-- 1.0 -->
      <g transform="translate(34.696875 110.469368)scale(0.1 -0.1)">
       <use xlink:href="#DejaVuSans-49"/>
       <use x="63.623047" xlink:href="#DejaVuSans-46"/>
       <use x="95.410156" xlink:href="#DejaVuSans-48"/>
      </g>
     </g>
    </g>
    <g id="ytick_7">
     <g id="line2d_13">
      <g>
       <use style="stroke:#000000;stroke-width:0.8;" x="57.6" xlink:href="#m834eb8ed35" y="68.230032"/>
      </g>
     </g>
     <g id="text_14">
      <!-- 1.2 -->
      <g transform="translate(34.696875 72.029251)scale(0.1 -0.1)">
       <use xlink:href="#DejaVuSans-49"/>
       <use x="63.623047" xlink:href="#DejaVuSans-46"/>
       <use x="95.410156" xlink:href="#DejaVuSans-50"/>
      </g>
     </g>
    </g>
    <g id="text_15">
     <!-- Loss -->
     <defs>
      <path d="M 9.8125 72.90625 
L 19.671875 72.90625 
L 19.671875 8.296875 
L 55.171875 8.296875 
L 55.171875 0 
L 9.8125 0 
z
" id="DejaVuSans-76"/>
      <path d="M 44.28125 53.078125 
L 44.28125 44.578125 
Q 40.484375 46.53125 36.375 47.5 
Q 32.28125 48.484375 27.875 48.484375 
Q 21.1875 48.484375 17.84375 46.4375 
Q 14.5 44.390625 14.5 40.28125 
Q 14.5 37.15625 16.890625 35.375 
Q 19.28125 33.59375 26.515625 31.984375 
L 29.59375 31.296875 
Q 39.15625 29.25 43.1875 25.515625 
Q 47.21875 21.78125 47.21875 15.09375 
Q 47.21875 7.46875 41.1875 3.015625 
Q 35.15625 -1.421875 24.609375 -1.421875 
Q 20.21875 -1.421875 15.453125 -0.5625 
Q 10.6875 0.296875 5.421875 2 
L 5.421875 11.28125 
Q 10.40625 8.6875 15.234375 7.390625 
Q 20.0625 6.109375 24.8125 6.109375 
Q 31.15625 6.109375 34.5625 8.28125 
Q 37.984375 10.453125 37.984375 14.40625 
Q 37.984375 18.0625 35.515625 20.015625 
Q 33.0625 21.96875 24.703125 23.78125 
L 21.578125 24.515625 
Q 13.234375 26.265625 9.515625 29.90625 
Q 5.8125 33.546875 5.8125 39.890625 
Q 5.8125 47.609375 11.28125 51.796875 
Q 16.75 56 26.8125 56 
Q 31.78125 56 36.171875 55.265625 
Q 40.578125 54.546875 44.28125 53.078125 
z
" id="DejaVuSans-115"/>
     </defs>
     <g transform="translate(28.617188 185.581906)rotate(-90)scale(0.1 -0.1)">
      <use xlink:href="#DejaVuSans-76"/>
      <use x="55.697266" xlink:href="#DejaVuSans-111"/>
      <use x="116.878906" xlink:href="#DejaVuSans-115"/>
      <use x="168.978516" xlink:href="#DejaVuSans-115"/>
     </g>
    </g>
   </g>
   <g id="line2d_14">
    <path clip-path="url(#p6824abaa90)" d="M 73.832727 87.669996 
L 74.157707 87.939786 
L 74.482686 90.396032 
L 74.807666 94.883732 
L 76.107584 119.246999 
L 79.682359 185.304323 
L 80.007338 182.591703 
L 80.332318 192.512365 
L 80.657297 193.027853 
L 80.982277 193.89959 
L 81.307256 196.48294 
L 81.632236 196.958389 
L 81.957215 196.958194 
L 82.282195 197.772009 
L 82.932154 197.866498 
L 83.257133 197.181438 
L 83.582113 197.456612 
L 83.907093 197.960736 
L 84.557052 200.305617 
L 84.882031 200.628712 
L 85.207011 196.971093 
L 85.53199 200.98787 
L 85.85697 198.75055 
L 86.181949 199.964627 
L 86.506929 199.821083 
L 86.831908 200.11933 
L 87.156888 199.900222 
L 87.481867 199.96945 
L 87.806847 200.242597 
L 88.131826 198.508117 
L 88.456806 198.920993 
L 89.106765 199.433766 
L 89.431744 199.155704 
L 89.756724 199.864765 
L 90.081704 198.999284 
L 90.406683 199.160848 
L 90.731663 199.95615 
L 91.056642 199.72995 
L 91.381622 200.377778 
L 92.031581 200.129812 
L 92.35656 200.629754 
L 92.68154 200.662633 
L 93.331499 201.874832 
L 93.981458 201.216544 
L 94.631417 202.014905 
L 94.956396 201.525984 
L 95.281376 202.111949 
L 95.606355 201.821401 
L 95.931335 202.323141 
L 96.256314 201.630635 
L 96.581294 201.299772 
L 97.231253 202.191099 
L 97.556233 203.849161 
L 97.881212 201.937657 
L 98.206192 201.491994 
L 98.531171 202.738755 
L 98.856151 202.048769 
L 99.50611 202.660877 
L 99.831089 202.892742 
L 100.156069 201.838516 
L 101.131007 203.618196 
L 101.455987 203.432722 
L 101.780966 202.584511 
L 102.430925 203.265871 
L 102.755905 203.438319 
L 103.080885 202.866874 
L 103.405864 203.066931 
L 103.730844 203.785523 
L 104.055823 203.374354 
L 104.380803 205.506828 
L 104.705782 204.213326 
L 105.030762 203.86772 
L 105.355741 204.027824 
L 105.680721 204.890734 
L 106.0057 205.24224 
L 106.33068 205.386185 
L 106.655659 206.422883 
L 106.980639 205.915426 
L 107.305618 206.985352 
L 107.955577 210.402897 
L 108.280557 211.452391 
L 108.605536 213.724635 
L 108.930516 219.37961 
L 109.255495 220.175627 
L 111.855332 267.337879 
L 112.505291 275.209212 
L 112.83027 273.081864 
L 113.15525 266.507169 
L 113.480229 276.707976 
L 113.805209 281.978371 
L 114.130188 236.850867 
L 114.455168 95.512394 
L 114.780147 53.568 
L 115.105127 253.281529 
L 115.430106 132.829599 
L 115.755086 260.280825 
L 116.405045 242.330404 
L 116.730025 242.320643 
L 117.379984 254.222586 
L 117.704963 254.979355 
L 118.029943 265.994958 
L 118.354922 267.375337 
L 118.679902 270.036165 
L 119.004881 269.777994 
L 119.65484 275.726142 
L 119.97982 273.564656 
L 120.304799 276.207801 
L 120.629779 275.887955 
L 120.954758 277.606116 
L 121.279738 277.853369 
L 121.604717 276.315184 
L 121.929697 278.85136 
L 122.254676 278.953968 
L 122.579656 278.451225 
L 122.904636 278.971273 
L 123.229615 279.172845 
L 123.554595 278.946298 
L 124.529533 280.057806 
L 124.854513 280.359526 
L 125.179492 280.295131 
L 125.504472 280.868501 
L 125.829451 280.654499 
L 126.154431 280.628031 
L 126.80439 280.881985 
L 127.129369 281.652558 
L 127.779328 281.393695 
L 128.429287 282.44737 
L 128.754267 282.201097 
L 129.079247 282.825013 
L 129.404226 282.924826 
L 130.054185 283.597555 
L 130.379165 283.173443 
L 130.704144 283.565408 
L 131.029124 283.683999 
L 131.354103 283.540187 
L 131.679083 284.584626 
L 132.329042 284.629467 
L 132.654021 284.732382 
L 132.979001 285.165282 
L 133.30398 284.95283 
L 133.953939 284.944258 
L 134.278919 285.161586 
L 134.603898 284.810093 
L 134.928878 285.62619 
L 135.578837 286.137893 
L 135.903817 286.165654 
L 136.228796 285.632388 
L 136.553776 286.180475 
L 136.878755 285.818371 
L 137.203735 286.499761 
L 137.528714 286.386875 
L 137.853694 285.997339 
L 138.178673 285.796892 
L 138.503653 286.548299 
L 139.153612 286.442961 
L 139.478591 286.008612 
L 139.803571 286.240537 
L 140.12855 286.689674 
L 140.778509 286.177219 
L 141.103489 287.071264 
L 141.753448 286.959681 
L 142.078428 287.499528 
L 142.403407 286.42708 
L 143.053366 287.367945 
L 143.378346 287.115198 
L 143.703325 287.188066 
L 144.028305 287.618146 
L 145.003243 287.684141 
L 145.328223 287.251397 
L 145.653202 288.085028 
L 145.978182 287.508326 
L 146.303161 288.008656 
L 146.628141 286.263058 
L 147.2781 287.676169 
L 147.603079 287.483574 
L 147.928059 287.888473 
L 148.253038 288.107148 
L 148.578018 287.778509 
L 148.902998 287.930028 
L 149.227977 288.67952 
L 149.552957 288.240947 
L 149.877936 288.406521 
L 150.202916 288.758026 
L 150.527895 288.647567 
L 150.852875 289.065136 
L 151.177854 289.296198 
L 151.502834 289.169519 
L 151.827813 289.231004 
L 152.152793 289.149036 
L 152.477772 289.323241 
L 152.802752 288.917854 
L 153.127731 289.068107 
L 153.452711 288.264265 
L 153.77769 287.991866 
L 154.10267 288.936923 
L 154.427649 289.299186 
L 154.752629 283.44024 
L 155.077609 286.575629 
L 155.727568 253.4124 
L 156.052547 287.075609 
L 156.377527 238.920253 
L 156.702506 263.713669 
L 157.027486 270.410451 
L 157.352465 281.469306 
L 157.677445 285.160914 
L 158.002424 283.485443 
L 158.327404 278.453784 
L 158.652383 278.087684 
L 158.977363 275.40307 
L 159.627322 283.529345 
L 159.952301 282.344232 
L 160.277281 283.39085 
L 160.92724 280.007709 
L 161.252219 281.867067 
L 161.577199 279.777835 
L 161.902179 283.086346 
L 162.227158 284.458726 
L 162.552138 284.971408 
L 162.877117 284.796088 
L 163.202097 285.155245 
L 163.852056 285.197619 
L 164.177035 285.723701 
L 164.502015 285.586973 
L 164.826994 286.199342 
L 165.151974 285.910207 
L 165.801933 286.533446 
L 166.126912 286.023263 
L 166.451892 286.67858 
L 166.776871 286.490758 
L 167.101851 286.551956 
L 167.42683 286.390204 
L 167.75181 286.685898 
L 168.07679 286.095655 
L 168.401769 287.271097 
L 168.726749 287.236644 
L 169.051728 286.965114 
L 169.376708 287.730218 
L 169.701687 287.326326 
L 170.026667 287.807574 
L 170.351646 287.431716 
L 170.676626 287.574694 
L 171.001605 287.858625 
L 171.326585 287.18576 
L 171.651564 287.897672 
L 171.976544 287.31491 
L 172.626503 288.227957 
L 173.276462 288.039311 
L 173.601441 288.029208 
L 173.926421 286.650656 
L 174.2514 287.854275 
L 174.57638 287.849105 
L 174.90136 288.118864 
L 175.226339 287.729143 
L 175.551319 288.288272 
L 175.876298 287.882697 
L 176.526257 288.061248 
L 176.851237 288.290162 
L 177.501196 288.386349 
L 177.826175 288.052637 
L 178.476134 288.183517 
L 178.801114 288.498773 
L 179.126093 287.964071 
L 179.776052 288.463706 
L 180.101032 288.076069 
L 180.426011 288.478085 
L 180.750991 288.033165 
L 181.72593 288.663178 
L 182.375889 288.284918 
L 182.700868 288.412659 
L 183.025848 288.224456 
L 183.675807 288.550216 
L 184.000786 288.046237 
L 184.325766 288.482984 
L 184.975725 288.124136 
L 185.300704 288.177515 
L 185.950663 288.643438 
L 186.275643 288.695149 
L 186.925602 288.383821 
L 187.250581 288.497641 
L 187.575561 288.329754 
L 187.900541 288.529656 
L 188.22552 288.515822 
L 188.5505 287.619576 
L 188.875479 288.239127 
L 189.200459 287.345811 
L 189.525438 288.668111 
L 189.850418 288.706706 
L 190.175397 288.50113 
L 190.825356 289.24881 
L 191.150336 288.830937 
L 191.475315 288.691875 
L 191.800295 289.249583 
L 192.125274 288.78561 
L 192.450254 289.085665 
L 192.775233 288.4484 
L 193.100213 288.268593 
L 193.425192 288.84592 
L 193.750172 289.13341 
L 194.075152 289.003644 
L 194.400131 288.237864 
L 194.725111 288.755962 
L 195.05009 288.866914 
L 195.700049 288.765888 
L 196.025029 288.394456 
L 196.350008 289.118009 
L 196.674988 288.761734 
L 196.999967 289.460519 
L 197.324947 288.633774 
L 197.649926 289.114769 
L 197.974906 288.363735 
L 198.299885 288.812418 
L 198.624865 288.908082 
L 198.949844 289.335039 
L 199.599803 289.265413 
L 199.924783 289.721565 
L 200.249762 289.060113 
L 200.574742 289.051216 
L 200.899722 288.490232 
L 201.549681 289.538552 
L 201.87466 288.74678 
L 202.524619 289.416669 
L 202.849599 289.194842 
L 203.174578 289.198376 
L 203.499558 289.503183 
L 203.824537 289.468274 
L 204.149517 289.042247 
L 204.474496 289.647439 
L 204.799476 289.157684 
L 205.449435 289.358389 
L 206.099394 288.818168 
L 206.424373 289.298583 
L 208.049271 289.412415 
L 208.374251 289.889549 
L 208.69923 289.344185 
L 209.02421 289.67569 
L 209.674169 289.84311 
L 209.999148 289.262033 
L 210.324128 289.563353 
L 210.974087 289.572728 
L 211.949025 290.163227 
L 212.274005 289.804595 
L 213.248943 289.361232 
L 213.573923 289.815674 
L 213.898903 289.84944 
L 214.223882 290.201494 
L 214.548862 289.735314 
L 214.873841 289.607127 
L 215.198821 289.040717 
L 215.5238 289.086734 
L 215.84878 288.021261 
L 216.498739 289.225757 
L 216.823718 289.233906 
L 217.473677 288.800866 
L 217.798657 289.138073 
L 218.123636 289.152048 
L 218.448616 289.5674 
L 218.773595 289.025228 
L 219.098575 290.010819 
L 219.423554 289.758097 
L 219.748534 289.215095 
L 220.073514 289.839931 
L 220.398493 289.577642 
L 221.048452 290.090583 
L 221.373432 289.552156 
L 222.023391 290.31782 
L 222.34837 289.892626 
L 222.998329 290.30101 
L 223.323309 289.890334 
L 223.648288 290.3861 
L 224.298247 290.751937 
L 224.623227 290.85482 
L 224.948206 290.649117 
L 225.598165 290.891154 
L 225.923145 290.959988 
L 226.573104 290.767532 
L 226.898084 291.153341 
L 227.223063 291.329264 
L 227.548043 291.791382 
L 228.198002 291.224567 
L 228.522981 291.659098 
L 229.49792 291.255871 
L 229.822899 291.342911 
L 230.147879 291.298664 
L 230.472858 292.152752 
L 230.797838 291.564481 
L 231.122817 291.43052 
L 231.447797 291.846397 
L 231.772776 291.960036 
L 232.097756 291.742981 
L 232.747715 292.342946 
L 233.072695 291.773021 
L 233.397674 292.192335 
L 233.722654 291.524783 
L 234.047633 291.263269 
L 234.372613 291.307813 
L 234.697592 290.60182 
L 235.022572 291.043733 
L 235.347551 291.156679 
L 235.672531 290.770572 
L 235.99751 291.079955 
L 236.32249 291.899689 
L 236.647469 291.268833 
L 236.972449 291.394559 
L 237.297428 291.851499 
L 237.947387 291.354018 
L 238.272367 291.681747 
L 238.597346 291.808486 
L 238.922326 292.69774 
L 239.247305 291.93037 
L 239.572285 292.181351 
L 239.897265 292.078412 
L 240.222244 291.68432 
L 240.872203 292.394431 
L 241.197183 292.122971 
L 241.522162 291.436092 
L 241.847142 291.708928 
L 242.497101 290.314046 
L 243.14706 291.194819 
L 243.472039 291.118479 
L 243.797019 290.891269 
L 244.121998 291.006729 
L 244.446978 290.627232 
L 244.771957 291.450131 
L 245.096937 291.046085 
L 246.071876 292.1868 
L 246.396855 292.297613 
L 247.046814 291.26964 
L 247.371794 292.128145 
L 248.021753 292.606372 
L 248.346732 292.351061 
L 248.996691 292.317926 
L 249.321671 292.479692 
L 249.64665 292.423554 
L 249.97163 292.661225 
L 250.296609 292.36235 
L 250.621589 292.971721 
L 251.271548 292.85936 
L 251.596527 292.491873 
L 251.921507 292.709878 
L 252.571466 292.616991 
L 252.896446 293.168369 
L 253.546405 292.927767 
L 253.871384 292.955946 
L 254.196364 292.681884 
L 254.521343 292.858964 
L 255.171302 292.680751 
L 255.496282 292.223711 
L 255.821261 292.92691 
L 256.146241 292.743957 
L 256.47122 292.303349 
L 256.7962 291.078917 
L 257.121179 291.339199 
L 257.771138 288.863874 
L 258.096118 288.747637 
L 258.421097 289.625576 
L 259.071057 289.666475 
L 259.396036 289.992404 
L 259.721016 290.131686 
L 260.370975 290.887024 
L 260.695954 290.939565 
L 261.020934 290.711724 
L 261.345913 291.122217 
L 261.670893 291.278858 
L 261.995872 290.92591 
L 262.320852 291.082686 
L 262.645831 291.105149 
L 262.970811 291.902887 
L 263.945749 291.676241 
L 264.270729 291.998623 
L 264.595708 291.452193 
L 264.920688 292.046627 
L 265.245667 291.861559 
L 265.570647 292.111494 
L 265.895627 291.493447 
L 266.545586 291.404877 
L 266.870565 292.015091 
L 267.195545 291.586523 
L 267.520524 292.140671 
L 268.170483 291.413995 
L 268.495463 291.685741 
L 268.820442 292.459615 
L 269.470401 292.248262 
L 269.795381 291.985706 
L 270.44534 292.629329 
L 270.770319 292.523042 
L 271.095299 292.683751 
L 271.420278 292.714674 
L 271.745258 292.14114 
L 272.395217 292.603751 
L 272.720197 292.35149 
L 273.045176 292.670825 
L 273.370156 292.697244 
L 273.695135 292.559423 
L 274.345094 292.825126 
L 274.670074 293.325738 
L 274.995053 292.915953 
L 275.320033 293.085795 
L 275.645012 293.062376 
L 275.969992 293.361165 
L 276.294971 293.107618 
L 276.619951 293.211481 
L 277.26991 292.653984 
L 277.594889 292.446025 
L 277.919869 293.099215 
L 278.244848 292.840485 
L 278.569828 293.195073 
L 278.894808 292.808205 
L 279.219787 293.386837 
L 279.544767 292.101947 
L 279.869746 292.640544 
L 280.194726 292.052389 
L 280.519705 292.471095 
L 281.169664 291.599524 
L 281.494644 291.966382 
L 282.144603 292.348797 
L 282.469582 292.254974 
L 282.794562 291.922216 
L 283.444521 292.577202 
L 283.7695 292.206247 
L 284.09448 292.773522 
L 284.744439 292.806091 
L 285.069419 292.931089 
L 285.394398 292.615392 
L 285.719378 292.856032 
L 286.044357 293.517501 
L 286.369337 292.966052 
L 286.694316 293.565885 
L 287.019296 292.91793 
L 287.344275 293.729235 
L 287.669255 293.040242 
L 287.994234 293.19615 
L 288.319214 293.489238 
L 288.644193 292.052982 
L 288.969173 293.11889 
L 289.294152 292.7303 
L 289.619132 292.761431 
L 289.944111 292.294876 
L 290.269091 293.305809 
L 290.59407 292.654284 
L 290.91905 292.422568 
L 291.244029 293.055769 
L 291.569009 293.250424 
L 291.893989 292.915854 
L 292.218968 293.052628 
L 292.868927 293.762197 
L 293.193907 293.23028 
L 293.843866 293.697939 
L 294.168845 293.721759 
L 294.818804 294.142475 
L 295.143784 293.422002 
L 295.468763 293.278037 
L 295.793743 292.443494 
L 296.118722 291.302547 
L 296.443702 290.603465 
L 296.768681 291.489445 
L 297.093661 290.992081 
L 297.41864 292.047096 
L 297.74362 292.301227 
L 298.0686 292.127897 
L 298.393579 292.442047 
L 298.718559 292.325867 
L 299.043538 292.002974 
L 299.368518 292.534904 
L 299.693497 292.155565 
L 300.018477 292.272818 
L 300.343456 292.523409 
L 300.668436 292.376719 
L 300.993415 292.850323 
L 301.318395 292.772819 
L 301.643374 293.314048 
L 301.968354 292.95572 
L 302.293333 293.313513 
L 302.618313 292.730655 
L 302.943292 293.641285 
L 303.268272 293.595896 
L 303.593251 293.156073 
L 303.918231 293.511337 
L 304.24321 293.353327 
L 304.56819 293.36796 
L 304.89317 293.552527 
L 305.218149 293.529345 
L 305.543129 293.15179 
L 305.868108 293.098979 
L 306.193088 293.303582 
L 306.518067 294.179999 
L 306.843047 293.10089 
L 307.168026 293.286957 
L 307.493006 294.096276 
L 308.142965 293.900365 
L 308.467944 294.098039 
L 309.442883 293.705528 
L 309.767862 292.964635 
L 310.092842 293.168755 
L 310.417821 293.0751 
L 310.742801 294.282465 
L 311.067781 292.683268 
L 311.39276 293.243039 
L 311.71774 290.191912 
L 312.042719 290.839414 
L 312.367699 289.499763 
L 313.342637 287.839581 
L 313.667617 289.22694 
L 313.992596 288.979809 
L 314.317576 288.295169 
L 314.642555 288.082562 
L 314.967535 288.813305 
L 315.292514 289.184086 
L 315.617494 289.104494 
L 315.942473 289.252644 
L 316.592432 290.00849 
L 316.917412 290.203715 
L 317.892351 290.107895 
L 318.21733 290.310857 
L 318.54231 291.113974 
L 318.867289 290.941546 
L 319.192269 290.909341 
L 319.517248 291.120003 
L 319.842228 291.060408 
L 320.167207 291.518241 
L 320.492187 291.358177 
L 320.817166 291.577185 
L 321.142146 291.984856 
L 321.467125 291.035878 
L 321.792105 292.121664 
L 322.117084 290.518719 
L 322.442064 291.565294 
L 322.767043 292.222287 
L 323.092023 291.775611 
L 323.417002 291.949107 
L 324.716921 291.91128 
L 325.0419 291.405839 
L 325.691859 292.160117 
L 326.016839 292.563709 
L 326.341818 292.483931 
L 326.666798 292.653077 
L 326.991777 292.396041 
L 327.316757 292.554571 
L 327.641736 293.135241 
L 327.966716 292.876562 
L 328.291695 293.075519 
L 328.616675 292.243122 
L 328.941654 293.529952 
L 329.266634 293.186657 
L 329.916593 293.360408 
L 330.241572 293.077388 
L 330.566552 293.390843 
L 330.891532 292.803406 
L 331.216511 292.794982 
L 331.541491 293.609381 
L 331.86647 293.648299 
L 332.841409 293.388764 
L 333.166388 293.876987 
L 333.491368 293.728882 
L 333.816347 294.000675 
L 334.141327 293.822214 
L 334.466306 293.438271 
L 334.791286 293.922871 
L 335.116265 294.057831 
L 336.416183 293.571617 
L 336.741163 293.377922 
L 337.066143 293.943077 
L 337.391122 294.0236 
L 337.716102 294.382331 
L 338.041081 293.700352 
L 338.69104 294.167834 
L 339.01602 294.355396 
L 339.340999 293.196747 
L 339.665979 294.069082 
L 340.315938 293.271806 
L 340.640917 293.943399 
L 340.965897 293.731742 
L 341.290876 294.390607 
L 341.615856 293.305001 
L 341.940835 293.807696 
L 342.265815 292.880241 
L 342.590794 292.93006 
L 342.915774 292.563907 
L 343.240753 293.244061 
L 343.565733 292.643716 
L 344.215692 292.539324 
L 344.540672 291.657707 
L 344.865651 292.231785 
L 345.190631 292.010113 
L 345.51561 292.144161 
L 345.84059 291.912297 
L 346.165569 291.992282 
L 346.490549 292.733688 
L 346.815528 292.414831 
L 347.465487 293.616782 
L 347.790467 293.072522 
L 348.115446 293.806815 
L 348.440426 293.633165 
L 349.090385 293.992278 
L 349.415364 293.374002 
L 349.740344 293.962072 
L 350.065324 294.027162 
L 350.390303 293.836432 
L 350.715283 294.096638 
L 351.040262 293.794224 
L 351.365242 293.224827 
L 351.690221 293.948716 
L 352.015201 293.37807 
L 352.34018 293.590108 
L 352.66516 292.923516 
L 352.990139 293.823296 
L 353.315119 293.495991 
L 353.640098 293.772553 
L 353.965078 293.439727 
L 354.290057 294.049511 
L 355.264996 294.514031 
L 355.589975 294.426995 
L 355.914955 294.151854 
L 356.564914 294.36657 
L 356.889894 294.072474 
L 357.214873 294.239718 
L 357.864832 294.163295 
L 358.189812 293.895901 
L 358.514791 293.784975 
L 358.839771 294.378518 
L 359.16475 294.680712 
L 359.48973 293.527137 
L 359.814709 294.063946 
L 360.139689 293.513078 
L 360.464668 294.202395 
L 360.789648 293.763658 
L 361.114627 293.813856 
L 361.439607 294.112464 
L 361.764586 293.936161 
L 362.089566 293.134329 
L 362.414545 294.456414 
L 362.739525 293.880641 
L 363.064505 294.073246 
L 363.389484 294.135807 
L 363.714464 294.732082 
L 364.039443 294.200665 
L 364.364423 294.880602 
L 364.689402 294.050105 
L 365.014382 294.263915 
L 365.339361 294.76759 
L 365.664341 294.866957 
L 366.3143 294.094369 
L 366.639279 294.998127 
L 366.964259 294.112574 
L 367.289238 293.82648 
L 368.264177 294.730564 
L 368.589156 294.785738 
L 368.914136 294.399643 
L 369.239115 294.385838 
L 369.564095 294.597625 
L 370.214054 294.497894 
L 370.539034 294.318428 
L 370.864013 293.92985 
L 371.188993 294.207606 
L 371.513972 294.159734 
L 371.838952 294.706319 
L 372.488911 293.874127 
L 372.81389 294.691214 
L 373.463849 294.705538 
L 373.788829 294.725454 
L 374.113808 294.41904 
L 374.438788 294.422656 
L 375.088747 295.195585 
L 375.413726 294.896305 
L 375.738706 294.888861 
L 376.063686 295.212051 
L 376.388665 294.885705 
L 377.038624 295.24553 
L 377.363604 294.391326 
L 377.688583 295.029157 
L 378.013563 295.093125 
L 378.338542 294.338646 
L 378.663522 295.000933 
L 379.313481 294.920813 
L 379.63846 295.208861 
L 379.96344 294.821595 
L 380.288419 295.162968 
L 381.263358 294.172931 
L 381.588337 294.33521 
L 381.913317 294.304597 
L 382.238296 294.677599 
L 382.563276 294.523217 
L 382.888256 295.080684 
L 383.213235 294.786869 
L 383.538215 294.654309 
L 383.863194 294.986082 
L 384.188174 294.401083 
L 384.513153 294.643011 
L 384.838133 295.032211 
L 385.488092 295.237028 
L 385.813071 294.960572 
L 386.138051 295.147081 
L 386.46303 294.807653 
L 386.78801 295.270991 
L 387.112989 295.002532 
L 387.437969 295.040336 
L 387.762948 295.488 
L 388.737887 294.797115 
L 389.062867 294.987468 
L 389.712826 295.060794 
L 390.037805 294.555499 
L 390.687764 295.410231 
L 391.012744 294.990291 
L 391.337723 295.09922 
L 391.662703 294.619838 
L 391.987682 294.365548 
L 392.312662 294.279073 
L 392.637641 294.770031 
L 392.962621 294.864217 
L 393.2876 294.329968 
L 393.61258 294.664253 
L 393.937559 294.449359 
L 394.262539 293.932108 
L 394.587518 293.796367 
L 394.912498 294.401309 
L 395.237477 293.863599 
L 395.887437 294.830258 
L 396.212416 294.746393 
L 396.537396 295.063455 
L 396.862375 294.562744 
L 397.187355 294.899741 
L 397.512334 294.812556 
L 397.837314 294.931696 
L 398.162293 294.714871 
L 398.487273 295.131027 
L 398.487273 295.131027 
" style="fill:none;stroke:#1f77b4;stroke-linecap:square;stroke-width:1.5;"/>
   </g>
   <g id="patch_3">
    <path d="M 57.6 307.584 
L 57.6 41.472 
" style="fill:none;stroke:#000000;stroke-linecap:square;stroke-linejoin:miter;stroke-width:0.8;"/>
   </g>
   <g id="patch_4">
    <path d="M 414.72 307.584 
L 414.72 41.472 
" style="fill:none;stroke:#000000;stroke-linecap:square;stroke-linejoin:miter;stroke-width:0.8;"/>
   </g>
   <g id="patch_5">
    <path d="M 57.6 307.584 
L 414.72 307.584 
" style="fill:none;stroke:#000000;stroke-linecap:square;stroke-linejoin:miter;stroke-width:0.8;"/>
   </g>
   <g id="patch_6">
    <path d="M 57.6 41.472 
L 414.72 41.472 
" style="fill:none;stroke:#000000;stroke-linecap:square;stroke-linejoin:miter;stroke-width:0.8;"/>
   </g>
   <g id="text_16">
    <!-- Training Loss -->
    <defs>
     <path d="M -0.296875 72.90625 
L 61.375 72.90625 
L 61.375 64.59375 
L 35.5 64.59375 
L 35.5 0 
L 25.59375 0 
L 25.59375 64.59375 
L -0.296875 64.59375 
z
" id="DejaVuSans-84"/>
     <path d="M 41.109375 46.296875 
Q 39.59375 47.171875 37.8125 47.578125 
Q 36.03125 48 33.890625 48 
Q 26.265625 48 22.1875 43.046875 
Q 18.109375 38.09375 18.109375 28.8125 
L 18.109375 0 
L 9.078125 0 
L 9.078125 54.6875 
L 18.109375 54.6875 
L 18.109375 46.1875 
Q 20.953125 51.171875 25.484375 53.578125 
Q 30.03125 56 36.53125 56 
Q 37.453125 56 38.578125 55.875 
Q 39.703125 55.765625 41.0625 55.515625 
z
" id="DejaVuSans-114"/>
     <path d="M 34.28125 27.484375 
Q 23.390625 27.484375 19.1875 25 
Q 14.984375 22.515625 14.984375 16.5 
Q 14.984375 11.71875 18.140625 8.90625 
Q 21.296875 6.109375 26.703125 6.109375 
Q 34.1875 6.109375 38.703125 11.40625 
Q 43.21875 16.703125 43.21875 25.484375 
L 43.21875 27.484375 
z
M 52.203125 31.203125 
L 52.203125 0 
L 43.21875 0 
L 43.21875 8.296875 
Q 40.140625 3.328125 35.546875 0.953125 
Q 30.953125 -1.421875 24.3125 -1.421875 
Q 15.921875 -1.421875 10.953125 3.296875 
Q 6 8.015625 6 15.921875 
Q 6 25.140625 12.171875 29.828125 
Q 18.359375 34.515625 30.609375 34.515625 
L 43.21875 34.515625 
L 43.21875 35.40625 
Q 43.21875 41.609375 39.140625 45 
Q 35.0625 48.390625 27.6875 48.390625 
Q 23 48.390625 18.546875 47.265625 
Q 14.109375 46.140625 10.015625 43.890625 
L 10.015625 52.203125 
Q 14.9375 54.109375 19.578125 55.046875 
Q 24.21875 56 28.609375 56 
Q 40.484375 56 46.34375 49.84375 
Q 52.203125 43.703125 52.203125 31.203125 
z
" id="DejaVuSans-97"/>
     <path d="M 9.421875 54.6875 
L 18.40625 54.6875 
L 18.40625 0 
L 9.421875 0 
z
M 9.421875 75.984375 
L 18.40625 75.984375 
L 18.40625 64.59375 
L 9.421875 64.59375 
z
" id="DejaVuSans-105"/>
     <path d="M 54.890625 33.015625 
L 54.890625 0 
L 45.90625 0 
L 45.90625 32.71875 
Q 45.90625 40.484375 42.875 44.328125 
Q 39.84375 48.1875 33.796875 48.1875 
Q 26.515625 48.1875 22.3125 43.546875 
Q 18.109375 38.921875 18.109375 30.90625 
L 18.109375 0 
L 9.078125 0 
L 9.078125 54.6875 
L 18.109375 54.6875 
L 18.109375 46.1875 
Q 21.34375 51.125 25.703125 53.5625 
Q 30.078125 56 35.796875 56 
Q 45.21875 56 50.046875 50.171875 
Q 54.890625 44.34375 54.890625 33.015625 
z
" id="DejaVuSans-110"/>
     <path d="M 45.40625 27.984375 
Q 45.40625 37.75 41.375 43.109375 
Q 37.359375 48.484375 30.078125 48.484375 
Q 22.859375 48.484375 18.828125 43.109375 
Q 14.796875 37.75 14.796875 27.984375 
Q 14.796875 18.265625 18.828125 12.890625 
Q 22.859375 7.515625 30.078125 7.515625 
Q 37.359375 7.515625 41.375 12.890625 
Q 45.40625 18.265625 45.40625 27.984375 
z
M 54.390625 6.78125 
Q 54.390625 -7.171875 48.1875 -13.984375 
Q 42 -20.796875 29.203125 -20.796875 
Q 24.46875 -20.796875 20.265625 -20.09375 
Q 16.0625 -19.390625 12.109375 -17.921875 
L 12.109375 -9.1875 
Q 16.0625 -11.328125 19.921875 -12.34375 
Q 23.78125 -13.375 27.78125 -13.375 
Q 36.625 -13.375 41.015625 -8.765625 
Q 45.40625 -4.15625 45.40625 5.171875 
L 45.40625 9.625 
Q 42.625 4.78125 38.28125 2.390625 
Q 33.9375 0 27.875 0 
Q 17.828125 0 11.671875 7.65625 
Q 5.515625 15.328125 5.515625 27.984375 
Q 5.515625 40.671875 11.671875 48.328125 
Q 17.828125 56 27.875 56 
Q 33.9375 56 38.28125 53.609375 
Q 42.625 51.21875 45.40625 46.390625 
L 45.40625 54.6875 
L 54.390625 54.6875 
z
" id="DejaVuSans-103"/>
     <path id="DejaVuSans-32"/>
    </defs>
    <g transform="translate(196.445625 35.472)scale(0.12 -0.12)">
     <use xlink:href="#DejaVuSans-84"/>
     <use x="60.865234" xlink:href="#DejaVuSans-114"/>
     <use x="101.978516" xlink:href="#DejaVuSans-97"/>
     <use x="163.257812" xlink:href="#DejaVuSans-105"/>
     <use x="191.041016" xlink:href="#DejaVuSans-110"/>
     <use x="254.419922" xlink:href="#DejaVuSans-105"/>
     <use x="282.203125" xlink:href="#DejaVuSans-110"/>
     <use x="345.582031" xlink:href="#DejaVuSans-103"/>
     <use x="409.058594" xlink:href="#DejaVuSans-32"/>
     <use x="440.845703" xlink:href="#DejaVuSans-76"/>
     <use x="496.542969" xlink:href="#DejaVuSans-111"/>
     <use x="557.724609" xlink:href="#DejaVuSans-115"/>
     <use x="609.824219" xlink:href="#DejaVuSans-115"/>
    </g>
   </g>
  </g>
 </g>
 <defs>
  <clipPath id="p6824abaa90">
   <rect height="266.112" width="357.12" x="57.6" y="41.472"/>
  </clipPath>
 </defs>
</svg>
