<?xml version="1.0" encoding="utf-8" standalone="no"?>
<!DOCTYPE svg PUBLIC "-//W3C//DTD SVG 1.1//EN"
  "http://www.w3.org/Graphics/SVG/1.1/DTD/svg11.dtd">
<!-- Created with matplotlib (https://matplotlib.org/) -->
<svg height="345.6pt" version="1.1" viewBox="0 0 460.8 345.6" width="460.8pt" xmlns="http://www.w3.org/2000/svg" xmlns:xlink="http://www.w3.org/1999/xlink">
 <defs>
  <style type="text/css">
*{stroke-linecap:butt;stroke-linejoin:round;}
  </style>
 </defs>
 <g id="figure_1">
  <g id="patch_1">
   <path d="M 0 345.6 
L 460.8 345.6 
L 460.8 0 
L 0 0 
z
" style="fill:#ffffff;"/>
  </g>
  <g id="axes_1">
   <g id="patch_2">
    <path d="M 57.6 307.584 
L 414.72 307.584 
L 414.72 41.472 
L 57.6 41.472 
z
" style="fill:#ffffff;"/>
   </g>
   <g id="matplotlib.axis_1">
    <g id="xtick_1">
     <g id="line2d_1">
      <defs>
       <path d="M 0 0 
L 0 3.5 
" id="m2c6aade556" style="stroke:#000000;stroke-width:0.8;"/>
      </defs>
      <g>
       <use style="stroke:#000000;stroke-width:0.8;" x="73.832727" xlink:href="#m2c6aade556" y="307.584"/>
      </g>
     </g>
     <g id="text_1">
      <!-- 0 -->
      <defs>
       <path d="M 31.78125 66.40625 
Q 24.171875 66.40625 20.328125 58.90625 
Q 16.5 51.421875 16.5 36.375 
Q 16.5 21.390625 20.328125 13.890625 
Q 24.171875 6.390625 31.78125 6.390625 
Q 39.453125 6.390625 43.28125 13.890625 
Q 47.125 21.390625 47.125 36.375 
Q 47.125 51.421875 43.28125 58.90625 
Q 39.453125 66.40625 31.78125 66.40625 
z
M 31.78125 74.21875 
Q 44.046875 74.21875 50.515625 64.515625 
Q 56.984375 54.828125 56.984375 36.375 
Q 56.984375 17.96875 50.515625 8.265625 
Q 44.046875 -1.421875 31.78125 -1.421875 
Q 19.53125 -1.421875 13.0625 8.265625 
Q 6.59375 17.96875 6.59375 36.375 
Q 6.59375 54.828125 13.0625 64.515625 
Q 19.53125 74.21875 31.78125 74.21875 
z
" id="DejaVuSans-48"/>
      </defs>
      <g transform="translate(70.651477 322.182437)scale(0.1 -0.1)">
       <use xlink:href="#DejaVuSans-48"/>
      </g>
     </g>
    </g>
    <g id="xtick_2">
     <g id="line2d_2">
      <g>
       <use style="stroke:#000000;stroke-width:0.8;" x="138.828632" xlink:href="#m2c6aade556" y="307.584"/>
      </g>
     </g>
     <g id="text_2">
      <!-- 200 -->
      <defs>
       <path d="M 19.1875 8.296875 
L 53.609375 8.296875 
L 53.609375 0 
L 7.328125 0 
L 7.328125 8.296875 
Q 12.9375 14.109375 22.625 23.890625 
Q 32.328125 33.6875 34.8125 36.53125 
Q 39.546875 41.84375 41.421875 45.53125 
Q 43.3125 49.21875 43.3125 52.78125 
Q 43.3125 58.59375 39.234375 62.25 
Q 35.15625 65.921875 28.609375 65.921875 
Q 23.96875 65.921875 18.8125 64.3125 
Q 13.671875 62.703125 7.8125 59.421875 
L 7.8125 69.390625 
Q 13.765625 71.78125 18.9375 73 
Q 24.125 74.21875 28.421875 74.21875 
Q 39.75 74.21875 46.484375 68.546875 
Q 53.21875 62.890625 53.21875 53.421875 
Q 53.21875 48.921875 51.53125 44.890625 
Q 49.859375 40.875 45.40625 35.40625 
Q 44.1875 33.984375 37.640625 27.21875 
Q 31.109375 20.453125 19.1875 8.296875 
z
" id="DejaVuSans-50"/>
      </defs>
      <g transform="translate(129.284882 322.182437)scale(0.1 -0.1)">
       <use xlink:href="#DejaVuSans-50"/>
       <use x="63.623047" xlink:href="#DejaVuSans-48"/>
       <use x="127.246094" xlink:href="#DejaVuSans-48"/>
      </g>
     </g>
    </g>
    <g id="xtick_3">
     <g id="line2d_3">
      <g>
       <use style="stroke:#000000;stroke-width:0.8;" x="203.824537" xlink:href="#m2c6aade556" y="307.584"/>
      </g>
     </g>
     <g id="text_3">
      <!-- 400 -->
      <defs>
       <path d="M 37.796875 64.3125 
L 12.890625 25.390625 
L 37.796875 25.390625 
z
M 35.203125 72.90625 
L 47.609375 72.90625 
L 47.609375 25.390625 
L 58.015625 25.390625 
L 58.015625 17.1875 
L 47.609375 17.1875 
L 47.609375 0 
L 37.796875 0 
L 37.796875 17.1875 
L 4.890625 17.1875 
L 4.890625 26.703125 
z
" id="DejaVuSans-52"/>
      </defs>
      <g transform="translate(194.280787 322.182437)scale(0.1 -0.1)">
       <use xlink:href="#DejaVuSans-52"/>
       <use x="63.623047" xlink:href="#DejaVuSans-48"/>
       <use x="127.246094" xlink:href="#DejaVuSans-48"/>
      </g>
     </g>
    </g>
    <g id="xtick_4">
     <g id="line2d_4">
      <g>
       <use style="stroke:#000000;stroke-width:0.8;" x="268.820442" xlink:href="#m2c6aade556" y="307.584"/>
      </g>
     </g>
     <g id="text_4">
      <!-- 600 -->
      <defs>
       <path d="M 33.015625 40.375 
Q 26.375 40.375 22.484375 35.828125 
Q 18.609375 31.296875 18.609375 23.390625 
Q 18.609375 15.53125 22.484375 10.953125 
Q 26.375 6.390625 33.015625 6.390625 
Q 39.65625 6.390625 43.53125 10.953125 
Q 47.40625 15.53125 47.40625 23.390625 
Q 47.40625 31.296875 43.53125 35.828125 
Q 39.65625 40.375 33.015625 40.375 
z
M 52.59375 71.296875 
L 52.59375 62.3125 
Q 48.875 64.0625 45.09375 64.984375 
Q 41.3125 65.921875 37.59375 65.921875 
Q 27.828125 65.921875 22.671875 59.328125 
Q 17.53125 52.734375 16.796875 39.40625 
Q 19.671875 43.65625 24.015625 45.921875 
Q 28.375 48.1875 33.59375 48.1875 
Q 44.578125 48.1875 50.953125 41.515625 
Q 57.328125 34.859375 57.328125 23.390625 
Q 57.328125 12.15625 50.6875 5.359375 
Q 44.046875 -1.421875 33.015625 -1.421875 
Q 20.359375 -1.421875 13.671875 8.265625 
Q 6.984375 17.96875 6.984375 36.375 
Q 6.984375 53.65625 15.1875 63.9375 
Q 23.390625 74.21875 37.203125 74.21875 
Q 40.921875 74.21875 44.703125 73.484375 
Q 48.484375 72.75 52.59375 71.296875 
z
" id="DejaVuSans-54"/>
      </defs>
      <g transform="translate(259.276692 322.182437)scale(0.1 -0.1)">
       <use xlink:href="#DejaVuSans-54"/>
       <use x="63.623047" xlink:href="#DejaVuSans-48"/>
       <use x="127.246094" xlink:href="#DejaVuSans-48"/>
      </g>
     </g>
    </g>
    <g id="xtick_5">
     <g id="line2d_5">
      <g>
       <use style="stroke:#000000;stroke-width:0.8;" x="333.816347" xlink:href="#m2c6aade556" y="307.584"/>
      </g>
     </g>
     <g id="text_5">
      <!-- 800 -->
      <defs>
       <path d="M 31.78125 34.625 
Q 24.75 34.625 20.71875 30.859375 
Q 16.703125 27.09375 16.703125 20.515625 
Q 16.703125 13.921875 20.71875 10.15625 
Q 24.75 6.390625 31.78125 6.390625 
Q 38.8125 6.390625 42.859375 10.171875 
Q 46.921875 13.96875 46.921875 20.515625 
Q 46.921875 27.09375 42.890625 30.859375 
Q 38.875 34.625 31.78125 34.625 
z
M 21.921875 38.8125 
Q 15.578125 40.375 12.03125 44.71875 
Q 8.5 49.078125 8.5 55.328125 
Q 8.5 64.0625 14.71875 69.140625 
Q 20.953125 74.21875 31.78125 74.21875 
Q 42.671875 74.21875 48.875 69.140625 
Q 55.078125 64.0625 55.078125 55.328125 
Q 55.078125 49.078125 51.53125 44.71875 
Q 48 40.375 41.703125 38.8125 
Q 48.828125 37.15625 52.796875 32.3125 
Q 56.78125 27.484375 56.78125 20.515625 
Q 56.78125 9.90625 50.3125 4.234375 
Q 43.84375 -1.421875 31.78125 -1.421875 
Q 19.734375 -1.421875 13.25 4.234375 
Q 6.78125 9.90625 6.78125 20.515625 
Q 6.78125 27.484375 10.78125 32.3125 
Q 14.796875 37.15625 21.921875 38.8125 
z
M 18.3125 54.390625 
Q 18.3125 48.734375 21.84375 45.5625 
Q 25.390625 42.390625 31.78125 42.390625 
Q 38.140625 42.390625 41.71875 45.5625 
Q 45.3125 48.734375 45.3125 54.390625 
Q 45.3125 60.0625 41.71875 63.234375 
Q 38.140625 66.40625 31.78125 66.40625 
Q 25.390625 66.40625 21.84375 63.234375 
Q 18.3125 60.0625 18.3125 54.390625 
z
" id="DejaVuSans-56"/>
      </defs>
      <g transform="translate(324.272597 322.182437)scale(0.1 -0.1)">
       <use xlink:href="#DejaVuSans-56"/>
       <use x="63.623047" xlink:href="#DejaVuSans-48"/>
       <use x="127.246094" xlink:href="#DejaVuSans-48"/>
      </g>
     </g>
    </g>
    <g id="xtick_6">
     <g id="line2d_6">
      <g>
       <use style="stroke:#000000;stroke-width:0.8;" x="398.812252" xlink:href="#m2c6aade556" y="307.584"/>
      </g>
     </g>
     <g id="text_6">
      <!-- 1000 -->
      <defs>
       <path d="M 12.40625 8.296875 
L 28.515625 8.296875 
L 28.515625 63.921875 
L 10.984375 60.40625 
L 10.984375 69.390625 
L 28.421875 72.90625 
L 38.28125 72.90625 
L 38.28125 8.296875 
L 54.390625 8.296875 
L 54.390625 0 
L 12.40625 0 
z
" id="DejaVuSans-49"/>
      </defs>
      <g transform="translate(386.087252 322.182437)scale(0.1 -0.1)">
       <use xlink:href="#DejaVuSans-49"/>
       <use x="63.623047" xlink:href="#DejaVuSans-48"/>
       <use x="127.246094" xlink:href="#DejaVuSans-48"/>
       <use x="190.869141" xlink:href="#DejaVuSans-48"/>
      </g>
     </g>
    </g>
    <g id="text_7">
     <!-- Epoch -->
     <defs>
      <path d="M 9.8125 72.90625 
L 55.90625 72.90625 
L 55.90625 64.59375 
L 19.671875 64.59375 
L 19.671875 43.015625 
L 54.390625 43.015625 
L 54.390625 34.71875 
L 19.671875 34.71875 
L 19.671875 8.296875 
L 56.78125 8.296875 
L 56.78125 0 
L 9.8125 0 
z
" id="DejaVuSans-69"/>
      <path d="M 18.109375 8.203125 
L 18.109375 -20.796875 
L 9.078125 -20.796875 
L 9.078125 54.6875 
L 18.109375 54.6875 
L 18.109375 46.390625 
Q 20.953125 51.265625 25.265625 53.625 
Q 29.59375 56 35.59375 56 
Q 45.5625 56 51.78125 48.09375 
Q 58.015625 40.1875 58.015625 27.296875 
Q 58.015625 14.40625 51.78125 6.484375 
Q 45.5625 -1.421875 35.59375 -1.421875 
Q 29.59375 -1.421875 25.265625 0.953125 
Q 20.953125 3.328125 18.109375 8.203125 
z
M 48.6875 27.296875 
Q 48.6875 37.203125 44.609375 42.84375 
Q 40.53125 48.484375 33.40625 48.484375 
Q 26.265625 48.484375 22.1875 42.84375 
Q 18.109375 37.203125 18.109375 27.296875 
Q 18.109375 17.390625 22.1875 11.75 
Q 26.265625 6.109375 33.40625 6.109375 
Q 40.53125 6.109375 44.609375 11.75 
Q 48.6875 17.390625 48.6875 27.296875 
z
" id="DejaVuSans-112"/>
      <path d="M 30.609375 48.390625 
Q 23.390625 48.390625 19.1875 42.75 
Q 14.984375 37.109375 14.984375 27.296875 
Q 14.984375 17.484375 19.15625 11.84375 
Q 23.34375 6.203125 30.609375 6.203125 
Q 37.796875 6.203125 41.984375 11.859375 
Q 46.1875 17.53125 46.1875 27.296875 
Q 46.1875 37.015625 41.984375 42.703125 
Q 37.796875 48.390625 30.609375 48.390625 
z
M 30.609375 56 
Q 42.328125 56 49.015625 48.375 
Q 55.71875 40.765625 55.71875 27.296875 
Q 55.71875 13.875 49.015625 6.21875 
Q 42.328125 -1.421875 30.609375 -1.421875 
Q 18.84375 -1.421875 12.171875 6.21875 
Q 5.515625 13.875 5.515625 27.296875 
Q 5.515625 40.765625 12.171875 48.375 
Q 18.84375 56 30.609375 56 
z
" id="DejaVuSans-111"/>
      <path d="M 48.78125 52.59375 
L 48.78125 44.1875 
Q 44.96875 46.296875 41.140625 47.34375 
Q 37.3125 48.390625 33.40625 48.390625 
Q 24.65625 48.390625 19.8125 42.84375 
Q 14.984375 37.3125 14.984375 27.296875 
Q 14.984375 17.28125 19.8125 11.734375 
Q 24.65625 6.203125 33.40625 6.203125 
Q 37.3125 6.203125 41.140625 7.25 
Q 44.96875 8.296875 48.78125 10.40625 
L 48.78125 2.09375 
Q 45.015625 0.34375 40.984375 -0.53125 
Q 36.96875 -1.421875 32.421875 -1.421875 
Q 20.0625 -1.421875 12.78125 6.34375 
Q 5.515625 14.109375 5.515625 27.296875 
Q 5.515625 40.671875 12.859375 48.328125 
Q 20.21875 56 33.015625 56 
Q 37.15625 56 41.109375 55.140625 
Q 45.0625 54.296875 48.78125 52.59375 
z
" id="DejaVuSans-99"/>
      <path d="M 54.890625 33.015625 
L 54.890625 0 
L 45.90625 0 
L 45.90625 32.71875 
Q 45.90625 40.484375 42.875 44.328125 
Q 39.84375 48.1875 33.796875 48.1875 
Q 26.515625 48.1875 22.3125 43.546875 
Q 18.109375 38.921875 18.109375 30.90625 
L 18.109375 0 
L 9.078125 0 
L 9.078125 75.984375 
L 18.109375 75.984375 
L 18.109375 46.1875 
Q 21.34375 51.125 25.703125 53.5625 
Q 30.078125 56 35.796875 56 
Q 45.21875 56 50.046875 50.171875 
Q 54.890625 44.34375 54.890625 33.015625 
z
" id="DejaVuSans-104"/>
     </defs>
     <g transform="translate(220.849063 335.860562)scale(0.1 -0.1)">
      <use xlink:href="#DejaVuSans-69"/>
      <use x="63.183594" xlink:href="#DejaVuSans-112"/>
      <use x="126.660156" xlink:href="#DejaVuSans-111"/>
      <use x="187.841797" xlink:href="#DejaVuSans-99"/>
      <use x="242.822266" xlink:href="#DejaVuSans-104"/>
     </g>
    </g>
   </g>
   <g id="matplotlib.axis_2">
    <g id="ytick_1">
     <g id="line2d_7">
      <defs>
       <path d="M 0 0 
L -3.5 0 
" id="mb74a340028" style="stroke:#000000;stroke-width:0.8;"/>
      </defs>
      <g>
       <use style="stroke:#000000;stroke-width:0.8;" x="57.6" xlink:href="#mb74a340028" y="299.068483"/>
      </g>
     </g>
     <g id="text_8">
      <!-- 0.0 -->
      <defs>
       <path d="M 10.6875 12.40625 
L 21 12.40625 
L 21 0 
L 10.6875 0 
z
" id="DejaVuSans-46"/>
      </defs>
      <g transform="translate(34.696875 302.867702)scale(0.1 -0.1)">
       <use xlink:href="#DejaVuSans-48"/>
       <use x="63.623047" xlink:href="#DejaVuSans-46"/>
       <use x="95.410156" xlink:href="#DejaVuSans-48"/>
      </g>
     </g>
    </g>
    <g id="ytick_2">
     <g id="line2d_8">
      <g>
       <use style="stroke:#000000;stroke-width:0.8;" x="57.6" xlink:href="#mb74a340028" y="263.616597"/>
      </g>
     </g>
     <g id="text_9">
      <!-- 0.2 -->
      <g transform="translate(34.696875 267.415816)scale(0.1 -0.1)">
       <use xlink:href="#DejaVuSans-48"/>
       <use x="63.623047" xlink:href="#DejaVuSans-46"/>
       <use x="95.410156" xlink:href="#DejaVuSans-50"/>
      </g>
     </g>
    </g>
    <g id="ytick_3">
     <g id="line2d_9">
      <g>
       <use style="stroke:#000000;stroke-width:0.8;" x="57.6" xlink:href="#mb74a340028" y="228.164711"/>
      </g>
     </g>
     <g id="text_10">
      <!-- 0.4 -->
      <g transform="translate(34.696875 231.96393)scale(0.1 -0.1)">
       <use xlink:href="#DejaVuSans-48"/>
       <use x="63.623047" xlink:href="#DejaVuSans-46"/>
       <use x="95.410156" xlink:href="#DejaVuSans-52"/>
      </g>
     </g>
    </g>
    <g id="ytick_4">
     <g id="line2d_10">
      <g>
       <use style="stroke:#000000;stroke-width:0.8;" x="57.6" xlink:href="#mb74a340028" y="192.712826"/>
      </g>
     </g>
     <g id="text_11">
      <!-- 0.6 -->
      <g transform="translate(34.696875 196.512044)scale(0.1 -0.1)">
       <use xlink:href="#DejaVuSans-48"/>
       <use x="63.623047" xlink:href="#DejaVuSans-46"/>
       <use x="95.410156" xlink:href="#DejaVuSans-54"/>
      </g>
     </g>
    </g>
    <g id="ytick_5">
     <g id="line2d_11">
      <g>
       <use style="stroke:#000000;stroke-width:0.8;" x="57.6" xlink:href="#mb74a340028" y="157.26094"/>
      </g>
     </g>
     <g id="text_12">
      <!-- 0.8 -->
      <g transform="translate(34.696875 161.060158)scale(0.1 -0.1)">
       <use xlink:href="#DejaVuSans-48"/>
       <use x="63.623047" xlink:href="#DejaVuSans-46"/>
       <use x="95.410156" xlink:href="#DejaVuSans-56"/>
      </g>
     </g>
    </g>
    <g id="ytick_6">
     <g id="line2d_12">
      <g>
       <use style="stroke:#000000;stroke-width:0.8;" x="57.6" xlink:href="#mb74a340028" y="121.809054"/>
      </g>
     </g>
     <g id="text_13">
      <!-- 1.0 -->
      <g transform="translate(34.696875 125.608273)scale(0.1 -0.1)">
       <use xlink:href="#DejaVuSans-49"/>
       <use x="63.623047" xlink:href="#DejaVuSans-46"/>
       <use x="95.410156" xlink:href="#DejaVuSans-48"/>
      </g>
     </g>
    </g>
    <g id="ytick_7">
     <g id="line2d_13">
      <g>
       <use style="stroke:#000000;stroke-width:0.8;" x="57.6" xlink:href="#mb74a340028" y="86.357168"/>
      </g>
     </g>
     <g id="text_14">
      <!-- 1.2 -->
      <g transform="translate(34.696875 90.156387)scale(0.1 -0.1)">
       <use xlink:href="#DejaVuSans-49"/>
       <use x="63.623047" xlink:href="#DejaVuSans-46"/>
       <use x="95.410156" xlink:href="#DejaVuSans-50"/>
      </g>
     </g>
    </g>
    <g id="ytick_8">
     <g id="line2d_14">
      <g>
       <use style="stroke:#000000;stroke-width:0.8;" x="57.6" xlink:href="#mb74a340028" y="50.905282"/>
      </g>
     </g>
     <g id="text_15">
      <!-- 1.4 -->
      <g transform="translate(34.696875 54.704501)scale(0.1 -0.1)">
       <use xlink:href="#DejaVuSans-49"/>
       <use x="63.623047" xlink:href="#DejaVuSans-46"/>
       <use x="95.410156" xlink:href="#DejaVuSans-52"/>
      </g>
     </g>
    </g>
    <g id="text_16">
     <!-- Loss -->
     <defs>
      <path d="M 9.8125 72.90625 
L 19.671875 72.90625 
L 19.671875 8.296875 
L 55.171875 8.296875 
L 55.171875 0 
L 9.8125 0 
z
" id="DejaVuSans-76"/>
      <path d="M 44.28125 53.078125 
L 44.28125 44.578125 
Q 40.484375 46.53125 36.375 47.5 
Q 32.28125 48.484375 27.875 48.484375 
Q 21.1875 48.484375 17.84375 46.4375 
Q 14.5 44.390625 14.5 40.28125 
Q 14.5 37.15625 16.890625 35.375 
Q 19.28125 33.59375 26.515625 31.984375 
L 29.59375 31.296875 
Q 39.15625 29.25 43.1875 25.515625 
Q 47.21875 21.78125 47.21875 15.09375 
Q 47.21875 7.46875 41.1875 3.015625 
Q 35.15625 -1.421875 24.609375 -1.421875 
Q 20.21875 -1.421875 15.453125 -0.5625 
Q 10.6875 0.296875 5.421875 2 
L 5.421875 11.28125 
Q 10.40625 8.6875 15.234375 7.390625 
Q 20.0625 6.109375 24.8125 6.109375 
Q 31.15625 6.109375 34.5625 8.28125 
Q 37.984375 10.453125 37.984375 14.40625 
Q 37.984375 18.0625 35.515625 20.015625 
Q 33.0625 21.96875 24.703125 23.78125 
L 21.578125 24.515625 
Q 13.234375 26.265625 9.515625 29.90625 
Q 5.8125 33.546875 5.8125 39.890625 
Q 5.8125 47.609375 11.28125 51.796875 
Q 16.75 56 26.8125 56 
Q 31.78125 56 36.171875 55.265625 
Q 40.578125 54.546875 44.28125 53.078125 
z
" id="DejaVuSans-115"/>
     </defs>
     <g transform="translate(28.617188 185.581906)rotate(-90)scale(0.1 -0.1)">
      <use xlink:href="#DejaVuSans-76"/>
      <use x="55.697266" xlink:href="#DejaVuSans-111"/>
      <use x="116.878906" xlink:href="#DejaVuSans-115"/>
      <use x="168.978516" xlink:href="#DejaVuSans-115"/>
     </g>
    </g>
   </g>
   <g id="line2d_15">
    <path clip-path="url(#p80dc1c33a9)" d="M 73.832727 53.568 
L 74.157707 54.461798 
L 75.132645 60.2262 
L 75.457625 61.937893 
L 75.782604 65.318109 
L 76.432563 75.993412 
L 78.382441 130.346864 
L 78.70742 133.498073 
L 79.0324 142.658951 
L 79.357379 143.025108 
L 79.682359 148.305748 
L 80.007338 149.005944 
L 80.332318 160.228708 
L 80.657297 156.768808 
L 80.982277 165.078573 
L 81.307256 167.283632 
L 81.632236 166.267644 
L 81.957215 171.909941 
L 82.282195 170.395389 
L 82.607174 179.203834 
L 82.932154 179.88217 
L 83.257133 188.384977 
L 83.582113 181.13549 
L 84.232072 195.878526 
L 84.557052 194.528077 
L 84.882031 197.982082 
L 85.207011 203.248808 
L 85.53199 204.986112 
L 85.85697 203.358309 
L 86.181949 206.977959 
L 86.506929 215.05513 
L 86.831908 213.014053 
L 87.156888 214.285789 
L 87.481867 222.781194 
L 87.806847 221.674401 
L 88.131826 224.192648 
L 88.456806 223.208547 
L 88.781785 235.189416 
L 89.106765 232.932063 
L 89.431744 240.133989 
L 89.756724 239.45092 
L 90.081704 246.331687 
L 90.731663 239.224555 
L 91.056642 240.883156 
L 91.381622 244.401019 
L 91.706601 238.505949 
L 92.031581 256.703521 
L 92.35656 247.188997 
L 92.68154 259.920521 
L 93.006519 246.45291 
L 93.331499 258.002016 
L 93.981458 263.343669 
L 94.306437 263.350455 
L 94.631417 267.853224 
L 94.956396 261.126597 
L 95.281376 267.860377 
L 95.606355 267.657966 
L 95.931335 268.545338 
L 96.256314 275.999335 
L 96.581294 271.293988 
L 97.231253 276.231292 
L 97.556233 272.838562 
L 97.881212 273.408464 
L 98.206192 275.750214 
L 98.531171 280.534062 
L 98.856151 278.520759 
L 99.18113 280.384505 
L 99.50611 278.496414 
L 99.831089 277.888753 
L 100.156069 274.47785 
L 100.481048 284.744271 
L 100.806028 282.026711 
L 101.131007 285.494403 
L 101.455987 286.348559 
L 101.780966 284.856828 
L 102.105946 284.464937 
L 102.430925 278.045825 
L 102.755905 281.422624 
L 103.080885 288.038082 
L 103.405864 282.633608 
L 103.730844 288.430308 
L 104.055823 288.065288 
L 104.380803 288.090672 
L 104.705782 287.962185 
L 105.030762 286.408505 
L 105.355741 288.113397 
L 105.680721 288.016885 
L 106.0057 281.758095 
L 106.33068 278.743497 
L 106.655659 287.878287 
L 106.980639 286.197799 
L 107.305618 286.87018 
L 107.630598 288.034461 
L 107.955577 285.885678 
L 108.280557 286.004707 
L 108.605536 288.293048 
L 108.930516 285.898604 
L 109.255495 288.986097 
L 109.580475 285.861369 
L 109.905455 286.290581 
L 110.230434 289.240944 
L 110.555414 283.989676 
L 110.880393 283.59638 
L 111.205373 288.065449 
L 111.530352 280.032323 
L 112.180311 287.331909 
L 112.505291 283.556824 
L 112.83027 285.586735 
L 113.15525 289.032892 
L 113.480229 288.650555 
L 113.805209 287.504076 
L 114.130188 286.841719 
L 114.455168 274.577841 
L 114.780147 286.535946 
L 115.105127 230.824349 
L 115.430106 285.151666 
L 115.755086 245.66865 
L 116.080066 275.359106 
L 116.405045 284.983941 
L 116.730025 285.801756 
L 117.055004 283.063166 
L 117.379984 272.831501 
L 117.704963 286.661221 
L 118.029943 277.729979 
L 118.354922 280.000561 
L 118.679902 281.381715 
L 119.004881 278.873924 
L 119.329861 274.91198 
L 119.97982 286.069368 
L 120.304799 281.08541 
L 120.629779 280.657982 
L 121.279738 287.051618 
L 121.604717 288.912282 
L 122.254676 286.67423 
L 122.904636 284.370867 
L 123.229615 287.977376 
L 123.554595 290.325142 
L 123.879574 291.486229 
L 124.204554 287.393206 
L 124.529533 289.297422 
L 124.854513 285.911756 
L 125.179492 285.552997 
L 125.504472 284.724985 
L 125.829451 288.766187 
L 126.154431 289.219241 
L 126.80439 289.55773 
L 127.129369 290.443566 
L 127.454349 289.096587 
L 127.779328 292.192308 
L 128.104308 289.432467 
L 128.429287 288.10302 
L 128.754267 289.682819 
L 129.079247 288.447959 
L 129.404226 286.380351 
L 129.729206 285.871408 
L 130.054185 287.937336 
L 130.379165 285.327947 
L 130.704144 291.696711 
L 131.029124 287.845689 
L 131.354103 290.550924 
L 131.679083 290.64335 
L 132.004062 292.055973 
L 132.329042 282.019572 
L 132.654021 287.216344 
L 132.979001 282.169158 
L 133.30398 290.681508 
L 133.62896 288.503466 
L 133.953939 287.810947 
L 134.603898 287.625735 
L 134.928878 284.857528 
L 135.578837 290.266727 
L 135.903817 288.207413 
L 136.228796 290.665984 
L 136.553776 288.904091 
L 136.878755 290.030962 
L 137.203735 288.893756 
L 137.528714 291.611322 
L 137.853694 288.693807 
L 138.178673 290.003625 
L 138.503653 288.654969 
L 138.828632 291.130554 
L 139.153612 289.3134 
L 139.478591 291.953901 
L 139.803571 292.154175 
L 140.12855 289.57779 
L 140.45353 292.419033 
L 140.778509 283.634063 
L 141.103489 284.996708 
L 141.428468 290.104651 
L 141.753448 291.248447 
L 142.078428 290.155631 
L 142.403407 290.929349 
L 142.728387 292.244055 
L 143.378346 286.524683 
L 143.703325 291.987159 
L 144.028305 288.178772 
L 144.353284 288.808869 
L 144.678264 291.577961 
L 145.003243 290.636173 
L 145.328223 289.33978 
L 145.653202 289.674847 
L 145.978182 291.849907 
L 146.303161 292.935114 
L 146.628141 289.037194 
L 146.95312 289.465981 
L 147.2781 291.716904 
L 147.603079 288.744025 
L 147.928059 291.996881 
L 148.253038 287.516785 
L 148.578018 290.690225 
L 149.227977 289.292717 
L 149.552957 288.149419 
L 149.877936 289.298852 
L 150.527895 292.735667 
L 150.852875 289.55859 
L 151.177854 291.016358 
L 151.502834 290.253303 
L 151.827813 289.91708 
L 152.152793 290.259114 
L 152.477772 289.92789 
L 152.802752 291.374565 
L 153.127731 291.457239 
L 153.452711 291.675932 
L 153.77769 290.111983 
L 154.10267 291.9572 
L 154.427649 291.990398 
L 154.752629 291.051843 
L 155.077609 291.024576 
L 155.402588 293.708837 
L 155.727568 291.38278 
L 156.052547 290.034041 
L 156.377527 293.390128 
L 156.702506 288.68429 
L 157.027486 290.736527 
L 157.352465 290.28108 
L 157.677445 292.938776 
L 158.002424 292.283526 
L 158.327404 291.180542 
L 158.652383 289.482216 
L 158.977363 289.553088 
L 159.302342 288.819132 
L 159.952301 294.034519 
L 160.277281 292.291118 
L 160.60226 287.449863 
L 160.92724 285.235952 
L 161.252219 290.374253 
L 161.577199 290.972429 
L 161.902179 289.840151 
L 162.227158 288.238653 
L 162.552138 290.365015 
L 163.202097 292.880713 
L 163.527076 288.193262 
L 163.852056 292.46844 
L 164.177035 288.186965 
L 164.502015 288.399794 
L 164.826994 291.597679 
L 165.151974 293.317567 
L 165.476953 291.221027 
L 165.801933 290.91866 
L 166.126912 288.32962 
L 166.451892 292.152223 
L 166.776871 290.299721 
L 167.101851 286.162075 
L 167.42683 288.682165 
L 167.75181 292.330767 
L 168.401769 289.006765 
L 168.726749 288.725758 
L 169.051728 291.717672 
L 169.376708 287.890155 
L 169.701687 289.579625 
L 170.026667 285.896125 
L 170.351646 290.510536 
L 170.676626 292.287948 
L 171.001605 291.166501 
L 171.326585 288.883035 
L 171.651564 290.311279 
L 172.301523 289.186191 
L 172.626503 290.845849 
L 172.951482 290.917333 
L 173.276462 288.189843 
L 173.601441 292.00543 
L 173.926421 291.847692 
L 174.2514 288.100534 
L 174.57638 289.959564 
L 174.90136 289.160737 
L 175.226339 289.508042 
L 175.876298 292.441687 
L 176.201278 293.458599 
L 176.526257 290.322726 
L 176.851237 290.817819 
L 177.176216 289.312574 
L 177.501196 291.402672 
L 177.826175 291.444731 
L 178.151155 294.257948 
L 178.476134 291.827435 
L 178.801114 291.100432 
L 179.126093 291.406613 
L 179.451073 288.734023 
L 179.776052 291.401643 
L 180.426011 286.632045 
L 180.750991 289.568013 
L 181.075971 286.547666 
L 181.40095 291.894136 
L 181.72593 290.380889 
L 182.050909 289.836857 
L 182.375889 292.610483 
L 182.700868 291.55358 
L 183.025848 289.950047 
L 183.350827 291.552481 
L 183.675807 291.581492 
L 184.000786 289.153859 
L 184.325766 289.700924 
L 184.650745 286.344057 
L 184.975725 290.25926 
L 185.300704 290.432717 
L 185.625684 289.783055 
L 185.950663 293.363762 
L 186.275643 293.469586 
L 186.600622 292.816276 
L 186.925602 292.503565 
L 187.250581 288.371429 
L 187.575561 291.560233 
L 187.900541 289.656753 
L 188.22552 289.46041 
L 188.5505 288.724847 
L 188.875479 294.652398 
L 189.200459 291.068041 
L 189.525438 292.513968 
L 189.850418 290.258149 
L 190.175397 283.808354 
L 190.500377 291.344461 
L 190.825356 288.254468 
L 191.150336 292.180683 
L 191.475315 292.35999 
L 191.800295 287.699952 
L 192.125274 290.841388 
L 192.450254 292.678721 
L 192.775233 287.385114 
L 193.100213 291.969545 
L 193.425192 288.844153 
L 193.750172 291.525281 
L 194.075152 291.033595 
L 194.400131 288.635337 
L 194.725111 293.311099 
L 195.05009 290.321938 
L 195.37507 292.062109 
L 195.700049 291.297626 
L 196.025029 289.694024 
L 196.350008 289.213667 
L 196.674988 290.795315 
L 196.999967 291.110985 
L 197.324947 290.507554 
L 197.649926 291.936844 
L 197.974906 294.890168 
L 198.299885 290.861129 
L 198.624865 288.853319 
L 198.949844 290.608079 
L 199.274824 289.181265 
L 199.599803 288.826342 
L 199.924783 290.747461 
L 200.249762 290.780152 
L 200.574742 290.386619 
L 200.899722 292.411333 
L 201.224701 289.097569 
L 201.549681 292.393122 
L 201.87466 287.418064 
L 202.19964 294.041881 
L 202.524619 289.795919 
L 202.849599 293.661363 
L 203.174578 290.296251 
L 203.499558 292.492771 
L 203.824537 291.490193 
L 204.149517 292.714198 
L 204.474496 293.073141 
L 204.799476 294.173737 
L 205.124455 289.986775 
L 205.449435 290.664686 
L 205.774414 290.825554 
L 206.099394 290.237106 
L 206.424373 292.599971 
L 206.749353 291.187831 
L 207.074333 293.680959 
L 207.399312 292.399865 
L 207.724292 284.207274 
L 208.374251 293.208366 
L 208.69923 287.590531 
L 209.02421 289.165219 
L 209.349189 289.601497 
L 209.674169 291.190026 
L 209.999148 288.466279 
L 210.324128 291.968783 
L 210.649107 289.694051 
L 210.974087 292.890884 
L 211.299066 290.572354 
L 211.624046 290.450511 
L 211.949025 293.386214 
L 212.274005 290.252305 
L 212.923964 293.731529 
L 213.248943 293.832953 
L 213.573923 293.667832 
L 213.898903 288.978062 
L 214.223882 286.82097 
L 214.548862 290.05114 
L 214.873841 290.088058 
L 215.198821 289.616078 
L 215.5238 289.880934 
L 215.84878 289.894343 
L 216.173759 292.212414 
L 216.498739 293.638899 
L 216.823718 289.289255 
L 217.148698 292.34365 
L 217.473677 291.541093 
L 217.798657 292.383571 
L 218.123636 292.244867 
L 218.448616 293.361071 
L 218.773595 291.692571 
L 219.098575 293.547984 
L 219.748534 288.049049 
L 220.073514 290.95748 
L 220.398493 290.178574 
L 220.723473 291.579639 
L 221.048452 289.84914 
L 221.373432 290.749233 
L 221.698411 290.671029 
L 222.023391 292.008605 
L 222.34837 289.362738 
L 222.67335 293.397741 
L 222.998329 291.149027 
L 223.323309 294.093733 
L 223.648288 294.993731 
L 223.973268 292.95707 
L 224.298247 285.541651 
L 224.623227 290.798015 
L 224.948206 292.420969 
L 225.273186 289.727774 
L 225.598165 291.463397 
L 225.923145 290.722909 
L 226.248124 287.419682 
L 226.573104 288.188139 
L 226.898084 291.195624 
L 227.223063 289.085252 
L 227.548043 288.716001 
L 227.873022 292.797498 
L 228.198002 293.23231 
L 228.522981 288.24053 
L 228.847961 291.874974 
L 229.17294 288.554586 
L 229.49792 292.200255 
L 229.822899 292.283486 
L 230.147879 286.505492 
L 230.472858 292.175162 
L 230.797838 291.674572 
L 231.447797 285.441884 
L 231.772776 289.86905 
L 232.097756 287.761323 
L 232.422735 291.038424 
L 232.747715 290.98308 
L 233.072695 291.628427 
L 233.397674 293.226445 
L 233.722654 288.792582 
L 234.047633 290.902818 
L 234.372613 289.293694 
L 234.697592 290.292018 
L 235.022572 290.384402 
L 235.347551 292.839976 
L 235.672531 291.104166 
L 235.99751 290.274589 
L 236.32249 291.918102 
L 236.647469 291.431752 
L 236.972449 292.09305 
L 237.297428 291.001964 
L 237.622408 293.230857 
L 237.947387 291.155645 
L 238.272367 292.497316 
L 238.597346 289.731801 
L 239.247305 290.500797 
L 239.897265 288.296663 
L 240.222244 291.215627 
L 240.547224 291.023721 
L 240.872203 288.718671 
L 241.197183 288.76923 
L 241.522162 288.492945 
L 241.847142 292.484475 
L 242.172121 292.244092 
L 242.497101 284.258319 
L 242.82208 292.547237 
L 243.14706 288.489718 
L 243.797019 294.175275 
L 244.446978 291.544672 
L 244.771957 288.245913 
L 245.096937 286.430019 
L 246.071876 290.756825 
L 246.396855 291.058279 
L 246.721835 290.93744 
L 247.046814 292.03487 
L 247.371794 290.949263 
L 247.696773 293.422506 
L 248.021753 289.44583 
L 248.346732 290.457058 
L 248.671712 289.886856 
L 248.996691 289.878579 
L 249.321671 290.803491 
L 249.64665 290.357367 
L 249.97163 293.397731 
L 250.296609 290.24082 
L 250.621589 289.410733 
L 250.946568 293.92324 
L 251.271548 291.713334 
L 251.596527 292.846741 
L 251.921507 291.200676 
L 252.246486 292.503568 
L 252.896446 291.371044 
L 253.221425 291.560217 
L 253.546405 290.555561 
L 253.871384 290.294217 
L 254.196364 292.415986 
L 254.521343 289.419158 
L 254.846323 292.184345 
L 255.496282 290.432708 
L 255.821261 292.438275 
L 256.146241 291.843234 
L 256.47122 293.526009 
L 257.121179 294.119471 
L 257.446159 292.410186 
L 257.771138 292.123243 
L 258.096118 293.980288 
L 258.421097 292.121958 
L 258.746077 292.302269 
L 259.071057 289.74112 
L 259.396036 292.497075 
L 260.045995 290.815914 
L 260.370975 293.216724 
L 260.695954 290.756341 
L 261.020934 293.029588 
L 261.345913 291.053328 
L 261.670893 291.961934 
L 261.995872 290.767094 
L 262.320852 292.237214 
L 262.645831 292.391038 
L 262.970811 293.837913 
L 263.29579 292.277916 
L 263.62077 293.078789 
L 263.945749 291.238729 
L 264.595708 293.908346 
L 264.920688 290.202898 
L 265.245667 290.853558 
L 265.570647 293.255761 
L 265.895627 293.820181 
L 266.220606 286.009706 
L 266.545586 295.48646 
L 266.870565 290.277968 
L 267.520524 292.140613 
L 267.845504 291.872122 
L 268.170483 290.98643 
L 268.495463 289.608724 
L 268.820442 289.613025 
L 269.145422 291.440287 
L 269.470401 286.666477 
L 270.12036 293.979641 
L 270.44534 293.294353 
L 270.770319 291.71914 
L 271.095299 292.479561 
L 271.420278 292.394553 
L 271.745258 293.268845 
L 272.070238 289.489212 
L 272.395217 289.983954 
L 273.045176 292.529409 
L 273.370156 290.996845 
L 273.695135 292.078616 
L 274.020115 286.283369 
L 274.345094 292.549349 
L 274.995053 289.569429 
L 275.320033 292.452928 
L 275.645012 292.864523 
L 275.969992 294.031473 
L 276.294971 290.738534 
L 276.619951 289.774653 
L 276.94493 292.619017 
L 277.26991 293.303068 
L 277.594889 289.302612 
L 277.919869 289.20476 
L 278.244848 292.608693 
L 278.569828 291.63302 
L 278.894808 291.927528 
L 279.544767 288.511688 
L 279.869746 290.923057 
L 280.194726 289.041897 
L 280.519705 292.537012 
L 280.844685 291.931716 
L 281.169664 292.644045 
L 281.494644 290.936444 
L 281.819623 289.896248 
L 282.144603 291.17819 
L 282.469582 292.934218 
L 282.794562 289.261223 
L 283.119541 290.948955 
L 283.444521 291.349939 
L 283.7695 290.987991 
L 284.09448 292.875326 
L 284.419459 292.247922 
L 284.744439 290.866767 
L 285.069419 294.885923 
L 285.394398 292.71062 
L 285.719378 295.488 
L 286.044357 292.343947 
L 286.369337 291.307856 
L 286.694316 288.343882 
L 287.019296 290.553984 
L 287.344275 290.081557 
L 287.669255 291.714022 
L 287.994234 289.284655 
L 288.319214 293.782324 
L 288.644193 292.815161 
L 288.969173 292.198051 
L 289.294152 290.954465 
L 289.619132 292.604555 
L 289.944111 292.333519 
L 290.269091 291.914149 
L 290.59407 289.414769 
L 290.91905 293.69968 
L 291.244029 291.928324 
L 291.569009 291.765461 
L 292.218968 290.036944 
L 292.543948 291.934836 
L 292.868927 295.075089 
L 293.193907 291.647114 
L 293.518886 290.977095 
L 293.843866 294.643545 
L 294.168845 292.41035 
L 294.493825 289.239454 
L 295.143784 291.784202 
L 295.468763 292.74427 
L 295.793743 290.689816 
L 296.118722 293.75012 
L 296.443702 290.88007 
L 296.768681 291.064073 
L 297.093661 288.430627 
L 297.74362 291.154592 
L 298.0686 291.272249 
L 298.393579 291.69341 
L 298.718559 291.778552 
L 299.043538 289.800149 
L 299.368518 289.262942 
L 299.693497 294.117398 
L 300.018477 291.877418 
L 300.343456 294.21928 
L 300.668436 289.797982 
L 300.993415 292.942885 
L 301.318395 291.862971 
L 301.643374 292.67226 
L 301.968354 293.016905 
L 302.293333 289.042168 
L 302.618313 291.221218 
L 302.943292 291.220877 
L 303.268272 290.78829 
L 303.593251 292.060399 
L 303.918231 291.941103 
L 304.24321 293.872552 
L 304.56819 284.617566 
L 304.89317 293.046475 
L 305.218149 290.277385 
L 305.543129 290.425268 
L 305.868108 289.930024 
L 306.193088 288.920489 
L 306.518067 292.87929 
L 306.843047 290.366287 
L 307.168026 289.126743 
L 307.493006 288.901217 
L 307.817985 289.320093 
L 308.142965 292.217019 
L 308.467944 289.958704 
L 308.792924 286.052953 
L 309.117903 291.448071 
L 309.442883 288.455794 
L 309.767862 287.137975 
L 310.092842 288.998746 
L 310.417821 286.562985 
L 310.742801 292.674522 
L 311.067781 288.558713 
L 311.39276 288.562085 
L 312.042719 294.395203 
L 312.367699 285.654754 
L 312.692678 288.247327 
L 313.017658 262.893138 
L 313.342637 289.857696 
L 313.667617 273.786642 
L 313.992596 265.058212 
L 314.642555 287.114591 
L 314.967535 282.691669 
L 315.292514 254.772057 
L 315.617494 285.332021 
L 315.942473 282.113094 
L 316.267453 272.187823 
L 316.592432 284.889605 
L 316.917412 272.19543 
L 317.242391 269.418372 
L 317.567371 272.642081 
L 317.892351 286.238978 
L 318.21733 286.252403 
L 318.54231 280.552096 
L 318.867289 285.287484 
L 319.192269 287.829399 
L 319.517248 282.412023 
L 319.842228 283.187612 
L 320.167207 283.150613 
L 320.492187 270.817522 
L 320.817166 286.501252 
L 321.142146 284.361197 
L 321.467125 275.808646 
L 321.792105 285.156168 
L 322.117084 283.176191 
L 322.442064 288.524337 
L 322.767043 278.037632 
L 323.092023 284.859406 
L 323.741982 287.421866 
L 324.066962 275.654372 
L 324.391941 286.954182 
L 324.716921 288.809416 
L 325.36688 281.902476 
L 325.691859 284.037826 
L 326.016839 283.649073 
L 326.341818 282.984966 
L 326.991777 289.069248 
L 327.316757 287.729883 
L 327.641736 289.518326 
L 327.966716 286.021794 
L 328.291695 290.029238 
L 328.616675 287.618177 
L 328.941654 286.88324 
L 329.266634 287.418972 
L 329.591613 287.534832 
L 329.916593 282.11625 
L 330.241572 287.056817 
L 330.566552 286.783262 
L 330.891532 288.255522 
L 331.216511 286.108217 
L 331.541491 289.277528 
L 331.86647 285.569676 
L 332.19145 283.569554 
L 332.516429 286.040045 
L 332.841409 290.518043 
L 333.166388 289.541045 
L 333.491368 286.864734 
L 333.816347 292.177029 
L 334.141327 286.36144 
L 334.466306 290.838113 
L 334.791286 290.644249 
L 335.116265 287.421022 
L 335.441245 289.211622 
L 335.766224 287.97304 
L 336.091204 287.833344 
L 336.416183 286.440033 
L 336.741163 289.395408 
L 337.066143 289.130188 
L 337.391122 285.727532 
L 337.716102 285.663182 
L 338.041081 293.725421 
L 338.366061 288.579678 
L 338.69104 290.233117 
L 339.01602 290.562443 
L 339.340999 286.845617 
L 339.665979 288.039051 
L 339.990958 293.301439 
L 340.315938 287.90922 
L 340.640917 290.378743 
L 340.965897 289.677695 
L 341.615856 286.628847 
L 341.940835 287.691244 
L 342.265815 288.099077 
L 342.590794 292.615619 
L 342.915774 292.640246 
L 343.240753 287.620237 
L 343.565733 289.140394 
L 343.890713 287.961581 
L 344.215692 290.7516 
L 344.865651 283.908335 
L 345.190631 289.132363 
L 345.51561 291.900746 
L 345.84059 284.128763 
L 346.165569 291.332979 
L 346.490549 287.709618 
L 346.815528 288.075486 
L 347.140508 291.496028 
L 347.465487 287.137607 
L 347.790467 286.70172 
L 348.115446 288.991065 
L 348.765405 289.449235 
L 349.090385 286.76218 
L 349.415364 288.728784 
L 349.740344 289.788423 
L 350.065324 289.042682 
L 350.390303 288.968052 
L 350.715283 290.515772 
L 351.040262 286.937865 
L 351.365242 289.070134 
L 351.690221 292.409461 
L 352.015201 289.233613 
L 352.66516 288.051275 
L 352.990139 292.627778 
L 353.315119 285.731115 
L 353.640098 287.563935 
L 353.965078 285.161024 
L 354.290057 288.256549 
L 354.615037 286.228668 
L 354.940016 282.964485 
L 355.264996 290.644441 
L 355.589975 284.667378 
L 355.914955 290.083638 
L 356.239934 292.608905 
L 356.564914 288.714904 
L 356.889894 290.334546 
L 357.214873 289.368979 
L 357.539853 290.231128 
L 357.864832 287.131704 
L 358.189812 290.471524 
L 358.514791 292.551556 
L 358.839771 291.467283 
L 359.16475 288.817151 
L 359.48973 291.768233 
L 359.814709 291.903851 
L 360.139689 289.927775 
L 360.464668 292.527739 
L 360.789648 289.53474 
L 361.114627 290.917906 
L 361.439607 286.946068 
L 361.764586 286.855388 
L 362.414545 292.018094 
L 362.739525 287.919458 
L 363.064505 291.275705 
L 363.389484 289.248277 
L 363.714464 293.456763 
L 364.039443 291.181097 
L 364.364423 293.321002 
L 364.689402 291.28738 
L 365.014382 291.951866 
L 365.339361 291.520421 
L 365.664341 288.1172 
L 365.98932 291.117844 
L 366.3143 291.247192 
L 366.639279 289.645043 
L 366.964259 290.678306 
L 367.289238 287.744823 
L 367.614218 287.447404 
L 367.939197 289.618065 
L 368.264177 290.243587 
L 368.589156 288.990177 
L 368.914136 292.741348 
L 369.239115 290.074314 
L 369.564095 289.923506 
L 369.889075 290.67421 
L 370.214054 291.887014 
L 370.539034 290.73231 
L 370.864013 291.755836 
L 371.188993 290.556533 
L 371.513972 291.686272 
L 371.838952 291.005439 
L 372.163931 291.200735 
L 372.488911 293.274646 
L 373.13887 289.154798 
L 373.463849 293.552927 
L 373.788829 294.92695 
L 374.113808 293.019869 
L 374.438788 287.599937 
L 374.763767 292.048484 
L 375.088747 293.344761 
L 375.413726 291.079903 
L 375.738706 290.387508 
L 376.063686 287.994705 
L 376.388665 288.335179 
L 377.038624 291.457071 
L 377.363604 291.886113 
L 377.688583 292.033198 
L 378.013563 285.732964 
L 378.338542 292.331149 
L 378.988501 291.416448 
L 379.313481 289.622306 
L 379.63846 293.271954 
L 379.96344 291.870456 
L 380.288419 291.198676 
L 380.613399 287.818811 
L 380.938378 289.006472 
L 381.263358 291.228385 
L 381.588337 290.49992 
L 381.913317 287.055736 
L 382.238296 291.389242 
L 382.563276 293.696564 
L 382.888256 291.78219 
L 383.213235 291.450928 
L 383.538215 290.08871 
L 383.863194 291.431859 
L 384.188174 292.038279 
L 384.513153 288.736668 
L 384.838133 292.240906 
L 385.163112 291.415487 
L 385.488092 292.422906 
L 385.813071 293.90799 
L 386.138051 293.392281 
L 386.46303 286.525787 
L 386.78801 286.780071 
L 387.112989 290.474607 
L 387.437969 289.496315 
L 387.762948 291.087092 
L 388.087928 290.341746 
L 388.412907 291.675079 
L 388.737887 291.007427 
L 389.062867 287.468474 
L 389.387846 288.158303 
L 389.712826 287.938879 
L 390.037805 288.213374 
L 390.362785 290.07328 
L 390.687764 289.495508 
L 391.012744 289.531969 
L 391.337723 292.551206 
L 391.662703 289.961976 
L 391.987682 293.254683 
L 392.637641 288.687961 
L 392.962621 289.965676 
L 393.2876 290.113499 
L 393.61258 295.329537 
L 394.262539 289.236782 
L 394.587518 290.335926 
L 394.912498 290.044608 
L 395.237477 292.929343 
L 395.562457 290.327482 
L 395.887437 292.243674 
L 396.212416 291.976487 
L 396.537396 290.307139 
L 396.862375 288.020255 
L 397.187355 292.069721 
L 397.512334 292.694481 
L 397.837314 290.151586 
L 398.162293 288.90621 
L 398.487273 291.08351 
L 398.487273 291.08351 
" style="fill:none;stroke:#1f77b4;stroke-linecap:square;stroke-width:1.5;"/>
   </g>
   <g id="patch_3">
    <path d="M 57.6 307.584 
L 57.6 41.472 
" style="fill:none;stroke:#000000;stroke-linecap:square;stroke-linejoin:miter;stroke-width:0.8;"/>
   </g>
   <g id="patch_4">
    <path d="M 414.72 307.584 
L 414.72 41.472 
" style="fill:none;stroke:#000000;stroke-linecap:square;stroke-linejoin:miter;stroke-width:0.8;"/>
   </g>
   <g id="patch_5">
    <path d="M 57.6 307.584 
L 414.72 307.584 
" style="fill:none;stroke:#000000;stroke-linecap:square;stroke-linejoin:miter;stroke-width:0.8;"/>
   </g>
   <g id="patch_6">
    <path d="M 57.6 41.472 
L 414.72 41.472 
" style="fill:none;stroke:#000000;stroke-linecap:square;stroke-linejoin:miter;stroke-width:0.8;"/>
   </g>
   <g id="text_17">
    <!-- Training Loss -->
    <defs>
     <path d="M -0.296875 72.90625 
L 61.375 72.90625 
L 61.375 64.59375 
L 35.5 64.59375 
L 35.5 0 
L 25.59375 0 
L 25.59375 64.59375 
L -0.296875 64.59375 
z
" id="DejaVuSans-84"/>
     <path d="M 41.109375 46.296875 
Q 39.59375 47.171875 37.8125 47.578125 
Q 36.03125 48 33.890625 48 
Q 26.265625 48 22.1875 43.046875 
Q 18.109375 38.09375 18.109375 28.8125 
L 18.109375 0 
L 9.078125 0 
L 9.078125 54.6875 
L 18.109375 54.6875 
L 18.109375 46.1875 
Q 20.953125 51.171875 25.484375 53.578125 
Q 30.03125 56 36.53125 56 
Q 37.453125 56 38.578125 55.875 
Q 39.703125 55.765625 41.0625 55.515625 
z
" id="DejaVuSans-114"/>
     <path d="M 34.28125 27.484375 
Q 23.390625 27.484375 19.1875 25 
Q 14.984375 22.515625 14.984375 16.5 
Q 14.984375 11.71875 18.140625 8.90625 
Q 21.296875 6.109375 26.703125 6.109375 
Q 34.1875 6.109375 38.703125 11.40625 
Q 43.21875 16.703125 43.21875 25.484375 
L 43.21875 27.484375 
z
M 52.203125 31.203125 
L 52.203125 0 
L 43.21875 0 
L 43.21875 8.296875 
Q 40.140625 3.328125 35.546875 0.953125 
Q 30.953125 -1.421875 24.3125 -1.421875 
Q 15.921875 -1.421875 10.953125 3.296875 
Q 6 8.015625 6 15.921875 
Q 6 25.140625 12.171875 29.828125 
Q 18.359375 34.515625 30.609375 34.515625 
L 43.21875 34.515625 
L 43.21875 35.40625 
Q 43.21875 41.609375 39.140625 45 
Q 35.0625 48.390625 27.6875 48.390625 
Q 23 48.390625 18.546875 47.265625 
Q 14.109375 46.140625 10.015625 43.890625 
L 10.015625 52.203125 
Q 14.9375 54.109375 19.578125 55.046875 
Q 24.21875 56 28.609375 56 
Q 40.484375 56 46.34375 49.84375 
Q 52.203125 43.703125 52.203125 31.203125 
z
" id="DejaVuSans-97"/>
     <path d="M 9.421875 54.6875 
L 18.40625 54.6875 
L 18.40625 0 
L 9.421875 0 
z
M 9.421875 75.984375 
L 18.40625 75.984375 
L 18.40625 64.59375 
L 9.421875 64.59375 
z
" id="DejaVuSans-105"/>
     <path d="M 54.890625 33.015625 
L 54.890625 0 
L 45.90625 0 
L 45.90625 32.71875 
Q 45.90625 40.484375 42.875 44.328125 
Q 39.84375 48.1875 33.796875 48.1875 
Q 26.515625 48.1875 22.3125 43.546875 
Q 18.109375 38.921875 18.109375 30.90625 
L 18.109375 0 
L 9.078125 0 
L 9.078125 54.6875 
L 18.109375 54.6875 
L 18.109375 46.1875 
Q 21.34375 51.125 25.703125 53.5625 
Q 30.078125 56 35.796875 56 
Q 45.21875 56 50.046875 50.171875 
Q 54.890625 44.34375 54.890625 33.015625 
z
" id="DejaVuSans-110"/>
     <path d="M 45.40625 27.984375 
Q 45.40625 37.75 41.375 43.109375 
Q 37.359375 48.484375 30.078125 48.484375 
Q 22.859375 48.484375 18.828125 43.109375 
Q 14.796875 37.75 14.796875 27.984375 
Q 14.796875 18.265625 18.828125 12.890625 
Q 22.859375 7.515625 30.078125 7.515625 
Q 37.359375 7.515625 41.375 12.890625 
Q 45.40625 18.265625 45.40625 27.984375 
z
M 54.390625 6.78125 
Q 54.390625 -7.171875 48.1875 -13.984375 
Q 42 -20.796875 29.203125 -20.796875 
Q 24.46875 -20.796875 20.265625 -20.09375 
Q 16.0625 -19.390625 12.109375 -17.921875 
L 12.109375 -9.1875 
Q 16.0625 -11.328125 19.921875 -12.34375 
Q 23.78125 -13.375 27.78125 -13.375 
Q 36.625 -13.375 41.015625 -8.765625 
Q 45.40625 -4.15625 45.40625 5.171875 
L 45.40625 9.625 
Q 42.625 4.78125 38.28125 2.390625 
Q 33.9375 0 27.875 0 
Q 17.828125 0 11.671875 7.65625 
Q 5.515625 15.328125 5.515625 27.984375 
Q 5.515625 40.671875 11.671875 48.328125 
Q 17.828125 56 27.875 56 
Q 33.9375 56 38.28125 53.609375 
Q 42.625 51.21875 45.40625 46.390625 
L 45.40625 54.6875 
L 54.390625 54.6875 
z
" id="DejaVuSans-103"/>
     <path id="DejaVuSans-32"/>
    </defs>
    <g transform="translate(196.445625 35.472)scale(0.12 -0.12)">
     <use xlink:href="#DejaVuSans-84"/>
     <use x="60.865234" xlink:href="#DejaVuSans-114"/>
     <use x="101.978516" xlink:href="#DejaVuSans-97"/>
     <use x="163.257812" xlink:href="#DejaVuSans-105"/>
     <use x="191.041016" xlink:href="#DejaVuSans-110"/>
     <use x="254.419922" xlink:href="#DejaVuSans-105"/>
     <use x="282.203125" xlink:href="#DejaVuSans-110"/>
     <use x="345.582031" xlink:href="#DejaVuSans-103"/>
     <use x="409.058594" xlink:href="#DejaVuSans-32"/>
     <use x="440.845703" xlink:href="#DejaVuSans-76"/>
     <use x="496.542969" xlink:href="#DejaVuSans-111"/>
     <use x="557.724609" xlink:href="#DejaVuSans-115"/>
     <use x="609.824219" xlink:href="#DejaVuSans-115"/>
    </g>
   </g>
  </g>
 </g>
 <defs>
  <clipPath id="p80dc1c33a9">
   <rect height="266.112" width="357.12" x="57.6" y="41.472"/>
  </clipPath>
 </defs>
</svg>
