<?xml version="1.0" encoding="utf-8" standalone="no"?>
<!DOCTYPE svg PUBLIC "-//W3C//DTD SVG 1.1//EN"
  "http://www.w3.org/Graphics/SVG/1.1/DTD/svg11.dtd">
<!-- Created with matplotlib (https://matplotlib.org/) -->
<svg height="345.6pt" version="1.1" viewBox="0 0 460.8 345.6" width="460.8pt" xmlns="http://www.w3.org/2000/svg" xmlns:xlink="http://www.w3.org/1999/xlink">
 <defs>
  <style type="text/css">
*{stroke-linecap:butt;stroke-linejoin:round;}
  </style>
 </defs>
 <g id="figure_1">
  <g id="patch_1">
   <path d="M 0 345.6 
L 460.8 345.6 
L 460.8 0 
L 0 0 
z
" style="fill:#ffffff;"/>
  </g>
  <g id="axes_1">
   <g id="patch_2">
    <path d="M 57.6 307.584 
L 414.72 307.584 
L 414.72 41.472 
L 57.6 41.472 
z
" style="fill:#ffffff;"/>
   </g>
   <g id="matplotlib.axis_1">
    <g id="xtick_1">
     <g id="line2d_1">
      <defs>
       <path d="M 0 0 
L 0 3.5 
" id="mad0f7aa321" style="stroke:#000000;stroke-width:0.8;"/>
      </defs>
      <g>
       <use style="stroke:#000000;stroke-width:0.8;" x="73.832727" xlink:href="#mad0f7aa321" y="307.584"/>
      </g>
     </g>
     <g id="text_1">
      <!-- 0 -->
      <defs>
       <path d="M 31.78125 66.40625 
Q 24.171875 66.40625 20.328125 58.90625 
Q 16.5 51.421875 16.5 36.375 
Q 16.5 21.390625 20.328125 13.890625 
Q 24.171875 6.390625 31.78125 6.390625 
Q 39.453125 6.390625 43.28125 13.890625 
Q 47.125 21.390625 47.125 36.375 
Q 47.125 51.421875 43.28125 58.90625 
Q 39.453125 66.40625 31.78125 66.40625 
z
M 31.78125 74.21875 
Q 44.046875 74.21875 50.515625 64.515625 
Q 56.984375 54.828125 56.984375 36.375 
Q 56.984375 17.96875 50.515625 8.265625 
Q 44.046875 -1.421875 31.78125 -1.421875 
Q 19.53125 -1.421875 13.0625 8.265625 
Q 6.59375 17.96875 6.59375 36.375 
Q 6.59375 54.828125 13.0625 64.515625 
Q 19.53125 74.21875 31.78125 74.21875 
z
" id="DejaVuSans-48"/>
      </defs>
      <g transform="translate(70.651477 322.182437)scale(0.1 -0.1)">
       <use xlink:href="#DejaVuSans-48"/>
      </g>
     </g>
    </g>
    <g id="xtick_2">
     <g id="line2d_2">
      <g>
       <use style="stroke:#000000;stroke-width:0.8;" x="138.828632" xlink:href="#mad0f7aa321" y="307.584"/>
      </g>
     </g>
     <g id="text_2">
      <!-- 200 -->
      <defs>
       <path d="M 19.1875 8.296875 
L 53.609375 8.296875 
L 53.609375 0 
L 7.328125 0 
L 7.328125 8.296875 
Q 12.9375 14.109375 22.625 23.890625 
Q 32.328125 33.6875 34.8125 36.53125 
Q 39.546875 41.84375 41.421875 45.53125 
Q 43.3125 49.21875 43.3125 52.78125 
Q 43.3125 58.59375 39.234375 62.25 
Q 35.15625 65.921875 28.609375 65.921875 
Q 23.96875 65.921875 18.8125 64.3125 
Q 13.671875 62.703125 7.8125 59.421875 
L 7.8125 69.390625 
Q 13.765625 71.78125 18.9375 73 
Q 24.125 74.21875 28.421875 74.21875 
Q 39.75 74.21875 46.484375 68.546875 
Q 53.21875 62.890625 53.21875 53.421875 
Q 53.21875 48.921875 51.53125 44.890625 
Q 49.859375 40.875 45.40625 35.40625 
Q 44.1875 33.984375 37.640625 27.21875 
Q 31.109375 20.453125 19.1875 8.296875 
z
" id="DejaVuSans-50"/>
      </defs>
      <g transform="translate(129.284882 322.182437)scale(0.1 -0.1)">
       <use xlink:href="#DejaVuSans-50"/>
       <use x="63.623047" xlink:href="#DejaVuSans-48"/>
       <use x="127.246094" xlink:href="#DejaVuSans-48"/>
      </g>
     </g>
    </g>
    <g id="xtick_3">
     <g id="line2d_3">
      <g>
       <use style="stroke:#000000;stroke-width:0.8;" x="203.824537" xlink:href="#mad0f7aa321" y="307.584"/>
      </g>
     </g>
     <g id="text_3">
      <!-- 400 -->
      <defs>
       <path d="M 37.796875 64.3125 
L 12.890625 25.390625 
L 37.796875 25.390625 
z
M 35.203125 72.90625 
L 47.609375 72.90625 
L 47.609375 25.390625 
L 58.015625 25.390625 
L 58.015625 17.1875 
L 47.609375 17.1875 
L 47.609375 0 
L 37.796875 0 
L 37.796875 17.1875 
L 4.890625 17.1875 
L 4.890625 26.703125 
z
" id="DejaVuSans-52"/>
      </defs>
      <g transform="translate(194.280787 322.182437)scale(0.1 -0.1)">
       <use xlink:href="#DejaVuSans-52"/>
       <use x="63.623047" xlink:href="#DejaVuSans-48"/>
       <use x="127.246094" xlink:href="#DejaVuSans-48"/>
      </g>
     </g>
    </g>
    <g id="xtick_4">
     <g id="line2d_4">
      <g>
       <use style="stroke:#000000;stroke-width:0.8;" x="268.820442" xlink:href="#mad0f7aa321" y="307.584"/>
      </g>
     </g>
     <g id="text_4">
      <!-- 600 -->
      <defs>
       <path d="M 33.015625 40.375 
Q 26.375 40.375 22.484375 35.828125 
Q 18.609375 31.296875 18.609375 23.390625 
Q 18.609375 15.53125 22.484375 10.953125 
Q 26.375 6.390625 33.015625 6.390625 
Q 39.65625 6.390625 43.53125 10.953125 
Q 47.40625 15.53125 47.40625 23.390625 
Q 47.40625 31.296875 43.53125 35.828125 
Q 39.65625 40.375 33.015625 40.375 
z
M 52.59375 71.296875 
L 52.59375 62.3125 
Q 48.875 64.0625 45.09375 64.984375 
Q 41.3125 65.921875 37.59375 65.921875 
Q 27.828125 65.921875 22.671875 59.328125 
Q 17.53125 52.734375 16.796875 39.40625 
Q 19.671875 43.65625 24.015625 45.921875 
Q 28.375 48.1875 33.59375 48.1875 
Q 44.578125 48.1875 50.953125 41.515625 
Q 57.328125 34.859375 57.328125 23.390625 
Q 57.328125 12.15625 50.6875 5.359375 
Q 44.046875 -1.421875 33.015625 -1.421875 
Q 20.359375 -1.421875 13.671875 8.265625 
Q 6.984375 17.96875 6.984375 36.375 
Q 6.984375 53.65625 15.1875 63.9375 
Q 23.390625 74.21875 37.203125 74.21875 
Q 40.921875 74.21875 44.703125 73.484375 
Q 48.484375 72.75 52.59375 71.296875 
z
" id="DejaVuSans-54"/>
      </defs>
      <g transform="translate(259.276692 322.182437)scale(0.1 -0.1)">
       <use xlink:href="#DejaVuSans-54"/>
       <use x="63.623047" xlink:href="#DejaVuSans-48"/>
       <use x="127.246094" xlink:href="#DejaVuSans-48"/>
      </g>
     </g>
    </g>
    <g id="xtick_5">
     <g id="line2d_5">
      <g>
       <use style="stroke:#000000;stroke-width:0.8;" x="333.816347" xlink:href="#mad0f7aa321" y="307.584"/>
      </g>
     </g>
     <g id="text_5">
      <!-- 800 -->
      <defs>
       <path d="M 31.78125 34.625 
Q 24.75 34.625 20.71875 30.859375 
Q 16.703125 27.09375 16.703125 20.515625 
Q 16.703125 13.921875 20.71875 10.15625 
Q 24.75 6.390625 31.78125 6.390625 
Q 38.8125 6.390625 42.859375 10.171875 
Q 46.921875 13.96875 46.921875 20.515625 
Q 46.921875 27.09375 42.890625 30.859375 
Q 38.875 34.625 31.78125 34.625 
z
M 21.921875 38.8125 
Q 15.578125 40.375 12.03125 44.71875 
Q 8.5 49.078125 8.5 55.328125 
Q 8.5 64.0625 14.71875 69.140625 
Q 20.953125 74.21875 31.78125 74.21875 
Q 42.671875 74.21875 48.875 69.140625 
Q 55.078125 64.0625 55.078125 55.328125 
Q 55.078125 49.078125 51.53125 44.71875 
Q 48 40.375 41.703125 38.8125 
Q 48.828125 37.15625 52.796875 32.3125 
Q 56.78125 27.484375 56.78125 20.515625 
Q 56.78125 9.90625 50.3125 4.234375 
Q 43.84375 -1.421875 31.78125 -1.421875 
Q 19.734375 -1.421875 13.25 4.234375 
Q 6.78125 9.90625 6.78125 20.515625 
Q 6.78125 27.484375 10.78125 32.3125 
Q 14.796875 37.15625 21.921875 38.8125 
z
M 18.3125 54.390625 
Q 18.3125 48.734375 21.84375 45.5625 
Q 25.390625 42.390625 31.78125 42.390625 
Q 38.140625 42.390625 41.71875 45.5625 
Q 45.3125 48.734375 45.3125 54.390625 
Q 45.3125 60.0625 41.71875 63.234375 
Q 38.140625 66.40625 31.78125 66.40625 
Q 25.390625 66.40625 21.84375 63.234375 
Q 18.3125 60.0625 18.3125 54.390625 
z
" id="DejaVuSans-56"/>
      </defs>
      <g transform="translate(324.272597 322.182437)scale(0.1 -0.1)">
       <use xlink:href="#DejaVuSans-56"/>
       <use x="63.623047" xlink:href="#DejaVuSans-48"/>
       <use x="127.246094" xlink:href="#DejaVuSans-48"/>
      </g>
     </g>
    </g>
    <g id="xtick_6">
     <g id="line2d_6">
      <g>
       <use style="stroke:#000000;stroke-width:0.8;" x="398.812252" xlink:href="#mad0f7aa321" y="307.584"/>
      </g>
     </g>
     <g id="text_6">
      <!-- 1000 -->
      <defs>
       <path d="M 12.40625 8.296875 
L 28.515625 8.296875 
L 28.515625 63.921875 
L 10.984375 60.40625 
L 10.984375 69.390625 
L 28.421875 72.90625 
L 38.28125 72.90625 
L 38.28125 8.296875 
L 54.390625 8.296875 
L 54.390625 0 
L 12.40625 0 
z
" id="DejaVuSans-49"/>
      </defs>
      <g transform="translate(386.087252 322.182437)scale(0.1 -0.1)">
       <use xlink:href="#DejaVuSans-49"/>
       <use x="63.623047" xlink:href="#DejaVuSans-48"/>
       <use x="127.246094" xlink:href="#DejaVuSans-48"/>
       <use x="190.869141" xlink:href="#DejaVuSans-48"/>
      </g>
     </g>
    </g>
    <g id="text_7">
     <!-- Epoch -->
     <defs>
      <path d="M 9.8125 72.90625 
L 55.90625 72.90625 
L 55.90625 64.59375 
L 19.671875 64.59375 
L 19.671875 43.015625 
L 54.390625 43.015625 
L 54.390625 34.71875 
L 19.671875 34.71875 
L 19.671875 8.296875 
L 56.78125 8.296875 
L 56.78125 0 
L 9.8125 0 
z
" id="DejaVuSans-69"/>
      <path d="M 18.109375 8.203125 
L 18.109375 -20.796875 
L 9.078125 -20.796875 
L 9.078125 54.6875 
L 18.109375 54.6875 
L 18.109375 46.390625 
Q 20.953125 51.265625 25.265625 53.625 
Q 29.59375 56 35.59375 56 
Q 45.5625 56 51.78125 48.09375 
Q 58.015625 40.1875 58.015625 27.296875 
Q 58.015625 14.40625 51.78125 6.484375 
Q 45.5625 -1.421875 35.59375 -1.421875 
Q 29.59375 -1.421875 25.265625 0.953125 
Q 20.953125 3.328125 18.109375 8.203125 
z
M 48.6875 27.296875 
Q 48.6875 37.203125 44.609375 42.84375 
Q 40.53125 48.484375 33.40625 48.484375 
Q 26.265625 48.484375 22.1875 42.84375 
Q 18.109375 37.203125 18.109375 27.296875 
Q 18.109375 17.390625 22.1875 11.75 
Q 26.265625 6.109375 33.40625 6.109375 
Q 40.53125 6.109375 44.609375 11.75 
Q 48.6875 17.390625 48.6875 27.296875 
z
" id="DejaVuSans-112"/>
      <path d="M 30.609375 48.390625 
Q 23.390625 48.390625 19.1875 42.75 
Q 14.984375 37.109375 14.984375 27.296875 
Q 14.984375 17.484375 19.15625 11.84375 
Q 23.34375 6.203125 30.609375 6.203125 
Q 37.796875 6.203125 41.984375 11.859375 
Q 46.1875 17.53125 46.1875 27.296875 
Q 46.1875 37.015625 41.984375 42.703125 
Q 37.796875 48.390625 30.609375 48.390625 
z
M 30.609375 56 
Q 42.328125 56 49.015625 48.375 
Q 55.71875 40.765625 55.71875 27.296875 
Q 55.71875 13.875 49.015625 6.21875 
Q 42.328125 -1.421875 30.609375 -1.421875 
Q 18.84375 -1.421875 12.171875 6.21875 
Q 5.515625 13.875 5.515625 27.296875 
Q 5.515625 40.765625 12.171875 48.375 
Q 18.84375 56 30.609375 56 
z
" id="DejaVuSans-111"/>
      <path d="M 48.78125 52.59375 
L 48.78125 44.1875 
Q 44.96875 46.296875 41.140625 47.34375 
Q 37.3125 48.390625 33.40625 48.390625 
Q 24.65625 48.390625 19.8125 42.84375 
Q 14.984375 37.3125 14.984375 27.296875 
Q 14.984375 17.28125 19.8125 11.734375 
Q 24.65625 6.203125 33.40625 6.203125 
Q 37.3125 6.203125 41.140625 7.25 
Q 44.96875 8.296875 48.78125 10.40625 
L 48.78125 2.09375 
Q 45.015625 0.34375 40.984375 -0.53125 
Q 36.96875 -1.421875 32.421875 -1.421875 
Q 20.0625 -1.421875 12.78125 6.34375 
Q 5.515625 14.109375 5.515625 27.296875 
Q 5.515625 40.671875 12.859375 48.328125 
Q 20.21875 56 33.015625 56 
Q 37.15625 56 41.109375 55.140625 
Q 45.0625 54.296875 48.78125 52.59375 
z
" id="DejaVuSans-99"/>
      <path d="M 54.890625 33.015625 
L 54.890625 0 
L 45.90625 0 
L 45.90625 32.71875 
Q 45.90625 40.484375 42.875 44.328125 
Q 39.84375 48.1875 33.796875 48.1875 
Q 26.515625 48.1875 22.3125 43.546875 
Q 18.109375 38.921875 18.109375 30.90625 
L 18.109375 0 
L 9.078125 0 
L 9.078125 75.984375 
L 18.109375 75.984375 
L 18.109375 46.1875 
Q 21.34375 51.125 25.703125 53.5625 
Q 30.078125 56 35.796875 56 
Q 45.21875 56 50.046875 50.171875 
Q 54.890625 44.34375 54.890625 33.015625 
z
" id="DejaVuSans-104"/>
     </defs>
     <g transform="translate(220.849063 335.860562)scale(0.1 -0.1)">
      <use xlink:href="#DejaVuSans-69"/>
      <use x="63.183594" xlink:href="#DejaVuSans-112"/>
      <use x="126.660156" xlink:href="#DejaVuSans-111"/>
      <use x="187.841797" xlink:href="#DejaVuSans-99"/>
      <use x="242.822266" xlink:href="#DejaVuSans-104"/>
     </g>
    </g>
   </g>
   <g id="matplotlib.axis_2">
    <g id="ytick_1">
     <g id="line2d_7">
      <defs>
       <path d="M 0 0 
L -3.5 0 
" id="m9e9753b8f7" style="stroke:#000000;stroke-width:0.8;"/>
      </defs>
      <g>
       <use style="stroke:#000000;stroke-width:0.8;" x="57.6" xlink:href="#m9e9753b8f7" y="306.113354"/>
      </g>
     </g>
     <g id="text_8">
      <!-- 0 -->
      <g transform="translate(44.2375 309.912572)scale(0.1 -0.1)">
       <use xlink:href="#DejaVuSans-48"/>
      </g>
     </g>
    </g>
    <g id="ytick_2">
     <g id="line2d_8">
      <g>
       <use style="stroke:#000000;stroke-width:0.8;" x="57.6" xlink:href="#m9e9753b8f7" y="257.279497"/>
      </g>
     </g>
     <g id="text_9">
      <!-- 5 -->
      <defs>
       <path d="M 10.796875 72.90625 
L 49.515625 72.90625 
L 49.515625 64.59375 
L 19.828125 64.59375 
L 19.828125 46.734375 
Q 21.96875 47.46875 24.109375 47.828125 
Q 26.265625 48.1875 28.421875 48.1875 
Q 40.625 48.1875 47.75 41.5 
Q 54.890625 34.8125 54.890625 23.390625 
Q 54.890625 11.625 47.5625 5.09375 
Q 40.234375 -1.421875 26.90625 -1.421875 
Q 22.3125 -1.421875 17.546875 -0.640625 
Q 12.796875 0.140625 7.71875 1.703125 
L 7.71875 11.625 
Q 12.109375 9.234375 16.796875 8.0625 
Q 21.484375 6.890625 26.703125 6.890625 
Q 35.15625 6.890625 40.078125 11.328125 
Q 45.015625 15.765625 45.015625 23.390625 
Q 45.015625 31 40.078125 35.4375 
Q 35.15625 39.890625 26.703125 39.890625 
Q 22.75 39.890625 18.8125 39.015625 
Q 14.890625 38.140625 10.796875 36.28125 
z
" id="DejaVuSans-53"/>
      </defs>
      <g transform="translate(44.2375 261.078715)scale(0.1 -0.1)">
       <use xlink:href="#DejaVuSans-53"/>
      </g>
     </g>
    </g>
    <g id="ytick_3">
     <g id="line2d_9">
      <g>
       <use style="stroke:#000000;stroke-width:0.8;" x="57.6" xlink:href="#m9e9753b8f7" y="208.44564"/>
      </g>
     </g>
     <g id="text_10">
      <!-- 10 -->
      <g transform="translate(37.875 212.244859)scale(0.1 -0.1)">
       <use xlink:href="#DejaVuSans-49"/>
       <use x="63.623047" xlink:href="#DejaVuSans-48"/>
      </g>
     </g>
    </g>
    <g id="ytick_4">
     <g id="line2d_10">
      <g>
       <use style="stroke:#000000;stroke-width:0.8;" x="57.6" xlink:href="#m9e9753b8f7" y="159.611783"/>
      </g>
     </g>
     <g id="text_11">
      <!-- 15 -->
      <g transform="translate(37.875 163.411002)scale(0.1 -0.1)">
       <use xlink:href="#DejaVuSans-49"/>
       <use x="63.623047" xlink:href="#DejaVuSans-53"/>
      </g>
     </g>
    </g>
    <g id="ytick_5">
     <g id="line2d_11">
      <g>
       <use style="stroke:#000000;stroke-width:0.8;" x="57.6" xlink:href="#m9e9753b8f7" y="110.777926"/>
      </g>
     </g>
     <g id="text_12">
      <!-- 20 -->
      <g transform="translate(37.875 114.577145)scale(0.1 -0.1)">
       <use xlink:href="#DejaVuSans-50"/>
       <use x="63.623047" xlink:href="#DejaVuSans-48"/>
      </g>
     </g>
    </g>
    <g id="ytick_6">
     <g id="line2d_12">
      <g>
       <use style="stroke:#000000;stroke-width:0.8;" x="57.6" xlink:href="#m9e9753b8f7" y="61.944069"/>
      </g>
     </g>
     <g id="text_13">
      <!-- 25 -->
      <g transform="translate(37.875 65.743288)scale(0.1 -0.1)">
       <use xlink:href="#DejaVuSans-50"/>
       <use x="63.623047" xlink:href="#DejaVuSans-53"/>
      </g>
     </g>
    </g>
    <g id="text_14">
     <!-- Loss -->
     <defs>
      <path d="M 9.8125 72.90625 
L 19.671875 72.90625 
L 19.671875 8.296875 
L 55.171875 8.296875 
L 55.171875 0 
L 9.8125 0 
z
" id="DejaVuSans-76"/>
      <path d="M 44.28125 53.078125 
L 44.28125 44.578125 
Q 40.484375 46.53125 36.375 47.5 
Q 32.28125 48.484375 27.875 48.484375 
Q 21.1875 48.484375 17.84375 46.4375 
Q 14.5 44.390625 14.5 40.28125 
Q 14.5 37.15625 16.890625 35.375 
Q 19.28125 33.59375 26.515625 31.984375 
L 29.59375 31.296875 
Q 39.15625 29.25 43.1875 25.515625 
Q 47.21875 21.78125 47.21875 15.09375 
Q 47.21875 7.46875 41.1875 3.015625 
Q 35.15625 -1.421875 24.609375 -1.421875 
Q 20.21875 -1.421875 15.453125 -0.5625 
Q 10.6875 0.296875 5.421875 2 
L 5.421875 11.28125 
Q 10.40625 8.6875 15.234375 7.390625 
Q 20.0625 6.109375 24.8125 6.109375 
Q 31.15625 6.109375 34.5625 8.28125 
Q 37.984375 10.453125 37.984375 14.40625 
Q 37.984375 18.0625 35.515625 20.015625 
Q 33.0625 21.96875 24.703125 23.78125 
L 21.578125 24.515625 
Q 13.234375 26.265625 9.515625 29.90625 
Q 5.8125 33.546875 5.8125 39.890625 
Q 5.8125 47.609375 11.28125 51.796875 
Q 16.75 56 26.8125 56 
Q 31.78125 56 36.171875 55.265625 
Q 40.578125 54.546875 44.28125 53.078125 
z
" id="DejaVuSans-115"/>
     </defs>
     <g transform="translate(31.795313 185.581906)rotate(-90)scale(0.1 -0.1)">
      <use xlink:href="#DejaVuSans-76"/>
      <use x="55.697266" xlink:href="#DejaVuSans-111"/>
      <use x="116.878906" xlink:href="#DejaVuSans-115"/>
      <use x="168.978516" xlink:href="#DejaVuSans-115"/>
     </g>
    </g>
   </g>
   <g id="line2d_13">
    <path clip-path="url(#p81e607f1d0)" d="M 73.832727 122.421048 
L 74.157707 53.568 
L 74.482686 101.229948 
L 74.807666 196.896043 
L 75.132645 172.270287 
L 75.457625 187.115151 
L 75.782604 179.241133 
L 76.432563 208.826214 
L 76.757543 185.771411 
L 77.082523 175.921863 
L 77.407502 191.168547 
L 77.732482 198.270426 
L 78.057461 173.400272 
L 78.382441 189.915817 
L 78.70742 196.703003 
L 79.0324 195.925183 
L 79.357379 156.326501 
L 79.682359 172.018642 
L 80.007338 193.280541 
L 80.332318 197.906013 
L 80.657297 186.249282 
L 80.982277 199.872526 
L 81.307256 205.519798 
L 81.632236 177.373034 
L 81.957215 214.739204 
L 82.282195 223.78107 
L 82.607174 188.323888 
L 82.932154 192.700417 
L 83.257133 203.208692 
L 83.582113 220.194936 
L 83.907093 177.792421 
L 84.232072 235.874232 
L 84.557052 223.801357 
L 85.207011 237.906617 
L 85.53199 255.020304 
L 85.85697 263.673167 
L 86.181949 247.499485 
L 86.506929 255.296376 
L 86.831908 248.063937 
L 87.156888 253.494325 
L 87.481867 241.875998 
L 87.806847 246.346605 
L 88.131826 274.594774 
L 88.456806 257.64514 
L 88.781785 275.459278 
L 89.106765 252.124394 
L 89.431744 264.952991 
L 89.756724 254.73014 
L 90.081704 280.745193 
L 90.406683 254.383316 
L 90.731663 259.774952 
L 91.056642 279.810727 
L 91.381622 265.725726 
L 91.706601 273.706847 
L 92.031581 277.09585 
L 92.35656 269.710736 
L 92.68154 257.166216 
L 93.006519 269.314102 
L 93.331499 259.489282 
L 93.656478 279.41349 
L 93.981458 271.130176 
L 94.306437 258.103353 
L 94.631417 271.177613 
L 94.956396 273.381877 
L 95.281376 269.054012 
L 95.606355 273.109156 
L 95.931335 270.96962 
L 96.256314 263.930768 
L 96.581294 277.689906 
L 96.906274 273.08269 
L 97.231253 271.820211 
L 97.556233 275.556021 
L 97.881212 275.55165 
L 98.206192 280.976531 
L 98.531171 273.366981 
L 98.856151 282.673041 
L 99.18113 278.855227 
L 99.50611 282.450615 
L 99.831089 272.983397 
L 100.156069 273.761063 
L 100.481048 277.675327 
L 100.806028 267.300908 
L 101.455987 282.543667 
L 101.780966 277.238329 
L 102.105946 278.114739 
L 102.430925 275.273643 
L 102.755905 281.78533 
L 103.080885 284.376523 
L 103.405864 281.467433 
L 103.730844 283.254431 
L 104.380803 276.795666 
L 104.705782 284.46258 
L 105.030762 281.44407 
L 105.355741 282.168785 
L 105.680721 278.56887 
L 106.0057 271.337324 
L 106.655659 281.503195 
L 107.305618 287.700071 
L 107.630598 279.0963 
L 107.955577 277.274413 
L 108.280557 284.911118 
L 108.605536 276.501843 
L 108.930516 278.188345 
L 109.255495 276.919912 
L 109.580475 285.352137 
L 109.905455 285.330332 
L 110.230434 292.936114 
L 110.555414 282.614116 
L 110.880393 280.321865 
L 111.205373 283.758755 
L 111.530352 281.057172 
L 111.855332 274.594266 
L 112.180311 274.205517 
L 112.505291 282.631015 
L 112.83027 276.957344 
L 113.15525 275.791922 
L 113.480229 279.778369 
L 113.805209 280.911647 
L 114.130188 275.21902 
L 114.455168 276.457307 
L 114.780147 293.868466 
L 115.105127 277.042686 
L 115.430106 271.847306 
L 115.755086 278.351628 
L 116.080066 277.038672 
L 116.405045 286.159879 
L 116.730025 283.296327 
L 117.055004 273.337648 
L 117.379984 285.928288 
L 117.704963 277.140885 
L 118.029943 273.433222 
L 118.354922 272.757585 
L 118.679902 288.278066 
L 119.004881 288.826809 
L 119.329861 266.601137 
L 119.65484 281.657224 
L 119.97982 283.250214 
L 120.304799 269.05413 
L 120.629779 283.131869 
L 120.954758 284.601799 
L 121.279738 276.241846 
L 121.604717 275.234926 
L 121.929697 283.263566 
L 122.254676 272.604846 
L 122.579656 283.52249 
L 122.904636 275.709905 
L 123.229615 287.019731 
L 123.554595 283.083234 
L 123.879574 273.610616 
L 124.204554 287.656667 
L 124.529533 286.583461 
L 124.854513 279.113616 
L 125.179492 278.776726 
L 125.504472 285.938133 
L 125.829451 271.942047 
L 126.154431 281.973957 
L 126.47941 282.653322 
L 126.80439 276.391343 
L 127.129369 285.628577 
L 127.454349 273.833573 
L 127.779328 285.367517 
L 128.104308 284.629134 
L 128.429287 271.696977 
L 129.079247 281.331425 
L 129.729206 285.082208 
L 130.054185 275.769731 
L 130.704144 287.002981 
L 131.029124 284.301889 
L 131.354103 280.448975 
L 131.679083 278.511405 
L 132.004062 280.426441 
L 132.329042 281.374574 
L 132.654021 286.046084 
L 132.979001 277.688849 
L 133.30398 276.424744 
L 133.62896 279.183324 
L 133.953939 274.010782 
L 134.278919 281.906088 
L 134.603898 283.720063 
L 134.928878 284.457122 
L 135.253857 284.137976 
L 135.578837 284.175084 
L 135.903817 281.118451 
L 136.228796 274.471389 
L 136.553776 276.071901 
L 136.878755 278.850966 
L 137.203735 276.090924 
L 137.528714 281.706217 
L 137.853694 280.233891 
L 138.178673 288.90565 
L 138.503653 277.696738 
L 138.828632 287.023424 
L 139.153612 282.695004 
L 139.478591 283.324477 
L 139.803571 278.96729 
L 140.12855 287.075519 
L 140.45353 284.674267 
L 140.778509 285.70607 
L 141.103489 286.170658 
L 141.428468 278.235893 
L 141.753448 286.162634 
L 142.078428 284.625106 
L 142.403407 279.641943 
L 142.728387 283.104741 
L 143.053366 281.128345 
L 143.378346 282.171411 
L 143.703325 280.590655 
L 144.028305 269.490816 
L 144.353284 278.739006 
L 145.003243 287.498774 
L 145.328223 278.518699 
L 145.653202 288.333421 
L 145.978182 281.129872 
L 146.303161 288.540076 
L 146.628141 275.693149 
L 146.95312 286.776129 
L 147.603079 275.08922 
L 147.928059 282.59148 
L 148.253038 277.269916 
L 148.578018 287.329929 
L 148.902998 281.520329 
L 149.227977 284.731056 
L 149.877936 277.519279 
L 150.202916 284.28374 
L 150.527895 285.804936 
L 150.852875 276.114582 
L 151.177854 285.877185 
L 151.502834 276.865251 
L 151.827813 277.879273 
L 152.477772 286.028154 
L 152.802752 273.363037 
L 153.127731 278.404379 
L 153.452711 289.84216 
L 154.10267 276.357844 
L 154.427649 279.17065 
L 154.752629 274.492915 
L 155.077609 281.397464 
L 155.402588 271.841783 
L 155.727568 281.747882 
L 156.052547 283.20219 
L 156.377527 278.048887 
L 156.702506 279.865724 
L 157.027486 273.96011 
L 157.352465 281.73613 
L 157.677445 285.342762 
L 158.002424 294.584211 
L 158.327404 286.549232 
L 158.652383 265.933719 
L 158.977363 277.086163 
L 159.627322 280.070129 
L 159.952301 283.174186 
L 160.277281 281.058872 
L 160.60226 288.636592 
L 160.92724 283.751395 
L 161.252219 281.286784 
L 161.577199 273.089151 
L 161.902179 278.725423 
L 162.227158 272.881456 
L 162.552138 273.948165 
L 163.202097 286.679524 
L 163.527076 284.612557 
L 164.177035 277.768693 
L 164.502015 275.402186 
L 164.826994 283.84919 
L 165.151974 274.113901 
L 165.476953 284.449316 
L 165.801933 281.655179 
L 166.126912 284.845289 
L 166.451892 276.382101 
L 166.776871 290.330517 
L 167.101851 284.734325 
L 167.42683 283.840325 
L 167.75181 285.040426 
L 168.07679 283.980068 
L 168.726749 275.346316 
L 169.051728 278.558555 
L 169.376708 279.26386 
L 169.701687 283.208041 
L 170.026667 281.524245 
L 170.351646 283.430176 
L 170.676626 282.304925 
L 171.001605 292.66065 
L 171.326585 282.661936 
L 171.651564 282.328059 
L 171.976544 287.607101 
L 172.301523 284.69113 
L 172.626503 283.766584 
L 172.951482 281.458524 
L 173.276462 288.398783 
L 173.601441 288.77093 
L 173.926421 281.417671 
L 174.2514 283.559431 
L 174.57638 282.159317 
L 174.90136 278.041356 
L 175.226339 283.198804 
L 175.551319 280.457162 
L 175.876298 279.824571 
L 176.201278 278.574997 
L 176.526257 279.937996 
L 176.851237 278.287017 
L 177.176216 284.495718 
L 177.501196 283.86926 
L 177.826175 284.917836 
L 178.151155 291.982688 
L 178.476134 281.567259 
L 178.801114 288.922378 
L 179.126093 280.39643 
L 179.451073 285.579702 
L 179.776052 286.903105 
L 180.426011 287.219465 
L 180.750991 287.937892 
L 181.075971 284.989347 
L 181.40095 284.279018 
L 181.72593 287.618474 
L 182.050909 287.20048 
L 182.375889 288.765564 
L 182.700868 285.413586 
L 183.025848 287.606099 
L 183.350827 288.453929 
L 183.675807 287.764392 
L 184.000786 291.934628 
L 184.325766 285.034034 
L 184.650745 284.406135 
L 184.975725 273.561516 
L 185.300704 272.080217 
L 185.625684 273.440036 
L 185.950663 263.343142 
L 186.275643 283.936356 
L 186.600622 262.156828 
L 186.925602 286.053908 
L 187.250581 277.482872 
L 187.575561 286.360629 
L 187.900541 289.548925 
L 188.22552 285.234632 
L 188.5505 276.113709 
L 189.200459 288.483854 
L 189.525438 282.996096 
L 189.850418 268.924009 
L 190.175397 286.598782 
L 190.500377 278.370382 
L 190.825356 286.348087 
L 191.475315 277.895247 
L 191.800295 275.905345 
L 192.125274 275.292363 
L 192.450254 286.215931 
L 192.775233 286.852574 
L 193.100213 272.738952 
L 193.425192 273.839497 
L 194.075152 284.217858 
L 194.400131 270.858721 
L 194.725111 279.474457 
L 195.05009 276.989441 
L 195.37507 286.126106 
L 195.700049 283.911664 
L 196.025029 275.499406 
L 196.350008 270.611566 
L 196.674988 291.669467 
L 196.999967 269.596347 
L 197.324947 279.644597 
L 197.649926 276.732592 
L 197.974906 276.018302 
L 198.299885 286.340677 
L 198.624865 267.154605 
L 198.949844 279.732063 
L 199.274824 284.596753 
L 199.599803 271.938265 
L 199.924783 284.269459 
L 200.249762 289.855032 
L 200.574742 282.449921 
L 200.899722 282.04139 
L 201.224701 221.545922 
L 201.87466 275.375093 
L 202.19964 197.613376 
L 202.524619 258.639527 
L 202.849599 220.436568 
L 203.499558 255.196312 
L 203.824537 258.521086 
L 204.149517 240.930729 
L 204.474496 252.498871 
L 204.799476 270.881083 
L 205.124455 267.778127 
L 205.449435 265.894278 
L 205.774414 257.669105 
L 206.099394 271.87482 
L 206.424373 259.66257 
L 206.749353 254.929867 
L 207.074333 274.797011 
L 207.399312 268.557509 
L 207.724292 260.069457 
L 208.69923 277.858039 
L 209.02421 278.933842 
L 209.349189 285.69547 
L 209.674169 273.45951 
L 209.999148 277.123644 
L 210.324128 275.725358 
L 210.649107 279.516227 
L 210.974087 276.83698 
L 211.299066 270.603425 
L 211.624046 274.252883 
L 211.949025 280.856367 
L 212.274005 284.269944 
L 212.598984 269.774593 
L 212.923964 281.755641 
L 213.573923 275.641221 
L 214.223882 285.887734 
L 214.548862 279.947308 
L 214.873841 270.534073 
L 215.198821 275.546688 
L 215.5238 277.182811 
L 215.84878 275.070088 
L 216.173759 283.397406 
L 216.498739 271.050776 
L 217.148698 282.240493 
L 217.473677 278.488357 
L 217.798657 268.319428 
L 218.123636 281.537705 
L 218.773595 286.929518 
L 219.098575 278.532377 
L 219.423554 278.486357 
L 219.748534 280.790093 
L 220.073514 275.452916 
L 220.398493 279.282259 
L 220.723473 278.073111 
L 221.048452 282.657274 
L 221.373432 280.373005 
L 221.698411 283.869596 
L 222.023391 272.733163 
L 222.34837 283.040875 
L 222.67335 289.588669 
L 222.998329 287.665316 
L 223.323309 281.357968 
L 223.648288 282.584341 
L 223.973268 279.936401 
L 224.298247 290.541062 
L 224.623227 279.287703 
L 224.948206 279.929385 
L 225.273186 286.825686 
L 225.923145 281.903203 
L 226.248124 274.128783 
L 226.573104 281.988783 
L 226.898084 275.814461 
L 227.223063 284.695412 
L 227.548043 281.043249 
L 227.873022 281.616271 
L 228.198002 270.406809 
L 228.522981 285.324329 
L 228.847961 286.81805 
L 229.17294 282.344471 
L 229.49792 282.718607 
L 229.822899 284.578266 
L 230.147879 278.874599 
L 230.472858 286.27276 
L 230.797838 284.560173 
L 231.122817 284.644074 
L 231.447797 291.709504 
L 231.772776 283.458739 
L 232.097756 279.455139 
L 232.422735 285.110449 
L 232.747715 283.094656 
L 233.072695 287.714683 
L 233.397674 281.383227 
L 233.722654 287.190403 
L 234.047633 283.865602 
L 234.372613 285.522359 
L 234.697592 276.982816 
L 235.022572 285.225125 
L 235.347551 286.679366 
L 235.672531 276.937164 
L 235.99751 289.140438 
L 236.32249 287.963197 
L 236.647469 279.830211 
L 236.972449 285.575127 
L 237.297428 281.751948 
L 237.622408 285.696487 
L 237.947387 280.988707 
L 238.272367 292.108246 
L 238.597346 292.703709 
L 239.247305 281.977096 
L 239.572285 288.929788 
L 239.897265 281.003465 
L 240.222244 288.70807 
L 240.547224 287.838104 
L 240.872203 282.046462 
L 241.197183 284.194714 
L 241.522162 278.591909 
L 241.847142 275.180107 
L 242.172121 283.339238 
L 242.497101 277.612597 
L 242.82208 275.824667 
L 243.14706 276.790296 
L 243.472039 282.668798 
L 243.797019 281.252121 
L 244.121998 284.142901 
L 244.446978 284.54955 
L 244.771957 282.342934 
L 245.096937 284.325077 
L 245.421916 283.138247 
L 245.746896 278.472949 
L 246.071876 280.042749 
L 246.396855 280.419481 
L 246.721835 289.048153 
L 247.046814 285.90942 
L 247.371794 287.457086 
L 247.696773 277.823392 
L 248.021753 287.459347 
L 248.346732 284.341843 
L 248.671712 287.290319 
L 248.996691 286.595076 
L 249.321671 285.477366 
L 249.64665 281.966759 
L 249.97163 290.983493 
L 250.621589 272.216852 
L 250.946568 282.24183 
L 251.271548 280.234708 
L 251.596527 281.994162 
L 251.921507 279.485455 
L 252.246486 281.803358 
L 252.571466 279.603898 
L 252.896446 287.464114 
L 253.221425 282.423606 
L 253.546405 282.514041 
L 253.871384 283.953587 
L 254.196364 286.496697 
L 254.521343 279.970454 
L 255.171302 286.291831 
L 255.496282 281.730583 
L 255.821261 286.378873 
L 256.146241 281.909742 
L 256.47122 281.977678 
L 256.7962 283.852508 
L 257.121179 274.566009 
L 257.446159 286.452456 
L 257.771138 289.987176 
L 258.096118 281.930785 
L 258.421097 283.071903 
L 258.746077 286.711527 
L 259.071057 287.911169 
L 259.396036 280.486158 
L 259.721016 285.513894 
L 260.045995 279.466633 
L 260.370975 289.188179 
L 260.695954 287.390483 
L 261.020934 292.364037 
L 261.345913 282.759482 
L 261.670893 287.475249 
L 261.995872 281.632499 
L 262.320852 272.054005 
L 262.645831 286.095196 
L 262.970811 291.704775 
L 263.29579 284.527897 
L 263.62077 283.244977 
L 263.945749 283.212168 
L 264.270729 284.71035 
L 264.595708 287.327057 
L 264.920688 290.86817 
L 265.245667 280.384422 
L 265.570647 285.601167 
L 265.895627 286.120755 
L 266.220606 285.909743 
L 266.545586 285.959347 
L 266.870565 281.63516 
L 267.195545 286.472852 
L 267.520524 281.328638 
L 267.845504 291.062183 
L 268.170483 288.746362 
L 268.495463 283.802556 
L 268.820442 273.939023 
L 269.470401 284.88569 
L 269.795381 278.329313 
L 270.12036 276.39139 
L 270.44534 287.103263 
L 270.770319 286.050161 
L 271.095299 288.843714 
L 271.420278 281.887497 
L 271.745258 283.771034 
L 272.070238 281.196204 
L 272.395217 285.877942 
L 272.720197 285.965648 
L 273.045176 272.381587 
L 273.695135 290.361803 
L 274.020115 284.485288 
L 274.345094 284.225759 
L 274.670074 278.504683 
L 274.995053 279.678105 
L 275.320033 287.595844 
L 275.645012 284.987377 
L 275.969992 288.666705 
L 276.294971 287.578343 
L 276.619951 284.101592 
L 276.94493 277.805934 
L 277.26991 286.583624 
L 277.919869 288.267546 
L 278.244848 285.676855 
L 278.569828 285.62296 
L 278.894808 282.270367 
L 279.219787 281.882872 
L 279.544767 275.381089 
L 279.869746 291.874444 
L 280.194726 286.362256 
L 280.519705 284.201157 
L 280.844685 286.19353 
L 281.169664 287.06028 
L 281.494644 282.976695 
L 281.819623 283.952283 
L 282.144603 286.272648 
L 282.469582 287.329303 
L 282.794562 273.029002 
L 283.119541 287.534421 
L 283.444521 288.415521 
L 283.7695 286.540432 
L 284.09448 280.768037 
L 284.419459 282.244566 
L 284.744439 284.946263 
L 285.069419 281.583624 
L 285.394398 282.424034 
L 285.719378 289.366173 
L 286.044357 288.464806 
L 286.369337 283.571034 
L 286.694316 273.643309 
L 287.019296 284.039561 
L 287.344275 283.492291 
L 287.669255 286.305793 
L 287.994234 291.498774 
L 288.319214 287.345818 
L 288.644193 286.438911 
L 288.969173 284.068258 
L 289.294152 288.410495 
L 289.619132 286.720905 
L 289.944111 274.821952 
L 290.269091 292.068938 
L 290.59407 277.224178 
L 290.91905 284.70988 
L 291.244029 281.640842 
L 291.569009 284.776363 
L 291.893989 283.318444 
L 292.218968 288.703762 
L 292.868927 281.763067 
L 293.193907 293.382133 
L 293.518886 282.322545 
L 293.843866 282.994047 
L 294.168845 279.154031 
L 294.493825 286.581638 
L 294.818804 285.51446 
L 295.143784 281.439934 
L 295.468763 291.005207 
L 295.793743 289.87979 
L 296.118722 280.740112 
L 296.443702 285.48981 
L 296.768681 275.518519 
L 297.093661 284.73755 
L 297.41864 288.779202 
L 297.74362 279.733689 
L 298.0686 290.410693 
L 298.393579 275.961261 
L 298.718559 287.749219 
L 299.043538 287.42752 
L 299.368518 280.184872 
L 299.693497 284.746858 
L 300.018477 279.685268 
L 300.343456 293.147317 
L 300.668436 281.092413 
L 300.993415 288.835405 
L 301.318395 282.616808 
L 301.643374 283.603311 
L 301.968354 276.17081 
L 302.293333 284.196999 
L 302.618313 283.531309 
L 302.943292 290.638822 
L 303.268272 289.257761 
L 303.593251 284.737541 
L 303.918231 285.48091 
L 304.24321 282.156953 
L 304.89317 289.196093 
L 305.218149 276.769735 
L 305.543129 285.571464 
L 305.868108 280.063103 
L 306.193088 280.998072 
L 306.518067 293.743158 
L 306.843047 283.187766 
L 307.168026 283.076644 
L 307.493006 289.675645 
L 307.817985 277.87402 
L 308.142965 283.60533 
L 308.467944 285.881775 
L 308.792924 278.307855 
L 309.117903 284.352056 
L 309.442883 281.475254 
L 309.767862 286.334737 
L 310.417821 278.636641 
L 310.742801 286.513537 
L 311.067781 281.628026 
L 311.39276 285.185958 
L 311.71774 283.278262 
L 312.042719 291.713001 
L 312.367699 292.461338 
L 312.692678 285.356922 
L 313.342637 281.377668 
L 313.667617 284.333619 
L 313.992596 272.881668 
L 314.317576 288.729074 
L 314.642555 279.292537 
L 314.967535 286.567509 
L 315.292514 287.534378 
L 315.617494 290.528674 
L 315.942473 277.372064 
L 316.267453 288.438693 
L 316.592432 289.764169 
L 316.917412 286.888364 
L 317.242391 287.040044 
L 317.567371 285.203902 
L 317.892351 290.233273 
L 318.21733 286.099814 
L 318.54231 278.692592 
L 318.867289 291.017761 
L 319.192269 281.048489 
L 319.842228 287.488281 
L 320.167207 281.455257 
L 320.492187 288.971426 
L 320.817166 284.656278 
L 321.142146 286.006193 
L 321.467125 292.494216 
L 321.792105 282.162458 
L 322.117084 290.006228 
L 322.442064 291.258089 
L 322.767043 295.488 
L 323.092023 282.160588 
L 323.417002 284.570244 
L 323.741982 274.61412 
L 324.066962 286.582127 
L 324.391941 283.208372 
L 324.716921 282.128072 
L 325.0419 278.570684 
L 325.36688 286.578658 
L 325.691859 283.545208 
L 326.016839 282.941354 
L 326.341818 288.577516 
L 326.666798 285.904763 
L 326.991777 289.522391 
L 327.316757 280.666301 
L 327.641736 276.151052 
L 327.966716 287.729129 
L 328.616675 273.92995 
L 328.941654 282.338748 
L 329.266634 280.281883 
L 329.591613 282.819401 
L 329.916593 284.215851 
L 330.241572 280.19777 
L 330.566552 285.733069 
L 330.891532 287.570164 
L 331.216511 281.06708 
L 331.541491 279.571168 
L 331.86647 280.894821 
L 332.19145 283.320412 
L 332.516429 270.611366 
L 332.841409 285.02336 
L 333.166388 284.776973 
L 333.491368 283.11929 
L 333.816347 286.864734 
L 334.141327 286.905765 
L 334.466306 282.435633 
L 334.791286 287.375385 
L 335.116265 280.602279 
L 335.441245 276.988859 
L 335.766224 288.569615 
L 336.091204 275.691842 
L 336.416183 283.545485 
L 336.741163 280.248729 
L 337.066143 289.320403 
L 337.391122 284.323548 
L 337.716102 288.257744 
L 338.041081 277.619615 
L 338.366061 286.256336 
L 338.69104 287.053768 
L 339.01602 292.497942 
L 339.340999 276.913208 
L 339.665979 287.448804 
L 339.990958 283.717136 
L 340.315938 290.637813 
L 340.640917 282.698446 
L 340.965897 279.333417 
L 341.290876 289.45947 
L 341.615856 286.916237 
L 341.940835 282.986852 
L 342.265815 287.390263 
L 342.590794 287.505176 
L 342.915774 291.364666 
L 343.240753 288.626726 
L 343.565733 287.807957 
L 344.215692 285.121035 
L 344.540672 292.417088 
L 344.865651 280.601464 
L 345.190631 287.310803 
L 345.51561 285.237566 
L 345.84059 290.836155 
L 346.490549 276.419035 
L 346.815528 284.75891 
L 347.140508 285.015529 
L 347.465487 278.916127 
L 347.790467 284.381173 
L 348.115446 281.223004 
L 348.440426 281.072727 
L 348.765405 274.493537 
L 349.090385 291.04296 
L 349.415364 284.44913 
L 349.740344 281.790691 
L 350.065324 283.843024 
L 350.390303 270.542323 
L 351.040262 286.5173 
L 351.365242 287.389832 
L 351.690221 281.696723 
L 352.015201 288.717706 
L 352.34018 282.336596 
L 352.66516 282.008364 
L 352.990139 283.658971 
L 353.315119 284.125003 
L 353.640098 284.01223 
L 353.965078 282.797601 
L 354.290057 283.743615 
L 354.615037 276.697025 
L 354.940016 288.916601 
L 355.264996 280.196773 
L 355.589975 284.348913 
L 355.914955 282.918049 
L 356.239934 288.125519 
L 356.564914 282.488601 
L 356.889894 287.871995 
L 357.214873 285.349895 
L 357.539853 284.16539 
L 357.864832 281.732639 
L 358.189812 286.958787 
L 358.514791 285.594829 
L 358.839771 281.078381 
L 359.16475 280.049288 
L 359.48973 282.734401 
L 359.814709 283.740476 
L 360.139689 275.955731 
L 360.464668 281.91445 
L 360.789648 282.948309 
L 361.114627 285.393567 
L 361.439607 280.145053 
L 361.764586 281.925467 
L 362.089566 282.690056 
L 362.414545 288.318887 
L 362.739525 286.665781 
L 363.064505 280.448616 
L 363.389484 288.52867 
L 363.714464 286.312888 
L 364.039443 294.118409 
L 364.364423 288.073837 
L 364.689402 292.581912 
L 365.014382 284.53268 
L 365.339361 290.366035 
L 365.664341 280.51652 
L 365.98932 281.544336 
L 366.3143 284.794249 
L 366.639279 280.903651 
L 366.964259 287.900662 
L 367.289238 292.455351 
L 368.264177 282.354668 
L 368.589156 283.935103 
L 368.914136 279.891429 
L 369.239115 292.942689 
L 369.564095 282.578389 
L 369.889075 288.757223 
L 370.214054 286.47614 
L 370.539034 288.071556 
L 370.864013 286.065239 
L 371.188993 291.661085 
L 371.513972 286.156699 
L 371.838952 287.038092 
L 372.163931 283.508158 
L 372.488911 284.720081 
L 372.81389 287.992877 
L 373.13887 281.876876 
L 373.463849 286.486831 
L 373.788829 284.02504 
L 374.113808 286.148332 
L 374.438788 287.415848 
L 374.763767 286.897845 
L 375.413726 283.467443 
L 375.738706 289.170022 
L 376.063686 280.335673 
L 376.388665 289.099504 
L 377.038624 286.752354 
L 377.363604 289.033855 
L 377.688583 284.752446 
L 378.013563 289.593959 
L 378.338542 287.750646 
L 378.663522 287.928097 
L 378.988501 274.6226 
L 379.313481 286.639141 
L 379.63846 286.014762 
L 379.96344 285.633073 
L 380.288419 288.757068 
L 380.613399 284.296659 
L 380.938378 282.163126 
L 381.263358 281.778601 
L 381.588337 289.025582 
L 381.913317 286.431678 
L 382.238296 287.549652 
L 382.563276 276.325526 
L 382.888256 292.58469 
L 383.213235 287.671674 
L 383.538215 291.544259 
L 383.863194 279.63332 
L 384.188174 282.714699 
L 384.513153 280.313233 
L 384.838133 283.123251 
L 385.163112 288.242927 
L 385.488092 286.329633 
L 385.813071 281.030545 
L 386.138051 281.822702 
L 386.46303 279.306613 
L 386.78801 286.42218 
L 387.112989 288.549448 
L 387.437969 283.752645 
L 387.762948 284.983218 
L 388.087928 292.128248 
L 388.412907 287.403703 
L 388.737887 288.389725 
L 389.062867 284.136975 
L 389.387846 283.144935 
L 390.037805 290.745187 
L 390.362785 283.644683 
L 390.687764 289.168892 
L 391.012744 285.488762 
L 391.337723 290.916658 
L 391.662703 287.726823 
L 392.312662 284.377971 
L 392.637641 281.198752 
L 392.962621 288.895635 
L 393.2876 292.268486 
L 393.61258 291.463286 
L 393.937559 284.395517 
L 394.262539 286.285746 
L 394.587518 284.152751 
L 394.912498 288.960233 
L 395.237477 278.354778 
L 395.562457 285.050011 
L 395.887437 284.852892 
L 396.212416 287.890387 
L 396.537396 289.834549 
L 396.862375 290.886554 
L 397.187355 293.335245 
L 397.837314 282.732469 
L 398.162293 292.367101 
L 398.487273 277.880232 
L 398.487273 277.880232 
" style="fill:none;stroke:#1f77b4;stroke-linecap:square;stroke-width:1.5;"/>
   </g>
   <g id="patch_3">
    <path d="M 57.6 307.584 
L 57.6 41.472 
" style="fill:none;stroke:#000000;stroke-linecap:square;stroke-linejoin:miter;stroke-width:0.8;"/>
   </g>
   <g id="patch_4">
    <path d="M 414.72 307.584 
L 414.72 41.472 
" style="fill:none;stroke:#000000;stroke-linecap:square;stroke-linejoin:miter;stroke-width:0.8;"/>
   </g>
   <g id="patch_5">
    <path d="M 57.6 307.584 
L 414.72 307.584 
" style="fill:none;stroke:#000000;stroke-linecap:square;stroke-linejoin:miter;stroke-width:0.8;"/>
   </g>
   <g id="patch_6">
    <path d="M 57.6 41.472 
L 414.72 41.472 
" style="fill:none;stroke:#000000;stroke-linecap:square;stroke-linejoin:miter;stroke-width:0.8;"/>
   </g>
   <g id="text_15">
    <!-- Training Loss -->
    <defs>
     <path d="M -0.296875 72.90625 
L 61.375 72.90625 
L 61.375 64.59375 
L 35.5 64.59375 
L 35.5 0 
L 25.59375 0 
L 25.59375 64.59375 
L -0.296875 64.59375 
z
" id="DejaVuSans-84"/>
     <path d="M 41.109375 46.296875 
Q 39.59375 47.171875 37.8125 47.578125 
Q 36.03125 48 33.890625 48 
Q 26.265625 48 22.1875 43.046875 
Q 18.109375 38.09375 18.109375 28.8125 
L 18.109375 0 
L 9.078125 0 
L 9.078125 54.6875 
L 18.109375 54.6875 
L 18.109375 46.1875 
Q 20.953125 51.171875 25.484375 53.578125 
Q 30.03125 56 36.53125 56 
Q 37.453125 56 38.578125 55.875 
Q 39.703125 55.765625 41.0625 55.515625 
z
" id="DejaVuSans-114"/>
     <path d="M 34.28125 27.484375 
Q 23.390625 27.484375 19.1875 25 
Q 14.984375 22.515625 14.984375 16.5 
Q 14.984375 11.71875 18.140625 8.90625 
Q 21.296875 6.109375 26.703125 6.109375 
Q 34.1875 6.109375 38.703125 11.40625 
Q 43.21875 16.703125 43.21875 25.484375 
L 43.21875 27.484375 
z
M 52.203125 31.203125 
L 52.203125 0 
L 43.21875 0 
L 43.21875 8.296875 
Q 40.140625 3.328125 35.546875 0.953125 
Q 30.953125 -1.421875 24.3125 -1.421875 
Q 15.921875 -1.421875 10.953125 3.296875 
Q 6 8.015625 6 15.921875 
Q 6 25.140625 12.171875 29.828125 
Q 18.359375 34.515625 30.609375 34.515625 
L 43.21875 34.515625 
L 43.21875 35.40625 
Q 43.21875 41.609375 39.140625 45 
Q 35.0625 48.390625 27.6875 48.390625 
Q 23 48.390625 18.546875 47.265625 
Q 14.109375 46.140625 10.015625 43.890625 
L 10.015625 52.203125 
Q 14.9375 54.109375 19.578125 55.046875 
Q 24.21875 56 28.609375 56 
Q 40.484375 56 46.34375 49.84375 
Q 52.203125 43.703125 52.203125 31.203125 
z
" id="DejaVuSans-97"/>
     <path d="M 9.421875 54.6875 
L 18.40625 54.6875 
L 18.40625 0 
L 9.421875 0 
z
M 9.421875 75.984375 
L 18.40625 75.984375 
L 18.40625 64.59375 
L 9.421875 64.59375 
z
" id="DejaVuSans-105"/>
     <path d="M 54.890625 33.015625 
L 54.890625 0 
L 45.90625 0 
L 45.90625 32.71875 
Q 45.90625 40.484375 42.875 44.328125 
Q 39.84375 48.1875 33.796875 48.1875 
Q 26.515625 48.1875 22.3125 43.546875 
Q 18.109375 38.921875 18.109375 30.90625 
L 18.109375 0 
L 9.078125 0 
L 9.078125 54.6875 
L 18.109375 54.6875 
L 18.109375 46.1875 
Q 21.34375 51.125 25.703125 53.5625 
Q 30.078125 56 35.796875 56 
Q 45.21875 56 50.046875 50.171875 
Q 54.890625 44.34375 54.890625 33.015625 
z
" id="DejaVuSans-110"/>
     <path d="M 45.40625 27.984375 
Q 45.40625 37.75 41.375 43.109375 
Q 37.359375 48.484375 30.078125 48.484375 
Q 22.859375 48.484375 18.828125 43.109375 
Q 14.796875 37.75 14.796875 27.984375 
Q 14.796875 18.265625 18.828125 12.890625 
Q 22.859375 7.515625 30.078125 7.515625 
Q 37.359375 7.515625 41.375 12.890625 
Q 45.40625 18.265625 45.40625 27.984375 
z
M 54.390625 6.78125 
Q 54.390625 -7.171875 48.1875 -13.984375 
Q 42 -20.796875 29.203125 -20.796875 
Q 24.46875 -20.796875 20.265625 -20.09375 
Q 16.0625 -19.390625 12.109375 -17.921875 
L 12.109375 -9.1875 
Q 16.0625 -11.328125 19.921875 -12.34375 
Q 23.78125 -13.375 27.78125 -13.375 
Q 36.625 -13.375 41.015625 -8.765625 
Q 45.40625 -4.15625 45.40625 5.171875 
L 45.40625 9.625 
Q 42.625 4.78125 38.28125 2.390625 
Q 33.9375 0 27.875 0 
Q 17.828125 0 11.671875 7.65625 
Q 5.515625 15.328125 5.515625 27.984375 
Q 5.515625 40.671875 11.671875 48.328125 
Q 17.828125 56 27.875 56 
Q 33.9375 56 38.28125 53.609375 
Q 42.625 51.21875 45.40625 46.390625 
L 45.40625 54.6875 
L 54.390625 54.6875 
z
" id="DejaVuSans-103"/>
     <path id="DejaVuSans-32"/>
    </defs>
    <g transform="translate(196.445625 35.472)scale(0.12 -0.12)">
     <use xlink:href="#DejaVuSans-84"/>
     <use x="60.865234" xlink:href="#DejaVuSans-114"/>
     <use x="101.978516" xlink:href="#DejaVuSans-97"/>
     <use x="163.257812" xlink:href="#DejaVuSans-105"/>
     <use x="191.041016" xlink:href="#DejaVuSans-110"/>
     <use x="254.419922" xlink:href="#DejaVuSans-105"/>
     <use x="282.203125" xlink:href="#DejaVuSans-110"/>
     <use x="345.582031" xlink:href="#DejaVuSans-103"/>
     <use x="409.058594" xlink:href="#DejaVuSans-32"/>
     <use x="440.845703" xlink:href="#DejaVuSans-76"/>
     <use x="496.542969" xlink:href="#DejaVuSans-111"/>
     <use x="557.724609" xlink:href="#DejaVuSans-115"/>
     <use x="609.824219" xlink:href="#DejaVuSans-115"/>
    </g>
   </g>
  </g>
 </g>
 <defs>
  <clipPath id="p81e607f1d0">
   <rect height="266.112" width="357.12" x="57.6" y="41.472"/>
  </clipPath>
 </defs>
</svg>
