<?xml version="1.0" encoding="utf-8" standalone="no"?>
<!DOCTYPE svg PUBLIC "-//W3C//DTD SVG 1.1//EN"
  "http://www.w3.org/Graphics/SVG/1.1/DTD/svg11.dtd">
<!-- Created with matplotlib (https://matplotlib.org/) -->
<svg height="345.6pt" version="1.1" viewBox="0 0 460.8 345.6" width="460.8pt" xmlns="http://www.w3.org/2000/svg" xmlns:xlink="http://www.w3.org/1999/xlink">
 <defs>
  <style type="text/css">
*{stroke-linecap:butt;stroke-linejoin:round;}
  </style>
 </defs>
 <g id="figure_1">
  <g id="patch_1">
   <path d="M 0 345.6 
L 460.8 345.6 
L 460.8 0 
L 0 0 
z
" style="fill:#ffffff;"/>
  </g>
  <g id="axes_1">
   <g id="patch_2">
    <path d="M 57.6 307.584 
L 414.72 307.584 
L 414.72 41.472 
L 57.6 41.472 
z
" style="fill:#ffffff;"/>
   </g>
   <g id="matplotlib.axis_1">
    <g id="xtick_1">
     <g id="line2d_1">
      <defs>
       <path d="M 0 0 
L 0 3.5 
" id="m0bad41a9f2" style="stroke:#000000;stroke-width:0.8;"/>
      </defs>
      <g>
       <use style="stroke:#000000;stroke-width:0.8;" x="73.832727" xlink:href="#m0bad41a9f2" y="307.584"/>
      </g>
     </g>
     <g id="text_1">
      <!-- 0 -->
      <defs>
       <path d="M 31.78125 66.40625 
Q 24.171875 66.40625 20.328125 58.90625 
Q 16.5 51.421875 16.5 36.375 
Q 16.5 21.390625 20.328125 13.890625 
Q 24.171875 6.390625 31.78125 6.390625 
Q 39.453125 6.390625 43.28125 13.890625 
Q 47.125 21.390625 47.125 36.375 
Q 47.125 51.421875 43.28125 58.90625 
Q 39.453125 66.40625 31.78125 66.40625 
z
M 31.78125 74.21875 
Q 44.046875 74.21875 50.515625 64.515625 
Q 56.984375 54.828125 56.984375 36.375 
Q 56.984375 17.96875 50.515625 8.265625 
Q 44.046875 -1.421875 31.78125 -1.421875 
Q 19.53125 -1.421875 13.0625 8.265625 
Q 6.59375 17.96875 6.59375 36.375 
Q 6.59375 54.828125 13.0625 64.515625 
Q 19.53125 74.21875 31.78125 74.21875 
z
" id="DejaVuSans-48"/>
      </defs>
      <g transform="translate(70.651477 322.182437)scale(0.1 -0.1)">
       <use xlink:href="#DejaVuSans-48"/>
      </g>
     </g>
    </g>
    <g id="xtick_2">
     <g id="line2d_2">
      <g>
       <use style="stroke:#000000;stroke-width:0.8;" x="138.828632" xlink:href="#m0bad41a9f2" y="307.584"/>
      </g>
     </g>
     <g id="text_2">
      <!-- 200 -->
      <defs>
       <path d="M 19.1875 8.296875 
L 53.609375 8.296875 
L 53.609375 0 
L 7.328125 0 
L 7.328125 8.296875 
Q 12.9375 14.109375 22.625 23.890625 
Q 32.328125 33.6875 34.8125 36.53125 
Q 39.546875 41.84375 41.421875 45.53125 
Q 43.3125 49.21875 43.3125 52.78125 
Q 43.3125 58.59375 39.234375 62.25 
Q 35.15625 65.921875 28.609375 65.921875 
Q 23.96875 65.921875 18.8125 64.3125 
Q 13.671875 62.703125 7.8125 59.421875 
L 7.8125 69.390625 
Q 13.765625 71.78125 18.9375 73 
Q 24.125 74.21875 28.421875 74.21875 
Q 39.75 74.21875 46.484375 68.546875 
Q 53.21875 62.890625 53.21875 53.421875 
Q 53.21875 48.921875 51.53125 44.890625 
Q 49.859375 40.875 45.40625 35.40625 
Q 44.1875 33.984375 37.640625 27.21875 
Q 31.109375 20.453125 19.1875 8.296875 
z
" id="DejaVuSans-50"/>
      </defs>
      <g transform="translate(129.284882 322.182437)scale(0.1 -0.1)">
       <use xlink:href="#DejaVuSans-50"/>
       <use x="63.623047" xlink:href="#DejaVuSans-48"/>
       <use x="127.246094" xlink:href="#DejaVuSans-48"/>
      </g>
     </g>
    </g>
    <g id="xtick_3">
     <g id="line2d_3">
      <g>
       <use style="stroke:#000000;stroke-width:0.8;" x="203.824537" xlink:href="#m0bad41a9f2" y="307.584"/>
      </g>
     </g>
     <g id="text_3">
      <!-- 400 -->
      <defs>
       <path d="M 37.796875 64.3125 
L 12.890625 25.390625 
L 37.796875 25.390625 
z
M 35.203125 72.90625 
L 47.609375 72.90625 
L 47.609375 25.390625 
L 58.015625 25.390625 
L 58.015625 17.1875 
L 47.609375 17.1875 
L 47.609375 0 
L 37.796875 0 
L 37.796875 17.1875 
L 4.890625 17.1875 
L 4.890625 26.703125 
z
" id="DejaVuSans-52"/>
      </defs>
      <g transform="translate(194.280787 322.182437)scale(0.1 -0.1)">
       <use xlink:href="#DejaVuSans-52"/>
       <use x="63.623047" xlink:href="#DejaVuSans-48"/>
       <use x="127.246094" xlink:href="#DejaVuSans-48"/>
      </g>
     </g>
    </g>
    <g id="xtick_4">
     <g id="line2d_4">
      <g>
       <use style="stroke:#000000;stroke-width:0.8;" x="268.820442" xlink:href="#m0bad41a9f2" y="307.584"/>
      </g>
     </g>
     <g id="text_4">
      <!-- 600 -->
      <defs>
       <path d="M 33.015625 40.375 
Q 26.375 40.375 22.484375 35.828125 
Q 18.609375 31.296875 18.609375 23.390625 
Q 18.609375 15.53125 22.484375 10.953125 
Q 26.375 6.390625 33.015625 6.390625 
Q 39.65625 6.390625 43.53125 10.953125 
Q 47.40625 15.53125 47.40625 23.390625 
Q 47.40625 31.296875 43.53125 35.828125 
Q 39.65625 40.375 33.015625 40.375 
z
M 52.59375 71.296875 
L 52.59375 62.3125 
Q 48.875 64.0625 45.09375 64.984375 
Q 41.3125 65.921875 37.59375 65.921875 
Q 27.828125 65.921875 22.671875 59.328125 
Q 17.53125 52.734375 16.796875 39.40625 
Q 19.671875 43.65625 24.015625 45.921875 
Q 28.375 48.1875 33.59375 48.1875 
Q 44.578125 48.1875 50.953125 41.515625 
Q 57.328125 34.859375 57.328125 23.390625 
Q 57.328125 12.15625 50.6875 5.359375 
Q 44.046875 -1.421875 33.015625 -1.421875 
Q 20.359375 -1.421875 13.671875 8.265625 
Q 6.984375 17.96875 6.984375 36.375 
Q 6.984375 53.65625 15.1875 63.9375 
Q 23.390625 74.21875 37.203125 74.21875 
Q 40.921875 74.21875 44.703125 73.484375 
Q 48.484375 72.75 52.59375 71.296875 
z
" id="DejaVuSans-54"/>
      </defs>
      <g transform="translate(259.276692 322.182437)scale(0.1 -0.1)">
       <use xlink:href="#DejaVuSans-54"/>
       <use x="63.623047" xlink:href="#DejaVuSans-48"/>
       <use x="127.246094" xlink:href="#DejaVuSans-48"/>
      </g>
     </g>
    </g>
    <g id="xtick_5">
     <g id="line2d_5">
      <g>
       <use style="stroke:#000000;stroke-width:0.8;" x="333.816347" xlink:href="#m0bad41a9f2" y="307.584"/>
      </g>
     </g>
     <g id="text_5">
      <!-- 800 -->
      <defs>
       <path d="M 31.78125 34.625 
Q 24.75 34.625 20.71875 30.859375 
Q 16.703125 27.09375 16.703125 20.515625 
Q 16.703125 13.921875 20.71875 10.15625 
Q 24.75 6.390625 31.78125 6.390625 
Q 38.8125 6.390625 42.859375 10.171875 
Q 46.921875 13.96875 46.921875 20.515625 
Q 46.921875 27.09375 42.890625 30.859375 
Q 38.875 34.625 31.78125 34.625 
z
M 21.921875 38.8125 
Q 15.578125 40.375 12.03125 44.71875 
Q 8.5 49.078125 8.5 55.328125 
Q 8.5 64.0625 14.71875 69.140625 
Q 20.953125 74.21875 31.78125 74.21875 
Q 42.671875 74.21875 48.875 69.140625 
Q 55.078125 64.0625 55.078125 55.328125 
Q 55.078125 49.078125 51.53125 44.71875 
Q 48 40.375 41.703125 38.8125 
Q 48.828125 37.15625 52.796875 32.3125 
Q 56.78125 27.484375 56.78125 20.515625 
Q 56.78125 9.90625 50.3125 4.234375 
Q 43.84375 -1.421875 31.78125 -1.421875 
Q 19.734375 -1.421875 13.25 4.234375 
Q 6.78125 9.90625 6.78125 20.515625 
Q 6.78125 27.484375 10.78125 32.3125 
Q 14.796875 37.15625 21.921875 38.8125 
z
M 18.3125 54.390625 
Q 18.3125 48.734375 21.84375 45.5625 
Q 25.390625 42.390625 31.78125 42.390625 
Q 38.140625 42.390625 41.71875 45.5625 
Q 45.3125 48.734375 45.3125 54.390625 
Q 45.3125 60.0625 41.71875 63.234375 
Q 38.140625 66.40625 31.78125 66.40625 
Q 25.390625 66.40625 21.84375 63.234375 
Q 18.3125 60.0625 18.3125 54.390625 
z
" id="DejaVuSans-56"/>
      </defs>
      <g transform="translate(324.272597 322.182437)scale(0.1 -0.1)">
       <use xlink:href="#DejaVuSans-56"/>
       <use x="63.623047" xlink:href="#DejaVuSans-48"/>
       <use x="127.246094" xlink:href="#DejaVuSans-48"/>
      </g>
     </g>
    </g>
    <g id="xtick_6">
     <g id="line2d_6">
      <g>
       <use style="stroke:#000000;stroke-width:0.8;" x="398.812252" xlink:href="#m0bad41a9f2" y="307.584"/>
      </g>
     </g>
     <g id="text_6">
      <!-- 1000 -->
      <defs>
       <path d="M 12.40625 8.296875 
L 28.515625 8.296875 
L 28.515625 63.921875 
L 10.984375 60.40625 
L 10.984375 69.390625 
L 28.421875 72.90625 
L 38.28125 72.90625 
L 38.28125 8.296875 
L 54.390625 8.296875 
L 54.390625 0 
L 12.40625 0 
z
" id="DejaVuSans-49"/>
      </defs>
      <g transform="translate(386.087252 322.182437)scale(0.1 -0.1)">
       <use xlink:href="#DejaVuSans-49"/>
       <use x="63.623047" xlink:href="#DejaVuSans-48"/>
       <use x="127.246094" xlink:href="#DejaVuSans-48"/>
       <use x="190.869141" xlink:href="#DejaVuSans-48"/>
      </g>
     </g>
    </g>
    <g id="text_7">
     <!-- Epoch -->
     <defs>
      <path d="M 9.8125 72.90625 
L 55.90625 72.90625 
L 55.90625 64.59375 
L 19.671875 64.59375 
L 19.671875 43.015625 
L 54.390625 43.015625 
L 54.390625 34.71875 
L 19.671875 34.71875 
L 19.671875 8.296875 
L 56.78125 8.296875 
L 56.78125 0 
L 9.8125 0 
z
" id="DejaVuSans-69"/>
      <path d="M 18.109375 8.203125 
L 18.109375 -20.796875 
L 9.078125 -20.796875 
L 9.078125 54.6875 
L 18.109375 54.6875 
L 18.109375 46.390625 
Q 20.953125 51.265625 25.265625 53.625 
Q 29.59375 56 35.59375 56 
Q 45.5625 56 51.78125 48.09375 
Q 58.015625 40.1875 58.015625 27.296875 
Q 58.015625 14.40625 51.78125 6.484375 
Q 45.5625 -1.421875 35.59375 -1.421875 
Q 29.59375 -1.421875 25.265625 0.953125 
Q 20.953125 3.328125 18.109375 8.203125 
z
M 48.6875 27.296875 
Q 48.6875 37.203125 44.609375 42.84375 
Q 40.53125 48.484375 33.40625 48.484375 
Q 26.265625 48.484375 22.1875 42.84375 
Q 18.109375 37.203125 18.109375 27.296875 
Q 18.109375 17.390625 22.1875 11.75 
Q 26.265625 6.109375 33.40625 6.109375 
Q 40.53125 6.109375 44.609375 11.75 
Q 48.6875 17.390625 48.6875 27.296875 
z
" id="DejaVuSans-112"/>
      <path d="M 30.609375 48.390625 
Q 23.390625 48.390625 19.1875 42.75 
Q 14.984375 37.109375 14.984375 27.296875 
Q 14.984375 17.484375 19.15625 11.84375 
Q 23.34375 6.203125 30.609375 6.203125 
Q 37.796875 6.203125 41.984375 11.859375 
Q 46.1875 17.53125 46.1875 27.296875 
Q 46.1875 37.015625 41.984375 42.703125 
Q 37.796875 48.390625 30.609375 48.390625 
z
M 30.609375 56 
Q 42.328125 56 49.015625 48.375 
Q 55.71875 40.765625 55.71875 27.296875 
Q 55.71875 13.875 49.015625 6.21875 
Q 42.328125 -1.421875 30.609375 -1.421875 
Q 18.84375 -1.421875 12.171875 6.21875 
Q 5.515625 13.875 5.515625 27.296875 
Q 5.515625 40.765625 12.171875 48.375 
Q 18.84375 56 30.609375 56 
z
" id="DejaVuSans-111"/>
      <path d="M 48.78125 52.59375 
L 48.78125 44.1875 
Q 44.96875 46.296875 41.140625 47.34375 
Q 37.3125 48.390625 33.40625 48.390625 
Q 24.65625 48.390625 19.8125 42.84375 
Q 14.984375 37.3125 14.984375 27.296875 
Q 14.984375 17.28125 19.8125 11.734375 
Q 24.65625 6.203125 33.40625 6.203125 
Q 37.3125 6.203125 41.140625 7.25 
Q 44.96875 8.296875 48.78125 10.40625 
L 48.78125 2.09375 
Q 45.015625 0.34375 40.984375 -0.53125 
Q 36.96875 -1.421875 32.421875 -1.421875 
Q 20.0625 -1.421875 12.78125 6.34375 
Q 5.515625 14.109375 5.515625 27.296875 
Q 5.515625 40.671875 12.859375 48.328125 
Q 20.21875 56 33.015625 56 
Q 37.15625 56 41.109375 55.140625 
Q 45.0625 54.296875 48.78125 52.59375 
z
" id="DejaVuSans-99"/>
      <path d="M 54.890625 33.015625 
L 54.890625 0 
L 45.90625 0 
L 45.90625 32.71875 
Q 45.90625 40.484375 42.875 44.328125 
Q 39.84375 48.1875 33.796875 48.1875 
Q 26.515625 48.1875 22.3125 43.546875 
Q 18.109375 38.921875 18.109375 30.90625 
L 18.109375 0 
L 9.078125 0 
L 9.078125 75.984375 
L 18.109375 75.984375 
L 18.109375 46.1875 
Q 21.34375 51.125 25.703125 53.5625 
Q 30.078125 56 35.796875 56 
Q 45.21875 56 50.046875 50.171875 
Q 54.890625 44.34375 54.890625 33.015625 
z
" id="DejaVuSans-104"/>
     </defs>
     <g transform="translate(220.849063 335.860562)scale(0.1 -0.1)">
      <use xlink:href="#DejaVuSans-69"/>
      <use x="63.183594" xlink:href="#DejaVuSans-112"/>
      <use x="126.660156" xlink:href="#DejaVuSans-111"/>
      <use x="187.841797" xlink:href="#DejaVuSans-99"/>
      <use x="242.822266" xlink:href="#DejaVuSans-104"/>
     </g>
    </g>
   </g>
   <g id="matplotlib.axis_2">
    <g id="ytick_1">
     <g id="line2d_7">
      <defs>
       <path d="M 0 0 
L -3.5 0 
" id="m6ca9ea012f" style="stroke:#000000;stroke-width:0.8;"/>
      </defs>
      <g>
       <use style="stroke:#000000;stroke-width:0.8;" x="57.6" xlink:href="#m6ca9ea012f" y="295.774275"/>
      </g>
     </g>
     <g id="text_8">
      <!-- 0.0 -->
      <defs>
       <path d="M 10.6875 12.40625 
L 21 12.40625 
L 21 0 
L 10.6875 0 
z
" id="DejaVuSans-46"/>
      </defs>
      <g transform="translate(34.696875 299.573494)scale(0.1 -0.1)">
       <use xlink:href="#DejaVuSans-48"/>
       <use x="63.623047" xlink:href="#DejaVuSans-46"/>
       <use x="95.410156" xlink:href="#DejaVuSans-48"/>
      </g>
     </g>
    </g>
    <g id="ytick_2">
     <g id="line2d_8">
      <g>
       <use style="stroke:#000000;stroke-width:0.8;" x="57.6" xlink:href="#m6ca9ea012f" y="260.493134"/>
      </g>
     </g>
     <g id="text_9">
      <!-- 2.5 -->
      <defs>
       <path d="M 10.796875 72.90625 
L 49.515625 72.90625 
L 49.515625 64.59375 
L 19.828125 64.59375 
L 19.828125 46.734375 
Q 21.96875 47.46875 24.109375 47.828125 
Q 26.265625 48.1875 28.421875 48.1875 
Q 40.625 48.1875 47.75 41.5 
Q 54.890625 34.8125 54.890625 23.390625 
Q 54.890625 11.625 47.5625 5.09375 
Q 40.234375 -1.421875 26.90625 -1.421875 
Q 22.3125 -1.421875 17.546875 -0.640625 
Q 12.796875 0.140625 7.71875 1.703125 
L 7.71875 11.625 
Q 12.109375 9.234375 16.796875 8.0625 
Q 21.484375 6.890625 26.703125 6.890625 
Q 35.15625 6.890625 40.078125 11.328125 
Q 45.015625 15.765625 45.015625 23.390625 
Q 45.015625 31 40.078125 35.4375 
Q 35.15625 39.890625 26.703125 39.890625 
Q 22.75 39.890625 18.8125 39.015625 
Q 14.890625 38.140625 10.796875 36.28125 
z
" id="DejaVuSans-53"/>
      </defs>
      <g transform="translate(34.696875 264.292353)scale(0.1 -0.1)">
       <use xlink:href="#DejaVuSans-50"/>
       <use x="63.623047" xlink:href="#DejaVuSans-46"/>
       <use x="95.410156" xlink:href="#DejaVuSans-53"/>
      </g>
     </g>
    </g>
    <g id="ytick_3">
     <g id="line2d_9">
      <g>
       <use style="stroke:#000000;stroke-width:0.8;" x="57.6" xlink:href="#m6ca9ea012f" y="225.211994"/>
      </g>
     </g>
     <g id="text_10">
      <!-- 5.0 -->
      <g transform="translate(34.696875 229.011212)scale(0.1 -0.1)">
       <use xlink:href="#DejaVuSans-53"/>
       <use x="63.623047" xlink:href="#DejaVuSans-46"/>
       <use x="95.410156" xlink:href="#DejaVuSans-48"/>
      </g>
     </g>
    </g>
    <g id="ytick_4">
     <g id="line2d_10">
      <g>
       <use style="stroke:#000000;stroke-width:0.8;" x="57.6" xlink:href="#m6ca9ea012f" y="189.930853"/>
      </g>
     </g>
     <g id="text_11">
      <!-- 7.5 -->
      <defs>
       <path d="M 8.203125 72.90625 
L 55.078125 72.90625 
L 55.078125 68.703125 
L 28.609375 0 
L 18.3125 0 
L 43.21875 64.59375 
L 8.203125 64.59375 
z
" id="DejaVuSans-55"/>
      </defs>
      <g transform="translate(34.696875 193.730072)scale(0.1 -0.1)">
       <use xlink:href="#DejaVuSans-55"/>
       <use x="63.623047" xlink:href="#DejaVuSans-46"/>
       <use x="95.410156" xlink:href="#DejaVuSans-53"/>
      </g>
     </g>
    </g>
    <g id="ytick_5">
     <g id="line2d_11">
      <g>
       <use style="stroke:#000000;stroke-width:0.8;" x="57.6" xlink:href="#m6ca9ea012f" y="154.649712"/>
      </g>
     </g>
     <g id="text_12">
      <!-- 10.0 -->
      <g transform="translate(28.334375 158.448931)scale(0.1 -0.1)">
       <use xlink:href="#DejaVuSans-49"/>
       <use x="63.623047" xlink:href="#DejaVuSans-48"/>
       <use x="127.246094" xlink:href="#DejaVuSans-46"/>
       <use x="159.033203" xlink:href="#DejaVuSans-48"/>
      </g>
     </g>
    </g>
    <g id="ytick_6">
     <g id="line2d_12">
      <g>
       <use style="stroke:#000000;stroke-width:0.8;" x="57.6" xlink:href="#m6ca9ea012f" y="119.368571"/>
      </g>
     </g>
     <g id="text_13">
      <!-- 12.5 -->
      <g transform="translate(28.334375 123.16779)scale(0.1 -0.1)">
       <use xlink:href="#DejaVuSans-49"/>
       <use x="63.623047" xlink:href="#DejaVuSans-50"/>
       <use x="127.246094" xlink:href="#DejaVuSans-46"/>
       <use x="159.033203" xlink:href="#DejaVuSans-53"/>
      </g>
     </g>
    </g>
    <g id="ytick_7">
     <g id="line2d_13">
      <g>
       <use style="stroke:#000000;stroke-width:0.8;" x="57.6" xlink:href="#m6ca9ea012f" y="84.08743"/>
      </g>
     </g>
     <g id="text_14">
      <!-- 15.0 -->
      <g transform="translate(28.334375 87.886649)scale(0.1 -0.1)">
       <use xlink:href="#DejaVuSans-49"/>
       <use x="63.623047" xlink:href="#DejaVuSans-53"/>
       <use x="127.246094" xlink:href="#DejaVuSans-46"/>
       <use x="159.033203" xlink:href="#DejaVuSans-48"/>
      </g>
     </g>
    </g>
    <g id="ytick_8">
     <g id="line2d_14">
      <g>
       <use style="stroke:#000000;stroke-width:0.8;" x="57.6" xlink:href="#m6ca9ea012f" y="48.80629"/>
      </g>
     </g>
     <g id="text_15">
      <!-- 17.5 -->
      <g transform="translate(28.334375 52.605508)scale(0.1 -0.1)">
       <use xlink:href="#DejaVuSans-49"/>
       <use x="63.623047" xlink:href="#DejaVuSans-55"/>
       <use x="127.246094" xlink:href="#DejaVuSans-46"/>
       <use x="159.033203" xlink:href="#DejaVuSans-53"/>
      </g>
     </g>
    </g>
    <g id="text_16">
     <!-- Loss -->
     <defs>
      <path d="M 9.8125 72.90625 
L 19.671875 72.90625 
L 19.671875 8.296875 
L 55.171875 8.296875 
L 55.171875 0 
L 9.8125 0 
z
" id="DejaVuSans-76"/>
      <path d="M 44.28125 53.078125 
L 44.28125 44.578125 
Q 40.484375 46.53125 36.375 47.5 
Q 32.28125 48.484375 27.875 48.484375 
Q 21.1875 48.484375 17.84375 46.4375 
Q 14.5 44.390625 14.5 40.28125 
Q 14.5 37.15625 16.890625 35.375 
Q 19.28125 33.59375 26.515625 31.984375 
L 29.59375 31.296875 
Q 39.15625 29.25 43.1875 25.515625 
Q 47.21875 21.78125 47.21875 15.09375 
Q 47.21875 7.46875 41.1875 3.015625 
Q 35.15625 -1.421875 24.609375 -1.421875 
Q 20.21875 -1.421875 15.453125 -0.5625 
Q 10.6875 0.296875 5.421875 2 
L 5.421875 11.28125 
Q 10.40625 8.6875 15.234375 7.390625 
Q 20.0625 6.109375 24.8125 6.109375 
Q 31.15625 6.109375 34.5625 8.28125 
Q 37.984375 10.453125 37.984375 14.40625 
Q 37.984375 18.0625 35.515625 20.015625 
Q 33.0625 21.96875 24.703125 23.78125 
L 21.578125 24.515625 
Q 13.234375 26.265625 9.515625 29.90625 
Q 5.8125 33.546875 5.8125 39.890625 
Q 5.8125 47.609375 11.28125 51.796875 
Q 16.75 56 26.8125 56 
Q 31.78125 56 36.171875 55.265625 
Q 40.578125 54.546875 44.28125 53.078125 
z
" id="DejaVuSans-115"/>
     </defs>
     <g transform="translate(22.254688 185.581906)rotate(-90)scale(0.1 -0.1)">
      <use xlink:href="#DejaVuSans-76"/>
      <use x="55.697266" xlink:href="#DejaVuSans-111"/>
      <use x="116.878906" xlink:href="#DejaVuSans-115"/>
      <use x="168.978516" xlink:href="#DejaVuSans-115"/>
     </g>
    </g>
   </g>
   <g id="line2d_15">
    <path clip-path="url(#p2cd9d91f09)" d="M 73.832727 53.568 
L 74.157707 80.082058 
L 74.482686 130.787837 
L 74.807666 133.92974 
L 75.132645 163.90758 
L 75.457625 209.123291 
L 76.107584 242.227095 
L 76.432563 249.316708 
L 76.757543 260.086383 
L 77.082523 278.464526 
L 77.407502 272.435837 
L 77.732482 279.502357 
L 78.057461 278.341061 
L 78.382441 279.46313 
L 78.70742 288.722211 
L 79.0324 272.717241 
L 79.357379 288.100797 
L 79.682359 278.276737 
L 80.332318 286.979678 
L 80.657297 281.240602 
L 80.982277 287.561366 
L 81.307256 288.464805 
L 81.632236 284.876487 
L 81.957215 286.927527 
L 82.282195 290.292971 
L 82.607174 288.884058 
L 82.932154 288.502802 
L 83.257133 289.356659 
L 83.582113 288.877565 
L 83.907093 287.075308 
L 84.232072 289.86583 
L 84.557052 288.585493 
L 84.882031 288.142272 
L 85.207011 290.784845 
L 85.53199 289.488593 
L 85.85697 290.441732 
L 86.181949 290.925838 
L 86.506929 286.668976 
L 86.831908 290.740205 
L 87.156888 290.806901 
L 87.481867 289.58098 
L 87.806847 290.487038 
L 88.131826 290.410171 
L 88.456806 290.129161 
L 88.781785 291.412779 
L 89.106765 290.49857 
L 89.431744 290.834 
L 89.756724 292.199852 
L 90.081704 290.501031 
L 90.406683 290.117103 
L 90.731663 290.438476 
L 91.056642 288.473724 
L 91.381622 292.21241 
L 91.706601 290.933167 
L 92.35656 291.267953 
L 92.68154 289.228594 
L 93.006519 291.308036 
L 93.331499 291.557867 
L 93.656478 290.507292 
L 93.981458 292.111243 
L 94.306437 290.977459 
L 94.631417 291.005124 
L 94.956396 292.620497 
L 95.281376 290.563332 
L 95.931335 292.118544 
L 96.256314 291.280171 
L 96.581294 292.136155 
L 96.906274 289.790424 
L 97.231253 292.47144 
L 97.556233 290.55525 
L 97.881212 292.017437 
L 98.206192 292.125618 
L 98.531171 291.907377 
L 98.856151 292.559919 
L 99.18113 291.403334 
L 99.50611 291.975226 
L 99.831089 291.774254 
L 100.156069 292.781123 
L 100.481048 292.732288 
L 100.806028 291.533858 
L 101.131007 292.444456 
L 101.455987 292.296562 
L 101.780966 292.368524 
L 102.105946 293.096419 
L 102.430925 292.85759 
L 103.080885 292.826567 
L 103.405864 292.318037 
L 103.730844 293.165456 
L 104.055823 292.018584 
L 104.380803 292.061462 
L 104.705782 292.261212 
L 105.030762 293.061331 
L 105.680721 292.485186 
L 106.655659 292.813027 
L 106.980639 293.177107 
L 107.630598 293.145753 
L 107.955577 293.729391 
L 108.280557 293.368322 
L 108.605536 293.843515 
L 108.930516 293.177919 
L 109.255495 293.565645 
L 109.905455 293.783021 
L 110.555414 293.121993 
L 110.880393 293.550854 
L 111.205373 293.302825 
L 111.530352 292.862703 
L 112.180311 293.736118 
L 112.505291 292.898988 
L 112.83027 293.730299 
L 113.15525 293.105788 
L 113.480229 293.057237 
L 113.805209 294.357221 
L 114.130188 293.188014 
L 114.455168 293.979307 
L 114.780147 293.402952 
L 115.105127 293.520329 
L 115.430106 293.968592 
L 115.755086 293.511338 
L 116.080066 293.899611 
L 116.405045 294.062737 
L 116.730025 293.636554 
L 117.055004 293.952331 
L 118.029943 293.746089 
L 118.354922 293.994672 
L 118.679902 293.809017 
L 119.004881 293.835289 
L 119.329861 293.723243 
L 119.65484 294.290859 
L 119.97982 293.849685 
L 120.304799 293.859734 
L 120.629779 294.215833 
L 120.954758 293.730745 
L 121.279738 293.551599 
L 121.604717 293.76806 
L 121.929697 294.146179 
L 122.254676 294.058856 
L 122.579656 294.315498 
L 122.904636 294.012685 
L 123.554595 293.964345 
L 123.879574 294.442935 
L 124.204554 294.467981 
L 124.529533 294.151973 
L 124.854513 294.107333 
L 125.504472 294.419992 
L 125.829451 294.036034 
L 126.154431 294.152598 
L 126.47941 294.123454 
L 126.80439 294.369606 
L 127.129369 294.138973 
L 127.454349 294.389983 
L 128.104308 294.232089 
L 128.429287 294.368227 
L 128.754267 294.216702 
L 129.079247 294.584224 
L 129.729206 294.126187 
L 130.054185 294.434745 
L 130.379165 294.263496 
L 130.704144 294.257971 
L 131.354103 294.677834 
L 131.679083 294.316668 
L 132.004062 294.375951 
L 132.329042 294.222485 
L 132.654021 294.441789 
L 132.979001 294.116807 
L 133.30398 293.542193 
L 133.62896 293.278178 
L 134.278919 294.514448 
L 134.603898 294.243105 
L 134.928878 294.130094 
L 135.253857 294.463182 
L 135.578837 293.795002 
L 135.903817 293.460028 
L 136.228796 294.514182 
L 136.878755 293.021915 
L 137.203735 294.333287 
L 137.528714 293.638551 
L 137.853694 294.443329 
L 138.178673 293.615725 
L 138.503653 293.816013 
L 138.828632 294.359286 
L 139.153612 293.182252 
L 139.478591 294.279302 
L 139.803571 294.39748 
L 140.12855 294.178732 
L 140.45353 294.61297 
L 141.103489 294.237488 
L 141.428468 294.068106 
L 141.753448 294.639896 
L 142.078428 294.190541 
L 142.403407 294.356521 
L 142.728387 294.330325 
L 143.053366 294.152554 
L 143.378346 294.657599 
L 143.703325 294.075778 
L 144.028305 294.701094 
L 144.353284 294.098141 
L 144.678264 293.991329 
L 145.003243 294.431573 
L 145.328223 293.874733 
L 145.653202 294.421576 
L 145.978182 294.070343 
L 146.303161 294.002252 
L 146.628141 294.465561 
L 146.95312 293.561753 
L 147.2781 294.466941 
L 147.603079 293.650594 
L 147.928059 294.380206 
L 148.253038 294.306544 
L 148.578018 294.061144 
L 148.902998 294.403789 
L 149.227977 294.038599 
L 149.552957 294.561424 
L 149.877936 293.955112 
L 150.202916 293.964607 
L 150.527895 294.63309 
L 150.852875 294.492198 
L 151.177854 294.670514 
L 151.502834 294.440108 
L 152.152793 294.474225 
L 152.477772 294.261047 
L 153.127731 294.852013 
L 153.452711 294.659884 
L 154.10267 294.719526 
L 154.752629 294.748776 
L 155.077609 294.895415 
L 156.052547 294.687989 
L 156.702506 294.917034 
L 157.027486 294.743002 
L 157.352465 294.981152 
L 158.652383 294.683647 
L 158.977363 294.976023 
L 159.952301 294.711785 
L 160.277281 294.942267 
L 160.60226 294.817595 
L 160.92724 294.937356 
L 161.252219 294.855062 
L 161.577199 295.008863 
L 161.902179 294.784269 
L 162.227158 294.896859 
L 162.877117 294.395295 
L 163.202097 294.33141 
L 163.527076 294.874796 
L 164.177035 294.452179 
L 164.502015 294.867709 
L 164.826994 294.529741 
L 165.151974 294.5121 
L 165.476953 294.855994 
L 166.126912 294.776651 
L 166.451892 294.8464 
L 166.776871 294.777217 
L 167.101851 294.838805 
L 167.42683 294.568535 
L 167.75181 294.641387 
L 168.07679 294.867792 
L 168.401769 294.411091 
L 168.726749 294.548762 
L 169.051728 294.989063 
L 169.376708 294.558991 
L 169.701687 294.63105 
L 170.026667 295.013022 
L 170.351646 294.749223 
L 170.676626 294.855552 
L 171.326585 294.516148 
L 171.651564 294.947182 
L 172.301523 294.230663 
L 172.626503 294.737162 
L 173.276462 294.256825 
L 173.601441 294.867172 
L 173.926421 294.623816 
L 174.2514 293.891715 
L 174.57638 294.589139 
L 174.90136 294.659336 
L 175.226339 293.841682 
L 175.551319 294.616203 
L 175.876298 294.645244 
L 176.201278 294.089931 
L 176.526257 294.869866 
L 176.851237 294.524 
L 177.176216 294.409452 
L 177.501196 294.879337 
L 177.826175 294.623901 
L 178.151155 294.744231 
L 178.476134 294.99816 
L 178.801114 294.436936 
L 179.451073 294.987175 
L 179.776052 294.959302 
L 180.426011 294.575875 
L 180.750991 294.845473 
L 181.40095 294.001673 
L 181.72593 295.053181 
L 182.050909 294.011571 
L 182.375889 294.680616 
L 182.700868 294.682266 
L 183.025848 294.265288 
L 183.350827 295.016711 
L 183.675807 294.515388 
L 184.000786 294.774947 
L 184.975725 294.95203 
L 185.300704 294.819752 
L 185.625684 294.899982 
L 185.950663 294.765601 
L 186.275643 294.972325 
L 186.600622 294.682952 
L 186.925602 295.003147 
L 187.575561 294.82373 
L 187.900541 295.074946 
L 188.22552 294.954196 
L 188.5505 295.063192 
L 188.875479 295.015011 
L 189.200459 294.843474 
L 189.525438 295.134943 
L 189.850418 294.763006 
L 190.500377 295.051949 
L 190.825356 294.957329 
L 191.800295 295.111924 
L 192.125274 294.908598 
L 192.450254 294.54983 
L 192.775233 294.969746 
L 193.425192 294.758449 
L 193.750172 294.980066 
L 194.075152 294.604193 
L 194.400131 294.987385 
L 195.05009 294.732266 
L 195.700049 295.014912 
L 196.025029 294.87622 
L 196.350008 295.159605 
L 196.674988 294.879612 
L 197.324947 295.117087 
L 197.649926 294.896432 
L 197.974906 295.127973 
L 198.299885 294.862249 
L 198.624865 294.876321 
L 198.949844 295.09212 
L 199.599803 294.854296 
L 200.249762 294.980967 
L 200.899722 294.857307 
L 202.849599 295.112047 
L 203.174578 295.03061 
L 203.499558 295.192967 
L 203.824537 295.064175 
L 204.149517 295.127355 
L 204.799476 294.972298 
L 205.449435 295.144652 
L 206.424373 295.021804 
L 207.074333 295.163926 
L 207.399312 295.305977 
L 207.724292 295.085992 
L 208.049271 295.260316 
L 209.02421 295.110522 
L 210.324128 295.191871 
L 210.649107 295.097084 
L 210.974087 295.244754 
L 211.624046 295.095144 
L 211.949025 295.251047 
L 212.274005 295.269957 
L 212.598984 295.085416 
L 212.923964 295.122845 
L 213.573923 295.051871 
L 213.898903 295.127704 
L 214.223882 295.358336 
L 214.873841 294.956186 
L 216.173759 295.090014 
L 216.498739 295.075722 
L 216.823718 295.197466 
L 217.148698 295.188153 
L 217.473677 295.065703 
L 218.123636 295.328142 
L 218.448616 295.025398 
L 219.098575 294.911592 
L 219.748534 295.243192 
L 220.723473 294.921562 
L 221.048452 295.164452 
L 221.373432 295.007587 
L 221.698411 294.604212 
L 222.023391 294.764704 
L 222.34837 295.132169 
L 222.67335 295.092881 
L 222.998329 294.828436 
L 223.323309 294.945488 
L 223.648288 295.248156 
L 224.298247 294.929649 
L 224.623227 295.115997 
L 225.273186 295.190816 
L 225.598165 295.072068 
L 226.248124 295.180616 
L 226.573104 295.23087 
L 226.898084 295.104845 
L 227.548043 295.169163 
L 228.198002 295.227899 
L 228.522981 295.057237 
L 229.49792 295.17799 
L 229.822899 295.124795 
L 230.147879 295.197247 
L 230.797838 295.092102 
L 233.072695 295.199307 
L 233.397674 295.073721 
L 234.047633 294.201638 
L 234.372613 294.56129 
L 234.697592 295.15763 
L 235.022572 295.126214 
L 235.347551 294.77755 
L 235.672531 294.898231 
L 235.99751 295.293224 
L 236.32249 294.794423 
L 236.647469 294.51075 
L 237.622408 295.206483 
L 237.947387 294.797488 
L 238.272367 294.795914 
L 238.597346 295.109031 
L 238.922326 295.050689 
L 239.247305 294.855165 
L 239.572285 295.054541 
L 239.897265 295.087149 
L 240.222244 294.598108 
L 240.547224 294.772378 
L 240.872203 295.097447 
L 241.197183 294.098449 
L 241.522162 294.798701 
L 241.847142 294.808747 
L 242.172121 293.650352 
L 242.497101 294.641273 
L 242.82208 295.133086 
L 243.14706 294.558802 
L 243.472039 295.21142 
L 243.797019 294.850941 
L 244.121998 294.729185 
L 244.446978 295.265367 
L 244.771957 294.826767 
L 245.096937 294.832411 
L 245.421916 295.203151 
L 245.746896 295.148068 
L 246.071876 295.264117 
L 246.721835 295.109361 
L 247.046814 295.312518 
L 247.371794 295.154645 
L 247.696773 295.20917 
L 248.346732 295.056851 
L 248.671712 295.358047 
L 249.321671 295.060445 
L 249.97163 295.291598 
L 250.621589 295.180017 
L 250.946568 295.280882 
L 252.896446 295.171472 
L 253.221425 295.282485 
L 253.546405 295.258225 
L 253.871384 295.090647 
L 254.846323 295.175791 
L 255.171302 295.171158 
L 255.496282 295.28152 
L 256.146241 295.175921 
L 256.7962 295.248131 
L 257.121179 295.302088 
L 257.446159 295.179134 
L 257.771138 295.251662 
L 258.096118 295.194316 
L 258.746077 295.294235 
L 259.071057 295.219448 
L 260.045995 295.26678 
L 261.345913 295.199121 
L 261.670893 295.277927 
L 262.320852 295.233398 
L 262.645831 295.335989 
L 263.945749 295.219909 
L 264.920688 295.210901 
L 265.570647 295.245093 
L 265.895627 295.334254 
L 266.545586 295.25983 
L 266.870565 295.347748 
L 267.845504 295.032299 
L 268.170483 294.732378 
L 268.495463 294.821495 
L 269.145422 295.268423 
L 269.470401 295.213744 
L 269.795381 295.275 
L 270.12036 295.185982 
L 271.095299 295.296293 
L 272.070238 294.887181 
L 272.720197 294.97682 
L 273.045176 295.205265 
L 274.020115 295.207581 
L 277.594889 295.306091 
L 278.244848 294.938346 
L 278.894808 295.279783 
L 279.219787 294.36918 
L 279.544767 293.085635 
L 279.869746 295.00551 
L 280.194726 294.176164 
L 280.519705 291.351757 
L 280.844685 294.092204 
L 281.169664 294.795866 
L 281.494644 293.028963 
L 281.819623 295.340389 
L 282.144603 293.173872 
L 282.469582 294.617418 
L 283.119541 293.505246 
L 283.444521 295.179087 
L 283.7695 293.567178 
L 284.09448 295.109904 
L 284.419459 294.018177 
L 285.069419 294.861186 
L 285.394398 294.471327 
L 285.719378 295.113759 
L 286.044357 294.258064 
L 286.369337 295.216907 
L 286.694316 294.508666 
L 287.019296 295.325291 
L 287.344275 294.77396 
L 287.669255 295.15217 
L 287.994234 294.486283 
L 288.644193 295.23184 
L 288.969173 295.03515 
L 289.619132 295.165245 
L 290.59407 295.32878 
L 291.244029 294.407444 
L 291.569009 295.156524 
L 291.893989 295.08434 
L 292.218968 295.27121 
L 292.868927 294.943081 
L 293.193907 295.302602 
L 293.518886 295.08824 
L 294.168845 295.281354 
L 294.818804 295.236475 
L 295.468763 295.176186 
L 295.793743 295.327112 
L 296.443702 294.965648 
L 296.768681 295.041003 
L 297.093661 295.291354 
L 297.74362 295.17031 
L 298.0686 295.307517 
L 298.393579 295.121441 
L 298.718559 295.13993 
L 299.043538 295.326568 
L 299.368518 295.195434 
L 300.668436 295.303821 
L 302.293333 295.198915 
L 302.943292 295.365062 
L 303.593251 295.298006 
L 304.56819 295.3149 
L 305.218149 295.365054 
L 305.868108 295.304755 
L 306.193088 295.38874 
L 307.493006 295.321502 
L 308.142965 295.386412 
L 309.442883 295.341286 
L 309.767862 295.431531 
L 310.417821 295.215171 
L 311.067781 295.387076 
L 311.39276 295.258987 
L 313.017658 295.371899 
L 313.667617 295.286164 
L 314.317576 295.314541 
L 316.917412 295.285744 
L 317.567371 295.250894 
L 317.892351 295.39206 
L 318.867289 295.29474 
L 320.167207 295.339557 
L 320.492187 295.25272 
L 320.817166 295.048015 
L 321.142146 295.147766 
L 321.467125 295.375138 
L 321.792105 295.068585 
L 322.117084 294.989397 
L 322.442064 295.282466 
L 322.767043 295.362697 
L 323.092023 295.22515 
L 323.741982 295.315097 
L 324.391941 295.289428 
L 325.0419 295.305282 
L 325.36688 295.263356 
L 325.691859 295.354153 
L 326.341818 295.163475 
L 326.666798 295.315198 
L 326.991777 295.342733 
L 327.641736 295.018435 
L 328.291695 295.354574 
L 328.616675 294.876357 
L 328.941654 294.63325 
L 329.266634 295.244998 
L 329.591613 295.193104 
L 329.916593 294.914595 
L 330.241572 295.302469 
L 330.566552 295.171451 
L 330.891532 294.896067 
L 331.216511 295.317673 
L 331.86647 295.078991 
L 332.19145 295.386483 
L 332.841409 294.198695 
L 333.166388 295.175128 
L 333.816347 295.056468 
L 334.141327 295.248753 
L 334.466306 294.499314 
L 334.791286 294.516734 
L 335.116265 295.265873 
L 335.441245 294.250629 
L 336.091204 295.260473 
L 336.416183 294.682284 
L 336.741163 294.663755 
L 337.066143 295.224936 
L 337.391122 294.269796 
L 337.716102 294.298381 
L 338.041081 295.319047 
L 338.366061 294.509416 
L 338.69104 294.937423 
L 339.01602 295.099938 
L 339.340999 294.661225 
L 339.665979 295.28702 
L 339.990958 294.680001 
L 340.315938 294.371776 
L 340.640917 295.325056 
L 340.965897 295.077434 
L 341.290876 295.384321 
L 341.615856 295.052399 
L 342.265815 295.343591 
L 342.590794 295.073616 
L 342.915774 295.301494 
L 344.540672 295.301509 
L 344.865651 295.430525 
L 345.190631 295.435165 
L 345.51561 295.269201 
L 345.84059 295.265826 
L 346.165569 295.420108 
L 346.490549 295.199739 
L 347.140508 295.36667 
L 347.465487 295.191717 
L 347.790467 295.334264 
L 348.115446 295.305981 
L 348.440426 295.095983 
L 348.765405 295.340362 
L 349.415364 295.058908 
L 349.740344 295.29863 
L 350.065324 295.238234 
L 350.715283 295.357893 
L 351.365242 295.364052 
L 352.34018 295.275532 
L 352.66516 295.429393 
L 353.315119 295.013743 
L 353.965078 295.361382 
L 354.290057 295.031737 
L 354.940016 295.307685 
L 355.264996 294.711818 
L 355.914955 295.388484 
L 356.239934 295.005328 
L 356.564914 295.118753 
L 356.889894 295.36309 
L 357.539853 295.355494 
L 367.614218 295.422855 
L 368.589156 295.473513 
L 369.564095 295.392203 
L 371.513972 295.350569 
L 372.163931 295.348968 
L 372.81389 295.351587 
L 373.13887 295.15815 
L 374.763767 295.399476 
L 375.088747 295.118607 
L 375.413726 295.160125 
L 375.738706 295.376595 
L 376.388665 295.036134 
L 376.713645 295.331276 
L 377.038624 295.297268 
L 377.363604 294.90004 
L 378.013563 295.365581 
L 378.338542 295.04362 
L 378.988501 295.447391 
L 379.313481 295.242974 
L 379.63846 295.431844 
L 380.288419 295.187651 
L 380.938378 295.362082 
L 381.588337 295.448265 
L 382.888256 295.351617 
L 385.163112 295.351006 
L 385.813071 295.375877 
L 390.687764 295.450113 
L 391.337723 295.423591 
L 393.2876 295.414655 
L 393.937559 295.43421 
L 394.912498 295.475365 
L 397.512334 295.397855 
L 397.837314 295.487907 
L 398.487273 295.392085 
L 398.487273 295.392085 
" style="fill:none;stroke:#1f77b4;stroke-linecap:square;stroke-width:1.5;"/>
   </g>
   <g id="patch_3">
    <path d="M 57.6 307.584 
L 57.6 41.472 
" style="fill:none;stroke:#000000;stroke-linecap:square;stroke-linejoin:miter;stroke-width:0.8;"/>
   </g>
   <g id="patch_4">
    <path d="M 414.72 307.584 
L 414.72 41.472 
" style="fill:none;stroke:#000000;stroke-linecap:square;stroke-linejoin:miter;stroke-width:0.8;"/>
   </g>
   <g id="patch_5">
    <path d="M 57.6 307.584 
L 414.72 307.584 
" style="fill:none;stroke:#000000;stroke-linecap:square;stroke-linejoin:miter;stroke-width:0.8;"/>
   </g>
   <g id="patch_6">
    <path d="M 57.6 41.472 
L 414.72 41.472 
" style="fill:none;stroke:#000000;stroke-linecap:square;stroke-linejoin:miter;stroke-width:0.8;"/>
   </g>
   <g id="text_17">
    <!-- Training Loss -->
    <defs>
     <path d="M -0.296875 72.90625 
L 61.375 72.90625 
L 61.375 64.59375 
L 35.5 64.59375 
L 35.5 0 
L 25.59375 0 
L 25.59375 64.59375 
L -0.296875 64.59375 
z
" id="DejaVuSans-84"/>
     <path d="M 41.109375 46.296875 
Q 39.59375 47.171875 37.8125 47.578125 
Q 36.03125 48 33.890625 48 
Q 26.265625 48 22.1875 43.046875 
Q 18.109375 38.09375 18.109375 28.8125 
L 18.109375 0 
L 9.078125 0 
L 9.078125 54.6875 
L 18.109375 54.6875 
L 18.109375 46.1875 
Q 20.953125 51.171875 25.484375 53.578125 
Q 30.03125 56 36.53125 56 
Q 37.453125 56 38.578125 55.875 
Q 39.703125 55.765625 41.0625 55.515625 
z
" id="DejaVuSans-114"/>
     <path d="M 34.28125 27.484375 
Q 23.390625 27.484375 19.1875 25 
Q 14.984375 22.515625 14.984375 16.5 
Q 14.984375 11.71875 18.140625 8.90625 
Q 21.296875 6.109375 26.703125 6.109375 
Q 34.1875 6.109375 38.703125 11.40625 
Q 43.21875 16.703125 43.21875 25.484375 
L 43.21875 27.484375 
z
M 52.203125 31.203125 
L 52.203125 0 
L 43.21875 0 
L 43.21875 8.296875 
Q 40.140625 3.328125 35.546875 0.953125 
Q 30.953125 -1.421875 24.3125 -1.421875 
Q 15.921875 -1.421875 10.953125 3.296875 
Q 6 8.015625 6 15.921875 
Q 6 25.140625 12.171875 29.828125 
Q 18.359375 34.515625 30.609375 34.515625 
L 43.21875 34.515625 
L 43.21875 35.40625 
Q 43.21875 41.609375 39.140625 45 
Q 35.0625 48.390625 27.6875 48.390625 
Q 23 48.390625 18.546875 47.265625 
Q 14.109375 46.140625 10.015625 43.890625 
L 10.015625 52.203125 
Q 14.9375 54.109375 19.578125 55.046875 
Q 24.21875 56 28.609375 56 
Q 40.484375 56 46.34375 49.84375 
Q 52.203125 43.703125 52.203125 31.203125 
z
" id="DejaVuSans-97"/>
     <path d="M 9.421875 54.6875 
L 18.40625 54.6875 
L 18.40625 0 
L 9.421875 0 
z
M 9.421875 75.984375 
L 18.40625 75.984375 
L 18.40625 64.59375 
L 9.421875 64.59375 
z
" id="DejaVuSans-105"/>
     <path d="M 54.890625 33.015625 
L 54.890625 0 
L 45.90625 0 
L 45.90625 32.71875 
Q 45.90625 40.484375 42.875 44.328125 
Q 39.84375 48.1875 33.796875 48.1875 
Q 26.515625 48.1875 22.3125 43.546875 
Q 18.109375 38.921875 18.109375 30.90625 
L 18.109375 0 
L 9.078125 0 
L 9.078125 54.6875 
L 18.109375 54.6875 
L 18.109375 46.1875 
Q 21.34375 51.125 25.703125 53.5625 
Q 30.078125 56 35.796875 56 
Q 45.21875 56 50.046875 50.171875 
Q 54.890625 44.34375 54.890625 33.015625 
z
" id="DejaVuSans-110"/>
     <path d="M 45.40625 27.984375 
Q 45.40625 37.75 41.375 43.109375 
Q 37.359375 48.484375 30.078125 48.484375 
Q 22.859375 48.484375 18.828125 43.109375 
Q 14.796875 37.75 14.796875 27.984375 
Q 14.796875 18.265625 18.828125 12.890625 
Q 22.859375 7.515625 30.078125 7.515625 
Q 37.359375 7.515625 41.375 12.890625 
Q 45.40625 18.265625 45.40625 27.984375 
z
M 54.390625 6.78125 
Q 54.390625 -7.171875 48.1875 -13.984375 
Q 42 -20.796875 29.203125 -20.796875 
Q 24.46875 -20.796875 20.265625 -20.09375 
Q 16.0625 -19.390625 12.109375 -17.921875 
L 12.109375 -9.1875 
Q 16.0625 -11.328125 19.921875 -12.34375 
Q 23.78125 -13.375 27.78125 -13.375 
Q 36.625 -13.375 41.015625 -8.765625 
Q 45.40625 -4.15625 45.40625 5.171875 
L 45.40625 9.625 
Q 42.625 4.78125 38.28125 2.390625 
Q 33.9375 0 27.875 0 
Q 17.828125 0 11.671875 7.65625 
Q 5.515625 15.328125 5.515625 27.984375 
Q 5.515625 40.671875 11.671875 48.328125 
Q 17.828125 56 27.875 56 
Q 33.9375 56 38.28125 53.609375 
Q 42.625 51.21875 45.40625 46.390625 
L 45.40625 54.6875 
L 54.390625 54.6875 
z
" id="DejaVuSans-103"/>
     <path id="DejaVuSans-32"/>
    </defs>
    <g transform="translate(196.445625 35.472)scale(0.12 -0.12)">
     <use xlink:href="#DejaVuSans-84"/>
     <use x="60.865234" xlink:href="#DejaVuSans-114"/>
     <use x="101.978516" xlink:href="#DejaVuSans-97"/>
     <use x="163.257812" xlink:href="#DejaVuSans-105"/>
     <use x="191.041016" xlink:href="#DejaVuSans-110"/>
     <use x="254.419922" xlink:href="#DejaVuSans-105"/>
     <use x="282.203125" xlink:href="#DejaVuSans-110"/>
     <use x="345.582031" xlink:href="#DejaVuSans-103"/>
     <use x="409.058594" xlink:href="#DejaVuSans-32"/>
     <use x="440.845703" xlink:href="#DejaVuSans-76"/>
     <use x="496.542969" xlink:href="#DejaVuSans-111"/>
     <use x="557.724609" xlink:href="#DejaVuSans-115"/>
     <use x="609.824219" xlink:href="#DejaVuSans-115"/>
    </g>
   </g>
  </g>
 </g>
 <defs>
  <clipPath id="p2cd9d91f09">
   <rect height="266.112" width="357.12" x="57.6" y="41.472"/>
  </clipPath>
 </defs>
</svg>
