<?xml version="1.0" encoding="utf-8" standalone="no"?>
<!DOCTYPE svg PUBLIC "-//W3C//DTD SVG 1.1//EN"
  "http://www.w3.org/Graphics/SVG/1.1/DTD/svg11.dtd">
<!-- Created with matplotlib (https://matplotlib.org/) -->
<svg height="345.6pt" version="1.1" viewBox="0 0 460.8 345.6" width="460.8pt" xmlns="http://www.w3.org/2000/svg" xmlns:xlink="http://www.w3.org/1999/xlink">
 <defs>
  <style type="text/css">
*{stroke-linecap:butt;stroke-linejoin:round;}
  </style>
 </defs>
 <g id="figure_1">
  <g id="patch_1">
   <path d="M 0 345.6 
L 460.8 345.6 
L 460.8 0 
L 0 0 
z
" style="fill:#ffffff;"/>
  </g>
  <g id="axes_1">
   <g id="patch_2">
    <path d="M 57.6 307.584 
L 414.72 307.584 
L 414.72 41.472 
L 57.6 41.472 
z
" style="fill:#ffffff;"/>
   </g>
   <g id="matplotlib.axis_1">
    <g id="xtick_1">
     <g id="line2d_1">
      <defs>
       <path d="M 0 0 
L 0 3.5 
" id="m84e399330b" style="stroke:#000000;stroke-width:0.8;"/>
      </defs>
      <g>
       <use style="stroke:#000000;stroke-width:0.8;" x="73.832727" xlink:href="#m84e399330b" y="307.584"/>
      </g>
     </g>
     <g id="text_1">
      <!-- 0 -->
      <defs>
       <path d="M 31.78125 66.40625 
Q 24.171875 66.40625 20.328125 58.90625 
Q 16.5 51.421875 16.5 36.375 
Q 16.5 21.390625 20.328125 13.890625 
Q 24.171875 6.390625 31.78125 6.390625 
Q 39.453125 6.390625 43.28125 13.890625 
Q 47.125 21.390625 47.125 36.375 
Q 47.125 51.421875 43.28125 58.90625 
Q 39.453125 66.40625 31.78125 66.40625 
z
M 31.78125 74.21875 
Q 44.046875 74.21875 50.515625 64.515625 
Q 56.984375 54.828125 56.984375 36.375 
Q 56.984375 17.96875 50.515625 8.265625 
Q 44.046875 -1.421875 31.78125 -1.421875 
Q 19.53125 -1.421875 13.0625 8.265625 
Q 6.59375 17.96875 6.59375 36.375 
Q 6.59375 54.828125 13.0625 64.515625 
Q 19.53125 74.21875 31.78125 74.21875 
z
" id="DejaVuSans-48"/>
      </defs>
      <g transform="translate(70.651477 322.182437)scale(0.1 -0.1)">
       <use xlink:href="#DejaVuSans-48"/>
      </g>
     </g>
    </g>
    <g id="xtick_2">
     <g id="line2d_2">
      <g>
       <use style="stroke:#000000;stroke-width:0.8;" x="114.424693" xlink:href="#m84e399330b" y="307.584"/>
      </g>
     </g>
     <g id="text_2">
      <!-- 500 -->
      <defs>
       <path d="M 10.796875 72.90625 
L 49.515625 72.90625 
L 49.515625 64.59375 
L 19.828125 64.59375 
L 19.828125 46.734375 
Q 21.96875 47.46875 24.109375 47.828125 
Q 26.265625 48.1875 28.421875 48.1875 
Q 40.625 48.1875 47.75 41.5 
Q 54.890625 34.8125 54.890625 23.390625 
Q 54.890625 11.625 47.5625 5.09375 
Q 40.234375 -1.421875 26.90625 -1.421875 
Q 22.3125 -1.421875 17.546875 -0.640625 
Q 12.796875 0.140625 7.71875 1.703125 
L 7.71875 11.625 
Q 12.109375 9.234375 16.796875 8.0625 
Q 21.484375 6.890625 26.703125 6.890625 
Q 35.15625 6.890625 40.078125 11.328125 
Q 45.015625 15.765625 45.015625 23.390625 
Q 45.015625 31 40.078125 35.4375 
Q 35.15625 39.890625 26.703125 39.890625 
Q 22.75 39.890625 18.8125 39.015625 
Q 14.890625 38.140625 10.796875 36.28125 
z
" id="DejaVuSans-53"/>
      </defs>
      <g transform="translate(104.880943 322.182437)scale(0.1 -0.1)">
       <use xlink:href="#DejaVuSans-53"/>
       <use x="63.623047" xlink:href="#DejaVuSans-48"/>
       <use x="127.246094" xlink:href="#DejaVuSans-48"/>
      </g>
     </g>
    </g>
    <g id="xtick_3">
     <g id="line2d_3">
      <g>
       <use style="stroke:#000000;stroke-width:0.8;" x="155.01666" xlink:href="#m84e399330b" y="307.584"/>
      </g>
     </g>
     <g id="text_3">
      <!-- 1000 -->
      <defs>
       <path d="M 12.40625 8.296875 
L 28.515625 8.296875 
L 28.515625 63.921875 
L 10.984375 60.40625 
L 10.984375 69.390625 
L 28.421875 72.90625 
L 38.28125 72.90625 
L 38.28125 8.296875 
L 54.390625 8.296875 
L 54.390625 0 
L 12.40625 0 
z
" id="DejaVuSans-49"/>
      </defs>
      <g transform="translate(142.29166 322.182437)scale(0.1 -0.1)">
       <use xlink:href="#DejaVuSans-49"/>
       <use x="63.623047" xlink:href="#DejaVuSans-48"/>
       <use x="127.246094" xlink:href="#DejaVuSans-48"/>
       <use x="190.869141" xlink:href="#DejaVuSans-48"/>
      </g>
     </g>
    </g>
    <g id="xtick_4">
     <g id="line2d_4">
      <g>
       <use style="stroke:#000000;stroke-width:0.8;" x="195.608626" xlink:href="#m84e399330b" y="307.584"/>
      </g>
     </g>
     <g id="text_4">
      <!-- 1500 -->
      <g transform="translate(182.883626 322.182437)scale(0.1 -0.1)">
       <use xlink:href="#DejaVuSans-49"/>
       <use x="63.623047" xlink:href="#DejaVuSans-53"/>
       <use x="127.246094" xlink:href="#DejaVuSans-48"/>
       <use x="190.869141" xlink:href="#DejaVuSans-48"/>
      </g>
     </g>
    </g>
    <g id="xtick_5">
     <g id="line2d_5">
      <g>
       <use style="stroke:#000000;stroke-width:0.8;" x="236.200592" xlink:href="#m84e399330b" y="307.584"/>
      </g>
     </g>
     <g id="text_5">
      <!-- 2000 -->
      <defs>
       <path d="M 19.1875 8.296875 
L 53.609375 8.296875 
L 53.609375 0 
L 7.328125 0 
L 7.328125 8.296875 
Q 12.9375 14.109375 22.625 23.890625 
Q 32.328125 33.6875 34.8125 36.53125 
Q 39.546875 41.84375 41.421875 45.53125 
Q 43.3125 49.21875 43.3125 52.78125 
Q 43.3125 58.59375 39.234375 62.25 
Q 35.15625 65.921875 28.609375 65.921875 
Q 23.96875 65.921875 18.8125 64.3125 
Q 13.671875 62.703125 7.8125 59.421875 
L 7.8125 69.390625 
Q 13.765625 71.78125 18.9375 73 
Q 24.125 74.21875 28.421875 74.21875 
Q 39.75 74.21875 46.484375 68.546875 
Q 53.21875 62.890625 53.21875 53.421875 
Q 53.21875 48.921875 51.53125 44.890625 
Q 49.859375 40.875 45.40625 35.40625 
Q 44.1875 33.984375 37.640625 27.21875 
Q 31.109375 20.453125 19.1875 8.296875 
z
" id="DejaVuSans-50"/>
      </defs>
      <g transform="translate(223.475592 322.182437)scale(0.1 -0.1)">
       <use xlink:href="#DejaVuSans-50"/>
       <use x="63.623047" xlink:href="#DejaVuSans-48"/>
       <use x="127.246094" xlink:href="#DejaVuSans-48"/>
       <use x="190.869141" xlink:href="#DejaVuSans-48"/>
      </g>
     </g>
    </g>
    <g id="xtick_6">
     <g id="line2d_6">
      <g>
       <use style="stroke:#000000;stroke-width:0.8;" x="276.792558" xlink:href="#m84e399330b" y="307.584"/>
      </g>
     </g>
     <g id="text_6">
      <!-- 2500 -->
      <g transform="translate(264.067558 322.182437)scale(0.1 -0.1)">
       <use xlink:href="#DejaVuSans-50"/>
       <use x="63.623047" xlink:href="#DejaVuSans-53"/>
       <use x="127.246094" xlink:href="#DejaVuSans-48"/>
       <use x="190.869141" xlink:href="#DejaVuSans-48"/>
      </g>
     </g>
    </g>
    <g id="xtick_7">
     <g id="line2d_7">
      <g>
       <use style="stroke:#000000;stroke-width:0.8;" x="317.384524" xlink:href="#m84e399330b" y="307.584"/>
      </g>
     </g>
     <g id="text_7">
      <!-- 3000 -->
      <defs>
       <path d="M 40.578125 39.3125 
Q 47.65625 37.796875 51.625 33 
Q 55.609375 28.21875 55.609375 21.1875 
Q 55.609375 10.40625 48.1875 4.484375 
Q 40.765625 -1.421875 27.09375 -1.421875 
Q 22.515625 -1.421875 17.65625 -0.515625 
Q 12.796875 0.390625 7.625 2.203125 
L 7.625 11.71875 
Q 11.71875 9.328125 16.59375 8.109375 
Q 21.484375 6.890625 26.8125 6.890625 
Q 36.078125 6.890625 40.9375 10.546875 
Q 45.796875 14.203125 45.796875 21.1875 
Q 45.796875 27.640625 41.28125 31.265625 
Q 36.765625 34.90625 28.71875 34.90625 
L 20.21875 34.90625 
L 20.21875 43.015625 
L 29.109375 43.015625 
Q 36.375 43.015625 40.234375 45.921875 
Q 44.09375 48.828125 44.09375 54.296875 
Q 44.09375 59.90625 40.109375 62.90625 
Q 36.140625 65.921875 28.71875 65.921875 
Q 24.65625 65.921875 20.015625 65.03125 
Q 15.375 64.15625 9.8125 62.3125 
L 9.8125 71.09375 
Q 15.4375 72.65625 20.34375 73.4375 
Q 25.25 74.21875 29.59375 74.21875 
Q 40.828125 74.21875 47.359375 69.109375 
Q 53.90625 64.015625 53.90625 55.328125 
Q 53.90625 49.265625 50.4375 45.09375 
Q 46.96875 40.921875 40.578125 39.3125 
z
" id="DejaVuSans-51"/>
      </defs>
      <g transform="translate(304.659524 322.182437)scale(0.1 -0.1)">
       <use xlink:href="#DejaVuSans-51"/>
       <use x="63.623047" xlink:href="#DejaVuSans-48"/>
       <use x="127.246094" xlink:href="#DejaVuSans-48"/>
       <use x="190.869141" xlink:href="#DejaVuSans-48"/>
      </g>
     </g>
    </g>
    <g id="xtick_8">
     <g id="line2d_8">
      <g>
       <use style="stroke:#000000;stroke-width:0.8;" x="357.97649" xlink:href="#m84e399330b" y="307.584"/>
      </g>
     </g>
     <g id="text_8">
      <!-- 3500 -->
      <g transform="translate(345.25149 322.182437)scale(0.1 -0.1)">
       <use xlink:href="#DejaVuSans-51"/>
       <use x="63.623047" xlink:href="#DejaVuSans-53"/>
       <use x="127.246094" xlink:href="#DejaVuSans-48"/>
       <use x="190.869141" xlink:href="#DejaVuSans-48"/>
      </g>
     </g>
    </g>
    <g id="xtick_9">
     <g id="line2d_9">
      <g>
       <use style="stroke:#000000;stroke-width:0.8;" x="398.568457" xlink:href="#m84e399330b" y="307.584"/>
      </g>
     </g>
     <g id="text_9">
      <!-- 4000 -->
      <defs>
       <path d="M 37.796875 64.3125 
L 12.890625 25.390625 
L 37.796875 25.390625 
z
M 35.203125 72.90625 
L 47.609375 72.90625 
L 47.609375 25.390625 
L 58.015625 25.390625 
L 58.015625 17.1875 
L 47.609375 17.1875 
L 47.609375 0 
L 37.796875 0 
L 37.796875 17.1875 
L 4.890625 17.1875 
L 4.890625 26.703125 
z
" id="DejaVuSans-52"/>
      </defs>
      <g transform="translate(385.843457 322.182437)scale(0.1 -0.1)">
       <use xlink:href="#DejaVuSans-52"/>
       <use x="63.623047" xlink:href="#DejaVuSans-48"/>
       <use x="127.246094" xlink:href="#DejaVuSans-48"/>
       <use x="190.869141" xlink:href="#DejaVuSans-48"/>
      </g>
     </g>
    </g>
    <g id="text_10">
     <!-- Epoch -->
     <defs>
      <path d="M 9.8125 72.90625 
L 55.90625 72.90625 
L 55.90625 64.59375 
L 19.671875 64.59375 
L 19.671875 43.015625 
L 54.390625 43.015625 
L 54.390625 34.71875 
L 19.671875 34.71875 
L 19.671875 8.296875 
L 56.78125 8.296875 
L 56.78125 0 
L 9.8125 0 
z
" id="DejaVuSans-69"/>
      <path d="M 18.109375 8.203125 
L 18.109375 -20.796875 
L 9.078125 -20.796875 
L 9.078125 54.6875 
L 18.109375 54.6875 
L 18.109375 46.390625 
Q 20.953125 51.265625 25.265625 53.625 
Q 29.59375 56 35.59375 56 
Q 45.5625 56 51.78125 48.09375 
Q 58.015625 40.1875 58.015625 27.296875 
Q 58.015625 14.40625 51.78125 6.484375 
Q 45.5625 -1.421875 35.59375 -1.421875 
Q 29.59375 -1.421875 25.265625 0.953125 
Q 20.953125 3.328125 18.109375 8.203125 
z
M 48.6875 27.296875 
Q 48.6875 37.203125 44.609375 42.84375 
Q 40.53125 48.484375 33.40625 48.484375 
Q 26.265625 48.484375 22.1875 42.84375 
Q 18.109375 37.203125 18.109375 27.296875 
Q 18.109375 17.390625 22.1875 11.75 
Q 26.265625 6.109375 33.40625 6.109375 
Q 40.53125 6.109375 44.609375 11.75 
Q 48.6875 17.390625 48.6875 27.296875 
z
" id="DejaVuSans-112"/>
      <path d="M 30.609375 48.390625 
Q 23.390625 48.390625 19.1875 42.75 
Q 14.984375 37.109375 14.984375 27.296875 
Q 14.984375 17.484375 19.15625 11.84375 
Q 23.34375 6.203125 30.609375 6.203125 
Q 37.796875 6.203125 41.984375 11.859375 
Q 46.1875 17.53125 46.1875 27.296875 
Q 46.1875 37.015625 41.984375 42.703125 
Q 37.796875 48.390625 30.609375 48.390625 
z
M 30.609375 56 
Q 42.328125 56 49.015625 48.375 
Q 55.71875 40.765625 55.71875 27.296875 
Q 55.71875 13.875 49.015625 6.21875 
Q 42.328125 -1.421875 30.609375 -1.421875 
Q 18.84375 -1.421875 12.171875 6.21875 
Q 5.515625 13.875 5.515625 27.296875 
Q 5.515625 40.765625 12.171875 48.375 
Q 18.84375 56 30.609375 56 
z
" id="DejaVuSans-111"/>
      <path d="M 48.78125 52.59375 
L 48.78125 44.1875 
Q 44.96875 46.296875 41.140625 47.34375 
Q 37.3125 48.390625 33.40625 48.390625 
Q 24.65625 48.390625 19.8125 42.84375 
Q 14.984375 37.3125 14.984375 27.296875 
Q 14.984375 17.28125 19.8125 11.734375 
Q 24.65625 6.203125 33.40625 6.203125 
Q 37.3125 6.203125 41.140625 7.25 
Q 44.96875 8.296875 48.78125 10.40625 
L 48.78125 2.09375 
Q 45.015625 0.34375 40.984375 -0.53125 
Q 36.96875 -1.421875 32.421875 -1.421875 
Q 20.0625 -1.421875 12.78125 6.34375 
Q 5.515625 14.109375 5.515625 27.296875 
Q 5.515625 40.671875 12.859375 48.328125 
Q 20.21875 56 33.015625 56 
Q 37.15625 56 41.109375 55.140625 
Q 45.0625 54.296875 48.78125 52.59375 
z
" id="DejaVuSans-99"/>
      <path d="M 54.890625 33.015625 
L 54.890625 0 
L 45.90625 0 
L 45.90625 32.71875 
Q 45.90625 40.484375 42.875 44.328125 
Q 39.84375 48.1875 33.796875 48.1875 
Q 26.515625 48.1875 22.3125 43.546875 
Q 18.109375 38.921875 18.109375 30.90625 
L 18.109375 0 
L 9.078125 0 
L 9.078125 75.984375 
L 18.109375 75.984375 
L 18.109375 46.1875 
Q 21.34375 51.125 25.703125 53.5625 
Q 30.078125 56 35.796875 56 
Q 45.21875 56 50.046875 50.171875 
Q 54.890625 44.34375 54.890625 33.015625 
z
" id="DejaVuSans-104"/>
     </defs>
     <g transform="translate(220.849063 335.860562)scale(0.1 -0.1)">
      <use xlink:href="#DejaVuSans-69"/>
      <use x="63.183594" xlink:href="#DejaVuSans-112"/>
      <use x="126.660156" xlink:href="#DejaVuSans-111"/>
      <use x="187.841797" xlink:href="#DejaVuSans-99"/>
      <use x="242.822266" xlink:href="#DejaVuSans-104"/>
     </g>
    </g>
   </g>
   <g id="matplotlib.axis_2">
    <g id="ytick_1">
     <g id="line2d_10">
      <defs>
       <path d="M 0 0 
L -3.5 0 
" id="m91eae2debd" style="stroke:#000000;stroke-width:0.8;"/>
      </defs>
      <g>
       <use style="stroke:#000000;stroke-width:0.8;" x="57.6" xlink:href="#m91eae2debd" y="296.984342"/>
      </g>
     </g>
     <g id="text_11">
      <!-- 0.0 -->
      <defs>
       <path d="M 10.6875 12.40625 
L 21 12.40625 
L 21 0 
L 10.6875 0 
z
" id="DejaVuSans-46"/>
      </defs>
      <g transform="translate(34.696875 300.78356)scale(0.1 -0.1)">
       <use xlink:href="#DejaVuSans-48"/>
       <use x="63.623047" xlink:href="#DejaVuSans-46"/>
       <use x="95.410156" xlink:href="#DejaVuSans-48"/>
      </g>
     </g>
    </g>
    <g id="ytick_2">
     <g id="line2d_11">
      <g>
       <use style="stroke:#000000;stroke-width:0.8;" x="57.6" xlink:href="#m91eae2debd" y="258.206098"/>
      </g>
     </g>
     <g id="text_12">
      <!-- 0.5 -->
      <g transform="translate(34.696875 262.005316)scale(0.1 -0.1)">
       <use xlink:href="#DejaVuSans-48"/>
       <use x="63.623047" xlink:href="#DejaVuSans-46"/>
       <use x="95.410156" xlink:href="#DejaVuSans-53"/>
      </g>
     </g>
    </g>
    <g id="ytick_3">
     <g id="line2d_12">
      <g>
       <use style="stroke:#000000;stroke-width:0.8;" x="57.6" xlink:href="#m91eae2debd" y="219.427854"/>
      </g>
     </g>
     <g id="text_13">
      <!-- 1.0 -->
      <g transform="translate(34.696875 223.227073)scale(0.1 -0.1)">
       <use xlink:href="#DejaVuSans-49"/>
       <use x="63.623047" xlink:href="#DejaVuSans-46"/>
       <use x="95.410156" xlink:href="#DejaVuSans-48"/>
      </g>
     </g>
    </g>
    <g id="ytick_4">
     <g id="line2d_13">
      <g>
       <use style="stroke:#000000;stroke-width:0.8;" x="57.6" xlink:href="#m91eae2debd" y="180.64961"/>
      </g>
     </g>
     <g id="text_14">
      <!-- 1.5 -->
      <g transform="translate(34.696875 184.448829)scale(0.1 -0.1)">
       <use xlink:href="#DejaVuSans-49"/>
       <use x="63.623047" xlink:href="#DejaVuSans-46"/>
       <use x="95.410156" xlink:href="#DejaVuSans-53"/>
      </g>
     </g>
    </g>
    <g id="ytick_5">
     <g id="line2d_14">
      <g>
       <use style="stroke:#000000;stroke-width:0.8;" x="57.6" xlink:href="#m91eae2debd" y="141.871366"/>
      </g>
     </g>
     <g id="text_15">
      <!-- 2.0 -->
      <g transform="translate(34.696875 145.670585)scale(0.1 -0.1)">
       <use xlink:href="#DejaVuSans-50"/>
       <use x="63.623047" xlink:href="#DejaVuSans-46"/>
       <use x="95.410156" xlink:href="#DejaVuSans-48"/>
      </g>
     </g>
    </g>
    <g id="ytick_6">
     <g id="line2d_15">
      <g>
       <use style="stroke:#000000;stroke-width:0.8;" x="57.6" xlink:href="#m91eae2debd" y="103.093122"/>
      </g>
     </g>
     <g id="text_16">
      <!-- 2.5 -->
      <g transform="translate(34.696875 106.892341)scale(0.1 -0.1)">
       <use xlink:href="#DejaVuSans-50"/>
       <use x="63.623047" xlink:href="#DejaVuSans-46"/>
       <use x="95.410156" xlink:href="#DejaVuSans-53"/>
      </g>
     </g>
    </g>
    <g id="ytick_7">
     <g id="line2d_16">
      <g>
       <use style="stroke:#000000;stroke-width:0.8;" x="57.6" xlink:href="#m91eae2debd" y="64.314879"/>
      </g>
     </g>
     <g id="text_17">
      <!-- 3.0 -->
      <g transform="translate(34.696875 68.114097)scale(0.1 -0.1)">
       <use xlink:href="#DejaVuSans-51"/>
       <use x="63.623047" xlink:href="#DejaVuSans-46"/>
       <use x="95.410156" xlink:href="#DejaVuSans-48"/>
      </g>
     </g>
    </g>
    <g id="text_18">
     <!-- Loss -->
     <defs>
      <path d="M 9.8125 72.90625 
L 19.671875 72.90625 
L 19.671875 8.296875 
L 55.171875 8.296875 
L 55.171875 0 
L 9.8125 0 
z
" id="DejaVuSans-76"/>
      <path d="M 44.28125 53.078125 
L 44.28125 44.578125 
Q 40.484375 46.53125 36.375 47.5 
Q 32.28125 48.484375 27.875 48.484375 
Q 21.1875 48.484375 17.84375 46.4375 
Q 14.5 44.390625 14.5 40.28125 
Q 14.5 37.15625 16.890625 35.375 
Q 19.28125 33.59375 26.515625 31.984375 
L 29.59375 31.296875 
Q 39.15625 29.25 43.1875 25.515625 
Q 47.21875 21.78125 47.21875 15.09375 
Q 47.21875 7.46875 41.1875 3.015625 
Q 35.15625 -1.421875 24.609375 -1.421875 
Q 20.21875 -1.421875 15.453125 -0.5625 
Q 10.6875 0.296875 5.421875 2 
L 5.421875 11.28125 
Q 10.40625 8.6875 15.234375 7.390625 
Q 20.0625 6.109375 24.8125 6.109375 
Q 31.15625 6.109375 34.5625 8.28125 
Q 37.984375 10.453125 37.984375 14.40625 
Q 37.984375 18.0625 35.515625 20.015625 
Q 33.0625 21.96875 24.703125 23.78125 
L 21.578125 24.515625 
Q 13.234375 26.265625 9.515625 29.90625 
Q 5.8125 33.546875 5.8125 39.890625 
Q 5.8125 47.609375 11.28125 51.796875 
Q 16.75 56 26.8125 56 
Q 31.78125 56 36.171875 55.265625 
Q 40.578125 54.546875 44.28125 53.078125 
z
" id="DejaVuSans-115"/>
     </defs>
     <g transform="translate(28.617188 185.581906)rotate(-90)scale(0.1 -0.1)">
      <use xlink:href="#DejaVuSans-76"/>
      <use x="55.697266" xlink:href="#DejaVuSans-111"/>
      <use x="116.878906" xlink:href="#DejaVuSans-115"/>
      <use x="168.978516" xlink:href="#DejaVuSans-115"/>
     </g>
    </g>
   </g>
   <g id="line2d_17">
    <path clip-path="url(#p6054349f02)" d="M 73.832727 195.985849 
L 73.913911 197.097827 
L 74.401015 211.236373 
L 74.725751 218.421976 
L 74.806934 218.789945 
L 75.050486 225.058169 
L 75.13167 220.751174 
L 75.294038 226.160726 
L 75.456406 219.013121 
L 75.53759 219.148003 
L 75.699958 225.461839 
L 75.781142 222.994274 
L 75.862326 224.979088 
L 76.105877 222.290935 
L 76.268245 226.073495 
L 76.349429 223.48646 
L 76.430613 225.417933 
L 76.592981 223.09633 
L 76.755349 227.303899 
L 76.836533 223.690822 
L 76.998901 228.772516 
L 77.080085 225.080178 
L 77.161268 225.48395 
L 77.242452 225.79095 
L 77.323636 223.523687 
L 77.40482 226.129398 
L 77.486004 225.165407 
L 77.648372 228.405661 
L 77.729556 223.93713 
L 77.81074 225.564815 
L 77.891924 221.296619 
L 77.973108 225.854124 
L 78.054292 224.63769 
L 78.135476 226.511101 
L 78.21666 226.097108 
L 78.297844 227.027233 
L 78.379027 224.018166 
L 78.460211 227.193753 
L 78.622579 223.389928 
L 78.703763 226.756439 
L 78.784947 220.983845 
L 78.947315 225.364711 
L 79.028499 226.289048 
L 79.190867 225.540671 
L 79.272051 223.194516 
L 79.353235 224.552914 
L 79.434419 223.415585 
L 79.515603 223.490741 
L 79.67797 227.556466 
L 79.840338 224.202183 
L 79.921522 227.959032 
L 80.002706 223.497472 
L 80.08389 227.967126 
L 80.165074 223.205454 
L 80.246258 225.61058 
L 80.327442 224.564586 
L 80.48981 225.66995 
L 80.570994 223.465131 
L 80.733362 226.468406 
L 80.814545 226.977992 
L 80.895729 224.147358 
L 81.058097 226.553945 
L 81.139281 226.451773 
L 81.220465 226.290468 
L 81.301649 223.673131 
L 81.464017 225.600498 
L 81.626385 223.350159 
L 81.788753 227.776587 
L 81.869937 223.253461 
L 81.951121 226.293634 
L 82.032304 224.390934 
L 82.113488 229.225562 
L 82.194672 226.157883 
L 82.275856 227.531633 
L 82.438224 225.055649 
L 82.681776 227.927445 
L 82.844144 225.097739 
L 83.087696 232.189867 
L 83.168879 224.605142 
L 83.250063 228.243316 
L 83.331247 221.88065 
L 83.412431 229.727456 
L 83.493615 226.376353 
L 83.574799 229.212489 
L 83.655983 226.856354 
L 83.818351 229.545246 
L 83.899535 229.682213 
L 83.980719 230.613646 
L 84.143087 228.661598 
L 84.386638 231.070307 
L 84.467822 229.661508 
L 84.549006 231.446671 
L 84.63019 229.788277 
L 84.954926 233.950941 
L 85.03611 232.015512 
L 85.117294 233.307541 
L 85.198478 232.233778 
L 85.279662 235.454242 
L 85.360846 233.14569 
L 85.44203 234.225328 
L 85.523214 228.069741 
L 85.604397 233.395779 
L 85.685581 230.322211 
L 85.766765 235.67256 
L 85.847949 235.597718 
L 86.010317 240.614311 
L 86.091501 237.330857 
L 86.172685 227.926705 
L 86.253869 228.717834 
L 86.416237 239.360585 
L 86.497421 239.974437 
L 86.659789 246.578285 
L 86.822156 232.029865 
L 86.90334 246.512637 
L 86.984524 241.444381 
L 87.065708 242.660329 
L 87.146892 232.021905 
L 87.228076 243.164544 
L 87.30926 237.846314 
L 87.471628 248.324839 
L 87.552812 241.136813 
L 87.633996 241.145365 
L 87.71518 249.372973 
L 87.796364 242.942736 
L 87.877548 252.82413 
L 87.958732 247.888971 
L 88.039915 251.436364 
L 88.202283 248.724219 
L 88.364651 258.119098 
L 88.445835 253.536025 
L 88.527019 254.590529 
L 88.608203 251.085406 
L 88.689387 256.185097 
L 88.770571 253.070179 
L 88.932939 256.345718 
L 89.014123 251.449576 
L 89.095307 256.261783 
L 89.17649 244.177425 
L 89.257674 253.209272 
L 89.338858 242.252018 
L 89.420042 257.929335 
L 89.501226 252.456595 
L 89.58241 254.98004 
L 89.663594 262.089355 
L 89.744778 246.354924 
L 89.907146 259.736935 
L 89.98833 248.611818 
L 90.069514 260.896867 
L 90.150698 253.180796 
L 90.394249 261.709122 
L 90.475433 255.90306 
L 90.556617 264.722199 
L 90.637801 262.64353 
L 90.718985 260.418851 
L 90.881353 262.690554 
L 90.962537 262.2684 
L 91.206089 268.450003 
L 91.449641 261.446736 
L 91.530825 269.865121 
L 91.612008 261.384567 
L 91.693192 269.377044 
L 91.774376 250.30381 
L 91.85556 254.067888 
L 91.936744 252.567222 
L 92.017928 256.821656 
L 92.099112 252.82192 
L 92.26148 261.401516 
L 92.342664 253.221005 
L 92.423848 254.820154 
L 92.505032 254.377259 
L 92.6674 258.632616 
L 92.748584 257.436922 
L 92.829767 257.308711 
L 92.910951 265.474883 
L 92.992135 263.955032 
L 93.073319 266.734546 
L 93.154503 265.755808 
L 93.235687 264.207828 
L 93.316871 269.529266 
L 93.479239 261.16333 
L 93.641607 269.593499 
L 93.722791 258.682736 
L 93.803975 271.074253 
L 93.885159 267.055664 
L 94.12871 274.429729 
L 94.209894 269.430083 
L 94.291078 270.584355 
L 94.372262 274.82491 
L 94.453446 262.092082 
L 94.53463 271.133389 
L 94.615814 246.172391 
L 94.696998 265.060566 
L 94.859366 252.877161 
L 94.94055 260.88645 
L 95.021734 258.25263 
L 95.184101 262.484928 
L 95.265285 262.294618 
L 95.346469 263.354842 
L 95.427653 273.804868 
L 95.671205 262.308775 
L 95.914757 274.270044 
L 95.995941 270.993924 
L 96.077125 271.717083 
L 96.239493 280.425473 
L 96.483044 262.562854 
L 96.564228 279.79825 
L 96.645412 276.267029 
L 96.726596 277.28405 
L 96.80778 274.353574 
L 96.888964 278.98795 
L 96.970148 277.556784 
L 97.051332 269.921562 
L 97.2137 279.193361 
L 97.294884 279.570945 
L 97.376068 279.514946 
L 97.538436 276.002773 
L 97.619619 282.216212 
L 97.700803 280.899218 
L 97.781987 280.564015 
L 97.863171 281.604499 
L 97.944355 277.304004 
L 98.106723 285.192447 
L 98.187907 283.443553 
L 98.269091 283.905517 
L 98.512643 270.174056 
L 98.675011 272.774081 
L 98.918562 256.150029 
L 98.999746 251.707478 
L 99.08093 254.278486 
L 99.162114 264.160556 
L 99.243298 259.535638 
L 99.324482 271.081222 
L 99.405666 261.613332 
L 99.649218 279.308024 
L 99.730402 280.210644 
L 99.89277 274.119042 
L 99.973953 273.402288 
L 100.136321 282.276986 
L 100.217505 279.73141 
L 100.298689 283.266656 
L 100.461057 279.129328 
L 100.542241 284.796519 
L 100.623425 279.331078 
L 100.704609 279.747183 
L 100.785793 257.192024 
L 100.866977 276.617585 
L 100.948161 257.532872 
L 101.191712 275.293823 
L 101.272896 262.60722 
L 101.435264 280.299737 
L 101.597632 271.433111 
L 101.76 284.277375 
L 101.841184 271.81205 
L 102.003552 285.384142 
L 102.16592 276.651453 
L 102.247104 277.145153 
L 102.328288 281.410436 
L 102.409471 276.387736 
L 102.490655 279.867384 
L 102.571839 279.725209 
L 102.653023 280.367917 
L 102.734207 284.641603 
L 102.815391 281.059644 
L 102.896575 267.579476 
L 103.058943 281.847155 
L 103.140127 277.618154 
L 103.221311 282.602147 
L 103.302495 280.949797 
L 103.383679 279.897302 
L 103.464863 280.925622 
L 103.546047 273.505648 
L 103.708414 285.385179 
L 103.789598 284.232568 
L 103.870782 287.719509 
L 104.03315 275.782128 
L 104.114334 287.397973 
L 104.195518 285.638421 
L 104.43907 277.021595 
L 104.601438 288.528974 
L 104.682622 277.776716 
L 104.763805 286.570148 
L 104.844989 285.119492 
L 105.007357 280.418856 
L 105.169725 287.926707 
L 105.250909 285.932696 
L 105.332093 270.851068 
L 105.413277 288.698514 
L 105.494461 286.765198 
L 105.575645 281.400267 
L 105.819197 289.353156 
L 105.981564 283.944381 
L 106.062748 279.155738 
L 106.143932 290.025054 
L 106.3063 277.038098 
L 106.468668 284.036439 
L 106.549852 276.919049 
L 106.631036 283.981489 
L 106.71222 267.19566 
L 106.874588 289.389361 
L 106.955772 268.622343 
L 107.036956 286.666163 
L 107.11814 275.898492 
L 107.199323 278.243742 
L 107.361691 283.471598 
L 107.442875 272.70455 
L 107.524059 283.948795 
L 107.605243 283.676393 
L 107.686427 287.385681 
L 107.767611 286.134792 
L 107.848795 286.949474 
L 107.929979 277.978625 
L 108.092347 287.289937 
L 108.173531 279.725247 
L 108.417082 290.251587 
L 108.498266 284.814518 
L 108.57945 285.552767 
L 108.823002 292.346803 
L 108.98537 282.542578 
L 109.066554 282.840731 
L 109.147738 289.780928 
L 109.228922 286.384209 
L 109.310106 291.712742 
L 109.472474 283.42711 
L 109.634841 289.136789 
L 109.716025 286.657455 
L 109.878393 290.520484 
L 110.040761 283.584462 
L 110.203129 292.343839 
L 110.284313 290.333939 
L 110.446681 284.192633 
L 110.527865 284.968345 
L 110.609049 287.454566 
L 110.690233 237.283049 
L 110.771416 256.950866 
L 110.8526 219.369376 
L 110.933784 243.189955 
L 111.014968 225.324045 
L 111.096152 230.176383 
L 111.339704 263.434212 
L 111.420888 264.829 
L 111.502072 263.48592 
L 111.583256 237.9896 
L 111.66444 254.101888 
L 111.826808 240.15765 
L 111.907992 238.426832 
L 112.070359 257.877889 
L 112.151543 249.004574 
L 112.232727 249.809783 
L 112.313911 248.704402 
L 112.395095 266.751918 
L 112.476279 262.018648 
L 112.557463 255.891124 
L 112.882199 267.230527 
L 112.963383 267.939247 
L 113.044567 271.570558 
L 113.125751 269.063765 
L 113.288118 273.0209 
L 113.369302 272.816272 
L 113.450486 273.641089 
L 113.53167 272.363871 
L 113.612854 273.561336 
L 114.018774 246.137429 
L 114.099958 260.397758 
L 114.181142 257.075485 
L 114.262326 258.885971 
L 114.34351 255.170191 
L 114.505877 266.203457 
L 114.587061 263.835999 
L 114.749429 259.399926 
L 114.830613 265.82373 
L 114.911797 262.933157 
L 115.074165 270.610536 
L 115.155349 271.297353 
L 115.236533 273.10507 
L 115.317717 270.475088 
L 115.398901 275.986515 
L 115.480085 269.262442 
L 115.642452 275.609074 
L 115.723636 274.883177 
L 115.80482 275.860858 
L 115.886004 274.296987 
L 116.048372 281.890495 
L 116.129556 273.142568 
L 116.21074 273.881748 
L 116.291924 268.171821 
L 116.373108 270.027594 
L 116.61666 262.294347 
L 116.779027 268.556212 
L 116.860211 266.468732 
L 116.941395 266.553286 
L 117.103763 272.977661 
L 117.184947 273.614227 
L 117.266131 272.887555 
L 117.347315 269.791911 
L 117.428499 258.866008 
L 117.509683 274.597384 
L 117.672051 242.868398 
L 117.753235 267.789473 
L 117.834419 263.165073 
L 117.915603 269.448805 
L 117.996786 263.994942 
L 118.07797 266.36029 
L 118.159154 264.469215 
L 118.48389 275.026823 
L 118.565074 273.12012 
L 118.727442 278.393823 
L 118.808626 270.578223 
L 118.88981 270.731224 
L 118.970994 271.105778 
L 119.052178 268.230264 
L 119.376913 278.469166 
L 119.539281 271.650194 
L 119.620465 275.94645 
L 119.701649 270.212766 
L 119.864017 276.799332 
L 120.107569 263.884471 
L 120.188753 272.778061 
L 120.269937 267.129361 
L 120.351121 269.773912 
L 120.432304 260.842608 
L 120.675856 272.16931 
L 120.75704 271.902976 
L 120.838224 270.227541 
L 120.919408 266.009328 
L 121.000592 271.469866 
L 121.081776 267.042438 
L 121.244144 273.391696 
L 121.325328 274.935855 
L 121.406512 271.811153 
L 121.650063 275.250651 
L 121.731247 274.985311 
L 121.812431 276.023566 
L 121.893615 271.487659 
L 121.974799 275.332256 
L 122.055983 273.402889 
L 122.137167 273.958999 
L 122.218351 278.404006 
L 122.299535 274.27851 
L 122.380719 277.042457 
L 122.461903 262.550571 
L 122.705455 280.323642 
L 122.786638 275.54311 
L 122.949006 278.900745 
L 123.03019 274.518511 
L 123.192558 278.627446 
L 123.273742 278.597269 
L 123.43611 272.471858 
L 123.517294 279.770227 
L 123.679662 267.524464 
L 123.760846 274.807974 
L 123.84203 272.393787 
L 123.923214 275.53904 
L 124.004397 257.495307 
L 124.085581 268.550734 
L 124.166765 265.018315 
L 124.247949 268.119949 
L 124.329133 266.887491 
L 124.653869 276.48433 
L 124.735053 272.537483 
L 124.816237 273.396237 
L 124.897421 275.304122 
L 124.978605 273.05967 
L 125.059789 276.218812 
L 125.140973 276.066752 
L 125.222156 271.526841 
L 125.30334 275.077706 
L 125.384524 273.019383 
L 125.465708 279.106364 
L 125.546892 277.296002 
L 125.628076 277.347862 
L 125.70926 280.009256 
L 125.790444 274.824725 
L 125.952812 278.644231 
L 126.033996 277.656054 
L 126.11518 279.379329 
L 126.196364 277.837327 
L 126.277548 278.459954 
L 126.358732 276.769443 
L 126.602283 280.723736 
L 126.683467 279.425199 
L 126.764651 280.014419 
L 126.845835 279.547606 
L 126.927019 282.430616 
L 127.170571 277.949887 
L 127.251755 277.701465 
L 127.332939 282.198587 
L 127.820042 260.532961 
L 127.901226 262.463731 
L 127.98241 268.104045 
L 128.063594 257.721918 
L 128.144778 268.253431 
L 128.225962 265.110577 
L 128.469514 251.774946 
L 128.550698 260.249632 
L 128.631882 251.162393 
L 128.713066 267.30692 
L 128.794249 265.052844 
L 128.875433 262.335249 
L 128.956617 266.784094 
L 129.037801 265.368729 
L 129.200169 256.119362 
L 129.362537 261.460756 
L 129.443721 269.653303 
L 129.524905 266.311846 
L 129.687273 268.731629 
L 129.930825 262.015481 
L 130.093192 272.872822 
L 130.174376 274.887589 
L 130.336744 271.386162 
L 130.499112 277.751618 
L 130.580296 276.837381 
L 130.66148 262.260236 
L 130.823848 278.094756 
L 130.905032 274.396778 
L 130.986216 275.67257 
L 131.0674 274.037747 
L 131.148584 276.372206 
L 131.229767 276.31468 
L 131.392135 274.001392 
L 131.473319 278.831429 
L 131.554503 275.900678 
L 131.635687 276.954121 
L 131.716871 276.338242 
L 131.798055 278.039753 
L 131.879239 277.989975 
L 131.960423 274.192165 
L 132.203975 280.217226 
L 132.285159 276.169393 
L 132.366342 277.636192 
L 132.447526 276.79378 
L 132.52871 277.111525 
L 132.609894 279.969797 
L 132.691078 277.437166 
L 132.772262 278.078058 
L 132.853446 278.543504 
L 132.93463 279.717607 
L 133.178182 276.370888 
L 133.34055 280.782025 
L 133.421734 278.264893 
L 133.584101 283.344863 
L 133.665285 281.252125 
L 133.746469 281.840054 
L 133.827653 273.408871 
L 133.908837 276.77705 
L 133.990021 271.782589 
L 134.071205 273.531108 
L 134.233573 272.821327 
L 134.395941 246.06972 
L 134.639493 268.825114 
L 134.80186 259.87879 
L 134.883044 264.773252 
L 134.964228 263.697937 
L 135.045412 263.284773 
L 135.126596 264.715535 
L 135.20778 272.186202 
L 135.451332 264.926466 
L 135.6137 269.301944 
L 135.694884 269.006445 
L 135.776068 265.35346 
L 135.857252 268.375484 
L 135.938436 268.149012 
L 136.100803 266.469016 
L 136.181987 267.8871 
L 136.344355 272.058984 
L 136.425539 267.507632 
L 136.506723 268.076322 
L 136.587907 270.629055 
L 136.669091 266.638028 
L 136.831459 276.165156 
L 136.912643 272.151656 
L 136.993827 273.035801 
L 137.156195 266.035393 
L 137.318562 272.332677 
L 137.643298 276.6654 
L 137.724482 274.926979 
L 137.88685 276.983466 
L 137.968034 276.724205 
L 138.049218 279.732331 
L 138.211586 274.40263 
L 138.373953 279.309052 
L 138.455137 277.370992 
L 138.536321 279.031449 
L 138.698689 277.687515 
L 138.779873 281.661518 
L 138.861057 280.052889 
L 138.942241 280.212707 
L 139.104609 278.696584 
L 139.185793 282.483326 
L 139.348161 275.880935 
L 139.429345 277.27275 
L 139.510529 277.207105 
L 139.591712 273.997876 
L 139.672896 277.421706 
L 139.75408 276.247619 
L 139.835264 278.571463 
L 139.997632 274.328618 
L 140.078816 278.73726 
L 140.16 275.828846 
L 140.241184 277.339347 
L 140.403552 259.852017 
L 140.484736 277.389254 
L 140.728288 263.571419 
L 140.809471 259.153951 
L 140.890655 265.773197 
L 140.971839 263.133913 
L 141.134207 265.627345 
L 141.215391 258.984013 
L 141.540127 265.596967 
L 141.702495 268.229721 
L 141.783679 263.410877 
L 141.864863 265.033706 
L 142.108414 272.813843 
L 142.189598 265.576003 
L 142.270782 266.463243 
L 142.351966 274.975904 
L 142.43315 264.058708 
L 142.595518 273.31607 
L 142.676702 271.261548 
L 142.757886 274.45931 
L 142.83907 271.80767 
L 142.920254 276.826354 
L 143.001438 275.43477 
L 143.244989 271.150965 
L 143.326173 278.478381 
L 143.407357 276.299083 
L 143.488541 279.376073 
L 143.569725 269.825576 
L 143.650909 273.342942 
L 143.975645 279.642091 
L 144.056829 273.347937 
L 144.138013 273.674595 
L 144.219197 277.548033 
L 144.300381 276.461343 
L 144.381564 277.961281 
L 144.462748 276.649095 
L 144.543932 271.669977 
L 144.625116 276.996579 
L 144.7063 272.115513 
L 144.787484 281.361071 
L 144.868668 280.296542 
L 144.949852 280.05858 
L 145.031036 277.690508 
L 145.11222 270.417706 
L 145.193404 281.34128 
L 145.274588 277.6309 
L 145.436956 275.380471 
L 145.51814 272.303596 
L 145.599323 278.498525 
L 145.680507 278.140328 
L 145.761691 270.387196 
L 145.924059 277.559202 
L 146.005243 271.133944 
L 146.086427 274.239189 
L 146.167611 271.606745 
L 146.248795 278.838559 
L 146.329979 267.071168 
L 146.492347 274.336169 
L 146.654715 275.841577 
L 146.735899 272.756498 
L 146.898266 275.545313 
L 146.97945 274.704025 
L 147.060634 275.078811 
L 147.141818 273.537462 
L 147.223002 273.899183 
L 147.304186 273.473356 
L 147.38537 274.835572 
L 147.466554 267.028607 
L 147.710106 278.726359 
L 147.79129 273.437001 
L 147.872474 274.998269 
L 147.953658 274.688581 
L 148.034841 276.956816 
L 148.116025 276.138041 
L 148.197209 274.117667 
L 148.278393 278.254189 
L 148.359577 277.128865 
L 148.440761 279.3826 
L 148.603129 275.582792 
L 148.684313 276.989411 
L 148.765497 268.611662 
L 148.927865 278.425638 
L 149.009049 276.737803 
L 149.090233 277.070896 
L 149.171416 276.765803 
L 149.2526 280.16165 
L 149.496152 275.910929 
L 149.739704 279.16735 
L 149.820888 280.169914 
L 149.902072 278.664817 
L 149.983256 279.882937 
L 150.06444 278.433878 
L 150.226808 279.659864 
L 150.307992 277.056006 
L 150.470359 281.068058 
L 150.551543 278.83241 
L 150.632727 281.141533 
L 150.713911 278.039831 
L 150.795095 280.754937 
L 150.876279 270.306968 
L 150.957463 274.097302 
L 151.201015 280.058693 
L 151.282199 278.478633 
L 151.363383 278.81182 
L 151.444567 280.111397 
L 151.525751 278.832582 
L 151.606934 275.521767 
L 151.769302 280.471499 
L 151.850486 279.809396 
L 151.93167 280.856682 
L 152.012854 279.158359 
L 152.094038 279.440542 
L 152.175222 282.53112 
L 152.33759 278.396242 
L 152.418774 278.602788 
L 152.499958 281.934481 
L 152.581142 281.654067 
L 152.662326 280.084091 
L 152.74351 280.374284 
L 152.824693 274.344601 
L 152.905877 279.817018 
L 152.987061 279.251674 
L 153.068245 279.164481 
L 153.230613 281.513477 
L 153.311797 278.164096 
L 153.392981 279.231234 
L 153.474165 279.795848 
L 153.555349 276.861974 
L 153.717717 280.17319 
L 153.798901 276.999759 
L 153.961268 283.23892 
L 154.123636 276.195876 
L 154.20482 274.282453 
L 154.286004 280.82537 
L 154.367188 277.219031 
L 154.448372 281.073377 
L 154.529556 280.872331 
L 154.691924 277.194855 
L 154.854292 281.177595 
L 154.935476 279.151965 
L 155.01666 279.557596 
L 155.097844 279.053667 
L 155.179027 282.218811 
L 155.260211 279.481159 
L 155.503763 282.068448 
L 155.584947 276.200032 
L 155.666131 281.056485 
L 155.747315 280.264608 
L 155.909683 278.530595 
L 156.072051 281.293665 
L 156.234419 279.103286 
L 156.396786 283.476284 
L 156.47797 277.697878 
L 156.640338 282.451384 
L 156.88389 277.799828 
L 156.965074 281.49629 
L 157.046258 281.083829 
L 157.208626 282.1805 
L 157.370994 280.623909 
L 157.452178 281.117191 
L 157.533362 282.86064 
L 157.776913 277.601039 
L 157.858097 278.284621 
L 157.939281 279.934072 
L 158.020465 279.619598 
L 158.101649 280.525654 
L 158.182833 279.61122 
L 158.345201 281.651645 
L 158.426385 279.417369 
L 158.507569 280.341687 
L 158.588753 279.503066 
L 158.751121 282.667461 
L 158.832304 278.936662 
L 158.913488 279.090849 
L 158.994672 276.90078 
L 159.075856 277.498267 
L 159.15704 276.093501 
L 159.238224 280.774478 
L 159.481776 277.889446 
L 159.56296 276.581809 
L 159.644144 272.931022 
L 159.806512 277.841524 
L 159.887696 276.604495 
L 159.968879 276.649107 
L 160.050063 279.724678 
L 160.131247 277.093032 
L 160.212431 277.940114 
L 160.374799 281.471659 
L 160.537167 277.173807 
L 160.618351 277.153731 
L 160.780719 275.849123 
L 160.861903 275.874516 
L 160.943087 281.218863 
L 161.024271 277.026042 
L 161.105455 277.554047 
L 161.186638 275.716469 
L 161.267822 275.990851 
L 161.511374 280.071345 
L 161.592558 279.639598 
L 161.83611 276.19369 
L 161.998478 279.476819 
L 162.079662 279.689161 
L 162.160846 281.323202 
L 162.24203 278.839178 
L 162.404397 282.332806 
L 162.485581 277.5791 
L 162.566765 280.541805 
L 162.729133 276.07578 
L 162.810317 282.211142 
L 162.972685 278.450779 
L 163.053869 277.281914 
L 163.135053 279.093486 
L 163.216237 276.381795 
L 163.297421 279.430654 
L 163.378605 276.602283 
L 163.459789 278.120393 
L 163.622156 273.338171 
L 163.70334 281.341367 
L 163.784524 270.809544 
L 163.865708 280.735451 
L 163.946892 269.962933 
L 164.028076 274.417215 
L 164.190444 269.090657 
L 164.271628 274.536484 
L 164.352812 273.51877 
L 164.433996 276.036059 
L 164.51518 270.250349 
L 164.596364 276.336585 
L 164.677548 274.83036 
L 164.758732 278.344801 
L 164.839915 276.877144 
L 165.002283 280.183951 
L 165.245835 275.613454 
L 165.327019 274.948494 
L 165.408203 281.108522 
L 165.570571 275.118328 
L 165.651755 279.853662 
L 165.732939 275.008265 
L 165.895307 280.21257 
L 165.97649 282.553658 
L 166.057674 261.969404 
L 166.138858 269.328134 
L 166.220042 266.387779 
L 166.301226 282.148372 
L 166.38241 278.950535 
L 166.463594 278.294446 
L 166.544778 269.099669 
L 166.625962 276.908345 
L 166.707146 275.567502 
L 166.78833 277.720675 
L 166.950698 216.883505 
L 167.113066 260.179098 
L 167.194249 249.011369 
L 167.275433 249.314176 
L 167.437801 255.099001 
L 167.600169 247.747243 
L 167.762537 253.57701 
L 167.924905 263.957734 
L 168.087273 256.211793 
L 168.168457 257.369555 
L 168.330825 254.478751 
L 168.412008 265.434448 
L 168.574376 249.440894 
L 168.65556 244.118273 
L 168.736744 255.170589 
L 168.817928 254.339145 
L 168.899112 259.481439 
L 169.06148 255.325053 
L 169.223848 256.222957 
L 169.305032 256.082394 
L 169.386216 255.294556 
L 169.629767 257.904872 
L 169.710951 255.078749 
L 169.873319 260.523159 
L 170.035687 260.389446 
L 170.116871 259.26767 
L 170.360423 263.83445 
L 170.522791 259.41137 
L 170.685159 263.543357 
L 170.766342 263.779394 
L 170.847526 268.379622 
L 170.92871 267.683416 
L 171.009894 265.327164 
L 171.091078 269.547981 
L 171.253446 250.009434 
L 171.33463 263.275687 
L 171.415814 256.939105 
L 171.496998 260.205073 
L 171.578182 258.004764 
L 171.74055 264.47529 
L 171.821734 259.274782 
L 171.902918 264.895033 
L 171.984101 262.964328 
L 172.227653 268.457861 
L 172.308837 265.192286 
L 172.552389 274.296879 
L 172.633573 269.382691 
L 172.714757 269.554271 
L 172.795941 269.698511 
L 172.877125 268.174974 
L 173.120677 273.1865 
L 173.283044 275.997968 
L 173.364228 272.729885 
L 173.445412 277.231982 
L 173.526596 275.821357 
L 173.60778 276.32642 
L 173.688964 273.425076 
L 173.770148 275.118159 
L 173.851332 273.186435 
L 173.932516 262.879229 
L 174.0137 276.627417 
L 174.094884 266.500694 
L 174.176068 268.336422 
L 174.338436 261.359641 
L 174.581987 272.225756 
L 174.663171 269.497337 
L 174.744355 270.762254 
L 174.825539 269.04219 
L 174.906723 269.062385 
L 174.987907 273.991615 
L 175.069091 273.485752 
L 175.150275 273.626773 
L 175.231459 268.185578 
L 175.312643 275.716222 
L 175.393827 275.280727 
L 175.475011 274.715083 
L 175.556195 272.775303 
L 175.637378 275.655681 
L 175.718562 271.23484 
L 175.88093 277.641371 
L 175.962114 275.167086 
L 176.043298 279.447877 
L 176.124482 274.005309 
L 176.205666 279.052356 
L 176.28685 275.701478 
L 176.368034 281.127106 
L 176.530402 260.981345 
L 176.611586 263.799334 
L 176.69277 256.459234 
L 176.773953 265.301711 
L 176.936321 244.221494 
L 177.098689 273.890601 
L 177.179873 275.333906 
L 177.342241 263.981164 
L 177.423425 275.179027 
L 177.504609 265.623855 
L 177.585793 268.321315 
L 177.748161 264.312235 
L 177.991712 274.185355 
L 178.072896 274.875658 
L 178.15408 268.571983 
L 178.235264 273.5861 
L 178.316448 271.340504 
L 178.397632 277.309586 
L 178.478816 272.191626 
L 178.56 276.245305 
L 178.884736 268.378274 
L 178.96592 275.030565 
L 179.047104 270.893622 
L 179.128288 277.204719 
L 179.209471 276.768824 
L 179.290655 280.025975 
L 179.371839 275.46234 
L 179.453023 277.143267 
L 179.534207 274.492998 
L 179.615391 282.60613 
L 179.696575 271.002432 
L 179.777759 280.558398 
L 179.858943 277.338975 
L 179.940127 278.572375 
L 180.021311 278.255411 
L 180.264863 273.278772 
L 180.508414 279.727665 
L 180.589598 278.699244 
L 180.670782 279.76026 
L 180.83315 278.201221 
L 180.914334 277.963124 
L 180.995518 276.737967 
L 181.076702 280.15373 
L 181.482622 263.036776 
L 181.563805 277.778243 
L 181.644989 270.946987 
L 181.726173 274.215054 
L 181.807357 273.212484 
L 181.969725 260.409569 
L 182.050909 276.600971 
L 182.132093 261.192513 
L 182.213277 271.754164 
L 182.294461 269.262091 
L 182.375645 274.677842 
L 182.456829 274.381708 
L 182.538013 268.138052 
L 182.700381 280.461242 
L 182.781564 277.401689 
L 182.943932 278.754 
L 183.025116 277.066897 
L 183.1063 281.886755 
L 183.349852 275.685368 
L 183.431036 281.122803 
L 183.51222 277.865864 
L 183.674588 280.613259 
L 183.755772 280.016472 
L 183.836956 281.395358 
L 183.91814 278.238788 
L 184.080507 281.837353 
L 184.161691 279.970364 
L 184.242875 281.115465 
L 184.405243 270.572514 
L 184.486427 270.638723 
L 184.567611 274.811716 
L 184.648795 253.594049 
L 184.729979 258.344102 
L 184.811163 241.345834 
L 184.892347 262.149524 
L 184.973531 248.367155 
L 185.298266 273.91787 
L 185.541818 267.898223 
L 185.623002 266.401945 
L 185.704186 272.700905 
L 185.78537 272.510685 
L 185.866554 272.845236 
L 186.028922 277.371433 
L 186.110106 274.835253 
L 186.272474 278.748135 
L 186.353658 275.74271 
L 186.434841 282.278346 
L 186.597209 275.712233 
L 186.678393 277.676254 
L 186.759577 275.928294 
L 186.840761 278.887769 
L 186.921945 277.490864 
L 187.003129 277.830638 
L 187.084313 282.461768 
L 187.327865 277.875916 
L 187.409049 282.115193 
L 187.490233 277.340884 
L 187.571416 280.440356 
L 187.6526 274.777901 
L 187.814968 283.691912 
L 187.896152 281.60493 
L 187.977336 271.248375 
L 188.05852 280.007122 
L 188.139704 270.488461 
L 188.220888 278.051976 
L 188.302072 257.237826 
L 188.383256 264.868409 
L 188.46444 279.30668 
L 188.545624 266.849918 
L 188.626808 276.234964 
L 188.707992 267.722956 
L 188.789175 269.068299 
L 188.870359 268.024913 
L 188.951543 277.057167 
L 189.032727 275.723246 
L 189.113911 282.484268 
L 189.195095 274.455997 
L 189.276279 275.315573 
L 189.357463 279.940302 
L 189.519831 262.599764 
L 189.763383 280.789252 
L 189.844567 274.984396 
L 189.925751 274.754256 
L 190.006934 275.636501 
L 190.088118 274.473141 
L 190.169302 274.970655 
L 190.33167 277.317368 
L 190.412854 278.35833 
L 190.494038 274.137794 
L 190.575222 278.660477 
L 190.656406 277.961092 
L 190.73759 277.869584 
L 190.818774 281.374592 
L 190.899958 280.3326 
L 190.981142 278.530574 
L 191.062326 283.423829 
L 191.224693 259.893617 
L 191.387061 262.179459 
L 191.630613 273.457491 
L 191.792981 265.119058 
L 191.874165 266.651434 
L 192.117717 275.922895 
L 192.198901 271.649191 
L 192.280085 272.491477 
L 192.523636 273.576706 
L 192.60482 276.456672 
L 192.686004 272.995327 
L 192.767188 279.497713 
L 192.929556 276.763096 
L 193.01074 275.903059 
L 193.173108 281.171953 
L 193.254292 272.244619 
L 193.335476 277.92524 
L 193.41666 276.067732 
L 193.497844 276.325405 
L 193.579027 277.660231 
L 193.660211 274.661272 
L 193.741395 274.966108 
L 193.984947 279.082517 
L 194.147315 277.830797 
L 194.228499 282.010976 
L 194.390867 278.023602 
L 194.553235 275.927971 
L 194.715603 278.600986 
L 194.796786 276.010688 
L 194.87797 276.639917 
L 194.959154 278.267628 
L 195.040338 282.465066 
L 195.121522 281.585395 
L 195.202706 276.982923 
L 195.365074 280.210306 
L 195.446258 281.207198 
L 195.527442 285.038031 
L 195.68981 269.923522 
L 195.770994 276.96777 
L 195.852178 275.58321 
L 196.014545 281.87723 
L 196.339281 275.420617 
L 196.420465 280.84786 
L 196.501649 280.256613 
L 196.582833 275.704825 
L 196.745201 280.668138 
L 196.826385 279.573968 
L 196.907569 280.706243 
L 196.988753 284.218546 
L 197.069937 280.273165 
L 197.232304 282.930652 
L 197.394672 280.26448 
L 197.55704 283.718028 
L 197.719408 281.495035 
L 197.881776 282.463446 
L 197.96296 277.983492 
L 198.044144 283.651475 
L 198.125328 282.844022 
L 198.206512 282.801713 
L 198.287696 284.301269 
L 198.368879 283.306881 
L 198.450063 283.980836 
L 198.531247 282.608604 
L 198.612431 285.919912 
L 198.774799 282.287818 
L 198.855983 282.351206 
L 198.937167 281.822706 
L 199.099535 284.996231 
L 199.180719 283.014294 
L 199.261903 275.443523 
L 199.505455 284.891517 
L 199.586638 284.827923 
L 199.749006 277.817361 
L 199.83019 280.271551 
L 199.992558 240.144956 
L 200.154926 284.598163 
L 200.479662 264.34255 
L 200.64203 260.789419 
L 200.804397 265.439119 
L 200.885581 261.54228 
L 201.047949 270.618536 
L 201.129133 273.710712 
L 201.210317 272.506094 
L 201.453869 279.041984 
L 201.535053 272.102833 
L 201.697421 278.723563 
L 201.778605 275.42505 
L 201.859789 277.197815 
L 201.940973 276.825448 
L 202.022156 273.849209 
L 202.10334 280.230949 
L 202.184524 275.615655 
L 202.428076 280.798445 
L 202.50926 278.076912 
L 202.671628 282.016531 
L 202.752812 280.923385 
L 202.833996 280.253749 
L 202.91518 282.805129 
L 202.996364 279.117635 
L 203.239915 284.219244 
L 203.402283 279.633568 
L 203.645835 285.704971 
L 203.727019 283.164248 
L 203.808203 283.425344 
L 203.970571 285.128612 
L 204.051755 283.826257 
L 204.214123 279.885477 
L 204.295307 288.448749 
L 204.37649 284.87566 
L 204.457674 285.241947 
L 204.538858 287.26919 
L 204.620042 285.436982 
L 204.701226 287.155304 
L 204.863594 283.643388 
L 204.944778 276.000841 
L 205.025962 285.089996 
L 205.107146 278.323566 
L 205.18833 280.603599 
L 205.269514 275.824103 
L 205.431882 283.50214 
L 205.513066 282.036226 
L 205.594249 277.692655 
L 205.675433 282.66862 
L 205.756617 277.874284 
L 205.837801 278.916452 
L 205.918985 279.852317 
L 206.000169 250.077892 
L 206.081353 271.752095 
L 206.162537 264.16862 
L 206.243721 261.156625 
L 206.324905 266.155466 
L 206.406089 259.564609 
L 206.730825 271.532324 
L 206.812008 268.850289 
L 206.893192 279.144607 
L 206.974376 273.521631 
L 207.05556 276.072223 
L 207.136744 275.655752 
L 207.217928 275.718804 
L 207.299112 277.530312 
L 207.380296 277.276718 
L 207.46148 277.491805 
L 207.542664 279.53269 
L 207.623848 276.149698 
L 207.786216 278.972383 
L 207.8674 278.680161 
L 207.948584 271.966652 
L 208.029767 278.670743 
L 208.110951 275.90139 
L 208.192135 280.460178 
L 208.273319 271.014192 
L 208.354503 281.322508 
L 208.435687 278.805703 
L 208.516871 275.313744 
L 208.679239 281.002575 
L 208.841607 275.499615 
L 208.922791 276.770779 
L 209.003975 283.237358 
L 209.166342 278.3604 
L 209.247526 281.236554 
L 209.32871 280.323602 
L 209.491078 282.775434 
L 209.73463 279.266647 
L 209.815814 279.111103 
L 209.896998 286.240752 
L 210.059366 282.189969 
L 210.14055 282.08783 
L 210.302918 286.476645 
L 210.384101 282.459595 
L 210.465285 286.00944 
L 210.546469 285.419074 
L 210.627653 287.154776 
L 210.708837 281.849571 
L 210.790021 286.138182 
L 210.871205 283.83496 
L 210.952389 287.278561 
L 211.033573 285.138729 
L 211.114757 285.874669 
L 211.195941 283.891441 
L 211.358309 287.954355 
L 211.439493 287.316278 
L 211.60186 273.827711 
L 211.683044 279.915762 
L 211.845412 266.719064 
L 211.926596 284.185274 
L 212.088964 254.731273 
L 212.170148 275.181571 
L 212.251332 257.393187 
L 212.332516 280.028502 
L 212.4137 268.976719 
L 212.657252 280.222938 
L 212.738436 277.717243 
L 212.819619 269.970059 
L 212.900803 280.391862 
L 212.981987 279.463206 
L 213.063171 278.711838 
L 213.144355 276.552148 
L 213.387907 284.17468 
L 213.550275 274.3902 
L 213.712643 282.026057 
L 213.793827 279.789153 
L 213.875011 282.146154 
L 213.956195 281.110278 
L 214.037378 281.757944 
L 214.118562 280.707261 
L 214.199746 287.416117 
L 214.362114 280.038489 
L 214.524482 283.906046 
L 214.68685 282.080563 
L 214.849218 284.43305 
L 214.930402 279.948815 
L 215.011586 288.670025 
L 215.09277 283.595297 
L 215.173953 284.791192 
L 215.255137 284.377891 
L 215.498689 289.065142 
L 215.579873 281.704217 
L 215.742241 254.215136 
L 215.823425 286.331615 
L 215.904609 275.662171 
L 215.985793 262.631284 
L 216.148161 283.749733 
L 216.229345 275.432576 
L 216.391712 284.576735 
L 216.55408 277.534461 
L 216.635264 285.45368 
L 216.716448 283.813522 
L 216.878816 286.31908 
L 216.96 286.291205 
L 217.041184 283.862674 
L 217.122368 286.580576 
L 217.203552 285.607326 
L 217.284736 286.165004 
L 217.36592 284.608182 
L 217.447104 286.834649 
L 217.528288 285.419436 
L 217.609471 289.182721 
L 217.690655 286.652482 
L 217.853023 289.524269 
L 217.934207 287.568573 
L 218.015391 288.322261 
L 218.096575 287.139807 
L 218.177759 288.567532 
L 218.258943 287.531471 
L 218.340127 290.400406 
L 218.421311 290.381175 
L 218.502495 287.280087 
L 218.746047 292.01928 
L 218.82723 291.646066 
L 218.908414 291.757086 
L 218.989598 289.015983 
L 219.070782 280.983666 
L 219.23315 289.876496 
L 219.314334 286.433222 
L 219.476702 264.611362 
L 219.63907 286.361202 
L 219.720254 271.520802 
L 219.801438 280.434561 
L 219.882622 276.058114 
L 219.963805 279.750007 
L 220.044989 266.690052 
L 220.207357 284.539568 
L 220.369725 275.095868 
L 220.450909 272.320127 
L 220.532093 278.651052 
L 220.613277 275.21768 
L 220.694461 278.685217 
L 220.856829 266.838026 
L 220.938013 283.088548 
L 221.019197 272.646426 
L 221.181564 279.408084 
L 221.262748 279.333909 
L 221.343932 275.512048 
L 221.425116 279.079385 
L 221.668668 266.217956 
L 221.749852 277.294377 
L 221.831036 277.009451 
L 221.91222 281.692514 
L 221.993404 275.937556 
L 222.074588 282.139423 
L 222.155772 281.216477 
L 222.236956 277.535462 
L 222.31814 279.311607 
L 222.399323 277.107827 
L 222.480507 278.750441 
L 222.561691 276.160577 
L 222.805243 282.527927 
L 222.886427 278.233547 
L 222.967611 283.007886 
L 223.129979 278.881255 
L 223.211163 283.805881 
L 223.292347 282.31898 
L 223.373531 278.476526 
L 223.535899 282.224663 
L 223.617082 280.677659 
L 223.698266 281.15269 
L 223.77945 285.743354 
L 223.941818 277.951015 
L 224.104186 283.517907 
L 224.266554 280.148263 
L 224.428922 285.118607 
L 224.510106 281.301264 
L 224.59129 284.674636 
L 224.672474 281.433384 
L 224.834841 285.917544 
L 224.997209 282.865926 
L 225.078393 284.360116 
L 225.159577 283.750527 
L 225.321945 284.28704 
L 225.403129 284.134687 
L 225.484313 282.406971 
L 225.565497 283.091666 
L 225.646681 282.288968 
L 225.727865 284.346596 
L 225.809049 281.578753 
L 225.890233 283.343939 
L 226.0526 278.885089 
L 226.133784 285.335465 
L 226.214968 283.647508 
L 226.296152 285.535489 
L 226.377336 283.995815 
L 226.45852 284.726635 
L 226.539704 284.027942 
L 226.702072 286.65801 
L 226.783256 284.021666 
L 226.945624 288.350163 
L 227.026808 288.459618 
L 227.189175 286.66829 
L 227.270359 286.673579 
L 227.351543 282.398115 
L 227.432727 285.880886 
L 227.513911 284.490329 
L 227.595095 285.19598 
L 227.676279 284.960354 
L 227.757463 288.124245 
L 227.838647 285.053709 
L 227.919831 277.255814 
L 228.082199 288.101408 
L 228.163383 284.131537 
L 228.244567 284.586415 
L 228.325751 282.391926 
L 228.488118 285.249762 
L 228.569302 276.413708 
L 228.650486 287.487007 
L 228.73167 284.598736 
L 228.894038 287.93466 
L 228.975222 287.565228 
L 229.13759 285.578209 
L 229.299958 288.172078 
L 229.381142 289.63134 
L 229.54351 285.95997 
L 229.624693 286.262984 
L 229.705877 290.61319 
L 229.787061 284.173731 
L 229.868245 291.134519 
L 229.949429 289.304738 
L 230.030613 283.992305 
L 230.274165 291.540936 
L 230.355349 291.515373 
L 230.436533 290.948109 
L 230.517717 291.968432 
L 230.598901 287.845184 
L 230.761268 291.721609 
L 230.842452 288.881102 
L 230.923636 291.765235 
L 231.00482 284.634396 
L 231.086004 291.929727 
L 231.167188 291.247465 
L 231.248372 290.474088 
L 231.329556 292.489474 
L 231.41074 292.448844 
L 231.491924 289.996272 
L 231.573108 292.226026 
L 231.735476 286.399413 
L 231.81666 286.596575 
L 231.897844 290.715753 
L 231.979027 273.249535 
L 232.060211 286.375975 
L 232.141395 278.536836 
L 232.222579 278.547626 
L 232.303763 283.082874 
L 232.384947 275.885758 
L 232.466131 290.864698 
L 232.547315 283.50953 
L 232.628499 285.230436 
L 232.709683 286.8997 
L 232.790867 282.334665 
L 232.872051 284.964379 
L 232.953235 279.86566 
L 233.034419 286.932435 
L 233.115603 275.483151 
L 233.27797 290.597063 
L 233.359154 284.207376 
L 233.521522 287.50199 
L 233.68389 286.214925 
L 233.765074 288.838706 
L 233.846258 287.995869 
L 233.927442 286.030186 
L 234.008626 290.854127 
L 234.08981 288.864168 
L 234.170994 289.343016 
L 234.252178 288.025871 
L 234.414545 291.743081 
L 234.576913 291.581482 
L 234.658097 291.836964 
L 234.739281 291.19115 
L 234.901649 292.34164 
L 235.145201 291.012676 
L 235.226385 293.970262 
L 235.307569 289.867492 
L 235.388753 293.33046 
L 235.469937 275.464776 
L 235.551121 293.758678 
L 235.632304 255.126016 
L 235.713488 290.673442 
L 235.794672 251.682621 
L 235.95704 289.967117 
L 236.119408 270.331201 
L 236.200592 286.80582 
L 236.281776 280.720026 
L 236.444144 289.448542 
L 236.525328 286.053444 
L 236.768879 291.777262 
L 236.931247 288.427445 
L 237.012431 289.668347 
L 237.255983 277.570842 
L 237.337167 288.504089 
L 237.418351 278.313987 
L 237.499535 290.729496 
L 237.580719 287.357865 
L 237.661903 280.641391 
L 237.743087 287.216099 
L 237.905455 279.379814 
L 237.986638 288.987702 
L 238.067822 286.366115 
L 238.149006 285.209315 
L 238.392558 290.666298 
L 238.554926 285.819238 
L 238.63611 290.31752 
L 238.717294 285.050257 
L 238.798478 290.918858 
L 238.879662 289.223436 
L 239.04203 287.893038 
L 239.123214 290.459093 
L 239.204397 289.505546 
L 239.366765 293.32597 
L 239.447949 291.594173 
L 239.529133 292.284793 
L 239.610317 291.891543 
L 239.772685 292.365317 
L 239.853869 291.370277 
L 240.016237 293.472352 
L 240.097421 292.619112 
L 240.178605 292.905114 
L 240.340973 292.285262 
L 240.665708 293.435725 
L 240.828076 293.472832 
L 240.90926 293.57937 
L 240.990444 293.420181 
L 241.071628 292.673614 
L 241.233996 293.992571 
L 241.31518 293.741023 
L 241.396364 294.114191 
L 241.477548 293.908851 
L 241.639915 291.116048 
L 241.802283 294.028848 
L 241.883467 293.445489 
L 241.964651 291.775089 
L 242.127019 274.041034 
L 242.289387 290.213999 
L 242.370571 293.762861 
L 242.614123 272.282354 
L 242.77649 288.422103 
L 242.857674 287.884771 
L 242.938858 291.528984 
L 243.020042 288.616493 
L 243.101226 272.620447 
L 243.263594 291.264506 
L 243.344778 272.07744 
L 243.507146 293.570028 
L 243.58833 290.640513 
L 243.669514 278.441805 
L 243.831882 286.984899 
L 243.913066 285.15616 
L 243.994249 289.149386 
L 244.075433 287.708101 
L 244.237801 287.886925 
L 244.318985 291.106812 
L 244.400169 290.517879 
L 244.481353 289.607135 
L 244.562537 278.300918 
L 244.724905 287.228948 
L 244.806089 291.548929 
L 244.887273 287.631645 
L 244.968457 289.660617 
L 245.049641 285.151435 
L 245.130825 285.251799 
L 245.212008 287.182351 
L 245.293192 283.42816 
L 245.374376 290.372738 
L 245.45556 286.294583 
L 245.536744 291.732515 
L 245.617928 287.654581 
L 245.780296 291.647736 
L 245.86148 290.6688 
L 246.023848 291.652193 
L 246.105032 287.994672 
L 246.186216 291.21062 
L 246.2674 290.88908 
L 246.348584 290.970638 
L 246.429767 290.760586 
L 246.510951 290.939663 
L 246.673319 292.197835 
L 246.754503 291.921969 
L 246.916871 293.30592 
L 246.998055 292.046261 
L 247.079239 292.225743 
L 247.160423 291.364445 
L 247.241607 294.125289 
L 247.322791 292.855009 
L 247.403975 293.76823 
L 247.485159 292.201435 
L 247.566342 294.211341 
L 247.809894 291.977691 
L 247.891078 293.675778 
L 248.053446 292.391972 
L 248.13463 292.455237 
L 248.296998 294.428375 
L 248.378182 293.743269 
L 248.459366 294.442792 
L 248.702918 293.732634 
L 248.784101 294.587144 
L 248.865285 294.322886 
L 248.946469 294.499607 
L 249.027653 293.990051 
L 249.190021 294.630819 
L 249.433573 293.84325 
L 249.514757 294.090937 
L 249.595941 293.979178 
L 249.677125 294.9233 
L 249.839493 293.566077 
L 249.920677 294.450095 
L 250.00186 294.406082 
L 250.083044 294.547976 
L 250.245412 293.975838 
L 250.326596 294.640752 
L 250.40778 294.34389 
L 250.570148 294.716756 
L 250.651332 294.45458 
L 250.732516 294.87169 
L 250.8137 294.4848 
L 250.976068 294.997177 
L 251.138436 294.189915 
L 251.219619 294.81796 
L 251.300803 294.198493 
L 251.381987 294.930863 
L 251.544355 294.607054 
L 251.625539 293.519827 
L 251.787907 295.132381 
L 251.869091 295.07013 
L 251.950275 294.339392 
L 252.031459 294.819264 
L 252.112643 293.472858 
L 252.356195 294.902219 
L 252.437378 294.102364 
L 252.599746 294.904504 
L 252.762114 293.875821 
L 252.843298 294.869078 
L 252.924482 294.387709 
L 253.005666 294.98154 
L 253.08685 294.810979 
L 253.168034 294.206758 
L 253.249218 294.769779 
L 253.330402 294.518975 
L 253.49277 295.072327 
L 253.573953 294.477675 
L 253.736321 290.708944 
L 253.898689 292.837262 
L 253.979873 293.807029 
L 254.061057 282.927086 
L 254.304609 293.877486 
L 254.385793 249.528574 
L 254.466977 294.354436 
L 254.548161 286.690396 
L 254.629345 277.619128 
L 254.710529 290.743515 
L 254.95408 272.947512 
L 255.116448 291.876639 
L 255.197632 287.298056 
L 255.278816 274.030658 
L 255.522368 292.313614 
L 255.603552 280.269599 
L 255.684736 284.547619 
L 255.847104 289.828152 
L 255.928288 284.320067 
L 256.090655 287.884173 
L 256.171839 282.376132 
L 256.415391 287.389612 
L 256.496575 279.095454 
L 256.577759 287.403611 
L 256.658943 285.766329 
L 256.821311 288.399973 
L 256.983679 287.203415 
L 257.146047 289.848129 
L 257.22723 289.734301 
L 257.308414 290.809938 
L 257.389598 288.584981 
L 257.551966 291.210582 
L 257.714334 290.210607 
L 257.795518 289.990049 
L 257.876702 291.971176 
L 258.03907 290.26826 
L 258.120254 291.896308 
L 258.201438 291.236361 
L 258.688541 293.397315 
L 258.769725 292.563171 
L 258.850909 293.472474 
L 258.932093 292.411493 
L 259.013277 293.749634 
L 259.094461 291.406692 
L 259.256829 294.071755 
L 259.338013 293.583204 
L 259.419197 293.670291 
L 259.581564 294.395086 
L 259.662748 293.870522 
L 259.743932 292.492975 
L 259.825116 293.790447 
L 259.9063 291.728904 
L 259.987484 291.936449 
L 260.149852 294.467956 
L 260.231036 294.536373 
L 260.393404 291.142963 
L 260.555772 293.547426 
L 260.636956 293.324974 
L 260.71814 292.07057 
L 260.799323 294.441377 
L 260.961691 287.954652 
L 261.042875 293.633036 
L 261.124059 285.11355 
L 261.205243 293.387407 
L 261.367611 266.032673 
L 261.529979 291.367983 
L 261.611163 289.54893 
L 261.692347 284.811971 
L 261.773531 292.300383 
L 261.854715 290.60117 
L 261.935899 284.215923 
L 262.098266 294.901065 
L 262.260634 278.10706 
L 262.341818 285.225868 
L 262.423002 278.21819 
L 262.504186 290.95915 
L 262.58537 290.676508 
L 262.666554 286.556072 
L 262.747738 292.777701 
L 262.828922 291.318159 
L 262.910106 290.512951 
L 263.072474 293.677176 
L 263.153658 290.326273 
L 263.234841 291.39269 
L 263.316025 291.574535 
L 263.397209 293.66135 
L 263.478393 289.316449 
L 263.559577 293.961137 
L 263.640761 283.459123 
L 263.721945 292.429348 
L 263.803129 275.907021 
L 263.884313 281.646665 
L 263.965497 293.364716 
L 264.046681 285.494867 
L 264.127865 288.111195 
L 264.209049 289.942441 
L 264.290233 276.944344 
L 264.371416 291.046493 
L 264.4526 290.931481 
L 264.533784 291.310606 
L 264.614968 293.282992 
L 264.696152 287.970925 
L 264.85852 293.357469 
L 265.020888 288.634549 
L 265.102072 288.856865 
L 265.183256 293.622173 
L 265.345624 288.38027 
L 265.589175 293.164123 
L 265.670359 293.103002 
L 265.832727 294.183223 
L 265.913911 293.096789 
L 265.995095 294.408998 
L 266.076279 290.911927 
L 266.157463 293.396899 
L 266.238647 292.135383 
L 266.319831 293.296861 
L 266.401015 293.287242 
L 266.482199 292.433495 
L 266.644567 294.610359 
L 266.806934 293.377801 
L 266.969302 293.556782 
L 267.050486 290.910611 
L 267.13167 294.4469 
L 267.212854 291.415885 
L 267.294038 294.293812 
L 267.375222 293.043647 
L 267.456406 293.747208 
L 267.53759 293.40988 
L 267.781142 294.748002 
L 267.862326 293.763516 
L 267.94351 293.948027 
L 268.024693 294.051496 
L 268.105877 292.41133 
L 268.268245 294.568695 
L 268.349429 294.424513 
L 268.430613 292.876031 
L 268.511797 294.122307 
L 268.592981 287.208458 
L 268.674165 243.043526 
L 268.917717 290.009589 
L 268.998901 248.536347 
L 269.161268 276.223622 
L 269.323636 267.645875 
L 269.486004 278.717708 
L 269.567188 277.274199 
L 269.648372 277.837196 
L 269.81074 275.342114 
L 269.891924 283.99479 
L 269.973108 283.204215 
L 270.135476 276.670302 
L 270.297844 283.836988 
L 270.379027 283.396319 
L 270.460211 280.910911 
L 270.622579 286.433824 
L 270.703763 287.120005 
L 270.784947 285.238272 
L 270.866131 287.595319 
L 270.947315 287.229772 
L 271.028499 288.594215 
L 271.272051 284.566107 
L 271.353235 287.803734 
L 271.434419 284.087618 
L 271.515603 287.891568 
L 271.596786 286.326306 
L 271.759154 290.216796 
L 271.840338 289.089676 
L 272.002706 290.216666 
L 272.08389 288.505713 
L 272.165074 290.703469 
L 272.246258 288.271494 
L 272.327442 291.299443 
L 272.48981 288.155476 
L 272.652178 291.066109 
L 272.733362 290.715687 
L 272.814545 291.321283 
L 272.895729 289.546959 
L 272.976913 291.798911 
L 273.058097 288.160381 
L 273.139281 291.060618 
L 273.220465 286.355336 
L 273.301649 289.492529 
L 273.382833 289.16887 
L 273.464017 289.71491 
L 273.545201 287.581524 
L 273.626385 287.629861 
L 273.707569 288.138285 
L 273.788753 292.700522 
L 273.869937 282.598814 
L 274.032304 292.802066 
L 274.194672 287.508262 
L 274.275856 291.335035 
L 274.35704 290.835142 
L 274.600592 292.728479 
L 274.681776 293.300168 
L 274.844144 288.845524 
L 275.006512 290.937432 
L 275.087696 291.054058 
L 275.168879 292.993063 
L 275.412431 265.112401 
L 275.574799 284.343223 
L 275.655983 269.606218 
L 275.737167 274.184285 
L 275.899535 291.631019 
L 276.061903 284.119311 
L 276.224271 284.668039 
L 276.386638 287.967003 
L 276.467822 282.78457 
L 276.711374 290.455667 
L 276.792558 283.591897 
L 276.873742 289.986501 
L 276.954926 287.839525 
L 277.03611 286.329734 
L 277.117294 291.343457 
L 277.198478 290.898129 
L 277.279662 283.264666 
L 277.360846 291.677827 
L 277.44203 291.308478 
L 277.523214 282.512846 
L 277.604397 290.288382 
L 277.685581 288.176531 
L 277.847949 290.610291 
L 278.091501 292.551851 
L 278.172685 292.227416 
L 278.253869 290.185437 
L 278.335053 292.343422 
L 278.416237 292.176091 
L 278.497421 289.323052 
L 278.659789 292.325121 
L 278.822156 293.045643 
L 278.90334 292.264596 
L 278.984524 292.699561 
L 279.065708 290.849522 
L 279.146892 293.308202 
L 279.228076 292.044571 
L 279.390444 293.776282 
L 279.471628 292.705541 
L 279.552812 294.396164 
L 279.71518 293.164057 
L 279.796364 293.50856 
L 279.958732 292.394867 
L 280.121099 293.787159 
L 280.202283 292.67095 
L 280.283467 293.963197 
L 280.364651 292.893855 
L 280.445835 293.70951 
L 280.608203 292.122326 
L 280.689387 293.723242 
L 280.851755 292.65515 
L 280.932939 292.99114 
L 281.014123 291.740523 
L 281.17649 293.537075 
L 281.420042 293.858455 
L 281.58241 292.595828 
L 281.663594 294.158838 
L 281.744778 293.118018 
L 281.825962 293.997214 
L 281.98833 292.405794 
L 282.069514 294.113324 
L 282.150698 294.030375 
L 282.313066 292.839145 
L 282.394249 294.639927 
L 282.475433 294.260633 
L 282.556617 292.601185 
L 282.637801 293.722401 
L 282.718985 292.965025 
L 282.800169 293.330751 
L 282.881353 294.364882 
L 282.962537 293.809944 
L 283.043721 294.468678 
L 283.124905 294.045773 
L 283.206089 294.44617 
L 283.287273 293.338073 
L 283.368457 293.430258 
L 283.449641 293.944352 
L 283.530825 293.382382 
L 283.693192 294.689863 
L 283.774376 292.725381 
L 283.85556 293.169658 
L 284.099112 294.598311 
L 284.26148 293.102486 
L 284.342664 293.544492 
L 284.423848 292.50616 
L 284.586216 294.368233 
L 284.6674 292.937906 
L 284.829767 294.45957 
L 284.910951 292.383738 
L 285.073319 293.957404 
L 285.154503 294.292894 
L 285.235687 293.680946 
L 285.316871 294.13651 
L 285.398055 293.899302 
L 285.560423 294.504248 
L 285.722791 293.166408 
L 285.803975 293.436302 
L 285.885159 293.303806 
L 285.966342 294.379998 
L 286.047526 293.662926 
L 286.12871 293.819583 
L 286.291078 292.520866 
L 286.453446 294.365771 
L 286.615814 293.648655 
L 286.696998 294.077176 
L 286.778182 292.761139 
L 286.94055 294.725714 
L 287.021734 293.490735 
L 287.265285 294.657281 
L 287.346469 294.2034 
L 287.427653 293.019119 
L 287.508837 294.303536 
L 287.590021 292.352628 
L 287.671205 294.74426 
L 287.752389 294.089664 
L 287.833573 294.642848 
L 287.995941 292.909562 
L 288.077125 293.179432 
L 288.158309 293.44119 
L 288.320677 294.359338 
L 288.40186 294.406979 
L 288.483044 294.664568 
L 288.564228 294.217032 
L 288.645412 294.276783 
L 288.80778 294.255098 
L 288.888964 293.478598 
L 288.970148 294.22344 
L 289.051332 293.357183 
L 289.132516 294.217861 
L 289.2137 292.858845 
L 289.376068 294.033712 
L 289.457252 294.297922 
L 289.538436 292.705107 
L 289.619619 293.880676 
L 289.700803 292.99583 
L 290.025539 294.933742 
L 290.106723 294.610026 
L 290.187907 293.746842 
L 290.350275 295.08271 
L 290.431459 294.651495 
L 290.512643 295.026234 
L 290.593827 294.52327 
L 290.675011 295.217664 
L 290.918562 290.284515 
L 290.999746 295.048162 
L 291.08093 293.713307 
L 291.162114 293.95319 
L 291.243298 292.999726 
L 291.324482 293.932002 
L 291.405666 293.625648 
L 291.48685 293.028948 
L 291.811586 294.527411 
L 291.89277 294.379766 
L 291.973953 292.209958 
L 292.055137 294.618133 
L 292.136321 293.963786 
L 292.379873 294.917119 
L 292.461057 294.563327 
L 292.542241 294.667086 
L 292.623425 294.957898 
L 292.704609 294.258771 
L 292.785793 295.070781 
L 292.866977 294.955571 
L 293.029345 294.867925 
L 293.110529 292.831501 
L 293.191712 294.633316 
L 293.35408 293.533796 
L 293.435264 294.562598 
L 293.516448 294.520306 
L 293.597632 294.308875 
L 293.678816 294.737343 
L 293.922368 294.226498 
L 294.003552 294.861327 
L 294.16592 294.064886 
L 294.247104 294.82564 
L 294.328288 293.553465 
L 294.409471 293.561711 
L 294.490655 294.805373 
L 294.571839 293.614755 
L 294.734207 294.389408 
L 295.058943 294.851331 
L 295.140127 293.650432 
L 295.302495 295.03803 
L 295.383679 292.94195 
L 295.546047 294.650266 
L 295.708414 292.990091 
L 295.789598 293.960527 
L 295.870782 293.791369 
L 295.951966 294.381872 
L 296.03315 294.114917 
L 296.114334 294.499175 
L 296.195518 294.330338 
L 296.276702 294.891641 
L 296.43907 293.575225 
L 296.520254 294.624201 
L 296.601438 293.390884 
L 296.682622 294.688909 
L 296.763805 294.486902 
L 296.844989 294.498868 
L 296.926173 294.743565 
L 297.007357 294.594498 
L 297.088541 294.841784 
L 297.169725 294.044602 
L 297.250909 294.83174 
L 297.332093 294.633505 
L 297.413277 290.370167 
L 297.738013 206.513416 
L 297.819197 222.541432 
L 297.900381 260.768524 
L 297.981564 248.66196 
L 298.062748 240.866106 
L 298.143932 268.933944 
L 298.225116 265.123881 
L 298.387484 279.923591 
L 298.468668 277.258979 
L 298.549852 279.486095 
L 298.71222 275.184021 
L 298.793404 285.299528 
L 298.955772 277.983651 
L 299.11814 285.711932 
L 299.199323 285.289229 
L 299.280507 281.683505 
L 299.361691 281.808553 
L 299.524059 284.251519 
L 299.605243 282.524704 
L 299.686427 289.371298 
L 299.767611 287.102992 
L 299.929979 289.989728 
L 300.092347 283.151274 
L 300.254715 290.079588 
L 300.335899 289.243661 
L 300.498266 291.218273 
L 300.57945 289.340172 
L 300.660634 291.047048 
L 300.741818 289.204142 
L 300.98537 291.378978 
L 301.066554 291.999519 
L 301.147738 291.204792 
L 301.228922 292.727695 
L 301.310106 291.782271 
L 301.39129 289.110476 
L 301.472474 292.513046 
L 301.634841 290.040212 
L 301.797209 291.769786 
L 301.878393 289.648325 
L 301.959577 292.897865 
L 302.040761 291.949243 
L 302.203129 293.25655 
L 302.365497 291.556311 
L 302.527865 293.168589 
L 302.609049 293.683992 
L 302.771416 291.992722 
L 302.933784 292.41558 
L 303.014968 293.574472 
L 303.177336 292.976085 
L 303.25852 293.212134 
L 303.339704 292.418871 
L 303.502072 293.718028 
L 303.583256 293.683576 
L 303.66444 293.30631 
L 303.826808 294.19606 
L 303.907992 294.265716 
L 304.070359 293.040488 
L 304.395095 294.336361 
L 304.476279 292.973978 
L 304.557463 293.651684 
L 304.638647 293.283302 
L 304.719831 293.656708 
L 304.801015 292.782426 
L 304.963383 294.584903 
L 305.125751 292.433195 
L 305.206934 292.903086 
L 305.288118 292.441406 
L 305.369302 294.464997 
L 305.450486 275.893571 
L 305.53167 220.579449 
L 305.694038 288.746811 
L 305.775222 266.20942 
L 305.856406 281.293981 
L 305.93759 277.017171 
L 306.018774 271.674977 
L 306.099958 285.143214 
L 306.262326 278.651544 
L 306.34351 291.940142 
L 306.424693 289.667661 
L 306.505877 289.555628 
L 306.668245 291.159993 
L 306.911797 288.585487 
L 306.992981 290.892275 
L 307.074165 290.74749 
L 307.317717 293.027135 
L 307.398901 291.816027 
L 307.480085 292.653237 
L 307.723636 291.696086 
L 307.80482 291.596854 
L 307.967188 294.006501 
L 308.048372 292.802707 
L 308.129556 293.917962 
L 308.21074 290.899615 
L 308.291924 292.28941 
L 308.373108 291.557248 
L 308.454292 292.123108 
L 308.535476 292.091932 
L 308.697844 291.939738 
L 308.779027 293.048117 
L 308.860211 293.026706 
L 308.941395 293.329554 
L 309.022579 292.623612 
L 309.103763 292.690373 
L 309.184947 292.657232 
L 309.266131 292.90556 
L 309.347315 293.845051 
L 309.428499 293.72656 
L 309.509683 292.075366 
L 309.672051 294.382841 
L 309.915603 291.8786 
L 310.159154 293.880208 
L 310.240338 293.255793 
L 310.321522 294.110307 
L 310.402706 293.568311 
L 310.48389 294.146436 
L 310.565074 294.055483 
L 310.646258 294.149839 
L 310.727442 293.043204 
L 310.808626 294.63603 
L 310.88981 294.280505 
L 310.970994 293.802963 
L 311.052178 294.332595 
L 311.133362 294.177421 
L 311.295729 294.569278 
L 311.376913 292.786836 
L 311.458097 294.331406 
L 311.539281 293.423067 
L 311.701649 294.275852 
L 311.782833 294.388083 
L 311.864017 292.398531 
L 312.026385 294.327986 
L 312.188753 293.520232 
L 312.269937 294.493849 
L 312.351121 293.587229 
L 312.513488 294.61584 
L 312.594672 294.437417 
L 312.675856 293.84882 
L 312.75704 294.270968 
L 312.838224 293.959009 
L 312.919408 292.643343 
L 313.000592 294.250577 
L 313.081776 294.215445 
L 313.16296 294.270543 
L 313.244144 294.058885 
L 313.325328 294.390253 
L 313.487696 293.040135 
L 313.568879 293.25539 
L 313.650063 294.38131 
L 313.812431 293.085419 
L 313.893615 294.594438 
L 314.055983 292.973872 
L 314.137167 294.158332 
L 314.218351 293.706657 
L 314.299535 294.413513 
L 314.461903 292.675584 
L 314.624271 294.7381 
L 314.705455 294.094601 
L 314.786638 294.686499 
L 314.867822 293.610001 
L 314.949006 294.143742 
L 315.03019 293.196975 
L 315.111374 294.488498 
L 315.192558 293.808662 
L 315.273742 294.598342 
L 315.354926 294.351172 
L 315.43611 293.412523 
L 315.517294 294.071129 
L 315.598478 292.386587 
L 315.760846 293.700785 
L 315.923214 293.143553 
L 316.085581 294.150697 
L 316.166765 290.929234 
L 316.329133 294.636336 
L 316.572685 293.763101 
L 316.735053 294.134359 
L 316.816237 294.072219 
L 316.897421 292.966565 
L 316.978605 293.094274 
L 317.059789 293.128843 
L 317.222156 294.687125 
L 317.30334 294.599571 
L 317.384524 294.330176 
L 317.465708 294.681902 
L 317.546892 293.347813 
L 317.70926 294.494498 
L 317.790444 292.683322 
L 317.871628 294.134194 
L 317.952812 293.566508 
L 318.033996 294.003268 
L 318.11518 293.710959 
L 318.196364 293.992219 
L 318.277548 276.719067 
L 318.439915 122.672793 
L 318.521099 149.68579 
L 318.683467 225.866887 
L 318.764651 203.009703 
L 318.927019 237.741401 
L 319.089387 216.843361 
L 319.251755 259.473515 
L 319.332939 266.027735 
L 319.414123 263.666703 
L 319.495307 264.398335 
L 319.657674 273.37293 
L 319.901226 261.107021 
L 319.98241 259.455172 
L 320.063594 262.50277 
L 320.225962 257.248403 
L 320.38833 270.18708 
L 320.469514 267.752477 
L 320.550698 268.905995 
L 320.631882 273.151231 
L 320.713066 271.031308 
L 320.794249 277.292842 
L 320.875433 270.853049 
L 321.118985 280.424984 
L 321.200169 284.899727 
L 321.281353 279.602383 
L 321.362537 283.584147 
L 321.443721 277.307265 
L 321.606089 284.500456 
L 321.687273 281.007742 
L 321.768457 284.663354 
L 321.849641 284.546317 
L 321.930825 284.595847 
L 322.012008 288.427018 
L 322.174376 284.039998 
L 322.25556 284.041241 
L 322.499112 289.623407 
L 322.580296 288.491322 
L 322.66148 290.003921 
L 322.742664 288.983192 
L 322.823848 290.290805 
L 322.905032 289.987622 
L 322.986216 290.705609 
L 323.0674 289.770598 
L 323.148584 292.37684 
L 323.229767 291.650338 
L 323.310951 289.540705 
L 323.392135 291.840535 
L 323.473319 285.364306 
L 323.554503 259.045409 
L 323.635687 272.670571 
L 323.716871 264.179678 
L 323.879239 223.16954 
L 324.041607 262.909669 
L 324.122791 258.321382 
L 324.203975 262.083801 
L 324.366342 283.409615 
L 324.447526 275.115862 
L 324.52871 277.41108 
L 324.609894 277.652388 
L 324.691078 277.431698 
L 324.772262 274.593618 
L 324.93463 283.369734 
L 325.015814 286.244316 
L 325.096998 277.128033 
L 325.421734 288.473079 
L 325.502918 282.743596 
L 325.665285 287.164714 
L 325.746469 284.698341 
L 325.908837 287.130314 
L 325.990021 288.32 
L 326.071205 286.333879 
L 326.152389 281.487771 
L 326.314757 288.47762 
L 326.395941 288.739368 
L 326.477125 286.388112 
L 326.558309 287.433955 
L 326.639493 286.356294 
L 326.720677 290.688942 
L 326.80186 290.345367 
L 326.883044 290.838011 
L 326.964228 289.333793 
L 327.045412 290.593671 
L 327.126596 290.432094 
L 327.20778 290.55702 
L 327.288964 291.737152 
L 327.370148 290.749747 
L 327.532516 292.647727 
L 327.6137 292.538718 
L 327.694884 291.052667 
L 327.776068 293.177035 
L 327.857252 292.544677 
L 328.019619 292.261756 
L 328.100803 292.7425 
L 328.181987 290.920521 
L 328.263171 291.596971 
L 328.344355 293.834999 
L 328.425539 289.313193 
L 328.506723 293.151486 
L 328.587907 276.39503 
L 328.669091 293.301106 
L 328.750275 256.696671 
L 328.831459 267.380278 
L 328.912643 270.439213 
L 328.993827 244.820534 
L 329.156195 281.822307 
L 329.237378 271.220572 
L 329.318562 264.160302 
L 329.399746 270.971012 
L 329.48093 265.051221 
L 329.562114 279.224088 
L 329.643298 274.282851 
L 329.724482 274.589134 
L 329.805666 287.029305 
L 329.88685 286.926165 
L 329.968034 281.701264 
L 330.049218 286.808153 
L 330.130402 285.062767 
L 330.211586 284.80496 
L 330.29277 283.777016 
L 330.373953 284.764853 
L 330.536321 283.102779 
L 330.617505 288.608521 
L 330.698689 287.815002 
L 330.861057 290.324348 
L 330.942241 289.189846 
L 331.023425 289.822327 
L 331.104609 286.892255 
L 331.266977 290.456866 
L 331.348161 290.528657 
L 331.510529 291.870794 
L 331.591712 289.774306 
L 331.672896 292.299021 
L 331.835264 290.607244 
L 331.916448 292.547742 
L 331.997632 291.515162 
L 332.241184 293.574723 
L 332.403552 292.297465 
L 332.484736 294.049908 
L 332.56592 291.551939 
L 332.647104 293.699024 
L 332.728288 292.092387 
L 332.809471 293.66661 
L 332.890655 293.59858 
L 332.971839 291.384749 
L 333.215391 294.067735 
L 333.296575 292.827905 
L 333.377759 292.920017 
L 333.458943 294.189091 
L 333.540127 293.530695 
L 333.621311 294.072545 
L 333.783679 292.79991 
L 333.946047 294.392772 
L 334.02723 294.3452 
L 334.108414 294.664759 
L 334.270782 294.343576 
L 334.351966 294.788419 
L 334.514334 293.507393 
L 334.595518 293.608558 
L 334.676702 294.292936 
L 334.757886 293.926584 
L 334.920254 294.582823 
L 335.001438 293.346076 
L 335.163805 294.415114 
L 335.244989 293.193264 
L 335.326173 294.926858 
L 335.407357 294.695451 
L 335.488541 294.318251 
L 335.569725 294.809761 
L 335.650909 294.286217 
L 335.732093 291.290288 
L 335.813277 294.117927 
L 335.894461 292.214116 
L 336.056829 294.531067 
L 336.138013 294.466578 
L 336.300381 293.658557 
L 336.381564 294.568268 
L 336.543932 292.840512 
L 336.7063 294.453827 
L 336.787484 293.967933 
L 336.868668 294.642315 
L 337.031036 293.281509 
L 337.11222 294.604996 
L 337.274588 293.033484 
L 337.355772 294.74816 
L 337.436956 293.871243 
L 337.599323 294.526008 
L 337.680507 294.51551 
L 337.761691 293.510659 
L 337.842875 294.520614 
L 337.924059 294.446443 
L 338.005243 294.799685 
L 338.167611 293.355985 
L 338.248795 294.326589 
L 338.329979 293.981465 
L 338.411163 294.052378 
L 338.492347 294.714163 
L 338.573531 293.498644 
L 338.735899 294.842099 
L 338.817082 294.899487 
L 339.141818 292.841021 
L 339.223002 294.991312 
L 339.304186 294.864909 
L 339.38537 294.874376 
L 339.466554 293.431793 
L 339.547738 294.996698 
L 339.79129 293.633558 
L 339.872474 294.058038 
L 339.953658 293.062109 
L 340.034841 286.128136 
L 340.116025 239.266578 
L 340.278393 278.31942 
L 340.359577 281.113525 
L 340.440761 272.568533 
L 340.603129 244.78009 
L 340.684313 277.113081 
L 340.765497 262.843842 
L 340.927865 281.037704 
L 341.009049 273.031035 
L 341.090233 280.335164 
L 341.2526 268.080372 
L 341.333784 270.861208 
L 341.414968 281.731897 
L 341.577336 265.968548 
L 341.820888 287.029495 
L 342.145624 272.625016 
L 342.307992 282.873635 
L 342.389175 280.459312 
L 342.470359 287.048403 
L 342.551543 283.025377 
L 342.632727 287.708892 
L 342.713911 285.927297 
L 342.795095 287.929224 
L 342.957463 281.165834 
L 343.038647 289.152764 
L 343.119831 286.726157 
L 343.201015 290.565094 
L 343.282199 289.193388 
L 343.525751 290.170048 
L 343.606934 284.377993 
L 343.688118 291.85767 
L 343.769302 291.467067 
L 343.850486 292.838067 
L 343.93167 290.938845 
L 344.094038 293.586323 
L 344.256406 288.332757 
L 344.33759 291.349875 
L 344.418774 289.238576 
L 344.499958 291.336682 
L 344.581142 290.114214 
L 344.662326 292.695985 
L 344.824693 275.518538 
L 344.905877 291.934462 
L 344.987061 291.620416 
L 345.068245 289.245453 
L 345.149429 289.57811 
L 345.392981 291.467759 
L 345.555349 275.329922 
L 345.717717 291.876052 
L 345.961268 268.431625 
L 346.123636 292.890977 
L 346.286004 278.31896 
L 346.367188 285.253905 
L 346.448372 284.46788 
L 346.529556 288.913833 
L 346.61074 286.693521 
L 346.691924 289.176504 
L 346.773108 284.685179 
L 346.854292 293.412229 
L 346.935476 292.831768 
L 347.097844 286.650167 
L 347.260211 289.882476 
L 347.341395 284.312854 
L 347.422579 289.836491 
L 347.503763 289.447092 
L 347.584947 290.137966 
L 347.666131 292.402511 
L 347.828499 289.454787 
L 347.990867 293.551242 
L 348.072051 292.782782 
L 348.153235 289.32049 
L 348.234419 289.757321 
L 348.315603 292.535712 
L 348.396786 290.510232 
L 348.47797 292.545859 
L 348.559154 290.546658 
L 348.721522 293.176563 
L 348.802706 288.277456 
L 348.965074 292.971306 
L 349.046258 291.51268 
L 349.208626 294.281266 
L 349.28981 293.597352 
L 349.370994 292.119209 
L 349.533362 293.535187 
L 349.614545 293.491261 
L 349.695729 294.055418 
L 349.776913 293.272306 
L 349.858097 293.44664 
L 349.939281 294.234758 
L 350.020465 293.395611 
L 350.101649 294.575194 
L 350.426385 292.58107 
L 350.507569 294.701177 
L 350.588753 293.413585 
L 350.669937 293.443714 
L 350.751121 292.987828 
L 350.832304 294.844201 
L 350.913488 294.642044 
L 350.994672 294.512159 
L 351.075856 293.374373 
L 351.15704 293.623077 
L 351.238224 294.960076 
L 351.319408 292.5439 
L 351.400592 295.029387 
L 351.481776 294.778477 
L 351.56296 293.847421 
L 351.644144 294.631776 
L 351.725328 293.771516 
L 351.806512 294.459372 
L 351.887696 294.293876 
L 351.968879 294.790702 
L 352.050063 292.203439 
L 352.131247 295.076276 
L 352.212431 294.713713 
L 352.293615 294.792927 
L 352.374799 293.296028 
L 352.699535 295.120698 
L 352.861903 294.900902 
L 352.943087 294.97073 
L 353.024271 294.564287 
L 353.105455 293.32088 
L 353.186638 295.094339 
L 353.267822 293.909378 
L 353.349006 294.991098 
L 353.43019 293.612958 
L 353.511374 295.017197 
L 353.592558 294.526276 
L 353.673742 294.257471 
L 353.754926 293.430909 
L 353.83611 294.69993 
L 353.917294 294.568794 
L 353.998478 295.191908 
L 354.079662 293.452417 
L 354.160846 293.749063 
L 354.24203 293.879358 
L 354.404397 295.124991 
L 354.485581 294.429055 
L 354.566765 294.770722 
L 354.729133 293.695784 
L 354.891501 295.175477 
L 354.972685 295.082978 
L 355.216237 293.2047 
L 355.378605 295.110392 
L 355.540973 295.212916 
L 355.622156 295.213514 
L 355.70334 294.349596 
L 355.784524 295.258454 
L 356.028076 293.311792 
L 356.10926 294.82246 
L 356.190444 294.260265 
L 356.271628 294.430143 
L 356.352812 294.36726 
L 356.433996 295.037855 
L 356.51518 294.373985 
L 356.596364 295.249849 
L 356.677548 294.268558 
L 356.758732 295.045563 
L 356.839915 294.408347 
L 356.921099 294.620031 
L 357.002283 292.120965 
L 357.245835 294.964936 
L 357.327019 293.408681 
L 357.408203 294.703566 
L 357.489387 294.666039 
L 357.570571 294.8272 
L 357.651755 294.626011 
L 357.732939 295.319366 
L 357.814123 295.234715 
L 357.895307 295.12279 
L 357.97649 292.952777 
L 358.057674 295.279585 
L 358.220042 292.953147 
L 358.463594 295.158767 
L 358.544778 293.144327 
L 358.625962 294.736265 
L 358.707146 294.28438 
L 358.78833 294.30699 
L 358.869514 295.029184 
L 358.950698 294.635977 
L 359.031882 293.096025 
L 359.194249 294.832058 
L 359.275433 294.274653 
L 359.437801 295.28548 
L 359.518985 294.761864 
L 359.600169 293.471535 
L 359.762537 295.104005 
L 359.843721 295.044043 
L 359.924905 294.535812 
L 360.006089 294.923963 
L 360.168457 293.90602 
L 360.412008 295.315387 
L 360.493192 295.173716 
L 360.574376 294.775246 
L 360.65556 291.663952 
L 360.817928 295.027423 
L 360.899112 295.217798 
L 360.980296 294.815931 
L 361.06148 295.312096 
L 361.142664 294.940941 
L 361.223848 295.071301 
L 361.305032 295.387794 
L 361.386216 295.283835 
L 361.4674 295.309748 
L 361.548584 295.143115 
L 361.629767 293.346348 
L 361.710951 295.478464 
L 361.792135 295.419789 
L 361.873319 294.181614 
L 361.954503 295.130888 
L 362.035687 294.793367 
L 362.198055 295.396665 
L 362.279239 295.141971 
L 362.360423 294.414215 
L 362.441607 295.350822 
L 362.522791 293.977129 
L 362.603975 295.458835 
L 362.685159 295.360856 
L 362.766342 295.275657 
L 362.847526 294.527163 
L 362.92871 295.419928 
L 363.009894 294.275397 
L 363.091078 295.370571 
L 363.172262 295.289387 
L 363.33463 295.425255 
L 363.496998 295.321828 
L 363.578182 295.199589 
L 363.659366 295.272536 
L 363.74055 294.370505 
L 363.902918 295.432981 
L 363.984101 295.488 
L 364.065285 294.344449 
L 364.146469 294.807769 
L 364.227653 294.690735 
L 364.308837 288.043431 
L 364.390021 295.246485 
L 364.471205 293.857473 
L 364.633573 291.748403 
L 364.714757 294.077718 
L 364.877125 292.551237 
L 365.039493 294.679137 
L 365.120677 294.57786 
L 365.20186 293.99541 
L 365.283044 294.594209 
L 365.364228 290.291834 
L 365.526596 294.752087 
L 365.60778 294.785544 
L 365.851332 291.735796 
L 365.932516 294.729509 
L 366.094884 292.851369 
L 366.257252 293.961931 
L 366.338436 292.878141 
L 366.419619 293.656221 
L 366.500803 291.742412 
L 366.581987 293.593996 
L 366.663171 265.351687 
L 366.825539 53.568 
L 367.069091 215.330084 
L 367.231459 192.39105 
L 367.393827 225.776337 
L 367.475011 221.70862 
L 367.637378 260.877255 
L 367.718562 229.877473 
L 367.799746 258.198891 
L 367.88093 252.765615 
L 367.962114 266.437251 
L 368.124482 256.557037 
L 368.28685 258.813482 
L 368.368034 258.920801 
L 368.449218 259.926906 
L 368.611586 265.618206 
L 368.69277 264.74776 
L 368.773953 269.626214 
L 368.855137 268.651771 
L 368.936321 268.122767 
L 369.098689 276.653538 
L 369.179873 273.487166 
L 369.261057 276.038588 
L 369.342241 274.913708 
L 369.829345 284.292395 
L 369.910529 283.490398 
L 369.991712 286.420002 
L 370.072896 283.777205 
L 370.15408 287.317002 
L 370.235264 286.676799 
L 370.316448 288.732222 
L 370.397632 287.875983 
L 370.478816 283.979196 
L 370.56 289.777284 
L 370.641184 285.811783 
L 370.722368 288.344077 
L 370.96592 259.023576 
L 371.128288 280.194507 
L 371.209471 268.924195 
L 371.290655 270.660131 
L 371.371839 273.531184 
L 371.453023 285.313405 
L 371.534207 281.320189 
L 371.777759 272.38913 
L 371.940127 286.201308 
L 372.021311 282.814545 
L 372.102495 268.872945 
L 372.183679 283.981771 
L 372.264863 279.578417 
L 372.508414 290.05463 
L 372.589598 283.155513 
L 372.670782 285.595834 
L 372.751966 280.514956 
L 372.83315 281.245902 
L 372.914334 284.735173 
L 372.995518 281.919671 
L 373.076702 286.815862 
L 373.157886 286.22465 
L 373.23907 289.195022 
L 373.320254 285.586873 
L 373.401438 290.761508 
L 373.482622 289.535445 
L 373.563805 290.370943 
L 373.644989 289.362908 
L 373.726173 291.20822 
L 373.807357 291.142995 
L 373.888541 289.499995 
L 374.050909 293.223277 
L 374.132093 290.363584 
L 374.213277 291.624567 
L 374.375645 290.516887 
L 374.538013 293.499383 
L 374.619197 293.155368 
L 374.943932 286.784931 
L 375.025116 291.070619 
L 375.1063 284.685775 
L 375.268668 293.54868 
L 375.431036 286.687051 
L 375.51222 288.45126 
L 375.674588 284.664363 
L 375.755772 281.428978 
L 375.836956 284.448979 
L 375.91814 293.797655 
L 375.999323 281.750701 
L 376.080507 286.128381 
L 376.242875 293.111217 
L 376.324059 291.60119 
L 376.405243 286.533588 
L 376.567611 292.78611 
L 376.648795 289.906818 
L 376.892347 293.854357 
L 376.973531 291.680571 
L 377.054715 293.179773 
L 377.135899 291.680679 
L 377.217082 292.167087 
L 377.298266 292.226532 
L 377.37945 291.600367 
L 377.541818 293.606003 
L 377.623002 293.050279 
L 377.704186 293.991746 
L 377.78537 293.980248 
L 377.866554 292.50881 
L 377.947738 294.199835 
L 378.028922 294.186199 
L 378.110106 292.827872 
L 378.272474 294.6381 
L 378.434841 292.858926 
L 378.597209 294.548063 
L 378.678393 293.960051 
L 378.759577 294.663384 
L 378.840761 294.343701 
L 379.003129 294.871151 
L 379.246681 293.812508 
L 379.327865 292.072833 
L 379.409049 293.225491 
L 379.571416 279.475918 
L 379.6526 287.180131 
L 379.733784 270.715368 
L 379.814968 272.287123 
L 379.896152 269.911522 
L 379.977336 283.808132 
L 380.05852 258.266981 
L 380.220888 279.395781 
L 380.302072 278.59782 
L 380.383256 270.964484 
L 380.46444 281.68078 
L 380.545624 269.185497 
L 380.707992 282.81381 
L 380.789175 276.993731 
L 381.032727 289.871941 
L 381.195095 278.133203 
L 381.438647 292.296333 
L 381.519831 289.716739 
L 381.601015 289.116683 
L 381.682199 289.351198 
L 381.763383 292.662502 
L 381.844567 286.163557 
L 381.925751 287.128068 
L 382.088118 291.622508 
L 382.169302 289.247595 
L 382.250486 292.26989 
L 382.33167 292.15385 
L 382.412854 291.127575 
L 382.575222 292.598527 
L 382.73759 288.911518 
L 382.899958 292.858501 
L 382.981142 290.935627 
L 383.062326 292.712321 
L 383.14351 292.384694 
L 383.224693 292.634607 
L 383.305877 292.12417 
L 383.387061 293.574749 
L 383.549429 292.394177 
L 383.711797 293.737558 
L 383.955349 291.863282 
L 384.198901 293.740293 
L 384.280085 293.002405 
L 384.361268 294.176018 
L 384.686004 292.715849 
L 384.767188 294.354017 
L 384.848372 293.528564 
L 384.929556 293.939458 
L 385.01074 293.516221 
L 385.173108 294.13045 
L 385.41666 293.595884 
L 385.497844 294.846245 
L 385.579027 294.835959 
L 385.660211 294.063584 
L 385.741395 294.792544 
L 385.822579 293.914144 
L 385.903763 294.909995 
L 385.984947 294.86859 
L 386.066131 294.672169 
L 386.147315 293.814018 
L 386.309683 295.011162 
L 386.390867 293.928164 
L 386.472051 294.894081 
L 386.553235 294.801502 
L 386.634419 295.089463 
L 386.796786 294.798716 
L 386.959154 294.977945 
L 387.121522 294.666285 
L 387.202706 292.873684 
L 387.28389 295.131908 
L 387.365074 295.018193 
L 387.446258 295.155582 
L 387.527442 294.973113 
L 387.608626 295.075849 
L 387.68981 294.64112 
L 387.770994 295.209837 
L 387.852178 294.742974 
L 388.095729 295.208996 
L 388.176913 295.223216 
L 388.258097 293.5838 
L 388.339281 294.869565 
L 388.420465 293.754799 
L 388.501649 295.315609 
L 388.582833 295.163466 
L 388.664017 295.151535 
L 388.745201 294.008445 
L 388.826385 295.130513 
L 388.907569 294.923147 
L 388.988753 295.136317 
L 389.069937 292.022795 
L 389.232304 295.083743 
L 389.313488 295.238077 
L 389.394672 294.749408 
L 389.475856 295.029943 
L 389.55704 293.810571 
L 389.638224 295.302151 
L 389.719408 295.156362 
L 389.800592 295.13069 
L 389.881776 294.922454 
L 389.96296 294.013384 
L 390.044144 294.140227 
L 390.125328 295.005657 
L 390.206512 293.495446 
L 390.287696 294.867169 
L 390.368879 294.446208 
L 390.531247 295.062197 
L 390.612431 295.000038 
L 390.774799 295.235328 
L 390.855983 294.932282 
L 390.937167 293.029045 
L 391.018351 294.756933 
L 391.099535 293.864873 
L 391.424271 295.331951 
L 391.586638 294.410817 
L 391.667822 295.144423 
L 391.749006 293.807161 
L 391.83019 295.316619 
L 391.911374 292.716292 
L 392.073742 295.275339 
L 392.154926 294.02358 
L 392.317294 295.182294 
L 392.398478 294.651226 
L 392.560846 295.257779 
L 392.64203 295.091896 
L 392.723214 295.271197 
L 392.885581 294.431821 
L 392.966765 295.362633 
L 393.047949 295.28264 
L 393.210317 295.330184 
L 393.372685 294.916746 
L 393.453869 295.28065 
L 393.697421 293.526753 
L 393.778605 295.399383 
L 393.859789 294.626914 
L 393.940973 295.210153 
L 394.10334 294.081375 
L 394.265708 295.215363 
L 394.50926 294.53923 
L 394.671628 295.246551 
L 394.752812 294.244726 
L 394.833996 295.340088 
L 394.91518 295.21568 
L 394.996364 294.736891 
L 395.077548 295.084712 
L 395.158732 294.784764 
L 395.239915 295.375182 
L 395.321099 295.359818 
L 395.402283 295.354898 
L 395.483467 295.030288 
L 395.564651 295.117079 
L 395.645835 295.038842 
L 395.727019 295.332185 
L 395.808203 295.245168 
L 395.889387 295.347198 
L 395.970571 294.6132 
L 396.051755 295.374678 
L 396.132939 294.458793 
L 396.214123 294.642981 
L 396.295307 294.731389 
L 396.37649 294.553391 
L 396.538858 295.005509 
L 396.620042 295.000025 
L 396.701226 295.284244 
L 396.78241 292.939752 
L 396.863594 295.277886 
L 396.944778 295.03379 
L 397.025962 295.227846 
L 397.18833 294.799818 
L 397.350698 295.293466 
L 397.431882 294.861756 
L 397.513066 295.273645 
L 397.594249 294.421003 
L 397.675433 295.284507 
L 397.756617 294.436989 
L 397.837801 295.073011 
L 397.918985 294.985158 
L 398.000169 293.624223 
L 398.081353 293.736896 
L 398.162537 295.304066 
L 398.243721 294.72819 
L 398.324905 295.391314 
L 398.406089 293.870765 
L 398.487273 293.900019 
" style="fill:none;stroke:#1f77b4;stroke-linecap:square;stroke-width:1.5;"/>
   </g>
   <g id="patch_3">
    <path d="M 57.6 307.584 
L 57.6 41.472 
" style="fill:none;stroke:#000000;stroke-linecap:square;stroke-linejoin:miter;stroke-width:0.8;"/>
   </g>
   <g id="patch_4">
    <path d="M 414.72 307.584 
L 414.72 41.472 
" style="fill:none;stroke:#000000;stroke-linecap:square;stroke-linejoin:miter;stroke-width:0.8;"/>
   </g>
   <g id="patch_5">
    <path d="M 57.6 307.584 
L 414.72 307.584 
" style="fill:none;stroke:#000000;stroke-linecap:square;stroke-linejoin:miter;stroke-width:0.8;"/>
   </g>
   <g id="patch_6">
    <path d="M 57.6 41.472 
L 414.72 41.472 
" style="fill:none;stroke:#000000;stroke-linecap:square;stroke-linejoin:miter;stroke-width:0.8;"/>
   </g>
   <g id="text_19">
    <!-- Training Loss -->
    <defs>
     <path d="M -0.296875 72.90625 
L 61.375 72.90625 
L 61.375 64.59375 
L 35.5 64.59375 
L 35.5 0 
L 25.59375 0 
L 25.59375 64.59375 
L -0.296875 64.59375 
z
" id="DejaVuSans-84"/>
     <path d="M 41.109375 46.296875 
Q 39.59375 47.171875 37.8125 47.578125 
Q 36.03125 48 33.890625 48 
Q 26.265625 48 22.1875 43.046875 
Q 18.109375 38.09375 18.109375 28.8125 
L 18.109375 0 
L 9.078125 0 
L 9.078125 54.6875 
L 18.109375 54.6875 
L 18.109375 46.1875 
Q 20.953125 51.171875 25.484375 53.578125 
Q 30.03125 56 36.53125 56 
Q 37.453125 56 38.578125 55.875 
Q 39.703125 55.765625 41.0625 55.515625 
z
" id="DejaVuSans-114"/>
     <path d="M 34.28125 27.484375 
Q 23.390625 27.484375 19.1875 25 
Q 14.984375 22.515625 14.984375 16.5 
Q 14.984375 11.71875 18.140625 8.90625 
Q 21.296875 6.109375 26.703125 6.109375 
Q 34.1875 6.109375 38.703125 11.40625 
Q 43.21875 16.703125 43.21875 25.484375 
L 43.21875 27.484375 
z
M 52.203125 31.203125 
L 52.203125 0 
L 43.21875 0 
L 43.21875 8.296875 
Q 40.140625 3.328125 35.546875 0.953125 
Q 30.953125 -1.421875 24.3125 -1.421875 
Q 15.921875 -1.421875 10.953125 3.296875 
Q 6 8.015625 6 15.921875 
Q 6 25.140625 12.171875 29.828125 
Q 18.359375 34.515625 30.609375 34.515625 
L 43.21875 34.515625 
L 43.21875 35.40625 
Q 43.21875 41.609375 39.140625 45 
Q 35.0625 48.390625 27.6875 48.390625 
Q 23 48.390625 18.546875 47.265625 
Q 14.109375 46.140625 10.015625 43.890625 
L 10.015625 52.203125 
Q 14.9375 54.109375 19.578125 55.046875 
Q 24.21875 56 28.609375 56 
Q 40.484375 56 46.34375 49.84375 
Q 52.203125 43.703125 52.203125 31.203125 
z
" id="DejaVuSans-97"/>
     <path d="M 9.421875 54.6875 
L 18.40625 54.6875 
L 18.40625 0 
L 9.421875 0 
z
M 9.421875 75.984375 
L 18.40625 75.984375 
L 18.40625 64.59375 
L 9.421875 64.59375 
z
" id="DejaVuSans-105"/>
     <path d="M 54.890625 33.015625 
L 54.890625 0 
L 45.90625 0 
L 45.90625 32.71875 
Q 45.90625 40.484375 42.875 44.328125 
Q 39.84375 48.1875 33.796875 48.1875 
Q 26.515625 48.1875 22.3125 43.546875 
Q 18.109375 38.921875 18.109375 30.90625 
L 18.109375 0 
L 9.078125 0 
L 9.078125 54.6875 
L 18.109375 54.6875 
L 18.109375 46.1875 
Q 21.34375 51.125 25.703125 53.5625 
Q 30.078125 56 35.796875 56 
Q 45.21875 56 50.046875 50.171875 
Q 54.890625 44.34375 54.890625 33.015625 
z
" id="DejaVuSans-110"/>
     <path d="M 45.40625 27.984375 
Q 45.40625 37.75 41.375 43.109375 
Q 37.359375 48.484375 30.078125 48.484375 
Q 22.859375 48.484375 18.828125 43.109375 
Q 14.796875 37.75 14.796875 27.984375 
Q 14.796875 18.265625 18.828125 12.890625 
Q 22.859375 7.515625 30.078125 7.515625 
Q 37.359375 7.515625 41.375 12.890625 
Q 45.40625 18.265625 45.40625 27.984375 
z
M 54.390625 6.78125 
Q 54.390625 -7.171875 48.1875 -13.984375 
Q 42 -20.796875 29.203125 -20.796875 
Q 24.46875 -20.796875 20.265625 -20.09375 
Q 16.0625 -19.390625 12.109375 -17.921875 
L 12.109375 -9.1875 
Q 16.0625 -11.328125 19.921875 -12.34375 
Q 23.78125 -13.375 27.78125 -13.375 
Q 36.625 -13.375 41.015625 -8.765625 
Q 45.40625 -4.15625 45.40625 5.171875 
L 45.40625 9.625 
Q 42.625 4.78125 38.28125 2.390625 
Q 33.9375 0 27.875 0 
Q 17.828125 0 11.671875 7.65625 
Q 5.515625 15.328125 5.515625 27.984375 
Q 5.515625 40.671875 11.671875 48.328125 
Q 17.828125 56 27.875 56 
Q 33.9375 56 38.28125 53.609375 
Q 42.625 51.21875 45.40625 46.390625 
L 45.40625 54.6875 
L 54.390625 54.6875 
z
" id="DejaVuSans-103"/>
     <path id="DejaVuSans-32"/>
    </defs>
    <g transform="translate(196.445625 35.472)scale(0.12 -0.12)">
     <use xlink:href="#DejaVuSans-84"/>
     <use x="60.865234" xlink:href="#DejaVuSans-114"/>
     <use x="101.978516" xlink:href="#DejaVuSans-97"/>
     <use x="163.257812" xlink:href="#DejaVuSans-105"/>
     <use x="191.041016" xlink:href="#DejaVuSans-110"/>
     <use x="254.419922" xlink:href="#DejaVuSans-105"/>
     <use x="282.203125" xlink:href="#DejaVuSans-110"/>
     <use x="345.582031" xlink:href="#DejaVuSans-103"/>
     <use x="409.058594" xlink:href="#DejaVuSans-32"/>
     <use x="440.845703" xlink:href="#DejaVuSans-76"/>
     <use x="496.542969" xlink:href="#DejaVuSans-111"/>
     <use x="557.724609" xlink:href="#DejaVuSans-115"/>
     <use x="609.824219" xlink:href="#DejaVuSans-115"/>
    </g>
   </g>
  </g>
 </g>
 <defs>
  <clipPath id="p6054349f02">
   <rect height="266.112" width="357.12" x="57.6" y="41.472"/>
  </clipPath>
 </defs>
</svg>
