<?xml version="1.0" encoding="utf-8" standalone="no"?>
<!DOCTYPE svg PUBLIC "-//W3C//DTD SVG 1.1//EN"
  "http://www.w3.org/Graphics/SVG/1.1/DTD/svg11.dtd">
<!-- Created with matplotlib (https://matplotlib.org/) -->
<svg height="345.6pt" version="1.1" viewBox="0 0 460.8 345.6" width="460.8pt" xmlns="http://www.w3.org/2000/svg" xmlns:xlink="http://www.w3.org/1999/xlink">
 <defs>
  <style type="text/css">
*{stroke-linecap:butt;stroke-linejoin:round;}
  </style>
 </defs>
 <g id="figure_1">
  <g id="patch_1">
   <path d="M 0 345.6 
L 460.8 345.6 
L 460.8 0 
L 0 0 
z
" style="fill:#ffffff;"/>
  </g>
  <g id="axes_1">
   <g id="patch_2">
    <path d="M 57.6 307.584 
L 414.72 307.584 
L 414.72 41.472 
L 57.6 41.472 
z
" style="fill:#ffffff;"/>
   </g>
   <g id="matplotlib.axis_1">
    <g id="xtick_1">
     <g id="line2d_1">
      <defs>
       <path d="M 0 0 
L 0 3.5 
" id="m6a090c0828" style="stroke:#000000;stroke-width:0.8;"/>
      </defs>
      <g>
       <use style="stroke:#000000;stroke-width:0.8;" x="73.832727" xlink:href="#m6a090c0828" y="307.584"/>
      </g>
     </g>
     <g id="text_1">
      <!-- 0 -->
      <defs>
       <path d="M 31.78125 66.40625 
Q 24.171875 66.40625 20.328125 58.90625 
Q 16.5 51.421875 16.5 36.375 
Q 16.5 21.390625 20.328125 13.890625 
Q 24.171875 6.390625 31.78125 6.390625 
Q 39.453125 6.390625 43.28125 13.890625 
Q 47.125 21.390625 47.125 36.375 
Q 47.125 51.421875 43.28125 58.90625 
Q 39.453125 66.40625 31.78125 66.40625 
z
M 31.78125 74.21875 
Q 44.046875 74.21875 50.515625 64.515625 
Q 56.984375 54.828125 56.984375 36.375 
Q 56.984375 17.96875 50.515625 8.265625 
Q 44.046875 -1.421875 31.78125 -1.421875 
Q 19.53125 -1.421875 13.0625 8.265625 
Q 6.59375 17.96875 6.59375 36.375 
Q 6.59375 54.828125 13.0625 64.515625 
Q 19.53125 74.21875 31.78125 74.21875 
z
" id="DejaVuSans-48"/>
      </defs>
      <g transform="translate(70.651477 322.182437)scale(0.1 -0.1)">
       <use xlink:href="#DejaVuSans-48"/>
      </g>
     </g>
    </g>
    <g id="xtick_2">
     <g id="line2d_2">
      <g>
       <use style="stroke:#000000;stroke-width:0.8;" x="138.828632" xlink:href="#m6a090c0828" y="307.584"/>
      </g>
     </g>
     <g id="text_2">
      <!-- 200 -->
      <defs>
       <path d="M 19.1875 8.296875 
L 53.609375 8.296875 
L 53.609375 0 
L 7.328125 0 
L 7.328125 8.296875 
Q 12.9375 14.109375 22.625 23.890625 
Q 32.328125 33.6875 34.8125 36.53125 
Q 39.546875 41.84375 41.421875 45.53125 
Q 43.3125 49.21875 43.3125 52.78125 
Q 43.3125 58.59375 39.234375 62.25 
Q 35.15625 65.921875 28.609375 65.921875 
Q 23.96875 65.921875 18.8125 64.3125 
Q 13.671875 62.703125 7.8125 59.421875 
L 7.8125 69.390625 
Q 13.765625 71.78125 18.9375 73 
Q 24.125 74.21875 28.421875 74.21875 
Q 39.75 74.21875 46.484375 68.546875 
Q 53.21875 62.890625 53.21875 53.421875 
Q 53.21875 48.921875 51.53125 44.890625 
Q 49.859375 40.875 45.40625 35.40625 
Q 44.1875 33.984375 37.640625 27.21875 
Q 31.109375 20.453125 19.1875 8.296875 
z
" id="DejaVuSans-50"/>
      </defs>
      <g transform="translate(129.284882 322.182437)scale(0.1 -0.1)">
       <use xlink:href="#DejaVuSans-50"/>
       <use x="63.623047" xlink:href="#DejaVuSans-48"/>
       <use x="127.246094" xlink:href="#DejaVuSans-48"/>
      </g>
     </g>
    </g>
    <g id="xtick_3">
     <g id="line2d_3">
      <g>
       <use style="stroke:#000000;stroke-width:0.8;" x="203.824537" xlink:href="#m6a090c0828" y="307.584"/>
      </g>
     </g>
     <g id="text_3">
      <!-- 400 -->
      <defs>
       <path d="M 37.796875 64.3125 
L 12.890625 25.390625 
L 37.796875 25.390625 
z
M 35.203125 72.90625 
L 47.609375 72.90625 
L 47.609375 25.390625 
L 58.015625 25.390625 
L 58.015625 17.1875 
L 47.609375 17.1875 
L 47.609375 0 
L 37.796875 0 
L 37.796875 17.1875 
L 4.890625 17.1875 
L 4.890625 26.703125 
z
" id="DejaVuSans-52"/>
      </defs>
      <g transform="translate(194.280787 322.182437)scale(0.1 -0.1)">
       <use xlink:href="#DejaVuSans-52"/>
       <use x="63.623047" xlink:href="#DejaVuSans-48"/>
       <use x="127.246094" xlink:href="#DejaVuSans-48"/>
      </g>
     </g>
    </g>
    <g id="xtick_4">
     <g id="line2d_4">
      <g>
       <use style="stroke:#000000;stroke-width:0.8;" x="268.820442" xlink:href="#m6a090c0828" y="307.584"/>
      </g>
     </g>
     <g id="text_4">
      <!-- 600 -->
      <defs>
       <path d="M 33.015625 40.375 
Q 26.375 40.375 22.484375 35.828125 
Q 18.609375 31.296875 18.609375 23.390625 
Q 18.609375 15.53125 22.484375 10.953125 
Q 26.375 6.390625 33.015625 6.390625 
Q 39.65625 6.390625 43.53125 10.953125 
Q 47.40625 15.53125 47.40625 23.390625 
Q 47.40625 31.296875 43.53125 35.828125 
Q 39.65625 40.375 33.015625 40.375 
z
M 52.59375 71.296875 
L 52.59375 62.3125 
Q 48.875 64.0625 45.09375 64.984375 
Q 41.3125 65.921875 37.59375 65.921875 
Q 27.828125 65.921875 22.671875 59.328125 
Q 17.53125 52.734375 16.796875 39.40625 
Q 19.671875 43.65625 24.015625 45.921875 
Q 28.375 48.1875 33.59375 48.1875 
Q 44.578125 48.1875 50.953125 41.515625 
Q 57.328125 34.859375 57.328125 23.390625 
Q 57.328125 12.15625 50.6875 5.359375 
Q 44.046875 -1.421875 33.015625 -1.421875 
Q 20.359375 -1.421875 13.671875 8.265625 
Q 6.984375 17.96875 6.984375 36.375 
Q 6.984375 53.65625 15.1875 63.9375 
Q 23.390625 74.21875 37.203125 74.21875 
Q 40.921875 74.21875 44.703125 73.484375 
Q 48.484375 72.75 52.59375 71.296875 
z
" id="DejaVuSans-54"/>
      </defs>
      <g transform="translate(259.276692 322.182437)scale(0.1 -0.1)">
       <use xlink:href="#DejaVuSans-54"/>
       <use x="63.623047" xlink:href="#DejaVuSans-48"/>
       <use x="127.246094" xlink:href="#DejaVuSans-48"/>
      </g>
     </g>
    </g>
    <g id="xtick_5">
     <g id="line2d_5">
      <g>
       <use style="stroke:#000000;stroke-width:0.8;" x="333.816347" xlink:href="#m6a090c0828" y="307.584"/>
      </g>
     </g>
     <g id="text_5">
      <!-- 800 -->
      <defs>
       <path d="M 31.78125 34.625 
Q 24.75 34.625 20.71875 30.859375 
Q 16.703125 27.09375 16.703125 20.515625 
Q 16.703125 13.921875 20.71875 10.15625 
Q 24.75 6.390625 31.78125 6.390625 
Q 38.8125 6.390625 42.859375 10.171875 
Q 46.921875 13.96875 46.921875 20.515625 
Q 46.921875 27.09375 42.890625 30.859375 
Q 38.875 34.625 31.78125 34.625 
z
M 21.921875 38.8125 
Q 15.578125 40.375 12.03125 44.71875 
Q 8.5 49.078125 8.5 55.328125 
Q 8.5 64.0625 14.71875 69.140625 
Q 20.953125 74.21875 31.78125 74.21875 
Q 42.671875 74.21875 48.875 69.140625 
Q 55.078125 64.0625 55.078125 55.328125 
Q 55.078125 49.078125 51.53125 44.71875 
Q 48 40.375 41.703125 38.8125 
Q 48.828125 37.15625 52.796875 32.3125 
Q 56.78125 27.484375 56.78125 20.515625 
Q 56.78125 9.90625 50.3125 4.234375 
Q 43.84375 -1.421875 31.78125 -1.421875 
Q 19.734375 -1.421875 13.25 4.234375 
Q 6.78125 9.90625 6.78125 20.515625 
Q 6.78125 27.484375 10.78125 32.3125 
Q 14.796875 37.15625 21.921875 38.8125 
z
M 18.3125 54.390625 
Q 18.3125 48.734375 21.84375 45.5625 
Q 25.390625 42.390625 31.78125 42.390625 
Q 38.140625 42.390625 41.71875 45.5625 
Q 45.3125 48.734375 45.3125 54.390625 
Q 45.3125 60.0625 41.71875 63.234375 
Q 38.140625 66.40625 31.78125 66.40625 
Q 25.390625 66.40625 21.84375 63.234375 
Q 18.3125 60.0625 18.3125 54.390625 
z
" id="DejaVuSans-56"/>
      </defs>
      <g transform="translate(324.272597 322.182437)scale(0.1 -0.1)">
       <use xlink:href="#DejaVuSans-56"/>
       <use x="63.623047" xlink:href="#DejaVuSans-48"/>
       <use x="127.246094" xlink:href="#DejaVuSans-48"/>
      </g>
     </g>
    </g>
    <g id="xtick_6">
     <g id="line2d_6">
      <g>
       <use style="stroke:#000000;stroke-width:0.8;" x="398.812252" xlink:href="#m6a090c0828" y="307.584"/>
      </g>
     </g>
     <g id="text_6">
      <!-- 1000 -->
      <defs>
       <path d="M 12.40625 8.296875 
L 28.515625 8.296875 
L 28.515625 63.921875 
L 10.984375 60.40625 
L 10.984375 69.390625 
L 28.421875 72.90625 
L 38.28125 72.90625 
L 38.28125 8.296875 
L 54.390625 8.296875 
L 54.390625 0 
L 12.40625 0 
z
" id="DejaVuSans-49"/>
      </defs>
      <g transform="translate(386.087252 322.182437)scale(0.1 -0.1)">
       <use xlink:href="#DejaVuSans-49"/>
       <use x="63.623047" xlink:href="#DejaVuSans-48"/>
       <use x="127.246094" xlink:href="#DejaVuSans-48"/>
       <use x="190.869141" xlink:href="#DejaVuSans-48"/>
      </g>
     </g>
    </g>
    <g id="text_7">
     <!-- Epoch -->
     <defs>
      <path d="M 9.8125 72.90625 
L 55.90625 72.90625 
L 55.90625 64.59375 
L 19.671875 64.59375 
L 19.671875 43.015625 
L 54.390625 43.015625 
L 54.390625 34.71875 
L 19.671875 34.71875 
L 19.671875 8.296875 
L 56.78125 8.296875 
L 56.78125 0 
L 9.8125 0 
z
" id="DejaVuSans-69"/>
      <path d="M 18.109375 8.203125 
L 18.109375 -20.796875 
L 9.078125 -20.796875 
L 9.078125 54.6875 
L 18.109375 54.6875 
L 18.109375 46.390625 
Q 20.953125 51.265625 25.265625 53.625 
Q 29.59375 56 35.59375 56 
Q 45.5625 56 51.78125 48.09375 
Q 58.015625 40.1875 58.015625 27.296875 
Q 58.015625 14.40625 51.78125 6.484375 
Q 45.5625 -1.421875 35.59375 -1.421875 
Q 29.59375 -1.421875 25.265625 0.953125 
Q 20.953125 3.328125 18.109375 8.203125 
z
M 48.6875 27.296875 
Q 48.6875 37.203125 44.609375 42.84375 
Q 40.53125 48.484375 33.40625 48.484375 
Q 26.265625 48.484375 22.1875 42.84375 
Q 18.109375 37.203125 18.109375 27.296875 
Q 18.109375 17.390625 22.1875 11.75 
Q 26.265625 6.109375 33.40625 6.109375 
Q 40.53125 6.109375 44.609375 11.75 
Q 48.6875 17.390625 48.6875 27.296875 
z
" id="DejaVuSans-112"/>
      <path d="M 30.609375 48.390625 
Q 23.390625 48.390625 19.1875 42.75 
Q 14.984375 37.109375 14.984375 27.296875 
Q 14.984375 17.484375 19.15625 11.84375 
Q 23.34375 6.203125 30.609375 6.203125 
Q 37.796875 6.203125 41.984375 11.859375 
Q 46.1875 17.53125 46.1875 27.296875 
Q 46.1875 37.015625 41.984375 42.703125 
Q 37.796875 48.390625 30.609375 48.390625 
z
M 30.609375 56 
Q 42.328125 56 49.015625 48.375 
Q 55.71875 40.765625 55.71875 27.296875 
Q 55.71875 13.875 49.015625 6.21875 
Q 42.328125 -1.421875 30.609375 -1.421875 
Q 18.84375 -1.421875 12.171875 6.21875 
Q 5.515625 13.875 5.515625 27.296875 
Q 5.515625 40.765625 12.171875 48.375 
Q 18.84375 56 30.609375 56 
z
" id="DejaVuSans-111"/>
      <path d="M 48.78125 52.59375 
L 48.78125 44.1875 
Q 44.96875 46.296875 41.140625 47.34375 
Q 37.3125 48.390625 33.40625 48.390625 
Q 24.65625 48.390625 19.8125 42.84375 
Q 14.984375 37.3125 14.984375 27.296875 
Q 14.984375 17.28125 19.8125 11.734375 
Q 24.65625 6.203125 33.40625 6.203125 
Q 37.3125 6.203125 41.140625 7.25 
Q 44.96875 8.296875 48.78125 10.40625 
L 48.78125 2.09375 
Q 45.015625 0.34375 40.984375 -0.53125 
Q 36.96875 -1.421875 32.421875 -1.421875 
Q 20.0625 -1.421875 12.78125 6.34375 
Q 5.515625 14.109375 5.515625 27.296875 
Q 5.515625 40.671875 12.859375 48.328125 
Q 20.21875 56 33.015625 56 
Q 37.15625 56 41.109375 55.140625 
Q 45.0625 54.296875 48.78125 52.59375 
z
" id="DejaVuSans-99"/>
      <path d="M 54.890625 33.015625 
L 54.890625 0 
L 45.90625 0 
L 45.90625 32.71875 
Q 45.90625 40.484375 42.875 44.328125 
Q 39.84375 48.1875 33.796875 48.1875 
Q 26.515625 48.1875 22.3125 43.546875 
Q 18.109375 38.921875 18.109375 30.90625 
L 18.109375 0 
L 9.078125 0 
L 9.078125 75.984375 
L 18.109375 75.984375 
L 18.109375 46.1875 
Q 21.34375 51.125 25.703125 53.5625 
Q 30.078125 56 35.796875 56 
Q 45.21875 56 50.046875 50.171875 
Q 54.890625 44.34375 54.890625 33.015625 
z
" id="DejaVuSans-104"/>
     </defs>
     <g transform="translate(220.849063 335.860562)scale(0.1 -0.1)">
      <use xlink:href="#DejaVuSans-69"/>
      <use x="63.183594" xlink:href="#DejaVuSans-112"/>
      <use x="126.660156" xlink:href="#DejaVuSans-111"/>
      <use x="187.841797" xlink:href="#DejaVuSans-99"/>
      <use x="242.822266" xlink:href="#DejaVuSans-104"/>
     </g>
    </g>
   </g>
   <g id="matplotlib.axis_2">
    <g id="ytick_1">
     <g id="line2d_7">
      <defs>
       <path d="M 0 0 
L -3.5 0 
" id="m37a86ddc9e" style="stroke:#000000;stroke-width:0.8;"/>
      </defs>
      <g>
       <use style="stroke:#000000;stroke-width:0.8;" x="57.6" xlink:href="#m37a86ddc9e" y="267.958325"/>
      </g>
     </g>
     <g id="text_8">
      <!-- 0.4 -->
      <defs>
       <path d="M 10.6875 12.40625 
L 21 12.40625 
L 21 0 
L 10.6875 0 
z
" id="DejaVuSans-46"/>
      </defs>
      <g transform="translate(34.696875 271.757544)scale(0.1 -0.1)">
       <use xlink:href="#DejaVuSans-48"/>
       <use x="63.623047" xlink:href="#DejaVuSans-46"/>
       <use x="95.410156" xlink:href="#DejaVuSans-52"/>
      </g>
     </g>
    </g>
    <g id="ytick_2">
     <g id="line2d_8">
      <g>
       <use style="stroke:#000000;stroke-width:0.8;" x="57.6" xlink:href="#m37a86ddc9e" y="226.122391"/>
      </g>
     </g>
     <g id="text_9">
      <!-- 0.6 -->
      <g transform="translate(34.696875 229.92161)scale(0.1 -0.1)">
       <use xlink:href="#DejaVuSans-48"/>
       <use x="63.623047" xlink:href="#DejaVuSans-46"/>
       <use x="95.410156" xlink:href="#DejaVuSans-54"/>
      </g>
     </g>
    </g>
    <g id="ytick_3">
     <g id="line2d_9">
      <g>
       <use style="stroke:#000000;stroke-width:0.8;" x="57.6" xlink:href="#m37a86ddc9e" y="184.286457"/>
      </g>
     </g>
     <g id="text_10">
      <!-- 0.8 -->
      <g transform="translate(34.696875 188.085676)scale(0.1 -0.1)">
       <use xlink:href="#DejaVuSans-48"/>
       <use x="63.623047" xlink:href="#DejaVuSans-46"/>
       <use x="95.410156" xlink:href="#DejaVuSans-56"/>
      </g>
     </g>
    </g>
    <g id="ytick_4">
     <g id="line2d_10">
      <g>
       <use style="stroke:#000000;stroke-width:0.8;" x="57.6" xlink:href="#m37a86ddc9e" y="142.450523"/>
      </g>
     </g>
     <g id="text_11">
      <!-- 1.0 -->
      <g transform="translate(34.696875 146.249742)scale(0.1 -0.1)">
       <use xlink:href="#DejaVuSans-49"/>
       <use x="63.623047" xlink:href="#DejaVuSans-46"/>
       <use x="95.410156" xlink:href="#DejaVuSans-48"/>
      </g>
     </g>
    </g>
    <g id="ytick_5">
     <g id="line2d_11">
      <g>
       <use style="stroke:#000000;stroke-width:0.8;" x="57.6" xlink:href="#m37a86ddc9e" y="100.614589"/>
      </g>
     </g>
     <g id="text_12">
      <!-- 1.2 -->
      <g transform="translate(34.696875 104.413808)scale(0.1 -0.1)">
       <use xlink:href="#DejaVuSans-49"/>
       <use x="63.623047" xlink:href="#DejaVuSans-46"/>
       <use x="95.410156" xlink:href="#DejaVuSans-50"/>
      </g>
     </g>
    </g>
    <g id="ytick_6">
     <g id="line2d_12">
      <g>
       <use style="stroke:#000000;stroke-width:0.8;" x="57.6" xlink:href="#m37a86ddc9e" y="58.778655"/>
      </g>
     </g>
     <g id="text_13">
      <!-- 1.4 -->
      <g transform="translate(34.696875 62.577874)scale(0.1 -0.1)">
       <use xlink:href="#DejaVuSans-49"/>
       <use x="63.623047" xlink:href="#DejaVuSans-46"/>
       <use x="95.410156" xlink:href="#DejaVuSans-52"/>
      </g>
     </g>
    </g>
    <g id="text_14">
     <!-- Loss -->
     <defs>
      <path d="M 9.8125 72.90625 
L 19.671875 72.90625 
L 19.671875 8.296875 
L 55.171875 8.296875 
L 55.171875 0 
L 9.8125 0 
z
" id="DejaVuSans-76"/>
      <path d="M 44.28125 53.078125 
L 44.28125 44.578125 
Q 40.484375 46.53125 36.375 47.5 
Q 32.28125 48.484375 27.875 48.484375 
Q 21.1875 48.484375 17.84375 46.4375 
Q 14.5 44.390625 14.5 40.28125 
Q 14.5 37.15625 16.890625 35.375 
Q 19.28125 33.59375 26.515625 31.984375 
L 29.59375 31.296875 
Q 39.15625 29.25 43.1875 25.515625 
Q 47.21875 21.78125 47.21875 15.09375 
Q 47.21875 7.46875 41.1875 3.015625 
Q 35.15625 -1.421875 24.609375 -1.421875 
Q 20.21875 -1.421875 15.453125 -0.5625 
Q 10.6875 0.296875 5.421875 2 
L 5.421875 11.28125 
Q 10.40625 8.6875 15.234375 7.390625 
Q 20.0625 6.109375 24.8125 6.109375 
Q 31.15625 6.109375 34.5625 8.28125 
Q 37.984375 10.453125 37.984375 14.40625 
Q 37.984375 18.0625 35.515625 20.015625 
Q 33.0625 21.96875 24.703125 23.78125 
L 21.578125 24.515625 
Q 13.234375 26.265625 9.515625 29.90625 
Q 5.8125 33.546875 5.8125 39.890625 
Q 5.8125 47.609375 11.28125 51.796875 
Q 16.75 56 26.8125 56 
Q 31.78125 56 36.171875 55.265625 
Q 40.578125 54.546875 44.28125 53.078125 
z
" id="DejaVuSans-115"/>
     </defs>
     <g transform="translate(28.617188 185.581906)rotate(-90)scale(0.1 -0.1)">
      <use xlink:href="#DejaVuSans-76"/>
      <use x="55.697266" xlink:href="#DejaVuSans-111"/>
      <use x="116.878906" xlink:href="#DejaVuSans-115"/>
      <use x="168.978516" xlink:href="#DejaVuSans-115"/>
     </g>
    </g>
   </g>
   <g id="line2d_13">
    <path clip-path="url(#pcad6019cff)" d="M 73.832727 53.568 
L 74.157707 56.408353 
L 74.482686 61.475431 
L 76.107584 100.551216 
L 76.432563 105.281381 
L 76.757543 114.998479 
L 77.082523 118.396181 
L 77.407502 128.55016 
L 77.732482 129.250741 
L 78.057461 128.97789 
L 78.382441 129.575186 
L 78.70742 134.386443 
L 79.0324 137.083538 
L 79.357379 137.584506 
L 79.682359 141.753632 
L 80.007338 142.149942 
L 80.332318 145.48756 
L 80.657297 145.643785 
L 80.982277 146.893872 
L 81.307256 153.011822 
L 81.957215 149.147578 
L 82.282195 150.659108 
L 82.932154 148.9144 
L 83.257133 156.90503 
L 83.582113 151.075479 
L 83.907093 154.21281 
L 84.232072 147.534906 
L 84.557052 149.129499 
L 84.882031 148.102179 
L 85.207011 154.130333 
L 85.53199 155.896275 
L 85.85697 159.442409 
L 86.181949 155.814808 
L 86.506929 154.593385 
L 86.831908 153.939971 
L 87.156888 149.452385 
L 87.481867 154.296645 
L 87.806847 150.407801 
L 88.131826 153.253117 
L 88.456806 151.215384 
L 88.781785 152.748621 
L 89.106765 148.674626 
L 89.431744 154.636188 
L 89.756724 152.622244 
L 90.081704 147.61156 
L 90.406683 154.354285 
L 90.731663 154.928565 
L 91.056642 149.039504 
L 91.381622 153.451509 
L 91.706601 155.575135 
L 92.031581 154.053206 
L 92.35656 154.833483 
L 92.68154 154.681597 
L 93.006519 154.92086 
L 93.331499 151.418426 
L 93.656478 152.081878 
L 93.981458 157.734855 
L 94.306437 155.541745 
L 94.631417 155.380757 
L 94.956396 151.107073 
L 95.606355 153.314784 
L 95.931335 153.239851 
L 96.256314 151.125564 
L 96.581294 151.723296 
L 96.906274 157.216458 
L 97.231253 149.240028 
L 97.556233 154.470762 
L 97.881212 155.035666 
L 98.206192 150.845905 
L 98.856151 157.529494 
L 99.18113 155.956895 
L 99.50611 151.792743 
L 99.831089 156.078496 
L 100.156069 158.110307 
L 100.481048 157.599963 
L 100.806028 154.836875 
L 101.131007 156.446491 
L 101.455987 156.931113 
L 101.780966 158.455136 
L 102.105946 159.285398 
L 102.430925 159.25944 
L 102.755905 160.708418 
L 103.080885 159.168672 
L 103.405864 156.818813 
L 103.730844 157.949431 
L 104.055823 163.096192 
L 104.380803 162.322934 
L 104.705782 164.818907 
L 105.030762 165.239916 
L 105.355741 163.391174 
L 105.680721 168.953945 
L 106.0057 168.471368 
L 106.33068 175.892532 
L 106.655659 168.348234 
L 106.980639 167.088646 
L 107.305618 167.851954 
L 107.630598 170.131693 
L 107.955577 177.916762 
L 108.280557 177.032912 
L 108.605536 177.602828 
L 108.930516 163.67314 
L 109.255495 188.429959 
L 109.580475 183.5851 
L 109.905455 185.272318 
L 110.230434 174.736304 
L 110.555414 178.683075 
L 110.880393 179.215038 
L 111.205373 181.921397 
L 111.530352 191.111556 
L 111.855332 169.429042 
L 112.180311 183.590648 
L 112.505291 191.832697 
L 112.83027 161.802828 
L 113.15525 178.345701 
L 113.480229 184.912764 
L 113.805209 168.952973 
L 114.130188 185.241709 
L 114.455168 185.02252 
L 114.780147 173.007356 
L 115.105127 189.634575 
L 115.430106 194.664223 
L 115.755086 196.433282 
L 116.080066 196.065112 
L 116.405045 200.169367 
L 116.730025 160.643945 
L 117.055004 209.501675 
L 117.379984 209.079568 
L 117.704963 204.704918 
L 118.029943 191.606202 
L 118.354922 191.36674 
L 118.679902 192.111072 
L 119.004881 180.650488 
L 119.329861 213.956794 
L 119.65484 192.122393 
L 119.97982 146.284794 
L 120.304799 192.695302 
L 120.629779 190.606611 
L 120.954758 182.746659 
L 121.279738 186.462957 
L 121.604717 205.173742 
L 121.929697 210.147496 
L 122.254676 227.175066 
L 122.579656 197.068206 
L 122.904636 193.783989 
L 123.229615 149.671997 
L 123.554595 178.249086 
L 123.879574 226.71043 
L 124.204554 183.282587 
L 124.529533 220.740901 
L 125.179492 193.597816 
L 125.504472 201.134646 
L 125.829451 213.798649 
L 126.154431 217.268154 
L 126.47941 211.551415 
L 126.80439 229.600781 
L 127.129369 222.712977 
L 127.454349 218.509638 
L 127.779328 232.215562 
L 128.104308 234.868507 
L 128.429287 224.02503 
L 128.754267 235.218237 
L 129.079247 230.051028 
L 129.404226 236.884371 
L 129.729206 227.767798 
L 130.054185 226.044872 
L 130.379165 208.609858 
L 130.704144 178.244884 
L 131.029124 202.889802 
L 131.354103 211.360117 
L 131.679083 232.111391 
L 132.004062 210.471056 
L 132.329042 212.258093 
L 132.654021 218.073093 
L 132.979001 216.301953 
L 133.30398 215.997582 
L 133.62896 211.752263 
L 134.278919 231.385873 
L 134.603898 233.955121 
L 134.928878 226.101016 
L 135.253857 221.103784 
L 135.578837 223.292905 
L 135.903817 211.986713 
L 136.228796 234.985869 
L 136.553776 235.154338 
L 136.878755 238.667219 
L 137.203735 224.112108 
L 137.528714 229.590831 
L 138.503653 239.589458 
L 138.828632 238.088326 
L 139.153612 248.529502 
L 139.478591 230.066863 
L 139.803571 238.08486 
L 140.12855 234.50899 
L 140.45353 237.848752 
L 140.778509 247.924264 
L 141.103489 248.595751 
L 141.428468 241.606158 
L 141.753448 244.921308 
L 142.078428 250.126551 
L 142.403407 248.860006 
L 142.728387 239.134573 
L 143.053366 241.022552 
L 143.378346 243.621361 
L 143.703325 248.790209 
L 144.028305 241.392692 
L 144.353284 239.924151 
L 145.003243 194.626807 
L 145.328223 200.712165 
L 145.653202 209.89215 
L 145.978182 168.839451 
L 146.303161 219.774188 
L 146.628141 221.761363 
L 146.95312 228.758737 
L 147.2781 223.09768 
L 147.603079 223.252334 
L 147.928059 238.904175 
L 148.253038 237.820811 
L 148.578018 235.456926 
L 148.902998 243.892068 
L 149.227977 241.285354 
L 149.552957 243.791226 
L 149.877936 247.611876 
L 150.202916 248.781719 
L 150.852875 220.005496 
L 151.177854 216.536103 
L 151.502834 197.303965 
L 151.827813 236.216406 
L 152.152793 221.868776 
L 152.477772 219.153689 
L 152.802752 221.796586 
L 153.127731 208.219183 
L 153.452711 210.908922 
L 153.77769 234.652111 
L 154.10267 211.234439 
L 154.427649 228.724013 
L 155.077609 233.984545 
L 155.402588 232.934945 
L 155.727568 234.105997 
L 156.052547 239.237322 
L 156.377527 242.125852 
L 156.702506 234.263543 
L 157.027486 243.046396 
L 157.352465 242.616484 
L 157.677445 243.729796 
L 158.002424 226.583954 
L 158.327404 202.723777 
L 158.652383 202.166791 
L 158.977363 239.64342 
L 159.302342 233.100533 
L 159.952301 208.238858 
L 160.277281 223.885338 
L 160.60226 225.462151 
L 160.92724 244.787127 
L 161.252219 252.302673 
L 161.577199 238.905247 
L 161.902179 243.942177 
L 162.227158 244.24585 
L 162.552138 250.668806 
L 162.877117 246.332769 
L 163.202097 251.84876 
L 163.527076 233.702268 
L 163.852056 224.153813 
L 164.177035 256.108997 
L 164.502015 234.547055 
L 164.826994 247.979641 
L 165.151974 250.97822 
L 165.476953 243.44995 
L 165.801933 250.454168 
L 166.126912 254.699836 
L 166.451892 261.685146 
L 166.776871 261.405425 
L 167.101851 246.519566 
L 167.42683 253.7034 
L 167.75181 231.916776 
L 168.07679 231.064621 
L 168.401769 224.2275 
L 168.726749 251.913071 
L 169.051728 241.236778 
L 169.376708 251.422713 
L 169.701687 234.655901 
L 170.026667 254.301506 
L 170.351646 256.841971 
L 170.676626 228.043692 
L 171.001605 241.945078 
L 171.326585 248.579306 
L 171.651564 248.350074 
L 171.976544 245.764636 
L 172.301523 251.222071 
L 172.626503 244.715921 
L 172.951482 247.870402 
L 173.276462 257.712629 
L 173.601441 249.048991 
L 174.2514 263.264971 
L 174.57638 264.992105 
L 174.90136 242.900943 
L 175.226339 258.228745 
L 175.551319 240.8328 
L 175.876298 239.365407 
L 176.201278 235.447163 
L 176.526257 250.310872 
L 176.851237 231.88992 
L 177.176216 258.097793 
L 177.501196 235.619958 
L 177.826175 238.355941 
L 178.151155 245.019644 
L 178.476134 241.741748 
L 178.801114 250.507812 
L 179.126093 246.483833 
L 179.451073 262.723388 
L 179.776052 256.101666 
L 180.101032 272.308325 
L 180.426011 258.819296 
L 180.750991 254.35942 
L 181.075971 267.605539 
L 181.72593 218.202138 
L 182.050909 220.605772 
L 182.375889 246.064107 
L 182.700868 241.674944 
L 183.025848 241.891402 
L 183.350827 242.719495 
L 183.675807 243.972998 
L 184.000786 234.38497 
L 184.325766 233.938713 
L 184.650745 239.188223 
L 184.975725 235.328143 
L 185.300704 255.194769 
L 185.625684 259.919124 
L 185.950663 254.542913 
L 186.275643 263.326949 
L 186.600622 266.970746 
L 186.925602 262.969384 
L 187.250581 270.630345 
L 187.575561 270.540232 
L 187.900541 256.883271 
L 188.22552 266.704571 
L 188.5505 257.506052 
L 188.875479 193.308108 
L 189.200459 241.250182 
L 189.525438 266.684616 
L 189.850418 237.139144 
L 190.175397 257.257706 
L 190.500377 235.661514 
L 190.825356 247.080405 
L 191.150336 222.295645 
L 191.475315 239.691098 
L 191.800295 250.832624 
L 192.125274 240.348914 
L 192.450254 249.33042 
L 192.775233 244.8513 
L 193.100213 251.673927 
L 193.425192 253.008379 
L 193.750172 256.894954 
L 194.075152 264.91812 
L 194.400131 264.098094 
L 194.725111 261.964774 
L 195.05009 270.237283 
L 195.37507 272.670722 
L 195.700049 271.888094 
L 196.025029 257.722772 
L 196.350008 271.035315 
L 196.674988 274.071386 
L 196.999967 273.307716 
L 197.324947 262.82769 
L 197.649926 273.753094 
L 197.974906 272.268664 
L 198.299885 260.958825 
L 198.624865 268.400224 
L 198.949844 280.125767 
L 199.274824 269.171692 
L 199.924783 281.981965 
L 200.249762 277.512906 
L 200.574742 275.095994 
L 200.899722 275.711138 
L 201.224701 271.26714 
L 201.549681 271.276753 
L 202.19964 281.268735 
L 202.524619 246.580286 
L 202.849599 275.764408 
L 203.174578 276.38932 
L 203.499558 280.124034 
L 203.824537 252.95173 
L 204.149517 280.932907 
L 204.474496 254.752065 
L 204.799476 267.479306 
L 205.124455 258.324955 
L 205.449435 220.591321 
L 205.774414 229.628959 
L 206.099394 228.622635 
L 206.424373 231.882352 
L 206.749353 243.59827 
L 207.074333 240.326122 
L 207.724292 265.82847 
L 208.049271 254.198127 
L 208.374251 253.10803 
L 208.69923 262.217365 
L 209.02421 261.731883 
L 209.349189 268.969678 
L 209.674169 265.500061 
L 209.999148 260.683966 
L 210.324128 257.825203 
L 210.649107 262.374519 
L 210.974087 261.793637 
L 211.299066 271.663519 
L 211.624046 265.334659 
L 211.949025 273.946493 
L 212.274005 265.84787 
L 212.598984 274.290562 
L 212.923964 270.965737 
L 213.573923 277.089709 
L 213.898903 272.681245 
L 214.223882 274.098853 
L 214.548862 282.867142 
L 214.873841 282.250764 
L 215.198821 268.021412 
L 215.5238 282.47029 
L 215.84878 268.093023 
L 216.173759 289.034964 
L 216.498739 271.88782 
L 216.823718 264.003835 
L 217.148698 282.414595 
L 217.473677 277.684043 
L 217.798657 281.471397 
L 218.123636 264.696718 
L 218.448616 270.711762 
L 218.773595 287.859119 
L 219.098575 289.954853 
L 219.423554 285.899984 
L 219.748534 258.67471 
L 220.073514 294.417004 
L 220.398493 284.73506 
L 220.723473 284.322647 
L 221.048452 282.432698 
L 221.373432 283.179181 
L 221.698411 283.326467 
L 222.023391 279.70861 
L 222.34837 280.470086 
L 222.67335 282.837269 
L 222.998329 291.937608 
L 223.323309 291.615196 
L 223.648288 276.378866 
L 223.973268 284.384988 
L 224.298247 279.056006 
L 224.623227 283.343062 
L 224.948206 281.307429 
L 225.273186 295.062178 
L 225.598165 295.488 
L 225.923145 281.620709 
L 226.248124 287.642872 
L 226.573104 286.87179 
L 226.898084 278.202179 
L 227.223063 288.459874 
L 227.548043 285.215505 
L 227.873022 290.522525 
L 228.198002 288.776314 
L 228.522981 288.050497 
L 228.847961 284.196576 
L 229.17294 284.749274 
L 229.49792 288.339844 
L 229.822899 289.877433 
L 230.147879 275.617584 
L 230.472858 278.600815 
L 230.797838 226.477315 
L 231.122817 258.182757 
L 231.447797 172.281988 
L 231.772776 205.443714 
L 232.097756 198.709218 
L 232.422735 208.78774 
L 232.747715 192.874992 
L 233.072695 197.173075 
L 233.397674 203.298069 
L 234.372613 234.451288 
L 234.697592 230.929666 
L 235.022572 234.184795 
L 235.347551 238.828756 
L 235.99751 226.02329 
L 236.32249 241.428151 
L 236.647469 241.557769 
L 236.972449 235.681301 
L 237.297428 238.066595 
L 237.622408 243.412907 
L 237.947387 239.335184 
L 238.272367 242.868451 
L 238.597346 250.456724 
L 238.922326 250.153569 
L 239.247305 255.067937 
L 239.572285 233.762364 
L 239.897265 246.224808 
L 240.547224 251.304105 
L 240.872203 261.556925 
L 241.197183 258.818292 
L 241.522162 213.166318 
L 241.847142 266.424974 
L 242.172121 259.241521 
L 242.497101 254.563242 
L 242.82208 279.33549 
L 243.797019 253.560416 
L 244.121998 232.826036 
L 244.446978 254.90243 
L 245.096937 263.691965 
L 245.421916 254.581184 
L 245.746896 262.117521 
L 246.071876 259.238579 
L 246.396855 259.553404 
L 246.721835 275.525351 
L 247.046814 263.542086 
L 247.696773 282.961844 
L 248.021753 253.453221 
L 248.346732 255.033719 
L 248.671712 238.578746 
L 248.996691 244.769808 
L 249.321671 254.059619 
L 249.64665 238.87106 
L 249.97163 235.626641 
L 250.296609 247.59702 
L 250.621589 245.825431 
L 250.946568 243.327825 
L 251.271548 235.844808 
L 251.596527 251.054294 
L 251.921507 245.233683 
L 252.246486 258.708623 
L 252.571466 249.357657 
L 253.221425 240.907023 
L 253.546405 240.404148 
L 253.871384 242.941714 
L 254.196364 242.95776 
L 254.521343 244.50556 
L 254.846323 241.252974 
L 255.171302 242.012231 
L 255.821261 257.333275 
L 256.146241 248.364767 
L 256.47122 250.768557 
L 256.7962 256.87604 
L 257.121179 258.616658 
L 257.446159 258.666468 
L 257.771138 258.221196 
L 258.096118 271.322156 
L 258.746077 263.525042 
L 259.071057 251.10378 
L 259.396036 280.436285 
L 259.721016 259.002552 
L 260.045995 250.309052 
L 260.370975 274.069877 
L 260.695954 272.478626 
L 261.020934 256.607926 
L 261.345913 271.499944 
L 261.670893 270.599811 
L 261.995872 264.081262 
L 262.320852 277.282153 
L 262.645831 276.192848 
L 263.29579 262.389487 
L 263.62077 269.922676 
L 263.945749 203.370858 
L 264.270729 265.455718 
L 264.920688 250.70353 
L 265.245667 223.035028 
L 265.570647 223.837099 
L 265.895627 231.929269 
L 266.220606 222.816662 
L 266.545586 232.42121 
L 266.870565 237.162946 
L 267.195545 225.688185 
L 267.520524 231.008626 
L 267.845504 241.105652 
L 268.170483 240.451726 
L 268.495463 228.877283 
L 268.820442 237.824215 
L 269.145422 235.094192 
L 269.470401 242.532549 
L 269.795381 231.896379 
L 270.44534 239.825853 
L 270.770319 237.424962 
L 271.095299 249.914481 
L 271.420278 231.546225 
L 271.745258 231.928322 
L 272.070238 237.338845 
L 272.395217 238.001673 
L 272.720197 237.158532 
L 273.045176 240.18633 
L 273.370156 242.067464 
L 273.695135 248.59802 
L 274.020115 235.957482 
L 274.995053 245.085076 
L 275.320033 242.986013 
L 275.645012 239.755521 
L 275.969992 212.271434 
L 276.294971 247.815343 
L 276.619951 212.040912 
L 276.94493 210.427056 
L 277.26991 233.138524 
L 277.594889 239.847498 
L 277.919869 231.103097 
L 278.244848 237.321677 
L 278.569828 236.7314 
L 278.894808 226.325616 
L 279.219787 245.172901 
L 279.544767 233.942939 
L 279.869746 174.979968 
L 280.194726 247.069066 
L 280.519705 127.523463 
L 280.844685 224.715588 
L 281.169664 129.395396 
L 281.494644 183.218264 
L 282.144603 127.131891 
L 282.469582 153.769732 
L 282.794562 190.082865 
L 283.119541 198.288457 
L 283.444521 179.88708 
L 283.7695 177.416143 
L 284.09448 205.761039 
L 284.419459 212.009243 
L 285.069419 191.468368 
L 285.719378 216.815388 
L 286.044357 177.93989 
L 286.369337 213.990084 
L 286.694316 207.864005 
L 287.019296 227.491842 
L 287.344275 211.011447 
L 287.669255 223.684004 
L 287.994234 220.377955 
L 288.319214 211.964956 
L 288.644193 217.503664 
L 288.969173 202.798785 
L 289.619132 225.460929 
L 289.944111 216.339781 
L 290.269091 224.850692 
L 290.59407 216.225823 
L 290.91905 218.823572 
L 291.569009 210.701902 
L 291.893989 218.875689 
L 292.218968 213.129487 
L 292.543948 210.380325 
L 292.868927 205.077264 
L 293.193907 225.122084 
L 293.518886 215.580998 
L 293.843866 230.073134 
L 294.168845 224.912147 
L 294.818804 204.645183 
L 295.143784 221.683301 
L 295.468763 213.056137 
L 295.793743 218.636875 
L 296.118722 217.901969 
L 296.443702 214.536872 
L 296.768681 231.632267 
L 297.093661 218.029779 
L 297.41864 216.563583 
L 297.74362 207.289364 
L 298.0686 215.542023 
L 298.393579 216.237692 
L 298.718559 214.066925 
L 299.043538 214.044395 
L 299.368518 215.901528 
L 299.693497 223.832735 
L 300.018477 222.123948 
L 300.343456 206.844066 
L 300.668436 223.703803 
L 300.993415 223.094425 
L 301.318395 217.558386 
L 301.643374 230.640569 
L 301.968354 222.835912 
L 302.293333 229.190868 
L 302.618313 220.834698 
L 303.268272 245.222599 
L 303.918231 204.237552 
L 304.24321 234.458582 
L 304.56819 222.074599 
L 304.89317 214.818401 
L 305.218149 222.046384 
L 305.543129 238.89546 
L 305.868108 226.190113 
L 306.193088 241.842789 
L 306.518067 238.906856 
L 306.843047 244.274938 
L 307.168026 242.402295 
L 307.493006 242.33756 
L 307.817985 234.665552 
L 308.467944 259.395664 
L 309.117903 239.024093 
L 309.442883 257.575306 
L 309.767862 259.202103 
L 310.092842 254.037239 
L 310.417821 235.895889 
L 310.742801 246.083258 
L 311.067781 244.567426 
L 311.39276 223.225453 
L 311.71774 255.385998 
L 312.042719 238.621836 
L 312.367699 245.132592 
L 312.692678 235.513443 
L 313.017658 246.38127 
L 313.342637 236.519942 
L 313.667617 194.366286 
L 313.992596 218.377464 
L 314.317576 205.381648 
L 314.642555 222.019278 
L 314.967535 223.086483 
L 315.292514 200.115355 
L 315.617494 201.744846 
L 315.942473 187.791631 
L 316.267453 180.677058 
L 316.592432 214.498944 
L 316.917412 203.02528 
L 317.242391 218.287868 
L 317.567371 207.409244 
L 317.892351 222.853592 
L 318.21733 213.262933 
L 318.54231 213.02392 
L 318.867289 223.125508 
L 319.192269 211.986227 
L 319.517248 219.44245 
L 319.842228 206.511243 
L 320.167207 210.397419 
L 320.492187 216.669711 
L 320.817166 215.763618 
L 321.142146 215.952298 
L 321.467125 223.20013 
L 321.792105 219.415743 
L 322.117084 212.53567 
L 322.442064 218.294078 
L 322.767043 221.922413 
L 323.092023 211.183419 
L 323.417002 220.711252 
L 323.741982 215.850583 
L 324.066962 221.855996 
L 324.391941 211.381151 
L 324.716921 215.853102 
L 325.0419 217.731343 
L 325.36688 215.56848 
L 325.691859 217.605141 
L 326.016839 214.78081 
L 326.341818 221.924832 
L 326.666798 215.87057 
L 326.991777 212.143437 
L 327.316757 221.71477 
L 327.641736 216.076679 
L 328.291695 209.614187 
L 328.616675 219.923556 
L 328.941654 218.059017 
L 329.266634 218.956606 
L 329.591613 225.685891 
L 329.916593 224.203548 
L 330.241572 230.705029 
L 330.566552 218.039978 
L 330.891532 212.160468 
L 331.216511 228.344485 
L 331.541491 225.381333 
L 332.516429 214.366645 
L 332.841409 219.102495 
L 333.166388 217.578609 
L 333.491368 215.265693 
L 333.816347 221.540479 
L 334.141327 214.582068 
L 334.466306 213.941371 
L 334.791286 233.400341 
L 335.116265 218.322717 
L 335.441245 214.390696 
L 335.766224 223.947791 
L 336.091204 227.846073 
L 336.416183 229.232748 
L 336.741163 216.476256 
L 337.066143 215.023987 
L 337.391122 214.926287 
L 337.716102 221.620287 
L 338.041081 217.549546 
L 338.366061 228.502567 
L 338.69104 222.818108 
L 339.01602 209.694269 
L 339.340999 214.547731 
L 339.665979 222.895709 
L 339.990958 220.021443 
L 340.315938 219.553291 
L 340.640917 213.858633 
L 340.965897 217.980119 
L 341.290876 226.853215 
L 341.615856 213.107531 
L 341.940835 221.096091 
L 342.265815 215.601084 
L 342.590794 221.801934 
L 343.240753 218.179695 
L 343.565733 225.041191 
L 343.890713 217.280535 
L 344.215692 217.644129 
L 344.540672 218.650054 
L 344.865651 215.254223 
L 345.190631 222.697379 
L 345.51561 224.558078 
L 346.165569 214.09514 
L 346.490549 217.361415 
L 346.815528 216.975678 
L 347.140508 224.218697 
L 347.465487 216.773695 
L 347.790467 218.401266 
L 348.115446 217.689376 
L 348.440426 219.249669 
L 348.765405 228.731868 
L 349.090385 228.618919 
L 349.415364 221.744033 
L 349.740344 218.411115 
L 350.065324 225.34449 
L 350.390303 222.123561 
L 350.715283 211.19499 
L 351.040262 225.811669 
L 351.365242 221.825537 
L 351.690221 215.123195 
L 352.015201 219.291748 
L 352.66516 213.220392 
L 352.990139 224.459169 
L 353.315119 221.281542 
L 353.640098 221.544169 
L 353.965078 226.257241 
L 354.290057 225.308008 
L 354.615037 223.562377 
L 354.940016 215.736363 
L 355.264996 212.236448 
L 355.589975 230.958542 
L 355.914955 214.073121 
L 356.239934 226.076267 
L 356.564914 220.248486 
L 356.889894 208.188038 
L 357.214873 233.212048 
L 357.864832 209.497149 
L 358.189812 219.529502 
L 358.514791 223.354983 
L 358.839771 217.978261 
L 359.16475 221.063849 
L 359.48973 225.789912 
L 360.139689 213.534824 
L 360.464668 222.41676 
L 360.789648 216.0343 
L 361.114627 222.636922 
L 361.439607 216.303885 
L 362.089566 224.119314 
L 362.414545 218.043257 
L 362.739525 234.758451 
L 363.064505 214.877961 
L 363.389484 222.472854 
L 364.039443 229.997178 
L 364.364423 219.249681 
L 364.689402 222.548211 
L 365.014382 219.951173 
L 365.339361 224.968428 
L 365.664341 217.024453 
L 365.98932 219.244656 
L 366.3143 223.776492 
L 366.639279 220.710329 
L 366.964259 232.340591 
L 367.289238 219.169624 
L 367.614218 217.678715 
L 367.939197 214.570461 
L 368.264177 220.10534 
L 368.589156 214.459058 
L 368.914136 217.407946 
L 369.239115 222.141228 
L 369.564095 222.660262 
L 369.889075 220.692824 
L 370.214054 230.130525 
L 370.539034 224.300026 
L 370.864013 215.364478 
L 371.188993 228.326169 
L 371.513972 229.275962 
L 371.838952 223.923179 
L 372.163931 211.553011 
L 372.488911 216.42894 
L 372.81389 215.964404 
L 373.13887 224.694167 
L 373.463849 223.921795 
L 373.788829 227.55715 
L 374.113808 216.438553 
L 374.438788 219.70898 
L 374.763767 228.450837 
L 375.088747 222.825676 
L 375.413726 225.65598 
L 375.738706 222.161713 
L 376.063686 213.995196 
L 376.388665 223.115272 
L 376.713645 227.651272 
L 377.038624 213.393062 
L 377.363604 225.253236 
L 377.688583 214.349439 
L 378.013563 222.263478 
L 378.338542 217.638257 
L 378.663522 227.048615 
L 378.988501 219.645767 
L 379.313481 226.954705 
L 379.63846 217.842908 
L 379.96344 226.479821 
L 380.288419 218.431089 
L 380.613399 226.730367 
L 380.938378 228.446174 
L 381.263358 219.859395 
L 381.588337 220.770463 
L 381.913317 218.76178 
L 382.238296 227.469213 
L 382.563276 226.910331 
L 383.213235 231.443326 
L 383.538215 241.492312 
L 383.863194 234.07267 
L 384.188174 220.389027 
L 384.513153 248.011484 
L 384.838133 236.604376 
L 385.163112 240.581244 
L 385.488092 237.243514 
L 385.813071 235.08337 
L 386.138051 245.880004 
L 386.78801 231.034186 
L 387.112989 236.187817 
L 387.437969 230.253273 
L 388.087928 239.329636 
L 388.412907 241.458274 
L 388.737887 239.946744 
L 389.062867 245.914665 
L 389.387846 248.159923 
L 389.712826 244.012983 
L 390.037805 247.222766 
L 390.362785 262.323587 
L 390.687764 252.459671 
L 391.012744 254.163547 
L 391.337723 258.85564 
L 391.662703 257.762651 
L 391.987682 236.381583 
L 392.312662 239.48934 
L 392.637641 245.171916 
L 392.962621 260.283086 
L 393.61258 241.396519 
L 393.937559 247.418209 
L 394.262539 240.122107 
L 394.587518 262.662532 
L 395.237477 247.163019 
L 395.562457 255.137304 
L 395.887437 235.48276 
L 396.212416 254.291201 
L 396.537396 238.552713 
L 396.862375 246.83345 
L 397.187355 245.836328 
L 397.512334 252.027079 
L 397.837314 243.011448 
L 398.162293 251.941741 
L 398.487273 247.75198 
L 398.487273 247.75198 
" style="fill:none;stroke:#1f77b4;stroke-linecap:square;stroke-width:1.5;"/>
   </g>
   <g id="patch_3">
    <path d="M 57.6 307.584 
L 57.6 41.472 
" style="fill:none;stroke:#000000;stroke-linecap:square;stroke-linejoin:miter;stroke-width:0.8;"/>
   </g>
   <g id="patch_4">
    <path d="M 414.72 307.584 
L 414.72 41.472 
" style="fill:none;stroke:#000000;stroke-linecap:square;stroke-linejoin:miter;stroke-width:0.8;"/>
   </g>
   <g id="patch_5">
    <path d="M 57.6 307.584 
L 414.72 307.584 
" style="fill:none;stroke:#000000;stroke-linecap:square;stroke-linejoin:miter;stroke-width:0.8;"/>
   </g>
   <g id="patch_6">
    <path d="M 57.6 41.472 
L 414.72 41.472 
" style="fill:none;stroke:#000000;stroke-linecap:square;stroke-linejoin:miter;stroke-width:0.8;"/>
   </g>
   <g id="text_15">
    <!-- Training Loss -->
    <defs>
     <path d="M -0.296875 72.90625 
L 61.375 72.90625 
L 61.375 64.59375 
L 35.5 64.59375 
L 35.5 0 
L 25.59375 0 
L 25.59375 64.59375 
L -0.296875 64.59375 
z
" id="DejaVuSans-84"/>
     <path d="M 41.109375 46.296875 
Q 39.59375 47.171875 37.8125 47.578125 
Q 36.03125 48 33.890625 48 
Q 26.265625 48 22.1875 43.046875 
Q 18.109375 38.09375 18.109375 28.8125 
L 18.109375 0 
L 9.078125 0 
L 9.078125 54.6875 
L 18.109375 54.6875 
L 18.109375 46.1875 
Q 20.953125 51.171875 25.484375 53.578125 
Q 30.03125 56 36.53125 56 
Q 37.453125 56 38.578125 55.875 
Q 39.703125 55.765625 41.0625 55.515625 
z
" id="DejaVuSans-114"/>
     <path d="M 34.28125 27.484375 
Q 23.390625 27.484375 19.1875 25 
Q 14.984375 22.515625 14.984375 16.5 
Q 14.984375 11.71875 18.140625 8.90625 
Q 21.296875 6.109375 26.703125 6.109375 
Q 34.1875 6.109375 38.703125 11.40625 
Q 43.21875 16.703125 43.21875 25.484375 
L 43.21875 27.484375 
z
M 52.203125 31.203125 
L 52.203125 0 
L 43.21875 0 
L 43.21875 8.296875 
Q 40.140625 3.328125 35.546875 0.953125 
Q 30.953125 -1.421875 24.3125 -1.421875 
Q 15.921875 -1.421875 10.953125 3.296875 
Q 6 8.015625 6 15.921875 
Q 6 25.140625 12.171875 29.828125 
Q 18.359375 34.515625 30.609375 34.515625 
L 43.21875 34.515625 
L 43.21875 35.40625 
Q 43.21875 41.609375 39.140625 45 
Q 35.0625 48.390625 27.6875 48.390625 
Q 23 48.390625 18.546875 47.265625 
Q 14.109375 46.140625 10.015625 43.890625 
L 10.015625 52.203125 
Q 14.9375 54.109375 19.578125 55.046875 
Q 24.21875 56 28.609375 56 
Q 40.484375 56 46.34375 49.84375 
Q 52.203125 43.703125 52.203125 31.203125 
z
" id="DejaVuSans-97"/>
     <path d="M 9.421875 54.6875 
L 18.40625 54.6875 
L 18.40625 0 
L 9.421875 0 
z
M 9.421875 75.984375 
L 18.40625 75.984375 
L 18.40625 64.59375 
L 9.421875 64.59375 
z
" id="DejaVuSans-105"/>
     <path d="M 54.890625 33.015625 
L 54.890625 0 
L 45.90625 0 
L 45.90625 32.71875 
Q 45.90625 40.484375 42.875 44.328125 
Q 39.84375 48.1875 33.796875 48.1875 
Q 26.515625 48.1875 22.3125 43.546875 
Q 18.109375 38.921875 18.109375 30.90625 
L 18.109375 0 
L 9.078125 0 
L 9.078125 54.6875 
L 18.109375 54.6875 
L 18.109375 46.1875 
Q 21.34375 51.125 25.703125 53.5625 
Q 30.078125 56 35.796875 56 
Q 45.21875 56 50.046875 50.171875 
Q 54.890625 44.34375 54.890625 33.015625 
z
" id="DejaVuSans-110"/>
     <path d="M 45.40625 27.984375 
Q 45.40625 37.75 41.375 43.109375 
Q 37.359375 48.484375 30.078125 48.484375 
Q 22.859375 48.484375 18.828125 43.109375 
Q 14.796875 37.75 14.796875 27.984375 
Q 14.796875 18.265625 18.828125 12.890625 
Q 22.859375 7.515625 30.078125 7.515625 
Q 37.359375 7.515625 41.375 12.890625 
Q 45.40625 18.265625 45.40625 27.984375 
z
M 54.390625 6.78125 
Q 54.390625 -7.171875 48.1875 -13.984375 
Q 42 -20.796875 29.203125 -20.796875 
Q 24.46875 -20.796875 20.265625 -20.09375 
Q 16.0625 -19.390625 12.109375 -17.921875 
L 12.109375 -9.1875 
Q 16.0625 -11.328125 19.921875 -12.34375 
Q 23.78125 -13.375 27.78125 -13.375 
Q 36.625 -13.375 41.015625 -8.765625 
Q 45.40625 -4.15625 45.40625 5.171875 
L 45.40625 9.625 
Q 42.625 4.78125 38.28125 2.390625 
Q 33.9375 0 27.875 0 
Q 17.828125 0 11.671875 7.65625 
Q 5.515625 15.328125 5.515625 27.984375 
Q 5.515625 40.671875 11.671875 48.328125 
Q 17.828125 56 27.875 56 
Q 33.9375 56 38.28125 53.609375 
Q 42.625 51.21875 45.40625 46.390625 
L 45.40625 54.6875 
L 54.390625 54.6875 
z
" id="DejaVuSans-103"/>
     <path id="DejaVuSans-32"/>
    </defs>
    <g transform="translate(196.445625 35.472)scale(0.12 -0.12)">
     <use xlink:href="#DejaVuSans-84"/>
     <use x="60.865234" xlink:href="#DejaVuSans-114"/>
     <use x="101.978516" xlink:href="#DejaVuSans-97"/>
     <use x="163.257812" xlink:href="#DejaVuSans-105"/>
     <use x="191.041016" xlink:href="#DejaVuSans-110"/>
     <use x="254.419922" xlink:href="#DejaVuSans-105"/>
     <use x="282.203125" xlink:href="#DejaVuSans-110"/>
     <use x="345.582031" xlink:href="#DejaVuSans-103"/>
     <use x="409.058594" xlink:href="#DejaVuSans-32"/>
     <use x="440.845703" xlink:href="#DejaVuSans-76"/>
     <use x="496.542969" xlink:href="#DejaVuSans-111"/>
     <use x="557.724609" xlink:href="#DejaVuSans-115"/>
     <use x="609.824219" xlink:href="#DejaVuSans-115"/>
    </g>
   </g>
  </g>
 </g>
 <defs>
  <clipPath id="pcad6019cff">
   <rect height="266.112" width="357.12" x="57.6" y="41.472"/>
  </clipPath>
 </defs>
</svg>
