<?xml version="1.0" encoding="utf-8" standalone="no"?>
<!DOCTYPE svg PUBLIC "-//W3C//DTD SVG 1.1//EN"
  "http://www.w3.org/Graphics/SVG/1.1/DTD/svg11.dtd">
<!-- Created with matplotlib (https://matplotlib.org/) -->
<svg height="345.6pt" version="1.1" viewBox="0 0 460.8 345.6" width="460.8pt" xmlns="http://www.w3.org/2000/svg" xmlns:xlink="http://www.w3.org/1999/xlink">
 <defs>
  <style type="text/css">
*{stroke-linecap:butt;stroke-linejoin:round;}
  </style>
 </defs>
 <g id="figure_1">
  <g id="patch_1">
   <path d="M 0 345.6 
L 460.8 345.6 
L 460.8 0 
L 0 0 
z
" style="fill:#ffffff;"/>
  </g>
  <g id="axes_1">
   <g id="patch_2">
    <path d="M 57.6 307.584 
L 414.72 307.584 
L 414.72 41.472 
L 57.6 41.472 
z
" style="fill:#ffffff;"/>
   </g>
   <g id="matplotlib.axis_1">
    <g id="xtick_1">
     <g id="line2d_1">
      <defs>
       <path d="M 0 0 
L 0 3.5 
" id="mbabad0e70b" style="stroke:#000000;stroke-width:0.8;"/>
      </defs>
      <g>
       <use style="stroke:#000000;stroke-width:0.8;" x="73.832727" xlink:href="#mbabad0e70b" y="307.584"/>
      </g>
     </g>
     <g id="text_1">
      <!-- 0 -->
      <defs>
       <path d="M 31.78125 66.40625 
Q 24.171875 66.40625 20.328125 58.90625 
Q 16.5 51.421875 16.5 36.375 
Q 16.5 21.390625 20.328125 13.890625 
Q 24.171875 6.390625 31.78125 6.390625 
Q 39.453125 6.390625 43.28125 13.890625 
Q 47.125 21.390625 47.125 36.375 
Q 47.125 51.421875 43.28125 58.90625 
Q 39.453125 66.40625 31.78125 66.40625 
z
M 31.78125 74.21875 
Q 44.046875 74.21875 50.515625 64.515625 
Q 56.984375 54.828125 56.984375 36.375 
Q 56.984375 17.96875 50.515625 8.265625 
Q 44.046875 -1.421875 31.78125 -1.421875 
Q 19.53125 -1.421875 13.0625 8.265625 
Q 6.59375 17.96875 6.59375 36.375 
Q 6.59375 54.828125 13.0625 64.515625 
Q 19.53125 74.21875 31.78125 74.21875 
z
" id="DejaVuSans-48"/>
      </defs>
      <g transform="translate(70.651477 322.182437)scale(0.1 -0.1)">
       <use xlink:href="#DejaVuSans-48"/>
      </g>
     </g>
    </g>
    <g id="xtick_2">
     <g id="line2d_2">
      <g>
       <use style="stroke:#000000;stroke-width:0.8;" x="138.828632" xlink:href="#mbabad0e70b" y="307.584"/>
      </g>
     </g>
     <g id="text_2">
      <!-- 200 -->
      <defs>
       <path d="M 19.1875 8.296875 
L 53.609375 8.296875 
L 53.609375 0 
L 7.328125 0 
L 7.328125 8.296875 
Q 12.9375 14.109375 22.625 23.890625 
Q 32.328125 33.6875 34.8125 36.53125 
Q 39.546875 41.84375 41.421875 45.53125 
Q 43.3125 49.21875 43.3125 52.78125 
Q 43.3125 58.59375 39.234375 62.25 
Q 35.15625 65.921875 28.609375 65.921875 
Q 23.96875 65.921875 18.8125 64.3125 
Q 13.671875 62.703125 7.8125 59.421875 
L 7.8125 69.390625 
Q 13.765625 71.78125 18.9375 73 
Q 24.125 74.21875 28.421875 74.21875 
Q 39.75 74.21875 46.484375 68.546875 
Q 53.21875 62.890625 53.21875 53.421875 
Q 53.21875 48.921875 51.53125 44.890625 
Q 49.859375 40.875 45.40625 35.40625 
Q 44.1875 33.984375 37.640625 27.21875 
Q 31.109375 20.453125 19.1875 8.296875 
z
" id="DejaVuSans-50"/>
      </defs>
      <g transform="translate(129.284882 322.182437)scale(0.1 -0.1)">
       <use xlink:href="#DejaVuSans-50"/>
       <use x="63.623047" xlink:href="#DejaVuSans-48"/>
       <use x="127.246094" xlink:href="#DejaVuSans-48"/>
      </g>
     </g>
    </g>
    <g id="xtick_3">
     <g id="line2d_3">
      <g>
       <use style="stroke:#000000;stroke-width:0.8;" x="203.824537" xlink:href="#mbabad0e70b" y="307.584"/>
      </g>
     </g>
     <g id="text_3">
      <!-- 400 -->
      <defs>
       <path d="M 37.796875 64.3125 
L 12.890625 25.390625 
L 37.796875 25.390625 
z
M 35.203125 72.90625 
L 47.609375 72.90625 
L 47.609375 25.390625 
L 58.015625 25.390625 
L 58.015625 17.1875 
L 47.609375 17.1875 
L 47.609375 0 
L 37.796875 0 
L 37.796875 17.1875 
L 4.890625 17.1875 
L 4.890625 26.703125 
z
" id="DejaVuSans-52"/>
      </defs>
      <g transform="translate(194.280787 322.182437)scale(0.1 -0.1)">
       <use xlink:href="#DejaVuSans-52"/>
       <use x="63.623047" xlink:href="#DejaVuSans-48"/>
       <use x="127.246094" xlink:href="#DejaVuSans-48"/>
      </g>
     </g>
    </g>
    <g id="xtick_4">
     <g id="line2d_4">
      <g>
       <use style="stroke:#000000;stroke-width:0.8;" x="268.820442" xlink:href="#mbabad0e70b" y="307.584"/>
      </g>
     </g>
     <g id="text_4">
      <!-- 600 -->
      <defs>
       <path d="M 33.015625 40.375 
Q 26.375 40.375 22.484375 35.828125 
Q 18.609375 31.296875 18.609375 23.390625 
Q 18.609375 15.53125 22.484375 10.953125 
Q 26.375 6.390625 33.015625 6.390625 
Q 39.65625 6.390625 43.53125 10.953125 
Q 47.40625 15.53125 47.40625 23.390625 
Q 47.40625 31.296875 43.53125 35.828125 
Q 39.65625 40.375 33.015625 40.375 
z
M 52.59375 71.296875 
L 52.59375 62.3125 
Q 48.875 64.0625 45.09375 64.984375 
Q 41.3125 65.921875 37.59375 65.921875 
Q 27.828125 65.921875 22.671875 59.328125 
Q 17.53125 52.734375 16.796875 39.40625 
Q 19.671875 43.65625 24.015625 45.921875 
Q 28.375 48.1875 33.59375 48.1875 
Q 44.578125 48.1875 50.953125 41.515625 
Q 57.328125 34.859375 57.328125 23.390625 
Q 57.328125 12.15625 50.6875 5.359375 
Q 44.046875 -1.421875 33.015625 -1.421875 
Q 20.359375 -1.421875 13.671875 8.265625 
Q 6.984375 17.96875 6.984375 36.375 
Q 6.984375 53.65625 15.1875 63.9375 
Q 23.390625 74.21875 37.203125 74.21875 
Q 40.921875 74.21875 44.703125 73.484375 
Q 48.484375 72.75 52.59375 71.296875 
z
" id="DejaVuSans-54"/>
      </defs>
      <g transform="translate(259.276692 322.182437)scale(0.1 -0.1)">
       <use xlink:href="#DejaVuSans-54"/>
       <use x="63.623047" xlink:href="#DejaVuSans-48"/>
       <use x="127.246094" xlink:href="#DejaVuSans-48"/>
      </g>
     </g>
    </g>
    <g id="xtick_5">
     <g id="line2d_5">
      <g>
       <use style="stroke:#000000;stroke-width:0.8;" x="333.816347" xlink:href="#mbabad0e70b" y="307.584"/>
      </g>
     </g>
     <g id="text_5">
      <!-- 800 -->
      <defs>
       <path d="M 31.78125 34.625 
Q 24.75 34.625 20.71875 30.859375 
Q 16.703125 27.09375 16.703125 20.515625 
Q 16.703125 13.921875 20.71875 10.15625 
Q 24.75 6.390625 31.78125 6.390625 
Q 38.8125 6.390625 42.859375 10.171875 
Q 46.921875 13.96875 46.921875 20.515625 
Q 46.921875 27.09375 42.890625 30.859375 
Q 38.875 34.625 31.78125 34.625 
z
M 21.921875 38.8125 
Q 15.578125 40.375 12.03125 44.71875 
Q 8.5 49.078125 8.5 55.328125 
Q 8.5 64.0625 14.71875 69.140625 
Q 20.953125 74.21875 31.78125 74.21875 
Q 42.671875 74.21875 48.875 69.140625 
Q 55.078125 64.0625 55.078125 55.328125 
Q 55.078125 49.078125 51.53125 44.71875 
Q 48 40.375 41.703125 38.8125 
Q 48.828125 37.15625 52.796875 32.3125 
Q 56.78125 27.484375 56.78125 20.515625 
Q 56.78125 9.90625 50.3125 4.234375 
Q 43.84375 -1.421875 31.78125 -1.421875 
Q 19.734375 -1.421875 13.25 4.234375 
Q 6.78125 9.90625 6.78125 20.515625 
Q 6.78125 27.484375 10.78125 32.3125 
Q 14.796875 37.15625 21.921875 38.8125 
z
M 18.3125 54.390625 
Q 18.3125 48.734375 21.84375 45.5625 
Q 25.390625 42.390625 31.78125 42.390625 
Q 38.140625 42.390625 41.71875 45.5625 
Q 45.3125 48.734375 45.3125 54.390625 
Q 45.3125 60.0625 41.71875 63.234375 
Q 38.140625 66.40625 31.78125 66.40625 
Q 25.390625 66.40625 21.84375 63.234375 
Q 18.3125 60.0625 18.3125 54.390625 
z
" id="DejaVuSans-56"/>
      </defs>
      <g transform="translate(324.272597 322.182437)scale(0.1 -0.1)">
       <use xlink:href="#DejaVuSans-56"/>
       <use x="63.623047" xlink:href="#DejaVuSans-48"/>
       <use x="127.246094" xlink:href="#DejaVuSans-48"/>
      </g>
     </g>
    </g>
    <g id="xtick_6">
     <g id="line2d_6">
      <g>
       <use style="stroke:#000000;stroke-width:0.8;" x="398.812252" xlink:href="#mbabad0e70b" y="307.584"/>
      </g>
     </g>
     <g id="text_6">
      <!-- 1000 -->
      <defs>
       <path d="M 12.40625 8.296875 
L 28.515625 8.296875 
L 28.515625 63.921875 
L 10.984375 60.40625 
L 10.984375 69.390625 
L 28.421875 72.90625 
L 38.28125 72.90625 
L 38.28125 8.296875 
L 54.390625 8.296875 
L 54.390625 0 
L 12.40625 0 
z
" id="DejaVuSans-49"/>
      </defs>
      <g transform="translate(386.087252 322.182437)scale(0.1 -0.1)">
       <use xlink:href="#DejaVuSans-49"/>
       <use x="63.623047" xlink:href="#DejaVuSans-48"/>
       <use x="127.246094" xlink:href="#DejaVuSans-48"/>
       <use x="190.869141" xlink:href="#DejaVuSans-48"/>
      </g>
     </g>
    </g>
    <g id="text_7">
     <!-- Epoch -->
     <defs>
      <path d="M 9.8125 72.90625 
L 55.90625 72.90625 
L 55.90625 64.59375 
L 19.671875 64.59375 
L 19.671875 43.015625 
L 54.390625 43.015625 
L 54.390625 34.71875 
L 19.671875 34.71875 
L 19.671875 8.296875 
L 56.78125 8.296875 
L 56.78125 0 
L 9.8125 0 
z
" id="DejaVuSans-69"/>
      <path d="M 18.109375 8.203125 
L 18.109375 -20.796875 
L 9.078125 -20.796875 
L 9.078125 54.6875 
L 18.109375 54.6875 
L 18.109375 46.390625 
Q 20.953125 51.265625 25.265625 53.625 
Q 29.59375 56 35.59375 56 
Q 45.5625 56 51.78125 48.09375 
Q 58.015625 40.1875 58.015625 27.296875 
Q 58.015625 14.40625 51.78125 6.484375 
Q 45.5625 -1.421875 35.59375 -1.421875 
Q 29.59375 -1.421875 25.265625 0.953125 
Q 20.953125 3.328125 18.109375 8.203125 
z
M 48.6875 27.296875 
Q 48.6875 37.203125 44.609375 42.84375 
Q 40.53125 48.484375 33.40625 48.484375 
Q 26.265625 48.484375 22.1875 42.84375 
Q 18.109375 37.203125 18.109375 27.296875 
Q 18.109375 17.390625 22.1875 11.75 
Q 26.265625 6.109375 33.40625 6.109375 
Q 40.53125 6.109375 44.609375 11.75 
Q 48.6875 17.390625 48.6875 27.296875 
z
" id="DejaVuSans-112"/>
      <path d="M 30.609375 48.390625 
Q 23.390625 48.390625 19.1875 42.75 
Q 14.984375 37.109375 14.984375 27.296875 
Q 14.984375 17.484375 19.15625 11.84375 
Q 23.34375 6.203125 30.609375 6.203125 
Q 37.796875 6.203125 41.984375 11.859375 
Q 46.1875 17.53125 46.1875 27.296875 
Q 46.1875 37.015625 41.984375 42.703125 
Q 37.796875 48.390625 30.609375 48.390625 
z
M 30.609375 56 
Q 42.328125 56 49.015625 48.375 
Q 55.71875 40.765625 55.71875 27.296875 
Q 55.71875 13.875 49.015625 6.21875 
Q 42.328125 -1.421875 30.609375 -1.421875 
Q 18.84375 -1.421875 12.171875 6.21875 
Q 5.515625 13.875 5.515625 27.296875 
Q 5.515625 40.765625 12.171875 48.375 
Q 18.84375 56 30.609375 56 
z
" id="DejaVuSans-111"/>
      <path d="M 48.78125 52.59375 
L 48.78125 44.1875 
Q 44.96875 46.296875 41.140625 47.34375 
Q 37.3125 48.390625 33.40625 48.390625 
Q 24.65625 48.390625 19.8125 42.84375 
Q 14.984375 37.3125 14.984375 27.296875 
Q 14.984375 17.28125 19.8125 11.734375 
Q 24.65625 6.203125 33.40625 6.203125 
Q 37.3125 6.203125 41.140625 7.25 
Q 44.96875 8.296875 48.78125 10.40625 
L 48.78125 2.09375 
Q 45.015625 0.34375 40.984375 -0.53125 
Q 36.96875 -1.421875 32.421875 -1.421875 
Q 20.0625 -1.421875 12.78125 6.34375 
Q 5.515625 14.109375 5.515625 27.296875 
Q 5.515625 40.671875 12.859375 48.328125 
Q 20.21875 56 33.015625 56 
Q 37.15625 56 41.109375 55.140625 
Q 45.0625 54.296875 48.78125 52.59375 
z
" id="DejaVuSans-99"/>
      <path d="M 54.890625 33.015625 
L 54.890625 0 
L 45.90625 0 
L 45.90625 32.71875 
Q 45.90625 40.484375 42.875 44.328125 
Q 39.84375 48.1875 33.796875 48.1875 
Q 26.515625 48.1875 22.3125 43.546875 
Q 18.109375 38.921875 18.109375 30.90625 
L 18.109375 0 
L 9.078125 0 
L 9.078125 75.984375 
L 18.109375 75.984375 
L 18.109375 46.1875 
Q 21.34375 51.125 25.703125 53.5625 
Q 30.078125 56 35.796875 56 
Q 45.21875 56 50.046875 50.171875 
Q 54.890625 44.34375 54.890625 33.015625 
z
" id="DejaVuSans-104"/>
     </defs>
     <g transform="translate(220.849063 335.860562)scale(0.1 -0.1)">
      <use xlink:href="#DejaVuSans-69"/>
      <use x="63.183594" xlink:href="#DejaVuSans-112"/>
      <use x="126.660156" xlink:href="#DejaVuSans-111"/>
      <use x="187.841797" xlink:href="#DejaVuSans-99"/>
      <use x="242.822266" xlink:href="#DejaVuSans-104"/>
     </g>
    </g>
   </g>
   <g id="matplotlib.axis_2">
    <g id="ytick_1">
     <g id="line2d_7">
      <defs>
       <path d="M 0 0 
L -3.5 0 
" id="m44289905f5" style="stroke:#000000;stroke-width:0.8;"/>
      </defs>
      <g>
       <use style="stroke:#000000;stroke-width:0.8;" x="57.6" xlink:href="#m44289905f5" y="296.314104"/>
      </g>
     </g>
     <g id="text_8">
      <!-- 0.0 -->
      <defs>
       <path d="M 10.6875 12.40625 
L 21 12.40625 
L 21 0 
L 10.6875 0 
z
" id="DejaVuSans-46"/>
      </defs>
      <g transform="translate(34.696875 300.113323)scale(0.1 -0.1)">
       <use xlink:href="#DejaVuSans-48"/>
       <use x="63.623047" xlink:href="#DejaVuSans-46"/>
       <use x="95.410156" xlink:href="#DejaVuSans-48"/>
      </g>
     </g>
    </g>
    <g id="ytick_2">
     <g id="line2d_8">
      <g>
       <use style="stroke:#000000;stroke-width:0.8;" x="57.6" xlink:href="#m44289905f5" y="263.33637"/>
      </g>
     </g>
     <g id="text_9">
      <!-- 0.2 -->
      <g transform="translate(34.696875 267.135588)scale(0.1 -0.1)">
       <use xlink:href="#DejaVuSans-48"/>
       <use x="63.623047" xlink:href="#DejaVuSans-46"/>
       <use x="95.410156" xlink:href="#DejaVuSans-50"/>
      </g>
     </g>
    </g>
    <g id="ytick_3">
     <g id="line2d_9">
      <g>
       <use style="stroke:#000000;stroke-width:0.8;" x="57.6" xlink:href="#m44289905f5" y="230.358635"/>
      </g>
     </g>
     <g id="text_10">
      <!-- 0.4 -->
      <g transform="translate(34.696875 234.157854)scale(0.1 -0.1)">
       <use xlink:href="#DejaVuSans-48"/>
       <use x="63.623047" xlink:href="#DejaVuSans-46"/>
       <use x="95.410156" xlink:href="#DejaVuSans-52"/>
      </g>
     </g>
    </g>
    <g id="ytick_4">
     <g id="line2d_10">
      <g>
       <use style="stroke:#000000;stroke-width:0.8;" x="57.6" xlink:href="#m44289905f5" y="197.3809"/>
      </g>
     </g>
     <g id="text_11">
      <!-- 0.6 -->
      <g transform="translate(34.696875 201.180119)scale(0.1 -0.1)">
       <use xlink:href="#DejaVuSans-48"/>
       <use x="63.623047" xlink:href="#DejaVuSans-46"/>
       <use x="95.410156" xlink:href="#DejaVuSans-54"/>
      </g>
     </g>
    </g>
    <g id="ytick_5">
     <g id="line2d_11">
      <g>
       <use style="stroke:#000000;stroke-width:0.8;" x="57.6" xlink:href="#m44289905f5" y="164.403165"/>
      </g>
     </g>
     <g id="text_12">
      <!-- 0.8 -->
      <g transform="translate(34.696875 168.202384)scale(0.1 -0.1)">
       <use xlink:href="#DejaVuSans-48"/>
       <use x="63.623047" xlink:href="#DejaVuSans-46"/>
       <use x="95.410156" xlink:href="#DejaVuSans-56"/>
      </g>
     </g>
    </g>
    <g id="ytick_6">
     <g id="line2d_12">
      <g>
       <use style="stroke:#000000;stroke-width:0.8;" x="57.6" xlink:href="#m44289905f5" y="131.42543"/>
      </g>
     </g>
     <g id="text_13">
      <!-- 1.0 -->
      <g transform="translate(34.696875 135.224649)scale(0.1 -0.1)">
       <use xlink:href="#DejaVuSans-49"/>
       <use x="63.623047" xlink:href="#DejaVuSans-46"/>
       <use x="95.410156" xlink:href="#DejaVuSans-48"/>
      </g>
     </g>
    </g>
    <g id="ytick_7">
     <g id="line2d_13">
      <g>
       <use style="stroke:#000000;stroke-width:0.8;" x="57.6" xlink:href="#m44289905f5" y="98.447696"/>
      </g>
     </g>
     <g id="text_14">
      <!-- 1.2 -->
      <g transform="translate(34.696875 102.246914)scale(0.1 -0.1)">
       <use xlink:href="#DejaVuSans-49"/>
       <use x="63.623047" xlink:href="#DejaVuSans-46"/>
       <use x="95.410156" xlink:href="#DejaVuSans-50"/>
      </g>
     </g>
    </g>
    <g id="ytick_8">
     <g id="line2d_14">
      <g>
       <use style="stroke:#000000;stroke-width:0.8;" x="57.6" xlink:href="#m44289905f5" y="65.469961"/>
      </g>
     </g>
     <g id="text_15">
      <!-- 1.4 -->
      <g transform="translate(34.696875 69.26918)scale(0.1 -0.1)">
       <use xlink:href="#DejaVuSans-49"/>
       <use x="63.623047" xlink:href="#DejaVuSans-46"/>
       <use x="95.410156" xlink:href="#DejaVuSans-52"/>
      </g>
     </g>
    </g>
    <g id="text_16">
     <!-- Loss -->
     <defs>
      <path d="M 9.8125 72.90625 
L 19.671875 72.90625 
L 19.671875 8.296875 
L 55.171875 8.296875 
L 55.171875 0 
L 9.8125 0 
z
" id="DejaVuSans-76"/>
      <path d="M 44.28125 53.078125 
L 44.28125 44.578125 
Q 40.484375 46.53125 36.375 47.5 
Q 32.28125 48.484375 27.875 48.484375 
Q 21.1875 48.484375 17.84375 46.4375 
Q 14.5 44.390625 14.5 40.28125 
Q 14.5 37.15625 16.890625 35.375 
Q 19.28125 33.59375 26.515625 31.984375 
L 29.59375 31.296875 
Q 39.15625 29.25 43.1875 25.515625 
Q 47.21875 21.78125 47.21875 15.09375 
Q 47.21875 7.46875 41.1875 3.015625 
Q 35.15625 -1.421875 24.609375 -1.421875 
Q 20.21875 -1.421875 15.453125 -0.5625 
Q 10.6875 0.296875 5.421875 2 
L 5.421875 11.28125 
Q 10.40625 8.6875 15.234375 7.390625 
Q 20.0625 6.109375 24.8125 6.109375 
Q 31.15625 6.109375 34.5625 8.28125 
Q 37.984375 10.453125 37.984375 14.40625 
Q 37.984375 18.0625 35.515625 20.015625 
Q 33.0625 21.96875 24.703125 23.78125 
L 21.578125 24.515625 
Q 13.234375 26.265625 9.515625 29.90625 
Q 5.8125 33.546875 5.8125 39.890625 
Q 5.8125 47.609375 11.28125 51.796875 
Q 16.75 56 26.8125 56 
Q 31.78125 56 36.171875 55.265625 
Q 40.578125 54.546875 44.28125 53.078125 
z
" id="DejaVuSans-115"/>
     </defs>
     <g transform="translate(28.617188 185.581906)rotate(-90)scale(0.1 -0.1)">
      <use xlink:href="#DejaVuSans-76"/>
      <use x="55.697266" xlink:href="#DejaVuSans-111"/>
      <use x="116.878906" xlink:href="#DejaVuSans-115"/>
      <use x="168.978516" xlink:href="#DejaVuSans-115"/>
     </g>
    </g>
   </g>
   <g id="line2d_15">
    <path clip-path="url(#pc58fc98190)" d="M 73.832727 53.568 
L 74.482686 58.428109 
L 75.132645 67.453065 
L 75.457625 73.92145 
L 77.732482 152.493778 
L 78.057461 159.080533 
L 78.382441 171.691892 
L 78.70742 178.999746 
L 79.0324 180.068437 
L 79.357379 197.427187 
L 80.657297 222.274377 
L 80.982277 224.21105 
L 81.957215 239.240674 
L 82.282195 242.718388 
L 82.607174 249.540143 
L 82.932154 247.810519 
L 83.257133 256.607815 
L 83.907093 265.271671 
L 84.232072 265.703465 
L 84.557052 269.355276 
L 84.882031 270.804611 
L 85.207011 275.708224 
L 85.53199 278.140462 
L 85.85697 279.222662 
L 86.506929 283.654865 
L 86.831908 284.570821 
L 87.156888 286.220024 
L 87.481867 286.669535 
L 87.806847 288.107353 
L 88.456806 289.055742 
L 88.781785 289.679407 
L 89.106765 289.78092 
L 89.756724 290.818509 
L 90.406683 291.333089 
L 91.056642 292.088673 
L 91.381622 291.832008 
L 91.706601 292.15968 
L 92.031581 292.258194 
L 92.68154 293.089236 
L 93.006519 291.807149 
L 93.331499 292.67828 
L 93.656478 292.488065 
L 93.981458 291.842173 
L 94.631417 292.263024 
L 95.281376 292.7268 
L 95.606355 293.114502 
L 96.256314 293.313074 
L 96.581294 293.50343 
L 96.906274 290.375185 
L 97.231253 293.324768 
L 97.556233 293.151891 
L 97.881212 292.810097 
L 98.206192 291.472708 
L 98.531171 292.502207 
L 99.18113 293.284312 
L 99.831089 293.181366 
L 100.806028 293.574455 
L 101.131007 293.498193 
L 101.455987 293.576696 
L 102.105946 293.581681 
L 102.755905 293.839969 
L 103.080885 293.564604 
L 103.730844 293.848736 
L 104.055823 293.76117 
L 104.705782 293.971094 
L 105.355741 294.033349 
L 106.0057 294.15516 
L 106.33068 293.943096 
L 106.655659 293.941582 
L 106.980639 294.239206 
L 109.905455 294.488124 
L 110.230434 294.244229 
L 110.555414 294.397568 
L 110.880393 294.343891 
L 111.205373 294.492734 
L 111.530352 294.274409 
L 111.855332 294.565212 
L 112.505291 294.491858 
L 112.83027 294.365056 
L 113.15525 294.56691 
L 113.805209 294.366428 
L 114.130188 294.511756 
L 116.405045 294.516876 
L 116.730025 294.664975 
L 117.055004 294.567166 
L 117.379984 294.679991 
L 118.029943 294.425483 
L 118.354922 294.626646 
L 118.679902 294.509179 
L 119.004881 294.709172 
L 119.329861 294.469884 
L 119.65484 294.444346 
L 119.97982 293.779683 
L 120.954758 293.511809 
L 121.279738 293.623256 
L 121.929697 294.10071 
L 122.579656 293.99147 
L 122.904636 293.902223 
L 123.879574 294.401625 
L 124.529533 294.231829 
L 125.179492 294.422491 
L 125.504472 294.09699 
L 125.829451 294.526743 
L 126.154431 294.516168 
L 126.47941 294.652033 
L 126.80439 294.596482 
L 127.129369 294.234467 
L 127.454349 294.485231 
L 127.779328 294.265777 
L 128.429287 294.645205 
L 128.754267 294.520202 
L 129.079247 294.712108 
L 129.404226 294.390588 
L 129.729206 294.59915 
L 130.054185 294.527935 
L 130.379165 294.611504 
L 130.704144 294.526632 
L 131.354103 294.729263 
L 131.679083 294.655924 
L 132.004062 294.774544 
L 132.329042 294.542051 
L 132.654021 294.730844 
L 132.979001 294.582472 
L 133.62896 294.820148 
L 133.953939 294.682172 
L 134.278919 294.879809 
L 134.603898 294.687827 
L 134.928878 294.99394 
L 135.253857 294.706617 
L 135.578837 294.768027 
L 135.903817 294.970109 
L 136.228796 294.654978 
L 136.553776 294.878632 
L 137.528714 294.892564 
L 137.853694 294.604269 
L 138.178673 294.950412 
L 138.503653 294.730865 
L 138.828632 294.95299 
L 139.478591 294.84394 
L 139.803571 294.919592 
L 140.12855 294.601732 
L 140.778509 294.795342 
L 141.103489 294.800974 
L 141.428468 294.92099 
L 142.078428 294.731935 
L 142.403407 294.869554 
L 142.728387 294.788735 
L 143.053366 294.955687 
L 143.378346 294.722669 
L 143.703325 294.815163 
L 144.028305 294.713039 
L 144.353284 295.002482 
L 145.003243 294.77014 
L 145.978182 294.839567 
L 146.303161 294.719481 
L 146.628141 295.007244 
L 146.95312 294.594602 
L 147.2781 295.040245 
L 147.603079 294.984603 
L 147.928059 295.071543 
L 148.253038 294.876484 
L 148.578018 295.080856 
L 149.227977 294.773535 
L 149.877936 295.009667 
L 150.202916 294.883724 
L 150.527895 295.126194 
L 150.852875 294.875186 
L 151.502834 295.001696 
L 152.477772 294.996669 
L 152.802752 294.823884 
L 153.127731 295.063547 
L 153.452711 294.943075 
L 153.77769 294.589003 
L 154.427649 294.529085 
L 155.077609 294.662173 
L 155.402588 294.892221 
L 155.727568 294.374325 
L 156.052547 294.928556 
L 156.377527 294.453648 
L 157.027486 294.910278 
L 157.352465 294.71562 
L 157.677445 294.679957 
L 158.327404 294.993901 
L 158.977363 294.998271 
L 159.302342 294.643653 
L 159.627322 295.002408 
L 159.952301 294.828626 
L 160.60226 294.955358 
L 160.92724 294.793181 
L 161.252219 295.056577 
L 161.577199 294.882444 
L 161.902179 295.031598 
L 167.42683 294.990486 
L 167.75181 295.143244 
L 168.07679 294.822227 
L 168.401769 295.063308 
L 168.726749 295.112424 
L 169.051728 294.987071 
L 169.376708 295.103312 
L 169.701687 294.992858 
L 170.351646 295.157605 
L 170.676626 294.836078 
L 171.326585 295.009737 
L 171.651564 295.010803 
L 171.976544 295.186605 
L 172.626503 294.993221 
L 172.951482 295.095979 
L 173.276462 295.03509 
L 173.601441 295.18498 
L 173.926421 295.135727 
L 174.57638 294.747991 
L 174.90136 294.366343 
L 175.226339 294.332438 
L 175.551319 294.73411 
L 175.876298 294.545871 
L 176.201278 294.988629 
L 176.526257 294.75815 
L 177.176216 294.772008 
L 177.501196 294.773243 
L 178.151155 295.067882 
L 178.476134 294.847926 
L 178.801114 295.103867 
L 179.126093 294.971148 
L 180.101032 295.08548 
L 180.426011 294.913695 
L 180.750991 295.088364 
L 181.075971 294.756992 
L 183.025848 295.153915 
L 183.350827 295.154069 
L 183.675807 294.952553 
L 184.325766 295.073155 
L 185.300704 294.91153 
L 185.625684 294.934929 
L 185.950663 294.803502 
L 186.275643 294.989007 
L 187.900541 294.864114 
L 188.22552 295.025682 
L 188.5505 294.861823 
L 188.875479 295.02625 
L 189.200459 294.888171 
L 189.525438 295.108367 
L 189.850418 294.875925 
L 190.500377 295.204871 
L 191.150336 294.978178 
L 192.775233 295.059495 
L 193.100213 294.946757 
L 193.750172 295.304088 
L 194.075152 295.085079 
L 195.37507 295.102954 
L 196.025029 295.227471 
L 196.674988 295.164952 
L 196.999967 295.245926 
L 197.974906 295.133726 
L 198.299885 295.222248 
L 198.949844 294.96547 
L 199.599803 295.16193 
L 199.924783 294.992957 
L 200.249762 295.322982 
L 200.899722 295.026459 
L 201.549681 295.124857 
L 201.87466 295.258311 
L 202.19964 295.028339 
L 204.149517 295.2535 
L 204.474496 295.003442 
L 204.799476 294.894148 
L 205.124455 295.052694 
L 206.424373 295.076675 
L 208.374251 295.247301 
L 208.69923 295.09686 
L 209.02421 295.08291 
L 209.674169 295.268791 
L 209.999148 295.169864 
L 210.324128 295.292193 
L 211.949025 294.932755 
L 212.274005 295.303671 
L 212.598984 295.167311 
L 212.923964 295.285939 
L 213.248943 295.15162 
L 213.573923 295.245578 
L 213.898903 295.139274 
L 214.223882 295.301307 
L 216.823718 295.027574 
L 217.148698 294.924119 
L 219.098575 295.212956 
L 219.423554 295.006688 
L 219.748534 295.151324 
L 220.398493 295.1494 
L 220.723473 295.326615 
L 221.048452 294.876621 
L 221.373432 294.137205 
L 221.698411 292.842968 
L 222.67335 293.786465 
L 222.998329 293.602393 
L 223.323309 293.812776 
L 223.648288 293.619271 
L 224.298247 294.046636 
L 224.623227 293.928776 
L 225.273186 294.207772 
L 225.923145 294.121855 
L 226.248124 294.342283 
L 226.573104 294.30908 
L 227.548043 294.619599 
L 228.198002 294.599967 
L 228.522981 294.732397 
L 228.847961 294.731915 
L 229.17294 294.514818 
L 229.49792 294.81838 
L 229.822899 294.727251 
L 230.147879 294.873187 
L 230.472858 294.672507 
L 230.797838 294.646052 
L 231.122817 294.914092 
L 231.447797 294.740155 
L 231.772776 294.911688 
L 232.097756 294.842551 
L 233.072695 294.89671 
L 235.347551 295.148623 
L 235.672531 294.954812 
L 235.99751 294.942274 
L 236.32249 295.24448 
L 237.297428 295.060547 
L 237.947387 295.185193 
L 238.272367 295.209643 
L 238.597346 295.001796 
L 238.922326 292.448332 
L 239.247305 294.104672 
L 239.572285 286.293987 
L 239.897265 293.575187 
L 240.222244 293.173643 
L 240.547224 291.56037 
L 240.872203 292.412691 
L 241.197183 289.156277 
L 241.522162 292.073087 
L 241.847142 291.667252 
L 242.497101 292.051845 
L 243.14706 293.060039 
L 243.472039 293.386604 
L 244.121998 293.698105 
L 244.446978 293.245614 
L 244.771957 293.256832 
L 245.096937 293.769638 
L 245.421916 293.177452 
L 246.071876 293.719911 
L 246.396855 293.471836 
L 247.046814 293.766164 
L 247.371794 293.541798 
L 248.021753 293.958783 
L 248.671712 293.682828 
L 248.996691 293.990218 
L 249.321671 294.010761 
L 249.64665 294.185611 
L 249.97163 294.090324 
L 250.621589 294.298068 
L 250.946568 294.152207 
L 251.271548 294.399877 
L 251.596527 294.268113 
L 251.921507 294.327459 
L 252.246486 294.51507 
L 252.896446 294.185798 
L 253.546405 294.405422 
L 253.871384 294.265564 
L 254.521343 294.650434 
L 255.171302 294.653782 
L 255.496282 294.863063 
L 255.821261 294.562095 
L 256.47122 294.692547 
L 256.7962 294.775545 
L 257.121179 294.591255 
L 257.771138 294.877248 
L 258.096118 294.97242 
L 258.746077 294.670241 
L 259.721016 294.857717 
L 260.045995 294.7485 
L 260.695954 295.027654 
L 261.020934 294.30906 
L 261.345913 294.723947 
L 261.670893 294.777901 
L 261.995872 294.53878 
L 262.970811 294.609011 
L 263.62077 294.936252 
L 263.945749 294.588221 
L 264.270729 294.628822 
L 264.595708 294.869733 
L 264.920688 294.76015 
L 265.570647 294.942919 
L 265.895627 294.702718 
L 266.545586 295.019582 
L 267.195545 294.823125 
L 267.520524 295.009267 
L 267.845504 294.75518 
L 268.170483 294.977565 
L 268.820442 295.049202 
L 269.145422 294.893823 
L 269.470401 295.109198 
L 270.770319 294.958283 
L 271.095299 294.818472 
L 271.420278 295.069528 
L 272.720197 294.831131 
L 273.045176 295.122465 
L 273.695135 295.090055 
L 274.020115 294.795389 
L 274.345094 295.052395 
L 274.995053 294.873225 
L 275.320033 294.988367 
L 276.94493 294.886873 
L 277.594889 295.192142 
L 277.919869 295.218249 
L 278.244848 295.081493 
L 279.219787 295.079701 
L 279.544767 294.934905 
L 280.844685 295.107294 
L 281.169664 295.097363 
L 281.494644 295.228636 
L 282.144603 294.968698 
L 282.469582 295.130737 
L 283.7695 295.202245 
L 284.09448 295.066713 
L 284.419459 295.221541 
L 287.019296 295.184885 
L 287.344275 295.226744 
L 287.669255 295.095975 
L 287.994234 295.276201 
L 288.319214 295.252083 
L 288.644193 294.98088 
L 288.969173 295.132178 
L 289.619132 295.07131 
L 289.944111 295.205586 
L 290.59407 295.070587 
L 290.91905 295.177304 
L 291.244029 295.088008 
L 291.569009 295.195206 
L 291.893989 295.086614 
L 292.218968 295.199989 
L 292.543948 295.012111 
L 294.168845 295.248721 
L 295.793743 295.024936 
L 296.118722 295.210923 
L 296.443702 295.004241 
L 296.768681 295.205135 
L 297.093661 295.109419 
L 297.41864 295.260414 
L 298.0686 295.255769 
L 298.393579 295.208765 
L 298.718559 295.047341 
L 299.693497 295.057471 
L 300.018477 294.975984 
L 300.343456 295.093477 
L 301.968354 294.985549 
L 302.618313 295.076118 
L 302.943292 295.024571 
L 303.268272 295.117477 
L 303.593251 295.032099 
L 303.918231 295.154767 
L 304.89317 295.120822 
L 305.218149 295.180275 
L 305.868108 295.073663 
L 306.843047 295.18599 
L 307.168026 295.123965 
L 307.817985 295.234799 
L 308.142965 295.129837 
L 308.467944 295.25134 
L 308.792924 295.183094 
L 309.117903 295.244409 
L 309.767862 295.140443 
L 310.092842 295.155822 
L 310.417821 295.389388 
L 311.39276 295.146318 
L 311.71774 295.314818 
L 312.042719 295.333425 
L 312.692678 295.194996 
L 313.017658 295.28097 
L 313.992596 294.949788 
L 314.642555 295.32846 
L 315.617494 295.24009 
L 316.267453 295.183238 
L 316.592432 295.104073 
L 316.917412 295.249164 
L 318.21733 295.149445 
L 318.54231 295.32271 
L 319.192269 295.216946 
L 319.517248 295.351226 
L 321.467125 295.213927 
L 321.792105 295.377223 
L 322.767043 295.228076 
L 323.092023 295.304143 
L 323.417002 295.050446 
L 323.741982 295.327991 
L 324.391941 295.224079 
L 324.716921 295.294941 
L 325.691859 295.026971 
L 326.341818 295.060687 
L 326.666798 295.088457 
L 327.316757 294.929801 
L 327.641736 295.270866 
L 328.291695 295.038224 
L 328.941654 295.197651 
L 331.216511 295.091295 
L 331.541491 295.26547 
L 332.19145 295.032305 
L 332.516429 295.113027 
L 333.491368 295.038551 
L 333.816347 295.146128 
L 334.791286 295.064996 
L 335.116265 295.142919 
L 335.441245 294.978969 
L 335.766224 294.955053 
L 336.091204 295.095226 
L 338.041081 295.174545 
L 338.366061 295.378274 
L 339.340999 295.236641 
L 339.665979 295.183207 
L 339.990958 294.978304 
L 340.640917 295.335869 
L 340.965897 295.369272 
L 341.290876 295.275448 
L 341.615856 295.351271 
L 342.915774 295.155451 
L 343.240753 295.407731 
L 344.215692 295.16654 
L 346.165569 295.34306 
L 346.490549 295.101056 
L 347.140508 295.283919 
L 347.790467 295.220057 
L 349.090385 295.401027 
L 349.415364 295.26737 
L 349.740344 295.441882 
L 350.390303 295.214658 
L 350.715283 295.30768 
L 352.015201 295.070929 
L 352.34018 294.650521 
L 353.640098 294.762821 
L 353.965078 295.187371 
L 354.290057 294.93189 
L 354.615037 295.165519 
L 354.940016 294.936586 
L 355.589975 295.222876 
L 355.914955 294.879838 
L 356.564914 295.298924 
L 356.889894 295.042395 
L 358.189812 295.274022 
L 358.839771 295.368213 
L 359.16475 295.00455 
L 359.48973 295.284407 
L 359.814709 295.066077 
L 360.139689 295.059014 
L 360.464668 295.256164 
L 360.789648 295.175467 
L 361.114627 295.225528 
L 361.764586 295.132637 
L 362.089566 295.255316 
L 362.739525 295.163831 
L 363.064505 295.081938 
L 363.389484 295.282723 
L 363.714464 295.181129 
L 364.039443 295.206544 
L 364.364423 295.011507 
L 364.689402 295.244666 
L 365.664341 295.306916 
L 365.98932 295.197368 
L 367.289238 295.336252 
L 368.914136 295.20997 
L 369.239115 295.3469 
L 369.564095 295.215421 
L 371.513972 295.346475 
L 371.838952 295.158345 
L 372.488911 295.410271 
L 372.81389 295.303359 
L 373.13887 295.361846 
L 373.463849 295.056271 
L 374.438788 295.311499 
L 374.763767 295.162182 
L 375.413726 295.488 
L 375.738706 295.314718 
L 376.063686 295.40296 
L 376.388665 295.110623 
L 377.038624 295.307144 
L 377.363604 295.200865 
L 378.338542 295.288655 
L 378.663522 295.168173 
L 379.313481 295.306896 
L 379.63846 295.143832 
L 380.288419 295.11476 
L 380.613399 295.292646 
L 381.588337 295.220236 
L 382.238296 294.823738 
L 383.538215 295.237228 
L 383.863194 295.161409 
L 384.188174 295.257595 
L 384.838133 295.005602 
L 386.138051 295.098426 
L 386.78801 294.971692 
L 387.762948 295.167991 
L 391.987682 295.185629 
L 392.312662 295.388711 
L 392.637641 295.201319 
L 392.962621 295.26141 
L 393.2876 295.166801 
L 394.262539 295.356226 
L 394.587518 295.123824 
L 394.912498 295.250358 
L 395.237477 295.104918 
L 395.562457 295.383695 
L 395.887437 295.261444 
L 396.537396 295.379927 
L 396.862375 295.185586 
L 397.512334 295.373279 
L 398.162293 295.153515 
L 398.487273 295.230502 
L 398.487273 295.230502 
" style="fill:none;stroke:#1f77b4;stroke-linecap:square;stroke-width:1.5;"/>
   </g>
   <g id="patch_3">
    <path d="M 57.6 307.584 
L 57.6 41.472 
" style="fill:none;stroke:#000000;stroke-linecap:square;stroke-linejoin:miter;stroke-width:0.8;"/>
   </g>
   <g id="patch_4">
    <path d="M 414.72 307.584 
L 414.72 41.472 
" style="fill:none;stroke:#000000;stroke-linecap:square;stroke-linejoin:miter;stroke-width:0.8;"/>
   </g>
   <g id="patch_5">
    <path d="M 57.6 307.584 
L 414.72 307.584 
" style="fill:none;stroke:#000000;stroke-linecap:square;stroke-linejoin:miter;stroke-width:0.8;"/>
   </g>
   <g id="patch_6">
    <path d="M 57.6 41.472 
L 414.72 41.472 
" style="fill:none;stroke:#000000;stroke-linecap:square;stroke-linejoin:miter;stroke-width:0.8;"/>
   </g>
   <g id="text_17">
    <!-- Training Loss -->
    <defs>
     <path d="M -0.296875 72.90625 
L 61.375 72.90625 
L 61.375 64.59375 
L 35.5 64.59375 
L 35.5 0 
L 25.59375 0 
L 25.59375 64.59375 
L -0.296875 64.59375 
z
" id="DejaVuSans-84"/>
     <path d="M 41.109375 46.296875 
Q 39.59375 47.171875 37.8125 47.578125 
Q 36.03125 48 33.890625 48 
Q 26.265625 48 22.1875 43.046875 
Q 18.109375 38.09375 18.109375 28.8125 
L 18.109375 0 
L 9.078125 0 
L 9.078125 54.6875 
L 18.109375 54.6875 
L 18.109375 46.1875 
Q 20.953125 51.171875 25.484375 53.578125 
Q 30.03125 56 36.53125 56 
Q 37.453125 56 38.578125 55.875 
Q 39.703125 55.765625 41.0625 55.515625 
z
" id="DejaVuSans-114"/>
     <path d="M 34.28125 27.484375 
Q 23.390625 27.484375 19.1875 25 
Q 14.984375 22.515625 14.984375 16.5 
Q 14.984375 11.71875 18.140625 8.90625 
Q 21.296875 6.109375 26.703125 6.109375 
Q 34.1875 6.109375 38.703125 11.40625 
Q 43.21875 16.703125 43.21875 25.484375 
L 43.21875 27.484375 
z
M 52.203125 31.203125 
L 52.203125 0 
L 43.21875 0 
L 43.21875 8.296875 
Q 40.140625 3.328125 35.546875 0.953125 
Q 30.953125 -1.421875 24.3125 -1.421875 
Q 15.921875 -1.421875 10.953125 3.296875 
Q 6 8.015625 6 15.921875 
Q 6 25.140625 12.171875 29.828125 
Q 18.359375 34.515625 30.609375 34.515625 
L 43.21875 34.515625 
L 43.21875 35.40625 
Q 43.21875 41.609375 39.140625 45 
Q 35.0625 48.390625 27.6875 48.390625 
Q 23 48.390625 18.546875 47.265625 
Q 14.109375 46.140625 10.015625 43.890625 
L 10.015625 52.203125 
Q 14.9375 54.109375 19.578125 55.046875 
Q 24.21875 56 28.609375 56 
Q 40.484375 56 46.34375 49.84375 
Q 52.203125 43.703125 52.203125 31.203125 
z
" id="DejaVuSans-97"/>
     <path d="M 9.421875 54.6875 
L 18.40625 54.6875 
L 18.40625 0 
L 9.421875 0 
z
M 9.421875 75.984375 
L 18.40625 75.984375 
L 18.40625 64.59375 
L 9.421875 64.59375 
z
" id="DejaVuSans-105"/>
     <path d="M 54.890625 33.015625 
L 54.890625 0 
L 45.90625 0 
L 45.90625 32.71875 
Q 45.90625 40.484375 42.875 44.328125 
Q 39.84375 48.1875 33.796875 48.1875 
Q 26.515625 48.1875 22.3125 43.546875 
Q 18.109375 38.921875 18.109375 30.90625 
L 18.109375 0 
L 9.078125 0 
L 9.078125 54.6875 
L 18.109375 54.6875 
L 18.109375 46.1875 
Q 21.34375 51.125 25.703125 53.5625 
Q 30.078125 56 35.796875 56 
Q 45.21875 56 50.046875 50.171875 
Q 54.890625 44.34375 54.890625 33.015625 
z
" id="DejaVuSans-110"/>
     <path d="M 45.40625 27.984375 
Q 45.40625 37.75 41.375 43.109375 
Q 37.359375 48.484375 30.078125 48.484375 
Q 22.859375 48.484375 18.828125 43.109375 
Q 14.796875 37.75 14.796875 27.984375 
Q 14.796875 18.265625 18.828125 12.890625 
Q 22.859375 7.515625 30.078125 7.515625 
Q 37.359375 7.515625 41.375 12.890625 
Q 45.40625 18.265625 45.40625 27.984375 
z
M 54.390625 6.78125 
Q 54.390625 -7.171875 48.1875 -13.984375 
Q 42 -20.796875 29.203125 -20.796875 
Q 24.46875 -20.796875 20.265625 -20.09375 
Q 16.0625 -19.390625 12.109375 -17.921875 
L 12.109375 -9.1875 
Q 16.0625 -11.328125 19.921875 -12.34375 
Q 23.78125 -13.375 27.78125 -13.375 
Q 36.625 -13.375 41.015625 -8.765625 
Q 45.40625 -4.15625 45.40625 5.171875 
L 45.40625 9.625 
Q 42.625 4.78125 38.28125 2.390625 
Q 33.9375 0 27.875 0 
Q 17.828125 0 11.671875 7.65625 
Q 5.515625 15.328125 5.515625 27.984375 
Q 5.515625 40.671875 11.671875 48.328125 
Q 17.828125 56 27.875 56 
Q 33.9375 56 38.28125 53.609375 
Q 42.625 51.21875 45.40625 46.390625 
L 45.40625 54.6875 
L 54.390625 54.6875 
z
" id="DejaVuSans-103"/>
     <path id="DejaVuSans-32"/>
    </defs>
    <g transform="translate(196.445625 35.472)scale(0.12 -0.12)">
     <use xlink:href="#DejaVuSans-84"/>
     <use x="60.865234" xlink:href="#DejaVuSans-114"/>
     <use x="101.978516" xlink:href="#DejaVuSans-97"/>
     <use x="163.257812" xlink:href="#DejaVuSans-105"/>
     <use x="191.041016" xlink:href="#DejaVuSans-110"/>
     <use x="254.419922" xlink:href="#DejaVuSans-105"/>
     <use x="282.203125" xlink:href="#DejaVuSans-110"/>
     <use x="345.582031" xlink:href="#DejaVuSans-103"/>
     <use x="409.058594" xlink:href="#DejaVuSans-32"/>
     <use x="440.845703" xlink:href="#DejaVuSans-76"/>
     <use x="496.542969" xlink:href="#DejaVuSans-111"/>
     <use x="557.724609" xlink:href="#DejaVuSans-115"/>
     <use x="609.824219" xlink:href="#DejaVuSans-115"/>
    </g>
   </g>
  </g>
 </g>
 <defs>
  <clipPath id="pc58fc98190">
   <rect height="266.112" width="357.12" x="57.6" y="41.472"/>
  </clipPath>
 </defs>
</svg>
