<?xml version="1.0" encoding="utf-8" standalone="no"?>
<!DOCTYPE svg PUBLIC "-//W3C//DTD SVG 1.1//EN"
  "http://www.w3.org/Graphics/SVG/1.1/DTD/svg11.dtd">
<!-- Created with matplotlib (https://matplotlib.org/) -->
<svg height="345.6pt" version="1.1" viewBox="0 0 460.8 345.6" width="460.8pt" xmlns="http://www.w3.org/2000/svg" xmlns:xlink="http://www.w3.org/1999/xlink">
 <defs>
  <style type="text/css">
*{stroke-linecap:butt;stroke-linejoin:round;}
  </style>
 </defs>
 <g id="figure_1">
  <g id="patch_1">
   <path d="M 0 345.6 
L 460.8 345.6 
L 460.8 0 
L 0 0 
z
" style="fill:#ffffff;"/>
  </g>
  <g id="axes_1">
   <g id="patch_2">
    <path d="M 57.6 307.584 
L 414.72 307.584 
L 414.72 41.472 
L 57.6 41.472 
z
" style="fill:#ffffff;"/>
   </g>
   <g id="matplotlib.axis_1">
    <g id="xtick_1">
     <g id="line2d_1">
      <defs>
       <path d="M 0 0 
L 0 3.5 
" id="m527d64bf25" style="stroke:#000000;stroke-width:0.8;"/>
      </defs>
      <g>
       <use style="stroke:#000000;stroke-width:0.8;" x="73.832727" xlink:href="#m527d64bf25" y="307.584"/>
      </g>
     </g>
     <g id="text_1">
      <!-- 0 -->
      <defs>
       <path d="M 31.78125 66.40625 
Q 24.171875 66.40625 20.328125 58.90625 
Q 16.5 51.421875 16.5 36.375 
Q 16.5 21.390625 20.328125 13.890625 
Q 24.171875 6.390625 31.78125 6.390625 
Q 39.453125 6.390625 43.28125 13.890625 
Q 47.125 21.390625 47.125 36.375 
Q 47.125 51.421875 43.28125 58.90625 
Q 39.453125 66.40625 31.78125 66.40625 
z
M 31.78125 74.21875 
Q 44.046875 74.21875 50.515625 64.515625 
Q 56.984375 54.828125 56.984375 36.375 
Q 56.984375 17.96875 50.515625 8.265625 
Q 44.046875 -1.421875 31.78125 -1.421875 
Q 19.53125 -1.421875 13.0625 8.265625 
Q 6.59375 17.96875 6.59375 36.375 
Q 6.59375 54.828125 13.0625 64.515625 
Q 19.53125 74.21875 31.78125 74.21875 
z
" id="DejaVuSans-48"/>
      </defs>
      <g transform="translate(70.651477 322.182437)scale(0.1 -0.1)">
       <use xlink:href="#DejaVuSans-48"/>
      </g>
     </g>
    </g>
    <g id="xtick_2">
     <g id="line2d_2">
      <g>
       <use style="stroke:#000000;stroke-width:0.8;" x="138.828632" xlink:href="#m527d64bf25" y="307.584"/>
      </g>
     </g>
     <g id="text_2">
      <!-- 200 -->
      <defs>
       <path d="M 19.1875 8.296875 
L 53.609375 8.296875 
L 53.609375 0 
L 7.328125 0 
L 7.328125 8.296875 
Q 12.9375 14.109375 22.625 23.890625 
Q 32.328125 33.6875 34.8125 36.53125 
Q 39.546875 41.84375 41.421875 45.53125 
Q 43.3125 49.21875 43.3125 52.78125 
Q 43.3125 58.59375 39.234375 62.25 
Q 35.15625 65.921875 28.609375 65.921875 
Q 23.96875 65.921875 18.8125 64.3125 
Q 13.671875 62.703125 7.8125 59.421875 
L 7.8125 69.390625 
Q 13.765625 71.78125 18.9375 73 
Q 24.125 74.21875 28.421875 74.21875 
Q 39.75 74.21875 46.484375 68.546875 
Q 53.21875 62.890625 53.21875 53.421875 
Q 53.21875 48.921875 51.53125 44.890625 
Q 49.859375 40.875 45.40625 35.40625 
Q 44.1875 33.984375 37.640625 27.21875 
Q 31.109375 20.453125 19.1875 8.296875 
z
" id="DejaVuSans-50"/>
      </defs>
      <g transform="translate(129.284882 322.182437)scale(0.1 -0.1)">
       <use xlink:href="#DejaVuSans-50"/>
       <use x="63.623047" xlink:href="#DejaVuSans-48"/>
       <use x="127.246094" xlink:href="#DejaVuSans-48"/>
      </g>
     </g>
    </g>
    <g id="xtick_3">
     <g id="line2d_3">
      <g>
       <use style="stroke:#000000;stroke-width:0.8;" x="203.824537" xlink:href="#m527d64bf25" y="307.584"/>
      </g>
     </g>
     <g id="text_3">
      <!-- 400 -->
      <defs>
       <path d="M 37.796875 64.3125 
L 12.890625 25.390625 
L 37.796875 25.390625 
z
M 35.203125 72.90625 
L 47.609375 72.90625 
L 47.609375 25.390625 
L 58.015625 25.390625 
L 58.015625 17.1875 
L 47.609375 17.1875 
L 47.609375 0 
L 37.796875 0 
L 37.796875 17.1875 
L 4.890625 17.1875 
L 4.890625 26.703125 
z
" id="DejaVuSans-52"/>
      </defs>
      <g transform="translate(194.280787 322.182437)scale(0.1 -0.1)">
       <use xlink:href="#DejaVuSans-52"/>
       <use x="63.623047" xlink:href="#DejaVuSans-48"/>
       <use x="127.246094" xlink:href="#DejaVuSans-48"/>
      </g>
     </g>
    </g>
    <g id="xtick_4">
     <g id="line2d_4">
      <g>
       <use style="stroke:#000000;stroke-width:0.8;" x="268.820442" xlink:href="#m527d64bf25" y="307.584"/>
      </g>
     </g>
     <g id="text_4">
      <!-- 600 -->
      <defs>
       <path d="M 33.015625 40.375 
Q 26.375 40.375 22.484375 35.828125 
Q 18.609375 31.296875 18.609375 23.390625 
Q 18.609375 15.53125 22.484375 10.953125 
Q 26.375 6.390625 33.015625 6.390625 
Q 39.65625 6.390625 43.53125 10.953125 
Q 47.40625 15.53125 47.40625 23.390625 
Q 47.40625 31.296875 43.53125 35.828125 
Q 39.65625 40.375 33.015625 40.375 
z
M 52.59375 71.296875 
L 52.59375 62.3125 
Q 48.875 64.0625 45.09375 64.984375 
Q 41.3125 65.921875 37.59375 65.921875 
Q 27.828125 65.921875 22.671875 59.328125 
Q 17.53125 52.734375 16.796875 39.40625 
Q 19.671875 43.65625 24.015625 45.921875 
Q 28.375 48.1875 33.59375 48.1875 
Q 44.578125 48.1875 50.953125 41.515625 
Q 57.328125 34.859375 57.328125 23.390625 
Q 57.328125 12.15625 50.6875 5.359375 
Q 44.046875 -1.421875 33.015625 -1.421875 
Q 20.359375 -1.421875 13.671875 8.265625 
Q 6.984375 17.96875 6.984375 36.375 
Q 6.984375 53.65625 15.1875 63.9375 
Q 23.390625 74.21875 37.203125 74.21875 
Q 40.921875 74.21875 44.703125 73.484375 
Q 48.484375 72.75 52.59375 71.296875 
z
" id="DejaVuSans-54"/>
      </defs>
      <g transform="translate(259.276692 322.182437)scale(0.1 -0.1)">
       <use xlink:href="#DejaVuSans-54"/>
       <use x="63.623047" xlink:href="#DejaVuSans-48"/>
       <use x="127.246094" xlink:href="#DejaVuSans-48"/>
      </g>
     </g>
    </g>
    <g id="xtick_5">
     <g id="line2d_5">
      <g>
       <use style="stroke:#000000;stroke-width:0.8;" x="333.816347" xlink:href="#m527d64bf25" y="307.584"/>
      </g>
     </g>
     <g id="text_5">
      <!-- 800 -->
      <defs>
       <path d="M 31.78125 34.625 
Q 24.75 34.625 20.71875 30.859375 
Q 16.703125 27.09375 16.703125 20.515625 
Q 16.703125 13.921875 20.71875 10.15625 
Q 24.75 6.390625 31.78125 6.390625 
Q 38.8125 6.390625 42.859375 10.171875 
Q 46.921875 13.96875 46.921875 20.515625 
Q 46.921875 27.09375 42.890625 30.859375 
Q 38.875 34.625 31.78125 34.625 
z
M 21.921875 38.8125 
Q 15.578125 40.375 12.03125 44.71875 
Q 8.5 49.078125 8.5 55.328125 
Q 8.5 64.0625 14.71875 69.140625 
Q 20.953125 74.21875 31.78125 74.21875 
Q 42.671875 74.21875 48.875 69.140625 
Q 55.078125 64.0625 55.078125 55.328125 
Q 55.078125 49.078125 51.53125 44.71875 
Q 48 40.375 41.703125 38.8125 
Q 48.828125 37.15625 52.796875 32.3125 
Q 56.78125 27.484375 56.78125 20.515625 
Q 56.78125 9.90625 50.3125 4.234375 
Q 43.84375 -1.421875 31.78125 -1.421875 
Q 19.734375 -1.421875 13.25 4.234375 
Q 6.78125 9.90625 6.78125 20.515625 
Q 6.78125 27.484375 10.78125 32.3125 
Q 14.796875 37.15625 21.921875 38.8125 
z
M 18.3125 54.390625 
Q 18.3125 48.734375 21.84375 45.5625 
Q 25.390625 42.390625 31.78125 42.390625 
Q 38.140625 42.390625 41.71875 45.5625 
Q 45.3125 48.734375 45.3125 54.390625 
Q 45.3125 60.0625 41.71875 63.234375 
Q 38.140625 66.40625 31.78125 66.40625 
Q 25.390625 66.40625 21.84375 63.234375 
Q 18.3125 60.0625 18.3125 54.390625 
z
" id="DejaVuSans-56"/>
      </defs>
      <g transform="translate(324.272597 322.182437)scale(0.1 -0.1)">
       <use xlink:href="#DejaVuSans-56"/>
       <use x="63.623047" xlink:href="#DejaVuSans-48"/>
       <use x="127.246094" xlink:href="#DejaVuSans-48"/>
      </g>
     </g>
    </g>
    <g id="xtick_6">
     <g id="line2d_6">
      <g>
       <use style="stroke:#000000;stroke-width:0.8;" x="398.812252" xlink:href="#m527d64bf25" y="307.584"/>
      </g>
     </g>
     <g id="text_6">
      <!-- 1000 -->
      <defs>
       <path d="M 12.40625 8.296875 
L 28.515625 8.296875 
L 28.515625 63.921875 
L 10.984375 60.40625 
L 10.984375 69.390625 
L 28.421875 72.90625 
L 38.28125 72.90625 
L 38.28125 8.296875 
L 54.390625 8.296875 
L 54.390625 0 
L 12.40625 0 
z
" id="DejaVuSans-49"/>
      </defs>
      <g transform="translate(386.087252 322.182437)scale(0.1 -0.1)">
       <use xlink:href="#DejaVuSans-49"/>
       <use x="63.623047" xlink:href="#DejaVuSans-48"/>
       <use x="127.246094" xlink:href="#DejaVuSans-48"/>
       <use x="190.869141" xlink:href="#DejaVuSans-48"/>
      </g>
     </g>
    </g>
    <g id="text_7">
     <!-- Epoch -->
     <defs>
      <path d="M 9.8125 72.90625 
L 55.90625 72.90625 
L 55.90625 64.59375 
L 19.671875 64.59375 
L 19.671875 43.015625 
L 54.390625 43.015625 
L 54.390625 34.71875 
L 19.671875 34.71875 
L 19.671875 8.296875 
L 56.78125 8.296875 
L 56.78125 0 
L 9.8125 0 
z
" id="DejaVuSans-69"/>
      <path d="M 18.109375 8.203125 
L 18.109375 -20.796875 
L 9.078125 -20.796875 
L 9.078125 54.6875 
L 18.109375 54.6875 
L 18.109375 46.390625 
Q 20.953125 51.265625 25.265625 53.625 
Q 29.59375 56 35.59375 56 
Q 45.5625 56 51.78125 48.09375 
Q 58.015625 40.1875 58.015625 27.296875 
Q 58.015625 14.40625 51.78125 6.484375 
Q 45.5625 -1.421875 35.59375 -1.421875 
Q 29.59375 -1.421875 25.265625 0.953125 
Q 20.953125 3.328125 18.109375 8.203125 
z
M 48.6875 27.296875 
Q 48.6875 37.203125 44.609375 42.84375 
Q 40.53125 48.484375 33.40625 48.484375 
Q 26.265625 48.484375 22.1875 42.84375 
Q 18.109375 37.203125 18.109375 27.296875 
Q 18.109375 17.390625 22.1875 11.75 
Q 26.265625 6.109375 33.40625 6.109375 
Q 40.53125 6.109375 44.609375 11.75 
Q 48.6875 17.390625 48.6875 27.296875 
z
" id="DejaVuSans-112"/>
      <path d="M 30.609375 48.390625 
Q 23.390625 48.390625 19.1875 42.75 
Q 14.984375 37.109375 14.984375 27.296875 
Q 14.984375 17.484375 19.15625 11.84375 
Q 23.34375 6.203125 30.609375 6.203125 
Q 37.796875 6.203125 41.984375 11.859375 
Q 46.1875 17.53125 46.1875 27.296875 
Q 46.1875 37.015625 41.984375 42.703125 
Q 37.796875 48.390625 30.609375 48.390625 
z
M 30.609375 56 
Q 42.328125 56 49.015625 48.375 
Q 55.71875 40.765625 55.71875 27.296875 
Q 55.71875 13.875 49.015625 6.21875 
Q 42.328125 -1.421875 30.609375 -1.421875 
Q 18.84375 -1.421875 12.171875 6.21875 
Q 5.515625 13.875 5.515625 27.296875 
Q 5.515625 40.765625 12.171875 48.375 
Q 18.84375 56 30.609375 56 
z
" id="DejaVuSans-111"/>
      <path d="M 48.78125 52.59375 
L 48.78125 44.1875 
Q 44.96875 46.296875 41.140625 47.34375 
Q 37.3125 48.390625 33.40625 48.390625 
Q 24.65625 48.390625 19.8125 42.84375 
Q 14.984375 37.3125 14.984375 27.296875 
Q 14.984375 17.28125 19.8125 11.734375 
Q 24.65625 6.203125 33.40625 6.203125 
Q 37.3125 6.203125 41.140625 7.25 
Q 44.96875 8.296875 48.78125 10.40625 
L 48.78125 2.09375 
Q 45.015625 0.34375 40.984375 -0.53125 
Q 36.96875 -1.421875 32.421875 -1.421875 
Q 20.0625 -1.421875 12.78125 6.34375 
Q 5.515625 14.109375 5.515625 27.296875 
Q 5.515625 40.671875 12.859375 48.328125 
Q 20.21875 56 33.015625 56 
Q 37.15625 56 41.109375 55.140625 
Q 45.0625 54.296875 48.78125 52.59375 
z
" id="DejaVuSans-99"/>
      <path d="M 54.890625 33.015625 
L 54.890625 0 
L 45.90625 0 
L 45.90625 32.71875 
Q 45.90625 40.484375 42.875 44.328125 
Q 39.84375 48.1875 33.796875 48.1875 
Q 26.515625 48.1875 22.3125 43.546875 
Q 18.109375 38.921875 18.109375 30.90625 
L 18.109375 0 
L 9.078125 0 
L 9.078125 75.984375 
L 18.109375 75.984375 
L 18.109375 46.1875 
Q 21.34375 51.125 25.703125 53.5625 
Q 30.078125 56 35.796875 56 
Q 45.21875 56 50.046875 50.171875 
Q 54.890625 44.34375 54.890625 33.015625 
z
" id="DejaVuSans-104"/>
     </defs>
     <g transform="translate(220.849063 335.860562)scale(0.1 -0.1)">
      <use xlink:href="#DejaVuSans-69"/>
      <use x="63.183594" xlink:href="#DejaVuSans-112"/>
      <use x="126.660156" xlink:href="#DejaVuSans-111"/>
      <use x="187.841797" xlink:href="#DejaVuSans-99"/>
      <use x="242.822266" xlink:href="#DejaVuSans-104"/>
     </g>
    </g>
   </g>
   <g id="matplotlib.axis_2">
    <g id="ytick_1">
     <g id="line2d_7">
      <defs>
       <path d="M 0 0 
L -3.5 0 
" id="mcf9fd83880" style="stroke:#000000;stroke-width:0.8;"/>
      </defs>
      <g>
       <use style="stroke:#000000;stroke-width:0.8;" x="57.6" xlink:href="#mcf9fd83880" y="295.629333"/>
      </g>
     </g>
     <g id="text_8">
      <!-- 0 -->
      <g transform="translate(44.2375 299.428552)scale(0.1 -0.1)">
       <use xlink:href="#DejaVuSans-48"/>
      </g>
     </g>
    </g>
    <g id="ytick_2">
     <g id="line2d_8">
      <g>
       <use style="stroke:#000000;stroke-width:0.8;" x="57.6" xlink:href="#mcf9fd83880" y="248.083307"/>
      </g>
     </g>
     <g id="text_9">
      <!-- 5 -->
      <defs>
       <path d="M 10.796875 72.90625 
L 49.515625 72.90625 
L 49.515625 64.59375 
L 19.828125 64.59375 
L 19.828125 46.734375 
Q 21.96875 47.46875 24.109375 47.828125 
Q 26.265625 48.1875 28.421875 48.1875 
Q 40.625 48.1875 47.75 41.5 
Q 54.890625 34.8125 54.890625 23.390625 
Q 54.890625 11.625 47.5625 5.09375 
Q 40.234375 -1.421875 26.90625 -1.421875 
Q 22.3125 -1.421875 17.546875 -0.640625 
Q 12.796875 0.140625 7.71875 1.703125 
L 7.71875 11.625 
Q 12.109375 9.234375 16.796875 8.0625 
Q 21.484375 6.890625 26.703125 6.890625 
Q 35.15625 6.890625 40.078125 11.328125 
Q 45.015625 15.765625 45.015625 23.390625 
Q 45.015625 31 40.078125 35.4375 
Q 35.15625 39.890625 26.703125 39.890625 
Q 22.75 39.890625 18.8125 39.015625 
Q 14.890625 38.140625 10.796875 36.28125 
z
" id="DejaVuSans-53"/>
      </defs>
      <g transform="translate(44.2375 251.882526)scale(0.1 -0.1)">
       <use xlink:href="#DejaVuSans-53"/>
      </g>
     </g>
    </g>
    <g id="ytick_3">
     <g id="line2d_9">
      <g>
       <use style="stroke:#000000;stroke-width:0.8;" x="57.6" xlink:href="#mcf9fd83880" y="200.537281"/>
      </g>
     </g>
     <g id="text_10">
      <!-- 10 -->
      <g transform="translate(37.875 204.3365)scale(0.1 -0.1)">
       <use xlink:href="#DejaVuSans-49"/>
       <use x="63.623047" xlink:href="#DejaVuSans-48"/>
      </g>
     </g>
    </g>
    <g id="ytick_4">
     <g id="line2d_10">
      <g>
       <use style="stroke:#000000;stroke-width:0.8;" x="57.6" xlink:href="#mcf9fd83880" y="152.991256"/>
      </g>
     </g>
     <g id="text_11">
      <!-- 15 -->
      <g transform="translate(37.875 156.790474)scale(0.1 -0.1)">
       <use xlink:href="#DejaVuSans-49"/>
       <use x="63.623047" xlink:href="#DejaVuSans-53"/>
      </g>
     </g>
    </g>
    <g id="ytick_5">
     <g id="line2d_11">
      <g>
       <use style="stroke:#000000;stroke-width:0.8;" x="57.6" xlink:href="#mcf9fd83880" y="105.44523"/>
      </g>
     </g>
     <g id="text_12">
      <!-- 20 -->
      <g transform="translate(37.875 109.244448)scale(0.1 -0.1)">
       <use xlink:href="#DejaVuSans-50"/>
       <use x="63.623047" xlink:href="#DejaVuSans-48"/>
      </g>
     </g>
    </g>
    <g id="ytick_6">
     <g id="line2d_12">
      <g>
       <use style="stroke:#000000;stroke-width:0.8;" x="57.6" xlink:href="#mcf9fd83880" y="57.899204"/>
      </g>
     </g>
     <g id="text_13">
      <!-- 25 -->
      <g transform="translate(37.875 61.698423)scale(0.1 -0.1)">
       <use xlink:href="#DejaVuSans-50"/>
       <use x="63.623047" xlink:href="#DejaVuSans-53"/>
      </g>
     </g>
    </g>
    <g id="text_14">
     <!-- Loss -->
     <defs>
      <path d="M 9.8125 72.90625 
L 19.671875 72.90625 
L 19.671875 8.296875 
L 55.171875 8.296875 
L 55.171875 0 
L 9.8125 0 
z
" id="DejaVuSans-76"/>
      <path d="M 44.28125 53.078125 
L 44.28125 44.578125 
Q 40.484375 46.53125 36.375 47.5 
Q 32.28125 48.484375 27.875 48.484375 
Q 21.1875 48.484375 17.84375 46.4375 
Q 14.5 44.390625 14.5 40.28125 
Q 14.5 37.15625 16.890625 35.375 
Q 19.28125 33.59375 26.515625 31.984375 
L 29.59375 31.296875 
Q 39.15625 29.25 43.1875 25.515625 
Q 47.21875 21.78125 47.21875 15.09375 
Q 47.21875 7.46875 41.1875 3.015625 
Q 35.15625 -1.421875 24.609375 -1.421875 
Q 20.21875 -1.421875 15.453125 -0.5625 
Q 10.6875 0.296875 5.421875 2 
L 5.421875 11.28125 
Q 10.40625 8.6875 15.234375 7.390625 
Q 20.0625 6.109375 24.8125 6.109375 
Q 31.15625 6.109375 34.5625 8.28125 
Q 37.984375 10.453125 37.984375 14.40625 
Q 37.984375 18.0625 35.515625 20.015625 
Q 33.0625 21.96875 24.703125 23.78125 
L 21.578125 24.515625 
Q 13.234375 26.265625 9.515625 29.90625 
Q 5.8125 33.546875 5.8125 39.890625 
Q 5.8125 47.609375 11.28125 51.796875 
Q 16.75 56 26.8125 56 
Q 31.78125 56 36.171875 55.265625 
Q 40.578125 54.546875 44.28125 53.078125 
z
" id="DejaVuSans-115"/>
     </defs>
     <g transform="translate(31.795313 185.581906)rotate(-90)scale(0.1 -0.1)">
      <use xlink:href="#DejaVuSans-76"/>
      <use x="55.697266" xlink:href="#DejaVuSans-111"/>
      <use x="116.878906" xlink:href="#DejaVuSans-115"/>
      <use x="168.978516" xlink:href="#DejaVuSans-115"/>
     </g>
    </g>
   </g>
   <g id="line2d_13">
    <path clip-path="url(#pb40881a772)" d="M 73.832727 53.568 
L 74.157707 60.497219 
L 74.807666 135.483525 
L 75.132645 148.462082 
L 75.457625 166.953312 
L 75.782604 238.843442 
L 76.107584 226.12867 
L 76.432563 233.81331 
L 77.082523 276.287683 
L 77.407502 276.661791 
L 77.732482 285.046758 
L 78.057461 281.951418 
L 78.382441 289.949081 
L 78.70742 289.226492 
L 79.0324 287.858341 
L 79.357379 288.687256 
L 80.007338 291.643016 
L 80.332318 288.725503 
L 80.657297 292.34217 
L 80.982277 289.332776 
L 81.307256 292.631122 
L 81.632236 291.955575 
L 81.957215 292.421786 
L 82.282195 293.52124 
L 82.607174 291.699207 
L 82.932154 293.538766 
L 83.257133 292.189597 
L 83.582113 293.757059 
L 83.907093 292.013658 
L 84.232072 293.428694 
L 84.557052 292.637083 
L 84.882031 293.749947 
L 85.207011 292.972031 
L 85.53199 293.846071 
L 85.85697 294.205989 
L 86.181949 293.029345 
L 86.506929 294.206058 
L 86.831908 293.518734 
L 87.156888 294.133722 
L 87.481867 293.231158 
L 87.806847 294.278291 
L 88.131826 293.534923 
L 88.456806 294.568492 
L 88.781785 294.539729 
L 89.106765 294.254572 
L 89.431744 294.440733 
L 89.756724 294.313743 
L 90.081704 294.576916 
L 90.406683 294.311424 
L 90.731663 294.494078 
L 91.056642 294.238126 
L 91.381622 294.514218 
L 91.706601 294.420054 
L 92.35656 294.721477 
L 92.68154 294.639692 
L 93.331499 294.752821 
L 93.656478 294.569283 
L 93.981458 294.700203 
L 94.306437 294.525064 
L 94.631417 294.571368 
L 95.281376 294.836928 
L 95.606355 294.63289 
L 96.256314 294.738407 
L 96.581294 294.980541 
L 96.906274 294.828087 
L 97.231253 294.882433 
L 97.556233 294.688258 
L 97.881212 294.92872 
L 98.531171 294.835583 
L 98.856151 294.733333 
L 99.18113 294.759713 
L 99.50611 294.957238 
L 100.481048 294.637487 
L 100.806028 294.799189 
L 101.131007 294.480982 
L 101.780966 294.82623 
L 102.105946 293.997091 
L 102.755905 294.822703 
L 103.080885 294.44759 
L 103.405864 294.877006 
L 103.730844 294.282616 
L 104.055823 294.79622 
L 104.705782 294.03722 
L 105.030762 294.929462 
L 105.355741 294.041412 
L 105.680721 294.308459 
L 106.0057 294.847957 
L 106.33068 294.538109 
L 106.655659 294.72894 
L 106.980639 294.728675 
L 107.305618 294.9457 
L 107.630598 294.733796 
L 107.955577 294.932736 
L 108.280557 294.78412 
L 108.605536 294.7794 
L 109.255495 294.941505 
L 109.580475 294.779296 
L 109.905455 295.054969 
L 110.230434 294.903449 
L 110.555414 294.917996 
L 110.880393 295.089231 
L 112.180311 294.933115 
L 112.83027 295.115671 
L 113.480229 295.021323 
L 113.805209 295.107615 
L 114.130188 294.945067 
L 115.105127 295.059153 
L 116.730025 295.090068 
L 117.055004 294.96672 
L 117.379984 294.968361 
L 117.704963 295.095656 
L 118.029943 295.022521 
L 118.354922 295.181279 
L 118.679902 295.108687 
L 119.004881 294.920221 
L 119.329861 294.891527 
L 119.97982 295.002798 
L 120.304799 294.89573 
L 120.954758 295.182575 
L 121.279738 295.05879 
L 121.604717 295.122933 
L 121.929697 295.025064 
L 122.254676 295.122641 
L 124.529533 294.923053 
L 124.854513 295.107694 
L 125.179492 295.145325 
L 125.829451 295.027975 
L 126.80439 294.96953 
L 127.129369 295.1307 
L 127.454349 295.136619 
L 127.779328 294.868491 
L 128.104308 294.895268 
L 128.429287 295.09686 
L 128.754267 294.984139 
L 129.079247 294.685356 
L 129.404226 294.68909 
L 129.729206 295.14219 
L 130.379165 294.71374 
L 130.704144 294.840608 
L 131.354103 294.139391 
L 131.679083 294.902835 
L 132.004062 294.062689 
L 132.329042 294.349797 
L 132.654021 293.478064 
L 132.979001 293.251051 
L 133.30398 293.819006 
L 133.62896 294.707493 
L 133.953939 294.164812 
L 134.278919 294.607851 
L 134.603898 294.639182 
L 134.928878 294.96986 
L 135.578837 294.050033 
L 135.903817 294.998134 
L 136.228796 294.389368 
L 136.553776 294.946926 
L 136.878755 294.491503 
L 137.203735 294.612331 
L 137.528714 295.093322 
L 137.853694 294.575509 
L 138.178673 294.911294 
L 138.503653 294.598188 
L 139.153612 295.010211 
L 139.478591 295.101047 
L 141.428468 295.033351 
L 142.728387 295.013257 
L 143.053366 294.983471 
L 143.378346 294.648846 
L 144.028305 295.013693 
L 144.353284 295.112021 
L 145.003243 294.927302 
L 145.328223 294.986753 
L 145.653202 294.482017 
L 145.978182 294.9848 
L 146.303161 294.979661 
L 146.628141 295.143538 
L 146.95312 294.945653 
L 147.2781 294.885246 
L 147.603079 295.160998 
L 147.928059 294.772481 
L 148.578018 295.149361 
L 149.552957 294.982712 
L 149.877936 295.163188 
L 151.177854 295.061011 
L 151.502834 295.149971 
L 151.827813 294.958784 
L 152.152793 295.135972 
L 152.477772 294.956468 
L 152.802752 295.076158 
L 153.127731 295.07601 
L 153.452711 294.726638 
L 153.77769 295.025435 
L 154.10267 294.955339 
L 154.427649 294.637664 
L 154.752629 295.146942 
L 155.077609 294.808167 
L 155.402588 294.747012 
L 155.727568 295.217345 
L 156.377527 295.094038 
L 156.702506 295.193212 
L 157.027486 295.131483 
L 157.677445 295.180031 
L 158.652383 295.165806 
L 158.977363 295.207427 
L 159.302342 295.125721 
L 159.952301 295.208544 
L 160.277281 295.133762 
L 160.92724 295.246308 
L 162.227158 295.183114 
L 162.552138 295.218337 
L 162.877117 295.075648 
L 163.527076 295.136295 
L 163.852056 295.255148 
L 165.476953 295.172793 
L 165.801933 295.282336 
L 166.451892 295.206119 
L 167.101851 295.258615 
L 167.42683 295.105133 
L 167.75181 295.07483 
L 168.07679 295.230917 
L 169.376708 295.159122 
L 169.701687 295.231087 
L 170.351646 295.179817 
L 171.326585 295.275803 
L 171.976544 295.268809 
L 172.626503 295.277183 
L 173.276462 295.274384 
L 174.57638 295.2 
L 175.226339 294.927326 
L 176.201278 295.23176 
L 176.851237 295.120005 
L 177.176216 295.255758 
L 178.151155 295.183585 
L 178.801114 295.153005 
L 180.101032 295.224845 
L 180.426011 295.128728 
L 181.40095 295.248917 
L 181.72593 295.165402 
L 184.000786 295.293443 
L 184.975725 295.177054 
L 185.300704 295.254116 
L 185.625684 295.215683 
L 186.275643 295.339689 
L 186.925602 295.301391 
L 189.200459 295.304313 
L 189.850418 295.17961 
L 190.175397 295.307401 
L 190.500377 295.249048 
L 191.475315 294.499711 
L 191.800295 295.097303 
L 192.125274 295.311846 
L 192.450254 294.917906 
L 192.775233 295.025876 
L 193.100213 295.283974 
L 193.750172 294.847325 
L 194.075152 294.880402 
L 194.725111 295.186805 
L 195.37507 295.332422 
L 195.700049 295.226265 
L 196.350008 295.317024 
L 196.999967 295.209574 
L 197.324947 295.31009 
L 198.299885 295.23489 
L 198.949844 295.319277 
L 200.249762 295.338334 
L 200.899722 295.251134 
L 201.549681 295.355713 
L 201.87466 295.253267 
L 203.499558 295.353929 
L 204.149517 295.162859 
L 204.799476 295.285062 
L 205.449435 295.169167 
L 205.774414 295.370525 
L 206.424373 295.226611 
L 207.074333 295.320073 
L 208.374251 295.315988 
L 208.69923 295.383899 
L 209.674169 294.97977 
L 209.999148 295.291673 
L 210.324128 295.222688 
L 210.974087 293.915054 
L 211.299066 294.759048 
L 211.624046 295.146363 
L 211.949025 293.924613 
L 212.274005 295.044016 
L 212.598984 294.936416 
L 212.923964 294.192017 
L 213.248943 295.127845 
L 213.898903 295.252649 
L 214.548862 295.029014 
L 214.873841 295.249607 
L 215.198821 295.042533 
L 215.5238 295.076232 
L 215.84878 295.317907 
L 216.173759 295.04096 
L 216.498739 295.360646 
L 217.148698 294.522133 
L 217.473677 295.13012 
L 217.798657 294.960889 
L 218.123636 294.245717 
L 218.448616 295.202629 
L 218.773595 294.960034 
L 219.423554 295.269677 
L 219.748534 294.970224 
L 220.073514 295.297419 
L 220.398493 294.861692 
L 220.723473 295.142941 
L 221.048452 295.157075 
L 221.373432 294.714666 
L 222.023391 295.304045 
L 222.34837 295.086229 
L 222.67335 295.320575 
L 222.998329 295.190527 
L 223.648288 295.225738 
L 223.973268 294.843828 
L 224.298247 295.336335 
L 224.623227 295.003346 
L 224.948206 294.911912 
L 225.273186 295.232416 
L 225.598165 294.789294 
L 225.923145 295.328936 
L 226.248124 294.955505 
L 226.573104 295.295404 
L 226.898084 295.244499 
L 227.223063 295.335015 
L 227.548043 295.07934 
L 228.198002 295.332447 
L 228.522981 295.129191 
L 228.847961 295.427433 
L 229.17294 295.107187 
L 229.49792 295.120867 
L 229.822899 295.383161 
L 230.147879 295.210501 
L 230.472858 295.423341 
L 230.797838 295.089271 
L 231.447797 295.330135 
L 232.097756 295.371575 
L 233.722654 295.348997 
L 235.022572 295.377411 
L 235.672531 295.377012 
L 236.32249 295.338229 
L 239.897265 295.369717 
L 240.547224 295.356865 
L 241.197183 295.362233 
L 243.472039 295.371325 
L 245.421916 295.350164 
L 246.071876 295.400371 
L 248.996691 295.384552 
L 250.296609 295.364464 
L 250.946568 295.401488 
L 252.246486 295.408158 
L 255.496282 295.409187 
L 257.446159 295.431202 
L 258.096118 295.395406 
L 264.595708 295.365699 
L 266.220606 295.448876 
L 267.195545 295.385036 
L 267.845504 295.3451 
L 268.495463 295.28208 
L 269.470401 295.397854 
L 270.12036 295.365848 
L 270.770319 295.418423 
L 273.045176 295.226333 
L 273.695135 294.825728 
L 274.345094 295.394482 
L 274.670074 295.160892 
L 274.995053 294.013715 
L 275.320033 292.293635 
L 275.645012 291.939958 
L 275.969992 295.272706 
L 276.294971 292.891987 
L 276.619951 292.68944 
L 276.94493 295.137493 
L 277.26991 293.49134 
L 277.594889 295.150276 
L 277.919869 294.061079 
L 278.244848 295.048189 
L 278.569828 294.804722 
L 278.894808 294.860289 
L 279.219787 295.09029 
L 279.869746 295.097211 
L 280.194726 294.821394 
L 280.519705 295.269812 
L 281.494644 294.981986 
L 281.819623 295.331709 
L 282.794562 295.286818 
L 283.119541 295.340872 
L 283.7695 295.256663 
L 284.09448 295.345984 
L 285.069419 295.297444 
L 286.694316 295.351122 
L 288.319214 295.402569 
L 289.294152 295.334046 
L 289.944111 295.371099 
L 291.244029 295.320041 
L 292.218968 295.392759 
L 293.518886 295.374567 
L 294.168845 295.366649 
L 294.818804 295.350261 
L 295.468763 295.403727 
L 298.393579 295.399119 
L 299.043538 295.403823 
L 299.368518 295.357138 
L 299.693497 295.43842 
L 300.343456 295.374772 
L 300.993415 295.395072 
L 302.618313 295.358813 
L 302.943292 295.302442 
L 303.593251 295.401067 
L 303.918231 295.320669 
L 305.218149 295.417907 
L 306.193088 295.395053 
L 309.117903 295.371827 
L 324.391941 295.412032 
L 325.36688 295.400022 
L 325.691859 295.473357 
L 326.666798 295.348914 
L 329.591613 295.388867 
L 330.241572 295.12959 
L 330.566552 295.360691 
L 330.891532 295.421728 
L 331.216511 295.328483 
L 332.516429 295.444691 
L 337.716102 295.361095 
L 338.366061 294.753474 
L 338.69104 294.82412 
L 339.01602 295.428846 
L 339.665979 294.392391 
L 339.990958 295.392134 
L 340.315938 294.8141 
L 340.640917 294.776892 
L 340.965897 295.315993 
L 341.290876 293.934968 
L 341.615856 294.032976 
L 341.940835 295.413727 
L 342.265815 294.522385 
L 342.590794 295.112166 
L 342.915774 295.027303 
L 343.240753 294.248419 
L 343.565733 295.088997 
L 343.890713 295.257767 
L 344.215692 294.726502 
L 344.540672 295.3737 
L 344.865651 295.064575 
L 345.190631 295.23504 
L 345.51561 295.066559 
L 345.84059 294.473046 
L 346.165569 295.342684 
L 346.490549 294.862284 
L 346.815528 295.237379 
L 347.140508 295.135637 
L 347.465487 294.680918 
L 347.790467 295.396177 
L 348.115446 295.077766 
L 348.440426 295.257167 
L 348.765405 295.196165 
L 349.090385 294.505446 
L 349.415364 294.678275 
L 349.740344 295.315138 
L 350.065324 294.463082 
L 350.390303 295.329265 
L 350.715283 294.860691 
L 351.040262 294.987122 
L 351.365242 295.398204 
L 351.690221 295.123829 
L 352.015201 295.392588 
L 352.34018 295.106238 
L 352.66516 295.376585 
L 352.990139 295.263839 
L 353.640098 295.364163 
L 353.965078 295.299926 
L 354.290057 295.398685 
L 354.615037 295.317573 
L 354.940016 295.418365 
L 355.264996 295.260589 
L 355.589975 295.450468 
L 355.914955 295.197327 
L 356.239934 295.371264 
L 356.889894 295.232766 
L 357.214873 295.436732 
L 357.539853 295.271439 
L 357.864832 295.39873 
L 358.189812 295.142288 
L 358.514791 295.169882 
L 358.839771 295.472399 
L 359.16475 295.302329 
L 359.48973 295.443399 
L 359.814709 295.288183 
L 360.464668 295.40064 
L 360.789648 295.263129 
L 361.114627 295.447734 
L 361.764586 295.226079 
L 362.089566 295.411274 
L 362.414545 295.442057 
L 362.739525 295.358549 
L 363.389484 295.387617 
L 364.689402 295.399483 
L 365.98932 295.413295 
L 366.639279 295.418776 
L 368.264177 295.466514 
L 368.914136 295.40991 
L 369.564095 295.442869 
L 371.838952 295.445752 
L 372.81389 295.414584 
L 373.463849 295.391196 
L 373.788829 295.299513 
L 374.113808 295.464471 
L 374.438788 295.316733 
L 375.088747 295.388664 
L 375.413726 295.337793 
L 375.738706 295.449928 
L 376.063686 295.384429 
L 376.388665 295.467192 
L 377.038624 295.372631 
L 377.688583 295.390656 
L 379.313481 295.461365 
L 381.263358 295.414062 
L 381.913317 295.42783 
L 384.513153 295.436288 
L 386.138051 295.447876 
L 388.737887 295.488 
L 389.387846 295.404649 
L 391.012744 295.418506 
L 391.337723 295.283183 
L 391.662703 295.301831 
L 391.987682 295.467131 
L 392.637641 295.227361 
L 393.2876 295.41313 
L 393.61258 295.224551 
L 394.262539 295.434465 
L 394.587518 295.291662 
L 394.912498 295.431719 
L 398.487273 295.476331 
L 398.487273 295.476331 
" style="fill:none;stroke:#1f77b4;stroke-linecap:square;stroke-width:1.5;"/>
   </g>
   <g id="patch_3">
    <path d="M 57.6 307.584 
L 57.6 41.472 
" style="fill:none;stroke:#000000;stroke-linecap:square;stroke-linejoin:miter;stroke-width:0.8;"/>
   </g>
   <g id="patch_4">
    <path d="M 414.72 307.584 
L 414.72 41.472 
" style="fill:none;stroke:#000000;stroke-linecap:square;stroke-linejoin:miter;stroke-width:0.8;"/>
   </g>
   <g id="patch_5">
    <path d="M 57.6 307.584 
L 414.72 307.584 
" style="fill:none;stroke:#000000;stroke-linecap:square;stroke-linejoin:miter;stroke-width:0.8;"/>
   </g>
   <g id="patch_6">
    <path d="M 57.6 41.472 
L 414.72 41.472 
" style="fill:none;stroke:#000000;stroke-linecap:square;stroke-linejoin:miter;stroke-width:0.8;"/>
   </g>
   <g id="text_15">
    <!-- Training Loss -->
    <defs>
     <path d="M -0.296875 72.90625 
L 61.375 72.90625 
L 61.375 64.59375 
L 35.5 64.59375 
L 35.5 0 
L 25.59375 0 
L 25.59375 64.59375 
L -0.296875 64.59375 
z
" id="DejaVuSans-84"/>
     <path d="M 41.109375 46.296875 
Q 39.59375 47.171875 37.8125 47.578125 
Q 36.03125 48 33.890625 48 
Q 26.265625 48 22.1875 43.046875 
Q 18.109375 38.09375 18.109375 28.8125 
L 18.109375 0 
L 9.078125 0 
L 9.078125 54.6875 
L 18.109375 54.6875 
L 18.109375 46.1875 
Q 20.953125 51.171875 25.484375 53.578125 
Q 30.03125 56 36.53125 56 
Q 37.453125 56 38.578125 55.875 
Q 39.703125 55.765625 41.0625 55.515625 
z
" id="DejaVuSans-114"/>
     <path d="M 34.28125 27.484375 
Q 23.390625 27.484375 19.1875 25 
Q 14.984375 22.515625 14.984375 16.5 
Q 14.984375 11.71875 18.140625 8.90625 
Q 21.296875 6.109375 26.703125 6.109375 
Q 34.1875 6.109375 38.703125 11.40625 
Q 43.21875 16.703125 43.21875 25.484375 
L 43.21875 27.484375 
z
M 52.203125 31.203125 
L 52.203125 0 
L 43.21875 0 
L 43.21875 8.296875 
Q 40.140625 3.328125 35.546875 0.953125 
Q 30.953125 -1.421875 24.3125 -1.421875 
Q 15.921875 -1.421875 10.953125 3.296875 
Q 6 8.015625 6 15.921875 
Q 6 25.140625 12.171875 29.828125 
Q 18.359375 34.515625 30.609375 34.515625 
L 43.21875 34.515625 
L 43.21875 35.40625 
Q 43.21875 41.609375 39.140625 45 
Q 35.0625 48.390625 27.6875 48.390625 
Q 23 48.390625 18.546875 47.265625 
Q 14.109375 46.140625 10.015625 43.890625 
L 10.015625 52.203125 
Q 14.9375 54.109375 19.578125 55.046875 
Q 24.21875 56 28.609375 56 
Q 40.484375 56 46.34375 49.84375 
Q 52.203125 43.703125 52.203125 31.203125 
z
" id="DejaVuSans-97"/>
     <path d="M 9.421875 54.6875 
L 18.40625 54.6875 
L 18.40625 0 
L 9.421875 0 
z
M 9.421875 75.984375 
L 18.40625 75.984375 
L 18.40625 64.59375 
L 9.421875 64.59375 
z
" id="DejaVuSans-105"/>
     <path d="M 54.890625 33.015625 
L 54.890625 0 
L 45.90625 0 
L 45.90625 32.71875 
Q 45.90625 40.484375 42.875 44.328125 
Q 39.84375 48.1875 33.796875 48.1875 
Q 26.515625 48.1875 22.3125 43.546875 
Q 18.109375 38.921875 18.109375 30.90625 
L 18.109375 0 
L 9.078125 0 
L 9.078125 54.6875 
L 18.109375 54.6875 
L 18.109375 46.1875 
Q 21.34375 51.125 25.703125 53.5625 
Q 30.078125 56 35.796875 56 
Q 45.21875 56 50.046875 50.171875 
Q 54.890625 44.34375 54.890625 33.015625 
z
" id="DejaVuSans-110"/>
     <path d="M 45.40625 27.984375 
Q 45.40625 37.75 41.375 43.109375 
Q 37.359375 48.484375 30.078125 48.484375 
Q 22.859375 48.484375 18.828125 43.109375 
Q 14.796875 37.75 14.796875 27.984375 
Q 14.796875 18.265625 18.828125 12.890625 
Q 22.859375 7.515625 30.078125 7.515625 
Q 37.359375 7.515625 41.375 12.890625 
Q 45.40625 18.265625 45.40625 27.984375 
z
M 54.390625 6.78125 
Q 54.390625 -7.171875 48.1875 -13.984375 
Q 42 -20.796875 29.203125 -20.796875 
Q 24.46875 -20.796875 20.265625 -20.09375 
Q 16.0625 -19.390625 12.109375 -17.921875 
L 12.109375 -9.1875 
Q 16.0625 -11.328125 19.921875 -12.34375 
Q 23.78125 -13.375 27.78125 -13.375 
Q 36.625 -13.375 41.015625 -8.765625 
Q 45.40625 -4.15625 45.40625 5.171875 
L 45.40625 9.625 
Q 42.625 4.78125 38.28125 2.390625 
Q 33.9375 0 27.875 0 
Q 17.828125 0 11.671875 7.65625 
Q 5.515625 15.328125 5.515625 27.984375 
Q 5.515625 40.671875 11.671875 48.328125 
Q 17.828125 56 27.875 56 
Q 33.9375 56 38.28125 53.609375 
Q 42.625 51.21875 45.40625 46.390625 
L 45.40625 54.6875 
L 54.390625 54.6875 
z
" id="DejaVuSans-103"/>
     <path id="DejaVuSans-32"/>
    </defs>
    <g transform="translate(196.445625 35.472)scale(0.12 -0.12)">
     <use xlink:href="#DejaVuSans-84"/>
     <use x="60.865234" xlink:href="#DejaVuSans-114"/>
     <use x="101.978516" xlink:href="#DejaVuSans-97"/>
     <use x="163.257812" xlink:href="#DejaVuSans-105"/>
     <use x="191.041016" xlink:href="#DejaVuSans-110"/>
     <use x="254.419922" xlink:href="#DejaVuSans-105"/>
     <use x="282.203125" xlink:href="#DejaVuSans-110"/>
     <use x="345.582031" xlink:href="#DejaVuSans-103"/>
     <use x="409.058594" xlink:href="#DejaVuSans-32"/>
     <use x="440.845703" xlink:href="#DejaVuSans-76"/>
     <use x="496.542969" xlink:href="#DejaVuSans-111"/>
     <use x="557.724609" xlink:href="#DejaVuSans-115"/>
     <use x="609.824219" xlink:href="#DejaVuSans-115"/>
    </g>
   </g>
  </g>
 </g>
 <defs>
  <clipPath id="pb40881a772">
   <rect height="266.112" width="357.12" x="57.6" y="41.472"/>
  </clipPath>
 </defs>
</svg>
