<?xml version="1.0" encoding="utf-8" standalone="no"?>
<!DOCTYPE svg PUBLIC "-//W3C//DTD SVG 1.1//EN"
  "http://www.w3.org/Graphics/SVG/1.1/DTD/svg11.dtd">
<!-- Created with matplotlib (https://matplotlib.org/) -->
<svg height="345.6pt" version="1.1" viewBox="0 0 460.8 345.6" width="460.8pt" xmlns="http://www.w3.org/2000/svg" xmlns:xlink="http://www.w3.org/1999/xlink">
 <defs>
  <style type="text/css">
*{stroke-linecap:butt;stroke-linejoin:round;}
  </style>
 </defs>
 <g id="figure_1">
  <g id="patch_1">
   <path d="M 0 345.6 
L 460.8 345.6 
L 460.8 0 
L 0 0 
z
" style="fill:#ffffff;"/>
  </g>
  <g id="axes_1">
   <g id="patch_2">
    <path d="M 57.6 307.584 
L 414.72 307.584 
L 414.72 41.472 
L 57.6 41.472 
z
" style="fill:#ffffff;"/>
   </g>
   <g id="matplotlib.axis_1">
    <g id="xtick_1">
     <g id="line2d_1">
      <defs>
       <path d="M 0 0 
L 0 3.5 
" id="m0fa56b13e1" style="stroke:#000000;stroke-width:0.8;"/>
      </defs>
      <g>
       <use style="stroke:#000000;stroke-width:0.8;" x="73.832727" xlink:href="#m0fa56b13e1" y="307.584"/>
      </g>
     </g>
     <g id="text_1">
      <!-- 0 -->
      <defs>
       <path d="M 31.78125 66.40625 
Q 24.171875 66.40625 20.328125 58.90625 
Q 16.5 51.421875 16.5 36.375 
Q 16.5 21.390625 20.328125 13.890625 
Q 24.171875 6.390625 31.78125 6.390625 
Q 39.453125 6.390625 43.28125 13.890625 
Q 47.125 21.390625 47.125 36.375 
Q 47.125 51.421875 43.28125 58.90625 
Q 39.453125 66.40625 31.78125 66.40625 
z
M 31.78125 74.21875 
Q 44.046875 74.21875 50.515625 64.515625 
Q 56.984375 54.828125 56.984375 36.375 
Q 56.984375 17.96875 50.515625 8.265625 
Q 44.046875 -1.421875 31.78125 -1.421875 
Q 19.53125 -1.421875 13.0625 8.265625 
Q 6.59375 17.96875 6.59375 36.375 
Q 6.59375 54.828125 13.0625 64.515625 
Q 19.53125 74.21875 31.78125 74.21875 
z
" id="DejaVuSans-48"/>
      </defs>
      <g transform="translate(70.651477 322.182437)scale(0.1 -0.1)">
       <use xlink:href="#DejaVuSans-48"/>
      </g>
     </g>
    </g>
    <g id="xtick_2">
     <g id="line2d_2">
      <g>
       <use style="stroke:#000000;stroke-width:0.8;" x="138.828632" xlink:href="#m0fa56b13e1" y="307.584"/>
      </g>
     </g>
     <g id="text_2">
      <!-- 200 -->
      <defs>
       <path d="M 19.1875 8.296875 
L 53.609375 8.296875 
L 53.609375 0 
L 7.328125 0 
L 7.328125 8.296875 
Q 12.9375 14.109375 22.625 23.890625 
Q 32.328125 33.6875 34.8125 36.53125 
Q 39.546875 41.84375 41.421875 45.53125 
Q 43.3125 49.21875 43.3125 52.78125 
Q 43.3125 58.59375 39.234375 62.25 
Q 35.15625 65.921875 28.609375 65.921875 
Q 23.96875 65.921875 18.8125 64.3125 
Q 13.671875 62.703125 7.8125 59.421875 
L 7.8125 69.390625 
Q 13.765625 71.78125 18.9375 73 
Q 24.125 74.21875 28.421875 74.21875 
Q 39.75 74.21875 46.484375 68.546875 
Q 53.21875 62.890625 53.21875 53.421875 
Q 53.21875 48.921875 51.53125 44.890625 
Q 49.859375 40.875 45.40625 35.40625 
Q 44.1875 33.984375 37.640625 27.21875 
Q 31.109375 20.453125 19.1875 8.296875 
z
" id="DejaVuSans-50"/>
      </defs>
      <g transform="translate(129.284882 322.182437)scale(0.1 -0.1)">
       <use xlink:href="#DejaVuSans-50"/>
       <use x="63.623047" xlink:href="#DejaVuSans-48"/>
       <use x="127.246094" xlink:href="#DejaVuSans-48"/>
      </g>
     </g>
    </g>
    <g id="xtick_3">
     <g id="line2d_3">
      <g>
       <use style="stroke:#000000;stroke-width:0.8;" x="203.824537" xlink:href="#m0fa56b13e1" y="307.584"/>
      </g>
     </g>
     <g id="text_3">
      <!-- 400 -->
      <defs>
       <path d="M 37.796875 64.3125 
L 12.890625 25.390625 
L 37.796875 25.390625 
z
M 35.203125 72.90625 
L 47.609375 72.90625 
L 47.609375 25.390625 
L 58.015625 25.390625 
L 58.015625 17.1875 
L 47.609375 17.1875 
L 47.609375 0 
L 37.796875 0 
L 37.796875 17.1875 
L 4.890625 17.1875 
L 4.890625 26.703125 
z
" id="DejaVuSans-52"/>
      </defs>
      <g transform="translate(194.280787 322.182437)scale(0.1 -0.1)">
       <use xlink:href="#DejaVuSans-52"/>
       <use x="63.623047" xlink:href="#DejaVuSans-48"/>
       <use x="127.246094" xlink:href="#DejaVuSans-48"/>
      </g>
     </g>
    </g>
    <g id="xtick_4">
     <g id="line2d_4">
      <g>
       <use style="stroke:#000000;stroke-width:0.8;" x="268.820442" xlink:href="#m0fa56b13e1" y="307.584"/>
      </g>
     </g>
     <g id="text_4">
      <!-- 600 -->
      <defs>
       <path d="M 33.015625 40.375 
Q 26.375 40.375 22.484375 35.828125 
Q 18.609375 31.296875 18.609375 23.390625 
Q 18.609375 15.53125 22.484375 10.953125 
Q 26.375 6.390625 33.015625 6.390625 
Q 39.65625 6.390625 43.53125 10.953125 
Q 47.40625 15.53125 47.40625 23.390625 
Q 47.40625 31.296875 43.53125 35.828125 
Q 39.65625 40.375 33.015625 40.375 
z
M 52.59375 71.296875 
L 52.59375 62.3125 
Q 48.875 64.0625 45.09375 64.984375 
Q 41.3125 65.921875 37.59375 65.921875 
Q 27.828125 65.921875 22.671875 59.328125 
Q 17.53125 52.734375 16.796875 39.40625 
Q 19.671875 43.65625 24.015625 45.921875 
Q 28.375 48.1875 33.59375 48.1875 
Q 44.578125 48.1875 50.953125 41.515625 
Q 57.328125 34.859375 57.328125 23.390625 
Q 57.328125 12.15625 50.6875 5.359375 
Q 44.046875 -1.421875 33.015625 -1.421875 
Q 20.359375 -1.421875 13.671875 8.265625 
Q 6.984375 17.96875 6.984375 36.375 
Q 6.984375 53.65625 15.1875 63.9375 
Q 23.390625 74.21875 37.203125 74.21875 
Q 40.921875 74.21875 44.703125 73.484375 
Q 48.484375 72.75 52.59375 71.296875 
z
" id="DejaVuSans-54"/>
      </defs>
      <g transform="translate(259.276692 322.182437)scale(0.1 -0.1)">
       <use xlink:href="#DejaVuSans-54"/>
       <use x="63.623047" xlink:href="#DejaVuSans-48"/>
       <use x="127.246094" xlink:href="#DejaVuSans-48"/>
      </g>
     </g>
    </g>
    <g id="xtick_5">
     <g id="line2d_5">
      <g>
       <use style="stroke:#000000;stroke-width:0.8;" x="333.816347" xlink:href="#m0fa56b13e1" y="307.584"/>
      </g>
     </g>
     <g id="text_5">
      <!-- 800 -->
      <defs>
       <path d="M 31.78125 34.625 
Q 24.75 34.625 20.71875 30.859375 
Q 16.703125 27.09375 16.703125 20.515625 
Q 16.703125 13.921875 20.71875 10.15625 
Q 24.75 6.390625 31.78125 6.390625 
Q 38.8125 6.390625 42.859375 10.171875 
Q 46.921875 13.96875 46.921875 20.515625 
Q 46.921875 27.09375 42.890625 30.859375 
Q 38.875 34.625 31.78125 34.625 
z
M 21.921875 38.8125 
Q 15.578125 40.375 12.03125 44.71875 
Q 8.5 49.078125 8.5 55.328125 
Q 8.5 64.0625 14.71875 69.140625 
Q 20.953125 74.21875 31.78125 74.21875 
Q 42.671875 74.21875 48.875 69.140625 
Q 55.078125 64.0625 55.078125 55.328125 
Q 55.078125 49.078125 51.53125 44.71875 
Q 48 40.375 41.703125 38.8125 
Q 48.828125 37.15625 52.796875 32.3125 
Q 56.78125 27.484375 56.78125 20.515625 
Q 56.78125 9.90625 50.3125 4.234375 
Q 43.84375 -1.421875 31.78125 -1.421875 
Q 19.734375 -1.421875 13.25 4.234375 
Q 6.78125 9.90625 6.78125 20.515625 
Q 6.78125 27.484375 10.78125 32.3125 
Q 14.796875 37.15625 21.921875 38.8125 
z
M 18.3125 54.390625 
Q 18.3125 48.734375 21.84375 45.5625 
Q 25.390625 42.390625 31.78125 42.390625 
Q 38.140625 42.390625 41.71875 45.5625 
Q 45.3125 48.734375 45.3125 54.390625 
Q 45.3125 60.0625 41.71875 63.234375 
Q 38.140625 66.40625 31.78125 66.40625 
Q 25.390625 66.40625 21.84375 63.234375 
Q 18.3125 60.0625 18.3125 54.390625 
z
" id="DejaVuSans-56"/>
      </defs>
      <g transform="translate(324.272597 322.182437)scale(0.1 -0.1)">
       <use xlink:href="#DejaVuSans-56"/>
       <use x="63.623047" xlink:href="#DejaVuSans-48"/>
       <use x="127.246094" xlink:href="#DejaVuSans-48"/>
      </g>
     </g>
    </g>
    <g id="xtick_6">
     <g id="line2d_6">
      <g>
       <use style="stroke:#000000;stroke-width:0.8;" x="398.812252" xlink:href="#m0fa56b13e1" y="307.584"/>
      </g>
     </g>
     <g id="text_6">
      <!-- 1000 -->
      <defs>
       <path d="M 12.40625 8.296875 
L 28.515625 8.296875 
L 28.515625 63.921875 
L 10.984375 60.40625 
L 10.984375 69.390625 
L 28.421875 72.90625 
L 38.28125 72.90625 
L 38.28125 8.296875 
L 54.390625 8.296875 
L 54.390625 0 
L 12.40625 0 
z
" id="DejaVuSans-49"/>
      </defs>
      <g transform="translate(386.087252 322.182437)scale(0.1 -0.1)">
       <use xlink:href="#DejaVuSans-49"/>
       <use x="63.623047" xlink:href="#DejaVuSans-48"/>
       <use x="127.246094" xlink:href="#DejaVuSans-48"/>
       <use x="190.869141" xlink:href="#DejaVuSans-48"/>
      </g>
     </g>
    </g>
    <g id="text_7">
     <!-- Epoch -->
     <defs>
      <path d="M 9.8125 72.90625 
L 55.90625 72.90625 
L 55.90625 64.59375 
L 19.671875 64.59375 
L 19.671875 43.015625 
L 54.390625 43.015625 
L 54.390625 34.71875 
L 19.671875 34.71875 
L 19.671875 8.296875 
L 56.78125 8.296875 
L 56.78125 0 
L 9.8125 0 
z
" id="DejaVuSans-69"/>
      <path d="M 18.109375 8.203125 
L 18.109375 -20.796875 
L 9.078125 -20.796875 
L 9.078125 54.6875 
L 18.109375 54.6875 
L 18.109375 46.390625 
Q 20.953125 51.265625 25.265625 53.625 
Q 29.59375 56 35.59375 56 
Q 45.5625 56 51.78125 48.09375 
Q 58.015625 40.1875 58.015625 27.296875 
Q 58.015625 14.40625 51.78125 6.484375 
Q 45.5625 -1.421875 35.59375 -1.421875 
Q 29.59375 -1.421875 25.265625 0.953125 
Q 20.953125 3.328125 18.109375 8.203125 
z
M 48.6875 27.296875 
Q 48.6875 37.203125 44.609375 42.84375 
Q 40.53125 48.484375 33.40625 48.484375 
Q 26.265625 48.484375 22.1875 42.84375 
Q 18.109375 37.203125 18.109375 27.296875 
Q 18.109375 17.390625 22.1875 11.75 
Q 26.265625 6.109375 33.40625 6.109375 
Q 40.53125 6.109375 44.609375 11.75 
Q 48.6875 17.390625 48.6875 27.296875 
z
" id="DejaVuSans-112"/>
      <path d="M 30.609375 48.390625 
Q 23.390625 48.390625 19.1875 42.75 
Q 14.984375 37.109375 14.984375 27.296875 
Q 14.984375 17.484375 19.15625 11.84375 
Q 23.34375 6.203125 30.609375 6.203125 
Q 37.796875 6.203125 41.984375 11.859375 
Q 46.1875 17.53125 46.1875 27.296875 
Q 46.1875 37.015625 41.984375 42.703125 
Q 37.796875 48.390625 30.609375 48.390625 
z
M 30.609375 56 
Q 42.328125 56 49.015625 48.375 
Q 55.71875 40.765625 55.71875 27.296875 
Q 55.71875 13.875 49.015625 6.21875 
Q 42.328125 -1.421875 30.609375 -1.421875 
Q 18.84375 -1.421875 12.171875 6.21875 
Q 5.515625 13.875 5.515625 27.296875 
Q 5.515625 40.765625 12.171875 48.375 
Q 18.84375 56 30.609375 56 
z
" id="DejaVuSans-111"/>
      <path d="M 48.78125 52.59375 
L 48.78125 44.1875 
Q 44.96875 46.296875 41.140625 47.34375 
Q 37.3125 48.390625 33.40625 48.390625 
Q 24.65625 48.390625 19.8125 42.84375 
Q 14.984375 37.3125 14.984375 27.296875 
Q 14.984375 17.28125 19.8125 11.734375 
Q 24.65625 6.203125 33.40625 6.203125 
Q 37.3125 6.203125 41.140625 7.25 
Q 44.96875 8.296875 48.78125 10.40625 
L 48.78125 2.09375 
Q 45.015625 0.34375 40.984375 -0.53125 
Q 36.96875 -1.421875 32.421875 -1.421875 
Q 20.0625 -1.421875 12.78125 6.34375 
Q 5.515625 14.109375 5.515625 27.296875 
Q 5.515625 40.671875 12.859375 48.328125 
Q 20.21875 56 33.015625 56 
Q 37.15625 56 41.109375 55.140625 
Q 45.0625 54.296875 48.78125 52.59375 
z
" id="DejaVuSans-99"/>
      <path d="M 54.890625 33.015625 
L 54.890625 0 
L 45.90625 0 
L 45.90625 32.71875 
Q 45.90625 40.484375 42.875 44.328125 
Q 39.84375 48.1875 33.796875 48.1875 
Q 26.515625 48.1875 22.3125 43.546875 
Q 18.109375 38.921875 18.109375 30.90625 
L 18.109375 0 
L 9.078125 0 
L 9.078125 75.984375 
L 18.109375 75.984375 
L 18.109375 46.1875 
Q 21.34375 51.125 25.703125 53.5625 
Q 30.078125 56 35.796875 56 
Q 45.21875 56 50.046875 50.171875 
Q 54.890625 44.34375 54.890625 33.015625 
z
" id="DejaVuSans-104"/>
     </defs>
     <g transform="translate(220.849063 335.860562)scale(0.1 -0.1)">
      <use xlink:href="#DejaVuSans-69"/>
      <use x="63.183594" xlink:href="#DejaVuSans-112"/>
      <use x="126.660156" xlink:href="#DejaVuSans-111"/>
      <use x="187.841797" xlink:href="#DejaVuSans-99"/>
      <use x="242.822266" xlink:href="#DejaVuSans-104"/>
     </g>
    </g>
   </g>
   <g id="matplotlib.axis_2">
    <g id="ytick_1">
     <g id="line2d_7">
      <defs>
       <path d="M 0 0 
L -3.5 0 
" id="m7104644867" style="stroke:#000000;stroke-width:0.8;"/>
      </defs>
      <g>
       <use style="stroke:#000000;stroke-width:0.8;" x="57.6" xlink:href="#m7104644867" y="298.216067"/>
      </g>
     </g>
     <g id="text_8">
      <!-- 0.0 -->
      <defs>
       <path d="M 10.6875 12.40625 
L 21 12.40625 
L 21 0 
L 10.6875 0 
z
" id="DejaVuSans-46"/>
      </defs>
      <g transform="translate(34.696875 302.015286)scale(0.1 -0.1)">
       <use xlink:href="#DejaVuSans-48"/>
       <use x="63.623047" xlink:href="#DejaVuSans-46"/>
       <use x="95.410156" xlink:href="#DejaVuSans-48"/>
      </g>
     </g>
    </g>
    <g id="ytick_2">
     <g id="line2d_8">
      <g>
       <use style="stroke:#000000;stroke-width:0.8;" x="57.6" xlink:href="#m7104644867" y="254.941683"/>
      </g>
     </g>
     <g id="text_9">
      <!-- 0.2 -->
      <g transform="translate(34.696875 258.740902)scale(0.1 -0.1)">
       <use xlink:href="#DejaVuSans-48"/>
       <use x="63.623047" xlink:href="#DejaVuSans-46"/>
       <use x="95.410156" xlink:href="#DejaVuSans-50"/>
      </g>
     </g>
    </g>
    <g id="ytick_3">
     <g id="line2d_9">
      <g>
       <use style="stroke:#000000;stroke-width:0.8;" x="57.6" xlink:href="#m7104644867" y="211.667299"/>
      </g>
     </g>
     <g id="text_10">
      <!-- 0.4 -->
      <g transform="translate(34.696875 215.466517)scale(0.1 -0.1)">
       <use xlink:href="#DejaVuSans-48"/>
       <use x="63.623047" xlink:href="#DejaVuSans-46"/>
       <use x="95.410156" xlink:href="#DejaVuSans-52"/>
      </g>
     </g>
    </g>
    <g id="ytick_4">
     <g id="line2d_10">
      <g>
       <use style="stroke:#000000;stroke-width:0.8;" x="57.6" xlink:href="#m7104644867" y="168.392914"/>
      </g>
     </g>
     <g id="text_11">
      <!-- 0.6 -->
      <g transform="translate(34.696875 172.192133)scale(0.1 -0.1)">
       <use xlink:href="#DejaVuSans-48"/>
       <use x="63.623047" xlink:href="#DejaVuSans-46"/>
       <use x="95.410156" xlink:href="#DejaVuSans-54"/>
      </g>
     </g>
    </g>
    <g id="ytick_5">
     <g id="line2d_11">
      <g>
       <use style="stroke:#000000;stroke-width:0.8;" x="57.6" xlink:href="#m7104644867" y="125.11853"/>
      </g>
     </g>
     <g id="text_12">
      <!-- 0.8 -->
      <g transform="translate(34.696875 128.917749)scale(0.1 -0.1)">
       <use xlink:href="#DejaVuSans-48"/>
       <use x="63.623047" xlink:href="#DejaVuSans-46"/>
       <use x="95.410156" xlink:href="#DejaVuSans-56"/>
      </g>
     </g>
    </g>
    <g id="ytick_6">
     <g id="line2d_12">
      <g>
       <use style="stroke:#000000;stroke-width:0.8;" x="57.6" xlink:href="#m7104644867" y="81.844146"/>
      </g>
     </g>
     <g id="text_13">
      <!-- 1.0 -->
      <g transform="translate(34.696875 85.643365)scale(0.1 -0.1)">
       <use xlink:href="#DejaVuSans-49"/>
       <use x="63.623047" xlink:href="#DejaVuSans-46"/>
       <use x="95.410156" xlink:href="#DejaVuSans-48"/>
      </g>
     </g>
    </g>
    <g id="text_14">
     <!-- Loss -->
     <defs>
      <path d="M 9.8125 72.90625 
L 19.671875 72.90625 
L 19.671875 8.296875 
L 55.171875 8.296875 
L 55.171875 0 
L 9.8125 0 
z
" id="DejaVuSans-76"/>
      <path d="M 44.28125 53.078125 
L 44.28125 44.578125 
Q 40.484375 46.53125 36.375 47.5 
Q 32.28125 48.484375 27.875 48.484375 
Q 21.1875 48.484375 17.84375 46.4375 
Q 14.5 44.390625 14.5 40.28125 
Q 14.5 37.15625 16.890625 35.375 
Q 19.28125 33.59375 26.515625 31.984375 
L 29.59375 31.296875 
Q 39.15625 29.25 43.1875 25.515625 
Q 47.21875 21.78125 47.21875 15.09375 
Q 47.21875 7.46875 41.1875 3.015625 
Q 35.15625 -1.421875 24.609375 -1.421875 
Q 20.21875 -1.421875 15.453125 -0.5625 
Q 10.6875 0.296875 5.421875 2 
L 5.421875 11.28125 
Q 10.40625 8.6875 15.234375 7.390625 
Q 20.0625 6.109375 24.8125 6.109375 
Q 31.15625 6.109375 34.5625 8.28125 
Q 37.984375 10.453125 37.984375 14.40625 
Q 37.984375 18.0625 35.515625 20.015625 
Q 33.0625 21.96875 24.703125 23.78125 
L 21.578125 24.515625 
Q 13.234375 26.265625 9.515625 29.90625 
Q 5.8125 33.546875 5.8125 39.890625 
Q 5.8125 47.609375 11.28125 51.796875 
Q 16.75 56 26.8125 56 
Q 31.78125 56 36.171875 55.265625 
Q 40.578125 54.546875 44.28125 53.078125 
z
" id="DejaVuSans-115"/>
     </defs>
     <g transform="translate(28.617188 185.581906)rotate(-90)scale(0.1 -0.1)">
      <use xlink:href="#DejaVuSans-76"/>
      <use x="55.697266" xlink:href="#DejaVuSans-111"/>
      <use x="116.878906" xlink:href="#DejaVuSans-115"/>
      <use x="168.978516" xlink:href="#DejaVuSans-115"/>
     </g>
    </g>
   </g>
   <g id="line2d_13">
    <path clip-path="url(#pbde30e7936)" d="M 73.832727 56.601011 
L 74.157707 59.321637 
L 75.132645 76.496499 
L 76.107584 101.588355 
L 77.732482 140.797803 
L 78.382441 154.68101 
L 79.357379 172.534398 
L 80.332318 181.453418 
L 80.657297 183.611964 
L 80.982277 184.376278 
L 81.632236 187.284152 
L 81.957215 186.537699 
L 82.282195 186.693854 
L 82.932154 184.541124 
L 83.257133 187.677258 
L 83.582113 185.784812 
L 83.907093 186.828457 
L 84.232072 187.116442 
L 84.557052 186.706183 
L 84.882031 187.080473 
L 85.207011 187.698525 
L 85.53199 187.307895 
L 86.831908 190.511788 
L 87.156888 187.510851 
L 87.481867 189.890099 
L 87.806847 189.961741 
L 88.131826 191.543975 
L 88.456806 190.498414 
L 88.781785 188.061182 
L 89.106765 190.288029 
L 89.431744 188.024658 
L 89.756724 189.859082 
L 90.081704 188.829739 
L 90.406683 188.520552 
L 91.056642 190.090463 
L 91.381622 188.143077 
L 91.706601 190.008169 
L 92.031581 190.205947 
L 92.35656 191.255867 
L 92.68154 189.748002 
L 93.006519 191.357977 
L 93.331499 189.995969 
L 93.656478 190.027024 
L 94.306437 191.862841 
L 94.631417 190.510202 
L 94.956396 192.620294 
L 95.281376 191.674251 
L 95.606355 193.218401 
L 95.931335 191.08661 
L 96.256314 191.68168 
L 96.906274 194.457987 
L 97.231253 192.187749 
L 97.556233 196.165694 
L 97.881212 195.281923 
L 98.531171 199.961639 
L 98.856151 200.182548 
L 99.50611 201.909632 
L 99.831089 190.704633 
L 100.156069 189.277722 
L 100.481048 188.615369 
L 100.806028 190.360696 
L 101.131007 190.700532 
L 101.455987 190.5191 
L 101.780966 189.990578 
L 102.105946 188.585294 
L 102.430925 189.223891 
L 102.755905 192.320734 
L 103.080885 194.295249 
L 103.405864 193.497384 
L 103.730844 196.639405 
L 104.055823 197.023 
L 104.380803 200.044624 
L 105.030762 218.597345 
L 105.355741 226.098752 
L 105.680721 239.233353 
L 106.0057 246.60399 
L 106.33068 250.630063 
L 106.980639 265.188822 
L 107.305618 264.28932 
L 107.630598 270.780207 
L 107.955577 148.667375 
L 108.280557 277.316728 
L 108.605536 147.421946 
L 108.930516 154.760957 
L 109.580475 275.409073 
L 109.905455 273.58186 
L 110.230434 266.276181 
L 110.555414 266.525475 
L 111.205373 275.417927 
L 111.530352 269.954811 
L 111.855332 276.217754 
L 112.180311 278.19515 
L 112.505291 277.674146 
L 112.83027 276.444128 
L 113.15525 276.587124 
L 113.805209 277.303341 
L 114.130188 277.464196 
L 114.455168 277.886151 
L 114.780147 278.028464 
L 115.430106 280.275584 
L 115.755086 280.638774 
L 116.080066 281.474926 
L 116.730025 281.964181 
L 117.055004 281.968024 
L 117.379984 282.352529 
L 117.704963 281.833785 
L 118.029943 282.215489 
L 118.354922 283.914486 
L 118.679902 283.144386 
L 119.004881 283.758264 
L 119.329861 284.9625 
L 119.97982 282.707038 
L 120.304799 284.904309 
L 120.629779 285.613634 
L 120.954758 283.478209 
L 121.604717 285.287778 
L 121.929697 285.175747 
L 122.579656 285.473257 
L 122.904636 284.935408 
L 123.229615 285.827538 
L 123.554595 286.091033 
L 123.879574 284.694906 
L 124.204554 286.158603 
L 124.529533 286.676869 
L 125.504472 285.900006 
L 125.829451 285.880436 
L 126.154431 286.672554 
L 126.47941 286.776042 
L 126.80439 286.522055 
L 127.129369 287.977793 
L 127.454349 287.204065 
L 127.779328 287.144538 
L 128.104308 284.845461 
L 128.429287 285.066137 
L 128.754267 286.038829 
L 129.079247 286.628046 
L 129.404226 285.71568 
L 129.729206 285.531882 
L 130.054185 284.938545 
L 130.704144 285.9434 
L 131.029124 286.977778 
L 131.354103 286.17009 
L 131.679083 286.910295 
L 132.004062 287.07527 
L 132.329042 285.712562 
L 132.654021 286.494732 
L 132.979001 287.658463 
L 133.30398 287.16876 
L 133.62896 288.033297 
L 133.953939 286.954729 
L 134.278919 287.184908 
L 134.928878 287.862302 
L 135.253857 289.007414 
L 135.578837 285.132554 
L 135.903817 285.914309 
L 136.228796 281.406878 
L 136.553776 128.380456 
L 136.878755 285.883064 
L 137.203735 53.568 
L 137.528714 67.514053 
L 137.853694 57.383432 
L 138.178673 106.68672 
L 138.503653 131.393864 
L 139.153612 163.186715 
L 140.12855 212.163359 
L 140.45353 219.26278 
L 140.778509 221.891909 
L 141.103489 218.308761 
L 142.078428 248.131552 
L 143.053366 262.171132 
L 143.378346 263.33089 
L 144.353284 268.322482 
L 144.678264 269.210441 
L 145.003243 271.888356 
L 145.328223 272.969979 
L 145.978182 276.249699 
L 146.628141 277.212117 
L 146.95312 278.614177 
L 147.2781 277.694179 
L 147.603079 280.703336 
L 147.928059 279.420928 
L 148.253038 280.053653 
L 148.578018 278.489591 
L 148.902998 280.863914 
L 149.227977 280.044843 
L 149.552957 281.658318 
L 150.202916 282.737871 
L 150.527895 280.729776 
L 150.852875 282.092917 
L 151.177854 280.587246 
L 151.502834 278.554131 
L 151.827813 284.143486 
L 152.477772 280.547382 
L 152.802752 281.339603 
L 153.452711 284.669231 
L 153.77769 284.554661 
L 154.10267 283.159488 
L 154.427649 283.256073 
L 154.752629 281.964052 
L 155.077609 282.709186 
L 155.402588 284.239347 
L 156.052547 281.65303 
L 156.377527 282.376075 
L 157.027486 284.45847 
L 157.352465 283.188635 
L 157.677445 283.869911 
L 158.002424 283.398834 
L 158.652383 286.113237 
L 158.977363 282.591209 
L 159.302342 285.693647 
L 159.627322 285.096307 
L 159.952301 284.039273 
L 160.60226 285.47977 
L 160.92724 283.982489 
L 161.252219 284.421406 
L 161.577199 285.846907 
L 161.902179 285.872065 
L 162.227158 285.643176 
L 162.552138 285.10372 
L 162.877117 286.455529 
L 163.202097 285.917117 
L 163.527076 286.241722 
L 163.852056 284.907017 
L 164.177035 286.125444 
L 164.502015 286.342538 
L 164.826994 286.827101 
L 165.151974 285.554808 
L 165.476953 286.25 
L 165.801933 285.020068 
L 166.126912 287.754582 
L 166.451892 287.325843 
L 166.776871 288.366666 
L 167.101851 288.446068 
L 167.42683 287.388532 
L 167.75181 288.205625 
L 168.07679 286.82249 
L 168.401769 287.010869 
L 168.726749 285.534891 
L 169.051728 285.103161 
L 169.376708 282.570246 
L 169.701687 283.05377 
L 170.026667 285.619303 
L 170.351646 281.63654 
L 170.676626 283.599577 
L 171.001605 286.684887 
L 171.326585 281.573462 
L 171.651564 283.609142 
L 171.976544 284.213602 
L 172.301523 283.44273 
L 172.626503 281.546489 
L 173.276462 285.548786 
L 173.601441 287.009906 
L 174.2514 284.213473 
L 174.57638 285.94553 
L 174.90136 285.164655 
L 175.226339 283.609725 
L 175.551319 284.662737 
L 175.876298 286.206667 
L 176.201278 287.069173 
L 176.526257 284.811413 
L 176.851237 286.551011 
L 177.176216 285.510149 
L 177.501196 286.74619 
L 177.826175 284.198615 
L 178.151155 284.598845 
L 178.476134 286.559605 
L 178.801114 286.842218 
L 179.451073 284.433665 
L 179.776052 286.804341 
L 180.101032 286.376205 
L 180.426011 285.737996 
L 180.750991 287.10794 
L 181.075971 286.66721 
L 181.40095 287.184947 
L 181.72593 285.968078 
L 182.050909 286.928721 
L 182.375889 287.045229 
L 182.700868 286.930928 
L 183.350827 288.203509 
L 183.675807 286.910061 
L 184.000786 287.358609 
L 184.325766 286.759066 
L 184.650745 287.013189 
L 184.975725 288.277798 
L 185.300704 287.471577 
L 185.625684 288.97602 
L 185.950663 285.97558 
L 186.275643 288.191459 
L 186.600622 288.46797 
L 186.925602 286.897676 
L 187.250581 287.86641 
L 188.22552 288.797256 
L 188.5505 287.470809 
L 188.875479 289.034968 
L 189.200459 289.052895 
L 189.525438 288.074579 
L 190.175397 289.027434 
L 190.500377 288.32386 
L 190.825356 290.33684 
L 191.150336 288.600846 
L 191.475315 288.626954 
L 192.125274 289.791178 
L 192.450254 288.19184 
L 192.775233 289.880488 
L 193.100213 290.116108 
L 193.425192 289.740982 
L 193.750172 290.458875 
L 194.075152 287.750488 
L 194.400131 289.959994 
L 195.05009 289.373183 
L 195.37507 290.523064 
L 195.700049 289.989126 
L 196.025029 291.491017 
L 196.350008 290.138992 
L 196.674988 290.557163 
L 196.999967 290.549284 
L 197.324947 290.800367 
L 197.649926 290.762106 
L 197.974906 290.87089 
L 198.299885 290.565342 
L 198.949844 290.547553 
L 199.274824 290.201298 
L 199.599803 290.901162 
L 199.924783 290.5448 
L 200.249762 289.154286 
L 200.574742 289.418719 
L 200.899722 290.052986 
L 201.224701 288.918386 
L 201.549681 289.093335 
L 201.87466 289.111995 
L 202.19964 287.97641 
L 202.524619 287.816961 
L 202.849599 287.16431 
L 203.174578 287.975958 
L 203.499558 287.737059 
L 204.474496 289.29655 
L 204.799476 289.414873 
L 205.124455 289.132948 
L 205.449435 288.26228 
L 205.774414 290.093744 
L 206.099394 288.121891 
L 206.749353 290.359794 
L 207.074333 289.862004 
L 207.399312 289.639328 
L 207.724292 290.737678 
L 208.049271 290.073227 
L 208.374251 289.090291 
L 208.69923 290.666417 
L 209.02421 289.474145 
L 209.674169 291.046549 
L 209.999148 290.521395 
L 210.324128 290.775243 
L 210.974087 290.369535 
L 211.299066 290.554541 
L 211.624046 291.705748 
L 211.949025 290.845495 
L 212.274005 291.568031 
L 212.598984 291.770908 
L 213.248943 290.672628 
L 213.573923 290.789498 
L 213.898903 290.740337 
L 214.223882 292.114765 
L 215.198821 290.665974 
L 215.5238 289.274699 
L 215.84878 288.920311 
L 216.173759 288.986393 
L 216.498739 289.558989 
L 216.823718 289.71577 
L 217.148698 289.154587 
L 217.473677 289.758019 
L 217.798657 289.787036 
L 218.123636 290.51799 
L 218.448616 290.777768 
L 218.773595 291.186654 
L 219.423554 290.556686 
L 219.748534 290.768799 
L 220.073514 290.380398 
L 220.398493 290.861474 
L 220.723473 290.458485 
L 221.048452 291.384091 
L 221.373432 290.636891 
L 221.698411 291.106048 
L 222.023391 290.751069 
L 222.34837 291.813614 
L 222.998329 291.247688 
L 223.648288 292.470827 
L 223.973268 292.321376 
L 224.298247 291.82004 
L 224.623227 292.089147 
L 224.948206 291.6247 
L 225.273186 291.411019 
L 225.598165 292.178449 
L 226.248124 292.427571 
L 226.573104 291.262789 
L 226.898084 292.107412 
L 227.223063 292.474762 
L 227.548043 292.648538 
L 227.873022 292.27713 
L 228.198002 292.741069 
L 228.522981 292.986814 
L 228.847961 292.43794 
L 229.17294 291.582751 
L 229.49792 292.352444 
L 229.822899 292.605024 
L 230.472858 292.206763 
L 230.797838 292.309656 
L 231.122817 293.038275 
L 231.447797 292.52733 
L 232.097756 292.189351 
L 232.422735 292.960462 
L 232.747715 291.848115 
L 233.072695 292.726928 
L 233.397674 292.791972 
L 233.722654 293.393006 
L 234.047633 292.274328 
L 234.372613 292.108052 
L 234.697592 292.871444 
L 235.022572 293.129132 
L 235.347551 292.177769 
L 235.672531 292.769297 
L 235.99751 291.913407 
L 236.32249 292.056614 
L 236.972449 292.013169 
L 237.297428 292.481669 
L 237.622408 292.593897 
L 237.947387 293.063622 
L 238.272367 292.465263 
L 238.597346 292.433582 
L 238.922326 291.657555 
L 239.247305 292.015155 
L 239.572285 290.478603 
L 239.897265 290.025407 
L 240.222244 290.367838 
L 240.872203 290.132181 
L 241.197183 287.798231 
L 241.522162 288.932295 
L 241.847142 287.232073 
L 242.172121 287.873432 
L 242.82208 288.421969 
L 243.14706 287.529509 
L 243.472039 288.344628 
L 244.121998 288.590417 
L 244.446978 289.035069 
L 245.096937 288.966261 
L 245.421916 289.854821 
L 245.746896 289.26705 
L 246.071876 289.807151 
L 246.396855 289.572966 
L 247.046814 289.521308 
L 247.371794 290.247662 
L 248.021753 290.406527 
L 248.346732 290.546647 
L 248.671712 291.440779 
L 248.996691 291.065199 
L 249.64665 291.374996 
L 249.97163 291.74784 
L 250.296609 291.625139 
L 250.621589 291.622853 
L 250.946568 290.918115 
L 251.271548 291.138674 
L 251.596527 290.811328 
L 252.246486 292.948916 
L 252.571466 291.809041 
L 252.896446 292.427796 
L 253.221425 291.798851 
L 253.546405 292.329898 
L 253.871384 292.317868 
L 254.196364 292.859056 
L 254.521343 292.34571 
L 254.846323 292.880144 
L 255.171302 292.554685 
L 255.496282 291.924164 
L 256.146241 292.730548 
L 256.47122 292.767008 
L 256.7962 292.294253 
L 257.121179 292.456518 
L 257.446159 292.33551 
L 257.771138 292.985813 
L 258.096118 292.41182 
L 258.421097 292.523751 
L 258.746077 292.78818 
L 259.071057 292.295031 
L 259.396036 293.301903 
L 259.721016 293.088594 
L 260.045995 293.155906 
L 260.370975 292.708654 
L 260.695954 292.637886 
L 261.345913 292.915493 
L 261.670893 293.23005 
L 261.995872 292.923976 
L 262.320852 292.839148 
L 262.645831 292.610846 
L 262.970811 293.409669 
L 263.29579 293.721678 
L 263.62077 293.510822 
L 263.945749 293.154742 
L 264.270729 293.141127 
L 264.595708 292.501065 
L 264.920688 293.491875 
L 265.245667 293.222866 
L 266.220606 293.355839 
L 266.545586 293.950039 
L 266.870565 293.514656 
L 267.195545 292.704723 
L 267.520524 293.447595 
L 268.170483 293.142716 
L 268.820442 293.631696 
L 269.145422 293.100254 
L 269.795381 293.220458 
L 270.12036 292.923318 
L 270.44534 293.698984 
L 270.770319 293.015804 
L 271.095299 293.536809 
L 271.420278 293.0425 
L 271.745258 293.497293 
L 273.045176 293.663099 
L 273.370156 293.837305 
L 273.695135 293.416454 
L 274.020115 293.890186 
L 274.345094 293.300256 
L 274.670074 293.380607 
L 274.995053 293.745052 
L 275.320033 293.577647 
L 275.645012 293.589803 
L 275.969992 293.717087 
L 276.294971 293.711118 
L 276.619951 293.370162 
L 276.94493 293.500614 
L 277.26991 293.478246 
L 277.594889 293.854271 
L 278.244848 293.427016 
L 278.569828 294.133702 
L 279.219787 293.461868 
L 279.544767 293.638364 
L 279.869746 293.615052 
L 280.194726 293.958719 
L 280.519705 293.526533 
L 280.844685 293.862274 
L 281.819623 293.01658 
L 282.144603 294.043927 
L 282.469582 293.827707 
L 282.794562 291.248822 
L 283.119541 291.907027 
L 283.444521 288.13811 
L 283.7695 289.48682 
L 284.09448 289.037455 
L 284.419459 289.181689 
L 284.744439 288.985463 
L 285.069419 289.157226 
L 285.719378 289.718185 
L 286.044357 289.770312 
L 286.369337 289.204748 
L 286.694316 290.31852 
L 287.019296 289.627667 
L 287.344275 291.01448 
L 287.669255 290.139965 
L 287.994234 291.373532 
L 288.319214 290.73968 
L 288.644193 290.904078 
L 288.969173 291.274337 
L 289.294152 292.206981 
L 289.619132 291.717279 
L 289.944111 292.375242 
L 290.269091 292.162261 
L 290.59407 292.164698 
L 291.244029 292.590507 
L 291.569009 292.153128 
L 291.893989 291.958838 
L 292.218968 292.761552 
L 292.543948 292.427531 
L 292.868927 292.42914 
L 293.193907 293.0666 
L 293.518886 292.795076 
L 294.818804 292.559486 
L 295.143784 293.141697 
L 295.468763 292.979766 
L 295.793743 293.005932 
L 296.118722 293.407753 
L 296.443702 292.640726 
L 296.768681 292.377624 
L 297.41864 292.389349 
L 297.74362 293.048074 
L 298.0686 293.27183 
L 298.393579 293.3398 
L 298.718559 293.063243 
L 299.043538 293.183888 
L 299.368518 292.884523 
L 299.693497 293.54484 
L 300.018477 293.293561 
L 300.343456 293.951175 
L 300.993415 292.739113 
L 301.318395 292.962188 
L 301.643374 293.829942 
L 301.968354 293.084272 
L 302.293333 293.675118 
L 302.618313 292.333326 
L 302.943292 293.260684 
L 303.268272 292.710877 
L 303.593251 293.14695 
L 303.918231 293.255056 
L 304.24321 293.497789 
L 304.56819 292.88412 
L 304.89317 293.618552 
L 305.218149 293.786987 
L 305.868108 293.183427 
L 306.193088 293.78839 
L 306.518067 294.019605 
L 306.843047 293.584747 
L 307.168026 293.83211 
L 307.493006 293.339178 
L 308.142965 294.226711 
L 308.467944 293.720108 
L 308.792924 293.621377 
L 309.117903 294.003992 
L 309.767862 293.96735 
L 310.092842 293.626997 
L 310.417821 294.190421 
L 310.742801 294.084904 
L 311.067781 293.846542 
L 311.39276 294.251876 
L 311.71774 293.979381 
L 312.042719 294.05095 
L 312.367699 294.359268 
L 312.692678 293.687166 
L 313.017658 294.189101 
L 313.342637 294.2844 
L 314.317576 293.75967 
L 314.642555 294.503134 
L 314.967535 294.022831 
L 315.292514 294.322363 
L 315.617494 294.144859 
L 315.942473 294.230348 
L 316.267453 294.117241 
L 316.592432 294.420076 
L 316.917412 294.4848 
L 317.242391 294.154663 
L 317.567371 294.276588 
L 317.892351 294.24543 
L 318.21733 293.95455 
L 318.54231 294.250424 
L 318.867289 294.277791 
L 319.192269 294.572163 
L 319.517248 294.34608 
L 319.842228 293.945311 
L 320.167207 294.388767 
L 320.492187 294.559153 
L 320.817166 294.241518 
L 321.142146 294.365315 
L 321.467125 294.335945 
L 321.792105 293.927886 
L 322.117084 294.633377 
L 322.442064 293.562233 
L 322.767043 294.412711 
L 323.092023 294.473321 
L 323.417002 294.167507 
L 323.741982 294.199254 
L 324.391941 294.434885 
L 324.716921 294.335088 
L 325.0419 293.66602 
L 325.36688 294.202632 
L 325.691859 294.145232 
L 326.016839 294.285683 
L 326.341818 294.204163 
L 326.666798 294.758463 
L 326.991777 294.525072 
L 327.316757 293.970344 
L 327.641736 294.177896 
L 327.966716 294.736219 
L 328.291695 293.600901 
L 328.616675 294.148554 
L 328.941654 294.066671 
L 329.266634 293.693443 
L 329.591613 293.758977 
L 329.916593 294.187365 
L 330.241572 293.410584 
L 330.566552 293.370254 
L 330.891532 293.128612 
L 331.216511 293.149168 
L 331.541491 292.965184 
L 331.86647 293.252173 
L 332.19145 293.304967 
L 332.516429 293.193032 
L 332.841409 294.069277 
L 333.166388 293.779878 
L 333.491368 294.327406 
L 333.816347 293.636218 
L 334.141327 294.319197 
L 334.466306 294.235826 
L 335.116265 294.230098 
L 336.091204 294.086871 
L 336.416183 294.621022 
L 337.391122 294.21017 
L 337.716102 294.407945 
L 338.366061 294.222295 
L 339.340999 294.675836 
L 339.665979 294.346463 
L 339.990958 294.847751 
L 340.315938 295.03029 
L 340.640917 294.487731 
L 341.290876 294.38661 
L 341.615856 294.61153 
L 341.940835 294.559876 
L 342.265815 294.762662 
L 342.915774 294.401913 
L 343.565733 294.938111 
L 344.215692 294.303307 
L 344.540672 294.636687 
L 344.865651 294.484635 
L 345.190631 294.61756 
L 345.51561 294.614257 
L 346.165569 294.45108 
L 347.140508 294.723283 
L 347.465487 294.419888 
L 347.790467 294.580047 
L 348.115446 294.882694 
L 348.440426 294.660578 
L 349.415364 294.841177 
L 349.740344 295.004684 
L 350.065324 294.340562 
L 351.040262 293.066461 
L 352.015201 293.302767 
L 352.34018 292.833554 
L 352.990139 294.495523 
L 353.315119 293.932772 
L 353.640098 294.294353 
L 353.965078 293.511377 
L 354.290057 293.596433 
L 354.615037 294.370374 
L 354.940016 294.30342 
L 355.264996 293.875857 
L 355.589975 294.641558 
L 355.914955 294.485499 
L 356.239934 294.201962 
L 356.564914 294.425127 
L 356.889894 293.822464 
L 357.214873 293.776397 
L 357.539853 294.179927 
L 357.864832 294.164987 
L 358.189812 294.362914 
L 358.514791 294.291335 
L 358.839771 294.4434 
L 359.16475 294.26968 
L 359.48973 294.637534 
L 359.814709 294.559753 
L 360.139689 294.321962 
L 360.789648 294.73411 
L 361.114627 294.304581 
L 361.439607 294.541617 
L 361.764586 295.179395 
L 362.089566 294.740002 
L 362.414545 295.005107 
L 362.739525 294.132466 
L 363.064505 294.514766 
L 363.389484 294.529569 
L 363.714464 294.766042 
L 364.039443 294.546288 
L 364.689402 295.311663 
L 365.339361 294.632362 
L 365.664341 294.446272 
L 366.3143 295.126563 
L 366.639279 294.767665 
L 366.964259 294.652896 
L 367.614218 295.288348 
L 367.939197 294.909808 
L 368.264177 294.737501 
L 368.589156 294.812367 
L 368.914136 295.020228 
L 369.239115 294.648589 
L 369.564095 294.702682 
L 369.889075 295.134008 
L 370.214054 294.830289 
L 370.539034 295.041089 
L 370.864013 295.088003 
L 371.188993 294.674428 
L 371.513972 294.99624 
L 371.838952 294.759266 
L 372.163931 294.75883 
L 372.488911 294.963215 
L 373.13887 294.816713 
L 373.463849 294.956521 
L 374.438788 294.619368 
L 374.763767 294.879898 
L 375.088747 294.692594 
L 375.413726 295.037064 
L 375.738706 295.083694 
L 376.063686 294.511883 
L 376.388665 295.046121 
L 376.713645 294.820014 
L 377.363604 295.033418 
L 377.688583 295.013992 
L 378.013563 294.804069 
L 378.338542 294.868461 
L 378.663522 294.733591 
L 378.988501 294.356822 
L 379.313481 294.425268 
L 379.96344 293.956532 
L 380.288419 294.62273 
L 380.613399 294.808057 
L 380.938378 294.463824 
L 381.263358 294.301914 
L 381.913317 294.329294 
L 382.238296 294.606717 
L 382.563276 294.626937 
L 382.888256 294.868863 
L 383.213235 294.723617 
L 383.538215 294.974307 
L 384.513153 294.799567 
L 385.488092 295.067927 
L 386.138051 294.543774 
L 386.46303 294.93862 
L 387.112989 294.75872 
L 387.437969 294.739256 
L 387.762948 295.012212 
L 388.087928 295.104198 
L 388.737887 295.146729 
L 389.062867 295.443 
L 389.712826 294.980279 
L 390.037805 295.186265 
L 390.687764 295.063787 
L 391.012744 295.45344 
L 391.337723 294.88744 
L 391.987682 295.232675 
L 393.2876 295.080096 
L 393.61258 295.314396 
L 393.937559 295.066301 
L 395.237477 295.488 
L 395.562457 295.181328 
L 395.887437 295.305792 
L 396.862375 295.323495 
L 397.187355 295.071857 
L 397.512334 295.340918 
L 398.162293 295.291157 
L 398.487273 295.098965 
L 398.487273 295.098965 
" style="fill:none;stroke:#1f77b4;stroke-linecap:square;stroke-width:1.5;"/>
   </g>
   <g id="patch_3">
    <path d="M 57.6 307.584 
L 57.6 41.472 
" style="fill:none;stroke:#000000;stroke-linecap:square;stroke-linejoin:miter;stroke-width:0.8;"/>
   </g>
   <g id="patch_4">
    <path d="M 414.72 307.584 
L 414.72 41.472 
" style="fill:none;stroke:#000000;stroke-linecap:square;stroke-linejoin:miter;stroke-width:0.8;"/>
   </g>
   <g id="patch_5">
    <path d="M 57.6 307.584 
L 414.72 307.584 
" style="fill:none;stroke:#000000;stroke-linecap:square;stroke-linejoin:miter;stroke-width:0.8;"/>
   </g>
   <g id="patch_6">
    <path d="M 57.6 41.472 
L 414.72 41.472 
" style="fill:none;stroke:#000000;stroke-linecap:square;stroke-linejoin:miter;stroke-width:0.8;"/>
   </g>
   <g id="text_15">
    <!-- Training Loss -->
    <defs>
     <path d="M -0.296875 72.90625 
L 61.375 72.90625 
L 61.375 64.59375 
L 35.5 64.59375 
L 35.5 0 
L 25.59375 0 
L 25.59375 64.59375 
L -0.296875 64.59375 
z
" id="DejaVuSans-84"/>
     <path d="M 41.109375 46.296875 
Q 39.59375 47.171875 37.8125 47.578125 
Q 36.03125 48 33.890625 48 
Q 26.265625 48 22.1875 43.046875 
Q 18.109375 38.09375 18.109375 28.8125 
L 18.109375 0 
L 9.078125 0 
L 9.078125 54.6875 
L 18.109375 54.6875 
L 18.109375 46.1875 
Q 20.953125 51.171875 25.484375 53.578125 
Q 30.03125 56 36.53125 56 
Q 37.453125 56 38.578125 55.875 
Q 39.703125 55.765625 41.0625 55.515625 
z
" id="DejaVuSans-114"/>
     <path d="M 34.28125 27.484375 
Q 23.390625 27.484375 19.1875 25 
Q 14.984375 22.515625 14.984375 16.5 
Q 14.984375 11.71875 18.140625 8.90625 
Q 21.296875 6.109375 26.703125 6.109375 
Q 34.1875 6.109375 38.703125 11.40625 
Q 43.21875 16.703125 43.21875 25.484375 
L 43.21875 27.484375 
z
M 52.203125 31.203125 
L 52.203125 0 
L 43.21875 0 
L 43.21875 8.296875 
Q 40.140625 3.328125 35.546875 0.953125 
Q 30.953125 -1.421875 24.3125 -1.421875 
Q 15.921875 -1.421875 10.953125 3.296875 
Q 6 8.015625 6 15.921875 
Q 6 25.140625 12.171875 29.828125 
Q 18.359375 34.515625 30.609375 34.515625 
L 43.21875 34.515625 
L 43.21875 35.40625 
Q 43.21875 41.609375 39.140625 45 
Q 35.0625 48.390625 27.6875 48.390625 
Q 23 48.390625 18.546875 47.265625 
Q 14.109375 46.140625 10.015625 43.890625 
L 10.015625 52.203125 
Q 14.9375 54.109375 19.578125 55.046875 
Q 24.21875 56 28.609375 56 
Q 40.484375 56 46.34375 49.84375 
Q 52.203125 43.703125 52.203125 31.203125 
z
" id="DejaVuSans-97"/>
     <path d="M 9.421875 54.6875 
L 18.40625 54.6875 
L 18.40625 0 
L 9.421875 0 
z
M 9.421875 75.984375 
L 18.40625 75.984375 
L 18.40625 64.59375 
L 9.421875 64.59375 
z
" id="DejaVuSans-105"/>
     <path d="M 54.890625 33.015625 
L 54.890625 0 
L 45.90625 0 
L 45.90625 32.71875 
Q 45.90625 40.484375 42.875 44.328125 
Q 39.84375 48.1875 33.796875 48.1875 
Q 26.515625 48.1875 22.3125 43.546875 
Q 18.109375 38.921875 18.109375 30.90625 
L 18.109375 0 
L 9.078125 0 
L 9.078125 54.6875 
L 18.109375 54.6875 
L 18.109375 46.1875 
Q 21.34375 51.125 25.703125 53.5625 
Q 30.078125 56 35.796875 56 
Q 45.21875 56 50.046875 50.171875 
Q 54.890625 44.34375 54.890625 33.015625 
z
" id="DejaVuSans-110"/>
     <path d="M 45.40625 27.984375 
Q 45.40625 37.75 41.375 43.109375 
Q 37.359375 48.484375 30.078125 48.484375 
Q 22.859375 48.484375 18.828125 43.109375 
Q 14.796875 37.75 14.796875 27.984375 
Q 14.796875 18.265625 18.828125 12.890625 
Q 22.859375 7.515625 30.078125 7.515625 
Q 37.359375 7.515625 41.375 12.890625 
Q 45.40625 18.265625 45.40625 27.984375 
z
M 54.390625 6.78125 
Q 54.390625 -7.171875 48.1875 -13.984375 
Q 42 -20.796875 29.203125 -20.796875 
Q 24.46875 -20.796875 20.265625 -20.09375 
Q 16.0625 -19.390625 12.109375 -17.921875 
L 12.109375 -9.1875 
Q 16.0625 -11.328125 19.921875 -12.34375 
Q 23.78125 -13.375 27.78125 -13.375 
Q 36.625 -13.375 41.015625 -8.765625 
Q 45.40625 -4.15625 45.40625 5.171875 
L 45.40625 9.625 
Q 42.625 4.78125 38.28125 2.390625 
Q 33.9375 0 27.875 0 
Q 17.828125 0 11.671875 7.65625 
Q 5.515625 15.328125 5.515625 27.984375 
Q 5.515625 40.671875 11.671875 48.328125 
Q 17.828125 56 27.875 56 
Q 33.9375 56 38.28125 53.609375 
Q 42.625 51.21875 45.40625 46.390625 
L 45.40625 54.6875 
L 54.390625 54.6875 
z
" id="DejaVuSans-103"/>
     <path id="DejaVuSans-32"/>
    </defs>
    <g transform="translate(196.445625 35.472)scale(0.12 -0.12)">
     <use xlink:href="#DejaVuSans-84"/>
     <use x="60.865234" xlink:href="#DejaVuSans-114"/>
     <use x="101.978516" xlink:href="#DejaVuSans-97"/>
     <use x="163.257812" xlink:href="#DejaVuSans-105"/>
     <use x="191.041016" xlink:href="#DejaVuSans-110"/>
     <use x="254.419922" xlink:href="#DejaVuSans-105"/>
     <use x="282.203125" xlink:href="#DejaVuSans-110"/>
     <use x="345.582031" xlink:href="#DejaVuSans-103"/>
     <use x="409.058594" xlink:href="#DejaVuSans-32"/>
     <use x="440.845703" xlink:href="#DejaVuSans-76"/>
     <use x="496.542969" xlink:href="#DejaVuSans-111"/>
     <use x="557.724609" xlink:href="#DejaVuSans-115"/>
     <use x="609.824219" xlink:href="#DejaVuSans-115"/>
    </g>
   </g>
  </g>
 </g>
 <defs>
  <clipPath id="pbde30e7936">
   <rect height="266.112" width="357.12" x="57.6" y="41.472"/>
  </clipPath>
 </defs>
</svg>
