<?xml version="1.0" encoding="utf-8" standalone="no"?>
<!DOCTYPE svg PUBLIC "-//W3C//DTD SVG 1.1//EN"
  "http://www.w3.org/Graphics/SVG/1.1/DTD/svg11.dtd">
<!-- Created with matplotlib (https://matplotlib.org/) -->
<svg height="345.6pt" version="1.1" viewBox="0 0 460.8 345.6" width="460.8pt" xmlns="http://www.w3.org/2000/svg" xmlns:xlink="http://www.w3.org/1999/xlink">
 <defs>
  <style type="text/css">
*{stroke-linecap:butt;stroke-linejoin:round;}
  </style>
 </defs>
 <g id="figure_1">
  <g id="patch_1">
   <path d="M 0 345.6 
L 460.8 345.6 
L 460.8 0 
L 0 0 
z
" style="fill:#ffffff;"/>
  </g>
  <g id="axes_1">
   <g id="patch_2">
    <path d="M 57.6 307.584 
L 414.72 307.584 
L 414.72 41.472 
L 57.6 41.472 
z
" style="fill:#ffffff;"/>
   </g>
   <g id="matplotlib.axis_1">
    <g id="xtick_1">
     <g id="line2d_1">
      <defs>
       <path d="M 0 0 
L 0 3.5 
" id="m37ae4bb052" style="stroke:#000000;stroke-width:0.8;"/>
      </defs>
      <g>
       <use style="stroke:#000000;stroke-width:0.8;" x="73.832727" xlink:href="#m37ae4bb052" y="307.584"/>
      </g>
     </g>
     <g id="text_1">
      <!-- 0 -->
      <defs>
       <path d="M 31.78125 66.40625 
Q 24.171875 66.40625 20.328125 58.90625 
Q 16.5 51.421875 16.5 36.375 
Q 16.5 21.390625 20.328125 13.890625 
Q 24.171875 6.390625 31.78125 6.390625 
Q 39.453125 6.390625 43.28125 13.890625 
Q 47.125 21.390625 47.125 36.375 
Q 47.125 51.421875 43.28125 58.90625 
Q 39.453125 66.40625 31.78125 66.40625 
z
M 31.78125 74.21875 
Q 44.046875 74.21875 50.515625 64.515625 
Q 56.984375 54.828125 56.984375 36.375 
Q 56.984375 17.96875 50.515625 8.265625 
Q 44.046875 -1.421875 31.78125 -1.421875 
Q 19.53125 -1.421875 13.0625 8.265625 
Q 6.59375 17.96875 6.59375 36.375 
Q 6.59375 54.828125 13.0625 64.515625 
Q 19.53125 74.21875 31.78125 74.21875 
z
" id="DejaVuSans-48"/>
      </defs>
      <g transform="translate(70.651477 322.182437)scale(0.1 -0.1)">
       <use xlink:href="#DejaVuSans-48"/>
      </g>
     </g>
    </g>
    <g id="xtick_2">
     <g id="line2d_2">
      <g>
       <use style="stroke:#000000;stroke-width:0.8;" x="138.828632" xlink:href="#m37ae4bb052" y="307.584"/>
      </g>
     </g>
     <g id="text_2">
      <!-- 200 -->
      <defs>
       <path d="M 19.1875 8.296875 
L 53.609375 8.296875 
L 53.609375 0 
L 7.328125 0 
L 7.328125 8.296875 
Q 12.9375 14.109375 22.625 23.890625 
Q 32.328125 33.6875 34.8125 36.53125 
Q 39.546875 41.84375 41.421875 45.53125 
Q 43.3125 49.21875 43.3125 52.78125 
Q 43.3125 58.59375 39.234375 62.25 
Q 35.15625 65.921875 28.609375 65.921875 
Q 23.96875 65.921875 18.8125 64.3125 
Q 13.671875 62.703125 7.8125 59.421875 
L 7.8125 69.390625 
Q 13.765625 71.78125 18.9375 73 
Q 24.125 74.21875 28.421875 74.21875 
Q 39.75 74.21875 46.484375 68.546875 
Q 53.21875 62.890625 53.21875 53.421875 
Q 53.21875 48.921875 51.53125 44.890625 
Q 49.859375 40.875 45.40625 35.40625 
Q 44.1875 33.984375 37.640625 27.21875 
Q 31.109375 20.453125 19.1875 8.296875 
z
" id="DejaVuSans-50"/>
      </defs>
      <g transform="translate(129.284882 322.182437)scale(0.1 -0.1)">
       <use xlink:href="#DejaVuSans-50"/>
       <use x="63.623047" xlink:href="#DejaVuSans-48"/>
       <use x="127.246094" xlink:href="#DejaVuSans-48"/>
      </g>
     </g>
    </g>
    <g id="xtick_3">
     <g id="line2d_3">
      <g>
       <use style="stroke:#000000;stroke-width:0.8;" x="203.824537" xlink:href="#m37ae4bb052" y="307.584"/>
      </g>
     </g>
     <g id="text_3">
      <!-- 400 -->
      <defs>
       <path d="M 37.796875 64.3125 
L 12.890625 25.390625 
L 37.796875 25.390625 
z
M 35.203125 72.90625 
L 47.609375 72.90625 
L 47.609375 25.390625 
L 58.015625 25.390625 
L 58.015625 17.1875 
L 47.609375 17.1875 
L 47.609375 0 
L 37.796875 0 
L 37.796875 17.1875 
L 4.890625 17.1875 
L 4.890625 26.703125 
z
" id="DejaVuSans-52"/>
      </defs>
      <g transform="translate(194.280787 322.182437)scale(0.1 -0.1)">
       <use xlink:href="#DejaVuSans-52"/>
       <use x="63.623047" xlink:href="#DejaVuSans-48"/>
       <use x="127.246094" xlink:href="#DejaVuSans-48"/>
      </g>
     </g>
    </g>
    <g id="xtick_4">
     <g id="line2d_4">
      <g>
       <use style="stroke:#000000;stroke-width:0.8;" x="268.820442" xlink:href="#m37ae4bb052" y="307.584"/>
      </g>
     </g>
     <g id="text_4">
      <!-- 600 -->
      <defs>
       <path d="M 33.015625 40.375 
Q 26.375 40.375 22.484375 35.828125 
Q 18.609375 31.296875 18.609375 23.390625 
Q 18.609375 15.53125 22.484375 10.953125 
Q 26.375 6.390625 33.015625 6.390625 
Q 39.65625 6.390625 43.53125 10.953125 
Q 47.40625 15.53125 47.40625 23.390625 
Q 47.40625 31.296875 43.53125 35.828125 
Q 39.65625 40.375 33.015625 40.375 
z
M 52.59375 71.296875 
L 52.59375 62.3125 
Q 48.875 64.0625 45.09375 64.984375 
Q 41.3125 65.921875 37.59375 65.921875 
Q 27.828125 65.921875 22.671875 59.328125 
Q 17.53125 52.734375 16.796875 39.40625 
Q 19.671875 43.65625 24.015625 45.921875 
Q 28.375 48.1875 33.59375 48.1875 
Q 44.578125 48.1875 50.953125 41.515625 
Q 57.328125 34.859375 57.328125 23.390625 
Q 57.328125 12.15625 50.6875 5.359375 
Q 44.046875 -1.421875 33.015625 -1.421875 
Q 20.359375 -1.421875 13.671875 8.265625 
Q 6.984375 17.96875 6.984375 36.375 
Q 6.984375 53.65625 15.1875 63.9375 
Q 23.390625 74.21875 37.203125 74.21875 
Q 40.921875 74.21875 44.703125 73.484375 
Q 48.484375 72.75 52.59375 71.296875 
z
" id="DejaVuSans-54"/>
      </defs>
      <g transform="translate(259.276692 322.182437)scale(0.1 -0.1)">
       <use xlink:href="#DejaVuSans-54"/>
       <use x="63.623047" xlink:href="#DejaVuSans-48"/>
       <use x="127.246094" xlink:href="#DejaVuSans-48"/>
      </g>
     </g>
    </g>
    <g id="xtick_5">
     <g id="line2d_5">
      <g>
       <use style="stroke:#000000;stroke-width:0.8;" x="333.816347" xlink:href="#m37ae4bb052" y="307.584"/>
      </g>
     </g>
     <g id="text_5">
      <!-- 800 -->
      <defs>
       <path d="M 31.78125 34.625 
Q 24.75 34.625 20.71875 30.859375 
Q 16.703125 27.09375 16.703125 20.515625 
Q 16.703125 13.921875 20.71875 10.15625 
Q 24.75 6.390625 31.78125 6.390625 
Q 38.8125 6.390625 42.859375 10.171875 
Q 46.921875 13.96875 46.921875 20.515625 
Q 46.921875 27.09375 42.890625 30.859375 
Q 38.875 34.625 31.78125 34.625 
z
M 21.921875 38.8125 
Q 15.578125 40.375 12.03125 44.71875 
Q 8.5 49.078125 8.5 55.328125 
Q 8.5 64.0625 14.71875 69.140625 
Q 20.953125 74.21875 31.78125 74.21875 
Q 42.671875 74.21875 48.875 69.140625 
Q 55.078125 64.0625 55.078125 55.328125 
Q 55.078125 49.078125 51.53125 44.71875 
Q 48 40.375 41.703125 38.8125 
Q 48.828125 37.15625 52.796875 32.3125 
Q 56.78125 27.484375 56.78125 20.515625 
Q 56.78125 9.90625 50.3125 4.234375 
Q 43.84375 -1.421875 31.78125 -1.421875 
Q 19.734375 -1.421875 13.25 4.234375 
Q 6.78125 9.90625 6.78125 20.515625 
Q 6.78125 27.484375 10.78125 32.3125 
Q 14.796875 37.15625 21.921875 38.8125 
z
M 18.3125 54.390625 
Q 18.3125 48.734375 21.84375 45.5625 
Q 25.390625 42.390625 31.78125 42.390625 
Q 38.140625 42.390625 41.71875 45.5625 
Q 45.3125 48.734375 45.3125 54.390625 
Q 45.3125 60.0625 41.71875 63.234375 
Q 38.140625 66.40625 31.78125 66.40625 
Q 25.390625 66.40625 21.84375 63.234375 
Q 18.3125 60.0625 18.3125 54.390625 
z
" id="DejaVuSans-56"/>
      </defs>
      <g transform="translate(324.272597 322.182437)scale(0.1 -0.1)">
       <use xlink:href="#DejaVuSans-56"/>
       <use x="63.623047" xlink:href="#DejaVuSans-48"/>
       <use x="127.246094" xlink:href="#DejaVuSans-48"/>
      </g>
     </g>
    </g>
    <g id="xtick_6">
     <g id="line2d_6">
      <g>
       <use style="stroke:#000000;stroke-width:0.8;" x="398.812252" xlink:href="#m37ae4bb052" y="307.584"/>
      </g>
     </g>
     <g id="text_6">
      <!-- 1000 -->
      <defs>
       <path d="M 12.40625 8.296875 
L 28.515625 8.296875 
L 28.515625 63.921875 
L 10.984375 60.40625 
L 10.984375 69.390625 
L 28.421875 72.90625 
L 38.28125 72.90625 
L 38.28125 8.296875 
L 54.390625 8.296875 
L 54.390625 0 
L 12.40625 0 
z
" id="DejaVuSans-49"/>
      </defs>
      <g transform="translate(386.087252 322.182437)scale(0.1 -0.1)">
       <use xlink:href="#DejaVuSans-49"/>
       <use x="63.623047" xlink:href="#DejaVuSans-48"/>
       <use x="127.246094" xlink:href="#DejaVuSans-48"/>
       <use x="190.869141" xlink:href="#DejaVuSans-48"/>
      </g>
     </g>
    </g>
    <g id="text_7">
     <!-- Epoch -->
     <defs>
      <path d="M 9.8125 72.90625 
L 55.90625 72.90625 
L 55.90625 64.59375 
L 19.671875 64.59375 
L 19.671875 43.015625 
L 54.390625 43.015625 
L 54.390625 34.71875 
L 19.671875 34.71875 
L 19.671875 8.296875 
L 56.78125 8.296875 
L 56.78125 0 
L 9.8125 0 
z
" id="DejaVuSans-69"/>
      <path d="M 18.109375 8.203125 
L 18.109375 -20.796875 
L 9.078125 -20.796875 
L 9.078125 54.6875 
L 18.109375 54.6875 
L 18.109375 46.390625 
Q 20.953125 51.265625 25.265625 53.625 
Q 29.59375 56 35.59375 56 
Q 45.5625 56 51.78125 48.09375 
Q 58.015625 40.1875 58.015625 27.296875 
Q 58.015625 14.40625 51.78125 6.484375 
Q 45.5625 -1.421875 35.59375 -1.421875 
Q 29.59375 -1.421875 25.265625 0.953125 
Q 20.953125 3.328125 18.109375 8.203125 
z
M 48.6875 27.296875 
Q 48.6875 37.203125 44.609375 42.84375 
Q 40.53125 48.484375 33.40625 48.484375 
Q 26.265625 48.484375 22.1875 42.84375 
Q 18.109375 37.203125 18.109375 27.296875 
Q 18.109375 17.390625 22.1875 11.75 
Q 26.265625 6.109375 33.40625 6.109375 
Q 40.53125 6.109375 44.609375 11.75 
Q 48.6875 17.390625 48.6875 27.296875 
z
" id="DejaVuSans-112"/>
      <path d="M 30.609375 48.390625 
Q 23.390625 48.390625 19.1875 42.75 
Q 14.984375 37.109375 14.984375 27.296875 
Q 14.984375 17.484375 19.15625 11.84375 
Q 23.34375 6.203125 30.609375 6.203125 
Q 37.796875 6.203125 41.984375 11.859375 
Q 46.1875 17.53125 46.1875 27.296875 
Q 46.1875 37.015625 41.984375 42.703125 
Q 37.796875 48.390625 30.609375 48.390625 
z
M 30.609375 56 
Q 42.328125 56 49.015625 48.375 
Q 55.71875 40.765625 55.71875 27.296875 
Q 55.71875 13.875 49.015625 6.21875 
Q 42.328125 -1.421875 30.609375 -1.421875 
Q 18.84375 -1.421875 12.171875 6.21875 
Q 5.515625 13.875 5.515625 27.296875 
Q 5.515625 40.765625 12.171875 48.375 
Q 18.84375 56 30.609375 56 
z
" id="DejaVuSans-111"/>
      <path d="M 48.78125 52.59375 
L 48.78125 44.1875 
Q 44.96875 46.296875 41.140625 47.34375 
Q 37.3125 48.390625 33.40625 48.390625 
Q 24.65625 48.390625 19.8125 42.84375 
Q 14.984375 37.3125 14.984375 27.296875 
Q 14.984375 17.28125 19.8125 11.734375 
Q 24.65625 6.203125 33.40625 6.203125 
Q 37.3125 6.203125 41.140625 7.25 
Q 44.96875 8.296875 48.78125 10.40625 
L 48.78125 2.09375 
Q 45.015625 0.34375 40.984375 -0.53125 
Q 36.96875 -1.421875 32.421875 -1.421875 
Q 20.0625 -1.421875 12.78125 6.34375 
Q 5.515625 14.109375 5.515625 27.296875 
Q 5.515625 40.671875 12.859375 48.328125 
Q 20.21875 56 33.015625 56 
Q 37.15625 56 41.109375 55.140625 
Q 45.0625 54.296875 48.78125 52.59375 
z
" id="DejaVuSans-99"/>
      <path d="M 54.890625 33.015625 
L 54.890625 0 
L 45.90625 0 
L 45.90625 32.71875 
Q 45.90625 40.484375 42.875 44.328125 
Q 39.84375 48.1875 33.796875 48.1875 
Q 26.515625 48.1875 22.3125 43.546875 
Q 18.109375 38.921875 18.109375 30.90625 
L 18.109375 0 
L 9.078125 0 
L 9.078125 75.984375 
L 18.109375 75.984375 
L 18.109375 46.1875 
Q 21.34375 51.125 25.703125 53.5625 
Q 30.078125 56 35.796875 56 
Q 45.21875 56 50.046875 50.171875 
Q 54.890625 44.34375 54.890625 33.015625 
z
" id="DejaVuSans-104"/>
     </defs>
     <g transform="translate(220.849063 335.860562)scale(0.1 -0.1)">
      <use xlink:href="#DejaVuSans-69"/>
      <use x="63.183594" xlink:href="#DejaVuSans-112"/>
      <use x="126.660156" xlink:href="#DejaVuSans-111"/>
      <use x="187.841797" xlink:href="#DejaVuSans-99"/>
      <use x="242.822266" xlink:href="#DejaVuSans-104"/>
     </g>
    </g>
   </g>
   <g id="matplotlib.axis_2">
    <g id="ytick_1">
     <g id="line2d_7">
      <defs>
       <path d="M 0 0 
L -3.5 0 
" id="m2681c5b546" style="stroke:#000000;stroke-width:0.8;"/>
      </defs>
      <g>
       <use style="stroke:#000000;stroke-width:0.8;" x="57.6" xlink:href="#m2681c5b546" y="295.990292"/>
      </g>
     </g>
     <g id="text_8">
      <!-- 0 -->
      <g transform="translate(44.2375 299.78951)scale(0.1 -0.1)">
       <use xlink:href="#DejaVuSans-48"/>
      </g>
     </g>
    </g>
    <g id="ytick_2">
     <g id="line2d_8">
      <g>
       <use style="stroke:#000000;stroke-width:0.8;" x="57.6" xlink:href="#m2681c5b546" y="262.47829"/>
      </g>
     </g>
     <g id="text_9">
      <!-- 2 -->
      <g transform="translate(44.2375 266.277509)scale(0.1 -0.1)">
       <use xlink:href="#DejaVuSans-50"/>
      </g>
     </g>
    </g>
    <g id="ytick_3">
     <g id="line2d_9">
      <g>
       <use style="stroke:#000000;stroke-width:0.8;" x="57.6" xlink:href="#m2681c5b546" y="228.966289"/>
      </g>
     </g>
     <g id="text_10">
      <!-- 4 -->
      <g transform="translate(44.2375 232.765508)scale(0.1 -0.1)">
       <use xlink:href="#DejaVuSans-52"/>
      </g>
     </g>
    </g>
    <g id="ytick_4">
     <g id="line2d_10">
      <g>
       <use style="stroke:#000000;stroke-width:0.8;" x="57.6" xlink:href="#m2681c5b546" y="195.454288"/>
      </g>
     </g>
     <g id="text_11">
      <!-- 6 -->
      <g transform="translate(44.2375 199.253507)scale(0.1 -0.1)">
       <use xlink:href="#DejaVuSans-54"/>
      </g>
     </g>
    </g>
    <g id="ytick_5">
     <g id="line2d_11">
      <g>
       <use style="stroke:#000000;stroke-width:0.8;" x="57.6" xlink:href="#m2681c5b546" y="161.942287"/>
      </g>
     </g>
     <g id="text_12">
      <!-- 8 -->
      <g transform="translate(44.2375 165.741506)scale(0.1 -0.1)">
       <use xlink:href="#DejaVuSans-56"/>
      </g>
     </g>
    </g>
    <g id="ytick_6">
     <g id="line2d_12">
      <g>
       <use style="stroke:#000000;stroke-width:0.8;" x="57.6" xlink:href="#m2681c5b546" y="128.430286"/>
      </g>
     </g>
     <g id="text_13">
      <!-- 10 -->
      <g transform="translate(37.875 132.229505)scale(0.1 -0.1)">
       <use xlink:href="#DejaVuSans-49"/>
       <use x="63.623047" xlink:href="#DejaVuSans-48"/>
      </g>
     </g>
    </g>
    <g id="ytick_7">
     <g id="line2d_13">
      <g>
       <use style="stroke:#000000;stroke-width:0.8;" x="57.6" xlink:href="#m2681c5b546" y="94.918285"/>
      </g>
     </g>
     <g id="text_14">
      <!-- 12 -->
      <g transform="translate(37.875 98.717504)scale(0.1 -0.1)">
       <use xlink:href="#DejaVuSans-49"/>
       <use x="63.623047" xlink:href="#DejaVuSans-50"/>
      </g>
     </g>
    </g>
    <g id="ytick_8">
     <g id="line2d_14">
      <g>
       <use style="stroke:#000000;stroke-width:0.8;" x="57.6" xlink:href="#m2681c5b546" y="61.406284"/>
      </g>
     </g>
     <g id="text_15">
      <!-- 14 -->
      <g transform="translate(37.875 65.205502)scale(0.1 -0.1)">
       <use xlink:href="#DejaVuSans-49"/>
       <use x="63.623047" xlink:href="#DejaVuSans-52"/>
      </g>
     </g>
    </g>
    <g id="text_16">
     <!-- Loss -->
     <defs>
      <path d="M 9.8125 72.90625 
L 19.671875 72.90625 
L 19.671875 8.296875 
L 55.171875 8.296875 
L 55.171875 0 
L 9.8125 0 
z
" id="DejaVuSans-76"/>
      <path d="M 44.28125 53.078125 
L 44.28125 44.578125 
Q 40.484375 46.53125 36.375 47.5 
Q 32.28125 48.484375 27.875 48.484375 
Q 21.1875 48.484375 17.84375 46.4375 
Q 14.5 44.390625 14.5 40.28125 
Q 14.5 37.15625 16.890625 35.375 
Q 19.28125 33.59375 26.515625 31.984375 
L 29.59375 31.296875 
Q 39.15625 29.25 43.1875 25.515625 
Q 47.21875 21.78125 47.21875 15.09375 
Q 47.21875 7.46875 41.1875 3.015625 
Q 35.15625 -1.421875 24.609375 -1.421875 
Q 20.21875 -1.421875 15.453125 -0.5625 
Q 10.6875 0.296875 5.421875 2 
L 5.421875 11.28125 
Q 10.40625 8.6875 15.234375 7.390625 
Q 20.0625 6.109375 24.8125 6.109375 
Q 31.15625 6.109375 34.5625 8.28125 
Q 37.984375 10.453125 37.984375 14.40625 
Q 37.984375 18.0625 35.515625 20.015625 
Q 33.0625 21.96875 24.703125 23.78125 
L 21.578125 24.515625 
Q 13.234375 26.265625 9.515625 29.90625 
Q 5.8125 33.546875 5.8125 39.890625 
Q 5.8125 47.609375 11.28125 51.796875 
Q 16.75 56 26.8125 56 
Q 31.78125 56 36.171875 55.265625 
Q 40.578125 54.546875 44.28125 53.078125 
z
" id="DejaVuSans-115"/>
     </defs>
     <g transform="translate(31.795313 185.581906)rotate(-90)scale(0.1 -0.1)">
      <use xlink:href="#DejaVuSans-76"/>
      <use x="55.697266" xlink:href="#DejaVuSans-111"/>
      <use x="116.878906" xlink:href="#DejaVuSans-115"/>
      <use x="168.978516" xlink:href="#DejaVuSans-115"/>
     </g>
    </g>
   </g>
   <g id="line2d_15">
    <path clip-path="url(#p8b26855eb1)" d="M 73.832727 53.568 
L 74.157707 60.215983 
L 74.482686 122.69788 
L 74.807666 95.476314 
L 75.132645 136.760379 
L 75.457625 122.136015 
L 76.107584 145.579612 
L 76.432563 153.370133 
L 76.757543 171.734513 
L 77.082523 153.08435 
L 77.407502 142.864346 
L 77.732482 151.290957 
L 78.057461 152.86196 
L 78.382441 172.348527 
L 78.70742 184.512902 
L 79.0324 151.375202 
L 79.357379 160.397044 
L 79.682359 189.48356 
L 80.007338 176.040916 
L 80.332318 180.035706 
L 80.657297 201.827067 
L 80.982277 203.583843 
L 81.307256 226.545219 
L 81.632236 227.529796 
L 81.957215 230.133751 
L 82.282195 228.499329 
L 82.607174 251.736807 
L 82.932154 203.375731 
L 83.257133 252.320631 
L 83.582113 221.485401 
L 83.907093 264.998937 
L 84.232072 249.015348 
L 84.557052 258.123568 
L 84.882031 270.984163 
L 85.207011 262.160892 
L 85.53199 266.294597 
L 85.85697 277.976444 
L 86.181949 254.963801 
L 86.506929 275.701676 
L 86.831908 264.549276 
L 87.481867 279.043307 
L 87.806847 262.299069 
L 88.131826 281.921199 
L 88.456806 273.918534 
L 88.781785 273.178944 
L 89.106765 281.337916 
L 89.431744 272.473705 
L 89.756724 282.23786 
L 90.406683 277.545713 
L 90.731663 283.449731 
L 91.056642 281.257487 
L 91.381622 281.613242 
L 91.706601 284.887794 
L 92.031581 281.728338 
L 92.35656 283.920164 
L 92.68154 285.098264 
L 93.006519 283.218611 
L 93.331499 286.533111 
L 93.981458 284.073217 
L 94.306437 287.182482 
L 94.631417 285.214396 
L 94.956396 287.194772 
L 95.281376 286.369914 
L 95.606355 286.207248 
L 95.931335 287.763071 
L 96.256314 286.914191 
L 96.581294 287.921987 
L 96.906274 288.49428 
L 97.231253 287.498622 
L 97.556233 288.690905 
L 97.881212 289.049098 
L 98.206192 287.836632 
L 98.531171 288.266195 
L 98.856151 287.860272 
L 99.18113 288.080624 
L 99.831089 289.257038 
L 100.156069 290.282157 
L 100.806028 288.817519 
L 101.131007 289.949814 
L 101.455987 289.5758 
L 101.780966 289.957629 
L 102.105946 289.809029 
L 102.430925 290.521103 
L 102.755905 289.396846 
L 103.080885 289.856034 
L 103.405864 290.769522 
L 103.730844 289.958858 
L 104.055823 290.627592 
L 104.380803 290.948249 
L 104.705782 290.278278 
L 105.030762 290.633075 
L 105.355741 291.204887 
L 105.680721 291.054124 
L 106.0057 292.117286 
L 106.33068 289.890888 
L 106.655659 292.062171 
L 106.980639 291.02877 
L 107.305618 291.071647 
L 107.630598 292.063752 
L 107.955577 291.480684 
L 108.280557 292.23819 
L 108.605536 291.101345 
L 108.930516 291.412444 
L 109.255495 291.139482 
L 109.580475 291.678632 
L 109.905455 290.986319 
L 110.230434 291.801809 
L 110.555414 291.101068 
L 110.880393 292.189408 
L 111.205373 290.834814 
L 111.530352 291.893477 
L 112.180311 290.885277 
L 112.505291 291.363001 
L 112.83027 292.105099 
L 113.15525 291.276375 
L 113.480229 291.10786 
L 113.805209 291.808986 
L 114.130188 291.848697 
L 114.455168 291.585955 
L 114.780147 292.092686 
L 115.430106 292.472947 
L 115.755086 292.437803 
L 116.080066 291.017168 
L 116.405045 292.119054 
L 116.730025 291.769815 
L 117.055004 292.430715 
L 117.379984 292.568319 
L 117.704963 292.195477 
L 118.029943 292.449345 
L 118.354922 292.28869 
L 118.679902 291.885063 
L 119.004881 292.517935 
L 119.329861 292.393087 
L 119.65484 292.940751 
L 119.97982 292.501993 
L 120.304799 292.582179 
L 120.629779 293.046556 
L 120.954758 292.486984 
L 121.279738 292.451461 
L 121.604717 291.992231 
L 121.929697 292.470716 
L 122.254676 292.676077 
L 122.579656 293.025059 
L 122.904636 292.261172 
L 123.229615 292.426262 
L 123.554595 292.183301 
L 123.879574 293.21294 
L 124.204554 292.757071 
L 124.529533 292.907812 
L 124.854513 291.576671 
L 125.179492 290.956984 
L 125.504472 286.36331 
L 125.829451 292.611494 
L 126.154431 285.687577 
L 126.47941 285.386471 
L 126.80439 284.543226 
L 127.129369 287.736889 
L 127.454349 289.692015 
L 127.779328 289.657471 
L 128.104308 288.900164 
L 128.429287 291.828923 
L 128.754267 287.134545 
L 129.079247 292.016671 
L 129.404226 287.638682 
L 129.729206 291.567599 
L 130.379165 290.279714 
L 130.704144 291.991887 
L 131.029124 290.163898 
L 131.354103 292.150573 
L 131.679083 291.124919 
L 132.329042 291.449081 
L 132.654021 290.548705 
L 132.979001 291.469189 
L 133.30398 291.476534 
L 133.62896 291.049313 
L 133.953939 291.636277 
L 134.278919 290.405579 
L 134.603898 291.556174 
L 134.928878 291.129027 
L 135.253857 291.876459 
L 135.578837 291.3374 
L 135.903817 291.565716 
L 136.228796 291.940837 
L 136.553776 291.655717 
L 136.878755 291.726903 
L 137.203735 292.042373 
L 137.853694 291.369198 
L 138.178673 291.940926 
L 138.828632 292.338826 
L 139.153612 292.356859 
L 139.478591 292.511864 
L 139.803571 291.847399 
L 140.12855 292.230281 
L 140.45353 291.77821 
L 140.778509 292.303771 
L 141.103489 291.585786 
L 141.428468 292.955592 
L 141.753448 292.114703 
L 142.078428 292.149965 
L 142.728387 292.890602 
L 143.053366 292.431785 
L 143.703325 292.962741 
L 144.028305 292.83416 
L 144.353284 292.94391 
L 144.678264 292.741693 
L 145.003243 293.225091 
L 145.328223 292.896802 
L 145.653202 292.99094 
L 145.978182 292.074622 
L 146.303161 292.858206 
L 146.95312 292.98742 
L 148.253038 293.248176 
L 148.578018 292.447232 
L 148.902998 293.343657 
L 149.227977 293.136184 
L 149.552957 293.333299 
L 149.877936 293.170592 
L 150.202916 293.406838 
L 150.527895 293.037021 
L 150.852875 292.971839 
L 151.177854 293.088209 
L 151.502834 293.335317 
L 152.152793 293.300177 
L 152.477772 293.873718 
L 152.802752 293.342533 
L 153.127731 293.360374 
L 153.452711 292.705127 
L 153.77769 293.680464 
L 154.10267 293.055949 
L 154.427649 293.55206 
L 154.752629 293.395337 
L 155.077609 293.386525 
L 155.402588 293.541872 
L 155.727568 293.125187 
L 156.052547 293.637368 
L 156.377527 293.348453 
L 156.702506 293.857739 
L 157.352465 293.582661 
L 157.677445 293.594565 
L 158.002424 293.886494 
L 158.327404 293.611772 
L 158.652383 293.603496 
L 158.977363 293.21801 
L 159.627322 290.559976 
L 159.952301 290.167822 
L 160.277281 293.139212 
L 160.60226 290.545939 
L 160.92724 292.51262 
L 161.252219 291.741646 
L 161.577199 292.443284 
L 161.902179 291.441627 
L 162.227158 292.111521 
L 162.552138 291.576574 
L 162.877117 293.269686 
L 163.202097 291.299882 
L 163.527076 293.295516 
L 163.852056 291.459286 
L 164.177035 293.571116 
L 164.502015 291.577747 
L 164.826994 292.596955 
L 165.151974 291.327005 
L 165.476953 292.491647 
L 165.801933 291.865884 
L 166.126912 293.002668 
L 166.451892 292.444836 
L 166.776871 292.390716 
L 167.101851 291.895734 
L 167.42683 292.488315 
L 167.75181 292.423294 
L 168.07679 292.739929 
L 168.401769 291.896643 
L 168.726749 292.420313 
L 169.051728 292.051159 
L 169.376708 292.473688 
L 170.026667 292.277968 
L 170.351646 292.896391 
L 171.001605 293.086432 
L 171.326585 292.725151 
L 171.976544 293.440426 
L 172.301523 293.548085 
L 172.626503 292.784062 
L 172.951482 293.138605 
L 173.276462 292.533041 
L 173.601441 293.729995 
L 173.926421 293.118953 
L 174.2514 293.178677 
L 174.57638 292.923334 
L 174.90136 293.445058 
L 175.226339 293.300542 
L 175.551319 293.686165 
L 175.876298 293.526035 
L 176.201278 293.225767 
L 176.526257 293.664782 
L 176.851237 293.405726 
L 177.176216 293.415349 
L 177.501196 293.886179 
L 177.826175 293.753485 
L 178.476134 294.015927 
L 178.801114 293.602791 
L 179.126093 293.932867 
L 179.451073 293.445499 
L 179.776052 293.737253 
L 180.426011 293.7734 
L 180.750991 293.952316 
L 181.40095 293.595228 
L 181.72593 294.039234 
L 182.050909 293.810158 
L 182.375889 294.106403 
L 182.700868 294.033142 
L 183.025848 293.682625 
L 183.350827 293.821024 
L 183.675807 294.277567 
L 184.325766 293.921777 
L 184.650745 294.248098 
L 184.975725 293.907813 
L 185.300704 294.135756 
L 185.625684 293.824796 
L 185.950663 294.433957 
L 186.275643 294.258985 
L 186.600622 294.268954 
L 186.925602 293.985677 
L 187.575561 294.299123 
L 187.900541 294.015507 
L 188.22552 293.355821 
L 188.875479 294.231437 
L 189.200459 294.305897 
L 189.525438 293.691555 
L 189.850418 293.430355 
L 190.175397 293.953668 
L 190.825356 293.484451 
L 191.150336 294.04263 
L 191.475315 293.514161 
L 191.800295 293.347247 
L 192.125274 294.331929 
L 192.450254 293.086092 
L 192.775233 293.779484 
L 193.100213 294.040819 
L 193.425192 293.616262 
L 193.750172 294.255481 
L 194.075152 293.811257 
L 194.400131 294.279578 
L 194.725111 293.980303 
L 195.05009 293.94958 
L 195.37507 294.285716 
L 195.700049 294.007461 
L 196.025029 294.280903 
L 196.350008 294.299715 
L 196.674988 294.497765 
L 197.324947 294.146725 
L 197.649926 294.16367 
L 197.974906 294.308164 
L 198.299885 294.286116 
L 198.624865 294.541004 
L 198.949844 294.351483 
L 199.274824 294.016579 
L 199.599803 294.531144 
L 199.924783 294.387423 
L 200.249762 294.457254 
L 200.574742 294.408064 
L 200.899722 294.759041 
L 201.224701 294.237421 
L 201.549681 294.460242 
L 201.87466 294.205998 
L 202.19964 294.634157 
L 202.849599 294.26969 
L 203.174578 294.572754 
L 204.149517 294.667731 
L 204.474496 294.386685 
L 204.799476 294.713737 
L 205.124455 294.602603 
L 205.449435 294.707437 
L 205.774414 294.660161 
L 206.099394 294.793396 
L 206.424373 294.382652 
L 206.749353 294.603289 
L 207.074333 294.541554 
L 207.399312 294.71686 
L 208.049271 294.824545 
L 208.374251 294.525349 
L 208.69923 294.604255 
L 209.02421 294.467032 
L 209.349189 294.659029 
L 210.649107 294.683504 
L 210.974087 294.826187 
L 211.299066 294.516052 
L 211.624046 294.773459 
L 212.274005 294.870061 
L 212.923964 294.640198 
L 213.573923 294.91541 
L 214.548862 294.579523 
L 214.873841 294.811368 
L 215.5238 294.657303 
L 215.84878 294.877952 
L 216.173759 294.867718 
L 216.498739 294.743564 
L 216.823718 294.86775 
L 217.473677 294.782246 
L 217.798657 294.757288 
L 218.123636 294.867721 
L 218.448616 294.576745 
L 218.773595 294.991739 
L 219.098575 294.944634 
L 219.423554 294.667118 
L 220.073514 294.546021 
L 220.723473 294.820376 
L 221.048452 294.606132 
L 221.373432 294.690372 
L 222.023391 294.579372 
L 222.34837 294.842338 
L 222.67335 294.682689 
L 222.998329 294.864936 
L 223.323309 294.5746 
L 223.648288 294.731095 
L 224.623227 294.687028 
L 224.948206 294.507573 
L 225.273186 294.579021 
L 225.923145 294.947493 
L 226.898084 294.634714 
L 227.223063 294.910154 
L 228.198002 294.55837 
L 228.522981 294.917566 
L 228.847961 294.705786 
L 229.49792 294.617288 
L 229.822899 295.000707 
L 230.147879 294.503406 
L 230.472858 294.829309 
L 231.122817 294.710326 
L 232.097756 294.838476 
L 232.422735 294.970311 
L 232.747715 294.735232 
L 233.072695 294.867569 
L 233.722654 294.680598 
L 234.372613 294.9296 
L 234.697592 294.723402 
L 235.347551 294.838294 
L 235.672531 295.059964 
L 235.99751 294.759345 
L 236.32249 294.961741 
L 237.947387 294.815153 
L 238.272367 294.918594 
L 238.597346 294.879327 
L 238.922326 294.707338 
L 239.247305 294.958035 
L 239.572285 294.769064 
L 239.897265 294.736676 
L 240.222244 295.019597 
L 240.547224 294.812811 
L 241.522162 295.014506 
L 241.847142 294.831426 
L 242.82208 294.95125 
L 243.14706 294.735728 
L 243.472039 294.951498 
L 243.797019 294.834267 
L 244.121998 294.887329 
L 244.446978 294.717538 
L 245.096937 294.888084 
L 245.421916 294.733553 
L 245.746896 294.900633 
L 246.721835 294.978079 
L 247.046814 295.109008 
L 247.696773 294.834274 
L 248.346732 294.975766 
L 248.671712 294.990924 
L 248.996691 294.865109 
L 249.64665 295.005812 
L 249.97163 294.560731 
L 250.296609 295.084495 
L 250.621589 295.086744 
L 250.946568 294.805047 
L 251.271548 295.109885 
L 251.921507 295.034952 
L 252.246486 294.879971 
L 252.571466 294.852732 
L 252.896446 295.085993 
L 253.221425 294.79213 
L 253.871384 295.149233 
L 256.47122 294.915864 
L 256.7962 294.777444 
L 257.121179 295.078343 
L 259.071057 295.021654 
L 260.045995 295.207127 
L 260.370975 294.964132 
L 260.695954 295.184071 
L 261.020934 295.038332 
L 261.345913 295.051433 
L 261.670893 295.190911 
L 261.995872 295.122355 
L 262.320852 295.264274 
L 262.645831 295.071005 
L 263.29579 294.899262 
L 263.62077 295.134249 
L 263.945749 295.060067 
L 264.270729 295.213073 
L 264.595708 294.923852 
L 264.920688 294.437879 
L 265.245667 294.419994 
L 265.895627 295.066761 
L 266.545586 294.573266 
L 266.870565 295.204082 
L 267.520524 294.758645 
L 267.845504 295.069395 
L 268.495463 294.889269 
L 268.820442 295.120879 
L 269.145422 295.019128 
L 269.470401 295.176468 
L 270.12036 295.019973 
L 270.44534 295.14983 
L 270.770319 295.010817 
L 271.095299 295.064834 
L 271.420278 295.001951 
L 271.745258 295.151746 
L 273.370156 294.95807 
L 273.695135 295.160794 
L 274.995053 295.137841 
L 275.320033 295.298487 
L 275.969992 295.073094 
L 276.294971 295.29889 
L 276.619951 295.102798 
L 276.94493 295.222785 
L 277.26991 295.2078 
L 277.594889 294.908958 
L 277.919869 295.125008 
L 278.244848 295.204884 
L 278.894808 294.866984 
L 279.544767 295.16228 
L 280.194726 294.942195 
L 280.519705 295.123402 
L 280.844685 295.022052 
L 281.819623 295.161353 
L 282.144603 295.004753 
L 282.794562 295.098249 
L 283.119541 295.085039 
L 283.444521 295.253076 
L 283.7695 295.224706 
L 284.09448 294.933212 
L 284.419459 294.886975 
L 285.069419 295.212502 
L 285.719378 294.98061 
L 286.044357 295.162638 
L 286.369337 295.119671 
L 286.694316 294.935171 
L 287.019296 295.259302 
L 287.344275 295.037845 
L 287.669255 295.092173 
L 287.994234 294.969657 
L 288.319214 294.722486 
L 288.644193 295.0471 
L 288.969173 295.063711 
L 289.294152 294.735928 
L 290.269091 295.160316 
L 290.59407 294.9355 
L 290.91905 294.857406 
L 291.244029 295.07481 
L 291.569009 295.073096 
L 291.893989 294.886529 
L 292.218968 294.456387 
L 292.543948 294.604139 
L 292.868927 295.031747 
L 293.518886 294.691735 
L 293.843866 295.041983 
L 294.168845 295.037156 
L 294.493825 294.77813 
L 294.818804 294.725049 
L 295.143784 295.185158 
L 295.468763 295.048655 
L 296.118722 295.067349 
L 296.443702 295.213535 
L 299.368518 295.194612 
L 299.693497 295.422719 
L 300.018477 295.172041 
L 300.343456 295.120868 
L 300.668436 295.216263 
L 301.318395 295.033827 
L 301.643374 295.241122 
L 302.293333 295.107473 
L 302.943292 295.226227 
L 303.593251 295.290186 
L 303.918231 295.137679 
L 304.24321 295.252624 
L 304.89317 295.208121 
L 305.218149 295.33306 
L 305.543129 295.246755 
L 305.868108 295.349548 
L 306.518067 295.248726 
L 306.843047 295.22339 
L 307.168026 295.383244 
L 307.493006 295.156728 
L 307.817985 295.440774 
L 308.467944 294.805292 
L 308.792924 295.111053 
L 309.117903 295.26054 
L 309.442883 295.011361 
L 310.092842 295.154953 
L 310.417821 295.338418 
L 310.742801 295.100653 
L 311.39276 295.039537 
L 311.71774 295.29656 
L 312.042719 295.345012 
L 312.692678 295.028037 
L 313.342637 294.862328 
L 313.667617 295.361296 
L 313.992596 294.767284 
L 314.317576 293.491382 
L 314.642555 294.698085 
L 314.967535 295.03364 
L 315.292514 294.184121 
L 315.942473 294.908136 
L 316.267453 294.993363 
L 316.592432 294.183047 
L 317.242391 295.037082 
L 317.567371 294.000129 
L 317.892351 291.879576 
L 318.21733 294.723398 
L 318.867289 293.000621 
L 319.192269 295.140074 
L 319.517248 290.76849 
L 319.842228 281.921516 
L 320.167207 292.249689 
L 320.492187 284.220732 
L 320.817166 286.640501 
L 321.142146 291.186263 
L 321.467125 287.635803 
L 321.792105 292.455038 
L 322.117084 289.225923 
L 322.442064 291.730934 
L 322.767043 289.51944 
L 323.092023 290.687239 
L 323.741982 291.330183 
L 324.066962 293.501971 
L 324.391941 291.235952 
L 324.716921 293.655811 
L 325.0419 290.384243 
L 325.36688 293.966129 
L 325.691859 291.976128 
L 326.016839 293.969183 
L 326.341818 292.399276 
L 326.666798 293.081817 
L 326.991777 292.438508 
L 327.316757 293.41988 
L 327.641736 292.866025 
L 327.966716 294.196248 
L 328.291695 292.700234 
L 328.616675 293.212337 
L 328.941654 293.289229 
L 329.266634 293.791721 
L 329.916593 293.332493 
L 330.241572 294.219461 
L 330.566552 293.647648 
L 330.891532 293.586462 
L 331.216511 293.939501 
L 331.541491 294.067557 
L 331.86647 293.543399 
L 332.19145 294.382093 
L 332.516429 294.244531 
L 332.841409 293.808188 
L 333.166388 294.394221 
L 333.816347 294.020981 
L 334.141327 294.177005 
L 334.466306 294.141302 
L 334.791286 294.51157 
L 335.116265 294.150295 
L 335.441245 294.44732 
L 336.741163 294.322075 
L 337.066143 294.489029 
L 337.391122 294.511321 
L 337.716102 294.33315 
L 338.041081 294.63158 
L 338.366061 294.131576 
L 338.69104 294.736443 
L 339.01602 294.636878 
L 339.340999 294.35182 
L 339.665979 294.819646 
L 339.990958 294.926632 
L 340.315938 294.506362 
L 340.640917 294.96306 
L 340.965897 295.016034 
L 341.290876 294.769494 
L 341.615856 294.900299 
L 341.940835 294.887734 
L 342.265815 295.058087 
L 342.915774 294.9611 
L 343.240753 295.067716 
L 343.565733 294.913992 
L 343.890713 294.986751 
L 344.215692 294.916154 
L 344.540672 295.10879 
L 345.190631 295.101738 
L 345.51561 295.032424 
L 345.84059 295.163484 
L 347.790467 295.138756 
L 348.115446 295.285297 
L 348.765405 295.17423 
L 349.740344 295.241469 
L 350.065324 295.161738 
L 351.040262 295.219033 
L 352.990139 295.333783 
L 353.315119 295.403544 
L 354.940016 295.25222 
L 355.264996 295.354086 
L 355.914955 295.285916 
L 356.564914 295.284282 
L 356.889894 295.414013 
L 357.214873 295.266174 
L 357.539853 295.420348 
L 358.514791 295.252714 
L 358.839771 295.332364 
L 359.48973 295.281635 
L 359.814709 295.378984 
L 360.789648 295.202243 
L 361.439607 295.388695 
L 369.889075 295.323026 
L 370.214054 295.443815 
L 370.864013 295.287811 
L 371.513972 295.413481 
L 372.163931 295.294566 
L 375.738706 295.337041 
L 376.388665 295.286269 
L 378.338542 295.321228 
L 378.663522 295.129182 
L 378.988501 295.432318 
L 379.63846 295.099443 
L 379.96344 295.365854 
L 380.288419 295.442006 
L 380.613399 295.281521 
L 381.588337 295.327874 
L 381.913317 295.256417 
L 382.238296 295.382895 
L 383.213235 295.289204 
L 383.538215 295.452626 
L 384.188174 295.317092 
L 384.513153 295.431757 
L 385.488092 295.332868 
L 386.46303 295.369499 
L 387.762948 295.400727 
L 388.087928 295.312519 
L 388.412907 295.451833 
L 394.587518 295.287753 
L 394.912498 295.44133 
L 395.237477 295.453087 
L 395.562457 295.334601 
L 397.512334 295.375773 
L 397.837314 295.488 
L 398.162293 295.315676 
L 398.487273 295.397521 
L 398.487273 295.397521 
" style="fill:none;stroke:#1f77b4;stroke-linecap:square;stroke-width:1.5;"/>
   </g>
   <g id="patch_3">
    <path d="M 57.6 307.584 
L 57.6 41.472 
" style="fill:none;stroke:#000000;stroke-linecap:square;stroke-linejoin:miter;stroke-width:0.8;"/>
   </g>
   <g id="patch_4">
    <path d="M 414.72 307.584 
L 414.72 41.472 
" style="fill:none;stroke:#000000;stroke-linecap:square;stroke-linejoin:miter;stroke-width:0.8;"/>
   </g>
   <g id="patch_5">
    <path d="M 57.6 307.584 
L 414.72 307.584 
" style="fill:none;stroke:#000000;stroke-linecap:square;stroke-linejoin:miter;stroke-width:0.8;"/>
   </g>
   <g id="patch_6">
    <path d="M 57.6 41.472 
L 414.72 41.472 
" style="fill:none;stroke:#000000;stroke-linecap:square;stroke-linejoin:miter;stroke-width:0.8;"/>
   </g>
   <g id="text_17">
    <!-- Training Loss -->
    <defs>
     <path d="M -0.296875 72.90625 
L 61.375 72.90625 
L 61.375 64.59375 
L 35.5 64.59375 
L 35.5 0 
L 25.59375 0 
L 25.59375 64.59375 
L -0.296875 64.59375 
z
" id="DejaVuSans-84"/>
     <path d="M 41.109375 46.296875 
Q 39.59375 47.171875 37.8125 47.578125 
Q 36.03125 48 33.890625 48 
Q 26.265625 48 22.1875 43.046875 
Q 18.109375 38.09375 18.109375 28.8125 
L 18.109375 0 
L 9.078125 0 
L 9.078125 54.6875 
L 18.109375 54.6875 
L 18.109375 46.1875 
Q 20.953125 51.171875 25.484375 53.578125 
Q 30.03125 56 36.53125 56 
Q 37.453125 56 38.578125 55.875 
Q 39.703125 55.765625 41.0625 55.515625 
z
" id="DejaVuSans-114"/>
     <path d="M 34.28125 27.484375 
Q 23.390625 27.484375 19.1875 25 
Q 14.984375 22.515625 14.984375 16.5 
Q 14.984375 11.71875 18.140625 8.90625 
Q 21.296875 6.109375 26.703125 6.109375 
Q 34.1875 6.109375 38.703125 11.40625 
Q 43.21875 16.703125 43.21875 25.484375 
L 43.21875 27.484375 
z
M 52.203125 31.203125 
L 52.203125 0 
L 43.21875 0 
L 43.21875 8.296875 
Q 40.140625 3.328125 35.546875 0.953125 
Q 30.953125 -1.421875 24.3125 -1.421875 
Q 15.921875 -1.421875 10.953125 3.296875 
Q 6 8.015625 6 15.921875 
Q 6 25.140625 12.171875 29.828125 
Q 18.359375 34.515625 30.609375 34.515625 
L 43.21875 34.515625 
L 43.21875 35.40625 
Q 43.21875 41.609375 39.140625 45 
Q 35.0625 48.390625 27.6875 48.390625 
Q 23 48.390625 18.546875 47.265625 
Q 14.109375 46.140625 10.015625 43.890625 
L 10.015625 52.203125 
Q 14.9375 54.109375 19.578125 55.046875 
Q 24.21875 56 28.609375 56 
Q 40.484375 56 46.34375 49.84375 
Q 52.203125 43.703125 52.203125 31.203125 
z
" id="DejaVuSans-97"/>
     <path d="M 9.421875 54.6875 
L 18.40625 54.6875 
L 18.40625 0 
L 9.421875 0 
z
M 9.421875 75.984375 
L 18.40625 75.984375 
L 18.40625 64.59375 
L 9.421875 64.59375 
z
" id="DejaVuSans-105"/>
     <path d="M 54.890625 33.015625 
L 54.890625 0 
L 45.90625 0 
L 45.90625 32.71875 
Q 45.90625 40.484375 42.875 44.328125 
Q 39.84375 48.1875 33.796875 48.1875 
Q 26.515625 48.1875 22.3125 43.546875 
Q 18.109375 38.921875 18.109375 30.90625 
L 18.109375 0 
L 9.078125 0 
L 9.078125 54.6875 
L 18.109375 54.6875 
L 18.109375 46.1875 
Q 21.34375 51.125 25.703125 53.5625 
Q 30.078125 56 35.796875 56 
Q 45.21875 56 50.046875 50.171875 
Q 54.890625 44.34375 54.890625 33.015625 
z
" id="DejaVuSans-110"/>
     <path d="M 45.40625 27.984375 
Q 45.40625 37.75 41.375 43.109375 
Q 37.359375 48.484375 30.078125 48.484375 
Q 22.859375 48.484375 18.828125 43.109375 
Q 14.796875 37.75 14.796875 27.984375 
Q 14.796875 18.265625 18.828125 12.890625 
Q 22.859375 7.515625 30.078125 7.515625 
Q 37.359375 7.515625 41.375 12.890625 
Q 45.40625 18.265625 45.40625 27.984375 
z
M 54.390625 6.78125 
Q 54.390625 -7.171875 48.1875 -13.984375 
Q 42 -20.796875 29.203125 -20.796875 
Q 24.46875 -20.796875 20.265625 -20.09375 
Q 16.0625 -19.390625 12.109375 -17.921875 
L 12.109375 -9.1875 
Q 16.0625 -11.328125 19.921875 -12.34375 
Q 23.78125 -13.375 27.78125 -13.375 
Q 36.625 -13.375 41.015625 -8.765625 
Q 45.40625 -4.15625 45.40625 5.171875 
L 45.40625 9.625 
Q 42.625 4.78125 38.28125 2.390625 
Q 33.9375 0 27.875 0 
Q 17.828125 0 11.671875 7.65625 
Q 5.515625 15.328125 5.515625 27.984375 
Q 5.515625 40.671875 11.671875 48.328125 
Q 17.828125 56 27.875 56 
Q 33.9375 56 38.28125 53.609375 
Q 42.625 51.21875 45.40625 46.390625 
L 45.40625 54.6875 
L 54.390625 54.6875 
z
" id="DejaVuSans-103"/>
     <path id="DejaVuSans-32"/>
    </defs>
    <g transform="translate(196.445625 35.472)scale(0.12 -0.12)">
     <use xlink:href="#DejaVuSans-84"/>
     <use x="60.865234" xlink:href="#DejaVuSans-114"/>
     <use x="101.978516" xlink:href="#DejaVuSans-97"/>
     <use x="163.257812" xlink:href="#DejaVuSans-105"/>
     <use x="191.041016" xlink:href="#DejaVuSans-110"/>
     <use x="254.419922" xlink:href="#DejaVuSans-105"/>
     <use x="282.203125" xlink:href="#DejaVuSans-110"/>
     <use x="345.582031" xlink:href="#DejaVuSans-103"/>
     <use x="409.058594" xlink:href="#DejaVuSans-32"/>
     <use x="440.845703" xlink:href="#DejaVuSans-76"/>
     <use x="496.542969" xlink:href="#DejaVuSans-111"/>
     <use x="557.724609" xlink:href="#DejaVuSans-115"/>
     <use x="609.824219" xlink:href="#DejaVuSans-115"/>
    </g>
   </g>
  </g>
 </g>
 <defs>
  <clipPath id="p8b26855eb1">
   <rect height="266.112" width="357.12" x="57.6" y="41.472"/>
  </clipPath>
 </defs>
</svg>
