<?xml version="1.0" encoding="utf-8" standalone="no"?>
<!DOCTYPE svg PUBLIC "-//W3C//DTD SVG 1.1//EN"
  "http://www.w3.org/Graphics/SVG/1.1/DTD/svg11.dtd">
<!-- Created with matplotlib (https://matplotlib.org/) -->
<svg height="288pt" version="1.1" viewBox="0 0 432 288" width="432pt" xmlns="http://www.w3.org/2000/svg" xmlns:xlink="http://www.w3.org/1999/xlink">
 <defs>
  <style type="text/css">
*{stroke-linecap:butt;stroke-linejoin:round;}
  </style>
 </defs>
 <g id="figure_1">
  <g id="patch_1">
   <path d="M 0 288 
L 432 288 
L 432 0 
L 0 0 
z
" style="fill:#ffffff;"/>
  </g>
  <g id="axes_1">
   <g id="patch_2">
    <path d="M 54 252 
L 388.8 252 
L 388.8 34.56 
L 54 34.56 
z
" style="fill:#ffffff;"/>
   </g>
   <g id="matplotlib.axis_1">
    <g id="xtick_1">
     <g id="line2d_1">
      <defs>
       <path d="M 0 0 
L 0 3.5 
" id="m6b27a76012" style="stroke:#000000;stroke-width:0.8;"/>
      </defs>
      <g>
       <use style="stroke:#000000;stroke-width:0.8;" x="69.218182" xlink:href="#m6b27a76012" y="252"/>
      </g>
     </g>
     <g id="text_1">
      <!-- 0 -->
      <defs>
       <path d="M 31.78125 66.40625 
Q 24.171875 66.40625 20.328125 58.90625 
Q 16.5 51.421875 16.5 36.375 
Q 16.5 21.390625 20.328125 13.890625 
Q 24.171875 6.390625 31.78125 6.390625 
Q 39.453125 6.390625 43.28125 13.890625 
Q 47.125 21.390625 47.125 36.375 
Q 47.125 51.421875 43.28125 58.90625 
Q 39.453125 66.40625 31.78125 66.40625 
z
M 31.78125 74.21875 
Q 44.046875 74.21875 50.515625 64.515625 
Q 56.984375 54.828125 56.984375 36.375 
Q 56.984375 17.96875 50.515625 8.265625 
Q 44.046875 -1.421875 31.78125 -1.421875 
Q 19.53125 -1.421875 13.0625 8.265625 
Q 6.59375 17.96875 6.59375 36.375 
Q 6.59375 54.828125 13.0625 64.515625 
Q 19.53125 74.21875 31.78125 74.21875 
z
" id="DejaVuSans-48"/>
      </defs>
      <g transform="translate(66.036932 266.598437)scale(0.1 -0.1)">
       <use xlink:href="#DejaVuSans-48"/>
      </g>
     </g>
    </g>
    <g id="xtick_2">
     <g id="line2d_2">
      <g>
       <use style="stroke:#000000;stroke-width:0.8;" x="130.151843" xlink:href="#m6b27a76012" y="252"/>
      </g>
     </g>
     <g id="text_2">
      <!-- 200 -->
      <defs>
       <path d="M 19.1875 8.296875 
L 53.609375 8.296875 
L 53.609375 0 
L 7.328125 0 
L 7.328125 8.296875 
Q 12.9375 14.109375 22.625 23.890625 
Q 32.328125 33.6875 34.8125 36.53125 
Q 39.546875 41.84375 41.421875 45.53125 
Q 43.3125 49.21875 43.3125 52.78125 
Q 43.3125 58.59375 39.234375 62.25 
Q 35.15625 65.921875 28.609375 65.921875 
Q 23.96875 65.921875 18.8125 64.3125 
Q 13.671875 62.703125 7.8125 59.421875 
L 7.8125 69.390625 
Q 13.765625 71.78125 18.9375 73 
Q 24.125 74.21875 28.421875 74.21875 
Q 39.75 74.21875 46.484375 68.546875 
Q 53.21875 62.890625 53.21875 53.421875 
Q 53.21875 48.921875 51.53125 44.890625 
Q 49.859375 40.875 45.40625 35.40625 
Q 44.1875 33.984375 37.640625 27.21875 
Q 31.109375 20.453125 19.1875 8.296875 
z
" id="DejaVuSans-50"/>
      </defs>
      <g transform="translate(120.608093 266.598437)scale(0.1 -0.1)">
       <use xlink:href="#DejaVuSans-50"/>
       <use x="63.623047" xlink:href="#DejaVuSans-48"/>
       <use x="127.246094" xlink:href="#DejaVuSans-48"/>
      </g>
     </g>
    </g>
    <g id="xtick_3">
     <g id="line2d_3">
      <g>
       <use style="stroke:#000000;stroke-width:0.8;" x="191.085504" xlink:href="#m6b27a76012" y="252"/>
      </g>
     </g>
     <g id="text_3">
      <!-- 400 -->
      <defs>
       <path d="M 37.796875 64.3125 
L 12.890625 25.390625 
L 37.796875 25.390625 
z
M 35.203125 72.90625 
L 47.609375 72.90625 
L 47.609375 25.390625 
L 58.015625 25.390625 
L 58.015625 17.1875 
L 47.609375 17.1875 
L 47.609375 0 
L 37.796875 0 
L 37.796875 17.1875 
L 4.890625 17.1875 
L 4.890625 26.703125 
z
" id="DejaVuSans-52"/>
      </defs>
      <g transform="translate(181.541754 266.598437)scale(0.1 -0.1)">
       <use xlink:href="#DejaVuSans-52"/>
       <use x="63.623047" xlink:href="#DejaVuSans-48"/>
       <use x="127.246094" xlink:href="#DejaVuSans-48"/>
      </g>
     </g>
    </g>
    <g id="xtick_4">
     <g id="line2d_4">
      <g>
       <use style="stroke:#000000;stroke-width:0.8;" x="252.019165" xlink:href="#m6b27a76012" y="252"/>
      </g>
     </g>
     <g id="text_4">
      <!-- 600 -->
      <defs>
       <path d="M 33.015625 40.375 
Q 26.375 40.375 22.484375 35.828125 
Q 18.609375 31.296875 18.609375 23.390625 
Q 18.609375 15.53125 22.484375 10.953125 
Q 26.375 6.390625 33.015625 6.390625 
Q 39.65625 6.390625 43.53125 10.953125 
Q 47.40625 15.53125 47.40625 23.390625 
Q 47.40625 31.296875 43.53125 35.828125 
Q 39.65625 40.375 33.015625 40.375 
z
M 52.59375 71.296875 
L 52.59375 62.3125 
Q 48.875 64.0625 45.09375 64.984375 
Q 41.3125 65.921875 37.59375 65.921875 
Q 27.828125 65.921875 22.671875 59.328125 
Q 17.53125 52.734375 16.796875 39.40625 
Q 19.671875 43.65625 24.015625 45.921875 
Q 28.375 48.1875 33.59375 48.1875 
Q 44.578125 48.1875 50.953125 41.515625 
Q 57.328125 34.859375 57.328125 23.390625 
Q 57.328125 12.15625 50.6875 5.359375 
Q 44.046875 -1.421875 33.015625 -1.421875 
Q 20.359375 -1.421875 13.671875 8.265625 
Q 6.984375 17.96875 6.984375 36.375 
Q 6.984375 53.65625 15.1875 63.9375 
Q 23.390625 74.21875 37.203125 74.21875 
Q 40.921875 74.21875 44.703125 73.484375 
Q 48.484375 72.75 52.59375 71.296875 
z
" id="DejaVuSans-54"/>
      </defs>
      <g transform="translate(242.475415 266.598437)scale(0.1 -0.1)">
       <use xlink:href="#DejaVuSans-54"/>
       <use x="63.623047" xlink:href="#DejaVuSans-48"/>
       <use x="127.246094" xlink:href="#DejaVuSans-48"/>
      </g>
     </g>
    </g>
    <g id="xtick_5">
     <g id="line2d_5">
      <g>
       <use style="stroke:#000000;stroke-width:0.8;" x="312.952826" xlink:href="#m6b27a76012" y="252"/>
      </g>
     </g>
     <g id="text_5">
      <!-- 800 -->
      <defs>
       <path d="M 31.78125 34.625 
Q 24.75 34.625 20.71875 30.859375 
Q 16.703125 27.09375 16.703125 20.515625 
Q 16.703125 13.921875 20.71875 10.15625 
Q 24.75 6.390625 31.78125 6.390625 
Q 38.8125 6.390625 42.859375 10.171875 
Q 46.921875 13.96875 46.921875 20.515625 
Q 46.921875 27.09375 42.890625 30.859375 
Q 38.875 34.625 31.78125 34.625 
z
M 21.921875 38.8125 
Q 15.578125 40.375 12.03125 44.71875 
Q 8.5 49.078125 8.5 55.328125 
Q 8.5 64.0625 14.71875 69.140625 
Q 20.953125 74.21875 31.78125 74.21875 
Q 42.671875 74.21875 48.875 69.140625 
Q 55.078125 64.0625 55.078125 55.328125 
Q 55.078125 49.078125 51.53125 44.71875 
Q 48 40.375 41.703125 38.8125 
Q 48.828125 37.15625 52.796875 32.3125 
Q 56.78125 27.484375 56.78125 20.515625 
Q 56.78125 9.90625 50.3125 4.234375 
Q 43.84375 -1.421875 31.78125 -1.421875 
Q 19.734375 -1.421875 13.25 4.234375 
Q 6.78125 9.90625 6.78125 20.515625 
Q 6.78125 27.484375 10.78125 32.3125 
Q 14.796875 37.15625 21.921875 38.8125 
z
M 18.3125 54.390625 
Q 18.3125 48.734375 21.84375 45.5625 
Q 25.390625 42.390625 31.78125 42.390625 
Q 38.140625 42.390625 41.71875 45.5625 
Q 45.3125 48.734375 45.3125 54.390625 
Q 45.3125 60.0625 41.71875 63.234375 
Q 38.140625 66.40625 31.78125 66.40625 
Q 25.390625 66.40625 21.84375 63.234375 
Q 18.3125 60.0625 18.3125 54.390625 
z
" id="DejaVuSans-56"/>
      </defs>
      <g transform="translate(303.409076 266.598437)scale(0.1 -0.1)">
       <use xlink:href="#DejaVuSans-56"/>
       <use x="63.623047" xlink:href="#DejaVuSans-48"/>
       <use x="127.246094" xlink:href="#DejaVuSans-48"/>
      </g>
     </g>
    </g>
    <g id="xtick_6">
     <g id="line2d_6">
      <g>
       <use style="stroke:#000000;stroke-width:0.8;" x="373.886486" xlink:href="#m6b27a76012" y="252"/>
      </g>
     </g>
     <g id="text_6">
      <!-- 1000 -->
      <defs>
       <path d="M 12.40625 8.296875 
L 28.515625 8.296875 
L 28.515625 63.921875 
L 10.984375 60.40625 
L 10.984375 69.390625 
L 28.421875 72.90625 
L 38.28125 72.90625 
L 38.28125 8.296875 
L 54.390625 8.296875 
L 54.390625 0 
L 12.40625 0 
z
" id="DejaVuSans-49"/>
      </defs>
      <g transform="translate(361.161486 266.598437)scale(0.1 -0.1)">
       <use xlink:href="#DejaVuSans-49"/>
       <use x="63.623047" xlink:href="#DejaVuSans-48"/>
       <use x="127.246094" xlink:href="#DejaVuSans-48"/>
       <use x="190.869141" xlink:href="#DejaVuSans-48"/>
      </g>
     </g>
    </g>
    <g id="text_7">
     <!-- Epoch -->
     <defs>
      <path d="M 9.8125 72.90625 
L 55.90625 72.90625 
L 55.90625 64.59375 
L 19.671875 64.59375 
L 19.671875 43.015625 
L 54.390625 43.015625 
L 54.390625 34.71875 
L 19.671875 34.71875 
L 19.671875 8.296875 
L 56.78125 8.296875 
L 56.78125 0 
L 9.8125 0 
z
" id="DejaVuSans-69"/>
      <path d="M 18.109375 8.203125 
L 18.109375 -20.796875 
L 9.078125 -20.796875 
L 9.078125 54.6875 
L 18.109375 54.6875 
L 18.109375 46.390625 
Q 20.953125 51.265625 25.265625 53.625 
Q 29.59375 56 35.59375 56 
Q 45.5625 56 51.78125 48.09375 
Q 58.015625 40.1875 58.015625 27.296875 
Q 58.015625 14.40625 51.78125 6.484375 
Q 45.5625 -1.421875 35.59375 -1.421875 
Q 29.59375 -1.421875 25.265625 0.953125 
Q 20.953125 3.328125 18.109375 8.203125 
z
M 48.6875 27.296875 
Q 48.6875 37.203125 44.609375 42.84375 
Q 40.53125 48.484375 33.40625 48.484375 
Q 26.265625 48.484375 22.1875 42.84375 
Q 18.109375 37.203125 18.109375 27.296875 
Q 18.109375 17.390625 22.1875 11.75 
Q 26.265625 6.109375 33.40625 6.109375 
Q 40.53125 6.109375 44.609375 11.75 
Q 48.6875 17.390625 48.6875 27.296875 
z
" id="DejaVuSans-112"/>
      <path d="M 30.609375 48.390625 
Q 23.390625 48.390625 19.1875 42.75 
Q 14.984375 37.109375 14.984375 27.296875 
Q 14.984375 17.484375 19.15625 11.84375 
Q 23.34375 6.203125 30.609375 6.203125 
Q 37.796875 6.203125 41.984375 11.859375 
Q 46.1875 17.53125 46.1875 27.296875 
Q 46.1875 37.015625 41.984375 42.703125 
Q 37.796875 48.390625 30.609375 48.390625 
z
M 30.609375 56 
Q 42.328125 56 49.015625 48.375 
Q 55.71875 40.765625 55.71875 27.296875 
Q 55.71875 13.875 49.015625 6.21875 
Q 42.328125 -1.421875 30.609375 -1.421875 
Q 18.84375 -1.421875 12.171875 6.21875 
Q 5.515625 13.875 5.515625 27.296875 
Q 5.515625 40.765625 12.171875 48.375 
Q 18.84375 56 30.609375 56 
z
" id="DejaVuSans-111"/>
      <path d="M 48.78125 52.59375 
L 48.78125 44.1875 
Q 44.96875 46.296875 41.140625 47.34375 
Q 37.3125 48.390625 33.40625 48.390625 
Q 24.65625 48.390625 19.8125 42.84375 
Q 14.984375 37.3125 14.984375 27.296875 
Q 14.984375 17.28125 19.8125 11.734375 
Q 24.65625 6.203125 33.40625 6.203125 
Q 37.3125 6.203125 41.140625 7.25 
Q 44.96875 8.296875 48.78125 10.40625 
L 48.78125 2.09375 
Q 45.015625 0.34375 40.984375 -0.53125 
Q 36.96875 -1.421875 32.421875 -1.421875 
Q 20.0625 -1.421875 12.78125 6.34375 
Q 5.515625 14.109375 5.515625 27.296875 
Q 5.515625 40.671875 12.859375 48.328125 
Q 20.21875 56 33.015625 56 
Q 37.15625 56 41.109375 55.140625 
Q 45.0625 54.296875 48.78125 52.59375 
z
" id="DejaVuSans-99"/>
      <path d="M 54.890625 33.015625 
L 54.890625 0 
L 45.90625 0 
L 45.90625 32.71875 
Q 45.90625 40.484375 42.875 44.328125 
Q 39.84375 48.1875 33.796875 48.1875 
Q 26.515625 48.1875 22.3125 43.546875 
Q 18.109375 38.921875 18.109375 30.90625 
L 18.109375 0 
L 9.078125 0 
L 9.078125 75.984375 
L 18.109375 75.984375 
L 18.109375 46.1875 
Q 21.34375 51.125 25.703125 53.5625 
Q 30.078125 56 35.796875 56 
Q 45.21875 56 50.046875 50.171875 
Q 54.890625 44.34375 54.890625 33.015625 
z
" id="DejaVuSans-104"/>
     </defs>
     <g transform="translate(206.089063 280.276563)scale(0.1 -0.1)">
      <use xlink:href="#DejaVuSans-69"/>
      <use x="63.183594" xlink:href="#DejaVuSans-112"/>
      <use x="126.660156" xlink:href="#DejaVuSans-111"/>
      <use x="187.841797" xlink:href="#DejaVuSans-99"/>
      <use x="242.822266" xlink:href="#DejaVuSans-104"/>
     </g>
    </g>
   </g>
   <g id="matplotlib.axis_2">
    <g id="ytick_1">
     <g id="line2d_7">
      <defs>
       <path d="M 0 0 
L -3.5 0 
" id="m054b3171cd" style="stroke:#000000;stroke-width:0.8;"/>
      </defs>
      <g>
       <use style="stroke:#000000;stroke-width:0.8;" x="54" xlink:href="#m054b3171cd" y="245.40644"/>
      </g>
     </g>
     <g id="text_8">
      <!-- 0.0 -->
      <defs>
       <path d="M 10.6875 12.40625 
L 21 12.40625 
L 21 0 
L 10.6875 0 
z
" id="DejaVuSans-46"/>
      </defs>
      <g transform="translate(31.096875 249.205659)scale(0.1 -0.1)">
       <use xlink:href="#DejaVuSans-48"/>
       <use x="63.623047" xlink:href="#DejaVuSans-46"/>
       <use x="95.410156" xlink:href="#DejaVuSans-48"/>
      </g>
     </g>
    </g>
    <g id="ytick_2">
     <g id="line2d_8">
      <g>
       <use style="stroke:#000000;stroke-width:0.8;" x="54" xlink:href="#m054b3171cd" y="208.887273"/>
      </g>
     </g>
     <g id="text_9">
      <!-- 0.2 -->
      <g transform="translate(31.096875 212.686491)scale(0.1 -0.1)">
       <use xlink:href="#DejaVuSans-48"/>
       <use x="63.623047" xlink:href="#DejaVuSans-46"/>
       <use x="95.410156" xlink:href="#DejaVuSans-50"/>
      </g>
     </g>
    </g>
    <g id="ytick_3">
     <g id="line2d_9">
      <g>
       <use style="stroke:#000000;stroke-width:0.8;" x="54" xlink:href="#m054b3171cd" y="172.368105"/>
      </g>
     </g>
     <g id="text_10">
      <!-- 0.4 -->
      <g transform="translate(31.096875 176.167324)scale(0.1 -0.1)">
       <use xlink:href="#DejaVuSans-48"/>
       <use x="63.623047" xlink:href="#DejaVuSans-46"/>
       <use x="95.410156" xlink:href="#DejaVuSans-52"/>
      </g>
     </g>
    </g>
    <g id="ytick_4">
     <g id="line2d_10">
      <g>
       <use style="stroke:#000000;stroke-width:0.8;" x="54" xlink:href="#m054b3171cd" y="135.848937"/>
      </g>
     </g>
     <g id="text_11">
      <!-- 0.6 -->
      <g transform="translate(31.096875 139.648156)scale(0.1 -0.1)">
       <use xlink:href="#DejaVuSans-48"/>
       <use x="63.623047" xlink:href="#DejaVuSans-46"/>
       <use x="95.410156" xlink:href="#DejaVuSans-54"/>
      </g>
     </g>
    </g>
    <g id="ytick_5">
     <g id="line2d_11">
      <g>
       <use style="stroke:#000000;stroke-width:0.8;" x="54" xlink:href="#m054b3171cd" y="99.32977"/>
      </g>
     </g>
     <g id="text_12">
      <!-- 0.8 -->
      <g transform="translate(31.096875 103.128988)scale(0.1 -0.1)">
       <use xlink:href="#DejaVuSans-48"/>
       <use x="63.623047" xlink:href="#DejaVuSans-46"/>
       <use x="95.410156" xlink:href="#DejaVuSans-56"/>
      </g>
     </g>
    </g>
    <g id="ytick_6">
     <g id="line2d_12">
      <g>
       <use style="stroke:#000000;stroke-width:0.8;" x="54" xlink:href="#m054b3171cd" y="62.810602"/>
      </g>
     </g>
     <g id="text_13">
      <!-- 1.0 -->
      <g transform="translate(31.096875 66.609821)scale(0.1 -0.1)">
       <use xlink:href="#DejaVuSans-49"/>
       <use x="63.623047" xlink:href="#DejaVuSans-46"/>
       <use x="95.410156" xlink:href="#DejaVuSans-48"/>
      </g>
     </g>
    </g>
    <g id="text_14">
     <!-- Loss -->
     <defs>
      <path d="M 9.8125 72.90625 
L 19.671875 72.90625 
L 19.671875 8.296875 
L 55.171875 8.296875 
L 55.171875 0 
L 9.8125 0 
z
" id="DejaVuSans-76"/>
      <path d="M 44.28125 53.078125 
L 44.28125 44.578125 
Q 40.484375 46.53125 36.375 47.5 
Q 32.28125 48.484375 27.875 48.484375 
Q 21.1875 48.484375 17.84375 46.4375 
Q 14.5 44.390625 14.5 40.28125 
Q 14.5 37.15625 16.890625 35.375 
Q 19.28125 33.59375 26.515625 31.984375 
L 29.59375 31.296875 
Q 39.15625 29.25 43.1875 25.515625 
Q 47.21875 21.78125 47.21875 15.09375 
Q 47.21875 7.46875 41.1875 3.015625 
Q 35.15625 -1.421875 24.609375 -1.421875 
Q 20.21875 -1.421875 15.453125 -0.5625 
Q 10.6875 0.296875 5.421875 2 
L 5.421875 11.28125 
Q 10.40625 8.6875 15.234375 7.390625 
Q 20.0625 6.109375 24.8125 6.109375 
Q 31.15625 6.109375 34.5625 8.28125 
Q 37.984375 10.453125 37.984375 14.40625 
Q 37.984375 18.0625 35.515625 20.015625 
Q 33.0625 21.96875 24.703125 23.78125 
L 21.578125 24.515625 
Q 13.234375 26.265625 9.515625 29.90625 
Q 5.8125 33.546875 5.8125 39.890625 
Q 5.8125 47.609375 11.28125 51.796875 
Q 16.75 56 26.8125 56 
Q 31.78125 56 36.171875 55.265625 
Q 40.578125 54.546875 44.28125 53.078125 
z
" id="DejaVuSans-115"/>
     </defs>
     <g transform="translate(25.017187 154.333906)rotate(-90)scale(0.1 -0.1)">
      <use xlink:href="#DejaVuSans-76"/>
      <use x="55.697266" xlink:href="#DejaVuSans-111"/>
      <use x="116.878906" xlink:href="#DejaVuSans-115"/>
      <use x="168.978516" xlink:href="#DejaVuSans-115"/>
     </g>
    </g>
   </g>
   <g id="line2d_13">
    <path clip-path="url(#p95d11a3b5b)" d="M 69.218182 44.443636 
L 70.741523 45.82082 
L 71.046192 46.350349 
L 71.655528 48.113725 
L 71.960197 49.571752 
L 72.569533 54.499567 
L 73.17887 62.513023 
L 73.788206 73.167496 
L 75.00688 100.65865 
L 76.225553 136.182743 
L 77.139558 149.359937 
L 77.444226 150.903378 
L 77.748894 155.392803 
L 78.053563 156.003937 
L 78.358231 154.209172 
L 78.662899 156.159963 
L 78.967568 155.920841 
L 79.272236 156.759751 
L 80.186241 154.142565 
L 80.490909 155.079384 
L 81.100246 154.44325 
L 81.404914 155.653742 
L 81.709582 153.866797 
L 82.014251 155.39283 
L 82.318919 154.744344 
L 82.623587 156.091294 
L 82.928256 155.440865 
L 83.232924 155.275021 
L 83.537592 154.811784 
L 83.84226 155.602714 
L 84.146929 153.941197 
L 84.451597 157.171389 
L 84.756265 156.051144 
L 85.060934 156.126671 
L 85.365602 155.999714 
L 85.67027 156.443921 
L 85.974939 156.019506 
L 86.279607 155.321352 
L 86.584275 157.117287 
L 86.888943 157.395405 
L 87.193612 155.838474 
L 87.49828 157.392015 
L 87.802948 157.527706 
L 88.107617 157.35919 
L 88.412285 155.421835 
L 88.716953 157.838154 
L 89.021622 157.70359 
L 89.32629 156.83611 
L 89.630958 156.414704 
L 89.935627 155.505834 
L 90.240295 156.195672 
L 90.544963 156.523213 
L 90.849631 157.825126 
L 91.1543 156.859063 
L 91.458968 156.373956 
L 91.763636 156.757509 
L 92.372973 156.488037 
L 92.677641 157.963941 
L 92.98231 157.720448 
L 93.286978 156.513516 
L 93.591646 156.989465 
L 93.896314 157.201324 
L 94.200983 156.706819 
L 94.505651 157.372615 
L 94.810319 156.216558 
L 95.114988 157.372049 
L 95.419656 157.49986 
L 95.724324 156.785257 
L 96.028993 157.42318 
L 96.333661 157.498843 
L 96.638329 157.70378 
L 96.942998 157.290983 
L 97.247666 157.528468 
L 97.552334 158.031577 
L 97.857002 157.479606 
L 98.161671 156.573092 
L 98.771007 157.425928 
L 99.075676 157.413075 
L 99.380344 157.766638 
L 99.685012 156.771271 
L 99.989681 158.400007 
L 100.294349 157.678149 
L 101.208354 157.262038 
L 101.513022 157.595206 
L 101.81769 157.693881 
L 102.122359 157.944007 
L 102.427027 156.469138 
L 103.036364 157.843764 
L 103.341032 157.799495 
L 103.6457 157.259138 
L 104.255037 157.96824 
L 104.559705 158.162185 
L 104.864373 157.199539 
L 105.169042 157.058276 
L 105.47371 158.825412 
L 105.778378 157.400956 
L 106.083047 156.611968 
L 106.387715 157.421743 
L 106.692383 155.711506 
L 106.997052 156.455474 
L 107.30172 156.35233 
L 107.606388 157.719746 
L 107.911057 158.120054 
L 108.215725 157.849767 
L 108.520393 156.354784 
L 109.12973 158.207596 
L 109.434398 156.483521 
L 110.043735 158.231883 
L 110.348403 156.913062 
L 110.653071 157.489553 
L 110.95774 158.378865 
L 111.262408 158.923909 
L 111.567076 157.960376 
L 111.871744 157.647893 
L 112.176413 156.637654 
L 112.481081 157.502505 
L 112.785749 157.297263 
L 113.090418 158.679845 
L 113.395086 158.025449 
L 113.699754 157.647844 
L 114.004423 157.848091 
L 114.309091 157.832952 
L 114.613759 157.209362 
L 114.918428 157.859333 
L 115.223096 156.245704 
L 115.527764 156.950197 
L 115.832432 157.203501 
L 116.137101 158.179636 
L 116.441769 158.618309 
L 117.051106 156.591486 
L 117.660442 158.309532 
L 117.965111 157.106196 
L 118.269779 158.189813 
L 118.574447 158.133648 
L 118.879115 157.897774 
L 119.183784 158.408594 
L 119.488452 157.873438 
L 119.79312 158.184866 
L 120.097789 158.837423 
L 120.402457 158.939314 
L 120.707125 159.322133 
L 121.011794 159.926627 
L 121.316462 159.197004 
L 121.62113 159.469785 
L 121.925799 160.173875 
L 122.230467 159.541507 
L 122.535135 161.3838 
L 122.839803 162.503996 
L 123.144472 162.432856 
L 123.753808 166.832676 
L 124.058477 164.482197 
L 125.27715 186.421958 
L 126.191155 216.728417 
L 126.495823 221.130039 
L 126.800491 222.789744 
L 127.10516 223.328097 
L 127.409828 224.336284 
L 127.714496 220.649584 
L 128.019165 219.861835 
L 128.323833 220.776677 
L 128.628501 225.340954 
L 128.93317 223.654606 
L 129.542506 229.739889 
L 129.847174 224.089781 
L 130.151843 228.128672 
L 130.456511 224.289048 
L 130.761179 230.367402 
L 131.065848 229.912045 
L 131.370516 224.315289 
L 131.675184 232.013242 
L 131.979853 231.347607 
L 132.284521 233.876646 
L 132.589189 234.089906 
L 132.893857 234.439044 
L 133.198526 233.749822 
L 133.503194 234.15911 
L 133.807862 234.129953 
L 134.112531 234.81919 
L 134.417199 234.42563 
L 134.721867 234.257413 
L 135.026536 234.550495 
L 135.331204 232.231022 
L 135.635872 234.661357 
L 135.940541 235.55541 
L 136.245209 234.551521 
L 136.854545 234.501965 
L 137.159214 235.195971 
L 137.463882 235.422278 
L 137.76855 234.604153 
L 138.073219 235.100294 
L 138.682555 234.401505 
L 138.987224 235.202879 
L 139.291892 235.28686 
L 139.59656 235.536899 
L 139.901229 235.155829 
L 140.205897 235.497162 
L 140.510565 235.132075 
L 140.815233 235.691796 
L 141.119902 236.010436 
L 141.42457 235.881216 
L 141.729238 234.010021 
L 142.033907 235.549322 
L 142.338575 236.050695 
L 142.643243 234.825062 
L 142.947912 235.771535 
L 143.25258 236.04704 
L 143.557248 235.914018 
L 143.861916 235.552625 
L 144.166585 236.809171 
L 144.471253 235.307318 
L 144.775921 236.756907 
L 145.08059 237.209346 
L 145.385258 235.893622 
L 145.689926 235.994915 
L 145.994595 234.819763 
L 146.299263 235.930278 
L 146.603931 235.825532 
L 146.9086 235.235089 
L 147.517936 236.889783 
L 148.127273 234.8248 
L 148.431941 237.074856 
L 148.736609 235.608832 
L 149.041278 235.789996 
L 149.345946 235.727914 
L 149.650614 235.478081 
L 149.955283 237.470584 
L 150.564619 235.933858 
L 150.869287 237.264954 
L 151.173956 235.218381 
L 151.478624 237.32225 
L 151.783292 236.193748 
L 152.087961 236.352103 
L 152.392629 236.105622 
L 152.697297 236.145859 
L 153.001966 234.405107 
L 153.306634 237.293284 
L 153.611302 234.746009 
L 153.915971 236.824997 
L 154.220639 237.052069 
L 154.525307 236.448165 
L 154.829975 236.12543 
L 155.134644 236.59385 
L 155.439312 235.424817 
L 155.74398 236.501923 
L 156.048649 236.517746 
L 156.353317 237.350488 
L 156.657985 235.29458 
L 156.962654 236.846581 
L 157.267322 234.678387 
L 157.57199 235.689979 
L 157.876658 235.907619 
L 158.181327 235.560029 
L 158.485995 235.793748 
L 159.095332 237.099403 
L 159.4 235.420319 
L 159.704668 234.825311 
L 160.009337 236.292142 
L 160.314005 235.291131 
L 160.618673 235.141072 
L 160.923342 236.788293 
L 161.22801 235.89115 
L 161.532678 236.278273 
L 161.837346 237.01317 
L 162.142015 237.224401 
L 162.446683 236.570996 
L 162.751351 236.434227 
L 163.05602 236.507493 
L 163.665356 235.760147 
L 163.970025 236.383116 
L 164.274693 235.22356 
L 164.579361 237.330042 
L 164.884029 238.305389 
L 165.188698 235.994195 
L 165.493366 235.948729 
L 165.798034 236.459246 
L 166.102703 236.652361 
L 166.407371 237.64548 
L 166.712039 236.339641 
L 167.016708 236.668746 
L 167.626044 235.089827 
L 167.930713 236.718816 
L 168.235381 234.72414 
L 168.540049 236.523647 
L 168.844717 236.000268 
L 169.149386 235.127482 
L 169.454054 237.045379 
L 170.063391 237.129444 
L 170.672727 236.639127 
L 170.977396 235.938091 
L 171.282064 236.466104 
L 171.586732 238.307142 
L 171.8914 237.417092 
L 172.196069 235.700928 
L 172.500737 237.151577 
L 172.805405 237.421253 
L 173.110074 236.260392 
L 173.414742 237.086525 
L 173.71941 235.715665 
L 174.024079 235.828625 
L 174.328747 237.739931 
L 174.633415 237.081077 
L 174.938084 237.799966 
L 175.242752 239.471549 
L 175.54742 237.439509 
L 176.156757 238.321175 
L 176.461425 238.846777 
L 176.766093 238.45579 
L 177.070762 238.447818 
L 177.37543 237.946099 
L 177.680098 238.252917 
L 177.984767 238.335559 
L 178.289435 238.86276 
L 178.594103 238.990574 
L 178.898771 237.459544 
L 179.20344 240.940599 
L 179.508108 237.860557 
L 179.812776 237.782514 
L 180.117445 239.953798 
L 180.422113 238.434902 
L 180.726781 238.080644 
L 181.03145 238.971497 
L 181.336118 238.641705 
L 181.640786 239.092468 
L 181.945455 238.584023 
L 182.250123 238.544694 
L 182.554791 237.804706 
L 182.859459 239.182158 
L 183.164128 235.073174 
L 183.468796 237.387389 
L 183.773464 238.685235 
L 184.078133 237.623414 
L 184.687469 237.698182 
L 184.992138 237.498103 
L 185.296806 238.9159 
L 185.601474 239.534679 
L 185.906143 239.692055 
L 186.210811 238.893838 
L 186.515479 238.74745 
L 186.820147 239.942941 
L 187.124816 240.451801 
L 187.429484 239.325212 
L 187.734152 239.195205 
L 188.038821 235.009032 
L 188.343489 237.614724 
L 188.648157 75.503325 
L 188.952826 236.678963 
L 189.257494 233.999545 
L 189.86683 225.802413 
L 190.171499 223.428657 
L 190.476167 221.963783 
L 191.085504 217.532277 
L 191.69484 223.458365 
L 192.608845 228.146787 
L 192.913514 230.230464 
L 193.218182 230.999428 
L 193.52285 231.247827 
L 193.827518 231.115647 
L 194.132187 231.718256 
L 194.436855 231.56375 
L 194.741523 233.028129 
L 195.046192 233.064772 
L 195.35086 233.267403 
L 195.655528 232.390736 
L 195.960197 232.424344 
L 196.264865 232.94225 
L 196.569533 233.893831 
L 196.874201 233.676577 
L 197.483538 234.754906 
L 197.788206 234.813244 
L 198.092875 234.579863 
L 198.397543 235.195004 
L 198.702211 234.291739 
L 199.00688 234.586665 
L 199.311548 235.38226 
L 199.616216 234.20608 
L 199.920885 234.917005 
L 200.530221 234.641789 
L 200.834889 234.084269 
L 201.139558 235.499861 
L 201.444226 234.778228 
L 201.748894 234.618892 
L 202.053563 235.212046 
L 202.358231 236.114636 
L 202.662899 235.462671 
L 202.967568 235.750701 
L 203.272236 235.616288 
L 203.576904 234.96959 
L 203.881572 236.152821 
L 204.186241 235.55708 
L 204.490909 235.965089 
L 204.795577 235.532273 
L 205.100246 236.357176 
L 205.404914 235.976102 
L 205.709582 236.49996 
L 206.014251 236.298079 
L 206.318919 236.661206 
L 206.623587 236.284614 
L 207.232924 237.021245 
L 207.537592 236.084451 
L 207.84226 236.9756 
L 208.146929 235.585205 
L 208.451597 236.093105 
L 208.756265 236.237489 
L 209.060934 235.246668 
L 209.365602 237.239261 
L 209.67027 235.71032 
L 210.279607 237.084356 
L 210.584275 235.867735 
L 210.888943 237.599327 
L 211.193612 236.614163 
L 211.49828 237.315144 
L 212.107617 236.688379 
L 212.412285 236.979618 
L 212.716953 236.069411 
L 213.021622 236.98912 
L 213.32629 237.216897 
L 213.630958 236.665072 
L 213.935627 237.288621 
L 214.240295 236.838498 
L 214.849631 236.45664 
L 215.1543 237.568636 
L 215.763636 236.913793 
L 216.068305 237.039326 
L 216.372973 237.954262 
L 216.98231 237.999403 
L 217.286978 237.472751 
L 217.591646 237.712958 
L 217.896314 237.37484 
L 218.200983 237.261786 
L 218.505651 237.72152 
L 218.810319 236.909798 
L 219.114988 237.106412 
L 219.419656 237.986879 
L 219.724324 237.588735 
L 220.028993 237.954322 
L 220.333661 237.297459 
L 220.638329 237.060325 
L 220.942998 237.716137 
L 221.552334 237.996317 
L 221.857002 237.085308 
L 222.466339 237.893902 
L 222.771007 237.709172 
L 223.075676 238.911136 
L 223.380344 237.880131 
L 223.685012 238.014394 
L 223.989681 238.665307 
L 224.294349 237.147583 
L 224.599017 238.256857 
L 224.903686 238.662989 
L 225.208354 237.336249 
L 225.513022 237.250862 
L 225.81769 239.252804 
L 226.122359 238.337718 
L 226.427027 238.092232 
L 226.731695 238.523474 
L 227.036364 238.26768 
L 227.341032 239.482507 
L 227.6457 238.2884 
L 227.950369 237.695191 
L 228.255037 238.030784 
L 228.559705 238.629956 
L 228.864373 239.671663 
L 229.169042 239.472481 
L 229.47371 239.493618 
L 229.778378 240.098095 
L 230.083047 238.011984 
L 230.387715 238.484253 
L 230.692383 238.326563 
L 230.997052 239.506187 
L 231.30172 239.491313 
L 231.606388 239.050862 
L 231.911057 238.830904 
L 232.520393 240.023293 
L 232.825061 238.633223 
L 233.12973 239.032883 
L 233.434398 239.011626 
L 233.739066 239.317718 
L 234.043735 239.176004 
L 234.348403 239.685542 
L 234.653071 238.831183 
L 234.95774 238.61365 
L 235.262408 239.222848 
L 235.567076 239.462394 
L 235.871744 239.189784 
L 236.481081 239.378523 
L 236.785749 239.135307 
L 237.090418 239.832384 
L 237.395086 238.569929 
L 237.699754 240.264979 
L 238.004423 239.387897 
L 238.309091 239.991961 
L 238.918428 239.903324 
L 239.223096 240.274069 
L 239.527764 240.393332 
L 239.832432 239.445373 
L 240.137101 240.160822 
L 240.441769 239.1223 
L 240.746437 240.076106 
L 241.051106 239.693287 
L 241.355774 240.963205 
L 241.660442 240.486434 
L 241.965111 239.048973 
L 242.269779 239.582349 
L 242.574447 240.569004 
L 243.183784 239.498598 
L 243.488452 240.361859 
L 243.79312 240.365674 
L 244.097789 239.563765 
L 244.402457 240.403545 
L 244.707125 240.438193 
L 245.011794 240.04045 
L 245.316462 241.380128 
L 245.62113 240.118387 
L 245.925799 239.499787 
L 246.230467 239.357552 
L 246.535135 241.164244 
L 246.839803 240.415454 
L 247.144472 240.202907 
L 247.44914 240.433425 
L 247.753808 241.222415 
L 248.058477 240.098955 
L 248.363145 240.602342 
L 248.667813 240.490889 
L 248.972482 239.163002 
L 249.581818 239.884373 
L 250.191155 241.07854 
L 250.495823 240.116546 
L 250.800491 239.719671 
L 251.10516 239.930443 
L 251.409828 239.239899 
L 251.714496 240.500885 
L 252.019165 240.320585 
L 252.323833 240.922297 
L 252.628501 241.168697 
L 252.93317 240.006852 
L 253.237838 240.867677 
L 253.542506 241.048834 
L 253.847174 240.519308 
L 254.151843 239.523897 
L 254.456511 240.80177 
L 254.761179 240.879838 
L 255.065848 240.420371 
L 255.370516 241.239173 
L 255.675184 239.505173 
L 256.284521 240.878182 
L 256.589189 240.709965 
L 256.893857 240.384388 
L 257.198526 241.42846 
L 257.503194 239.381344 
L 257.807862 239.968437 
L 258.112531 241.802797 
L 258.417199 240.351918 
L 258.721867 240.201029 
L 259.026536 240.235957 
L 259.331204 241.289575 
L 259.635872 239.73131 
L 259.940541 240.108337 
L 260.245209 241.416937 
L 260.549877 240.827449 
L 261.159214 241.057229 
L 261.463882 240.792236 
L 261.76855 240.91711 
L 262.073219 240.303039 
L 262.377887 240.778326 
L 262.682555 240.716009 
L 263.291892 240.042321 
L 263.901229 240.182318 
L 264.205897 239.760197 
L 264.510565 240.44527 
L 265.119902 241.222163 
L 265.42457 240.566499 
L 265.729238 240.667991 
L 266.033907 240.507324 
L 266.338575 241.30374 
L 266.643243 239.378563 
L 266.947912 239.48241 
L 267.25258 241.351942 
L 267.557248 240.181765 
L 267.861916 240.77522 
L 268.166585 240.388243 
L 268.471253 240.815972 
L 268.775921 240.260082 
L 269.08059 240.918133 
L 269.385258 240.601629 
L 269.689926 240.673258 
L 269.994595 239.912429 
L 270.299263 240.45656 
L 270.603931 239.962206 
L 270.9086 240.604308 
L 271.213268 240.597438 
L 271.517936 240.27035 
L 271.822604 239.448999 
L 272.127273 240.390535 
L 272.431941 239.772529 
L 272.736609 241.186298 
L 273.041278 240.567053 
L 273.345946 240.567226 
L 273.650614 240.680038 
L 273.955283 241.368683 
L 274.259951 240.329735 
L 274.564619 240.345528 
L 274.869287 240.904684 
L 275.173956 240.736391 
L 275.478624 241.374552 
L 275.783292 240.61485 
L 276.087961 240.930483 
L 276.392629 241.035372 
L 276.697297 240.742141 
L 277.001966 239.993115 
L 277.306634 240.179022 
L 277.611302 240.040869 
L 278.220639 241.246246 
L 278.525307 241.110499 
L 279.134644 239.380335 
L 279.439312 240.943716 
L 279.74398 241.448059 
L 280.657985 240.473048 
L 280.962654 240.727388 
L 281.267322 239.74654 
L 281.876658 241.413219 
L 282.181327 240.611212 
L 282.485995 240.628551 
L 282.790663 240.812815 
L 283.095332 239.487742 
L 283.4 240.598753 
L 283.704668 240.377063 
L 284.009337 241.779992 
L 284.618673 240.14341 
L 284.923342 240.764194 
L 285.22801 240.225296 
L 285.532678 241.081048 
L 285.837346 241.412285 
L 286.446683 240.586834 
L 286.751351 240.41438 
L 287.05602 240.563151 
L 287.360688 240.035093 
L 287.665356 240.605831 
L 287.970025 240.618382 
L 288.274693 240.283147 
L 288.579361 241.126424 
L 288.884029 239.991464 
L 289.188698 240.880997 
L 289.493366 240.637183 
L 289.798034 239.91748 
L 290.102703 241.485125 
L 290.407371 240.120936 
L 290.712039 241.175437 
L 291.016708 240.287848 
L 291.321376 240.699342 
L 291.626044 240.196651 
L 291.930713 240.946651 
L 292.235381 240.146427 
L 292.540049 241.028872 
L 292.844717 240.788992 
L 293.149386 239.921562 
L 293.454054 240.17897 
L 293.758722 240.724335 
L 294.368059 240.315709 
L 294.672727 241.043477 
L 295.282064 240.383987 
L 295.8914 240.543333 
L 296.500737 240.310274 
L 296.805405 241.607823 
L 297.110074 240.989622 
L 297.414742 240.657081 
L 298.024079 241.11016 
L 298.328747 241.173507 
L 298.938084 240.878309 
L 299.242752 240.505753 
L 299.54742 240.883725 
L 299.852088 240.745662 
L 300.156757 240.451779 
L 300.461425 241.376511 
L 300.766093 241.177786 
L 301.070762 241.129887 
L 301.37543 241.652302 
L 302.289435 240.646912 
L 302.594103 240.562037 
L 302.898771 240.794495 
L 303.20344 240.726583 
L 303.508108 240.366272 
L 303.812776 238.727115 
L 304.117445 238.458106 
L 304.422113 238.415358 
L 304.726781 237.529555 
L 305.03145 233.778486 
L 305.336118 235.894003 
L 305.945455 236.510045 
L 306.250123 232.906926 
L 306.554791 236.958801 
L 306.859459 237.961742 
L 307.164128 237.883954 
L 307.468796 237.464106 
L 308.078133 238.712671 
L 308.382801 238.691046 
L 308.687469 237.849815 
L 308.992138 238.648737 
L 309.296806 238.743112 
L 309.601474 239.190224 
L 309.906143 238.463251 
L 310.210811 240.317629 
L 310.515479 239.760135 
L 310.820147 238.493679 
L 311.124816 239.152286 
L 311.429484 240.500159 
L 311.734152 239.286159 
L 312.038821 239.519628 
L 312.343489 240.141085 
L 312.648157 237.553321 
L 312.952826 239.341941 
L 313.257494 238.933284 
L 313.562162 239.858808 
L 313.86683 240.177513 
L 314.171499 239.493738 
L 314.476167 240.368052 
L 314.780835 240.550869 
L 315.085504 239.809046 
L 315.390172 239.531161 
L 315.69484 240.679516 
L 315.999509 240.313584 
L 316.304177 240.361409 
L 316.608845 239.994099 
L 316.913514 241.034532 
L 317.218182 240.417653 
L 317.52285 240.212053 
L 317.827518 240.221228 
L 318.132187 240.830011 
L 318.436855 239.877164 
L 318.741523 240.730888 
L 319.046192 240.648236 
L 319.35086 240.185825 
L 319.655528 240.835747 
L 319.960197 240.530164 
L 320.264865 241.043266 
L 320.569533 241.168664 
L 320.874201 241.635861 
L 321.17887 240.093209 
L 321.483538 240.054653 
L 321.788206 240.619649 
L 322.092875 241.498728 
L 322.397543 240.502668 
L 322.702211 240.679234 
L 323.00688 240.115804 
L 323.616216 240.758529 
L 323.920885 240.230588 
L 324.225553 240.962491 
L 324.530221 239.979736 
L 324.834889 240.980917 
L 325.139558 241.446979 
L 325.444226 239.952678 
L 325.748894 241.321326 
L 326.053563 240.841808 
L 326.358231 240.750905 
L 326.662899 241.272834 
L 327.272236 240.605184 
L 327.576904 241.397846 
L 327.881572 241.244387 
L 328.186241 240.631473 
L 328.490909 240.526323 
L 328.795577 241.900085 
L 329.100246 240.950114 
L 329.404914 240.559799 
L 329.709582 240.495735 
L 330.014251 241.218848 
L 330.623587 240.947576 
L 330.928256 241.011934 
L 331.232924 241.386287 
L 331.537592 240.552054 
L 331.84226 241.276885 
L 332.146929 241.084924 
L 332.451597 240.236091 
L 332.756265 241.839917 
L 333.060934 240.931138 
L 333.365602 240.461942 
L 333.67027 240.528871 
L 333.974939 240.770766 
L 334.279607 241.717043 
L 334.584275 240.757364 
L 334.888943 242.116364 
L 335.193612 240.924962 
L 335.49828 240.992468 
L 335.802948 241.456051 
L 336.107617 239.826812 
L 336.412285 240.746861 
L 337.021622 240.364522 
L 337.32629 242.028408 
L 337.630958 240.877983 
L 337.935627 241.439084 
L 338.240295 241.605231 
L 338.544963 240.501945 
L 338.849631 240.585319 
L 339.1543 240.922102 
L 339.458968 240.536221 
L 339.763636 240.891414 
L 340.372973 240.58181 
L 340.677641 240.367228 
L 340.98231 241.10167 
L 341.286978 241.252854 
L 341.591646 240.486993 
L 341.896314 241.017158 
L 342.200983 240.564806 
L 342.505651 240.329854 
L 342.810319 241.789103 
L 343.114988 241.081737 
L 343.419656 240.97927 
L 343.724324 241.493173 
L 344.333661 240.506499 
L 344.638329 239.537908 
L 344.942998 241.140965 
L 345.247666 241.19491 
L 345.552334 241.012086 
L 345.857002 241.005536 
L 346.161671 240.104558 
L 346.466339 240.227186 
L 346.771007 241.421185 
L 347.075676 240.560568 
L 347.380344 240.733254 
L 347.685012 241.344062 
L 347.989681 240.844704 
L 348.294349 241.156546 
L 348.599017 240.405628 
L 348.903686 240.874519 
L 349.208354 241.709171 
L 349.513022 241.316423 
L 349.81769 241.344672 
L 350.427027 240.69267 
L 350.731695 241.967268 
L 351.341032 240.799261 
L 351.6457 240.659302 
L 351.950369 241.251526 
L 352.255037 240.763645 
L 352.559705 241.420111 
L 353.169042 240.794497 
L 353.47371 241.214807 
L 353.778378 241.239742 
L 354.083047 240.930823 
L 354.692383 241.005743 
L 354.997052 240.008576 
L 355.30172 240.397603 
L 355.606388 240.296052 
L 355.911057 240.71662 
L 356.520393 241.036414 
L 356.825061 241.203049 
L 357.12973 241.65137 
L 357.434398 240.945354 
L 358.043735 240.525735 
L 358.348403 240.47574 
L 358.653071 240.623682 
L 358.95774 240.976076 
L 359.262408 241.011489 
L 359.567076 241.410539 
L 359.871744 241.234464 
L 360.176413 240.769465 
L 360.481081 240.981978 
L 360.785749 240.953772 
L 361.090418 241.419087 
L 361.699754 241.338134 
L 362.004423 241.177051 
L 362.309091 240.838469 
L 362.613759 240.75195 
L 362.918428 241.666992 
L 363.223096 240.976302 
L 363.527764 241.623077 
L 363.832432 241.093676 
L 364.441769 241.403447 
L 364.746437 240.884177 
L 365.051106 241.585383 
L 365.355774 241.272816 
L 365.660442 241.750118 
L 365.965111 241.614242 
L 366.269779 241.640972 
L 366.574447 241.215069 
L 366.879115 241.276378 
L 367.183784 241.060967 
L 367.488452 241.401712 
L 367.79312 241.509553 
L 368.097789 241.161756 
L 368.402457 241.842895 
L 368.707125 241.058652 
L 369.011794 240.620272 
L 369.316462 241.317234 
L 369.62113 241.60408 
L 369.925799 240.765698 
L 370.535135 241.492253 
L 370.839803 240.776303 
L 371.144472 240.724178 
L 371.44914 241.291735 
L 371.753808 241.171135 
L 372.058477 241.391221 
L 372.363145 241.292488 
L 372.667813 240.787715 
L 372.972482 240.70444 
L 373.27715 241.360124 
L 373.581818 241.185572 
L 373.581818 241.185572 
" style="fill:none;stroke:#1f77b4;stroke-linecap:square;stroke-width:1.5;"/>
   </g>
   <g id="patch_3">
    <path d="M 54 252 
L 54 34.56 
" style="fill:none;stroke:#000000;stroke-linecap:square;stroke-linejoin:miter;stroke-width:0.8;"/>
   </g>
   <g id="patch_4">
    <path d="M 388.8 252 
L 388.8 34.56 
" style="fill:none;stroke:#000000;stroke-linecap:square;stroke-linejoin:miter;stroke-width:0.8;"/>
   </g>
   <g id="patch_5">
    <path d="M 54 252 
L 388.8 252 
" style="fill:none;stroke:#000000;stroke-linecap:square;stroke-linejoin:miter;stroke-width:0.8;"/>
   </g>
   <g id="patch_6">
    <path d="M 54 34.56 
L 388.8 34.56 
" style="fill:none;stroke:#000000;stroke-linecap:square;stroke-linejoin:miter;stroke-width:0.8;"/>
   </g>
   <g id="text_15">
    <!-- Training Loss -->
    <defs>
     <path d="M -0.296875 72.90625 
L 61.375 72.90625 
L 61.375 64.59375 
L 35.5 64.59375 
L 35.5 0 
L 25.59375 0 
L 25.59375 64.59375 
L -0.296875 64.59375 
z
" id="DejaVuSans-84"/>
     <path d="M 41.109375 46.296875 
Q 39.59375 47.171875 37.8125 47.578125 
Q 36.03125 48 33.890625 48 
Q 26.265625 48 22.1875 43.046875 
Q 18.109375 38.09375 18.109375 28.8125 
L 18.109375 0 
L 9.078125 0 
L 9.078125 54.6875 
L 18.109375 54.6875 
L 18.109375 46.1875 
Q 20.953125 51.171875 25.484375 53.578125 
Q 30.03125 56 36.53125 56 
Q 37.453125 56 38.578125 55.875 
Q 39.703125 55.765625 41.0625 55.515625 
z
" id="DejaVuSans-114"/>
     <path d="M 34.28125 27.484375 
Q 23.390625 27.484375 19.1875 25 
Q 14.984375 22.515625 14.984375 16.5 
Q 14.984375 11.71875 18.140625 8.90625 
Q 21.296875 6.109375 26.703125 6.109375 
Q 34.1875 6.109375 38.703125 11.40625 
Q 43.21875 16.703125 43.21875 25.484375 
L 43.21875 27.484375 
z
M 52.203125 31.203125 
L 52.203125 0 
L 43.21875 0 
L 43.21875 8.296875 
Q 40.140625 3.328125 35.546875 0.953125 
Q 30.953125 -1.421875 24.3125 -1.421875 
Q 15.921875 -1.421875 10.953125 3.296875 
Q 6 8.015625 6 15.921875 
Q 6 25.140625 12.171875 29.828125 
Q 18.359375 34.515625 30.609375 34.515625 
L 43.21875 34.515625 
L 43.21875 35.40625 
Q 43.21875 41.609375 39.140625 45 
Q 35.0625 48.390625 27.6875 48.390625 
Q 23 48.390625 18.546875 47.265625 
Q 14.109375 46.140625 10.015625 43.890625 
L 10.015625 52.203125 
Q 14.9375 54.109375 19.578125 55.046875 
Q 24.21875 56 28.609375 56 
Q 40.484375 56 46.34375 49.84375 
Q 52.203125 43.703125 52.203125 31.203125 
z
" id="DejaVuSans-97"/>
     <path d="M 9.421875 54.6875 
L 18.40625 54.6875 
L 18.40625 0 
L 9.421875 0 
z
M 9.421875 75.984375 
L 18.40625 75.984375 
L 18.40625 64.59375 
L 9.421875 64.59375 
z
" id="DejaVuSans-105"/>
     <path d="M 54.890625 33.015625 
L 54.890625 0 
L 45.90625 0 
L 45.90625 32.71875 
Q 45.90625 40.484375 42.875 44.328125 
Q 39.84375 48.1875 33.796875 48.1875 
Q 26.515625 48.1875 22.3125 43.546875 
Q 18.109375 38.921875 18.109375 30.90625 
L 18.109375 0 
L 9.078125 0 
L 9.078125 54.6875 
L 18.109375 54.6875 
L 18.109375 46.1875 
Q 21.34375 51.125 25.703125 53.5625 
Q 30.078125 56 35.796875 56 
Q 45.21875 56 50.046875 50.171875 
Q 54.890625 44.34375 54.890625 33.015625 
z
" id="DejaVuSans-110"/>
     <path d="M 45.40625 27.984375 
Q 45.40625 37.75 41.375 43.109375 
Q 37.359375 48.484375 30.078125 48.484375 
Q 22.859375 48.484375 18.828125 43.109375 
Q 14.796875 37.75 14.796875 27.984375 
Q 14.796875 18.265625 18.828125 12.890625 
Q 22.859375 7.515625 30.078125 7.515625 
Q 37.359375 7.515625 41.375 12.890625 
Q 45.40625 18.265625 45.40625 27.984375 
z
M 54.390625 6.78125 
Q 54.390625 -7.171875 48.1875 -13.984375 
Q 42 -20.796875 29.203125 -20.796875 
Q 24.46875 -20.796875 20.265625 -20.09375 
Q 16.0625 -19.390625 12.109375 -17.921875 
L 12.109375 -9.1875 
Q 16.0625 -11.328125 19.921875 -12.34375 
Q 23.78125 -13.375 27.78125 -13.375 
Q 36.625 -13.375 41.015625 -8.765625 
Q 45.40625 -4.15625 45.40625 5.171875 
L 45.40625 9.625 
Q 42.625 4.78125 38.28125 2.390625 
Q 33.9375 0 27.875 0 
Q 17.828125 0 11.671875 7.65625 
Q 5.515625 15.328125 5.515625 27.984375 
Q 5.515625 40.671875 11.671875 48.328125 
Q 17.828125 56 27.875 56 
Q 33.9375 56 38.28125 53.609375 
Q 42.625 51.21875 45.40625 46.390625 
L 45.40625 54.6875 
L 54.390625 54.6875 
z
" id="DejaVuSans-103"/>
     <path id="DejaVuSans-32"/>
    </defs>
    <g transform="translate(181.685625 28.56)scale(0.12 -0.12)">
     <use xlink:href="#DejaVuSans-84"/>
     <use x="60.865234" xlink:href="#DejaVuSans-114"/>
     <use x="101.978516" xlink:href="#DejaVuSans-97"/>
     <use x="163.257812" xlink:href="#DejaVuSans-105"/>
     <use x="191.041016" xlink:href="#DejaVuSans-110"/>
     <use x="254.419922" xlink:href="#DejaVuSans-105"/>
     <use x="282.203125" xlink:href="#DejaVuSans-110"/>
     <use x="345.582031" xlink:href="#DejaVuSans-103"/>
     <use x="409.058594" xlink:href="#DejaVuSans-32"/>
     <use x="440.845703" xlink:href="#DejaVuSans-76"/>
     <use x="496.542969" xlink:href="#DejaVuSans-111"/>
     <use x="557.724609" xlink:href="#DejaVuSans-115"/>
     <use x="609.824219" xlink:href="#DejaVuSans-115"/>
    </g>
   </g>
  </g>
 </g>
 <defs>
  <clipPath id="p95d11a3b5b">
   <rect height="217.44" width="334.8" x="54" y="34.56"/>
  </clipPath>
 </defs>
</svg>
